<svg width="195" height="161" viewBox="0 0 195 161" fill="none" xmlns="http://www.w3.org/2000/svg">
<g clipPath="url(#clip0_918_8549)">
<path d="M86.1143 160.06C86.1143 142.406 100.43 128.09 118.084 128.09" stroke="black" strokeWidth="0.483652" strokeMiterlimit="10"/>
<path d="M59.1499 31.9646H4.30371V68.5045H59.1499V31.9646Z" fill="#7CC8C2"/>
<path d="M194.863 122.069H152.205V79.4114C175.759 79.4114 194.863 98.4914 194.863 122.069Z" fill="#61ADE0"/>
<path d="M136.583 13.5137C136.583 30.3448 122.944 44.0079 106.089 44.0079" stroke="#61ADE0" strokeWidth="14.5096" strokeMiterlimit="10"/>
<path d="M90.4433 16.27H77.4814V56.8242H90.4433V16.27Z" stroke="black" strokeWidth="0.483652" strokeMiterlimit="10"/>
<path d="M0.725586 121.101L37.0237 89.5674V121.101H0.725586Z" fill="#E75553"/>
<path d="M67.2258 37.2605C47.9765 37.2605 32.3545 52.8583 32.3545 72.1318C32.3545 91.3812 47.9523 107.003 67.2258 107.003C86.4752 107.003 102.097 91.4053 102.097 72.1318C102.097 52.8825 86.4752 37.2605 67.2258 37.2605ZM67.2258 96.7739C53.611 96.7739 42.5837 85.7466 42.5837 72.1318C42.5837 58.517 53.611 47.4897 67.2258 47.4897C80.8406 47.4897 91.8679 58.517 91.8679 72.1318C91.8921 85.7466 80.8406 96.7739 67.2258 96.7739Z" fill="#FED45D"/>
<path d="M67.2261 96.7739C80.8355 96.7739 91.8681 85.7413 91.8681 72.1318C91.8681 58.5224 80.8355 47.4897 67.2261 47.4897C53.6166 47.4897 42.584 58.5224 42.584 72.1318C42.584 85.7413 53.6166 96.7739 67.2261 96.7739Z" fill="white"/>
<path d="M67.2261 96.7739C80.8355 96.7739 91.8681 85.7413 91.8681 72.1318C91.8681 58.5224 80.8355 47.4897 67.2261 47.4897C53.6166 47.4897 42.584 58.5224 42.584 72.1318C42.584 85.7413 53.6166 96.7739 67.2261 96.7739Z" stroke="black" strokeWidth="0.638929" strokeMiterlimit="10"/>
<path d="M59.2933 59.7256H75.1813C75.278 59.7256 75.3264 59.774 75.3264 59.8707V61.3942C75.3264 61.4909 75.278 61.5393 75.1813 61.5393H69.2082V61.6844C70.0546 62.1438 70.7317 63.087 71.1911 64.5137L71.2637 64.9974H75.2055C75.3022 64.9974 75.3506 65.0458 75.3506 65.1425V66.666C75.3506 66.7627 75.3022 66.8111 75.2055 66.8111H71.433C71.433 68.5039 70.3931 70.1483 68.3134 71.7443C66.4755 72.8084 65.1697 73.3162 64.3958 73.3162C64.3958 73.3646 64.3475 73.3888 64.2507 73.3888L72.7872 84.4402V84.5853H69.5467C69.5225 84.5853 66.2095 80.305 59.656 71.7443V71.6718H60.6717C64.2991 71.6718 66.4755 70.3659 67.201 67.7542C67.2494 67.4398 67.2736 67.198 67.2736 67.0045V66.8111H59.2933C59.1966 66.8111 59.1482 66.7627 59.1482 66.666V65.1425C59.1482 65.0458 59.1966 64.9974 59.2933 64.9974H67.201C66.935 63.9817 66.3546 63.1595 65.484 62.5066C64.2749 61.8778 63.1625 61.5393 62.171 61.5393H59.2691C59.1724 61.5393 59.124 61.4909 59.124 61.3942V59.8707C59.1482 59.774 59.1966 59.7256 59.2933 59.7256Z" fill="#1C96A0"/>
<path d="M14.2188 139.094V86.8591C14.2188 85.3598 15.4279 84.1506 16.9272 84.1506C18.4265 84.1506 19.6357 85.3598 19.6357 86.8591V139.094C19.6357 140.593 18.4265 141.802 16.9272 141.802C15.4279 141.802 14.2188 140.593 14.2188 139.094Z" fill="#173588"/>
<path d="M166.013 142.962H125.217V149.564H166.013V142.962Z" fill="#173588"/>
<path d="M173.703 53.0759H126.668V58.9765H173.703V53.0759Z" fill="#E75553"/>
<path d="M150.101 49.5456C148.408 49.4005 147.175 48.7476 146.28 47.877L147.538 46.0875C148.142 46.7163 149.013 47.2725 150.101 47.4659V44.9751C148.457 44.564 146.643 43.9353 146.643 41.7588C146.643 40.1386 147.925 38.7602 150.101 38.5184V37.019H151.6V38.5425C152.906 38.6876 154.019 39.1713 154.889 39.9693L153.608 41.6621C153.027 41.1301 152.326 40.7915 151.6 40.6222V42.847C153.269 43.2582 155.131 43.9111 155.131 46.1117C155.131 47.9012 153.946 49.2796 151.6 49.5214V50.9724H150.101V49.5456V49.5456ZM150.101 42.5085V40.5739C149.4 40.6706 148.989 41.0575 148.989 41.6137C148.989 42.049 149.424 42.2908 150.101 42.5085ZM151.6 45.3379V47.4901C152.423 47.3208 152.81 46.8614 152.81 46.3535C152.81 45.8215 152.302 45.5797 151.6 45.3379Z" fill="#1C96A0"/>
<path d="M37.0244 107.003V128.695H152.206V58.9524H126.669V79.8703H101.084V107.003H37.0244Z" fill="#FFE4B6"/>
<path d="M191.696 69.5208L168.456 106.109H191.696V69.5208Z" stroke="black" strokeWidth="0.483652" strokeMiterlimit="10"/>
<path d="M52.9375 153.555C57.612 153.555 61.4015 149.765 61.4015 145.091C61.4015 140.416 57.612 136.627 52.9375 136.627C48.2631 136.627 44.4736 140.416 44.4736 145.091C44.4736 149.765 48.2631 153.555 52.9375 153.555Z" fill="#1C96A0"/>
<path d="M37.0245 19.6317C41.6989 19.6317 45.4884 15.8423 45.4884 11.1678C45.4884 6.49328 41.6989 2.70386 37.0245 2.70386C32.35 2.70386 28.5605 6.49328 28.5605 11.1678C28.5605 15.8423 32.35 19.6317 37.0245 19.6317Z" stroke="black" strokeWidth="0.483652" strokeMiterlimit="10"/>
<path d="M168.456 37.1881C170.94 37.1881 172.954 35.1743 172.954 32.6901C172.954 30.2059 170.94 28.1921 168.456 28.1921C165.972 28.1921 163.958 30.2059 163.958 32.6901C163.958 35.1743 165.972 37.1881 168.456 37.1881Z" fill="black"/>
<path d="M135.688 0.43042H112.11V24.0085H135.688V0.43042Z" fill="#FFE4B6"/>
</g>
<defs>
<clipPath id="clip0_918_8549">
<rect width="194.138" height="159.629" fill="white" transform="translate(0.725586 0.430176)"/>
</clipPath>
</defs>
</svg>
