<svg width="213" height="172" viewBox="0 0 213 172" fill="none" xmlns="http://www.w3.org/2000/svg">
<g clipPath="url(#clip0_918_8573)">
<path d="M24.9239 55.0167H22.4331C21.3933 55.0167 20.5469 54.1703 20.5469 53.1304V53.0337H26.8102V53.1304C26.8102 54.1703 25.9638 55.0167 24.9239 55.0167Z" fill="#FFE4B6"/>
<path d="M13.2443 34.2191C13.1234 34.0256 12.9783 33.8321 12.8574 33.6387C12.8574 33.6387 12.8574 33.6387 12.8574 33.6145C12.9783 33.808 13.0992 34.0014 13.2443 34.2191Z" fill="black"/>
<path d="M34.4758 33.6145C34.3549 33.8321 34.2098 34.0256 34.0889 34.2191C34.2098 34.0014 34.3549 33.808 34.4758 33.6145Z" fill="black"/>
<path d="M13.2443 34.2191C13.1234 34.0256 12.9783 33.8321 12.8574 33.6387C12.8574 33.6387 12.8574 33.6387 12.8574 33.6145C12.9783 33.808 13.0992 34.0014 13.2443 34.2191Z" fill="black"/>
<path d="M36.2898 27.0857C36.2898 29.4556 35.6369 31.6804 34.5003 33.5909C34.3794 33.7843 34.2343 34.002 34.1134 34.1954C34.2585 34.002 34.3794 33.8085 34.5003 33.5909C34.3794 33.8327 33.1703 35.9366 32.0337 38.5483C31.1148 40.6764 30.22 43.1188 29.954 45.126H17.4032C17.1372 43.0946 16.2425 40.6522 15.3235 38.5483C14.2111 36.0091 13.0504 33.9294 12.8569 33.615C12.9778 33.8085 13.0987 34.002 13.2438 34.1954C13.1229 33.9778 12.9778 33.7843 12.8569 33.5667C11.7203 31.6804 11.0674 29.4556 11.0674 27.0616C11.0674 20.097 16.7261 14.4382 23.6907 14.4382C30.6311 14.4624 36.2898 20.1211 36.2898 27.0857Z" fill="#FED45D"/>
<path d="M34.4758 33.6145C34.3549 33.8321 34.2098 34.0256 34.0889 34.2191C34.2098 34.0014 34.3549 33.808 34.4758 33.6145Z" fill="black"/>
<path d="M22.1914 45.1734C22.1914 45.1734 22.9411 35.5245 19.7732 33.5899C16.6052 31.6553 15.6863 36.8062 22.264 36.7337H25.045C31.6226 36.8062 30.7279 31.6795 27.5358 33.5899C24.3437 35.5004 25.1175 45.1734 25.1175 45.1734" stroke="black" strokeWidth="0.433812" strokeMiterlimit="10"/>
<path d="M29.9792 45.1736H17.4043V47.1324H29.9792V45.1736Z" fill="#7CC8C2"/>
<path d="M29.9792 47.1328H17.4043V49.0916H29.9792V47.1328Z" fill="#1C96A0"/>
<path d="M29.9792 49.0918H17.4043V51.0506H29.9792V49.0918Z" fill="#7CC8C2"/>
<path d="M29.9792 51.0747H17.4043V53.0335H29.9792V51.0747Z" fill="#1C96A0"/>
<path d="M24.9239 55.0167H22.4331C21.3933 55.0167 20.5469 54.1703 20.5469 53.1304V53.0337H26.8102V53.1304C26.8102 54.1703 25.9638 55.0167 24.9239 55.0167Z" stroke="black" strokeWidth="0.433812" strokeMiterlimit="10"/>
<path d="M207.334 45.7549H194.977V58.1122H207.334V45.7549Z" fill="#E75553"/>
<path d="M194.976 58.0881H182.619V70.4454H194.976V58.0881Z" fill="#E75553"/>
<path d="M207.334 70.4451H194.977V82.8024H207.334V70.4451Z" fill="#E75553"/>
<path d="M182.619 82.8022V95.1596H194.976V82.8022H182.619ZM188.786 92.8138C186.658 92.8138 184.941 91.0969 184.941 88.9688C184.941 86.8407 186.658 85.1238 188.786 85.1238C190.914 85.1238 192.631 86.8407 192.631 88.9688C192.631 91.0969 190.914 92.8138 188.786 92.8138Z" fill="#E75553"/>
<path d="M170.552 57.0961C171.928 57.0961 173.043 55.9809 173.043 54.6053C173.043 53.2297 171.928 52.1145 170.552 52.1145C169.177 52.1145 168.062 53.2297 168.062 54.6053C168.062 55.9809 169.177 57.0961 170.552 57.0961Z" fill="white"/>
<path d="M170.554 33.1799C179.65 33.1799 187.023 25.8067 187.023 16.7115C187.023 7.6163 179.65 0.243164 170.554 0.243164C161.459 0.243164 154.086 7.6163 154.086 16.7115C154.086 25.8067 161.459 33.1799 170.554 33.1799Z" fill="#FFE4B6"/>
<path d="M133.698 8.58616V17.4612H170.553V0.243164H148.812V8.85217L133.698 8.58616Z" stroke="black" strokeWidth="0.483652" strokeMiterlimit="10"/>
<path d="M46.7014 41.4009L43.709 44.3933L46.7014 47.3857L49.6938 44.3933L46.7014 41.4009Z" fill="#7CC8C2"/>
<path d="M16.2199 72.0171L8.62654 79.6104L1.0332 72.0171" stroke="black" strokeWidth="0.483652" strokeMiterlimit="10"/>
<path d="M175.996 143.879L173.004 146.871L175.996 149.864L178.989 146.871L175.996 143.879Z" fill="black"/>
<path d="M76.2895 7.83663V38.6936H68.0674V7.83663C68.0674 5.56346 69.9053 3.72559 72.1784 3.72559C74.4516 3.72559 76.2895 5.56346 76.2895 7.83663Z" fill="#FFE4B6"/>
<path d="M167.265 44.4004H154.109V48.9709H167.265V44.4004Z" fill="#173588"/>
<path d="M170.626 58.0397C172.269 58.0397 173.6 56.708 173.6 55.0653C173.6 53.4225 172.269 52.0908 170.626 52.0908C168.983 52.0908 167.651 53.4225 167.651 55.0653C167.651 56.708 168.983 58.0397 170.626 58.0397Z" fill="#7CC8C2"/>
<path d="M116.723 171.529C118.366 171.529 119.698 170.197 119.698 168.554C119.698 166.911 118.366 165.58 116.723 165.58C115.081 165.58 113.749 166.911 113.749 168.554C113.749 170.197 115.081 171.529 116.723 171.529Z" fill="#61ADE0"/>
<path d="M71.9847 51.8486L5.28906 138.06H98.7548" stroke="black" strokeWidth="0.483652" strokeMiterlimit="10"/>
<path d="M68.9618 161.13C70.6045 161.13 71.9362 159.798 71.9362 158.155C71.9362 156.512 70.6045 155.181 68.9618 155.181C67.319 155.181 65.9873 156.512 65.9873 158.155C65.9873 159.798 67.319 161.13 68.9618 161.13Z" fill="#E75553"/>
<path d="M74.8857 51.3889V70.4448" stroke="black" strokeWidth="0.483652" strokeMiterlimit="10"/>
<path d="M138.269 51.3889V70.4448" stroke="black" strokeWidth="0.483652" strokeMiterlimit="10"/>
<path d="M106.564 51.3889V70.4448" stroke="black" strokeWidth="0.483652" strokeMiterlimit="10"/>
<path d="M149.634 120.188C151.666 120.188 153.552 120.188 155.414 120.188C157.977 120.188 158.63 120.889 158.63 123.501C158.63 127.322 158.63 131.143 158.63 134.964C158.63 137.672 158.002 138.325 155.317 138.325C138.825 138.325 122.308 138.325 105.815 138.325C89.7824 138.325 73.7493 138.325 57.7405 138.325C55.1287 138.325 54.5 137.672 54.5 135.06C54.5 131.046 54.5 127.056 54.5 123.042C54.5 121.01 55.2738 120.237 57.3052 120.212C59.3365 120.188 61.3437 120.212 63.5201 120.212C63.5201 119.535 63.5201 118.931 63.5201 118.326C63.5443 116.512 64.3907 115.666 66.2286 115.666C72.0324 115.666 77.8362 115.666 83.6159 115.666C104.413 115.666 125.186 115.666 145.983 115.666C149.006 115.666 149.465 116.125 149.538 119.172C149.586 119.463 149.61 119.729 149.634 120.188Z" fill="#1C96A0"/>
<path d="M106.418 56.83C91.7154 56.83 76.9882 56.83 62.2852 56.83C59.6734 56.83 59.0205 56.1771 59.0205 53.5896C59.0205 49.7687 59.0205 45.9479 59.0205 42.127C59.0205 39.2976 59.6251 38.7173 62.4061 38.7173C67.4119 38.7173 72.3935 38.7414 77.3993 38.6689C78.3424 38.6447 79.3581 38.4271 80.2045 38.016C88.4024 33.9775 96.5761 29.8906 104.726 25.7554C106.031 25.0783 107.12 25.0783 108.45 25.7554C116.672 29.9148 124.942 34.05 133.213 38.1369C133.89 38.4754 134.712 38.6689 135.486 38.6689C140.661 38.7173 145.86 38.6931 151.035 38.6931C153.429 38.6931 154.131 39.3944 154.131 41.8368C154.155 45.8511 154.131 49.8413 154.131 53.8556C154.131 56.032 153.357 56.8059 151.132 56.8059C136.236 56.83 121.315 56.83 106.418 56.83Z" fill="#1C96A0"/>
<path d="M63.5449 86.2605C63.5449 80.4566 63.5449 74.677 63.5449 68.8732C63.5449 66.5758 64.2946 65.8745 66.6161 65.8745C72.1297 65.8745 77.6434 65.8745 83.157 65.8745C85.4302 65.8745 86.1798 66.6242 86.1798 68.9215C86.1798 80.5534 86.1798 92.1852 86.1798 103.841C86.1798 105.8 85.3818 106.622 83.4714 106.622C77.7643 106.646 72.0572 106.646 66.3743 106.622C64.3429 106.622 63.5691 105.824 63.5691 103.793C63.5691 97.9407 63.5691 92.0885 63.5449 86.2605C63.5449 86.2605 63.5691 86.2605 63.5449 86.2605Z" fill="#FED45D"/>
<path d="M95.249 86.1395C95.249 80.2874 95.249 74.4593 95.249 68.6072C95.249 66.6967 96.0712 65.8745 98.03 65.8745C103.737 65.8745 109.444 65.8503 115.127 65.8745C117.086 65.8745 117.884 66.6967 117.908 68.6072C117.908 80.2874 117.908 91.9676 117.908 103.672C117.908 105.873 117.134 106.622 114.909 106.622C109.347 106.622 103.785 106.622 98.2235 106.622C96.0229 106.622 95.249 105.848 95.249 103.648C95.249 97.8197 95.249 91.9675 95.249 86.1395Z" fill="#E75553"/>
<path d="M126.927 86.0912C126.927 80.3841 126.927 74.677 126.927 68.9941C126.927 66.5758 127.653 65.8745 130.023 65.8745C135.633 65.8745 141.244 65.8745 146.854 65.8745C148.764 65.8745 149.562 66.7209 149.562 68.6555C149.562 80.2873 149.562 91.9434 149.562 103.575C149.562 105.873 148.813 106.622 146.515 106.622C140.905 106.622 135.295 106.622 129.684 106.622C127.677 106.622 126.903 105.824 126.903 103.769C126.928 97.8681 126.952 91.9675 126.927 86.0912Z" fill="#61ADE0"/>
<path d="M80.7872 115.667H68.9619V91.3147C68.9619 90.299 69.7841 89.501 70.7756 89.501H78.9735C79.9892 89.501 80.7872 90.3232 80.7872 91.3147V115.667Z" stroke="black" strokeWidth="0.483652" strokeMiterlimit="10"/>
<path d="M112.489 115.667H100.664V91.3147C100.664 90.299 101.486 89.501 102.478 89.501H110.651C111.667 89.501 112.465 90.3232 112.465 91.3147V115.667H112.489Z" stroke="black" strokeWidth="0.483652" strokeMiterlimit="10"/>
<path d="M133.794 89.7429H151.399V99.2225H157.566V115.401H132.585V90.9521C132.585 90.2749 133.117 89.7429 133.794 89.7429Z" fill="#FFE4B6"/>
<path d="M144.192 115.667H132.367V91.3147C132.367 90.299 133.189 89.501 134.181 89.501H142.355C143.37 89.501 144.168 90.3232 144.168 91.3147V115.667H144.192Z" stroke="black" strokeWidth="0.483652" strokeMiterlimit="10"/>
<path d="M142.453 89.7429H151.328L151.376 99.2225H157.543V115.425H141.728" fill="#FFE4B6"/>
<path d="M166.441 149.595H39.7485C38.2492 149.595 37.04 148.386 37.04 146.887C37.04 145.387 38.2492 144.178 39.7485 144.178H166.441C167.94 144.178 169.15 145.387 169.15 146.887C169.15 148.386 167.94 149.595 166.441 149.595Z" fill="#7CC8C2"/>
<path d="M132.345 160.888H80.1108C78.6115 160.888 77.4023 159.679 77.4023 158.18C77.4023 156.681 78.6115 155.471 80.1108 155.471H132.345C133.845 155.471 135.054 156.681 135.054 158.18C135.078 159.655 133.845 160.888 132.345 160.888Z" fill="#173588"/>
<path d="M22.5072 124.421C27.5022 124.421 31.5515 120.372 31.5515 115.377C31.5515 110.382 27.5022 106.332 22.5072 106.332C17.5122 106.332 13.4629 110.382 13.4629 115.377C13.4629 120.372 17.5122 124.421 22.5072 124.421Z" fill="#173588"/>
<path d="M202.958 132.279C208.3 132.279 212.631 127.949 212.631 122.606C212.631 117.264 208.3 112.933 202.958 112.933C197.616 112.933 193.285 117.264 193.285 122.606C193.285 127.949 197.616 132.279 202.958 132.279Z" stroke="black" strokeWidth="0.483652" strokeMiterlimit="10"/>
</g>
<defs>
<clipPath id="clip0_918_8573">
<rect width="212.009" height="171.527" fill="white" transform="translate(0.863281)"/>
</clipPath>
</defs>
</svg>
