<svg width="198" height="154" viewBox="0 0 198 154" fill="none" xmlns="http://www.w3.org/2000/svg">
<g clipPath="url(#clip0_918_8625)">
<path d="M97.0698 108.459H50.5908V121.808H97.0698V108.459Z" fill="black"/>
<path d="M113.587 32.7927H73.275C70.3247 32.7927 67.9307 30.3986 67.9307 27.4484C67.9307 24.4981 70.3247 22.104 73.275 22.104H113.587C116.538 22.104 118.932 24.4981 118.932 27.4484C118.908 30.3986 116.538 32.7927 113.587 32.7927Z" stroke="black" strokeWidth="0.483652" strokeMiterlimit="10"/>
<path d="M151.216 39.491H182.387" stroke="black" strokeWidth="0.638929" strokeMiterlimit="10"/>
<path d="M169.811 0.000488281H111.652V58.1596H169.811V0.000488281Z" fill="#173588"/>
<path d="M161.977 76.3934H93.4189V7.83569C131.289 7.83569 161.977 38.5234 161.977 76.3934Z" fill="#FED45D"/>
<path d="M48.6329 72.4515C31.8018 72.4515 18.1387 58.8125 18.1387 41.9573" stroke="#E75553" strokeWidth="14.5096" strokeMiterlimit="10"/>
<path d="M137.165 45.5607L120.576 25.7068V45.5607H137.165Z" stroke="black" strokeWidth="0.483652" strokeMiterlimit="10"/>
<path d="M112.16 139.994V115.327C112.16 112.377 114.554 109.983 117.505 109.983C120.455 109.983 122.849 112.377 122.849 115.327V140.018C122.849 142.968 120.455 145.362 117.505 145.362C114.554 145.338 112.16 142.944 112.16 139.994Z" stroke="black" strokeWidth="0.483652" strokeMiterlimit="10"/>
<path d="M185.797 138.398H7.08736C5.58804 138.398 4.37891 137.189 4.37891 135.689C4.37891 134.19 5.58804 132.981 7.08736 132.981H185.821C187.32 132.981 188.529 134.19 188.529 135.689C188.529 137.189 187.296 138.398 185.797 138.398Z" fill="#173588"/>
<path d="M96.755 138.398L87.7832 153.971H105.703L96.755 138.398Z" fill="#7CC8C2"/>
<path d="M32.5035 25.7069L41.4994 10.1333H23.5801L32.5035 25.7069Z" fill="#FED45D"/>
<path d="M4.35436 91.508C6.27758 91.508 7.83666 89.949 7.83666 88.0258C7.83666 86.1025 6.27758 84.5435 4.35436 84.5435C2.43115 84.5435 0.87207 86.1025 0.87207 88.0258C0.87207 89.949 2.43115 91.508 4.35436 91.508Z" fill="#7CC8C2"/>
<path d="M154.988 21.7168C156.911 21.7168 158.47 20.1577 158.47 18.2345C158.47 16.3113 156.911 14.7522 154.988 14.7522C153.065 14.7522 151.506 16.3113 151.506 18.2345C151.506 20.1577 153.065 21.7168 154.988 21.7168Z" fill="#E75553"/>
<path d="M61.0135 149.667C62.3758 149.667 63.4801 148.563 63.4801 147.2C63.4801 145.838 62.3758 144.734 61.0135 144.734C59.6512 144.734 58.5469 145.838 58.5469 147.2C58.5469 148.563 59.6512 149.667 61.0135 149.667Z" fill="#61ADE0"/>
<path d="M41.933 87.2517C29.2129 87.2517 18.9111 97.5535 18.9111 110.274C18.9111 122.994 29.2129 133.295 41.933 133.295C54.653 133.295 64.9548 122.994 64.9548 110.274C64.9548 97.5535 54.653 87.2517 41.933 87.2517ZM41.933 126.548C32.937 126.548 25.6581 119.269 25.6581 110.274C25.6581 101.278 32.937 93.9987 41.933 93.9987C50.9289 93.9987 58.2079 101.302 58.2079 110.274C58.2079 119.269 50.9289 126.548 41.933 126.548Z" fill="#FFE4B6"/>
<path d="M41.933 127.782C51.6025 127.782 59.4412 119.943 59.4412 110.274C59.4412 100.604 51.6025 92.7656 41.933 92.7656C32.2635 92.7656 24.4248 100.604 24.4248 110.274C24.4248 119.943 32.2635 127.782 41.933 127.782Z" fill="white"/>
<path d="M41.933 127.782C51.6025 127.782 59.4412 119.943 59.4412 110.274C59.4412 100.604 51.6025 92.7656 41.933 92.7656C32.2635 92.7656 24.4248 100.604 24.4248 110.274C24.4248 119.943 32.2635 127.782 41.933 127.782Z" stroke="black" strokeWidth="0.638929" strokeMiterlimit="10"/>
<path d="M61.3763 54.7498C48.6563 54.7498 38.3545 65.0515 38.3545 77.7716C38.3545 90.4916 48.6563 100.793 61.3763 100.793C74.0964 100.793 84.3982 90.4916 84.3982 77.7716C84.3982 65.0757 74.0964 54.7498 61.3763 54.7498ZM61.3763 94.0707C52.3804 94.0707 45.1014 86.7917 45.1014 77.7958C45.1014 68.7999 52.3804 61.5209 61.3763 61.5209C70.3723 61.5209 77.6512 68.824 77.6512 77.7958C77.6512 86.7917 70.3723 94.0707 61.3763 94.0707Z" fill="#FFE4B6"/>
<path d="M61.3764 95.304C71.0459 95.304 78.8846 87.4653 78.8846 77.7958C78.8846 68.1263 71.0459 60.2876 61.3764 60.2876C51.7069 60.2876 43.8682 68.1263 43.8682 77.7958C43.8682 87.4653 51.7069 95.304 61.3764 95.304Z" fill="white"/>
<path d="M61.3764 95.304C71.0459 95.304 78.8846 87.4653 78.8846 77.7958C78.8846 68.1263 71.0459 60.2876 61.3764 60.2876C51.7069 60.2876 43.8682 68.1263 43.8682 77.7958C43.8682 87.4653 51.7069 95.304 61.3764 95.304Z" stroke="black" strokeWidth="0.638929" strokeMiterlimit="10"/>
<path d="M97.0707 41.9812C84.3506 41.9812 74.0488 52.283 74.0488 65.003C74.0488 77.7231 84.3506 88.0249 97.0707 88.0249C109.791 88.0249 120.092 77.7231 120.092 65.003C120.117 52.283 109.791 41.9812 97.0707 41.9812ZM97.0707 81.2779C88.0747 81.2779 80.7958 73.999 80.7958 65.003C80.7958 56.0071 88.0747 48.7281 97.0707 48.7281C106.067 48.7281 113.346 56.0313 113.346 65.003C113.37 73.999 106.067 81.2779 97.0707 81.2779Z" fill="#FFE4B6"/>
<path d="M97.0707 82.5108C106.74 82.5108 114.579 74.6721 114.579 65.0026C114.579 55.3331 106.74 47.4944 97.0707 47.4944C87.4012 47.4944 79.5625 55.3331 79.5625 65.0026C79.5625 74.6721 87.4012 82.5108 97.0707 82.5108Z" fill="white"/>
<path d="M97.0707 82.5108C106.74 82.5108 114.579 74.6721 114.579 65.0026C114.579 55.3331 106.74 47.4944 97.0707 47.4944C87.4012 47.4944 79.5625 55.3331 79.5625 65.0026C79.5625 74.6721 87.4012 82.5108 97.0707 82.5108Z" stroke="black" strokeWidth="0.638929" strokeMiterlimit="10"/>
<path d="M132.258 54.75C119.538 54.75 109.236 65.0518 109.236 77.7718C109.236 90.4919 119.538 100.794 132.258 100.794C144.978 100.794 155.28 90.4919 155.28 77.7718C155.304 65.076 144.978 54.75 132.258 54.75ZM132.258 94.0709C123.262 94.0709 115.983 86.792 115.983 77.796C115.983 68.8001 123.262 61.5211 132.258 61.5211C141.254 61.5211 148.533 68.8243 148.533 77.796C148.557 86.792 141.254 94.0709 132.258 94.0709Z" fill="#FFE4B6"/>
<path d="M132.258 95.3033C141.928 95.3033 149.766 87.4646 149.766 77.7951C149.766 68.1256 141.928 60.2869 132.258 60.2869C122.589 60.2869 114.75 68.1256 114.75 77.7951C114.75 87.4646 122.589 95.3033 132.258 95.3033Z" fill="white"/>
<path d="M132.258 95.3033C141.928 95.3033 149.766 87.4646 149.766 77.7951C149.766 68.1256 141.928 60.2869 132.258 60.2869C122.589 60.2869 114.75 68.1256 114.75 77.7951C114.75 87.4646 122.589 95.3033 132.258 95.3033Z" stroke="black" strokeWidth="0.638929" strokeMiterlimit="10"/>
<path d="M151.624 86.9622C138.904 86.9622 128.603 97.2639 128.603 109.984C128.603 122.704 138.904 133.006 151.624 133.006C164.344 133.006 174.646 122.704 174.646 109.984C174.646 97.2639 164.344 86.9622 151.624 86.9622ZM151.624 126.259C142.628 126.259 135.349 118.98 135.349 109.984C135.349 100.988 142.628 93.7091 151.624 93.7091C160.62 93.7091 167.899 101.012 167.899 109.984C167.899 118.98 160.62 126.259 151.624 126.259Z" fill="#FFE4B6"/>
<path d="M151.624 127.492C161.294 127.492 169.133 119.653 169.133 109.984C169.133 100.314 161.294 92.4753 151.624 92.4753C141.955 92.4753 134.116 100.314 134.116 109.984C134.116 119.653 141.955 127.492 151.624 127.492Z" fill="white"/>
<path d="M151.624 127.492C161.294 127.492 169.133 119.653 169.133 109.984C169.133 100.314 161.294 92.4753 151.624 92.4753C141.955 92.4753 134.116 100.314 134.116 109.984C134.116 119.653 141.955 127.492 151.624 127.492Z" stroke="black" strokeWidth="0.638929" strokeMiterlimit="10"/>
<path d="M49.1631 41.4734H41.207V49.4295H49.1631V41.4734Z" fill="black"/>
<path d="M57.0947 33.5178H49.1387V41.4739H57.0947V33.5178Z" fill="black"/>
<path d="M197.476 79.6338H182.386V100.818H197.476V79.6338Z" fill="#1C96A0"/>
</g>
<defs>
<clipPath id="clip0_918_8625">
<rect width="196.605" height="153.971" fill="white" transform="translate(0.87207)"/>
</clipPath>
</defs>
</svg>
