
<svg  width="100%" height="100%" viewBox="0 0 232 304" fill="none" xmlns="http://www.w3.org/2000/svg">
<g filter="url(#filter0_d_1202_11568)">
<path d="M93.5285 76.3492C107.142 68.4893 123.915 68.4893 137.528 76.3492L193.579 108.71C207.193 116.57 215.579 131.095 215.579 146.815V211.537C215.579 227.256 207.193 241.782 193.579 249.642L137.528 282.003C123.915 289.863 107.142 289.863 93.5285 282.003L37.4779 249.642C23.8642 241.782 15.4779 227.256 15.4779 211.537V146.815C15.4779 131.095 23.8642 116.57 37.4779 108.71L93.5285 76.3492Z" fill="white"/>
</g>
<path d="M93.526 83.4331C107.14 75.5733 123.912 75.5733 137.526 83.4332L187.441 112.252C201.055 120.112 209.441 134.637 209.441 150.357V207.994C209.441 223.714 201.055 238.239 187.441 246.099L137.526 274.918C123.912 282.778 107.14 282.778 93.526 274.918L43.6107 246.099C29.9971 238.239 21.6108 223.714 21.6108 207.994V150.357C21.6108 134.637 29.9971 120.112 43.6108 112.252L93.526 83.4331Z" fill="url(#paint0_linear_1202_11568)"/>
<g filter="url(#filter1_i_1202_11568)">
<path d="M93.5291 89.9937C107.143 82.1339 123.915 82.1339 137.529 89.9937L181.764 115.533C195.377 123.392 203.764 137.918 203.764 153.638V204.715C203.764 220.435 195.377 234.961 181.764 242.821L137.529 268.359C123.915 276.219 107.143 276.219 93.5291 268.359L49.2945 242.821C35.6808 234.961 27.2945 220.435 27.2945 204.715V153.638C27.2945 137.918 35.6808 123.392 49.2945 115.533L93.5291 89.9937Z" fill="url(#paint1_linear_1202_11568)"/>
</g>
<g filter="url(#filter2_i_1202_11568)">
<path d="M93.5285 95.7583C107.142 87.8985 123.915 87.8985 137.529 95.7583L178.172 119.224C191.785 127.084 200.172 141.609 200.172 157.329V204.259C200.172 219.979 191.785 234.505 178.172 242.365L137.528 265.83C123.915 273.69 107.142 273.69 93.5285 265.83L52.8853 242.365C39.2717 234.505 30.8854 219.979 30.8854 204.259V157.329C30.8854 141.609 39.2717 127.084 52.8854 119.224L93.5285 95.7583Z" fill="url(#paint2_linear_1202_11568)"/>
</g>
<g filter="url(#filter3_i_1202_11568)">
<path d="M98.2304 98.835C108.681 92.8017 121.556 92.8017 132.006 98.8351L176.459 124.5C186.909 130.534 193.347 141.684 193.347 153.751V205.081C193.347 217.148 186.909 228.298 176.459 234.332L132.006 259.997C121.556 266.03 108.681 266.03 98.2304 259.997L53.7768 234.332C43.3267 228.298 36.8892 217.148 36.8892 205.081V153.751C36.8892 141.684 43.3267 130.534 53.7768 124.5L98.2304 98.835Z" fill="#E99500"/>
</g>
<mask id="mask0_1202_11568" style="mask-type:alpha" maskUnits="userSpaceOnUse" x="36" y="94" width="158" height="171">
<path d="M98.2304 98.835C108.681 92.8017 121.556 92.8017 132.006 98.8351L176.459 124.5C186.909 130.534 193.347 141.684 193.347 153.751V205.081C193.347 217.148 186.909 228.298 176.459 234.332L132.006 259.997C121.556 266.03 108.681 266.03 98.2304 259.997L53.7768 234.332C43.3267 228.298 36.8892 217.148 36.8892 205.081V153.751C36.8892 141.684 43.3267 130.534 53.7768 124.5L98.2304 98.835Z" fill="#E99500"/>
</mask>
<g mask="url(#mask0_1202_11568)">
<line x1="3.67719" y1="114.028" x2="51.3011" y2="291.763" stroke="#737373" stroke-opacity="0.14" strokeWidth="1.26871"/>
<line x1="9.56001" y1="112.452" x2="57.1839" y2="290.187" stroke="#737373" stroke-opacity="0.14" strokeWidth="1.26871"/>
<line x1="15.4428" y1="110.877" x2="63.0667" y2="288.612" stroke="#737373" stroke-opacity="0.14" strokeWidth="1.26871"/>
<line x1="21.3256" y1="109.3" x2="68.9496" y2="287.035" stroke="#737373" stroke-opacity="0.14" strokeWidth="1.26871"/>
<line x1="27.2084" y1="107.723" x2="74.8324" y2="285.457" stroke="#737373" stroke-opacity="0.14" strokeWidth="1.26871"/>
<line x1="33.0913" y1="106.146" x2="80.7152" y2="283.881" stroke="#737373" stroke-opacity="0.14" strokeWidth="1.26871"/>
<line x1="38.9741" y1="104.571" x2="86.598" y2="282.306" stroke="#737373" stroke-opacity="0.14" strokeWidth="1.26871"/>
<line x1="44.8549" y1="102.994" x2="92.4789" y2="280.729" stroke="#737373" stroke-opacity="0.14" strokeWidth="1.26871"/>
<line x1="50.7377" y1="101.418" x2="98.3617" y2="279.153" stroke="#737373" stroke-opacity="0.14" strokeWidth="1.26871"/>
<line x1="56.6206" y1="99.8417" x2="104.244" y2="277.577" stroke="#737373" stroke-opacity="0.14" strokeWidth="1.26871"/>
<line x1="62.5034" y1="98.2665" x2="110.127" y2="276.001" stroke="#737373" stroke-opacity="0.14" strokeWidth="1.26871"/>
<line x1="68.3862" y1="96.6884" x2="116.01" y2="274.423" stroke="#737373" stroke-opacity="0.14" strokeWidth="1.26871"/>
<line x1="74.269" y1="95.1141" x2="121.893" y2="272.849" stroke="#737373" stroke-opacity="0.14" strokeWidth="1.26871"/>
<line x1="80.1518" y1="93.537" x2="127.776" y2="271.272" stroke="#737373" stroke-opacity="0.14" strokeWidth="1.26871"/>
<line x1="86.0346" y1="91.9608" x2="133.659" y2="269.696" stroke="#737373" stroke-opacity="0.14" strokeWidth="1.26871"/>
<line x1="91.9174" y1="90.3837" x2="139.541" y2="268.119" stroke="#737373" stroke-opacity="0.14" strokeWidth="1.26871"/>
<line x1="97.7983" y1="88.8085" x2="145.422" y2="266.543" stroke="#737373" stroke-opacity="0.14" strokeWidth="1.26871"/>
<line x1="103.679" y1="87.2323" x2="151.303" y2="264.967" stroke="#737373" stroke-opacity="0.14" strokeWidth="1.26871"/>
<line x1="109.564" y1="85.6552" x2="157.188" y2="263.39" stroke="#737373" stroke-opacity="0.14" strokeWidth="1.26871"/>
<line x1="115.447" y1="84.08" x2="163.071" y2="261.815" stroke="#737373" stroke-opacity="0.14" strokeWidth="1.26871"/>
<line x1="121.33" y1="82.5028" x2="168.953" y2="260.238" stroke="#737373" stroke-opacity="0.14" strokeWidth="1.26871"/>
<line x1="127.21" y1="80.9266" x2="174.834" y2="258.662" stroke="#737373" stroke-opacity="0.14" strokeWidth="1.26871"/>
<line x1="133.095" y1="79.3514" x2="180.719" y2="257.086" stroke="#737373" stroke-opacity="0.14" strokeWidth="1.26871"/>
<line x1="138.978" y1="77.7743" x2="186.602" y2="255.509" stroke="#737373" stroke-opacity="0.14" strokeWidth="1.26871"/>
<line x1="144.861" y1="76.1981" x2="192.485" y2="253.933" stroke="#737373" stroke-opacity="0.14" strokeWidth="1.26871"/>
<line x1="150.74" y1="74.6219" x2="198.364" y2="252.357" stroke="#737373" stroke-opacity="0.14" strokeWidth="1.26871"/>
<line x1="156.628" y1="73.0458" x2="204.252" y2="250.781" stroke="#737373" stroke-opacity="0.14" strokeWidth="1.26871"/>
<line x1="162.509" y1="71.4686" x2="210.133" y2="249.204" stroke="#737373" stroke-opacity="0.14" strokeWidth="1.26871"/>
<line x1="168.392" y1="69.8925" x2="216.016" y2="247.627" stroke="#737373" stroke-opacity="0.14" strokeWidth="1.26871"/>
<line x1="174.271" y1="68.3173" x2="221.895" y2="246.052" stroke="#737373" stroke-opacity="0.14" strokeWidth="1.26871"/>
<line x1="180.158" y1="66.7411" x2="227.782" y2="244.476" stroke="#737373" stroke-opacity="0.14" strokeWidth="1.26871"/>
<line x1="49.7303" y1="290.854" x2="227.465" y2="243.23" stroke="#737373" stroke-opacity="0.14" strokeWidth="1.26871"/>
<line x1="48.1542" y1="284.971" x2="225.889" y2="237.347" stroke="#737373" stroke-opacity="0.14" strokeWidth="1.26871"/>
<line x1="46.578" y1="279.089" x2="224.313" y2="231.465" stroke="#737373" stroke-opacity="0.14" strokeWidth="1.26871"/>
<line x1="44.9999" y1="273.207" x2="222.735" y2="225.583" stroke="#737373" stroke-opacity="0.14" strokeWidth="1.26871"/>
<line x1="43.4257" y1="267.323" x2="221.161" y2="219.699" stroke="#737373" stroke-opacity="0.14" strokeWidth="1.26871"/>
<line x1="41.8495" y1="261.44" x2="219.584" y2="213.816" stroke="#737373" stroke-opacity="0.14" strokeWidth="1.26871"/>
<line x1="40.2733" y1="255.559" x2="218.008" y2="207.935" stroke="#737373" stroke-opacity="0.14" strokeWidth="1.26871"/>
<line x1="38.6952" y1="249.676" x2="216.43" y2="202.052" stroke="#737373" stroke-opacity="0.14" strokeWidth="1.26871"/>
<line x1="37.119" y1="243.793" x2="214.854" y2="196.169" stroke="#737373" stroke-opacity="0.14" strokeWidth="1.26871"/>
<line x1="35.5448" y1="237.91" x2="213.28" y2="190.286" stroke="#737373" stroke-opacity="0.14" strokeWidth="1.26871"/>
<line x1="33.9686" y1="232.029" x2="211.704" y2="184.405" stroke="#737373" stroke-opacity="0.14" strokeWidth="1.26871"/>
<line x1="32.3886" y1="226.146" x2="210.123" y2="178.522" stroke="#737373" stroke-opacity="0.14" strokeWidth="1.26871"/>
<line x1="30.8143" y1="220.261" x2="208.549" y2="172.637" stroke="#737373" stroke-opacity="0.14" strokeWidth="1.26871"/>
<line x1="29.2382" y1="214.378" x2="206.973" y2="166.755" stroke="#737373" stroke-opacity="0.14" strokeWidth="1.26871"/>
<line x1="27.6639" y1="208.499" x2="205.399" y2="160.875" stroke="#737373" stroke-opacity="0.14" strokeWidth="1.26871"/>
<line x1="26.0858" y1="202.615" x2="203.821" y2="154.991" stroke="#737373" stroke-opacity="0.14" strokeWidth="1.26871"/>
<line x1="24.5096" y1="196.731" x2="202.245" y2="149.107" stroke="#737373" stroke-opacity="0.14" strokeWidth="1.26871"/>
<line x1="22.9335" y1="190.851" x2="200.668" y2="143.227" stroke="#737373" stroke-opacity="0.14" strokeWidth="1.26871"/>
<line x1="21.3534" y1="184.967" x2="199.088" y2="137.343" stroke="#737373" stroke-opacity="0.14" strokeWidth="1.26871"/>
<line x1="19.7772" y1="179.085" x2="197.512" y2="131.461" stroke="#737373" stroke-opacity="0.14" strokeWidth="1.26871"/>
<line x1="18.203" y1="173.202" x2="195.938" y2="125.578" stroke="#737373" stroke-opacity="0.14" strokeWidth="1.26871"/>
<line x1="16.6268" y1="167.321" x2="194.362" y2="119.697" stroke="#737373" stroke-opacity="0.14" strokeWidth="1.26871"/>
<line x1="15.0507" y1="161.437" x2="192.786" y2="113.813" stroke="#737373" stroke-opacity="0.14" strokeWidth="1.26871"/>
<line x1="13.4745" y1="155.554" x2="191.209" y2="107.93" stroke="#737373" stroke-opacity="0.14" strokeWidth="1.26871"/>
<line x1="11.8983" y1="149.671" x2="189.633" y2="102.048" stroke="#737373" stroke-opacity="0.14" strokeWidth="1.26871"/>
<line x1="10.3241" y1="143.791" x2="188.059" y2="96.1666" stroke="#737373" stroke-opacity="0.14" strokeWidth="1.26871"/>
<line x1="8.74597" y1="137.907" x2="186.481" y2="90.2829" stroke="#737373" stroke-opacity="0.14" strokeWidth="1.26871"/>
<line x1="7.16785" y1="132.024" x2="184.903" y2="84.4" stroke="#737373" stroke-opacity="0.14" strokeWidth="1.26871"/>
<line x1="5.59168" y1="126.14" x2="183.327" y2="78.5163" stroke="#737373" stroke-opacity="0.14" strokeWidth="1.26871"/>
<line x1="4.0155" y1="120.259" x2="181.75" y2="72.6354" stroke="#737373" stroke-opacity="0.14" strokeWidth="1.26871"/>
<line x1="2.43933" y1="114.377" x2="180.174" y2="66.7526" stroke="#737373" stroke-opacity="0.14" strokeWidth="1.26871"/>
</g>
<g filter="url(#filter4_di_1202_11568)">
<path d="M116.98 70.3416L131.116 27.7394L131.65 26.1299L138.254 39.2928C139.352 41.4797 139.535 44.0128 138.765 46.3349L134.762 58.3974C133.992 60.7195 132.33 62.6404 130.143 63.7376L116.98 70.3416Z" fill="#02B360"/>
<path d="M131.65 26.1311L117.515 68.7332L116.98 70.3428L110.376 57.1798C109.279 54.993 109.096 52.4599 109.866 50.1378L113.869 38.0753C114.639 35.7532 116.301 33.8322 118.487 32.7351L131.65 26.1311Z" fill="#64DB65"/>
</g>
<defs>
<filter id="filter0_d_1202_11568" x="5.95215" y="65.2579" width="220.884" height="238.228" filterUnits="userSpaceOnUse" color-interpolation-filters="sRGB">
<feFlood flood-opacity="0" result="BackgroundImageFix"/>
<feColorMatrix in="SourceAlpha" type="matrix" values="0 0 0 0 0 0 0 0 0 0 0 0 0 0 0 0 0 0 127 0" result="hardAlpha"/>
<feOffset dx="0.866034" dy="5.1962"/>
<feGaussianBlur stdDeviation="5.1962"/>
<feComposite in2="hardAlpha" operator="out"/>
<feColorMatrix type="matrix" values="0 0 0 0 0.996078 0 0 0 0 0.831373 0 0 0 0 0.364706 0 0 0 0.42 0"/>
<feBlend mode="normal" in2="BackgroundImageFix" result="effect1_dropShadow_1202_11568"/>
<feBlend mode="normal" in="SourceGraphic" in2="effect1_dropShadow_1202_11568" result="shape"/>
</filter>
<filter id="filter1_i_1202_11568" x="27.2949" y="84.0986" width="176.469" height="190.155" filterUnits="userSpaceOnUse" color-interpolation-filters="sRGB">
<feFlood flood-opacity="0" result="BackgroundImageFix"/>
<feBlend mode="normal" in="SourceGraphic" in2="BackgroundImageFix" result="shape"/>
<feColorMatrix in="SourceAlpha" type="matrix" values="0 0 0 0 0 0 0 0 0 0 0 0 0 0 0 0 0 0 127 0" result="hardAlpha"/>
<feOffset/>
<feGaussianBlur stdDeviation="4.33017"/>
<feComposite in2="hardAlpha" operator="arithmetic" k2="-1" k3="1"/>
<feColorMatrix type="matrix" values="0 0 0 0 0 0 0 0 0 0 0 0 0 0 0 0 0 0 0.25 0"/>
<feBlend mode="normal" in2="shape" result="effect1_innerShadow_1202_11568"/>
</filter>
<filter id="filter2_i_1202_11568" x="30.8848" y="89.8633" width="169.287" height="181.861" filterUnits="userSpaceOnUse" color-interpolation-filters="sRGB">
<feFlood flood-opacity="0" result="BackgroundImageFix"/>
<feBlend mode="normal" in="SourceGraphic" in2="BackgroundImageFix" result="shape"/>
<feColorMatrix in="SourceAlpha" type="matrix" values="0 0 0 0 0 0 0 0 0 0 0 0 0 0 0 0 0 0 127 0" result="hardAlpha"/>
<feOffset/>
<feGaussianBlur stdDeviation="4.33017"/>
<feComposite in2="hardAlpha" operator="arithmetic" k2="-1" k3="1"/>
<feColorMatrix type="matrix" values="0 0 0 0 0 0 0 0 0 0 0 0 0 0 0 0 0 0 0.25 0"/>
<feBlend mode="normal" in2="shape" result="effect1_innerShadow_1202_11568"/>
</filter>
<filter id="filter3_i_1202_11568" x="36.8887" y="94.3096" width="156.459" height="173.676" filterUnits="userSpaceOnUse" color-interpolation-filters="sRGB">
<feFlood flood-opacity="0" result="BackgroundImageFix"/>
<feBlend mode="normal" in="SourceGraphic" in2="BackgroundImageFix" result="shape"/>
<feColorMatrix in="SourceAlpha" type="matrix" values="0 0 0 0 0 0 0 0 0 0 0 0 0 0 0 0 0 0 127 0" result="hardAlpha"/>
<feOffset dy="3.46413"/>
<feGaussianBlur stdDeviation="12.9905"/>
<feComposite in2="hardAlpha" operator="arithmetic" k2="-1" k3="1"/>
<feColorMatrix type="matrix" values="0 0 0 0 0 0 0 0 0 0 0 0 0 0 0 0 0 0 0.25 0"/>
<feBlend mode="normal" in2="shape" result="effect1_innerShadow_1202_11568"/>
</filter>
<filter id="filter4_di_1202_11568" x="79.3965" y="0.129883" width="89.8379" height="104.213" filterUnits="userSpaceOnUse" color-interpolation-filters="sRGB">
<feFlood flood-opacity="0" result="BackgroundImageFix"/>
<feColorMatrix in="SourceAlpha" type="matrix" values="0 0 0 0 0 0 0 0 0 0 0 0 0 0 0 0 0 0 127 0" result="hardAlpha"/>
<feOffset dy="4"/>
<feGaussianBlur stdDeviation="15"/>
<feComposite in2="hardAlpha" operator="out"/>
<feColorMatrix type="matrix" values="0 0 0 0 0 0 0 0 0 0 0 0 0 0 0 0 0 0 0.25 0"/>
<feBlend mode="normal" in2="BackgroundImageFix" result="effect1_dropShadow_1202_11568"/>
<feBlend mode="normal" in="SourceGraphic" in2="effect1_dropShadow_1202_11568" result="shape"/>
<feColorMatrix in="SourceAlpha" type="matrix" values="0 0 0 0 0 0 0 0 0 0 0 0 0 0 0 0 0 0 127 0" result="hardAlpha"/>
<feOffset dy="4"/>
<feGaussianBlur stdDeviation="6.5"/>
<feComposite in2="hardAlpha" operator="arithmetic" k2="-1" k3="1"/>
<feColorMatrix type="matrix" values="0 0 0 0 0 0 0 0 0 0 0 0 0 0 0 0 0 0 0.25 0"/>
<feBlend mode="normal" in2="shape" result="effect2_innerShadow_1202_11568"/>
</filter>
<linearGradient id="paint0_linear_1202_11568" x1="115.526" y1="70.7314" x2="115.526" y2="287.619" gradientUnits="userSpaceOnUse">
<stop stop-color="#FAD247"/>
<stop offset="1" stop-color="#FA4747" stop-opacity="0.69"/>
</linearGradient>
<linearGradient id="paint1_linear_1202_11568" x1="115.529" y1="77.292" x2="115.529" y2="281.061" gradientUnits="userSpaceOnUse">
<stop stop-color="#FCD400"/>
<stop offset="1" stop-color="#FCDF01"/>
</linearGradient>
<linearGradient id="paint2_linear_1202_11568" x1="115.529" y1="83.0566" x2="115.529" y2="278.532" gradientUnits="userSpaceOnUse">
<stop stop-color="#DD9200"/>
<stop offset="1" stop-color="#FCDF01"/>
</linearGradient>
</defs>
</svg>
