<svg width="800" height="250" viewBox="0 0 800 250" fill="none" xmlns="http://www.w3.org/2000/svg">
<g clip-path="url(#clip0_815_2785)">
<path d="M581.779 80.4553V42.7554H544.079V80.4553H581.779Z" fill="#E75553"/>
<path d="M544.07 42.7454V5.04541L506.37 5.04541V42.7454H544.07Z" fill="#E75553"/>
<path d="M506.37 80.4554V42.7554H468.67V80.4554H506.37Z" fill="#E75553"/>
<path d="M468.67 5.05518H430.96V42.7552H468.67V5.05518ZM438.07 23.9052C438.07 21.5808 438.759 19.3087 440.051 17.3762C441.342 15.4437 443.178 13.9377 445.326 13.0486C447.473 12.1596 449.836 11.9275 452.116 12.3817C454.395 12.8359 456.489 13.9559 458.132 15.6002C459.775 17.2445 460.893 19.3391 461.345 21.619C461.798 23.8989 461.564 26.2618 460.673 28.4086C459.782 30.5555 458.274 32.3899 456.341 33.6798C454.407 34.9697 452.134 35.6572 449.81 35.6552C446.695 35.6525 443.709 34.4134 441.508 32.2101C439.307 30.0069 438.07 27.0197 438.07 23.9052Z" fill="#E75553"/>
<path d="M187.64 71.8853L179.51 85.9553H195.71L187.64 71.8853Z" fill="#1C96A0"/>
<path d="M149.999 46.2251L119.109 54.5051L141.659 77.0551L149.999 46.2251Z" stroke="#1C96A0" stroke-width="1.12" stroke-miterlimit="10"/>
<path d="M372.02 1.3252L380.3 32.2152L402.86 9.6652L372.02 1.3252Z" stroke="#1C96A0" stroke-width="1.12" stroke-miterlimit="10"/>
<path d="M369.37 248.585C369.37 211.147 384.242 175.243 410.715 148.77C437.188 122.297 473.092 107.425 510.53 107.425C547.968 107.425 583.873 122.297 610.345 148.77C636.818 175.243 651.69 211.147 651.69 248.585" fill="#1C96A0"/>
<path d="M125 248.585C125.313 211.352 140.324 175.75 166.764 149.532C193.203 123.314 228.93 108.604 266.165 108.604C303.4 108.604 339.127 123.314 365.566 149.532C392.006 175.75 407.017 211.352 407.33 248.585" fill="#1C96A0"/>
<path d="M587.87 248.585C587.87 226.198 596.763 204.728 612.593 188.898C628.423 173.068 649.893 164.175 672.28 164.175C694.667 164.175 716.137 173.068 731.967 188.898C747.797 204.728 756.69 226.198 756.69 248.585" fill="#7CC8C2"/>
<path d="M26.0596 248.585C26.0596 226.198 34.9527 204.728 50.7827 188.898C66.6126 173.068 88.0826 164.175 110.47 164.175C132.856 164.175 154.327 173.068 170.156 188.898C185.986 204.728 194.88 226.198 194.88 248.585" fill="#7CC8C2"/>
<path d="M782.65 248.595C791.962 248.595 799.51 241.047 799.51 231.735C799.51 222.423 791.962 214.875 782.65 214.875C773.339 214.875 765.79 222.423 765.79 231.735C765.79 241.047 773.339 248.595 782.65 248.595Z" fill="#7CC8C2"/>
<path d="M8.5198 249.195C12.9215 249.195 16.4898 245.627 16.4898 241.225C16.4898 236.824 12.9215 233.255 8.5198 233.255C4.11809 233.255 0.549805 236.824 0.549805 241.225C0.549805 245.627 4.11809 249.195 8.5198 249.195Z" fill="#7CC8C2"/>
<path d="M124.96 172.005V237.055" stroke="black" stroke-width="0.79" stroke-miterlimit="10"/>
<path d="M128.83 248.095C128.83 248.095 129.62 210.395 92.83 209.295C92.85 209.295 88.77 250.455 128.83 248.095Z" fill="#1C96A0"/>
<path d="M125.55 248.586C115.39 248.586 107.37 245.586 101.7 239.706C96.0301 233.826 93.7001 225.706 92.8801 220.116C92.3314 216.523 92.1772 212.881 92.4201 209.256V208.896H92.7901C101.25 209.146 108.43 211.366 114.13 215.496C118.829 218.964 122.544 223.596 124.91 228.936C127.597 234.972 129.036 241.489 129.14 248.096V248.465H128.77C127.74 248.535 126.66 248.586 125.55 248.586ZM93.2201 209.696C93.0153 213.146 93.1762 216.609 93.7001 220.026C94.5201 225.526 96.7001 233.316 102.31 239.166C108.31 245.436 117.13 248.326 128.44 247.726C128.274 241.351 126.853 235.071 124.26 229.246C118.55 216.826 108.09 210.246 93.2201 209.696Z" fill="#1C96A0"/>
<path d="M124.94 202.855C124.94 202.855 126.36 188.395 102.79 191.065C102.79 191.065 108.79 196.725 112.61 200.185C114.27 201.64 116.272 202.649 118.429 203.116C120.587 203.583 122.827 203.494 124.94 202.855Z" fill="#1C96A0"/>
<path d="M121.11 203.785C117.875 203.822 114.744 202.64 112.34 200.475C108.54 197.055 102.58 191.415 102.52 191.355L101.91 190.775L102.75 190.675C111.84 189.675 118.35 191.005 122.1 194.675C123.185 195.737 124.034 197.014 124.592 198.425C125.15 199.836 125.405 201.349 125.34 202.865V203.115L125.1 203.195C123.808 203.592 122.462 203.791 121.11 203.785ZM103.68 191.375C105.31 192.905 109.8 197.125 112.87 199.895C114.447 201.267 116.339 202.225 118.378 202.686C120.416 203.147 122.537 203.095 124.55 202.535C124.559 201.179 124.299 199.834 123.784 198.579C123.269 197.324 122.509 196.184 121.55 195.225C118.08 191.845 112.07 190.535 103.68 191.375Z" fill="#1C96A0"/>
<path d="M125.49 187.375C125.49 187.375 126.75 174.185 143.88 176.065C143.88 176.065 141.99 190.835 125.49 187.375Z" fill="#1C96A0"/>
<path d="M130.22 188.295C128.603 188.282 126.992 188.104 125.41 187.765L125.07 187.695V187.345C125.548 184.007 127.256 180.968 129.86 178.825C133.23 176.085 137.95 175.025 143.86 175.675H144.26L144.21 176.075C144.21 176.325 143.36 182.305 138.42 185.825C136.016 187.492 133.146 188.357 130.22 188.295ZM125.94 187.065C130.88 188.065 134.94 187.415 138.03 185.225C140.838 183.042 142.754 179.91 143.42 176.415C137.89 175.875 133.51 176.895 130.42 179.415C128.069 181.355 126.482 184.066 125.94 187.065Z" fill="#1C96A0"/>
<path d="M125.75 172.005C140.369 172.005 152.22 160.154 152.22 145.535C152.22 130.916 140.369 119.065 125.75 119.065C111.131 119.065 99.2803 130.916 99.2803 145.535C99.2803 160.154 111.131 172.005 125.75 172.005Z" fill="#FFD423" stroke="#070707" stroke-width="1.05" stroke-miterlimit="10"/>
<path d="M125.75 165.096C136.553 165.096 145.31 156.338 145.31 145.536C145.31 134.733 136.553 125.976 125.75 125.976C114.948 125.976 106.19 134.733 106.19 145.536C106.19 156.338 114.948 165.096 125.75 165.096Z" fill="white" stroke="#070707" stroke-width="1.05" stroke-miterlimit="10"/>
<path d="M131.41 152.986C130.166 154.049 128.605 154.671 126.97 154.756V157.636H124.86V154.776C123.635 154.699 122.426 154.467 121.26 154.086C120.269 153.787 119.348 153.295 118.55 152.636L119.71 150.036C120.41 150.589 121.193 151.027 122.03 151.336C122.937 151.69 123.89 151.912 124.86 151.996V146.846C123.833 146.597 122.83 146.263 121.86 145.846C121.06 145.503 120.357 144.971 119.81 144.296C119.23 143.522 118.94 142.571 118.99 141.606C118.978 140.94 119.107 140.28 119.369 139.668C119.631 139.056 120.02 138.506 120.51 138.056C121.732 136.985 123.286 136.367 124.91 136.306V133.436H127.02V136.286C127.975 136.343 128.921 136.507 129.84 136.776C130.689 137.024 131.499 137.387 132.25 137.856L131.19 140.466C129.911 139.716 128.492 139.24 127.02 139.066V144.276C128.07 144.509 129.1 144.827 130.1 145.226C130.902 145.558 131.609 146.084 132.16 146.756C132.749 147.525 133.046 148.478 133 149.446C133.001 150.115 132.86 150.777 132.586 151.387C132.312 151.997 131.911 152.542 131.41 152.986ZM122.93 142.856C123.517 143.259 124.17 143.557 124.86 143.736V139.146C124.123 139.206 123.423 139.496 122.86 139.976C122.652 140.168 122.488 140.402 122.378 140.662C122.268 140.922 122.214 141.203 122.22 141.486C122.216 141.755 122.279 142.021 122.402 142.26C122.526 142.499 122.708 142.704 122.93 142.856ZM128.99 151.146C129.202 150.965 129.371 150.739 129.485 150.485C129.599 150.231 129.656 149.954 129.65 149.676C129.657 149.403 129.597 149.132 129.475 148.888C129.353 148.644 129.173 148.433 128.95 148.276C128.344 147.857 127.666 147.555 126.95 147.386V151.946C127.694 151.886 128.403 151.607 128.99 151.146Z" fill="#1C96A0"/>
<path d="M127.55 158.156H124.39V155.256C123.284 155.152 122.194 154.924 121.14 154.576C120.087 154.259 119.108 153.736 118.26 153.036L117.97 152.776L119.56 149.206L120.09 149.636C120.748 150.154 121.484 150.566 122.27 150.856C122.953 151.119 123.664 151.304 124.39 151.406V147.256C123.455 147.029 122.539 146.732 121.65 146.366C120.777 145.988 120.008 145.405 119.41 144.666C118.757 143.805 118.424 142.744 118.47 141.666C118.46 140.93 118.604 140.201 118.891 139.525C119.179 138.848 119.604 138.239 120.14 137.736C121.325 136.686 122.814 136.042 124.39 135.896V132.896H127.55V135.796C128.376 135.873 129.194 136.03 129.99 136.266C130.888 136.523 131.744 136.91 132.53 137.416L132.9 137.646L131.45 141.206L130.93 140.906C129.885 140.295 128.741 139.876 127.55 139.666V143.846C128.487 144.075 129.406 144.372 130.3 144.736C131.18 145.101 131.956 145.678 132.56 146.416C133.238 147.265 133.592 148.329 133.56 149.416C133.569 150.152 133.422 150.882 133.129 151.557C132.836 152.233 132.404 152.839 131.86 153.336C130.666 154.386 129.172 155.033 127.59 155.186L127.55 158.156ZM125.43 157.156H126.5V154.326L126.97 154.276C128.488 154.2 129.939 153.627 131.1 152.646C131.54 152.247 131.891 151.759 132.127 151.214C132.363 150.669 132.48 150.08 132.47 149.486C132.514 148.639 132.259 147.803 131.75 147.126C131.255 146.521 130.62 146.047 129.9 145.746C128.925 145.359 127.922 145.048 126.9 144.816L126.5 144.726V138.536L127.08 138.606C128.424 138.758 129.728 139.154 130.93 139.776L131.6 138.126C130.994 137.79 130.354 137.522 129.69 137.326C128.811 137.067 127.905 136.912 126.99 136.866H126.5V134.036H125.43V136.896L124.96 136.946C123.454 136.999 122.012 137.564 120.87 138.546C120.433 138.951 120.087 139.444 119.852 139.991C119.618 140.539 119.501 141.13 119.51 141.726C119.466 142.571 119.717 143.405 120.22 144.086C120.709 144.697 121.346 145.175 122.07 145.476C123.04 145.876 124.044 146.191 125.07 146.416L125.47 146.516V152.536L124.9 152.486C123.872 152.4 122.862 152.168 121.9 151.796C121.223 151.538 120.579 151.202 119.98 150.796L119.25 152.436C119.931 152.916 120.684 153.287 121.48 153.536C122.607 153.905 123.776 154.13 124.96 154.206H125.44L125.43 157.156ZM126.45 152.536V146.676L127.11 146.866C127.885 147.063 128.617 147.402 129.27 147.866C129.554 148.075 129.785 148.349 129.941 148.666C130.098 148.983 130.176 149.332 130.17 149.686C130.175 150.037 130.103 150.386 129.96 150.707C129.817 151.028 129.605 151.314 129.34 151.546C128.683 152.071 127.887 152.395 127.05 152.476L126.45 152.536ZM127.45 148.086V151.286C127.869 151.197 128.26 151.009 128.59 150.736C128.748 150.604 128.874 150.439 128.959 150.252C129.044 150.065 129.085 149.861 129.08 149.656C129.089 149.461 129.05 149.267 128.964 149.092C128.878 148.917 128.749 148.767 128.59 148.656C128.27 148.426 127.92 148.241 127.55 148.106L127.45 148.086ZM125.33 144.406L124.67 144.215C123.909 144.021 123.192 143.681 122.56 143.215C122.284 143.009 122.061 142.74 121.91 142.431C121.758 142.121 121.683 141.78 121.69 141.436C121.684 141.082 121.753 140.732 121.89 140.406C122.028 140.081 122.232 139.788 122.49 139.546C123.113 138.986 123.897 138.636 124.73 138.546L125.33 138.446V144.406ZM124.33 139.776C123.932 139.865 123.564 140.054 123.26 140.326C123.101 140.47 122.976 140.646 122.891 140.842C122.807 141.039 122.765 141.252 122.77 141.465C122.753 141.659 122.788 141.853 122.87 142.029C122.953 142.204 123.08 142.355 123.24 142.465C123.575 142.702 123.942 142.891 124.33 143.026V139.776Z" fill="#070707"/>
<path d="M128.62 248.425C119.14 242.315 109.8 232.055 103.62 224.525C96.9504 216.375 92.4404 209.525 92.4004 209.525L93.0604 209.085C93.2304 209.355 111.06 236.175 129.06 247.775L128.62 248.425Z" fill="#1C96A0"/>
<path d="M125.67 187.605L125.16 186.995C130.735 182.28 136.963 178.396 143.65 175.465L143.94 176.195C137.333 179.1 131.179 182.943 125.67 187.605Z" fill="#1C96A0"/>
<path d="M124.6 203.056C123.353 201.202 121.777 199.592 119.95 198.306C116.87 195.976 111.39 192.906 102.73 191.456L102.86 190.686C111.7 192.156 117.32 195.316 120.47 197.686C122.369 199.041 124 200.736 125.28 202.686L124.6 203.056Z" fill="#1C96A0"/>
<path d="M121.17 248.095C121.17 248.095 120.39 210.395 157.17 209.295C157.15 209.295 161.24 250.455 121.17 248.095Z" fill="#1C96A0"/>
<path d="M124.41 248.586C123.35 248.586 122.26 248.586 121.15 248.496H120.79V248.126C120.9 241.519 122.342 235.002 125.03 228.966C127.39 223.631 131.099 219.003 135.79 215.536C141.49 211.406 148.67 209.186 157.14 208.936H157.55V209.296C157.806 212.921 157.655 216.564 157.1 220.156C156.26 225.776 154.04 233.746 148.28 239.746C142.52 245.746 134.55 248.586 124.41 248.586ZM121.57 247.726C132.87 248.326 141.66 245.436 147.7 239.166C153.31 233.316 155.48 225.526 156.31 220.026C156.823 216.608 156.984 213.146 156.79 209.696C141.9 210.246 131.46 216.836 125.73 229.276C123.139 235.091 121.718 241.361 121.55 247.726H121.57Z" fill="#1C96A0"/>
<path d="M121.31 248.535L120.88 247.875C131.436 241.041 140.738 232.442 148.38 222.455C151.616 218.321 154.462 213.896 156.88 209.235L157.58 209.575C155.152 214.281 152.286 218.747 149.02 222.915C141.318 232.979 131.945 241.645 121.31 248.535Z" fill="#1C96A0"/>
<path d="M236.56 183.885V238.835" stroke="black" stroke-width="0.66" stroke-miterlimit="10"/>
<path d="M239.83 248.175C239.83 248.175 240.49 216.315 209.43 215.385C209.43 215.385 205.98 250.165 239.83 248.175Z" fill="#7CC8C2"/>
<path d="M237.09 248.585C228.5 248.585 221.73 246.065 216.94 241.085C212.15 236.105 210.2 229.285 209.49 224.535C209.026 221.498 208.895 218.42 209.1 215.355V215.045H209.41C216.56 215.265 222.63 217.135 227.41 220.625C231.382 223.553 234.519 227.47 236.51 231.985C238.782 237.085 240 242.592 240.09 248.175V248.475H239.78C238.91 248.535 237.99 248.585 237.09 248.585ZM209.74 215.735C209.574 218.648 209.708 221.57 210.14 224.455C210.84 229.105 212.67 235.685 217.42 240.625C222.52 245.925 229.94 248.365 239.5 247.865C239.357 242.477 238.158 237.17 235.97 232.245C231.13 221.745 222.31 216.195 209.74 215.735Z" fill="#7CC8C2"/>
<path d="M236.55 209.945C236.55 209.945 237.74 197.735 217.83 199.945C217.83 199.945 222.88 204.725 226.12 207.645C227.52 208.883 229.212 209.744 231.037 210.146C232.862 210.548 234.759 210.479 236.55 209.945Z" fill="#7CC8C2"/>
<path d="M233.31 210.735C230.576 210.767 227.93 209.767 225.9 207.935C222.69 205.045 217.65 200.275 217.6 200.235L217.08 199.745L217.79 199.665C225.47 198.785 230.97 199.935 234.14 203.055C235.057 203.951 235.775 205.031 236.247 206.223C236.719 207.416 236.935 208.694 236.88 209.975V210.185L236.68 210.255C235.588 210.586 234.451 210.748 233.31 210.735ZM218.55 200.245C219.93 201.545 223.72 205.105 226.31 207.445C227.644 208.608 229.246 209.422 230.972 209.815C232.698 210.208 234.494 210.167 236.2 209.695C236.202 208.549 235.977 207.413 235.537 206.354C235.098 205.295 234.453 204.334 233.64 203.525C230.74 200.645 225.67 199.535 218.55 200.245Z" fill="#7CC8C2"/>
<path d="M237.01 196.875C237.01 196.875 238.07 185.715 252.54 187.315C252.55 187.315 250.95 199.795 237.01 196.875Z" fill="#7CC8C2"/>
<path d="M240.999 197.645C239.634 197.634 238.274 197.483 236.939 197.195L236.649 197.135V196.835C237.049 194.026 238.474 191.465 240.649 189.645C243.499 187.325 247.489 186.435 252.509 186.985H252.839V187.325C252.327 190.592 250.58 193.538 247.959 195.555C245.917 196.967 243.482 197.698 240.999 197.645ZM237.379 196.645C241.559 197.465 244.999 196.945 247.599 195.085C249.977 193.247 251.597 190.599 252.149 187.645C247.479 187.195 243.779 188.055 241.149 190.195C239.187 191.829 237.854 194.095 237.379 196.605V196.645Z" fill="#7CC8C2"/>
<path d="M237.229 183.885C249.584 183.885 259.599 173.87 259.599 161.515C259.599 149.16 249.584 139.145 237.229 139.145C224.875 139.145 214.859 149.16 214.859 161.515C214.859 173.87 224.875 183.885 237.229 183.885Z" fill="#FFD423" stroke="#070707" stroke-width="0.88" stroke-miterlimit="10"/>
<path d="M237.23 178.045C246.359 178.045 253.76 170.644 253.76 161.515C253.76 152.386 246.359 144.985 237.23 144.985C228.101 144.985 220.7 152.386 220.7 161.515C220.7 170.644 228.101 178.045 237.23 178.045Z" fill="white" stroke="#070707" stroke-width="0.88" stroke-miterlimit="10"/>
<path d="M242.009 167.815C240.958 168.711 239.639 169.235 238.259 169.305V171.735H236.479V169.325C235.441 169.261 234.416 169.063 233.429 168.735C232.596 168.493 231.821 168.085 231.149 167.535L232.149 165.345C232.754 165.812 233.429 166.18 234.149 166.435C234.918 166.737 235.727 166.925 236.549 166.995V162.645C235.668 162.445 234.805 162.17 233.969 161.825C233.293 161.543 232.698 161.096 232.239 160.525C231.746 159.871 231.498 159.064 231.539 158.245C231.53 157.683 231.639 157.126 231.86 156.609C232.08 156.092 232.407 155.627 232.819 155.245C233.861 154.346 235.175 153.824 236.549 153.765V151.305H238.329V153.725C239.136 153.766 239.935 153.903 240.709 154.135C241.417 154.344 242.091 154.654 242.709 155.055L241.809 157.245C240.73 156.615 239.531 156.217 238.289 156.075V160.465C239.176 160.666 240.045 160.937 240.889 161.275C241.567 161.556 242.164 161.999 242.629 162.565C243.127 163.218 243.378 164.025 243.339 164.845C243.338 165.406 243.219 165.96 242.99 166.472C242.761 166.983 242.427 167.441 242.009 167.815ZM234.839 159.255C235.337 159.599 235.892 159.85 236.479 159.995V156.115C235.867 156.173 235.288 156.417 234.819 156.815C234.645 156.979 234.507 157.178 234.414 157.398C234.321 157.619 234.275 157.856 234.279 158.095C234.274 158.319 234.322 158.541 234.419 158.743C234.517 158.945 234.661 159.12 234.839 159.255ZM239.969 166.255C240.146 166.101 240.287 165.911 240.382 165.696C240.477 165.482 240.524 165.25 240.519 165.015C240.527 164.785 240.478 164.556 240.375 164.35C240.271 164.144 240.118 163.967 239.929 163.835C239.425 163.483 238.858 163.228 238.259 163.085V166.935C238.883 166.879 239.477 166.643 239.969 166.255Z" fill="#1C96A0"/>
<path d="M238.699 172.185H236.029V169.735C235.098 169.642 234.179 169.448 233.289 169.155C232.398 168.888 231.568 168.446 230.849 167.855L230.609 167.635L231.959 164.635L232.399 164.995C232.957 165.422 233.578 165.76 234.239 165.995C234.816 166.22 235.417 166.378 236.029 166.465V162.955C235.242 162.763 234.469 162.513 233.719 162.205C232.982 161.885 232.331 161.395 231.819 160.775C231.27 160.038 230.991 159.134 231.029 158.215C231.023 157.593 231.146 156.977 231.39 156.406C231.635 155.834 231.995 155.32 232.449 154.895C233.446 154.009 234.701 153.466 236.029 153.345V150.835H238.699V153.285C239.401 153.349 240.095 153.483 240.769 153.685C241.53 153.914 242.254 154.251 242.919 154.685L243.219 154.875L241.999 157.875L241.559 157.625C240.676 157.107 239.708 156.752 238.699 156.575V160.115C239.495 160.296 240.275 160.544 241.029 160.855C241.771 161.168 242.426 161.655 242.939 162.275C243.505 163.005 243.792 163.913 243.749 164.835C243.756 165.456 243.633 166.072 243.386 166.642C243.14 167.212 242.776 167.724 242.319 168.145C241.303 169.027 240.038 169.572 238.699 169.705V172.185ZM236.919 171.295H237.819V168.905H238.209C239.494 168.843 240.724 168.362 241.709 167.535C242.081 167.198 242.375 166.785 242.574 166.325C242.772 165.864 242.87 165.366 242.859 164.865C242.898 164.149 242.686 163.441 242.259 162.865C241.835 162.358 241.297 161.957 240.689 161.695C239.866 161.373 239.021 161.113 238.159 160.915L237.819 160.835V155.535L238.309 155.595C239.445 155.725 240.547 156.065 241.559 156.595L242.119 155.205C241.625 154.92 241.098 154.695 240.549 154.535C239.809 154.307 239.043 154.172 238.269 154.135H237.859V151.735H236.959V154.145H236.559C235.286 154.196 234.067 154.675 233.099 155.505C232.73 155.846 232.436 156.26 232.238 156.722C232.04 157.184 231.942 157.682 231.949 158.185C231.91 158.901 232.123 159.608 232.549 160.185C232.968 160.697 233.503 161.102 234.109 161.365C234.923 161.695 235.763 161.959 236.619 162.155L236.959 162.235V167.415H236.479C235.617 167.338 234.769 167.143 233.959 166.835C233.392 166.615 232.849 166.337 232.339 166.005L231.729 167.385C232.301 167.795 232.936 168.109 233.609 168.315C234.561 168.631 235.549 168.823 236.549 168.885H236.959L236.919 171.295ZM237.819 167.445V162.535L238.379 162.695C239.032 162.853 239.649 163.131 240.199 163.515C240.44 163.692 240.635 163.924 240.768 164.192C240.9 164.46 240.966 164.756 240.959 165.055C240.967 165.352 240.908 165.647 240.787 165.919C240.666 166.191 240.485 166.432 240.259 166.625C239.705 167.072 239.029 167.344 238.319 167.405L237.819 167.445ZM238.699 163.685V166.395C239.066 166.321 239.409 166.16 239.699 165.925C239.833 165.815 239.939 165.675 240.01 165.518C240.081 165.36 240.115 165.188 240.109 165.015C240.113 164.854 240.078 164.694 240.006 164.55C239.935 164.405 239.83 164.28 239.699 164.185C239.394 163.968 239.056 163.799 238.699 163.685ZM236.919 160.535L236.349 160.375C235.712 160.214 235.109 159.939 234.569 159.565C234.336 159.39 234.148 159.161 234.021 158.899C233.894 158.636 233.832 158.347 233.839 158.055C233.847 157.766 233.914 157.483 234.036 157.221C234.158 156.959 234.333 156.726 234.549 156.535C235.081 156.077 235.741 155.794 236.439 155.725L236.949 155.645L236.919 160.535ZM236.029 156.625C235.696 156.706 235.387 156.868 235.129 157.095C234.991 157.22 234.882 157.375 234.811 157.548C234.74 157.721 234.709 157.908 234.719 158.095C234.717 158.251 234.75 158.406 234.818 158.546C234.886 158.687 234.986 158.81 235.109 158.905C235.394 159.103 235.704 159.265 236.029 159.385V156.625Z" fill="#070707"/>
<path d="M239.65 248.455C231.65 243.285 223.75 234.625 218.54 228.255C212.9 221.375 209.09 215.625 209.06 215.575L209.61 215.205C209.76 215.435 224.81 238.095 240.01 247.895L239.65 248.455Z" fill="#7CC8C2"/>
<path d="M237.16 197.055L236.729 196.545C241.442 192.567 246.703 189.286 252.35 186.805L252.6 187.425C247.015 189.874 241.815 193.117 237.16 197.055Z" fill="#7CC8C2"/>
<path d="M236.26 210.115C235.199 208.557 233.868 207.202 232.33 206.115C229.73 204.115 225.09 201.545 217.77 200.325L217.88 199.675C225.36 200.915 230.1 203.585 232.76 205.605C234.361 206.737 235.741 208.154 236.83 209.785L236.26 210.115Z" fill="#7CC8C2"/>
<path d="M233.359 248.175C233.359 248.175 232.699 216.315 263.759 215.385C263.759 215.385 267.209 250.165 233.359 248.175Z" fill="#7CC8C2"/>
<path d="M236.1 248.585C235.2 248.585 234.28 248.585 233.34 248.505H233.03V248.205C233.12 242.622 234.338 237.115 236.61 232.015C238.601 227.5 241.738 223.584 245.71 220.655C250.53 217.165 256.6 215.295 263.71 215.075H264.02V215.385C264.231 218.45 264.101 221.529 263.63 224.565C262.92 229.315 261.05 236.035 256.18 241.115C251.31 246.195 244.69 248.585 236.1 248.585ZM233.69 247.865C243.25 248.365 250.69 245.925 255.77 240.625C260.52 235.685 262.35 229.105 263.05 224.455C263.482 221.57 263.616 218.648 263.45 215.735C250.88 216.195 242.05 221.735 237.21 232.265C235.03 237.185 233.834 242.485 233.69 247.865Z" fill="#7CC8C2"/>
<path d="M233.469 248.535L233.109 247.975C242.027 242.212 249.888 234.96 256.349 226.535C259.089 223.024 261.499 219.268 263.549 215.315L264.139 215.595C262.09 219.574 259.669 223.351 256.909 226.875C250.393 235.383 242.465 242.71 233.469 248.535Z" fill="#7CC8C2"/>
<path d="M447.25 178.485V213.905" stroke="black" stroke-width="0.43" stroke-miterlimit="10"/>
<path d="M449.35 219.915C449.35 219.915 449.78 199.385 429.76 198.795C429.76 198.795 427.55 221.205 449.35 219.915Z" fill="#FFD423"/>
<path d="M447.55 220.185C442.01 220.185 437.65 218.565 434.55 215.345C431.905 212.362 430.231 208.643 429.75 204.685C429.449 202.727 429.365 200.742 429.5 198.765V198.575H429.7C433.849 198.569 437.902 199.824 441.32 202.175C443.877 204.062 445.9 206.581 447.19 209.485C448.671 212.771 449.474 216.322 449.55 219.925V220.115H449.35C448.76 220.165 448.17 220.185 447.55 220.185ZM429.92 199.015C429.815 200.893 429.902 202.776 430.18 204.635C430.653 208.503 432.288 212.137 434.87 215.055C438.16 218.465 442.94 220.055 449.1 219.715C449.007 216.245 448.233 212.827 446.82 209.655C443.75 202.895 438.06 199.305 429.96 199.015H429.92Z" fill="#FFD423"/>
<path d="M447.241 195.285C447.241 195.285 448.011 187.415 435.181 188.865C435.181 188.865 438.431 191.945 440.521 193.865C441.429 194.651 442.522 195.193 443.698 195.441C444.873 195.69 446.092 195.636 447.241 195.285Z" fill="#FFD423"/>
<path d="M445.15 195.795C443.389 195.813 441.686 195.167 440.38 193.985C438.31 192.125 435.06 189.055 435.03 188.985L434.69 188.665H435.15C440.1 188.105 443.64 188.845 445.69 190.855C446.281 191.433 446.743 192.129 447.047 192.897C447.35 193.666 447.487 194.49 447.45 195.315V195.455H447.32C446.619 195.68 445.887 195.794 445.15 195.795ZM435.66 189.035C436.55 189.865 438.99 192.165 440.66 193.675C441.52 194.424 442.551 194.949 443.663 195.202C444.775 195.455 445.932 195.428 447.03 195.125C447.037 194.382 446.895 193.645 446.611 192.958C446.328 192.271 445.909 191.647 445.38 191.125C443.55 189.295 440.23 188.585 435.66 189.035Z" fill="#FFD423"/>
<path d="M447.55 186.855C447.55 186.855 448.24 179.675 457.55 180.705C457.55 180.705 456.55 188.745 447.55 186.855Z" fill="#FFD423"/>
<path d="M450.11 187.355C449.229 187.352 448.35 187.254 447.49 187.065H447.3V186.875C447.562 185.06 448.493 183.409 449.91 182.245C451.74 180.745 454.31 180.175 457.55 180.525H457.76V180.735C457.434 182.843 456.31 184.744 454.62 186.045C453.293 186.948 451.714 187.406 450.11 187.355ZM447.78 186.685C448.886 186.983 450.042 187.048 451.175 186.876C452.308 186.704 453.392 186.298 454.36 185.685C455.892 184.499 456.935 182.79 457.29 180.885C454.29 180.595 451.9 181.155 450.2 182.535C448.929 183.59 448.072 185.06 447.78 186.685Z" fill="#FFD423"/>
<path d="M447.67 178.485C455.628 178.485 462.08 172.033 462.08 164.075C462.08 156.117 455.628 149.665 447.67 149.665C439.711 149.665 433.26 156.117 433.26 164.075C433.26 172.033 439.711 178.485 447.67 178.485Z" fill="#FFE4B6"/>
<path d="M447.671 174.725C453.552 174.725 458.32 169.957 458.32 164.075C458.32 158.193 453.552 153.425 447.671 153.425C441.789 153.425 437.021 158.193 437.021 164.075C437.021 169.957 441.789 174.725 447.671 174.725Z" fill="white" stroke="#070707" stroke-width="0.57" stroke-miterlimit="10"/>
<path d="M449.241 220.095C444.081 216.765 438.99 211.185 435.63 207.095C432 202.655 429.551 198.955 429.521 198.915L429.88 198.685C429.98 198.825 439.681 213.435 449.471 219.745L449.241 220.095Z" fill="#FFD423"/>
<path d="M447.631 186.985L447.351 186.655C450.386 184.086 453.778 181.971 457.421 180.375L457.581 180.775C453.982 182.354 450.63 184.446 447.631 186.985Z" fill="#FFD423"/>
<path d="M447.051 195.395C446.37 194.387 445.513 193.509 444.521 192.805C441.739 190.828 438.521 189.552 435.141 189.085L435.211 188.655C438.67 189.139 441.96 190.453 444.801 192.485C445.83 193.216 446.717 194.127 447.421 195.175L447.051 195.395Z" fill="#FFD423"/>
<path d="M445.18 219.915C445.18 219.915 444.76 199.385 464.77 198.795C464.77 198.795 466.99 221.205 445.18 219.915Z" fill="#FFD423"/>
<path d="M446.951 220.185C446.371 220.185 445.771 220.185 445.171 220.135H444.971V219.945C445.036 216.355 445.821 212.815 447.281 209.535C448.567 206.631 450.586 204.112 453.141 202.225C456.559 199.874 460.612 198.619 464.761 198.625H464.961V198.815C465.103 200.791 465.022 202.777 464.721 204.735C464.236 208.694 462.558 212.412 459.911 215.395C456.841 218.535 452.481 220.185 446.951 220.185ZM445.401 219.715C451.551 220.035 456.341 218.465 459.621 215.055C462.203 212.136 463.838 208.503 464.311 204.635C464.594 202.776 464.681 200.892 464.571 199.015C456.471 199.315 450.781 202.895 447.671 209.665C446.26 212.833 445.488 216.248 445.401 219.715Z" fill="#FFD423"/>
<path d="M445.26 220.145L445.021 219.785C450.776 216.065 455.85 211.384 460.021 205.945C461.78 203.691 463.33 201.281 464.651 198.745L465.04 198.925C463.713 201.488 462.149 203.922 460.371 206.195C456.166 211.673 451.056 216.391 445.26 220.145Z" fill="#FFD423"/>
<path d="M634.36 169.435V192.275C632.591 192.275 630.894 192.978 629.643 194.229C628.392 195.48 627.69 197.176 627.69 198.945V202.095H612.03V242.145C612.028 243.021 612.2 243.889 612.535 244.699C612.869 245.509 613.361 246.245 613.98 246.864C614.6 247.484 615.336 247.975 616.146 248.31C616.955 248.645 617.823 248.816 618.7 248.815H565.11C564.233 248.816 563.365 248.645 562.554 248.31C561.744 247.976 561.007 247.485 560.387 246.865C559.766 246.246 559.274 245.51 558.938 244.7C558.603 243.89 558.43 243.022 558.43 242.145V169.435H634.36Z" fill="#FED45D"/>
<path d="M618.7 249.205H565.11C563.237 249.205 561.44 248.462 560.114 247.138C558.789 245.814 558.043 244.019 558.04 242.145V169.045H634.76V192.665H634.36C632.691 192.663 631.089 193.323 629.906 194.5C628.723 195.677 628.055 197.276 628.05 198.945V202.535H612.42V242.195C612.423 243.86 613.085 245.456 614.262 246.633C615.439 247.81 617.035 248.473 618.7 248.475V249.205ZM558.82 169.825V242.145C558.823 243.812 559.487 245.409 560.666 246.587C561.845 247.764 563.444 248.425 565.11 248.425H615.46C614.308 247.83 613.341 246.929 612.665 245.822C611.99 244.714 611.632 243.443 611.63 242.145V201.705H627.26V198.945C627.265 197.134 627.963 195.394 629.211 194.081C630.459 192.768 632.161 191.982 633.97 191.885V169.825H558.82Z" fill="black"/>
<path d="M656.709 202.095V242.145C656.711 243.022 656.539 243.889 656.204 244.699C655.87 245.509 655.378 246.245 654.759 246.865C654.139 247.484 653.403 247.975 652.593 248.31C651.784 248.645 650.916 248.817 650.039 248.815H618.699C617.823 248.817 616.955 248.645 616.145 248.31C615.335 247.975 614.6 247.484 613.98 246.865C613.36 246.245 612.869 245.509 612.534 244.699C612.2 243.889 612.028 243.022 612.029 242.145V202.095H656.709Z" fill="#173588"/>
<path d="M641.4 202.535H627.26V198.995C627.259 197.597 627.674 196.23 628.451 195.067C629.228 193.904 630.332 192.997 631.624 192.462C632.916 191.927 634.338 191.787 635.709 192.06C637.081 192.333 638.341 193.006 639.33 193.995C639.989 194.65 640.512 195.429 640.867 196.287C641.223 197.146 641.404 198.066 641.4 198.995V202.535ZM628.05 201.755H640.61V198.995C640.61 197.335 639.952 195.742 638.781 194.565C637.61 193.388 636.02 192.723 634.36 192.715C632.691 192.713 631.089 193.373 629.906 194.55C628.723 195.727 628.055 197.326 628.05 198.995V201.755Z" fill="black"/>
<path d="M641.399 202.095H640.609V211.915H641.399V202.095Z" fill="black"/>
<path d="M628.05 202.095H627.26V211.915H628.05V202.095Z" fill="black"/>
<path d="M575.04 179.265H574.26V154.595C574.26 151.126 575.638 147.799 578.091 145.346C580.544 142.893 583.871 141.515 587.34 141.515C590.809 141.515 594.136 142.893 596.589 145.346C599.042 147.799 600.42 151.126 600.42 154.595V169.435H599.63V154.595C599.538 151.395 598.203 148.357 595.907 146.125C593.611 143.894 590.536 142.646 587.335 142.646C584.133 142.646 581.058 143.894 578.762 146.125C576.466 148.357 575.131 151.395 575.04 154.595V179.265Z" fill="black"/>
<path d="M575.05 169.435H574.26V248.815H575.05V169.435Z" fill="black"/>
<path d="M619.2 179.265H618.42V154.595C618.329 151.395 616.993 148.357 614.698 146.125C612.402 143.894 609.326 142.646 606.125 142.646C602.924 142.646 599.848 143.894 597.552 146.125C595.257 148.357 593.921 151.395 593.83 154.595V179.265H593.04V154.595C593.04 152.877 593.378 151.177 594.036 149.59C594.693 148.003 595.657 146.561 596.871 145.346C598.086 144.132 599.528 143.168 601.115 142.511C602.702 141.853 604.402 141.515 606.12 141.515C607.838 141.515 609.539 141.853 611.126 142.511C612.712 143.168 614.154 144.132 615.369 145.346C616.584 146.561 617.547 148.003 618.204 149.59C618.862 151.177 619.2 152.877 619.2 154.595V179.265Z" fill="black"/>
<path d="M650.04 249.205H618.7C616.827 249.205 615.03 248.462 613.704 247.138C612.379 245.814 611.633 244.018 611.63 242.145V201.705H657.1V242.145C657.097 244.017 656.353 245.811 655.029 247.134C653.706 248.458 651.911 249.202 650.04 249.205ZM612.42 202.535V242.195C612.423 243.86 613.085 245.456 614.262 246.633C615.439 247.81 617.035 248.472 618.7 248.475H650.04C651.705 248.472 653.3 247.81 654.478 246.633C655.655 245.456 656.317 243.86 656.32 242.195V202.535H612.42Z" fill="black"/>
<path d="M358.86 56.7753L333.9 47.1053L308.93 37.4253L251.74 119.875L296.18 143.815L345.54 156.235L358.86 56.7753Z" fill="#61ADE0"/>
<path d="M345.87 156.725L295.99 144.165L251.17 120.015L251.42 119.655L308.79 36.9453L359.29 56.5353V56.8353L345.87 156.725ZM296.32 143.445L345.21 155.755L358.43 57.0353L309.08 37.9053L252.31 119.745L296.32 143.445Z" fill="black"/>
<path d="M353.49 96.8553L404.69 94.6353L398.18 111.445L347.63 140.645L353.49 96.8553Z" fill="#173588"/>
<path d="M413.23 81.395C407.406 81.3992 401.818 83.6934 397.672 87.7824C393.525 91.8714 391.153 97.4271 391.068 103.25C390.982 109.073 393.191 114.696 397.215 118.904C401.24 123.113 406.759 125.57 412.58 125.745L413.23 81.395Z" fill="#61ADE0"/>
<path d="M412.969 126.145H412.549C409.557 126.147 406.594 125.553 403.833 124.399C401.071 123.245 398.567 121.553 396.466 119.422C394.365 117.291 392.709 114.763 391.593 111.986C390.478 109.209 389.926 106.238 389.97 103.245C390.014 100.253 390.652 97.2992 391.848 94.5558C393.044 91.8125 394.774 89.3344 396.936 87.2657C399.099 85.1971 401.651 83.5791 404.445 82.5061C407.239 81.433 410.218 80.9263 413.209 81.0154H413.599V81.4154L412.969 126.145ZM412.829 81.7854C407.151 81.8544 401.724 84.1374 397.704 88.1482C393.684 92.159 391.389 97.5806 391.307 103.259C391.225 108.937 393.362 114.422 397.265 118.548C401.167 122.673 406.526 125.112 412.199 125.345L412.829 81.7854Z" fill="black"/>
<path d="M323.24 87.565C330.398 87.565 336.2 81.7626 336.2 74.605C336.2 67.4474 330.398 61.645 323.24 61.645C316.083 61.645 310.28 67.4474 310.28 74.605C310.28 81.7626 316.083 87.565 323.24 87.565Z" fill="white"/>
<path d="M434.16 248.425H460.92L471.86 219.755H424.12L434.16 248.425Z" fill="#E75553"/>
<path d="M505.62 178.485V213.905" stroke="black" stroke-width="0.43" stroke-miterlimit="10"/>
<path d="M507.73 219.915C507.73 219.915 508.16 199.385 488.14 198.795C488.14 198.795 485.92 221.205 507.73 219.915Z" fill="#E75553"/>
<path d="M505.97 220.185C500.43 220.185 496.07 218.565 492.97 215.345C490.325 212.362 488.651 208.643 488.17 204.685C487.869 202.727 487.785 200.742 487.92 198.765V198.575H488.12C492.269 198.569 496.322 199.824 499.74 202.175C502.297 204.062 504.32 206.581 505.61 209.485C507.073 212.774 507.856 216.326 507.91 219.925V220.115H507.71C507.14 220.165 506.55 220.185 505.97 220.185ZM488.34 199.015C488.235 200.893 488.322 202.776 488.6 204.635C489.073 208.503 490.708 212.137 493.29 215.055C496.58 218.465 501.36 220.055 507.52 219.715C507.422 216.245 506.647 212.828 505.24 209.655C502.13 202.895 496.44 199.305 488.34 199.015Z" fill="#E75553"/>
<path d="M505.61 195.285C505.61 195.285 506.38 187.415 493.55 188.865C493.55 188.865 496.81 191.945 498.9 193.865C499.806 194.651 500.898 195.193 502.071 195.442C503.245 195.69 504.463 195.636 505.61 195.285Z" fill="#E75553"/>
<path d="M503.55 195.795C501.785 195.816 500.078 195.169 498.77 193.985C496.71 192.125 493.46 189.055 493.43 188.985L493.09 188.665H493.55C498.5 188.105 502.04 188.845 504.09 190.855C504.681 191.433 505.143 192.129 505.446 192.897C505.749 193.666 505.887 194.49 505.85 195.315V195.455H505.73C505.025 195.681 504.29 195.795 503.55 195.795ZM494.06 189.035C494.95 189.865 497.39 192.165 499.06 193.675C499.919 194.424 500.951 194.949 502.062 195.202C503.174 195.455 504.331 195.428 505.43 195.125C505.437 194.382 505.294 193.645 505.011 192.958C504.727 192.271 504.309 191.647 503.78 191.125C501.88 189.295 498.61 188.585 494.04 189.035H494.06Z" fill="#E75553"/>
<path d="M505.91 186.855C505.91 186.855 506.6 179.675 515.91 180.705C515.92 180.705 514.9 188.745 505.91 186.855Z" fill="#E75553"/>
<path d="M508.49 187.355C507.609 187.352 506.73 187.255 505.87 187.065H505.68V186.875C505.94 185.062 506.867 183.411 508.28 182.245C510.12 180.745 512.69 180.175 515.92 180.525H516.14V180.735C515.814 182.843 514.69 184.744 513 186.045C511.673 186.948 510.094 187.406 508.49 187.355ZM506.15 186.685C508.85 187.215 511.06 186.875 512.74 185.685C514.272 184.499 515.315 182.79 515.67 180.885C512.67 180.595 510.28 181.155 508.57 182.535C507.305 183.595 506.45 185.063 506.15 186.685Z" fill="#E75553"/>
<path d="M506.051 178.485C514.009 178.485 520.461 172.033 520.461 164.075C520.461 156.117 514.009 149.665 506.051 149.665C498.092 149.665 491.641 156.117 491.641 164.075C491.641 172.033 498.092 178.485 506.051 178.485Z" fill="#61ADE0" stroke="black" stroke-width="0.79" stroke-miterlimit="10"/>
<path d="M506.05 174.725C511.932 174.725 516.7 169.957 516.7 164.075C516.7 158.193 511.932 153.425 506.05 153.425C500.169 153.425 495.4 158.193 495.4 164.075C495.4 169.957 500.169 174.725 506.05 174.725Z" fill="white" stroke="#070707" stroke-width="0.57" stroke-miterlimit="10"/>
<path d="M507.61 220.095C502.45 216.765 497.37 211.185 494.01 207.095C490.38 202.655 487.93 198.955 487.9 198.915L488.26 198.685C488.36 198.825 498.05 213.435 507.85 219.745L507.61 220.095Z" fill="#E75553"/>
<path d="M506.01 186.985L505.73 186.655C508.766 184.086 512.158 181.971 515.8 180.375L515.96 180.775C512.362 182.354 509.01 184.446 506.01 186.985Z" fill="#E75553"/>
<path d="M505.431 195.395C504.75 194.387 503.893 193.509 502.901 192.805C500.119 190.828 496.901 189.552 493.521 189.085L493.591 188.655C497.049 189.141 500.339 190.455 503.181 192.485C504.21 193.216 505.097 194.127 505.801 195.175L505.431 195.395Z" fill="#E75553"/>
<path d="M503.551 219.915C503.551 219.915 503.121 199.385 523.141 198.795C523.151 198.795 525.371 221.205 503.551 219.915Z" fill="#E75553"/>
<path d="M505.321 220.185C504.751 220.185 504.151 220.185 503.551 220.135H503.351V219.945C503.416 216.355 504.201 212.815 505.661 209.535C506.943 206.629 508.963 204.109 511.521 202.225C514.939 199.874 518.992 198.619 523.141 198.625H523.341V198.815C523.476 200.792 523.392 202.777 523.091 204.735C522.614 208.694 520.939 212.414 518.291 215.395C515.221 218.535 510.861 220.185 505.321 220.185ZM503.781 219.715C509.931 220.035 514.721 218.465 518.001 215.055C520.583 212.136 522.218 208.503 522.691 204.635C522.974 202.776 523.061 200.892 522.951 199.015C514.851 199.315 509.161 202.895 506.041 209.665C504.636 212.835 503.868 216.249 503.781 219.715Z" fill="#E75553"/>
<path d="M503.63 220.145L503.4 219.785C509.156 216.065 514.23 211.384 518.4 205.945C520.16 203.691 521.71 201.281 523.03 198.745L523.41 198.925C522.089 201.49 520.529 203.924 518.75 206.195C514.544 211.675 509.43 216.393 503.63 220.145Z" fill="#E75553"/>
<path d="M492.54 248.425H519.29L530.24 219.755H482.5L492.54 248.425Z" fill="#FFE4B6"/>
<path d="M734.03 184.895H668.56V249.175H734.03V184.895Z" fill="#E75553" stroke="#020202" stroke-width="0.57" stroke-miterlimit="10"/>
<path d="M698.6 219.125H668.56V249.165H698.6V219.125Z" fill="#FED45D" stroke="#070707" stroke-width="0.57" stroke-miterlimit="10"/>
<path d="M734.019 219.125H703.979V249.165H734.019V219.125Z" fill="#FED45D" stroke="#070707" stroke-width="0.57" stroke-miterlimit="10"/>
<path d="M734.019 184.895H703.979V214.935H734.019V184.895Z" fill="#FED45D" stroke="#070707" stroke-width="0.57" stroke-miterlimit="10"/>
<path d="M698.6 184.895H668.56V214.935H698.6V184.895Z" fill="#FED45D" stroke="#070707" stroke-width="0.57" stroke-miterlimit="10"/>
<path d="M709.859 174.665L701.289 183.225L692.729 174.665" stroke="#070707" stroke-width="0.57" stroke-miterlimit="10"/>
<path d="M734.02 163.925H712.67V184.895H734.02V163.925Z" fill="#E75553" stroke="#020202" stroke-width="0.59" stroke-miterlimit="10"/>
<path d="M722.47 175.095H712.67V184.895H722.47V175.095Z" fill="#FED45D" stroke="#070707" stroke-width="0.59" stroke-miterlimit="10"/>
<path d="M734.029 175.095H724.229V184.895H734.029V175.095Z" fill="#FED45D" stroke="#070707" stroke-width="0.59" stroke-miterlimit="10"/>
<path d="M734.029 163.925H724.229V173.725H734.029V163.925Z" fill="#FED45D" stroke="#070707" stroke-width="0.59" stroke-miterlimit="10"/>
<path d="M722.47 163.925H712.67V173.725H722.47V163.925Z" fill="#FED45D" stroke="#070707" stroke-width="0.59" stroke-miterlimit="10"/>
<path d="M726.14 160.585L723.35 163.375L720.56 160.585" stroke="#070707" stroke-width="0.59" stroke-miterlimit="10"/>
<path d="M269.15 100.415C274.806 100.415 279.39 95.8305 279.39 90.1751C279.39 84.5197 274.806 79.9351 269.15 79.9351C263.495 79.9351 258.91 84.5197 258.91 90.1751C258.91 95.8305 263.495 100.415 269.15 100.415Z" fill="#FFE4B6"/>
<path d="M276.39 88.0354C288.894 88.0354 299.03 77.8991 299.03 65.3954C299.03 52.8916 288.894 42.7554 276.39 42.7554C263.886 42.7554 253.75 52.8916 253.75 65.3954C253.75 77.8991 263.886 88.0354 276.39 88.0354Z" stroke="black" stroke-width="0.79" stroke-miterlimit="10"/>
<path d="M482.079 133.625C481.324 127.493 479.367 121.57 476.32 116.195C473.273 110.82 469.196 106.099 464.323 102.301C459.449 98.5031 453.875 95.7034 447.918 94.062C441.962 92.4206 435.74 91.9697 429.609 92.7351" stroke="black" stroke-width="0.79" stroke-miterlimit="10"/>
<path d="M475.29 129.125L481.77 134.395L487.04 127.905" stroke="black" stroke-width="0.79" stroke-miterlimit="10"/>
<path d="M474.31 151.395C473.551 145.266 471.591 139.346 468.542 133.975C465.494 128.603 461.417 123.885 456.544 120.09C451.671 116.296 446.097 113.499 440.143 111.859C434.188 110.22 427.968 109.77 421.84 110.535" stroke="black" stroke-width="0.79" stroke-miterlimit="10"/>
<path d="M467.51 146.895L474 152.155L479.26 145.675" stroke="black" stroke-width="0.79" stroke-miterlimit="10"/>
<path d="M697.72 100.425C697.72 81.0785 682.037 65.395 662.69 65.395C643.344 65.395 627.66 81.0785 627.66 100.425C627.66 119.772 643.344 135.455 662.69 135.455C682.037 135.455 697.72 119.772 697.72 100.425Z" fill="#FFE4B6"/>
<path d="M697.72 140.835C695.029 140.895 692.353 140.417 689.849 139.428C687.345 138.44 685.064 136.961 683.14 135.079C681.215 133.197 679.686 130.949 678.642 128.468C677.598 125.987 677.061 123.322 677.061 120.63C677.061 117.939 677.598 115.274 678.642 112.793C679.686 110.311 681.215 108.064 683.14 106.182C685.064 104.3 687.345 102.821 689.849 101.832C692.353 100.844 695.029 100.366 697.72 100.425" fill="#FFE4B6"/>
<path d="M656.641 108.66C656.641 107.769 656.763 106.972 657.006 106.269C657.249 105.567 657.641 104.905 658.182 104.283C658.749 103.662 659.492 103.027 660.411 102.378C661.221 101.784 661.87 101.257 662.356 100.798C662.87 100.338 663.234 99.8789 663.451 99.4196C663.694 98.9602 663.815 98.4468 663.815 97.8794C663.815 97.0148 663.491 96.3663 662.843 95.934C662.221 95.4746 661.343 95.245 660.208 95.245C659.073 95.245 657.952 95.4206 656.844 95.7719C655.736 96.1231 654.601 96.596 653.44 97.1904L651.292 92.8537C652.615 92.1242 654.048 91.5297 655.588 91.0704C657.128 90.611 658.817 90.3814 660.654 90.3814C663.464 90.3814 665.639 91.0569 667.179 92.4079C668.746 93.7589 669.53 95.4746 669.53 97.5552C669.53 98.663 669.354 99.6222 669.003 100.433C668.652 101.243 668.125 102 667.422 102.702C666.72 103.378 665.842 104.108 664.788 104.891C664.004 105.459 663.396 105.945 662.964 106.35C662.532 106.755 662.235 107.147 662.072 107.526C661.937 107.904 661.87 108.377 661.87 108.944V110.119H656.641V108.66ZM655.993 116.888C655.993 115.645 656.331 114.78 657.006 114.294C657.682 113.781 658.506 113.524 659.479 113.524C660.424 113.524 661.235 113.781 661.91 114.294C662.586 114.78 662.924 115.645 662.924 116.888C662.924 118.077 662.586 118.942 661.91 119.482C661.235 119.995 660.424 120.252 659.479 120.252C658.506 120.252 657.682 119.995 657.006 119.482C656.331 118.942 655.993 118.077 655.993 116.888Z" fill="#1C96A0"/>
<path d="M330.08 159.405H327.23C326.872 159.405 326.528 159.263 326.275 159.01C326.022 158.757 325.88 158.413 325.88 158.055C325.88 157.697 326.022 157.354 326.275 157.1C326.528 156.847 326.872 156.705 327.23 156.705H330.08C330.438 156.705 330.781 156.847 331.034 157.1C331.288 157.354 331.43 157.697 331.43 158.055C331.43 158.413 331.288 158.757 331.034 159.01C330.781 159.263 330.438 159.405 330.08 159.405Z" fill="white"/>
<path d="M331.679 168.955C331.564 168.976 331.445 168.976 331.329 168.955L325.819 167.485C325.648 167.439 325.487 167.36 325.347 167.252C325.206 167.144 325.088 167.009 324.999 166.855C324.911 166.702 324.853 166.532 324.83 166.356C324.807 166.18 324.819 166.002 324.864 165.83C324.91 165.659 324.99 165.498 325.098 165.357C325.206 165.217 325.341 165.099 325.494 165.01C325.648 164.921 325.818 164.864 325.993 164.841C326.169 164.818 326.348 164.829 326.519 164.875L332.019 166.355C332.332 166.442 332.602 166.639 332.781 166.91C332.961 167.18 333.036 167.506 332.995 167.827C332.954 168.149 332.798 168.445 332.557 168.661C332.315 168.878 332.004 169 331.679 169.005V168.955Z" fill="white"/>
<path d="M325.549 176.425C325.314 176.425 325.083 176.363 324.879 176.245L322.409 174.815C322.243 174.734 322.094 174.619 321.974 174.478C321.853 174.337 321.763 174.173 321.708 173.996C321.654 173.818 321.637 173.631 321.658 173.447C321.679 173.263 321.738 173.085 321.831 172.924C321.924 172.764 322.049 172.624 322.199 172.514C322.348 172.404 322.519 172.326 322.7 172.285C322.881 172.243 323.068 172.24 323.25 172.275C323.433 172.309 323.606 172.381 323.759 172.485L326.219 173.905C326.477 174.053 326.678 174.282 326.792 174.557C326.906 174.831 326.927 175.135 326.851 175.422C326.774 175.709 326.605 175.963 326.37 176.144C326.135 176.326 325.846 176.424 325.549 176.425Z" fill="white"/>
<path d="M322.13 185.535C321.945 185.539 321.761 185.505 321.589 185.437C321.418 185.368 321.261 185.265 321.13 185.135L317.13 181.135C317.005 181.01 316.905 180.861 316.837 180.697C316.769 180.533 316.734 180.358 316.734 180.18C316.734 180.003 316.769 179.827 316.837 179.663C316.905 179.499 317.005 179.351 317.13 179.225C317.255 179.1 317.404 179 317.568 178.932C317.732 178.865 317.908 178.83 318.085 178.83C318.262 178.83 318.438 178.865 318.602 178.932C318.766 179 318.915 179.1 319.04 179.225L323.04 183.225C323.226 183.415 323.351 183.655 323.402 183.916C323.453 184.177 323.426 184.447 323.325 184.693C323.224 184.938 323.053 185.149 322.833 185.299C322.614 185.448 322.356 185.531 322.09 185.535H322.13Z" fill="white"/>
<path d="M313.06 188.885C312.821 188.887 312.585 188.824 312.378 188.705C312.171 188.585 311.999 188.413 311.88 188.205L310.47 185.735C310.38 185.582 310.322 185.413 310.298 185.238C310.274 185.062 310.286 184.884 310.331 184.713C310.377 184.542 310.456 184.381 310.564 184.241C310.672 184.101 310.806 183.983 310.96 183.895C311.272 183.717 311.641 183.67 311.988 183.764C312.335 183.858 312.63 184.084 312.81 184.395L314.22 186.865C314.309 187.018 314.368 187.187 314.392 187.362C314.415 187.538 314.404 187.716 314.359 187.887C314.313 188.058 314.234 188.219 314.126 188.359C314.018 188.499 313.884 188.617 313.73 188.705C313.525 188.82 313.295 188.882 313.06 188.885Z" fill="white"/>
<path d="M311.629 132.395C311.391 132.394 311.157 132.332 310.949 132.215C310.641 132.036 310.417 131.741 310.325 131.396C310.233 131.052 310.281 130.684 310.459 130.375L311.879 127.905C312.058 127.595 312.353 127.368 312.699 127.276C313.045 127.183 313.414 127.231 313.724 127.41C314.035 127.589 314.261 127.884 314.354 128.23C314.447 128.576 314.398 128.945 314.219 129.255L312.799 131.725C312.679 131.929 312.508 132.098 312.303 132.215C312.098 132.333 311.866 132.395 311.629 132.395Z" fill="white"/>
<path d="M318.09 137.355C317.905 137.359 317.721 137.325 317.549 137.257C317.378 137.188 317.221 137.085 317.09 136.955C316.839 136.7 316.698 136.357 316.698 136C316.698 135.643 316.839 135.299 317.09 135.045L321.09 131.045C321.215 130.92 321.364 130.82 321.528 130.752C321.692 130.684 321.868 130.649 322.045 130.649C322.222 130.649 322.398 130.684 322.562 130.752C322.726 130.82 322.875 130.92 323 131.045C323.125 131.17 323.225 131.319 323.293 131.483C323.361 131.647 323.396 131.823 323.396 132C323.396 132.177 323.361 132.353 323.293 132.517C323.225 132.681 323.125 132.83 323 132.955L319 136.955C318.758 137.198 318.433 137.341 318.09 137.355Z" fill="white"/>
<path d="M323.05 143.805C322.813 143.806 322.581 143.744 322.375 143.627C322.17 143.509 321.999 143.34 321.88 143.135C321.701 142.825 321.653 142.456 321.745 142.11C321.836 141.763 322.061 141.467 322.37 141.285L324.84 139.865C325.15 139.686 325.519 139.638 325.865 139.731C326.211 139.824 326.506 140.05 326.685 140.36C326.864 140.671 326.912 141.039 326.82 141.385C326.727 141.731 326.5 142.026 326.19 142.205L323.72 143.625C323.516 143.743 323.285 143.805 323.05 143.805Z" fill="white"/>
<path d="M326.16 151.325C325.835 151.32 325.524 151.197 325.283 150.981C325.041 150.765 324.885 150.469 324.844 150.147C324.803 149.826 324.879 149.5 325.058 149.23C325.237 148.959 325.507 148.762 325.82 148.675L331.32 147.195C331.494 147.152 331.676 147.143 331.854 147.17C332.032 147.197 332.203 147.258 332.357 147.351C332.511 147.444 332.645 147.566 332.752 147.711C332.859 147.856 332.936 148.021 332.98 148.195C333.024 148.369 333.034 148.55 333.008 148.728C332.981 148.906 332.92 149.077 332.827 149.23C332.733 149.384 332.611 149.518 332.465 149.623C332.32 149.729 332.155 149.804 331.98 149.845L326.55 151.285C326.422 151.318 326.291 151.331 326.16 151.325Z" fill="white"/>
</g>
<defs>
<clipPath id="clip0_815_2785">
<rect width="798.96" height="248.93" fill="white" transform="translate(0.549805 0.535156)"/>
</clipPath>
</defs>
</svg>
