<svg width="726" height="242" viewBox="0 0 726 242" fill="none" xmlns="http://www.w3.org/2000/svg">
<g clip-path="url(#clip0_815_2645)">
<path d="M488.197 126.856L559.029 83.8228L509.895 2.94816L439.063 45.9812L488.197 126.856Z" fill="#E75553"/>
<path d="M550.479 89.022L496.748 121.665L453.476 50.4397L492.593 26.6749C496.469 24.3202 501.122 23.6016 505.528 24.6772C509.933 25.7529 513.732 28.5346 516.086 32.4106L550.479 89.022Z" fill="#FFE4B6"/>
<path d="M493.64 66.4552C499.4 66.4552 504.07 61.7855 504.07 56.0252C504.07 50.2649 499.4 45.5952 493.64 45.5952C487.88 45.5952 483.21 50.2649 483.21 56.0252C483.21 61.7855 487.88 66.4552 493.64 66.4552Z" fill="#E75553"/>
<path d="M398.359 111.54L479.079 92.7407L457.615 0.577118L376.895 19.3761L398.359 111.54Z" fill="#E75553"/>
<path d="M469.337 95.0098L408.106 109.27L389.202 28.1022L433.779 17.7206C435.966 17.2112 438.232 17.1376 440.448 17.504C442.663 17.8704 444.785 18.6695 446.692 19.8559C448.598 21.0422 450.253 22.5925 451.56 24.4181C452.868 26.2438 453.803 28.3091 454.312 30.4962L469.337 95.0098Z" fill="#FFE4B6"/>
<path d="M425.619 56.2951C431.38 56.2951 436.049 51.6254 436.049 45.8651C436.049 40.1047 431.38 35.4351 425.619 35.4351C419.859 35.4351 415.189 40.1047 415.189 45.8651C415.189 51.6254 419.859 56.2951 425.619 56.2951Z" fill="#E75553"/>
<path d="M335.37 241.225C335.221 224.3 338.425 207.514 344.799 191.834C351.172 176.154 360.588 161.892 372.503 149.871C384.418 137.851 398.596 128.309 414.219 121.797C429.842 115.286 446.6 111.933 463.525 111.933C480.451 111.933 497.209 115.286 512.831 121.797C528.454 128.309 542.632 137.851 554.547 149.871C566.463 161.892 575.879 176.154 582.252 191.834C588.625 207.514 591.83 224.3 591.68 241.225" fill="#1C96A0"/>
<path d="M113.55 241.225C113.4 224.3 116.605 207.514 122.978 191.834C129.352 176.154 138.768 161.892 150.683 149.871C162.598 137.851 176.776 128.309 192.399 121.797C208.022 115.286 224.779 111.933 241.705 111.933C258.63 111.933 275.388 115.286 291.011 121.797C306.634 128.309 320.812 137.851 332.727 149.871C344.642 161.892 354.058 176.154 360.432 191.834C366.805 207.514 370.009 224.3 369.86 241.225" fill="#1C96A0"/>
<path d="M533.73 241.225C533.614 231.087 535.51 221.028 539.31 211.628C543.109 202.229 548.736 193.677 555.863 186.467C562.991 179.258 571.478 173.534 580.834 169.627C590.189 165.721 600.226 163.709 610.365 163.709C620.503 163.709 630.54 165.721 639.896 169.627C649.251 173.534 657.738 179.258 664.866 186.467C671.994 193.677 677.62 202.229 681.419 211.628C685.219 221.028 687.115 231.087 687 241.225" fill="#7CC8C2"/>
<path d="M23.6993 241.225C23.5835 231.087 25.4802 221.028 29.2795 211.628C33.0789 202.229 38.7053 193.677 45.833 186.467C52.9608 179.258 61.4481 173.534 70.8034 169.627C80.1587 165.721 90.1962 163.709 100.334 163.709C110.473 163.709 120.51 165.721 129.865 169.627C139.221 173.534 147.708 179.258 154.836 186.467C161.963 193.677 167.59 202.229 171.389 211.628C175.188 221.028 177.085 231.087 176.969 241.225" fill="#7CC8C2"/>
<path d="M281.199 220.775C294.482 220.775 305.249 210.007 305.249 196.725C305.249 183.442 294.482 172.675 281.199 172.675C267.917 172.675 257.149 183.442 257.149 196.725C257.149 210.007 267.917 220.775 281.199 220.775Z" stroke="black" stroke-width="0.71" stroke-miterlimit="10"/>
<path d="M201.58 34.2749L194.21 47.0449H208.92L201.58 34.2749Z" fill="#1C96A0"/>
<path d="M710.56 241.225C719.015 241.225 725.87 234.37 725.87 225.915C725.87 217.459 719.015 210.605 710.56 210.605C702.105 210.605 695.25 217.459 695.25 225.915C695.25 234.37 702.105 241.225 710.56 241.225Z" fill="#7CC8C2"/>
<path d="M7.7898 241.775C11.7883 241.775 15.0298 238.533 15.0298 234.535C15.0298 230.536 11.7883 227.295 7.7898 227.295C3.79126 227.295 0.549805 230.536 0.549805 234.535C0.549805 238.533 3.79126 241.775 7.7898 241.775Z" fill="#7CC8C2"/>
<path d="M150.91 96.2553C159.365 96.2553 166.22 89.4007 166.22 80.9453C166.22 72.4898 159.365 65.6353 150.91 65.6353C142.454 65.6353 135.6 72.4898 135.6 80.9453C135.6 89.4007 142.454 96.2553 150.91 96.2553Z" fill="#FFE4B6"/>
<path d="M117.08 133.295C135.764 133.295 150.91 118.149 150.91 99.4653C150.91 80.7815 135.764 65.6353 117.08 65.6353C98.3962 65.6353 83.25 80.7815 83.25 99.4653C83.25 118.149 98.3962 133.295 117.08 133.295Z" stroke="black" stroke-width="0.71" stroke-miterlimit="10"/>
<path d="M607.64 47.7553C616.096 47.7553 622.95 40.9007 622.95 32.4453C622.95 23.9898 616.096 17.1353 607.64 17.1353C599.185 17.1353 592.33 23.9898 592.33 32.4453C592.33 40.9007 599.185 47.7553 607.64 47.7553Z" fill="#FFE4B6"/>
<path d="M615.6 40.6553L598.17 70.8453H632.94L615.6 40.6553Z" fill="#1C96A0"/>
<path d="M260.82 51.0049C249.581 52.3987 239.357 58.1998 232.395 67.1322C225.434 76.0645 222.306 87.3964 223.7 98.6349" stroke="black" stroke-width="0.71" stroke-miterlimit="10"/>
<path d="M256.74 57.1749L261.52 51.2849L255.63 46.5049" stroke="black" stroke-width="0.71" stroke-miterlimit="10"/>
<path d="M302.74 12.0249V102.305L343.59 57.1649L302.74 12.0249Z" fill="#FFD423"/>
<path d="M340.2 43.9949C341.101 43.9949 341.83 43.2651 341.83 42.3649C341.83 41.4646 341.101 40.7349 340.2 40.7349C339.3 40.7349 338.57 41.4646 338.57 42.3649C338.57 43.2651 339.3 43.9949 340.2 43.9949Z" fill="#E75553"/>
<path d="M340.07 51.4451C340.971 51.4451 341.7 50.7153 341.7 49.8151C341.7 48.9148 340.971 48.1851 340.07 48.1851C339.17 48.1851 338.44 48.9148 338.44 49.8151C338.44 50.7153 339.17 51.4451 340.07 51.4451Z" fill="#E75553"/>
<path d="M340.07 59.0349C340.971 59.0349 341.7 58.3051 341.7 57.4049C341.7 56.5047 340.971 55.7749 340.07 55.7749C339.17 55.7749 338.44 56.5047 338.44 57.4049C338.44 58.3051 339.17 59.0349 340.07 59.0349Z" fill="#E75553"/>
<path d="M340.07 66.615C340.971 66.615 341.7 65.8852 341.7 64.985C341.7 64.0848 340.971 63.355 340.07 63.355C339.17 63.355 338.44 64.0848 338.44 64.985C338.44 65.8852 339.17 66.615 340.07 66.615Z" fill="#E75553"/>
<path d="M346.84 51.4451C347.74 51.4451 348.47 50.7153 348.47 49.8151C348.47 48.9148 347.74 48.1851 346.84 48.1851C345.94 48.1851 345.21 48.9148 345.21 49.8151C345.21 50.7153 345.94 51.4451 346.84 51.4451Z" fill="#E75553"/>
<path d="M346.84 59.0349C347.74 59.0349 348.47 58.3051 348.47 57.4049C348.47 56.5047 347.74 55.7749 346.84 55.7749C345.94 55.7749 345.21 56.5047 345.21 57.4049C345.21 58.3051 345.94 59.0349 346.84 59.0349Z" fill="#E75553"/>
<path d="M353.61 59.0349C354.511 59.0349 355.24 58.3051 355.24 57.4049C355.24 56.5047 354.511 55.7749 353.61 55.7749C352.71 55.7749 351.98 56.5047 351.98 57.4049C351.98 58.3051 352.71 59.0349 353.61 59.0349Z" fill="#E75553"/>
<path d="M346.84 66.615C347.74 66.615 348.47 65.8852 348.47 64.985C348.47 64.0848 347.74 63.355 346.84 63.355C345.94 63.355 345.21 64.0848 345.21 64.985C345.21 65.8852 345.94 66.615 346.84 66.615Z" fill="#E75553"/>
<path d="M340.07 74.2048C340.971 74.2048 341.7 73.475 341.7 72.5748C341.7 71.6746 340.971 70.9448 340.07 70.9448C339.17 70.9448 338.44 71.6746 338.44 72.5748C338.44 73.475 339.17 74.2048 340.07 74.2048Z" fill="#E75553"/>
<path d="M333.16 43.9949C334.06 43.9949 334.79 43.2651 334.79 42.3649C334.79 41.4646 334.06 40.7349 333.16 40.7349C332.26 40.7349 331.53 41.4646 331.53 42.3649C331.53 43.2651 332.26 43.9949 333.16 43.9949Z" fill="#E75553"/>
<path d="M333.3 36.5447C334.2 36.5447 334.93 35.8149 334.93 34.9147C334.93 34.0144 334.2 33.2847 333.3 33.2847C332.4 33.2847 331.67 34.0144 331.67 34.9147C331.67 35.8149 332.4 36.5447 333.3 36.5447Z" fill="#E75553"/>
<path d="M333.03 51.4451C333.931 51.4451 334.66 50.7153 334.66 49.8151C334.66 48.9148 333.931 48.1851 333.03 48.1851C332.13 48.1851 331.4 48.9148 331.4 49.8151C331.4 50.7153 332.13 51.4451 333.03 51.4451Z" fill="#E75553"/>
<path d="M333.03 59.0349C333.931 59.0349 334.66 58.3051 334.66 57.4049C334.66 56.5047 333.931 55.7749 333.03 55.7749C332.13 55.7749 331.4 56.5047 331.4 57.4049C331.4 58.3051 332.13 59.0349 333.03 59.0349Z" fill="#E75553"/>
<path d="M333.03 66.615C333.931 66.615 334.66 65.8852 334.66 64.985C334.66 64.0848 333.931 63.355 333.03 63.355C332.13 63.355 331.4 64.0848 331.4 64.985C331.4 65.8852 332.13 66.615 333.03 66.615Z" fill="#E75553"/>
<path d="M333.03 74.2048C333.931 74.2048 334.66 73.475 334.66 72.5748C334.66 71.6746 333.931 70.9448 333.03 70.9448C332.13 70.9448 331.4 71.6746 331.4 72.5748C331.4 73.475 332.13 74.2048 333.03 74.2048Z" fill="#E75553"/>
<path d="M333.03 81.7849C333.931 81.7849 334.66 81.0551 334.66 80.1549C334.66 79.2547 333.931 78.5249 333.03 78.5249C332.13 78.5249 331.4 79.2547 331.4 80.1549C331.4 81.0551 332.13 81.7849 333.03 81.7849Z" fill="#E75553"/>
<path d="M565.769 78.085H375.869C364.586 78.085 355.439 87.2318 355.439 98.515V220.795C355.439 232.078 364.586 241.225 375.869 241.225H565.769C577.053 241.225 586.199 232.078 586.199 220.795V98.515C586.199 87.2318 577.053 78.085 565.769 78.085Z" fill="#FED45D" stroke="black" stroke-width="0.71" stroke-miterlimit="10"/>
<path d="M339.479 225.015H284.359C279.985 225.015 276.439 228.561 276.439 232.935V233.305C276.439 237.679 279.985 241.225 284.359 241.225H339.479C343.854 241.225 347.399 237.679 347.399 233.305V232.935C347.399 228.561 343.854 225.015 339.479 225.015Z" fill="#FED45D" stroke="black" stroke-width="0.65" stroke-miterlimit="10"/>
<path d="M339.479 208.805H284.359C279.985 208.805 276.439 212.351 276.439 216.725V217.095C276.439 221.469 279.985 225.015 284.359 225.015H339.479C343.854 225.015 347.399 221.469 347.399 217.095V216.725C347.399 212.351 343.854 208.805 339.479 208.805Z" fill="#FED45D" stroke="black" stroke-width="0.65" stroke-miterlimit="10"/>
<path d="M339.479 192.545H284.359C279.985 192.545 276.439 196.091 276.439 200.465V200.835C276.439 205.209 279.985 208.755 284.359 208.755H339.479C343.854 208.755 347.399 205.209 347.399 200.835V200.465C347.399 196.091 343.854 192.545 339.479 192.545Z" fill="#FED45D" stroke="black" stroke-width="0.65" stroke-miterlimit="10"/>
<path d="M531.549 78.085H374.209C363.843 78.085 355.439 86.4886 355.439 96.855V222.455C355.439 232.821 363.843 241.225 374.209 241.225H531.549C541.916 241.225 550.319 232.821 550.319 222.455V96.855C550.319 86.4886 541.916 78.085 531.549 78.085Z" fill="white" stroke="black" stroke-width="0.66" stroke-miterlimit="10"/>
<path d="M514.479 137.155H586.2V182.155H514.479C511.525 182.155 508.599 181.573 505.869 180.443C503.139 179.312 500.659 177.654 498.57 175.565C496.48 173.476 494.823 170.995 493.692 168.266C492.561 165.536 491.979 162.61 491.979 159.655C491.979 153.688 494.35 147.965 498.57 143.745C502.789 139.526 508.512 137.155 514.479 137.155Z" fill="#E75553" stroke="#020202" stroke-width="0.68" stroke-miterlimit="10"/>
<path d="M515.039 170.085C520.8 170.085 525.469 165.415 525.469 159.655C525.469 153.895 520.8 149.225 515.039 149.225C509.279 149.225 504.609 153.895 504.609 159.655C504.609 165.415 509.279 170.085 515.039 170.085Z" fill="white" stroke="black" stroke-width="0.66" stroke-miterlimit="10"/>
<path d="M372.729 90.9648H528.18C529.286 90.9688 530.381 91.1912 531.401 91.6195C532.421 92.0478 533.347 92.6734 534.125 93.4605C534.902 94.2475 535.517 95.1805 535.933 96.2057C536.349 97.231 536.559 98.3284 536.549 99.4348V137.155" fill="white"/>
<path d="M378.789 90.645H372.729V91.295H378.789V90.645Z" fill="black"/>
<path d="M536.84 119.665H536.19V108.235H536.84V119.665ZM535.84 96.945C535.338 95.312 534.326 93.8825 532.953 92.8658C531.58 91.8491 529.918 91.2987 528.21 91.295H527.36V90.645H528.21C530.057 90.6474 531.856 91.2421 533.341 92.3418C534.825 93.4415 535.919 94.9883 536.46 96.755L535.84 96.945ZM515.93 91.295H504.48V90.645H515.9L515.93 91.295ZM493.08 91.295H481.63V90.645H493.05L493.08 91.295ZM470.23 91.295H458.77V90.645H470.2L470.23 91.295ZM447.38 91.295H435.92V90.645H447.35L447.38 91.295ZM424.53 91.295H413.07V90.645H424.55L424.53 91.295ZM401.68 91.295H390.22V90.645H401.65L401.68 91.295Z" fill="black"/>
<path d="M536.839 131.095H536.189V137.155H536.839V131.095Z" fill="black"/>
<path d="M372.729 228.805H528.18C529.288 228.791 530.383 228.558 531.401 228.121C532.42 227.683 533.342 227.05 534.115 226.256C534.889 225.462 535.499 224.523 535.909 223.494C536.32 222.464 536.524 221.364 536.51 220.255V182.155" fill="white"/>
<path d="M378.789 228.475H372.729V229.125H378.789V228.475Z" fill="black"/>
<path d="M528.18 229.125H527.67V228.475H528.18C529.945 228.457 531.655 227.86 533.048 226.776C534.44 225.692 535.439 224.181 535.89 222.475L536.52 222.645C536.032 224.489 534.951 226.122 533.444 227.293C531.937 228.464 530.088 229.107 528.18 229.125ZM516.18 229.125H504.76V228.475H516.22L516.18 229.125ZM493.27 229.125H481.86V228.475H493.31L493.27 229.125ZM470.37 229.125H458.96V228.475H470.41L470.37 229.125ZM447.47 229.125H436.05V228.475H447.55L447.47 229.125ZM424.56 229.125H413.15V228.475H424.6L424.56 229.125ZM401.66 229.125H390.25V228.475H401.7L401.66 229.125ZM536.8 211.125H536.15V199.675H536.8V211.125Z" fill="black"/>
<path d="M536.839 182.155H536.189V188.215H536.839V182.155Z" fill="black"/>
<path d="M629.68 171.695V230.745" stroke="black" stroke-width="0.71" stroke-miterlimit="10"/>
<path d="M633.189 240.775C633.189 240.775 633.909 206.545 600.549 205.545C600.549 205.545 596.819 242.915 633.189 240.775Z" fill="#1C96A0"/>
<path d="M630.25 241.225C621.02 241.225 613.75 238.515 608.6 233.155C603.45 227.795 601.35 220.475 600.6 215.375C600.093 212.114 599.956 208.807 600.19 205.515V205.185H600.55C608.24 205.415 614.76 207.425 619.93 211.185C624.196 214.331 627.567 218.537 629.71 223.385C632.148 228.868 633.457 234.785 633.56 240.785V241.115H633.23C632.21 241.195 631.22 241.225 630.25 241.225ZM600.86 205.915C600.683 209.045 600.83 212.185 601.3 215.285C602.05 220.285 604.02 227.355 609.12 232.665C614.59 238.365 622.57 240.975 632.84 240.435C632.688 234.65 631.397 228.951 629.04 223.665C623.85 212.385 614.37 206.415 600.86 205.915Z" fill="#1C96A0"/>
<path d="M629.67 199.705C629.67 199.705 630.95 186.545 609.55 189.005C609.55 189.005 614.97 194.135 618.45 197.275C619.96 198.598 621.783 199.516 623.746 199.941C625.708 200.366 627.747 200.285 629.67 199.705Z" fill="#1C96A0"/>
<path d="M626.19 200.545C623.239 200.597 620.379 199.524 618.19 197.545C614.74 194.435 609.32 189.315 609.27 189.265L608.71 188.735L609.47 188.645C617.72 187.715 623.64 188.945 627.05 192.305C628.035 193.267 628.806 194.426 629.311 195.707C629.816 196.987 630.044 198.36 629.98 199.735V199.965L629.76 200.035C628.602 200.383 627.399 200.554 626.19 200.545ZM610.36 189.275C611.84 190.675 615.92 194.505 618.7 197.015C620.133 198.264 621.852 199.139 623.706 199.561C625.559 199.983 627.488 199.94 629.32 199.435C629.327 198.201 629.087 196.978 628.615 195.838C628.142 194.698 627.447 193.663 626.57 192.795C623.43 189.715 617.98 188.545 610.36 189.275Z" fill="#1C96A0"/>
<path d="M630.16 185.655C630.16 185.655 631.31 173.655 646.85 175.385C646.85 175.385 645.14 188.795 630.16 185.655Z" fill="#1C96A0"/>
<path d="M634.449 186.485C632.983 186.474 631.522 186.313 630.089 186.005L629.779 185.935V185.615C630.217 182.589 631.764 179.834 634.119 177.885C637.179 175.395 641.469 174.435 646.859 175.025H647.219V175.385C646.665 178.898 644.786 182.065 641.969 184.235C639.765 185.763 637.131 186.551 634.449 186.485ZM630.549 185.365C635.029 186.245 638.729 185.685 641.549 183.695C644.102 181.714 645.845 178.869 646.449 175.695C641.449 175.215 637.449 176.135 634.609 178.445C632.48 180.199 631.041 182.651 630.549 185.365Z" fill="#1C96A0"/>
<path d="M630.4 171.695C643.671 171.695 654.43 160.937 654.43 147.665C654.43 134.394 643.671 123.635 630.4 123.635C617.129 123.635 606.37 134.394 606.37 147.665C606.37 160.937 617.129 171.695 630.4 171.695Z" fill="#FFD423" stroke="#070707" stroke-width="0.95" stroke-miterlimit="10"/>
<path d="M630.4 165.425C640.208 165.425 648.16 157.474 648.16 147.665C648.16 137.857 640.208 129.905 630.4 129.905C620.591 129.905 612.64 137.857 612.64 147.665C612.64 157.474 620.591 165.425 630.4 165.425Z" fill="white" stroke="#070707" stroke-width="0.95" stroke-miterlimit="10"/>
<path d="M635.549 154.435C634.427 155.392 633.022 155.954 631.549 156.035V158.655H629.549V156.055C628.437 155.984 627.338 155.772 626.279 155.425C625.381 155.155 624.545 154.71 623.819 154.115L624.869 151.755C625.506 152.257 626.218 152.655 626.979 152.935C627.803 153.256 628.669 153.458 629.549 153.535V148.855C628.602 148.644 627.675 148.349 626.779 147.975C626.051 147.673 625.411 147.191 624.919 146.575C624.391 145.875 624.125 145.011 624.169 144.135C624.161 143.53 624.279 142.93 624.517 142.374C624.755 141.818 625.106 141.317 625.549 140.905C626.667 139.942 628.075 139.382 629.549 139.315V136.675H631.549V139.275C632.417 139.317 633.277 139.465 634.109 139.715C634.879 139.945 635.613 140.281 636.289 140.715L635.289 143.075C634.129 142.402 632.842 141.973 631.509 141.815V146.545C632.461 146.762 633.393 147.053 634.299 147.415C635.028 147.717 635.671 148.194 636.169 148.805C636.704 149.503 636.973 150.368 636.929 151.245C636.933 151.844 636.813 152.436 636.575 152.986C636.338 153.535 635.988 154.028 635.549 154.435ZM627.849 145.235C628.38 145.603 628.973 145.87 629.599 146.025V141.865C628.944 141.932 628.325 142.193 627.819 142.615C627.63 142.791 627.481 143.005 627.381 143.243C627.281 143.481 627.233 143.737 627.239 143.995C627.231 144.235 627.282 144.473 627.386 144.689C627.491 144.905 627.646 145.093 627.839 145.235H627.849ZM633.349 152.755C633.542 152.592 633.695 152.388 633.799 152.158C633.903 151.928 633.954 151.678 633.949 151.425C633.956 151.178 633.902 150.933 633.793 150.712C633.683 150.49 633.52 150.299 633.319 150.155C632.772 149.781 632.162 149.507 631.519 149.345V153.485C632.183 153.419 632.814 153.166 633.339 152.755H633.349Z" fill="#1C96A0"/>
<path d="M631.98 159.125H629.11V156.545C628.11 156.451 627.123 156.243 626.17 155.925C625.212 155.637 624.322 155.161 623.55 154.525L623.29 154.295L624.73 151.045L625.21 151.435C625.813 151.91 626.488 152.284 627.21 152.545C627.828 152.787 628.473 152.954 629.13 153.045V149.275C628.283 149.072 627.454 148.801 626.65 148.465C625.87 148.119 625.185 147.591 624.65 146.925C624.055 146.14 623.754 145.17 623.8 144.185C623.792 143.517 623.922 142.855 624.184 142.24C624.446 141.626 624.833 141.072 625.32 140.615C626.394 139.666 627.742 139.081 629.17 138.945V136.255H632.04V138.885C632.793 138.953 633.537 139.097 634.26 139.315C635.074 139.538 635.851 139.874 636.57 140.315L636.9 140.525L635.55 143.745L635.07 143.465C634.119 142.917 633.081 142.538 632 142.345V146.145C632.851 146.354 633.686 146.621 634.5 146.945C635.302 147.278 636.01 147.804 636.56 148.475C637.158 149.26 637.463 150.23 637.42 151.215C637.43 151.884 637.298 152.547 637.033 153.161C636.767 153.775 636.374 154.325 635.88 154.775C634.795 155.728 633.438 156.316 632 156.455L631.98 159.125ZM630.06 158.125H631.06V155.555H631.49C632.868 155.484 634.185 154.964 635.24 154.075C635.641 153.714 635.959 153.271 636.173 152.776C636.387 152.28 636.492 151.745 636.48 151.205C636.518 150.438 636.288 149.682 635.83 149.065C635.379 148.515 634.798 148.086 634.14 147.815C633.262 147.459 632.356 147.178 631.43 146.975L631.06 146.885V141.255L631.59 141.315C632.807 141.457 633.99 141.816 635.08 142.375L635.69 140.885C635.143 140.58 634.562 140.339 633.96 140.165C633.163 139.928 632.341 139.784 631.51 139.735H631.06V137.165H630.06V139.755L629.64 139.805C628.273 139.86 626.963 140.37 625.92 141.255C625.523 141.624 625.209 142.071 624.997 142.569C624.785 143.067 624.68 143.604 624.69 144.145C624.646 144.912 624.872 145.669 625.33 146.285C625.776 146.841 626.354 147.277 627.01 147.555C627.881 147.913 628.781 148.198 629.7 148.405L630.06 148.495V154.055H629.55C628.624 153.978 627.715 153.765 626.85 153.425C626.239 153.194 625.655 152.895 625.11 152.535L624.44 154.025C625.051 154.46 625.726 154.797 626.44 155.025C627.46 155.361 628.519 155.565 629.59 155.635H630.03L630.06 158.125ZM631.06 153.985V148.675L631.66 148.835C632.377 149.002 633.056 149.304 633.66 149.725C633.919 149.915 634.129 150.163 634.271 150.45C634.414 150.737 634.486 151.055 634.48 151.375C634.486 151.695 634.422 152.011 634.292 152.303C634.163 152.595 633.971 152.855 633.73 153.065C633.131 153.538 632.409 153.829 631.65 153.905L631.06 153.985ZM632.01 149.985V152.895C632.378 152.81 632.721 152.638 633.01 152.395C633.155 152.273 633.27 152.12 633.346 151.946C633.422 151.773 633.458 151.585 633.45 151.395C633.461 151.222 633.425 151.048 633.348 150.892C633.271 150.736 633.155 150.603 633.01 150.505C632.693 150.287 632.346 150.115 631.98 149.995L632.01 149.985ZM630.09 146.645L629.49 146.475C628.803 146.308 628.154 146.009 627.58 145.595C627.33 145.408 627.128 145.165 626.989 144.885C626.85 144.606 626.778 144.298 626.78 143.985C626.775 143.664 626.837 143.344 626.963 143.048C627.088 142.752 627.275 142.485 627.51 142.265C628.074 141.779 628.771 141.473 629.51 141.385L630.05 141.305L630.09 146.645ZM629.09 142.445C628.722 142.531 628.379 142.702 628.09 142.945C627.953 143.074 627.844 143.229 627.768 143.401C627.693 143.572 627.653 143.758 627.65 143.945C627.643 144.112 627.677 144.279 627.75 144.429C627.824 144.579 627.934 144.709 628.07 144.805C628.376 145.027 628.713 145.202 629.07 145.325L629.09 142.445Z" fill="#070707"/>
<path d="M633 241.075C624.4 235.525 615.92 226.215 610.32 219.375C604.26 211.975 600.17 205.805 600.13 205.745L600.72 205.355C600.89 205.595 617.06 229.945 633.39 240.475L633 241.075Z" fill="#1C96A0"/>
<path d="M630.319 185.855L629.859 185.305C634.924 181.027 640.579 177.501 646.649 174.835L646.909 175.505C640.908 178.136 635.32 181.622 630.319 185.855Z" fill="#1C96A0"/>
<path d="M629.36 199.875C628.219 198.2 626.786 196.744 625.13 195.575C622.34 193.455 617.36 190.665 609.5 189.355L609.61 188.655C617.61 189.995 622.74 192.855 625.61 195.035C627.332 196.248 628.814 197.771 629.98 199.525L629.36 199.875Z" fill="#1C96A0"/>
<path d="M626.239 240.775C626.239 240.775 625.549 206.545 658.899 205.545C658.899 205.545 662.609 242.915 626.239 240.775Z" fill="#1C96A0"/>
<path d="M629.18 241.225C628.18 241.225 627.18 241.225 626.18 241.135H625.85V240.805C625.94 234.805 627.246 228.886 629.69 223.405C631.839 218.561 635.209 214.357 639.47 211.205C644.65 207.455 651.17 205.445 658.85 205.205H659.19V205.535C659.412 208.827 659.274 212.133 658.78 215.395C658.01 220.495 656 227.725 650.78 233.175C645.56 238.625 638.41 241.225 629.18 241.225ZM626.6 240.435C636.86 240.975 644.84 238.365 650.32 232.665C655.42 227.355 657.39 220.285 658.14 215.285C658.608 212.185 658.752 209.045 658.57 205.915C645.06 206.415 635.57 212.395 630.38 223.685C628.032 228.966 626.747 234.658 626.6 240.435Z" fill="#1C96A0"/>
<path d="M626.359 241.145L625.979 240.545C635.571 234.342 644.027 226.539 650.979 217.475C653.918 213.724 656.499 209.706 658.69 205.475L659.339 205.785C657.119 210.049 654.512 214.099 651.549 217.885C644.551 227.028 636.03 234.896 626.359 241.145Z" fill="#1C96A0"/>
<path d="M78.0603 241.215C94.9215 241.215 108.59 227.547 108.59 210.685C108.59 193.824 94.9215 180.155 78.0603 180.155C61.199 180.155 47.5303 193.824 47.5303 210.685C47.5303 227.547 61.199 241.215 78.0603 241.215Z" fill="#FFD423" stroke="#070707" stroke-width="0.71" stroke-miterlimit="10"/>
<path d="M78.06 233.245C90.5195 233.245 100.62 223.145 100.62 210.685C100.62 198.225 90.5195 188.125 78.06 188.125C65.6005 188.125 55.5 198.225 55.5 210.685C55.5 223.145 65.6005 233.245 78.06 233.245Z" fill="white" stroke="#070707" stroke-width="0.71" stroke-miterlimit="10"/>
<path d="M84.5998 219.275C83.1567 220.489 81.3534 221.192 79.4698 221.275V224.595H77.0398V221.345C75.6252 221.253 74.2277 220.984 72.8798 220.545C71.7412 220.196 70.6815 219.629 69.7598 218.875L71.0998 215.875C71.9027 216.516 72.8044 217.023 73.7698 217.375C74.818 217.783 75.9191 218.039 77.0398 218.135V212.195C75.8472 211.924 74.6797 211.553 73.5498 211.085C72.6297 210.693 71.8195 210.082 71.1898 209.305C70.5053 208.416 70.1518 207.316 70.1898 206.195C70.1774 205.429 70.3269 204.668 70.6285 203.963C70.93 203.259 71.3768 202.625 71.9398 202.105C73.3545 200.877 75.1475 200.171 77.0198 200.105V196.745H79.4498V200.045C80.5549 200.101 81.6494 200.289 82.7098 200.605C83.7119 200.873 84.6688 201.287 85.5498 201.835L84.3398 204.835C82.8609 203.973 81.22 203.425 79.5198 203.225V209.225C80.73 209.498 81.917 209.866 83.0698 210.325C83.9956 210.712 84.8127 211.32 85.4498 212.095C86.1396 212.977 86.494 214.076 86.4498 215.195C86.4494 215.968 86.2842 216.731 85.9651 217.435C85.6461 218.138 85.1806 218.766 84.5998 219.275ZM74.8098 207.595C75.4861 208.061 76.2418 208.4 77.0398 208.595V203.305C76.2086 203.389 75.4215 203.72 74.7798 204.255C74.5406 204.481 74.3513 204.754 74.2238 205.057C74.0964 205.36 74.0337 205.686 74.0398 206.015C74.0314 206.321 74.097 206.624 74.2311 206.9C74.3651 207.175 74.5637 207.413 74.8098 207.595ZM81.8098 217.155C82.0505 216.945 82.2423 216.685 82.3719 216.393C82.5014 216.101 82.5656 215.784 82.5598 215.465C82.5687 215.15 82.5005 214.838 82.361 214.556C82.2216 214.273 82.0152 214.029 81.7598 213.845C81.0667 213.37 80.2896 213.03 79.4698 212.845V218.095C80.3241 218.014 81.1367 217.688 81.8098 217.155Z" fill="#1C96A0"/>
<path d="M79.8296 224.995H76.6796V221.675C75.3495 221.562 74.0372 221.294 72.7696 220.875C71.5919 220.518 70.4972 219.93 69.5496 219.145L69.3496 218.975L70.9796 215.305L71.3496 215.605C72.1254 216.217 72.9927 216.703 73.9196 217.045C74.8137 217.393 75.7475 217.628 76.6996 217.745V212.475C75.5733 212.21 74.4698 211.855 73.3996 211.415C72.4264 210.995 71.5688 210.347 70.8996 209.525C70.1903 208.565 69.8368 207.388 69.8996 206.195C69.8909 205.381 70.0517 204.573 70.372 203.825C70.6922 203.076 71.1647 202.402 71.7596 201.845C73.1493 200.616 74.9083 199.885 76.7596 199.765V196.365H79.9096V199.685C80.9265 199.766 81.932 199.954 82.9096 200.245C83.8954 200.547 84.8344 200.985 85.6996 201.545L85.9396 201.705L84.4596 205.355L84.1096 205.155C82.7908 204.387 81.3387 203.874 79.8296 203.645V208.955C80.9634 209.203 82.0766 209.538 83.1596 209.955C84.1367 210.364 84.9986 211.006 85.6696 211.825C86.3835 212.783 86.7375 213.962 86.6696 215.155C86.6947 215.975 86.5445 216.791 86.2289 217.548C85.9133 218.305 85.4396 218.986 84.8396 219.545C83.4396 220.761 81.6876 221.497 79.8396 221.645L79.8296 224.995ZM77.3996 224.285H79.1196V220.995H79.4396C81.2439 220.909 82.9695 220.231 84.3496 219.065C84.8859 218.584 85.3119 217.993 85.5984 217.332C85.8849 216.671 86.0252 215.956 86.0096 215.235C86.0596 214.201 85.7446 213.181 85.1196 212.355C84.5219 211.625 83.7522 211.055 82.8796 210.695C81.7506 210.215 80.5831 209.83 79.3896 209.545L79.1196 209.475V202.795L79.5196 202.845C81.1281 203.032 82.686 203.524 84.1096 204.295L85.1096 201.945C84.3411 201.499 83.5219 201.147 82.6696 200.895C81.6408 200.591 80.5805 200.407 79.5096 200.345H79.1696V197.075H77.3996V200.395H77.0696C75.2804 200.473 73.569 201.149 72.2096 202.315C71.6715 202.806 71.2449 203.406 70.9585 204.075C70.6722 204.744 70.5327 205.467 70.5496 206.195C70.4956 207.227 70.8033 208.246 71.4196 209.075C72.0088 209.811 72.7717 210.388 73.6396 210.755C74.7582 211.221 75.9161 211.586 77.0996 211.845L77.3796 211.915V218.545H76.9896C75.8364 218.438 74.7029 218.175 73.6196 217.765C72.7693 217.441 71.963 217.011 71.2196 216.485L70.2196 218.825C71.0611 219.464 72.0091 219.948 73.0196 220.255C74.3342 220.687 75.6986 220.949 77.0796 221.035H77.4196L77.3996 224.285ZM79.1196 218.545V212.345L79.5696 212.475C80.4309 212.683 81.2474 213.046 81.9796 213.545C82.2784 213.762 82.5201 214.048 82.6838 214.379C82.8476 214.71 82.9285 215.076 82.9196 215.445C82.931 215.823 82.8579 216.199 82.7057 216.545C82.5534 216.891 82.3259 217.198 82.0396 217.445C81.3188 218.017 80.4461 218.365 79.5296 218.445L79.1196 218.545ZM79.8296 213.355V217.705C80.4644 217.603 81.063 217.341 81.5696 216.945C81.7749 216.769 81.9388 216.549 82.0494 216.302C82.16 216.055 82.2147 215.786 82.2096 215.515C82.2169 215.255 82.1606 214.997 82.0456 214.763C81.9306 214.53 81.7603 214.328 81.5496 214.175C81.0281 213.792 80.447 213.498 79.8296 213.305V213.355ZM77.3996 209.125L76.9396 208.995C76.1002 208.786 75.3068 208.423 74.5996 207.925C74.3078 207.715 74.0715 207.436 73.9113 207.114C73.751 206.792 73.6715 206.435 73.6796 206.075C73.6738 205.7 73.7474 205.328 73.8956 204.983C74.0438 204.639 74.2633 204.329 74.5396 204.075C75.226 203.483 76.0779 203.117 76.9796 203.025L77.3996 202.965V209.125ZM76.6796 203.795C76.0686 203.9 75.498 204.169 75.0296 204.575C74.8254 204.767 74.6637 205 74.5552 205.258C74.4467 205.517 74.3937 205.795 74.3996 206.075C74.3911 206.325 74.4441 206.574 74.5539 206.799C74.6637 207.024 74.8271 207.218 75.0296 207.365C75.5338 207.72 76.0906 207.993 76.6796 208.175V203.795Z" fill="#070707"/>
<path d="M181.13 241.215C197.991 241.215 211.66 227.547 211.66 210.685C211.66 193.824 197.991 180.155 181.13 180.155C164.268 180.155 150.6 193.824 150.6 210.685C150.6 227.547 164.268 241.215 181.13 241.215Z" fill="#FFD423" stroke="#070707" stroke-width="0.71" stroke-miterlimit="10"/>
<path d="M181.129 233.245C193.589 233.245 203.689 223.145 203.689 210.685C203.689 198.225 193.589 188.125 181.129 188.125C168.67 188.125 158.569 198.225 158.569 210.685C158.569 223.145 168.67 233.245 181.129 233.245Z" fill="white" stroke="#070707" stroke-width="0.71" stroke-miterlimit="10"/>
<path d="M179.68 221.385C177.797 221.236 176.017 220.466 174.62 219.195L172.26 221.545L170.55 219.825L172.88 217.495C171.946 216.429 171.15 215.25 170.51 213.985C169.955 212.936 169.615 211.787 169.51 210.605L172.58 209.435C172.689 210.474 172.97 211.488 173.41 212.435C173.858 213.463 174.454 214.42 175.18 215.275L179.38 211.075C178.721 210.036 178.152 208.942 177.68 207.805C177.301 206.878 177.16 205.871 177.27 204.875C177.424 203.77 177.962 202.754 178.79 202.005C179.327 201.457 179.973 201.026 180.685 200.74C181.398 200.454 182.162 200.32 182.93 200.345C184.794 200.482 186.557 201.247 187.93 202.515L190.3 200.135L192.02 201.865L189.69 204.195C190.429 205.012 191.067 205.915 191.59 206.885C192.087 207.777 192.451 208.738 192.67 209.735L189.67 210.995C189.235 209.341 188.462 207.795 187.4 206.455L183.16 210.705C183.827 211.748 184.405 212.846 184.89 213.985C185.276 214.911 185.423 215.918 185.32 216.915C185.176 218.025 184.64 219.046 183.81 219.795C183.272 220.335 182.626 220.756 181.914 221.03C181.203 221.304 180.441 221.425 179.68 221.385ZM181.02 206.195C181.16 207.006 181.452 207.783 181.88 208.485L185.62 204.755C184.975 204.222 184.183 203.898 183.35 203.825C183.016 203.81 182.682 203.866 182.372 203.99C182.061 204.114 181.781 204.304 181.55 204.545C181.333 204.756 181.171 205.016 181.078 205.304C180.986 205.592 180.966 205.898 181.02 206.195ZM179.2 217.905C179.521 217.93 179.843 217.884 180.144 217.77C180.445 217.656 180.716 217.477 180.94 217.245C181.168 217.03 181.342 216.763 181.448 216.468C181.554 216.173 181.589 215.857 181.55 215.545C181.4 214.717 181.098 213.924 180.66 213.205L176.94 216.915C177.584 217.454 178.368 217.797 179.2 217.905Z" fill="#1C96A0"/>
<path d="M172.259 222.055L170.039 219.825L172.389 217.475C171.522 216.457 170.78 215.339 170.179 214.145C169.601 213.054 169.238 211.863 169.109 210.635V210.375L172.849 208.935L172.899 209.395C173.014 210.378 173.284 211.337 173.699 212.235C174.087 213.114 174.584 213.94 175.179 214.695L178.899 210.975C178.293 209.988 177.765 208.955 177.319 207.885C176.921 206.903 176.77 205.839 176.879 204.785C177.05 203.601 177.626 202.512 178.509 201.705C179.076 201.119 179.76 200.659 180.516 200.355C181.273 200.052 182.085 199.912 182.899 199.945C184.74 200.046 186.497 200.748 187.899 201.945L190.299 199.545L192.519 201.775L190.179 204.115C190.84 204.892 191.417 205.736 191.899 206.635C192.414 207.555 192.792 208.545 193.019 209.575L193.079 209.855L189.449 211.395L189.349 210.995C188.943 209.519 188.265 208.132 187.349 206.905L183.589 210.665C184.21 211.652 184.749 212.689 185.199 213.765C185.606 214.745 185.764 215.809 185.659 216.865C185.499 218.053 184.926 219.147 184.039 219.955C183.47 220.536 182.785 220.991 182.029 221.291C181.273 221.591 180.462 221.728 179.649 221.695C177.806 221.558 176.054 220.836 174.649 219.635L172.259 222.055ZM171.049 219.825L172.259 221.045L174.589 218.715L174.839 218.915C176.177 220.131 177.878 220.872 179.679 221.025C180.392 221.066 181.106 220.955 181.773 220.7C182.44 220.445 183.046 220.051 183.549 219.545C184.314 218.849 184.813 217.908 184.959 216.885C185.05 215.945 184.909 214.998 184.549 214.125C184.074 213 183.505 211.916 182.849 210.885L182.699 210.645L187.419 205.925L187.669 206.235C188.675 207.504 189.428 208.953 189.889 210.505L192.229 209.505C191.999 208.644 191.663 207.814 191.229 207.035C190.714 206.088 190.09 205.206 189.369 204.405L189.149 204.155L191.469 201.845L190.249 200.625L187.899 202.975L187.649 202.765C186.328 201.553 184.637 200.821 182.849 200.685C182.13 200.653 181.412 200.775 180.743 201.043C180.074 201.31 179.469 201.716 178.969 202.235C178.206 202.933 177.705 203.872 177.549 204.895C177.461 205.833 177.595 206.778 177.939 207.655C178.406 208.773 178.964 209.85 179.609 210.875L179.759 211.115L175.089 215.785L174.839 215.485C174.094 214.6 173.477 213.613 173.009 212.555C172.632 211.726 172.363 210.852 172.209 209.955L169.819 210.875C169.973 211.926 170.312 212.942 170.819 213.875C171.445 215.115 172.224 216.27 173.139 217.315L173.359 217.565L171.049 219.825ZM179.339 218.265H179.179C178.264 218.154 177.4 217.782 176.689 217.195L176.359 216.945L180.699 212.605L180.929 213.015C181.389 213.775 181.707 214.612 181.869 215.485C181.922 215.848 181.888 216.219 181.77 216.567C181.652 216.914 181.453 217.229 181.189 217.485C180.951 217.734 180.663 217.932 180.345 218.066C180.027 218.2 179.685 218.268 179.339 218.265ZM177.459 216.855C177.971 217.242 178.58 217.481 179.219 217.545C179.488 217.567 179.759 217.529 180.011 217.434C180.264 217.339 180.492 217.189 180.679 216.995C180.87 216.818 181.013 216.597 181.097 216.35C181.181 216.104 181.202 215.841 181.159 215.585C181.052 214.954 180.839 214.345 180.529 213.785L177.459 216.855ZM181.799 209.075L181.569 208.665C181.123 207.92 180.818 207.1 180.669 206.245C180.607 205.883 180.635 205.511 180.75 205.163C180.865 204.814 181.064 204.499 181.329 204.245C181.588 203.978 181.9 203.768 182.244 203.629C182.588 203.489 182.958 203.423 183.329 203.435C184.236 203.506 185.099 203.855 185.799 204.435L186.129 204.675L181.799 209.075ZM183.289 204.185C183.019 204.183 182.751 204.237 182.502 204.341C182.253 204.446 182.027 204.601 181.839 204.795C181.656 204.966 181.518 205.18 181.436 205.417C181.354 205.654 181.331 205.907 181.369 206.155C181.477 206.763 181.68 207.35 181.969 207.895L185.059 204.805C184.553 204.446 183.958 204.231 183.339 204.185H183.289Z" fill="#070707"/>
<path d="M386.09 215.965C394.546 215.965 401.4 209.111 401.4 200.655C401.4 192.2 394.546 185.345 386.09 185.345C377.635 185.345 370.78 192.2 370.78 200.655C370.78 209.111 377.635 215.965 386.09 215.965Z" fill="#FFE4B6"/>
</g>
<defs>
<clipPath id="clip0_815_2645">
<rect width="725.32" height="241.23" fill="white" transform="translate(0.549805 0.544922)"/>
</clipPath>
</defs>
</svg>
