
<svg width="42" height="42" viewBox="0 0 42 42" fill="none" xmlns="http://www.w3.org/2000/svg">
<path d="M6.91858 41.3916C3.09756 41.3916 -1.35398e-07 38.2941 -3.0242e-07 34.473L-1.4742e-06 7.66577C-1.64123e-06 3.84475 3.09755 0.747208 6.91857 0.747207L34.5928 0.747206C38.4138 0.747206 41.5114 3.84475 41.5114 7.66577L41.5114 34.473C41.5114 38.2941 38.4139 41.3916 34.5928 41.3916L6.91858 41.3916Z" fill="url(#paint0_linear_1009_8582)"/>
<path d="M19.3189 31.0137C19.3189 31.8072 19.9622 32.4505 20.7557 32.4505C21.5493 32.4505 22.1926 31.8072 22.1926 31.0137L19.3189 31.0137ZM21.7717 10.109C21.2106 9.54784 20.3009 9.54785 19.7397 10.109L10.5956 19.2531C10.0345 19.8142 10.0345 20.724 10.5956 21.2851C11.1568 21.8462 12.0665 21.8462 12.6277 21.2851L20.7557 13.157L28.8838 21.2851C29.4449 21.8462 30.3547 21.8462 30.9158 21.2851C31.477 20.724 31.477 19.8142 30.9158 19.2531L21.7717 10.109ZM22.1926 31.0137L22.1926 11.125L19.3189 11.125L19.3189 31.0137L22.1926 31.0137Z" fill="black"/>
<defs>
<linearGradient id="paint0_linear_1009_8582" x1="-8.88312e-07" y1="21.0694" x2="41.5114" y2="21.0694" gradientUnits="userSpaceOnUse">
<stop stopColor="white"/>
<stop offset="1" stopColor="white" stopOpacity="0.58"/>
</linearGradient>
</defs>
</svg>
