
<svg width="42" height="43" viewBox="0 0 42 43" fill="none" xmlns="http://www.w3.org/2000/svg">
<path d="M41.2104 35.473C41.2104 39.294 38.1129 42.3916 34.2919 42.3916L7.48462 42.3916C3.6636 42.3916 0.566056 39.2941 0.566056 35.473L0.566058 7.79877C0.566059 3.97775 3.66361 0.880192 7.48463 0.880193L34.2919 0.880195C38.1129 0.880195 41.2105 3.97774 41.2105 7.79876L41.2104 35.473Z" fill="url(#paint0_linear_1009_8580)"/>
<path d="M30.8328 23.0726C31.6263 23.0726 32.2696 22.4293 32.2696 21.6357C32.2696 20.8422 31.6263 20.1989 30.8328 20.1989L30.8328 23.0726ZM9.92806 20.6197C9.36694 21.1809 9.36694 22.0906 9.92806 22.6518L19.0722 31.7958C19.6333 32.357 20.5431 32.357 21.1042 31.7958C21.6653 31.2347 21.6653 30.325 21.1042 29.7638L12.9761 21.6357L21.1042 13.5077C21.6653 12.9465 21.6653 12.0368 21.1042 11.4756C20.5431 10.9145 19.6333 10.9145 19.0722 11.4756L9.92806 20.6197ZM30.8328 20.1989L10.9441 20.1989L10.9441 23.0726L30.8328 23.0726L30.8328 20.1989Z" fill="black"/>
<defs>
<linearGradient id="paint0_linear_1009_8580" x1="20.8883" y1="42.3916" x2="20.8883" y2="0.880194" gradientUnits="userSpaceOnUse">
<stop stopColor="white"/>
<stop offset="1" stopColor="white" stopOpacity="0.58"/>
</linearGradient>
</defs>
</svg>
