<svg width="234" height="262" viewBox="0 0 234 262" fill="none" xmlns="http://www.w3.org/2000/svg">
<g filter="url(#filter0_iii_1568_12156)">
<path fill-rule="evenodd" clip-rule="evenodd" d="M42.7032 143.316L42.7031 143.173V143.173C42.7031 103.725 64.6687 68.9087 94.9125 57.1638C94.9461 57.1508 94.9797 57.1379 95.0134 57.1251C101.578 54.606 107.306 54.6246 114.977 54.6495C115.463 54.6511 115.957 54.6527 116.459 54.6537L116.46 54.6534C124.828 51.3661 134.809 54.9523 142.788 58.5684C160.607 66.6374 175.24 82.8314 183.708 103.116C188.789 115.286 191.651 128.929 191.651 143.173V143.173C191.651 149.248 191.322 155.201 190.642 160.968C188.816 176.466 184.456 190.623 177.133 202.185C169.122 214.833 157.564 224.376 141.898 229.173C139.662 236.156 130.568 241.384 119.691 241.384C109.593 241.384 101.032 236.879 98.0683 230.646C58.7024 221.947 42.7389 185.572 42.7032 143.316Z" fill="url(#paint0_radial_1568_12156)"/>
</g>
<ellipse cx="62.0304" cy="104.676" rx="4.47588" ry="3.04152" transform="rotate(-39.6655 62.0304 104.676)" fill="#B77D00" fill-opacity="0.37"/>
<ellipse cx="75.2101" cy="92.5742" rx="4.47588" ry="3.04152" transform="rotate(-39.6655 75.2101 92.5742)" fill="#B77D00" fill-opacity="0.37"/>
<ellipse cx="86.9406" cy="79.6093" rx="4.47588" ry="3.04152" transform="rotate(-39.6655 86.9406 79.6093)" fill="#B77D00" fill-opacity="0.37"/>
<ellipse cx="72.8039" cy="77.7558" rx="4.47588" ry="3.04152" transform="rotate(-39.6655 72.8039 77.7558)" fill="#B77D00" fill-opacity="0.37"/>
<g filter="url(#filter1_di_1568_12156)">
<path fill-rule="evenodd" clip-rule="evenodd" d="M150.484 153.093C155.146 149.802 158.191 144.373 158.191 138.232C158.191 128.194 150.053 120.056 140.014 120.056C129.976 120.056 121.838 128.194 121.838 138.232C121.838 144.244 124.756 149.574 129.254 152.883C132.001 150.306 135.695 148.728 139.759 148.728C143.931 148.728 147.716 150.392 150.484 153.093Z" fill="#FAFAFA"/>
</g>
<g filter="url(#filter2_i_1568_12156)">
<rect x="130.347" y="128.563" width="19.3271" height="19.3271" rx="9.66355" fill="#2C2F36"/>
</g>
<g filter="url(#filter3_di_1568_12156)">
<path fill-rule="evenodd" clip-rule="evenodd" d="M103.892 153.093C108.554 149.802 111.599 144.373 111.599 138.232C111.599 128.194 103.461 120.056 93.4226 120.056C83.384 120.056 75.2461 128.194 75.2461 138.232C75.2461 144.244 78.1644 149.573 82.6615 152.882C85.4086 150.306 89.1034 148.728 93.1666 148.728C97.3394 148.728 101.123 150.392 103.892 153.093Z" fill="#FAFAFA"/>
</g>
<g filter="url(#filter4_i_1568_12156)">
<rect x="83.7539" y="128.563" width="19.3271" height="19.3271" rx="9.66355" fill="#2C2F36"/>
</g>
<g filter="url(#filter5_diiii_1568_12156)">
<mask id="path-10-inside-1_1568_12156" fill="white">
<path d="M145.629 152.569C148.043 152.569 150.033 154.537 149.672 156.924C149.283 159.494 148.55 162.014 147.486 164.423C145.827 168.181 143.394 171.596 140.327 174.473C137.261 177.349 133.62 179.631 129.613 181.188C125.606 182.744 121.312 183.546 116.975 183.546C112.638 183.546 108.344 182.744 104.337 181.188C100.33 179.631 96.6896 177.349 93.623 174.473C90.5563 171.596 88.1237 168.181 86.4641 164.423C85.4002 162.014 84.6673 159.494 84.2782 156.924C83.9168 154.537 85.9074 152.569 88.3216 152.569V152.569C90.7359 152.569 92.6488 154.546 93.1382 156.91C93.4477 158.405 93.917 159.871 94.5414 161.285C95.7617 164.048 97.5503 166.559 99.8051 168.674C102.06 170.789 104.737 172.467 107.683 173.611C110.629 174.756 113.786 175.345 116.975 175.345C120.164 175.345 123.321 174.756 126.267 173.611C129.214 172.467 131.89 170.789 134.145 168.674C136.4 166.559 138.189 164.048 139.409 161.285C140.033 159.871 140.503 158.405 140.812 156.91C141.301 154.546 143.214 152.569 145.629 152.569V152.569Z"/>
</mask>
<path d="M145.629 152.569C148.043 152.569 150.033 154.537 149.672 156.924C149.283 159.494 148.55 162.014 147.486 164.423C145.827 168.181 143.394 171.596 140.327 174.473C137.261 177.349 133.62 179.631 129.613 181.188C125.606 182.744 121.312 183.546 116.975 183.546C112.638 183.546 108.344 182.744 104.337 181.188C100.33 179.631 96.6896 177.349 93.623 174.473C90.5563 171.596 88.1237 168.181 86.4641 164.423C85.4002 162.014 84.6673 159.494 84.2782 156.924C83.9168 154.537 85.9074 152.569 88.3216 152.569V152.569C90.7359 152.569 92.6488 154.546 93.1382 156.91C93.4477 158.405 93.917 159.871 94.5414 161.285C95.7617 164.048 97.5503 166.559 99.8051 168.674C102.06 170.789 104.737 172.467 107.683 173.611C110.629 174.756 113.786 175.345 116.975 175.345C120.164 175.345 123.321 174.756 126.267 173.611C129.214 172.467 131.89 170.789 134.145 168.674C136.4 166.559 138.189 164.048 139.409 161.285C140.033 159.871 140.503 158.405 140.812 156.91C141.301 154.546 143.214 152.569 145.629 152.569V152.569Z" fill="url(#paint1_linear_1568_12156)"/>
<path d="M145.629 152.569C148.043 152.569 150.033 154.537 149.672 156.924C149.283 159.494 148.55 162.014 147.486 164.423C145.827 168.181 143.394 171.596 140.327 174.473C137.261 177.349 133.62 179.631 129.613 181.188C125.606 182.744 121.312 183.546 116.975 183.546C112.638 183.546 108.344 182.744 104.337 181.188C100.33 179.631 96.6896 177.349 93.623 174.473C90.5563 171.596 88.1237 168.181 86.4641 164.423C85.4002 162.014 84.6673 159.494 84.2782 156.924C83.9168 154.537 85.9074 152.569 88.3216 152.569V152.569C90.7359 152.569 92.6488 154.546 93.1382 156.91C93.4477 158.405 93.917 159.871 94.5414 161.285C95.7617 164.048 97.5503 166.559 99.8051 168.674C102.06 170.789 104.737 172.467 107.683 173.611C110.629 174.756 113.786 175.345 116.975 175.345C120.164 175.345 123.321 174.756 126.267 173.611C129.214 172.467 131.89 170.789 134.145 168.674C136.4 166.559 138.189 164.048 139.409 161.285C140.033 159.871 140.503 158.405 140.812 156.91C141.301 154.546 143.214 152.569 145.629 152.569V152.569Z" stroke="url(#paint2_linear_1568_12156)" stroke-width="11.2643" stroke-linejoin="round" mask="url(#path-10-inside-1_1568_12156)"/>
</g>
<g filter="url(#filter6_i_1568_12156)">
<path d="M109.9 49.1146C119.494 42.369 115.561 27.0703 106.575 19.1525C97.5964 11.2087 84.4959 7.10427 83.255 7.98251C82.0142 8.86075 78.7384 26.2238 86.4472 38.3606C94.156 50.4974 104.038 53.2427 109.9 49.1146Z" fill="#3D830B"/>
</g>
<path d="M109.542 48.8423L110.884 47.8247C115.166 53.5211 117.609 55.6923 117.635 55.7006L116.528 56.9657C116.424 56.8892 113.946 54.6925 109.542 48.8423Z" fill="#3D830B"/>
<g filter="url(#filter7_i_1568_12156)">
<path d="M120.292 52.3808C115.122 48.7454 117.241 40.5007 122.084 36.2337C126.923 31.9527 133.983 29.7407 134.652 30.214C135.321 30.6873 137.086 40.0445 132.931 46.5853C128.777 53.126 123.452 54.6055 120.292 52.3808Z" fill="#3D830B"/>
</g>
<path d="M120.485 52.2339L119.762 51.6855C117.454 54.7553 116.138 55.9255 116.124 55.93L116.72 56.6117C116.776 56.5705 118.112 55.3867 120.485 52.2339Z" fill="#3D830B"/>
<path d="M98.6229 18.563C98.5257 18.3743 98.5314 18.1326 98.6499 17.9413C98.8448 17.6454 99.2321 17.5544 99.5191 17.7322C101.372 18.8835 104.063 20.905 106.432 24.0266C109.283 27.7897 110.916 32.1804 111.295 37.0871C111.325 37.4406 111.061 37.7286 110.707 37.7588C110.354 37.789 110.066 37.525 110.036 37.1714C109.252 26.7198 102.703 21.1718 98.8761 18.8016C98.7545 18.7341 98.6671 18.6488 98.6229 18.563Z" fill="url(#paint3_linear_1568_12156)"/>
<g filter="url(#filter8_f_1568_12156)">
<ellipse cx="117.456" cy="56.602" rx="5.65996" ry="1.5024" fill="#744500" fill-opacity="0.6"/>
</g>
<g filter="url(#filter9_f_1568_12156)">
<ellipse cx="118.637" cy="56.8872" rx="5.65996" ry="1.5024" fill="#744500" fill-opacity="0.6"/>
</g>
<path d="M191.488 164.219C190.651 164.219 189.874 163.681 189.605 162.814C189.306 161.768 189.874 160.693 190.92 160.364C207.655 155.313 218.683 137.173 223.734 106.391C223.913 105.315 224.929 104.598 226.005 104.777C227.081 104.957 227.798 105.973 227.619 107.049C224.839 124.083 220.207 137.561 213.872 147.125C208.104 155.791 200.782 161.529 192.085 164.159C191.876 164.189 191.697 164.219 191.488 164.219Z" fill="#1D1D1D"/>
<path d="M224.693 117.239C224.364 117.239 224.035 117.209 223.736 117.15C220.598 116.612 217.251 113.264 218.148 105.554C218.267 104.478 219.254 103.701 220.329 103.821C221.405 103.94 222.182 104.926 222.063 106.002C221.525 110.635 222.9 112.995 224.394 113.264C226.097 113.563 228.428 111.352 229.355 107.198C229.594 106.152 230.64 105.464 231.686 105.703C232.732 105.943 233.419 106.989 233.18 108.035C231.746 114.52 227.95 117.239 224.693 117.239Z" fill="#1D1D1D"/>
<path d="M42.5418 164.219C42.3625 164.219 42.1533 164.189 41.974 164.129C33.2774 161.499 25.9257 155.761 20.1877 147.094C13.8521 137.531 9.21987 124.053 6.44055 107.018C6.26124 105.943 6.97847 104.926 8.05433 104.747C9.1302 104.568 10.1463 105.285 10.3256 106.361C15.3762 137.143 26.4038 155.283 43.1395 160.334C44.1855 160.632 44.7533 161.738 44.4545 162.784C44.1556 163.651 43.3786 164.219 42.5418 164.219Z" fill="#1D1D1D"/>
<path d="M9.33874 117.239C6.08126 117.239 2.25596 114.519 0.821476 108.064C0.582395 107.018 1.23987 105.942 2.31573 105.733C3.36171 105.494 4.43757 106.151 4.64677 107.227C5.57321 111.411 7.90424 113.593 9.6077 113.294C11.102 113.025 12.4767 110.664 11.9387 106.032C11.8192 104.956 12.5962 103.97 13.6721 103.85C14.748 103.73 15.7342 104.508 15.8537 105.583C16.7503 113.294 13.4031 116.641 10.2652 117.179C9.99621 117.209 9.66748 117.239 9.33874 117.239Z" fill="#1D1D1D"/>
<g filter="url(#filter10_f_1568_12156)">
<path d="M95.4937 229.392C98.7035 237.89 112.062 241.148 118.34 241.715C134.57 241.715 141.959 232.372 143.625 227.7C174.524 219.31 185.539 184.32 188.74 170.246C163.481 202.633 95.7899 212.97 63.5459 211.717C64.3704 217.784 85.188 226.028 95.4937 229.392Z" fill="#EBAD1E"/>
</g>
<defs>
<filter id="filter0_iii_1568_12156" x="38.0607" y="45.7618" width="162.452" height="202.375" filterUnits="userSpaceOnUse" color-interpolation-filters="sRGB">
<feFlood flood-opacity="0" result="BackgroundImageFix"/>
<feBlend mode="normal" in="SourceGraphic" in2="BackgroundImageFix" result="shape"/>
<feColorMatrix in="SourceAlpha" type="matrix" values="0 0 0 0 0 0 0 0 0 0 0 0 0 0 0 0 0 0 127 0" result="hardAlpha"/>
<feMorphology radius="3.37628" operator="erode" in="SourceAlpha" result="effect1_innerShadow_1568_12156"/>
<feOffset dx="8.86273" dy="5.48645"/>
<feGaussianBlur stdDeviation="10.1288"/>
<feComposite in2="hardAlpha" operator="arithmetic" k2="-1" k3="1"/>
<feColorMatrix type="matrix" values="0 0 0 0 0.682806 0 0 0 0 0.0652778 0 0 0 0 0.783333 0 0 0 0.14 0"/>
<feBlend mode="normal" in2="shape" result="effect1_innerShadow_1568_12156"/>
<feColorMatrix in="SourceAlpha" type="matrix" values="0 0 0 0 0 0 0 0 0 0 0 0 0 0 0 0 0 0 127 0" result="hardAlpha"/>
<feOffset dy="-7.59662"/>
<feGaussianBlur stdDeviation="6.54154"/>
<feComposite in2="hardAlpha" operator="arithmetic" k2="-1" k3="1"/>
<feColorMatrix type="matrix" values="0 0 0 0 0.943639 0 0 0 0 0.223611 0 0 0 0 0.958333 0 0 0 0.44 0"/>
<feBlend mode="normal" in2="effect1_innerShadow_1568_12156" result="effect2_innerShadow_1568_12156"/>
<feColorMatrix in="SourceAlpha" type="matrix" values="0 0 0 0 0 0 0 0 0 0 0 0 0 0 0 0 0 0 127 0" result="hardAlpha"/>
<feOffset dx="-4.64238" dy="6.75255"/>
<feGaussianBlur stdDeviation="6.54154"/>
<feComposite in2="hardAlpha" operator="arithmetic" k2="-1" k3="1"/>
<feColorMatrix type="matrix" values="0 0 0 0 1 0 0 0 0 1 0 0 0 0 1 0 0 0 0.59 0"/>
<feBlend mode="normal" in2="effect2_innerShadow_1568_12156" result="effect3_innerShadow_1568_12156"/>
</filter>
<filter id="filter1_di_1568_12156" x="113.646" y="113.911" width="52.738" height="49.4216" filterUnits="userSpaceOnUse" color-interpolation-filters="sRGB">
<feFlood flood-opacity="0" result="BackgroundImageFix"/>
<feColorMatrix in="SourceAlpha" type="matrix" values="0 0 0 0 0 0 0 0 0 0 0 0 0 0 0 0 0 0 127 0" result="hardAlpha"/>
<feOffset dy="2.04806"/>
<feGaussianBlur stdDeviation="4.09612"/>
<feColorMatrix type="matrix" values="0 0 0 0 0 0 0 0 0 0 0 0 0 0 0 0 0 0 0.25 0"/>
<feBlend mode="normal" in2="BackgroundImageFix" result="effect1_dropShadow_1568_12156"/>
<feBlend mode="normal" in="SourceGraphic" in2="effect1_dropShadow_1568_12156" result="shape"/>
<feColorMatrix in="SourceAlpha" type="matrix" values="0 0 0 0 0 0 0 0 0 0 0 0 0 0 0 0 0 0 127 0" result="hardAlpha"/>
<feOffset dy="-1.81765"/>
<feGaussianBlur stdDeviation="4.54413"/>
<feComposite in2="hardAlpha" operator="arithmetic" k2="-1" k3="1"/>
<feColorMatrix type="matrix" values="0 0 0 0 0 0 0 0 0 0 0 0 0 0 0 0 0 0 0.25 0"/>
<feBlend mode="normal" in2="shape" result="effect2_innerShadow_1568_12156"/>
</filter>
<filter id="filter2_i_1568_12156" x="130.347" y="128.563" width="19.3271" height="19.3271" filterUnits="userSpaceOnUse" color-interpolation-filters="sRGB">
<feFlood flood-opacity="0" result="BackgroundImageFix"/>
<feBlend mode="normal" in="SourceGraphic" in2="BackgroundImageFix" result="shape"/>
<feColorMatrix in="SourceAlpha" type="matrix" values="0 0 0 0 0 0 0 0 0 0 0 0 0 0 0 0 0 0 127 0" result="hardAlpha"/>
<feMorphology radius="15.9751" operator="dilate" in="SourceAlpha" result="effect1_innerShadow_1568_12156"/>
<feOffset dx="5.55654" dy="-16.6696"/>
<feGaussianBlur stdDeviation="6.25111"/>
<feComposite in2="hardAlpha" operator="arithmetic" k2="-1" k3="1"/>
<feColorMatrix type="matrix" values="0 0 0 0 0.462111 0 0 0 0 0.203767 0 0 0 0 0.504167 0 0 0 0.35 0"/>
<feBlend mode="normal" in2="shape" result="effect1_innerShadow_1568_12156"/>
</filter>
<filter id="filter3_di_1568_12156" x="67.0539" y="113.911" width="52.738" height="49.4216" filterUnits="userSpaceOnUse" color-interpolation-filters="sRGB">
<feFlood flood-opacity="0" result="BackgroundImageFix"/>
<feColorMatrix in="SourceAlpha" type="matrix" values="0 0 0 0 0 0 0 0 0 0 0 0 0 0 0 0 0 0 127 0" result="hardAlpha"/>
<feOffset dy="2.04806"/>
<feGaussianBlur stdDeviation="4.09612"/>
<feColorMatrix type="matrix" values="0 0 0 0 0 0 0 0 0 0 0 0 0 0 0 0 0 0 0.25 0"/>
<feBlend mode="normal" in2="BackgroundImageFix" result="effect1_dropShadow_1568_12156"/>
<feBlend mode="normal" in="SourceGraphic" in2="effect1_dropShadow_1568_12156" result="shape"/>
<feColorMatrix in="SourceAlpha" type="matrix" values="0 0 0 0 0 0 0 0 0 0 0 0 0 0 0 0 0 0 127 0" result="hardAlpha"/>
<feOffset dy="-1.81765"/>
<feGaussianBlur stdDeviation="4.54413"/>
<feComposite in2="hardAlpha" operator="arithmetic" k2="-1" k3="1"/>
<feColorMatrix type="matrix" values="0 0 0 0 0 0 0 0 0 0 0 0 0 0 0 0 0 0 0.25 0"/>
<feBlend mode="normal" in2="shape" result="effect2_innerShadow_1568_12156"/>
</filter>
<filter id="filter4_i_1568_12156" x="83.7539" y="128.563" width="19.3271" height="19.3271" filterUnits="userSpaceOnUse" color-interpolation-filters="sRGB">
<feFlood flood-opacity="0" result="BackgroundImageFix"/>
<feBlend mode="normal" in="SourceGraphic" in2="BackgroundImageFix" result="shape"/>
<feColorMatrix in="SourceAlpha" type="matrix" values="0 0 0 0 0 0 0 0 0 0 0 0 0 0 0 0 0 0 127 0" result="hardAlpha"/>
<feMorphology radius="15.9751" operator="dilate" in="SourceAlpha" result="effect1_innerShadow_1568_12156"/>
<feOffset dx="5.55654" dy="-16.6696"/>
<feGaussianBlur stdDeviation="6.25111"/>
<feComposite in2="hardAlpha" operator="arithmetic" k2="-1" k3="1"/>
<feColorMatrix type="matrix" values="0 0 0 0 0.462111 0 0 0 0 0.203767 0 0 0 0 0.504167 0 0 0 0.35 0"/>
<feBlend mode="normal" in2="shape" result="effect1_innerShadow_1568_12156"/>
</filter>
<filter id="filter5_diiii_1568_12156" x="67.1682" y="144.035" width="99.6138" height="65.1119" filterUnits="userSpaceOnUse" color-interpolation-filters="sRGB">
<feFlood flood-opacity="0" result="BackgroundImageFix"/>
<feColorMatrix in="SourceAlpha" type="matrix" values="0 0 0 0 0 0 0 0 0 0 0 0 0 0 0 0 0 0 127 0" result="hardAlpha"/>
<feOffset dy="8.53358"/>
<feGaussianBlur stdDeviation="8.53358"/>
<feColorMatrix type="matrix" values="0 0 0 0 0.0298758 0 0 0 0 0.0216858 0 0 0 0 0.0308333 0 0 0 0.24 0"/>
<feBlend mode="normal" in2="BackgroundImageFix" result="effect1_dropShadow_1568_12156"/>
<feBlend mode="normal" in="SourceGraphic" in2="effect1_dropShadow_1568_12156" result="shape"/>
<feColorMatrix in="SourceAlpha" type="matrix" values="0 0 0 0 0 0 0 0 0 0 0 0 0 0 0 0 0 0 127 0" result="hardAlpha"/>
<feOffset dy="2.65489"/>
<feGaussianBlur stdDeviation="1.32745"/>
<feComposite in2="hardAlpha" operator="arithmetic" k2="-1" k3="1"/>
<feColorMatrix type="matrix" values="0 0 0 0 0.17328 0 0 0 0 0.125777 0 0 0 0 0.178833 0 0 0 1 0"/>
<feBlend mode="normal" in2="shape" result="effect2_innerShadow_1568_12156"/>
<feColorMatrix in="SourceAlpha" type="matrix" values="0 0 0 0 0 0 0 0 0 0 0 0 0 0 0 0 0 0 127 0" result="hardAlpha"/>
<feOffset dy="-1.32745"/>
<feGaussianBlur stdDeviation="0.663723"/>
<feComposite in2="hardAlpha" operator="arithmetic" k2="-1" k3="1"/>
<feColorMatrix type="matrix" values="0 0 0 0 0.119503 0 0 0 0 0.086743 0 0 0 0 0.123333 0 0 0 1 0"/>
<feBlend mode="normal" in2="effect2_innerShadow_1568_12156" result="effect3_innerShadow_1568_12156"/>
<feColorMatrix in="SourceAlpha" type="matrix" values="0 0 0 0 0 0 0 0 0 0 0 0 0 0 0 0 0 0 127 0" result="hardAlpha"/>
<feMorphology radius="13.5428" operator="dilate" in="SourceAlpha" result="effect4_innerShadow_1568_12156"/>
<feOffset dx="4.71054" dy="-4.60813"/>
<feGaussianBlur stdDeviation="5.29935"/>
<feComposite in2="hardAlpha" operator="arithmetic" k2="-1" k3="1"/>
<feColorMatrix type="matrix" values="0 0 0 0 0.462111 0 0 0 0 0.203767 0 0 0 0 0.504167 0 0 0 0.35 0"/>
<feBlend mode="normal" in2="effect3_innerShadow_1568_12156" result="effect4_innerShadow_1568_12156"/>
<feColorMatrix in="SourceAlpha" type="matrix" values="0 0 0 0 0 0 0 0 0 0 0 0 0 0 0 0 0 0 127 0" result="hardAlpha"/>
<feMorphology radius="13.5428" operator="dilate" in="SourceAlpha" result="effect5_innerShadow_1568_12156"/>
<feOffset dx="4.71054" dy="-4.60813"/>
<feGaussianBlur stdDeviation="5.29935"/>
<feComposite in2="hardAlpha" operator="arithmetic" k2="-1" k3="1"/>
<feColorMatrix type="matrix" values="0 0 0 0 0.462111 0 0 0 0 0.203767 0 0 0 0 0.504167 0 0 0 0.35 0"/>
<feBlend mode="normal" in2="effect4_innerShadow_1568_12156" result="effect5_innerShadow_1568_12156"/>
</filter>
<filter id="filter6_i_1568_12156" x="81.4951" y="7.86523" width="37.4425" height="44.7828" filterUnits="userSpaceOnUse" color-interpolation-filters="sRGB">
<feFlood flood-opacity="0" result="BackgroundImageFix"/>
<feBlend mode="normal" in="SourceGraphic" in2="BackgroundImageFix" result="shape"/>
<feColorMatrix in="SourceAlpha" type="matrix" values="0 0 0 0 0 0 0 0 0 0 0 0 0 0 0 0 0 0 127 0" result="hardAlpha"/>
<feOffset dx="3.4738" dy="1.7369"/>
<feGaussianBlur stdDeviation="4.82472"/>
<feComposite in2="hardAlpha" operator="arithmetic" k2="-1" k3="1"/>
<feColorMatrix type="matrix" values="0 0 0 0 0 0 0 0 0 0 0 0 0 0 0 0 0 0 0.25 0"/>
<feBlend mode="normal" in2="shape" result="effect1_innerShadow_1568_12156"/>
</filter>
<filter id="filter7_i_1568_12156" x="117.294" y="30.1514" width="20.1787" height="24.1333" filterUnits="userSpaceOnUse" color-interpolation-filters="sRGB">
<feFlood flood-opacity="0" result="BackgroundImageFix"/>
<feBlend mode="normal" in="SourceGraphic" in2="BackgroundImageFix" result="shape"/>
<feColorMatrix in="SourceAlpha" type="matrix" values="0 0 0 0 0 0 0 0 0 0 0 0 0 0 0 0 0 0 127 0" result="hardAlpha"/>
<feOffset dx="1.87209" dy="0.936044"/>
<feGaussianBlur stdDeviation="2.60012"/>
<feComposite in2="hardAlpha" operator="arithmetic" k2="-1" k3="1"/>
<feColorMatrix type="matrix" values="0 0 0 0 0 0 0 0 0 0 0 0 0 0 0 0 0 0 0.25 0"/>
<feBlend mode="normal" in2="shape" result="effect1_innerShadow_1568_12156"/>
</filter>
<filter id="filter8_f_1568_12156" x="109.796" y="53.0996" width="15.3203" height="7.00488" filterUnits="userSpaceOnUse" color-interpolation-filters="sRGB">
<feFlood flood-opacity="0" result="BackgroundImageFix"/>
<feBlend mode="normal" in="SourceGraphic" in2="BackgroundImageFix" result="shape"/>
<feGaussianBlur stdDeviation="1" result="effect1_foregroundBlur_1568_12156"/>
</filter>
<filter id="filter9_f_1568_12156" x="110.977" y="53.3848" width="15.3203" height="7.00488" filterUnits="userSpaceOnUse" color-interpolation-filters="sRGB">
<feFlood flood-opacity="0" result="BackgroundImageFix"/>
<feBlend mode="normal" in="SourceGraphic" in2="BackgroundImageFix" result="shape"/>
<feGaussianBlur stdDeviation="1" result="effect1_foregroundBlur_1568_12156"/>
</filter>
<filter id="filter10_f_1568_12156" x="43.5459" y="150.246" width="165.193" height="111.469" filterUnits="userSpaceOnUse" color-interpolation-filters="sRGB">
<feFlood flood-opacity="0" result="BackgroundImageFix"/>
<feBlend mode="normal" in="SourceGraphic" in2="BackgroundImageFix" result="shape"/>
<feGaussianBlur stdDeviation="10" result="effect1_foregroundBlur_1568_12156"/>
</filter>
<radialGradient id="paint0_radial_1568_12156" cx="0" cy="0" r="1" gradientUnits="userSpaceOnUse" gradientTransform="translate(117.103 214.08) rotate(84.5862) scale(27.4259 42.4772)">
<stop stop-color="#FFBB0C"/>
<stop offset="1" stop-color="#FFC907"/>
</radialGradient>
<linearGradient id="paint1_linear_1568_12156" x1="116.975" y1="121.592" x2="116.975" y2="183.546" gradientUnits="userSpaceOnUse">
<stop stop-color="#201721"/>
<stop offset="1" stop-color="#2B1F2C"/>
</linearGradient>
<linearGradient id="paint2_linear_1568_12156" x1="116.975" y1="121.592" x2="116.975" y2="183.546" gradientUnits="userSpaceOnUse">
<stop stop-color="#201721"/>
<stop offset="1" stop-color="#2B1F2C"/>
</linearGradient>
<linearGradient id="paint3_linear_1568_12156" x1="99.7686" y1="18.1077" x2="111.33" y2="35.2351" gradientUnits="userSpaceOnUse">
<stop stop-color="white"/>
<stop offset="1" stop-color="white" stop-opacity="0"/>
</linearGradient>
</defs>
</svg>
