<svg width="234" height="262" viewBox="0 0 234 262" fill="none" xmlns="http://www.w3.org/2000/svg">
<g filter="url(#filter0_iii_1568_11852)">
<path fill-rule="evenodd" clip-rule="evenodd" d="M42.7032 143.316L42.7031 143.173V143.173C42.7031 103.725 64.6687 68.9087 94.9125 57.1638C94.9461 57.1508 94.9797 57.1379 95.0134 57.1251C101.578 54.606 107.306 54.6246 114.977 54.6495C115.463 54.6511 115.957 54.6527 116.459 54.6537L116.46 54.6534C124.828 51.3661 134.809 54.9523 142.788 58.5684C160.607 66.6374 175.24 82.8314 183.708 103.116C188.789 115.286 191.651 128.929 191.651 143.173V143.173C191.651 149.248 191.322 155.201 190.642 160.968C188.816 176.466 184.456 190.623 177.133 202.185C169.122 214.833 157.564 224.376 141.898 229.173C139.662 236.156 130.568 241.384 119.691 241.384C109.593 241.384 101.032 236.879 98.0683 230.646C58.7024 221.947 42.7389 185.572 42.7032 143.316Z" fill="url(#paint0_radial_1568_11852)"/>
</g>
<path d="M110.722 49.1274L112.065 48.1099C116.347 53.8062 118.79 55.9775 118.816 55.9858L117.709 57.2508C117.605 57.1744 115.127 54.9777 110.722 49.1274Z" fill="#318C1C"/>
<g filter="url(#filter1_i_1568_11852)">
<path d="M111.081 49.1146C120.674 42.369 116.742 27.0703 107.755 19.1525C98.7771 11.2087 85.6765 7.10427 84.4357 7.98251C83.1948 8.86075 79.9191 26.2238 87.6279 38.3606C95.3367 50.4974 105.218 53.2427 111.081 49.1146Z" fill="#3D830B"/>
</g>
<path d="M110.722 48.8423L112.065 47.8247C116.347 53.5211 118.79 55.6923 118.816 55.7006L117.709 56.9657C117.605 56.8892 115.127 54.6925 110.722 48.8423Z" fill="#3D830B"/>
<g filter="url(#filter2_i_1568_11852)">
<path d="M121.473 52.3808C116.303 48.7454 118.422 40.5007 123.265 36.2337C128.104 31.9527 135.164 29.7407 135.832 30.214C136.501 30.6873 138.267 40.0445 134.112 46.5853C129.958 53.126 124.632 54.6055 121.473 52.3808Z" fill="#3D830B"/>
</g>
<path d="M121.666 52.2339L120.942 51.6855C118.635 54.7553 117.318 55.9255 117.304 55.93L117.901 56.6117C117.957 56.5705 119.292 55.3867 121.666 52.2339Z" fill="#3D830B"/>
<path d="M99.8036 18.563C99.7063 18.3743 99.712 18.1326 99.8305 17.9413C100.025 17.6454 100.413 17.5544 100.7 17.7322C102.552 18.8835 105.244 20.905 107.612 24.0266C110.463 27.7897 112.096 32.1804 112.475 37.0871C112.506 37.4406 112.242 37.7286 111.888 37.7588C111.535 37.789 111.247 37.525 111.216 37.1714C110.433 26.7198 103.883 21.1718 100.057 18.8016C99.9351 18.7341 99.8478 18.6488 99.8036 18.563Z" fill="url(#paint1_linear_1568_11852)"/>
<g filter="url(#filter3_f_1568_11852)">
<ellipse cx="118.637" cy="56.602" rx="5.65996" ry="1.5024" fill="#744500" fill-opacity="0.6"/>
</g>
<path d="M185.059 207.057C182.22 207.057 179.082 206.818 175.556 206.28C174.48 206.131 173.733 205.115 173.912 204.039C174.062 202.963 175.078 202.216 176.154 202.395C191.634 204.756 201.855 201.289 204.933 192.653C206.876 187.213 205.919 179.922 202.303 172.6C198.687 165.218 192.83 158.763 186.255 154.878C185.328 154.34 185 153.115 185.568 152.188C186.105 151.262 187.331 150.933 188.257 151.501C195.46 155.744 201.885 162.797 205.83 170.866C209.894 179.115 210.91 187.542 208.609 193.968C206.786 199.197 201.287 207.057 185.059 207.057Z" fill="#1D1D1D"/>
<path d="M47.9751 207.056C31.7773 207.056 26.2784 199.196 24.4256 193.966C22.1543 187.541 23.1704 179.113 27.2049 170.865C31.1796 162.796 37.575 155.743 44.7774 151.499C45.7038 150.961 46.9291 151.26 47.467 152.187C48.0049 153.113 47.7061 154.338 46.7797 154.876C40.2049 158.731 34.3773 165.187 30.7313 172.598C27.1451 179.92 26.1888 187.212 28.1014 192.651C31.1796 201.288 41.4003 204.755 56.8808 202.394C57.9567 202.244 58.9429 202.961 59.1222 204.037C59.2716 205.113 58.5544 206.099 57.4785 206.279C53.9521 206.817 50.7843 207.056 47.9751 207.056Z" fill="#1D1D1D"/>
<path d="M65.2793 217.217C65.1896 217.217 65.0701 217.217 64.9805 217.188C57.2402 216.022 55.208 208.043 55.208 203.978C55.208 202.902 56.0747 202.006 57.1804 202.006C58.2563 202.006 59.1528 202.873 59.1528 203.978C59.1528 204.307 59.2724 212.346 65.608 213.302C66.6839 213.452 67.431 214.468 67.2517 215.544C67.0724 216.5 66.2356 217.217 65.2793 217.217Z" fill="#1D1D1D"/>
<path d="M167.756 217.219C166.8 217.219 165.963 216.531 165.814 215.545C165.664 214.469 166.381 213.483 167.457 213.304C173.793 212.347 173.912 204.338 173.912 203.98C173.912 202.904 174.809 202.037 175.885 202.037C176.961 202.037 177.857 202.904 177.857 204.01C177.857 208.074 175.825 216.023 168.085 217.219C167.935 217.189 167.846 217.219 167.756 217.219Z" fill="#1D1D1D"/>
<g filter="url(#filter4_f_1568_11852)">
<path d="M95.4937 229.177C98.7035 237.675 112.062 240.933 118.34 241.5C134.57 241.5 141.959 232.157 143.625 227.485C174.524 219.095 185.539 184.105 188.74 170.031C163.481 202.418 95.7899 212.755 63.5459 211.502C64.3704 217.569 85.188 225.814 95.4937 229.177Z" fill="#EBAD1E"/>
</g>
<ellipse rx="4.47588" ry="3.04152" transform="matrix(0.769784 0.638304 0.638304 -0.769784 143.589 71.251)" fill="#B77D00" fill-opacity="0.37"/>
<ellipse rx="4.47588" ry="3.04152" transform="matrix(0.769784 0.638304 0.638304 -0.769784 156.769 83.3526)" fill="#B77D00" fill-opacity="0.37"/>
<ellipse rx="4.47588" ry="3.04152" transform="matrix(0.769784 0.638304 0.638304 -0.769784 168.499 96.3174)" fill="#B77D00" fill-opacity="0.37"/>
<ellipse rx="4.47588" ry="3.04152" transform="matrix(0.769784 0.638304 0.638304 -0.769784 154.362 98.1709)" fill="#B77D00" fill-opacity="0.37"/>
<g filter="url(#filter5_i_1568_11852)">
<path d="M104.219 113.765C106.565 113.765 108.514 115.689 108.01 117.981C107.211 121.618 105.387 124.985 102.713 127.659C99.0277 131.344 94.0299 133.414 88.8187 133.414C83.6076 133.414 78.6098 131.344 74.9249 127.659C72.3883 125.122 70.6168 121.964 69.7592 118.541C69.1115 115.957 71.3298 113.765 73.9942 113.765V113.765C76.4921 113.765 78.4323 115.883 79.494 118.144C79.9961 119.213 80.683 120.198 81.5343 121.05C83.4663 122.982 86.0865 124.067 88.8187 124.067C91.5509 124.067 94.1712 122.982 96.1032 121.05C96.8163 120.337 97.414 119.53 97.8844 118.658C99.2217 116.18 101.403 113.765 104.219 113.765V113.765Z" fill="#C4C4C4"/>
<path d="M104.219 113.765C106.565 113.765 108.514 115.689 108.01 117.981C107.211 121.618 105.387 124.985 102.713 127.659C99.0277 131.344 94.0299 133.414 88.8187 133.414C83.6076 133.414 78.6098 131.344 74.9249 127.659C72.3883 125.122 70.6168 121.964 69.7592 118.541C69.1115 115.957 71.3298 113.765 73.9942 113.765V113.765C76.4921 113.765 78.4323 115.883 79.494 118.144C79.9961 119.213 80.683 120.198 81.5343 121.05C83.4663 122.982 86.0865 124.067 88.8187 124.067C91.5509 124.067 94.1712 122.982 96.1032 121.05C96.8163 120.337 97.414 119.53 97.8844 118.658C99.2217 116.18 101.403 113.765 104.219 113.765V113.765Z" fill="#221725"/>
</g>
<g filter="url(#filter6_i_1568_11852)">
<path d="M159.463 113.765C161.81 113.765 163.758 115.689 163.254 117.981C162.455 121.618 160.631 124.985 157.957 127.659C154.272 131.344 149.274 133.414 144.063 133.414C138.852 133.414 133.854 131.344 130.169 127.659C127.632 125.122 125.861 121.964 125.003 118.541C124.356 115.957 126.574 113.765 129.238 113.765V113.765C131.736 113.765 133.676 115.883 134.738 118.144C135.24 119.213 135.927 120.198 136.778 121.05C138.71 122.982 141.331 124.067 144.063 124.067C146.795 124.067 149.415 122.982 151.347 121.05C152.06 120.337 152.658 119.53 153.129 118.658C154.466 116.18 156.647 113.765 159.463 113.765V113.765Z" fill="#C4C4C4"/>
<path d="M159.463 113.765C161.81 113.765 163.758 115.689 163.254 117.981C162.455 121.618 160.631 124.985 157.957 127.659C154.272 131.344 149.274 133.414 144.063 133.414C138.852 133.414 133.854 131.344 130.169 127.659C127.632 125.122 125.861 121.964 125.003 118.541C124.356 115.957 126.574 113.765 129.238 113.765V113.765C131.736 113.765 133.676 115.883 134.738 118.144C135.24 119.213 135.927 120.198 136.778 121.05C138.71 122.982 141.331 124.067 144.063 124.067C146.795 124.067 149.415 122.982 151.347 121.05C152.06 120.337 152.658 119.53 153.129 118.658C154.466 116.18 156.647 113.765 159.463 113.765V113.765Z" fill="#221725"/>
</g>
<g filter="url(#filter7_diiii_1568_11852)">
<path d="M139.791 167.016C139.791 160.748 137.3 154.736 132.868 150.304C128.435 145.871 122.424 143.381 116.155 143.381C109.887 143.381 103.875 145.871 99.4422 150.304C95.0097 154.736 92.5195 160.748 92.5195 167.016L116.155 167.016H139.791Z" fill="url(#paint2_linear_1568_11852)"/>
<path d="M139.791 167.016C139.791 160.748 137.3 154.736 132.868 150.304C128.435 145.871 122.424 143.381 116.155 143.381C109.887 143.381 103.875 145.871 99.4422 150.304C95.0097 154.736 92.5195 160.748 92.5195 167.016L116.155 167.016H139.791Z" fill="url(#paint3_linear_1568_11852)"/>
</g>
<g filter="url(#filter8_di_1568_11852)">
<path d="M140.57 101.903C139.296 101.903 138.24 101.63 137.403 101.084C136.602 100.538 136.056 99.8102 135.765 98.9002C135.474 97.9537 135.474 96.9345 135.765 95.8424C136.056 94.714 136.657 93.5855 137.567 92.4571L156.405 68.8141V71.6534H139.806C138.386 71.6534 137.312 71.3076 136.584 70.616C135.856 69.888 135.492 68.8505 135.492 67.5036C135.492 66.1568 135.856 65.1375 136.584 64.4459C137.312 63.7543 138.386 63.4084 139.806 63.4084H161.101C162.375 63.4084 163.412 63.6815 164.213 64.2275C165.05 64.7735 165.615 65.5016 165.906 66.4116C166.197 67.3216 166.197 68.3409 165.906 69.4693C165.615 70.5978 165.014 71.7263 164.104 72.8547L145.266 96.4977V93.6583H162.739C164.122 93.6583 165.178 94.0041 165.906 94.6958C166.67 95.3874 167.052 96.4067 167.052 97.7535C167.052 99.1004 166.67 100.138 165.906 100.866C165.178 101.558 164.122 101.903 162.739 101.903H140.57Z" fill="url(#paint4_linear_1568_11852)"/>
</g>
<g filter="url(#filter9_di_1568_11852)">
<path d="M172.836 83.1328C171.803 83.1328 170.948 82.9116 170.269 82.4691C169.621 82.0266 169.178 81.4367 168.942 80.6992C168.706 79.9323 168.706 79.1063 168.942 78.2214C169.178 77.307 169.665 76.3925 170.402 75.4781L185.667 56.3191V58.62H172.216C171.066 58.62 170.196 58.3398 169.606 57.7793C169.016 57.1893 168.721 56.3486 168.721 55.2572C168.721 54.1658 169.016 53.3398 169.606 52.7794C170.196 52.2189 171.066 51.9387 172.216 51.9387H189.473C190.505 51.9387 191.346 52.1599 191.995 52.6024C192.673 53.0449 193.13 53.6348 193.366 54.3723C193.602 55.1097 193.602 55.9357 193.366 56.8501C193.13 57.7645 192.644 58.679 191.906 59.5934L176.641 78.7524V76.4515H190.8C191.921 76.4515 192.776 76.7317 193.366 77.2922C193.986 77.8527 194.296 78.6786 194.296 79.77C194.296 80.8615 193.986 81.7022 193.366 82.2921C192.776 82.8526 191.921 83.1328 190.8 83.1328H172.836Z" fill="url(#paint5_linear_1568_11852)"/>
</g>
<defs>
<filter id="filter0_iii_1568_11852" x="38.0607" y="45.7618" width="162.452" height="202.375" filterUnits="userSpaceOnUse" color-interpolation-filters="sRGB">
<feFlood flood-opacity="0" result="BackgroundImageFix"/>
<feBlend mode="normal" in="SourceGraphic" in2="BackgroundImageFix" result="shape"/>
<feColorMatrix in="SourceAlpha" type="matrix" values="0 0 0 0 0 0 0 0 0 0 0 0 0 0 0 0 0 0 127 0" result="hardAlpha"/>
<feMorphology radius="3.37628" operator="erode" in="SourceAlpha" result="effect1_innerShadow_1568_11852"/>
<feOffset dx="8.86273" dy="5.48645"/>
<feGaussianBlur stdDeviation="10.1288"/>
<feComposite in2="hardAlpha" operator="arithmetic" k2="-1" k3="1"/>
<feColorMatrix type="matrix" values="0 0 0 0 0.682806 0 0 0 0 0.0652778 0 0 0 0 0.783333 0 0 0 0.14 0"/>
<feBlend mode="normal" in2="shape" result="effect1_innerShadow_1568_11852"/>
<feColorMatrix in="SourceAlpha" type="matrix" values="0 0 0 0 0 0 0 0 0 0 0 0 0 0 0 0 0 0 127 0" result="hardAlpha"/>
<feOffset dy="-7.59662"/>
<feGaussianBlur stdDeviation="6.54154"/>
<feComposite in2="hardAlpha" operator="arithmetic" k2="-1" k3="1"/>
<feColorMatrix type="matrix" values="0 0 0 0 0.943639 0 0 0 0 0.223611 0 0 0 0 0.958333 0 0 0 0.44 0"/>
<feBlend mode="normal" in2="effect1_innerShadow_1568_11852" result="effect2_innerShadow_1568_11852"/>
<feColorMatrix in="SourceAlpha" type="matrix" values="0 0 0 0 0 0 0 0 0 0 0 0 0 0 0 0 0 0 127 0" result="hardAlpha"/>
<feOffset dx="-4.64238" dy="6.75255"/>
<feGaussianBlur stdDeviation="6.54154"/>
<feComposite in2="hardAlpha" operator="arithmetic" k2="-1" k3="1"/>
<feColorMatrix type="matrix" values="0 0 0 0 1 0 0 0 0 1 0 0 0 0 1 0 0 0 0.59 0"/>
<feBlend mode="normal" in2="effect2_innerShadow_1568_11852" result="effect3_innerShadow_1568_11852"/>
</filter>
<filter id="filter1_i_1568_11852" x="82.6758" y="7.86523" width="37.4425" height="44.7828" filterUnits="userSpaceOnUse" color-interpolation-filters="sRGB">
<feFlood flood-opacity="0" result="BackgroundImageFix"/>
<feBlend mode="normal" in="SourceGraphic" in2="BackgroundImageFix" result="shape"/>
<feColorMatrix in="SourceAlpha" type="matrix" values="0 0 0 0 0 0 0 0 0 0 0 0 0 0 0 0 0 0 127 0" result="hardAlpha"/>
<feOffset dx="3.4738" dy="1.7369"/>
<feGaussianBlur stdDeviation="4.82472"/>
<feComposite in2="hardAlpha" operator="arithmetic" k2="-1" k3="1"/>
<feColorMatrix type="matrix" values="0 0 0 0 0 0 0 0 0 0 0 0 0 0 0 0 0 0 0.25 0"/>
<feBlend mode="normal" in2="shape" result="effect1_innerShadow_1568_11852"/>
</filter>
<filter id="filter2_i_1568_11852" x="118.475" y="30.1514" width="20.1787" height="24.1333" filterUnits="userSpaceOnUse" color-interpolation-filters="sRGB">
<feFlood flood-opacity="0" result="BackgroundImageFix"/>
<feBlend mode="normal" in="SourceGraphic" in2="BackgroundImageFix" result="shape"/>
<feColorMatrix in="SourceAlpha" type="matrix" values="0 0 0 0 0 0 0 0 0 0 0 0 0 0 0 0 0 0 127 0" result="hardAlpha"/>
<feOffset dx="1.87209" dy="0.936044"/>
<feGaussianBlur stdDeviation="2.60012"/>
<feComposite in2="hardAlpha" operator="arithmetic" k2="-1" k3="1"/>
<feColorMatrix type="matrix" values="0 0 0 0 0 0 0 0 0 0 0 0 0 0 0 0 0 0 0.25 0"/>
<feBlend mode="normal" in2="shape" result="effect1_innerShadow_1568_11852"/>
</filter>
<filter id="filter3_f_1568_11852" x="110.977" y="53.0996" width="15.3203" height="7.00488" filterUnits="userSpaceOnUse" color-interpolation-filters="sRGB">
<feFlood flood-opacity="0" result="BackgroundImageFix"/>
<feBlend mode="normal" in="SourceGraphic" in2="BackgroundImageFix" result="shape"/>
<feGaussianBlur stdDeviation="1" result="effect1_foregroundBlur_1568_11852"/>
</filter>
<filter id="filter4_f_1568_11852" x="43.5459" y="150.031" width="165.193" height="111.469" filterUnits="userSpaceOnUse" color-interpolation-filters="sRGB">
<feFlood flood-opacity="0" result="BackgroundImageFix"/>
<feBlend mode="normal" in="SourceGraphic" in2="BackgroundImageFix" result="shape"/>
<feGaussianBlur stdDeviation="10" result="effect1_foregroundBlur_1568_11852"/>
</filter>
<filter id="filter5_i_1568_11852" x="69.6455" y="113.766" width="38.4443" height="19.6484" filterUnits="userSpaceOnUse" color-interpolation-filters="sRGB">
<feFlood flood-opacity="0" result="BackgroundImageFix"/>
<feBlend mode="normal" in="SourceGraphic" in2="BackgroundImageFix" result="shape"/>
<feColorMatrix in="SourceAlpha" type="matrix" values="0 0 0 0 0 0 0 0 0 0 0 0 0 0 0 0 0 0 127 0" result="hardAlpha"/>
<feMorphology radius="15.0641" operator="dilate" in="SourceAlpha" result="effect1_innerShadow_1568_11852"/>
<feOffset dx="5.23968" dy="-3.98672"/>
<feGaussianBlur stdDeviation="5.89465"/>
<feComposite in2="hardAlpha" operator="arithmetic" k2="-1" k3="1"/>
<feColorMatrix type="matrix" values="0 0 0 0 0.462111 0 0 0 0 0.203767 0 0 0 0 0.504167 0 0 0 0.35 0"/>
<feBlend mode="normal" in2="shape" result="effect1_innerShadow_1568_11852"/>
</filter>
<filter id="filter6_i_1568_11852" x="124.89" y="113.766" width="38.4443" height="19.6484" filterUnits="userSpaceOnUse" color-interpolation-filters="sRGB">
<feFlood flood-opacity="0" result="BackgroundImageFix"/>
<feBlend mode="normal" in="SourceGraphic" in2="BackgroundImageFix" result="shape"/>
<feColorMatrix in="SourceAlpha" type="matrix" values="0 0 0 0 0 0 0 0 0 0 0 0 0 0 0 0 0 0 127 0" result="hardAlpha"/>
<feMorphology radius="15.0641" operator="dilate" in="SourceAlpha" result="effect1_innerShadow_1568_11852"/>
<feOffset dx="5.23968" dy="-5.12578"/>
<feGaussianBlur stdDeviation="5.89465"/>
<feComposite in2="hardAlpha" operator="arithmetic" k2="-1" k3="1"/>
<feColorMatrix type="matrix" values="0 0 0 0 0.462111 0 0 0 0 0.203767 0 0 0 0 0.504167 0 0 0 0.35 0"/>
<feBlend mode="normal" in2="shape" result="effect1_innerShadow_1568_11852"/>
</filter>
<filter id="filter7_diiii_1568_11852" x="73.5352" y="127.814" width="85.2402" height="61.6045" filterUnits="userSpaceOnUse" color-interpolation-filters="sRGB">
<feFlood flood-opacity="0" result="BackgroundImageFix"/>
<feColorMatrix in="SourceAlpha" type="matrix" values="0 0 0 0 0 0 0 0 0 0 0 0 0 0 0 0 0 0 127 0" result="hardAlpha"/>
<feOffset dy="3.41719"/>
<feGaussianBlur stdDeviation="9.49218"/>
<feColorMatrix type="matrix" values="0 0 0 0 0.0298758 0 0 0 0 0.0216858 0 0 0 0 0.0308333 0 0 0 0.24 0"/>
<feBlend mode="normal" in2="BackgroundImageFix" result="effect1_dropShadow_1568_11852"/>
<feBlend mode="normal" in="SourceGraphic" in2="effect1_dropShadow_1568_11852" result="shape"/>
<feColorMatrix in="SourceAlpha" type="matrix" values="0 0 0 0 0 0 0 0 0 0 0 0 0 0 0 0 0 0 127 0" result="hardAlpha"/>
<feOffset dy="-19.3641"/>
<feGaussianBlur stdDeviation="1.47656"/>
<feComposite in2="hardAlpha" operator="arithmetic" k2="-1" k3="1"/>
<feColorMatrix type="matrix" values="0 0 0 0 0.17328 0 0 0 0 0.125777 0 0 0 0 0.178833 0 0 0 1 0"/>
<feBlend mode="normal" in2="shape" result="effect2_innerShadow_1568_11852"/>
<feColorMatrix in="SourceAlpha" type="matrix" values="0 0 0 0 0 0 0 0 0 0 0 0 0 0 0 0 0 0 127 0" result="hardAlpha"/>
<feOffset dy="-22.7812"/>
<feGaussianBlur stdDeviation="0.738281"/>
<feComposite in2="hardAlpha" operator="arithmetic" k2="-1" k3="1"/>
<feColorMatrix type="matrix" values="0 0 0 0 0.119503 0 0 0 0 0.086743 0 0 0 0 0.123333 0 0 0 1 0"/>
<feBlend mode="normal" in2="effect2_innerShadow_1568_11852" result="effect3_innerShadow_1568_11852"/>
<feColorMatrix in="SourceAlpha" type="matrix" values="0 0 0 0 0 0 0 0 0 0 0 0 0 0 0 0 0 0 127 0" result="hardAlpha"/>
<feMorphology radius="15.0641" operator="dilate" in="SourceAlpha" result="effect4_innerShadow_1568_11852"/>
<feOffset dx="5.23968" dy="-7.4039"/>
<feGaussianBlur stdDeviation="5.89465"/>
<feComposite in2="hardAlpha" operator="arithmetic" k2="-1" k3="1"/>
<feColorMatrix type="matrix" values="0 0 0 0 0.462111 0 0 0 0 0.203767 0 0 0 0 0.504167 0 0 0 0.35 0"/>
<feBlend mode="normal" in2="effect3_innerShadow_1568_11852" result="effect4_innerShadow_1568_11852"/>
<feColorMatrix in="SourceAlpha" type="matrix" values="0 0 0 0 0 0 0 0 0 0 0 0 0 0 0 0 0 0 127 0" result="hardAlpha"/>
<feMorphology radius="15.0641" operator="dilate" in="SourceAlpha" result="effect5_innerShadow_1568_11852"/>
<feOffset dx="5.23968" dy="-17.6555"/>
<feGaussianBlur stdDeviation="5.89465"/>
<feComposite in2="hardAlpha" operator="arithmetic" k2="-1" k3="1"/>
<feColorMatrix type="matrix" values="0 0 0 0 0.462111 0 0 0 0 0.203767 0 0 0 0 0.504167 0 0 0 0.35 0"/>
<feBlend mode="normal" in2="effect4_innerShadow_1568_11852" result="effect5_innerShadow_1568_11852"/>
</filter>
<filter id="filter8_di_1568_11852" x="122.229" y="53.3818" width="57.923" height="64.6935" filterUnits="userSpaceOnUse" color-interpolation-filters="sRGB">
<feFlood flood-opacity="0" result="BackgroundImageFix"/>
<feColorMatrix in="SourceAlpha" type="matrix" values="0 0 0 0 0 0 0 0 0 0 0 0 0 0 0 0 0 0 127 0" result="hardAlpha"/>
<feOffset dy="3.07282"/>
<feGaussianBlur stdDeviation="6.54961"/>
<feColorMatrix type="matrix" values="0 0 0 0 0.283333 0 0 0 0 0.283333 0 0 0 0 0.283333 0 0 0 0.62 0"/>
<feBlend mode="normal" in2="BackgroundImageFix" result="effect1_dropShadow_1568_11852"/>
<feBlend mode="normal" in="SourceGraphic" in2="effect1_dropShadow_1568_11852" result="shape"/>
<feColorMatrix in="SourceAlpha" type="matrix" values="0 0 0 0 0 0 0 0 0 0 0 0 0 0 0 0 0 0 127 0" result="hardAlpha"/>
<feOffset dx="-1.53641"/>
<feGaussianBlur stdDeviation="3.07107"/>
<feComposite in2="hardAlpha" operator="arithmetic" k2="-1" k3="1"/>
<feColorMatrix type="matrix" values="0 0 0 0 1 0 0 0 0 1 0 0 0 0 1 0 0 0 0.6 0"/>
<feBlend mode="normal" in2="shape" result="effect2_innerShadow_1568_11852"/>
</filter>
<filter id="filter9_di_1568_11852" x="155.489" y="41.9121" width="51.9064" height="57.3928" filterUnits="userSpaceOnUse" color-interpolation-filters="sRGB">
<feFlood flood-opacity="0" result="BackgroundImageFix"/>
<feColorMatrix in="SourceAlpha" type="matrix" values="0 0 0 0 0 0 0 0 0 0 0 0 0 0 0 0 0 0 127 0" result="hardAlpha"/>
<feOffset dy="3.07282"/>
<feGaussianBlur stdDeviation="6.54961"/>
<feColorMatrix type="matrix" values="0 0 0 0 0.283333 0 0 0 0 0.283333 0 0 0 0 0.283333 0 0 0 0.62 0"/>
<feBlend mode="normal" in2="BackgroundImageFix" result="effect1_dropShadow_1568_11852"/>
<feBlend mode="normal" in="SourceGraphic" in2="effect1_dropShadow_1568_11852" result="shape"/>
<feColorMatrix in="SourceAlpha" type="matrix" values="0 0 0 0 0 0 0 0 0 0 0 0 0 0 0 0 0 0 127 0" result="hardAlpha"/>
<feOffset dx="-1.24502"/>
<feGaussianBlur stdDeviation="2.48863"/>
<feComposite in2="hardAlpha" operator="arithmetic" k2="-1" k3="1"/>
<feColorMatrix type="matrix" values="0 0 0 0 1 0 0 0 0 1 0 0 0 0 1 0 0 0 0.6 0"/>
<feBlend mode="normal" in2="shape" result="effect2_innerShadow_1568_11852"/>
</filter>
<radialGradient id="paint0_radial_1568_11852" cx="0" cy="0" r="1" gradientUnits="userSpaceOnUse" gradientTransform="translate(117.103 214.08) rotate(84.5862) scale(27.4259 42.4772)">
<stop stop-color="#FFBB0C"/>
<stop offset="1" stop-color="#FFC907"/>
</radialGradient>
<linearGradient id="paint1_linear_1568_11852" x1="100.949" y1="18.1077" x2="112.511" y2="35.2351" gradientUnits="userSpaceOnUse">
<stop stop-color="white"/>
<stop offset="1" stop-color="white" stop-opacity="0"/>
</linearGradient>
<linearGradient id="paint2_linear_1568_11852" x1="116.155" y1="143.381" x2="116.155" y2="190.652" gradientUnits="userSpaceOnUse">
<stop stop-color="#201721"/>
<stop offset="1" stop-color="#2B1F2C"/>
</linearGradient>
<linearGradient id="paint3_linear_1568_11852" x1="116.155" y1="143.381" x2="116.155" y2="190.652" gradientUnits="userSpaceOnUse">
<stop stop-color="#201721"/>
<stop offset="1" stop-color="#2B1F2C"/>
</linearGradient>
<linearGradient id="paint4_linear_1568_11852" x1="150.043" y1="56.9033" x2="150.165" y2="110.224" gradientUnits="userSpaceOnUse">
<stop stop-color="#3FEEC4"/>
<stop offset="1" stop-color="#43BBFF"/>
</linearGradient>
<linearGradient id="paint5_linear_1568_11852" x1="180.512" y1="47.1328" x2="180.611" y2="90.3413" gradientUnits="userSpaceOnUse">
<stop stop-color="#3FEEC4"/>
<stop offset="1" stop-color="#43BBFF"/>
</linearGradient>
</defs>
</svg>
