<svg width="175" height="262" viewBox="0 0 175 262" fill="none" xmlns="http://www.w3.org/2000/svg">
<g filter="url(#filter0_iii_1568_12401)">
<path fill-rule="evenodd" clip-rule="evenodd" d="M2.70319 143.016L2.70312 142.874V142.873C2.70312 103.425 24.6687 68.6089 54.9125 56.864C54.9461 56.851 54.9797 56.8381 55.0134 56.8253C61.5775 54.3062 67.3059 54.3248 74.977 54.3497C75.463 54.3513 75.9568 54.3529 76.4591 54.3539L76.4597 54.3536C84.8275 51.0663 94.8091 54.6525 102.788 58.2686C120.607 66.3376 135.24 82.5316 143.708 102.816C148.789 114.986 151.651 128.629 151.651 142.873V142.874C151.651 148.948 151.322 154.901 150.642 160.668C148.816 176.166 144.456 190.323 137.133 201.886C129.122 214.533 117.564 224.077 101.898 228.873C99.6617 235.856 90.5684 241.084 79.6906 241.084C69.5927 241.084 61.0325 236.579 58.0683 230.347C18.7024 221.647 2.73888 185.272 2.70319 143.016Z" fill="url(#paint0_radial_1568_12401)"/>
</g>
<g filter="url(#filter1_i_1568_12401)">
<path d="M66.4159 143.897C68.4296 143.897 70.1015 142.246 69.6694 140.279C68.9836 137.158 67.4184 134.269 65.1232 131.974C61.961 128.812 57.6721 127.035 53.2 127.035C48.7279 127.035 44.4389 128.812 41.2767 131.974C39.0998 134.151 37.5796 136.862 36.8436 139.799C36.2877 142.016 38.1915 143.897 40.478 143.897V143.897C42.6215 143.897 44.2866 142.08 45.1977 140.139C45.6286 139.222 46.2181 138.376 46.9487 137.646C48.6066 135.988 50.8553 135.057 53.2 135.057C55.5447 135.057 57.7933 135.988 59.4513 137.646C60.0632 138.258 60.5762 138.95 60.9799 139.698C62.1275 141.825 63.9995 143.897 66.4159 143.897V143.897Z" fill="#C4C4C4"/>
<path d="M66.4159 143.897C68.4296 143.897 70.1015 142.246 69.6694 140.279C68.9836 137.158 67.4184 134.269 65.1232 131.974C61.961 128.812 57.6721 127.035 53.2 127.035C48.7279 127.035 44.4389 128.812 41.2767 131.974C39.0998 134.151 37.5796 136.862 36.8436 139.799C36.2877 142.016 38.1915 143.897 40.478 143.897V143.897C42.6215 143.897 44.2866 142.08 45.1977 140.139C45.6286 139.222 46.2181 138.376 46.9487 137.646C48.6066 135.988 50.8553 135.057 53.2 135.057C55.5447 135.057 57.7933 135.988 59.4513 137.646C60.0632 138.258 60.5762 138.95 60.9799 139.698C62.1275 141.825 63.9995 143.897 66.4159 143.897V143.897Z" fill="#221725"/>
</g>
<g filter="url(#filter2_i_1568_12401)">
<path d="M113.825 143.897C115.839 143.897 117.511 142.246 117.079 140.279C116.393 137.158 114.828 134.269 112.532 131.974C109.37 128.812 105.081 127.035 100.609 127.035C96.137 127.035 91.8481 128.812 88.6859 131.974C86.509 134.151 84.9888 136.862 84.2527 139.799C83.6969 142.016 85.6006 143.897 87.8871 143.897V143.897C90.0307 143.897 91.6958 142.08 92.6069 140.139C93.0378 139.222 93.6273 138.376 94.3578 137.646C96.0158 135.988 98.2644 135.057 100.609 135.057C102.954 135.057 105.202 135.988 106.86 137.646C107.472 138.258 107.985 138.95 108.389 139.698C109.537 141.825 111.409 143.897 113.825 143.897V143.897Z" fill="#C4C4C4"/>
<path d="M113.825 143.897C115.839 143.897 117.511 142.246 117.079 140.279C116.393 137.158 114.828 134.269 112.532 131.974C109.37 128.812 105.081 127.035 100.609 127.035C96.137 127.035 91.8481 128.812 88.6859 131.974C86.509 134.151 84.9888 136.862 84.2527 139.799C83.6969 142.016 85.6006 143.897 87.8871 143.897V143.897C90.0307 143.897 91.6958 142.08 92.6069 140.139C93.0378 139.222 93.6273 138.376 94.3578 137.646C96.0158 135.988 98.2644 135.057 100.609 135.057C102.954 135.057 105.202 135.988 106.86 137.646C107.472 138.258 107.985 138.95 108.389 139.698C109.537 141.825 111.409 143.897 113.825 143.897V143.897Z" fill="#221725"/>
</g>
<mask id="mask0_1568_12401" style="mask-type:alpha" maskUnits="userSpaceOnUse" x="46" y="148" width="62" height="33">
<path d="M96.4046 180.515C99.1651 180.515 100.545 180.515 102.29 179.69C104.562 178.615 107.076 174.851 107.198 172.34C107.292 170.412 107.01 169.733 106.446 168.374C104.869 164.571 102.551 161.076 99.5837 158.109C93.6412 152.167 85.5815 148.828 77.1775 148.828C68.7735 148.828 60.7137 152.167 54.7712 158.109C51.6169 161.263 49.1963 165.014 47.6192 169.097C47.0717 170.514 46.798 171.222 46.9188 173.004C47.0783 175.356 49.4156 178.764 51.5515 179.76C53.1702 180.515 54.504 180.515 57.1715 180.515L77.1775 180.515L96.4046 180.515Z" fill="url(#paint1_linear_1568_12401)"/>
</mask>
<g mask="url(#mask0_1568_12401)">
<g filter="url(#filter3_i_1568_12401)">
<path d="M96.4046 180.515C99.1651 180.515 100.545 180.515 102.29 179.69C104.562 178.615 107.076 174.851 107.198 172.34C107.292 170.412 107.01 169.733 106.446 168.374C104.869 164.571 102.551 161.076 99.5837 158.109C93.6412 152.167 85.5815 148.828 77.1775 148.828C68.7735 148.828 60.7137 152.167 54.7712 158.109C51.6169 161.263 49.1963 165.014 47.6192 169.097C47.0717 170.514 46.798 171.222 46.9188 173.004C47.0783 175.356 49.4156 178.764 51.5515 179.76C53.1702 180.515 54.504 180.515 57.1715 180.515L77.1775 180.515L96.4046 180.515Z" fill="url(#paint2_linear_1568_12401)"/>
</g>
<g filter="url(#filter4_i_1568_12401)">
<path d="M107.804 150.69C109.003 153.44 107.071 156.588 104.071 156.588L50.7616 156.588C47.8339 156.588 44.6903 154.172 46.1278 151.621V151.621V151.621C47.2526 149.626 47.4221 146.241 49.713 146.241L105.906 146.241C107.568 146.241 107.14 149.167 107.804 150.69V150.69V150.69Z" fill="white"/>
</g>
</g>
<g filter="url(#filter5_dii_1568_12401)">
<path d="M28.5179 117.917C28.5179 119.714 29.9806 121.193 31.7613 120.954C33.8555 120.674 35.9092 120.122 37.8698 119.31C40.8347 118.082 43.5287 116.282 45.798 114.013C48.0672 111.744 49.8673 109.05 51.0954 106.085C51.9075 104.124 52.459 102.07 52.7394 99.9761C52.9779 98.1954 51.4992 96.7327 49.7026 96.7327V96.7327C47.9061 96.7327 46.4795 98.2008 46.1554 99.9679C45.9279 101.208 45.5696 102.424 45.0847 103.595C44.1835 105.77 42.8627 107.747 41.1976 109.412C39.5324 111.078 37.5556 112.398 35.3801 113.3C34.2094 113.784 32.9935 114.143 31.753 114.37C29.986 114.694 28.5179 116.121 28.5179 117.917V117.917Z" fill="url(#paint3_linear_1568_12401)"/>
</g>
<g filter="url(#filter6_dii_1568_12401)">
<path d="M124.314 117.917C124.314 119.714 122.851 121.193 121.071 120.954C118.976 120.674 116.923 120.122 114.962 119.31C111.997 118.082 109.303 116.282 107.034 114.013C104.765 111.744 102.965 109.05 101.737 106.085C100.925 104.124 100.373 102.07 100.093 99.9761C99.8541 98.1954 101.333 96.7327 103.129 96.7327V96.7327C104.926 96.7327 106.352 98.2008 106.677 99.9679C106.904 101.208 107.262 102.424 107.747 103.595C108.649 105.77 109.969 107.747 111.634 109.412C113.3 111.078 115.276 112.398 117.452 113.3C118.623 113.784 119.839 114.143 121.079 114.37C122.846 114.694 124.314 116.121 124.314 117.917V117.917Z" fill="url(#paint4_linear_1568_12401)"/>
</g>
<g filter="url(#filter7_i_1568_12401)">
<path d="M71.0807 49.1146C80.6744 42.369 76.7421 27.0703 67.7555 19.1525C58.7771 11.2087 45.6765 7.10427 44.4357 7.98251C43.1948 8.86075 39.9191 26.2238 47.6279 38.3606C55.3367 50.4974 65.2185 53.2427 71.0807 49.1146Z" fill="#3D830B"/>
</g>
<path d="M70.7224 48.8423L72.0651 47.8247C76.3466 53.5211 78.7898 55.6923 78.8158 55.7006L77.7091 56.9657C77.6046 56.8892 75.1266 54.6925 70.7224 48.8423Z" fill="#3D830B"/>
<g filter="url(#filter8_i_1568_12401)">
<path d="M81.473 52.3808C76.3028 48.7454 78.422 40.5007 83.265 36.2337C88.1036 31.9527 95.1637 29.7407 95.8325 30.214C96.5012 30.6873 98.2665 40.0445 94.1121 46.5853C89.9577 53.126 84.6323 54.6055 81.473 52.3808Z" fill="#3D830B"/>
</g>
<path d="M81.6659 52.2348L80.9423 51.6865C78.635 54.7563 77.3183 55.9264 77.3043 55.9309L77.9007 56.6127C77.957 56.5715 79.2925 55.3876 81.6659 52.2348Z" fill="#3D830B"/>
<path d="M59.8036 18.564C59.7063 18.3753 59.712 18.1336 59.8305 17.9422C60.0255 17.6464 60.4128 17.5554 60.6998 17.7331C62.5523 18.8845 65.244 20.906 67.6124 24.0276C70.4634 27.7907 72.0964 32.1814 72.4755 37.088C72.5057 37.4416 72.2416 37.7296 71.8881 37.7598C71.5346 37.79 71.2465 37.5259 71.2163 37.1724C70.4331 26.7208 63.8834 21.1728 60.0568 18.8026C59.9351 18.735 59.8478 18.6498 59.8036 18.564Z" fill="url(#paint5_linear_1568_12401)"/>
<g filter="url(#filter9_f_1568_12401)">
<ellipse cx="78.6365" cy="56.602" rx="5.65996" ry="1.5024" fill="#744500" fill-opacity="0.6"/>
</g>
<g filter="url(#filter10_f_1568_12401)">
<path d="M58.4997 228.411C61.1885 238.294 74.6096 240.405 81.1654 241.084C98.1132 241.084 105.829 229.889 107.569 224.292C139.834 214.24 151.336 172.316 154.679 155.453C128.303 194.258 54.1977 205.481 20.5273 203.981C21.3883 211.25 47.7381 224.38 58.4997 228.411Z" fill="#EBAD1E"/>
</g>
<path d="M47.3132 199.76C18.1752 199.76 5.205 178.93 2.09695 165.213C1.85786 164.167 2.51534 163.091 3.56132 162.852C4.6073 162.613 5.68316 163.27 5.92225 164.316C9.11996 178.362 23.7338 200.597 58.1017 194.859C59.1776 194.68 60.1937 195.397 60.373 196.473C60.5523 197.548 59.8351 198.565 58.7592 198.744C54.6948 199.461 50.8695 199.76 47.3132 199.76Z" fill="#1D1D1D"/>
<path d="M56.1 204.78C50.3621 204.78 47.2241 201.852 46.6862 198.803C46.1184 195.665 48.1506 191.392 55.7115 189.658C56.7575 189.419 57.8333 190.077 58.0724 191.123C58.3115 192.169 57.654 193.245 56.6081 193.484C52.0655 194.53 50.3023 196.622 50.5713 198.116C50.8701 199.819 53.7092 201.284 57.9529 200.746C59.0288 200.626 60.015 201.373 60.1345 202.449C60.2839 203.525 59.5069 204.511 58.431 204.631C57.6241 204.721 56.8471 204.78 56.1 204.78Z" fill="#1D1D1D"/>
<path d="M106.395 199.761C102.839 199.761 99.0435 199.462 94.9791 198.775C93.9033 198.596 93.186 197.579 93.3654 196.504C93.5447 195.428 94.5608 194.71 95.6366 194.89C130.005 200.598 144.618 178.363 147.816 164.347C148.055 163.301 149.101 162.614 150.177 162.883C151.223 163.122 151.91 164.168 151.641 165.244C148.503 178.931 135.533 199.761 106.395 199.761Z" fill="#1D1D1D"/>
<path d="M97.6105 204.78C96.8634 204.78 96.0864 204.721 95.2795 204.631C94.2036 204.481 93.4266 203.525 93.576 202.449C93.7255 201.373 94.6818 200.596 95.7576 200.746C100.001 201.284 102.84 199.819 103.139 198.116C103.408 196.622 101.615 194.53 97.1025 193.484C96.0565 193.245 95.399 192.199 95.6381 191.123C95.8772 190.077 96.9531 189.419 97.999 189.658C105.56 191.392 107.592 195.695 107.024 198.803C106.486 201.852 103.348 204.78 97.6105 204.78Z" fill="#1D1D1D"/>
<ellipse rx="4.47588" ry="3.04152" transform="matrix(0.769784 0.638304 0.638304 -0.769784 122.859 86.9356)" fill="#878787" fill-opacity="0.2"/>
<ellipse rx="4.47588" ry="3.04152" transform="matrix(0.769784 0.638304 0.638304 -0.769784 138.417 103.606)" fill="#878787" fill-opacity="0.2"/>
<ellipse cx="17.7726" cy="106.803" rx="4.47588" ry="3.04152" transform="rotate(-39.6655 17.7726 106.803)" fill="#B77D00" fill-opacity="0.37"/>
<ellipse cx="30.9523" cy="94.7011" rx="4.47588" ry="3.04152" transform="rotate(-39.6655 30.9523 94.7011)" fill="#B77D00" fill-opacity="0.37"/>
<ellipse cx="42.6828" cy="81.7363" rx="4.47588" ry="3.04152" transform="rotate(-39.6655 42.6828 81.7363)" fill="#B77D00" fill-opacity="0.37"/>
<ellipse cx="28.546" cy="79.8828" rx="4.47588" ry="3.04152" transform="rotate(-39.6655 28.546 79.8828)" fill="#B77D00" fill-opacity="0.37"/>
<defs>
<filter id="filter0_iii_1568_12401" x="-1.93926" y="45.462" width="162.452" height="202.375" filterUnits="userSpaceOnUse" color-interpolation-filters="sRGB">
<feFlood flood-opacity="0" result="BackgroundImageFix"/>
<feBlend mode="normal" in="SourceGraphic" in2="BackgroundImageFix" result="shape"/>
<feColorMatrix in="SourceAlpha" type="matrix" values="0 0 0 0 0 0 0 0 0 0 0 0 0 0 0 0 0 0 127 0" result="hardAlpha"/>
<feMorphology radius="3.37628" operator="erode" in="SourceAlpha" result="effect1_innerShadow_1568_12401"/>
<feOffset dx="8.86273" dy="5.48645"/>
<feGaussianBlur stdDeviation="10.1288"/>
<feComposite in2="hardAlpha" operator="arithmetic" k2="-1" k3="1"/>
<feColorMatrix type="matrix" values="0 0 0 0 0.682806 0 0 0 0 0.0652778 0 0 0 0 0.783333 0 0 0 0.14 0"/>
<feBlend mode="normal" in2="shape" result="effect1_innerShadow_1568_12401"/>
<feColorMatrix in="SourceAlpha" type="matrix" values="0 0 0 0 0 0 0 0 0 0 0 0 0 0 0 0 0 0 127 0" result="hardAlpha"/>
<feOffset dy="-7.59662"/>
<feGaussianBlur stdDeviation="6.54154"/>
<feComposite in2="hardAlpha" operator="arithmetic" k2="-1" k3="1"/>
<feColorMatrix type="matrix" values="0 0 0 0 0.943639 0 0 0 0 0.223611 0 0 0 0 0.958333 0 0 0 0.44 0"/>
<feBlend mode="normal" in2="effect1_innerShadow_1568_12401" result="effect2_innerShadow_1568_12401"/>
<feColorMatrix in="SourceAlpha" type="matrix" values="0 0 0 0 0 0 0 0 0 0 0 0 0 0 0 0 0 0 127 0" result="hardAlpha"/>
<feOffset dx="-4.64238" dy="6.75255"/>
<feGaussianBlur stdDeviation="6.54154"/>
<feComposite in2="hardAlpha" operator="arithmetic" k2="-1" k3="1"/>
<feColorMatrix type="matrix" values="0 0 0 0 1 0 0 0 0 1 0 0 0 0 1 0 0 0 0.59 0"/>
<feBlend mode="normal" in2="effect2_innerShadow_1568_12401" result="effect3_innerShadow_1568_12401"/>
</filter>
<filter id="filter1_i_1568_12401" x="36.7461" y="127.035" width="32.9922" height="16.8613" filterUnits="userSpaceOnUse" color-interpolation-filters="sRGB">
<feFlood flood-opacity="0" result="BackgroundImageFix"/>
<feBlend mode="normal" in="SourceGraphic" in2="BackgroundImageFix" result="shape"/>
<feColorMatrix in="SourceAlpha" type="matrix" values="0 0 0 0 0 0 0 0 0 0 0 0 0 0 0 0 0 0 127 0" result="hardAlpha"/>
<feMorphology radius="12.9276" operator="dilate" in="SourceAlpha" result="effect1_innerShadow_1568_12401"/>
<feOffset dx="4.49655" dy="-3.42129"/>
<feGaussianBlur stdDeviation="5.05862"/>
<feComposite in2="hardAlpha" operator="arithmetic" k2="-1" k3="1"/>
<feColorMatrix type="matrix" values="0 0 0 0 0.462111 0 0 0 0 0.203767 0 0 0 0 0.504167 0 0 0 0.35 0"/>
<feBlend mode="normal" in2="shape" result="effect1_innerShadow_1568_12401"/>
</filter>
<filter id="filter2_i_1568_12401" x="84.1553" y="127.035" width="32.9922" height="16.8613" filterUnits="userSpaceOnUse" color-interpolation-filters="sRGB">
<feFlood flood-opacity="0" result="BackgroundImageFix"/>
<feBlend mode="normal" in="SourceGraphic" in2="BackgroundImageFix" result="shape"/>
<feColorMatrix in="SourceAlpha" type="matrix" values="0 0 0 0 0 0 0 0 0 0 0 0 0 0 0 0 0 0 127 0" result="hardAlpha"/>
<feMorphology radius="12.9276" operator="dilate" in="SourceAlpha" result="effect1_innerShadow_1568_12401"/>
<feOffset dx="4.49655" dy="-4.3988"/>
<feGaussianBlur stdDeviation="5.05862"/>
<feComposite in2="hardAlpha" operator="arithmetic" k2="-1" k3="1"/>
<feColorMatrix type="matrix" values="0 0 0 0 0.462111 0 0 0 0 0.203767 0 0 0 0 0.504167 0 0 0 0.35 0"/>
<feBlend mode="normal" in2="shape" result="effect1_innerShadow_1568_12401"/>
</filter>
<filter id="filter3_i_1568_12401" x="46.8906" y="148.828" width="60.3252" height="33.8358" filterUnits="userSpaceOnUse" color-interpolation-filters="sRGB">
<feFlood flood-opacity="0" result="BackgroundImageFix"/>
<feBlend mode="normal" in="SourceGraphic" in2="BackgroundImageFix" result="shape"/>
<feColorMatrix in="SourceAlpha" type="matrix" values="0 0 0 0 0 0 0 0 0 0 0 0 0 0 0 0 0 0 127 0" result="hardAlpha"/>
<feOffset dy="2.14829"/>
<feGaussianBlur stdDeviation="4.29658"/>
<feComposite in2="hardAlpha" operator="arithmetic" k2="-1" k3="1"/>
<feColorMatrix type="matrix" values="0 0 0 0 0 0 0 0 0 0 0 0 0 0 0 0 0 0 0.25 0"/>
<feBlend mode="normal" in2="shape" result="effect1_innerShadow_1568_12401"/>
</filter>
<filter id="filter4_i_1568_12401" x="45.7686" y="144.629" width="62.3965" height="11.9589" filterUnits="userSpaceOnUse" color-interpolation-filters="sRGB">
<feFlood flood-opacity="0" result="BackgroundImageFix"/>
<feBlend mode="normal" in="SourceGraphic" in2="BackgroundImageFix" result="shape"/>
<feColorMatrix in="SourceAlpha" type="matrix" values="0 0 0 0 0 0 0 0 0 0 0 0 0 0 0 0 0 0 127 0" result="hardAlpha"/>
<feOffset dy="-1.61122"/>
<feGaussianBlur stdDeviation="4.29658"/>
<feComposite in2="hardAlpha" operator="arithmetic" k2="-1" k3="1"/>
<feColorMatrix type="matrix" values="0 0 0 0 0 0 0 0 0 0 0 0 0 0 0 0 0 0 0.47 0"/>
<feBlend mode="normal" in2="shape" result="effect1_innerShadow_1568_12401"/>
</filter>
<filter id="filter5_dii_1568_12401" x="18.2537" y="90.8674" width="50.6399" height="50.6408" filterUnits="userSpaceOnUse" color-interpolation-filters="sRGB">
<feFlood flood-opacity="0" result="BackgroundImageFix"/>
<feColorMatrix in="SourceAlpha" type="matrix" values="0 0 0 0 0 0 0 0 0 0 0 0 0 0 0 0 0 0 127 0" result="hardAlpha"/>
<feOffset dx="2.93253" dy="7.33133"/>
<feGaussianBlur stdDeviation="6.5982"/>
<feColorMatrix type="matrix" values="0 0 0 0 0.0313726 0 0 0 0 0.02 0 0 0 0 0.0352941 0 0 0 0.25 0"/>
<feBlend mode="normal" in2="BackgroundImageFix" result="effect1_dropShadow_1568_12401"/>
<feBlend mode="normal" in="SourceGraphic" in2="effect1_dropShadow_1568_12401" result="shape"/>
<feColorMatrix in="SourceAlpha" type="matrix" values="0 0 0 0 0 0 0 0 0 0 0 0 0 0 0 0 0 0 127 0" result="hardAlpha"/>
<feOffset dy="2.17225"/>
<feGaussianBlur stdDeviation="1.08612"/>
<feComposite in2="hardAlpha" operator="arithmetic" k2="-1" k3="1"/>
<feColorMatrix type="matrix" values="0 0 0 0 0.181961 0 0 0 0 0.116 0 0 0 0 0.204706 0 0 0 1 0"/>
<feBlend mode="normal" in2="shape" result="effect2_innerShadow_1568_12401"/>
<feColorMatrix in="SourceAlpha" type="matrix" values="0 0 0 0 0 0 0 0 0 0 0 0 0 0 0 0 0 0 127 0" result="hardAlpha"/>
<feOffset dy="-2.17225"/>
<feGaussianBlur stdDeviation="1.08612"/>
<feComposite in2="hardAlpha" operator="arithmetic" k2="-1" k3="1"/>
<feColorMatrix type="matrix" values="0 0 0 0 0.12549 0 0 0 0 0.08 0 0 0 0 0.141176 0 0 0 1 0"/>
<feBlend mode="normal" in2="effect2_innerShadow_1568_12401" result="effect3_innerShadow_1568_12401"/>
</filter>
<filter id="filter6_dii_1568_12401" x="89.8035" y="90.8674" width="50.6399" height="50.6408" filterUnits="userSpaceOnUse" color-interpolation-filters="sRGB">
<feFlood flood-opacity="0" result="BackgroundImageFix"/>
<feColorMatrix in="SourceAlpha" type="matrix" values="0 0 0 0 0 0 0 0 0 0 0 0 0 0 0 0 0 0 127 0" result="hardAlpha"/>
<feOffset dx="2.93253" dy="7.33133"/>
<feGaussianBlur stdDeviation="6.5982"/>
<feColorMatrix type="matrix" values="0 0 0 0 0.0313726 0 0 0 0 0.02 0 0 0 0 0.0352941 0 0 0 0.25 0"/>
<feBlend mode="normal" in2="BackgroundImageFix" result="effect1_dropShadow_1568_12401"/>
<feBlend mode="normal" in="SourceGraphic" in2="effect1_dropShadow_1568_12401" result="shape"/>
<feColorMatrix in="SourceAlpha" type="matrix" values="0 0 0 0 0 0 0 0 0 0 0 0 0 0 0 0 0 0 127 0" result="hardAlpha"/>
<feOffset dy="2.17225"/>
<feGaussianBlur stdDeviation="1.08612"/>
<feComposite in2="hardAlpha" operator="arithmetic" k2="-1" k3="1"/>
<feColorMatrix type="matrix" values="0 0 0 0 0.181961 0 0 0 0 0.116 0 0 0 0 0.204706 0 0 0 1 0"/>
<feBlend mode="normal" in2="shape" result="effect2_innerShadow_1568_12401"/>
<feColorMatrix in="SourceAlpha" type="matrix" values="0 0 0 0 0 0 0 0 0 0 0 0 0 0 0 0 0 0 127 0" result="hardAlpha"/>
<feOffset dy="-2.17225"/>
<feGaussianBlur stdDeviation="1.08612"/>
<feComposite in2="hardAlpha" operator="arithmetic" k2="-1" k3="1"/>
<feColorMatrix type="matrix" values="0 0 0 0 0.12549 0 0 0 0 0.08 0 0 0 0 0.141176 0 0 0 1 0"/>
<feBlend mode="normal" in2="effect2_innerShadow_1568_12401" result="effect3_innerShadow_1568_12401"/>
</filter>
<filter id="filter7_i_1568_12401" x="42.6758" y="7.86523" width="37.4425" height="44.7818" filterUnits="userSpaceOnUse" color-interpolation-filters="sRGB">
<feFlood flood-opacity="0" result="BackgroundImageFix"/>
<feBlend mode="normal" in="SourceGraphic" in2="BackgroundImageFix" result="shape"/>
<feColorMatrix in="SourceAlpha" type="matrix" values="0 0 0 0 0 0 0 0 0 0 0 0 0 0 0 0 0 0 127 0" result="hardAlpha"/>
<feOffset dx="3.4738" dy="1.7369"/>
<feGaussianBlur stdDeviation="4.82472"/>
<feComposite in2="hardAlpha" operator="arithmetic" k2="-1" k3="1"/>
<feColorMatrix type="matrix" values="0 0 0 0 0 0 0 0 0 0 0 0 0 0 0 0 0 0 0.25 0"/>
<feBlend mode="normal" in2="shape" result="effect1_innerShadow_1568_12401"/>
</filter>
<filter id="filter8_i_1568_12401" x="78.4746" y="30.1504" width="20.1787" height="24.1353" filterUnits="userSpaceOnUse" color-interpolation-filters="sRGB">
<feFlood flood-opacity="0" result="BackgroundImageFix"/>
<feBlend mode="normal" in="SourceGraphic" in2="BackgroundImageFix" result="shape"/>
<feColorMatrix in="SourceAlpha" type="matrix" values="0 0 0 0 0 0 0 0 0 0 0 0 0 0 0 0 0 0 127 0" result="hardAlpha"/>
<feOffset dx="1.87209" dy="0.936044"/>
<feGaussianBlur stdDeviation="2.60012"/>
<feComposite in2="hardAlpha" operator="arithmetic" k2="-1" k3="1"/>
<feColorMatrix type="matrix" values="0 0 0 0 0 0 0 0 0 0 0 0 0 0 0 0 0 0 0.25 0"/>
<feBlend mode="normal" in2="shape" result="effect1_innerShadow_1568_12401"/>
</filter>
<filter id="filter9_f_1568_12401" x="70.9766" y="53.0996" width="15.3203" height="7.00391" filterUnits="userSpaceOnUse" color-interpolation-filters="sRGB">
<feFlood flood-opacity="0" result="BackgroundImageFix"/>
<feBlend mode="normal" in="SourceGraphic" in2="BackgroundImageFix" result="shape"/>
<feGaussianBlur stdDeviation="1" result="effect1_foregroundBlur_1568_12401"/>
</filter>
<filter id="filter10_f_1568_12401" x="0.527344" y="135.453" width="174.151" height="125.631" filterUnits="userSpaceOnUse" color-interpolation-filters="sRGB">
<feFlood flood-opacity="0" result="BackgroundImageFix"/>
<feBlend mode="normal" in="SourceGraphic" in2="BackgroundImageFix" result="shape"/>
<feGaussianBlur stdDeviation="10" result="effect1_foregroundBlur_1568_12401"/>
</filter>
<radialGradient id="paint0_radial_1568_12401" cx="0" cy="0" r="1" gradientUnits="userSpaceOnUse" gradientTransform="translate(77.1031 213.78) rotate(84.5862) scale(27.4259 42.4772)">
<stop stop-color="#FFBB0C"/>
<stop offset="1" stop-color="#FFC907"/>
</radialGradient>
<linearGradient id="paint1_linear_1568_12401" x1="77.1775" y1="148.828" x2="83.6443" y2="185.904" gradientUnits="userSpaceOnUse">
<stop stop-color="#FB39A2"/>
<stop offset="1" stop-color="#C520FF"/>
</linearGradient>
<linearGradient id="paint2_linear_1568_12401" x1="77.1775" y1="148.828" x2="96.5778" y2="189.784" gradientUnits="userSpaceOnUse">
<stop stop-color="#3A2EC0"/>
<stop offset="1" stop-color="#FF20C1"/>
</linearGradient>
<linearGradient id="paint3_linear_1568_12401" x1="28.5179" y1="72.2949" x2="28.5179" y2="121.17" gradientUnits="userSpaceOnUse">
<stop stop-color="#2D1D32"/>
<stop offset="1" stop-color="#221526"/>
</linearGradient>
<linearGradient id="paint4_linear_1568_12401" x1="124.314" y1="72.2949" x2="124.314" y2="121.17" gradientUnits="userSpaceOnUse">
<stop stop-color="#2D1D32"/>
<stop offset="1" stop-color="#221526"/>
</linearGradient>
<linearGradient id="paint5_linear_1568_12401" x1="60.9493" y1="18.1087" x2="72.5108" y2="35.236" gradientUnits="userSpaceOnUse">
<stop stop-color="white"/>
<stop offset="1" stop-color="white" stop-opacity="0"/>
</linearGradient>
</defs>
</svg>
