<svg width="300" height="300" viewBox="0 0 300 300" fill="none" xmlns="http://www.w3.org/2000/svg">
<g filter="url(#filter0_iii_1568_12401)">
<path fill-rule="evenodd" clip-rule="evenodd" d="M74.3399 172.473L74.3398 172.331V172.33C74.3398 132.882 96.3054 98.0659 126.549 86.321C126.583 86.308 126.616 86.2951 126.65 86.2824C133.214 83.7632 138.943 83.7818 146.614 83.8067C147.1 83.8083 147.594 83.8099 148.096 83.8109L148.096 83.8107C156.464 80.5233 166.446 84.1095 174.425 87.7256C192.244 95.7946 206.876 111.989 215.344 132.273C220.425 144.443 223.287 158.086 223.287 172.33V172.331C223.287 178.405 222.959 184.358 222.279 190.125C220.453 205.623 216.093 219.78 208.769 231.343C200.758 243.99 189.201 253.534 173.534 258.33C171.298 265.314 162.205 270.541 151.327 270.541C141.229 270.541 132.669 266.036 129.705 259.804C90.3391 251.104 74.3756 214.729 74.3399 172.473Z" fill="url(#paint0_radial_1568_12401)"/>
</g>
<g filter="url(#filter1_i_1568_12401)">
<path d="M138.053 173.354C140.066 173.354 141.738 171.703 141.306 169.736C140.62 166.615 139.055 163.726 136.76 161.431C133.598 158.269 129.309 156.492 124.837 156.492C120.365 156.492 116.076 158.269 112.913 161.431C110.737 163.608 109.216 166.319 108.48 169.256C107.924 171.473 109.828 173.354 112.115 173.354V173.354C114.258 173.354 115.923 171.537 116.834 169.596C117.265 168.679 117.855 167.833 118.585 167.103C120.243 165.445 122.492 164.514 124.837 164.514C127.181 164.514 129.43 165.445 131.088 167.103C131.7 167.715 132.213 168.407 132.617 169.155C133.764 171.282 135.636 173.354 138.053 173.354V173.354Z" fill="#C4C4C4"/>
<path d="M138.053 173.354C140.066 173.354 141.738 171.703 141.306 169.736C140.62 166.615 139.055 163.726 136.76 161.431C133.598 158.269 129.309 156.492 124.837 156.492C120.365 156.492 116.076 158.269 112.913 161.431C110.737 163.608 109.216 166.319 108.48 169.256C107.924 171.473 109.828 173.354 112.115 173.354V173.354C114.258 173.354 115.923 171.537 116.834 169.596C117.265 168.679 117.855 167.833 118.585 167.103C120.243 165.445 122.492 164.514 124.837 164.514C127.181 164.514 129.43 165.445 131.088 167.103C131.7 167.715 132.213 168.407 132.617 169.155C133.764 171.282 135.636 173.354 138.053 173.354V173.354Z" fill="#221725"/>
</g>
<g filter="url(#filter2_i_1568_12401)">
<path d="M185.462 173.354C187.476 173.354 189.147 171.703 188.715 169.736C188.03 166.615 186.464 163.726 184.169 161.431C181.007 158.269 176.718 156.492 172.246 156.492C167.774 156.492 163.485 158.269 160.323 161.431C158.146 163.608 156.626 166.319 155.889 169.256C155.334 171.473 157.237 173.354 159.524 173.354V173.354C161.667 173.354 163.332 171.537 164.244 169.596C164.675 168.679 165.264 167.833 165.995 167.103C167.653 165.445 169.901 164.514 172.246 164.514C174.591 164.514 176.839 165.445 178.497 167.103C179.109 167.715 179.622 168.407 180.026 169.155C181.173 171.282 183.045 173.354 185.462 173.354V173.354Z" fill="#C4C4C4"/>
<path d="M185.462 173.354C187.476 173.354 189.147 171.703 188.715 169.736C188.03 166.615 186.464 163.726 184.169 161.431C181.007 158.269 176.718 156.492 172.246 156.492C167.774 156.492 163.485 158.269 160.323 161.431C158.146 163.608 156.626 166.319 155.889 169.256C155.334 171.473 157.237 173.354 159.524 173.354V173.354C161.667 173.354 163.332 171.537 164.244 169.596C164.675 168.679 165.264 167.833 165.995 167.103C167.653 165.445 169.901 164.514 172.246 164.514C174.591 164.514 176.839 165.445 178.497 167.103C179.109 167.715 179.622 168.407 180.026 169.155C181.173 171.282 183.045 173.354 185.462 173.354V173.354Z" fill="#221725"/>
</g>
<mask id="mask0_1568_12401" style="mask-type:alpha" maskUnits="userSpaceOnUse" x="118" y="178" width="61" height="32">
<path d="M168.041 209.972C170.802 209.972 172.182 209.972 173.927 209.147C176.199 208.072 178.712 204.308 178.835 201.797C178.929 199.869 178.647 199.19 178.083 197.831C176.506 194.028 174.188 190.533 171.22 187.566C165.278 181.624 157.218 178.285 148.814 178.285C140.41 178.285 132.35 181.624 126.408 187.566C123.254 190.72 120.833 194.471 119.256 198.554C118.708 199.971 118.435 200.679 118.556 202.461C118.715 204.813 121.052 208.221 123.188 209.217C124.807 209.972 126.141 209.972 128.808 209.972L148.814 209.972L168.041 209.972Z" fill="url(#paint1_linear_1568_12401)"/>
</mask>
<g mask="url(#mask0_1568_12401)">
<g filter="url(#filter3_i_1568_12401)">
<path d="M168.041 209.972C170.802 209.972 172.182 209.972 173.927 209.147C176.199 208.072 178.712 204.308 178.835 201.797C178.929 199.869 178.647 199.19 178.083 197.831C176.506 194.028 174.188 190.533 171.22 187.566C165.278 181.624 157.218 178.285 148.814 178.285C140.41 178.285 132.35 181.624 126.408 187.566C123.254 190.72 120.833 194.471 119.256 198.554C118.708 199.971 118.435 200.679 118.556 202.461C118.715 204.813 121.052 208.221 123.188 209.217C124.807 209.972 126.141 209.972 128.808 209.972L148.814 209.972L168.041 209.972Z" fill="url(#paint2_linear_1568_12401)"/>
</g>
<g filter="url(#filter4_i_1568_12401)">
<path d="M179.441 180.147C180.64 182.897 178.708 186.045 175.708 186.045L122.398 186.045C119.471 186.045 116.327 183.629 117.764 181.078V181.078V181.078C118.889 179.083 119.059 175.698 121.35 175.698L177.543 175.698C179.204 175.698 178.777 178.624 179.441 180.147V180.147V180.147Z" fill="white"/>
</g>
</g>
<g filter="url(#filter5_dii_1568_12401)">
<path d="M100.155 147.375C100.155 149.171 101.617 150.65 103.398 150.411C105.492 150.131 107.546 149.579 109.507 148.767C112.471 147.539 115.165 145.739 117.435 143.47C119.704 141.201 121.504 138.507 122.732 135.542C123.544 133.581 124.096 131.527 124.376 129.433C124.615 127.652 123.136 126.19 121.339 126.19V126.19C119.543 126.19 118.116 127.658 117.792 129.425C117.565 130.665 117.206 131.881 116.721 133.052C115.82 135.228 114.499 137.204 112.834 138.869C111.169 140.535 109.192 141.855 107.017 142.757C105.846 143.241 104.63 143.6 103.39 143.827C101.623 144.151 100.155 145.578 100.155 147.375V147.375Z" fill="url(#paint3_linear_1568_12401)"/>
</g>
<g filter="url(#filter6_dii_1568_12401)">
<path d="M195.951 147.375C195.951 149.171 194.488 150.65 192.707 150.411C190.613 150.131 188.56 149.579 186.599 148.767C183.634 147.539 180.94 145.739 178.671 143.47C176.402 141.201 174.601 138.507 173.373 135.542C172.561 133.581 172.01 131.527 171.729 129.433C171.491 127.652 172.97 126.19 174.766 126.19V126.19C176.563 126.19 177.989 127.658 178.313 129.425C178.541 130.665 178.899 131.881 179.384 133.052C180.285 135.228 181.606 137.204 183.271 138.869C184.936 140.535 186.913 141.855 189.089 142.757C190.259 143.241 191.475 143.6 192.716 143.827C194.483 144.151 195.951 145.578 195.951 147.375V147.375Z" fill="url(#paint4_linear_1568_12401)"/>
</g>
<g filter="url(#filter7_i_1568_12401)">
<path d="M142.717 78.5716C152.311 71.826 148.379 56.5273 139.392 48.6095C130.414 40.6657 117.313 36.5613 116.072 37.4395C114.832 38.3178 111.556 55.6808 119.265 67.8176C126.973 79.9544 136.855 82.6997 142.717 78.5716Z" fill="#3D830B"/>
</g>
<path d="M142.359 78.2993L143.702 77.2817C147.983 82.9781 150.427 85.1494 150.453 85.1577L149.346 86.4227C149.241 86.3463 146.763 84.1496 142.359 78.2993Z" fill="#3D830B"/>
<g filter="url(#filter8_i_1568_12401)">
<path d="M153.11 81.8378C147.94 78.2025 150.059 69.9578 154.902 65.6907C159.74 61.4097 166.8 59.1977 167.469 59.671C168.138 60.1443 169.903 69.5016 165.749 76.0423C161.594 82.583 156.269 84.0625 153.11 81.8378Z" fill="#3D830B"/>
</g>
<path d="M153.303 81.6909L152.579 81.1425C150.272 84.2124 148.955 85.3825 148.941 85.387L149.537 86.0687C149.594 86.0275 150.929 84.8437 153.303 81.6909Z" fill="#3D830B"/>
<path d="M131.44 48.0201C131.343 47.8314 131.349 47.5896 131.467 47.3983C131.662 47.1025 132.049 47.0114 132.336 47.1892C134.189 48.3405 136.881 50.362 139.249 53.4836C142.1 57.2467 143.733 61.6375 144.112 66.5441C144.142 66.8976 143.878 67.1857 143.525 67.2159C143.171 67.2461 142.883 66.982 142.853 66.6285C142.07 56.1768 135.52 50.6289 131.694 48.2587C131.572 48.1911 131.485 48.1059 131.44 48.0201Z" fill="url(#paint5_linear_1568_12401)"/>
<g filter="url(#filter9_f_1568_12401)">
<ellipse cx="150.273" cy="86.059" rx="5.65996" ry="1.5024" fill="#744500" fill-opacity="0.6"/>
</g>
<g filter="url(#filter10_f_1568_12401)">
<path d="M130.136 257.868C132.825 267.751 146.246 269.862 152.802 270.541C169.75 270.541 177.466 259.346 179.206 253.749C211.471 243.697 222.973 201.773 226.316 184.91C199.939 223.715 125.834 234.938 92.1641 233.438C93.0251 240.707 119.375 253.838 130.136 257.868Z" fill="#EBAD1E"/>
</g>
<path d="M118.95 229.217C89.8119 229.217 76.8417 208.387 73.7337 194.67C73.4946 193.624 74.1521 192.548 75.198 192.309C76.244 192.07 77.3199 192.727 77.559 193.773C80.7567 207.819 95.3705 230.054 129.738 224.316C130.814 224.137 131.83 224.854 132.01 225.93C132.189 227.006 131.472 228.022 130.396 228.201C126.332 228.918 122.506 229.217 118.95 229.217Z" fill="#1D1D1D"/>
<path d="M127.737 234.237C121.999 234.237 118.861 231.309 118.323 228.26C117.755 225.122 119.787 220.849 127.348 219.116C128.394 218.876 129.47 219.534 129.709 220.58C129.948 221.626 129.291 222.702 128.245 222.941C123.702 223.987 121.939 226.079 122.208 227.573C122.507 229.276 125.346 230.741 129.59 230.203C130.665 230.083 131.652 230.83 131.771 231.906C131.921 232.982 131.144 233.968 130.068 234.088C129.261 234.178 128.484 234.237 127.737 234.237Z" fill="#1D1D1D"/>
<path d="M178.032 229.218C174.476 229.218 170.68 228.919 166.616 228.232C165.54 228.053 164.823 227.036 165.002 225.961C165.181 224.885 166.197 224.167 167.273 224.347C201.641 230.055 216.255 207.82 219.453 193.804C219.692 192.758 220.738 192.071 221.814 192.34C222.86 192.579 223.547 193.625 223.278 194.701C220.14 208.388 207.17 229.218 178.032 229.218Z" fill="#1D1D1D"/>
<path d="M169.247 234.237C168.5 234.237 167.723 234.178 166.916 234.088C165.84 233.939 165.063 232.982 165.213 231.906C165.362 230.83 166.319 230.053 167.394 230.203C171.638 230.741 174.477 229.276 174.776 227.573C175.045 226.079 173.252 223.987 168.739 222.941C167.693 222.702 167.036 221.656 167.275 220.58C167.514 219.534 168.59 218.876 169.636 219.116C177.197 220.849 179.229 225.152 178.661 228.26C178.123 231.309 174.985 234.237 169.247 234.237Z" fill="#1D1D1D"/>
<ellipse rx="4.47588" ry="3.04152" transform="matrix(0.769784 0.638304 0.638304 -0.769784 194.495 116.393)" fill="#878787" fill-opacity="0.2"/>
<ellipse rx="4.47588" ry="3.04152" transform="matrix(0.769784 0.638304 0.638304 -0.769784 210.054 133.063)" fill="#878787" fill-opacity="0.2"/>
<ellipse cx="89.4093" cy="136.259" rx="4.47588" ry="3.04152" transform="rotate(-39.6655 89.4093 136.259)" fill="#B77D00" fill-opacity="0.37"/>
<ellipse cx="102.589" cy="124.157" rx="4.47588" ry="3.04152" transform="rotate(-39.6655 102.589 124.157)" fill="#B77D00" fill-opacity="0.37"/>
<ellipse cx="114.319" cy="111.192" rx="4.47588" ry="3.04152" transform="rotate(-39.6655 114.319 111.192)" fill="#B77D00" fill-opacity="0.37"/>
<ellipse cx="100.183" cy="109.339" rx="4.47588" ry="3.04152" transform="rotate(-39.6655 100.183 109.339)" fill="#B77D00" fill-opacity="0.37"/>
<defs>
<filter id="filter0_iii_1568_12401" x="69.6975" y="74.919" width="162.452" height="202.375" filterUnits="userSpaceOnUse" color-interpolation-filters="sRGB">
<feFlood flood-opacity="0" result="BackgroundImageFix"/>
<feBlend mode="normal" in="SourceGraphic" in2="BackgroundImageFix" result="shape"/>
<feColorMatrix in="SourceAlpha" type="matrix" values="0 0 0 0 0 0 0 0 0 0 0 0 0 0 0 0 0 0 127 0" result="hardAlpha"/>
<feMorphology radius="3.37628" operator="erode" in="SourceAlpha" result="effect1_innerShadow_1568_12401"/>
<feOffset dx="8.86273" dy="5.48645"/>
<feGaussianBlur stdDeviation="10.1288"/>
<feComposite in2="hardAlpha" operator="arithmetic" k2="-1" k3="1"/>
<feColorMatrix type="matrix" values="0 0 0 0 0.682806 0 0 0 0 0.0652778 0 0 0 0 0.783333 0 0 0 0.14 0"/>
<feBlend mode="normal" in2="shape" result="effect1_innerShadow_1568_12401"/>
<feColorMatrix in="SourceAlpha" type="matrix" values="0 0 0 0 0 0 0 0 0 0 0 0 0 0 0 0 0 0 127 0" result="hardAlpha"/>
<feOffset dy="-7.59662"/>
<feGaussianBlur stdDeviation="6.54154"/>
<feComposite in2="hardAlpha" operator="arithmetic" k2="-1" k3="1"/>
<feColorMatrix type="matrix" values="0 0 0 0 0.943639 0 0 0 0 0.223611 0 0 0 0 0.958333 0 0 0 0.44 0"/>
<feBlend mode="normal" in2="effect1_innerShadow_1568_12401" result="effect2_innerShadow_1568_12401"/>
<feColorMatrix in="SourceAlpha" type="matrix" values="0 0 0 0 0 0 0 0 0 0 0 0 0 0 0 0 0 0 127 0" result="hardAlpha"/>
<feOffset dx="-4.64238" dy="6.75255"/>
<feGaussianBlur stdDeviation="6.54154"/>
<feComposite in2="hardAlpha" operator="arithmetic" k2="-1" k3="1"/>
<feColorMatrix type="matrix" values="0 0 0 0 1 0 0 0 0 1 0 0 0 0 1 0 0 0 0.59 0"/>
<feBlend mode="normal" in2="effect2_innerShadow_1568_12401" result="effect3_innerShadow_1568_12401"/>
</filter>
<filter id="filter1_i_1568_12401" x="108.383" y="156.492" width="32.9922" height="16.8623" filterUnits="userSpaceOnUse" color-interpolation-filters="sRGB">
<feFlood flood-opacity="0" result="BackgroundImageFix"/>
<feBlend mode="normal" in="SourceGraphic" in2="BackgroundImageFix" result="shape"/>
<feColorMatrix in="SourceAlpha" type="matrix" values="0 0 0 0 0 0 0 0 0 0 0 0 0 0 0 0 0 0 127 0" result="hardAlpha"/>
<feMorphology radius="12.9276" operator="dilate" in="SourceAlpha" result="effect1_innerShadow_1568_12401"/>
<feOffset dx="4.49655" dy="-3.42129"/>
<feGaussianBlur stdDeviation="5.05862"/>
<feComposite in2="hardAlpha" operator="arithmetic" k2="-1" k3="1"/>
<feColorMatrix type="matrix" values="0 0 0 0 0.462111 0 0 0 0 0.203767 0 0 0 0 0.504167 0 0 0 0.35 0"/>
<feBlend mode="normal" in2="shape" result="effect1_innerShadow_1568_12401"/>
</filter>
<filter id="filter2_i_1568_12401" x="155.792" y="156.492" width="32.9922" height="16.8623" filterUnits="userSpaceOnUse" color-interpolation-filters="sRGB">
<feFlood flood-opacity="0" result="BackgroundImageFix"/>
<feBlend mode="normal" in="SourceGraphic" in2="BackgroundImageFix" result="shape"/>
<feColorMatrix in="SourceAlpha" type="matrix" values="0 0 0 0 0 0 0 0 0 0 0 0 0 0 0 0 0 0 127 0" result="hardAlpha"/>
<feMorphology radius="12.9276" operator="dilate" in="SourceAlpha" result="effect1_innerShadow_1568_12401"/>
<feOffset dx="4.49655" dy="-4.3988"/>
<feGaussianBlur stdDeviation="5.05862"/>
<feComposite in2="hardAlpha" operator="arithmetic" k2="-1" k3="1"/>
<feColorMatrix type="matrix" values="0 0 0 0 0.462111 0 0 0 0 0.203767 0 0 0 0 0.504167 0 0 0 0.35 0"/>
<feBlend mode="normal" in2="shape" result="effect1_innerShadow_1568_12401"/>
</filter>
<filter id="filter3_i_1568_12401" x="118.527" y="178.285" width="60.3252" height="33.8358" filterUnits="userSpaceOnUse" color-interpolation-filters="sRGB">
<feFlood flood-opacity="0" result="BackgroundImageFix"/>
<feBlend mode="normal" in="SourceGraphic" in2="BackgroundImageFix" result="shape"/>
<feColorMatrix in="SourceAlpha" type="matrix" values="0 0 0 0 0 0 0 0 0 0 0 0 0 0 0 0 0 0 127 0" result="hardAlpha"/>
<feOffset dy="2.14829"/>
<feGaussianBlur stdDeviation="4.29658"/>
<feComposite in2="hardAlpha" operator="arithmetic" k2="-1" k3="1"/>
<feColorMatrix type="matrix" values="0 0 0 0 0 0 0 0 0 0 0 0 0 0 0 0 0 0 0.25 0"/>
<feBlend mode="normal" in2="shape" result="effect1_innerShadow_1568_12401"/>
</filter>
<filter id="filter4_i_1568_12401" x="117.405" y="174.087" width="62.3965" height="11.9579" filterUnits="userSpaceOnUse" color-interpolation-filters="sRGB">
<feFlood flood-opacity="0" result="BackgroundImageFix"/>
<feBlend mode="normal" in="SourceGraphic" in2="BackgroundImageFix" result="shape"/>
<feColorMatrix in="SourceAlpha" type="matrix" values="0 0 0 0 0 0 0 0 0 0 0 0 0 0 0 0 0 0 127 0" result="hardAlpha"/>
<feOffset dy="-1.61122"/>
<feGaussianBlur stdDeviation="4.29658"/>
<feComposite in2="hardAlpha" operator="arithmetic" k2="-1" k3="1"/>
<feColorMatrix type="matrix" values="0 0 0 0 0 0 0 0 0 0 0 0 0 0 0 0 0 0 0.47 0"/>
<feBlend mode="normal" in2="shape" result="effect1_innerShadow_1568_12401"/>
</filter>
<filter id="filter5_dii_1568_12401" x="89.8904" y="120.324" width="50.6399" height="50.6399" filterUnits="userSpaceOnUse" color-interpolation-filters="sRGB">
<feFlood flood-opacity="0" result="BackgroundImageFix"/>
<feColorMatrix in="SourceAlpha" type="matrix" values="0 0 0 0 0 0 0 0 0 0 0 0 0 0 0 0 0 0 127 0" result="hardAlpha"/>
<feOffset dx="2.93253" dy="7.33133"/>
<feGaussianBlur stdDeviation="6.5982"/>
<feColorMatrix type="matrix" values="0 0 0 0 0.0313726 0 0 0 0 0.02 0 0 0 0 0.0352941 0 0 0 0.25 0"/>
<feBlend mode="normal" in2="BackgroundImageFix" result="effect1_dropShadow_1568_12401"/>
<feBlend mode="normal" in="SourceGraphic" in2="effect1_dropShadow_1568_12401" result="shape"/>
<feColorMatrix in="SourceAlpha" type="matrix" values="0 0 0 0 0 0 0 0 0 0 0 0 0 0 0 0 0 0 127 0" result="hardAlpha"/>
<feOffset dy="2.17225"/>
<feGaussianBlur stdDeviation="1.08612"/>
<feComposite in2="hardAlpha" operator="arithmetic" k2="-1" k3="1"/>
<feColorMatrix type="matrix" values="0 0 0 0 0.181961 0 0 0 0 0.116 0 0 0 0 0.204706 0 0 0 1 0"/>
<feBlend mode="normal" in2="shape" result="effect2_innerShadow_1568_12401"/>
<feColorMatrix in="SourceAlpha" type="matrix" values="0 0 0 0 0 0 0 0 0 0 0 0 0 0 0 0 0 0 127 0" result="hardAlpha"/>
<feOffset dy="-2.17225"/>
<feGaussianBlur stdDeviation="1.08612"/>
<feComposite in2="hardAlpha" operator="arithmetic" k2="-1" k3="1"/>
<feColorMatrix type="matrix" values="0 0 0 0 0.12549 0 0 0 0 0.08 0 0 0 0 0.141176 0 0 0 1 0"/>
<feBlend mode="normal" in2="effect2_innerShadow_1568_12401" result="effect3_innerShadow_1568_12401"/>
</filter>
<filter id="filter6_dii_1568_12401" x="161.44" y="120.324" width="50.6399" height="50.6399" filterUnits="userSpaceOnUse" color-interpolation-filters="sRGB">
<feFlood flood-opacity="0" result="BackgroundImageFix"/>
<feColorMatrix in="SourceAlpha" type="matrix" values="0 0 0 0 0 0 0 0 0 0 0 0 0 0 0 0 0 0 127 0" result="hardAlpha"/>
<feOffset dx="2.93253" dy="7.33133"/>
<feGaussianBlur stdDeviation="6.5982"/>
<feColorMatrix type="matrix" values="0 0 0 0 0.0313726 0 0 0 0 0.02 0 0 0 0 0.0352941 0 0 0 0.25 0"/>
<feBlend mode="normal" in2="BackgroundImageFix" result="effect1_dropShadow_1568_12401"/>
<feBlend mode="normal" in="SourceGraphic" in2="effect1_dropShadow_1568_12401" result="shape"/>
<feColorMatrix in="SourceAlpha" type="matrix" values="0 0 0 0 0 0 0 0 0 0 0 0 0 0 0 0 0 0 127 0" result="hardAlpha"/>
<feOffset dy="2.17225"/>
<feGaussianBlur stdDeviation="1.08612"/>
<feComposite in2="hardAlpha" operator="arithmetic" k2="-1" k3="1"/>
<feColorMatrix type="matrix" values="0 0 0 0 0.181961 0 0 0 0 0.116 0 0 0 0 0.204706 0 0 0 1 0"/>
<feBlend mode="normal" in2="shape" result="effect2_innerShadow_1568_12401"/>
<feColorMatrix in="SourceAlpha" type="matrix" values="0 0 0 0 0 0 0 0 0 0 0 0 0 0 0 0 0 0 127 0" result="hardAlpha"/>
<feOffset dy="-2.17225"/>
<feGaussianBlur stdDeviation="1.08612"/>
<feComposite in2="hardAlpha" operator="arithmetic" k2="-1" k3="1"/>
<feColorMatrix type="matrix" values="0 0 0 0 0.12549 0 0 0 0 0.08 0 0 0 0 0.141176 0 0 0 1 0"/>
<feBlend mode="normal" in2="effect2_innerShadow_1568_12401" result="effect3_innerShadow_1568_12401"/>
</filter>
<filter id="filter7_i_1568_12401" x="114.312" y="37.3223" width="37.4425" height="44.7828" filterUnits="userSpaceOnUse" color-interpolation-filters="sRGB">
<feFlood flood-opacity="0" result="BackgroundImageFix"/>
<feBlend mode="normal" in="SourceGraphic" in2="BackgroundImageFix" result="shape"/>
<feColorMatrix in="SourceAlpha" type="matrix" values="0 0 0 0 0 0 0 0 0 0 0 0 0 0 0 0 0 0 127 0" result="hardAlpha"/>
<feOffset dx="3.4738" dy="1.7369"/>
<feGaussianBlur stdDeviation="4.82472"/>
<feComposite in2="hardAlpha" operator="arithmetic" k2="-1" k3="1"/>
<feColorMatrix type="matrix" values="0 0 0 0 0 0 0 0 0 0 0 0 0 0 0 0 0 0 0.25 0"/>
<feBlend mode="normal" in2="shape" result="effect1_innerShadow_1568_12401"/>
</filter>
<filter id="filter8_i_1568_12401" x="150.111" y="59.6084" width="20.1787" height="24.1333" filterUnits="userSpaceOnUse" color-interpolation-filters="sRGB">
<feFlood flood-opacity="0" result="BackgroundImageFix"/>
<feBlend mode="normal" in="SourceGraphic" in2="BackgroundImageFix" result="shape"/>
<feColorMatrix in="SourceAlpha" type="matrix" values="0 0 0 0 0 0 0 0 0 0 0 0 0 0 0 0 0 0 127 0" result="hardAlpha"/>
<feOffset dx="1.87209" dy="0.936044"/>
<feGaussianBlur stdDeviation="2.60012"/>
<feComposite in2="hardAlpha" operator="arithmetic" k2="-1" k3="1"/>
<feColorMatrix type="matrix" values="0 0 0 0 0 0 0 0 0 0 0 0 0 0 0 0 0 0 0.25 0"/>
<feBlend mode="normal" in2="shape" result="effect1_innerShadow_1568_12401"/>
</filter>
<filter id="filter9_f_1568_12401" x="142.613" y="82.5566" width="15.3203" height="7.00488" filterUnits="userSpaceOnUse" color-interpolation-filters="sRGB">
<feFlood flood-opacity="0" result="BackgroundImageFix"/>
<feBlend mode="normal" in="SourceGraphic" in2="BackgroundImageFix" result="shape"/>
<feGaussianBlur stdDeviation="1" result="effect1_foregroundBlur_1568_12401"/>
</filter>
<filter id="filter10_f_1568_12401" x="72.1641" y="164.91" width="174.151" height="125.631" filterUnits="userSpaceOnUse" color-interpolation-filters="sRGB">
<feFlood flood-opacity="0" result="BackgroundImageFix"/>
<feBlend mode="normal" in="SourceGraphic" in2="BackgroundImageFix" result="shape"/>
<feGaussianBlur stdDeviation="10" result="effect1_foregroundBlur_1568_12401"/>
</filter>
<radialGradient id="paint0_radial_1568_12401" cx="0" cy="0" r="1" gradientUnits="userSpaceOnUse" gradientTransform="translate(148.74 243.237) rotate(84.5862) scale(27.4259 42.4772)">
<stop stop-color="#FFBB0C"/>
<stop offset="1" stop-color="#FFC907"/>
</radialGradient>
<linearGradient id="paint1_linear_1568_12401" x1="148.814" y1="178.285" x2="155.281" y2="215.361" gradientUnits="userSpaceOnUse">
<stop stop-color="#FB39A2"/>
<stop offset="1" stop-color="#C520FF"/>
</linearGradient>
<linearGradient id="paint2_linear_1568_12401" x1="148.814" y1="178.285" x2="148.814" y2="209.972" gradientUnits="userSpaceOnUse">
<stop stop-color="#201721"/>
<stop offset="1" stop-color="#2B1F2C"/>
</linearGradient>
<linearGradient id="paint3_linear_1568_12401" x1="100.155" y1="101.752" x2="100.155" y2="150.628" gradientUnits="userSpaceOnUse">
<stop stop-color="#2D1D32"/>
<stop offset="1" stop-color="#221526"/>
</linearGradient>
<linearGradient id="paint4_linear_1568_12401" x1="195.951" y1="101.752" x2="195.951" y2="150.628" gradientUnits="userSpaceOnUse">
<stop stop-color="#2D1D32"/>
<stop offset="1" stop-color="#221526"/>
</linearGradient>
<linearGradient id="paint5_linear_1568_12401" x1="132.586" y1="47.5647" x2="144.148" y2="64.6921" gradientUnits="userSpaceOnUse">
<stop stop-color="white"/>
<stop offset="1" stop-color="white" stop-opacity="0"/>
</linearGradient>
</defs>
</svg>
