<svg width="300" height="300" viewBox="0 0 300 300" fill="none" xmlns="http://www.w3.org/2000/svg">
<g filter="url(#filter0_iii_1568_12475)">
<path fill-rule="evenodd" clip-rule="evenodd" d="M64.8477 172.483L64.8477 172.34V172.34C64.8477 132.892 86.8132 98.0757 117.057 86.3308C117.091 86.3178 117.124 86.3049 117.158 86.2921C123.722 83.773 129.45 83.7916 137.122 83.8165C137.608 83.8181 138.101 83.8197 138.604 83.8207L138.604 83.8204C146.972 80.5331 156.954 84.1193 164.933 87.7354C182.752 95.8044 197.384 111.998 205.852 132.283C210.933 144.453 213.795 158.096 213.795 172.34V172.34C213.795 178.415 213.466 184.368 212.787 190.135C210.961 205.633 206.601 219.79 199.277 231.352C191.266 244 179.709 253.543 164.042 258.34C161.806 265.323 152.713 270.551 141.835 270.551C131.737 270.551 123.177 266.046 120.213 259.813C80.8469 251.114 64.8834 214.739 64.8477 172.483Z" fill="url(#paint0_radial_1568_12475)"/>
</g>
<ellipse cx="74.6466" cy="187.072" rx="4.47588" ry="3.04152" transform="rotate(-39.6655 74.6466 187.072)" fill="#878787" fill-opacity="0.2"/>
<ellipse cx="90.2052" cy="170.401" rx="4.47588" ry="3.04152" transform="rotate(-39.6655 90.2052 170.401)" fill="#878787" fill-opacity="0.2"/>
<ellipse cx="73.1427" cy="160.003" rx="4.47588" ry="3.04152" transform="rotate(-39.6655 73.1427 160.003)" fill="#B77D00" fill-opacity="0.37"/>
<ellipse cx="86.3224" cy="147.901" rx="4.47588" ry="3.04152" transform="rotate(-39.6655 86.3224 147.901)" fill="#B77D00" fill-opacity="0.37"/>
<ellipse cx="83.9162" cy="133.083" rx="4.47588" ry="3.04152" transform="rotate(-39.6655 83.9162 133.083)" fill="#B77D00" fill-opacity="0.37"/>
<path d="M132.867 78.2934L134.21 77.2759C138.491 82.9722 140.934 85.1435 140.96 85.1518L139.854 86.4168C139.749 86.3404 137.271 84.1437 132.867 78.2934Z" fill="#318C1C"/>
<g filter="url(#filter1_i_1568_12475)">
<path d="M133.225 78.5658C142.819 71.8201 138.887 56.5214 129.9 48.6037C120.922 40.6599 107.821 36.5554 106.58 37.4337C105.339 38.3119 102.064 55.6749 109.772 67.8117C117.481 79.9485 127.363 82.6939 133.225 78.5658Z" fill="#3D830B"/>
</g>
<path d="M132.867 78.2934L134.21 77.2759C138.491 82.9722 140.934 85.1435 140.96 85.1518L139.854 86.4168C139.749 86.3404 137.271 84.1437 132.867 78.2934Z" fill="#3D830B"/>
<g filter="url(#filter2_i_1568_12475)">
<path d="M143.618 81.832C138.447 78.1966 140.567 69.9519 145.41 65.6849C150.248 61.4038 157.308 59.1919 157.977 59.6652C158.646 60.1385 160.411 69.4957 156.257 76.0364C152.102 82.5772 146.777 84.0567 143.618 81.832Z" fill="#3D830B"/>
</g>
<path d="M143.81 81.685L143.087 81.1366C140.779 84.2065 139.463 85.3766 139.449 85.3811L140.045 86.0629C140.102 86.0217 141.437 84.8378 143.81 81.685Z" fill="#3D830B"/>
<path d="M121.948 48.0142C121.851 47.8255 121.857 47.5838 121.975 47.3924C122.17 47.0966 122.557 47.0056 122.844 47.1833C124.697 48.3346 127.388 50.3562 129.757 53.4778C132.608 57.2409 134.241 61.6316 134.62 66.5382C134.65 66.8918 134.386 67.1798 134.033 67.21C133.679 67.2402 133.391 66.9761 133.361 66.6226C132.578 56.1709 126.028 50.623 122.201 48.2528C122.08 48.1852 121.992 48.1 121.948 48.0142Z" fill="url(#paint1_linear_1568_12475)"/>
<g filter="url(#filter3_f_1568_12475)">
<ellipse cx="140.781" cy="86.0532" rx="5.65996" ry="1.5024" fill="#744500" fill-opacity="0.6"/>
</g>
<path d="M109.458 229.227C80.3197 229.227 67.3495 208.397 64.2415 194.68C64.0024 193.634 64.6599 192.558 65.7058 192.319C66.7518 192.08 67.8277 192.737 68.0668 193.783C71.2645 207.829 85.8783 230.064 120.246 224.326C121.322 224.146 122.338 224.864 122.518 225.939C122.697 227.015 121.98 228.031 120.904 228.211C116.839 228.928 113.014 229.227 109.458 229.227Z" fill="#1D1D1D"/>
<path d="M118.245 234.247C112.507 234.247 109.369 231.318 108.831 228.27C108.263 225.132 110.295 220.859 117.856 219.125C118.902 218.886 119.978 219.544 120.217 220.59C120.456 221.636 119.799 222.711 118.753 222.951C114.21 223.997 112.447 226.088 112.716 227.583C113.015 229.286 115.854 230.751 120.097 230.213C121.173 230.093 122.159 230.84 122.279 231.916C122.428 232.992 121.651 233.978 120.576 234.098C119.769 234.187 118.992 234.247 118.245 234.247Z" fill="#1D1D1D"/>
<path d="M211.049 134.355C208.21 134.355 205.072 134.594 201.545 135.132C200.469 135.281 199.722 136.297 199.902 137.373C200.051 138.449 201.067 139.196 202.143 139.017C217.623 136.656 227.844 140.123 230.922 148.76C232.865 154.199 231.909 161.491 228.292 168.812C224.676 176.194 218.819 182.649 212.244 186.534C211.318 187.072 210.989 188.298 211.557 189.224C212.095 190.15 213.32 190.479 214.246 189.911C221.449 185.668 227.874 178.615 231.819 170.546C235.883 162.297 236.899 153.87 234.598 147.445C232.775 142.215 227.276 134.355 211.049 134.355Z" fill="#1D1D1D"/>
<path d="M193.745 124.194C192.789 124.194 191.952 124.882 191.803 125.868C191.653 126.944 192.371 127.93 193.447 128.109C199.782 129.066 199.902 137.075 199.902 137.433C199.902 138.509 200.798 139.376 201.874 139.376C202.95 139.376 203.847 138.509 203.847 137.404C203.847 133.339 201.814 125.39 194.074 124.194C193.925 124.224 193.835 124.194 193.745 124.194Z" fill="#1D1D1D"/>
<g filter="url(#filter4_f_1568_12475)">
<path d="M117.638 257.914C120.848 266.411 134.207 269.669 140.485 270.237C156.715 270.237 164.104 260.893 165.77 256.222C196.668 247.832 207.683 212.842 210.884 198.768C185.625 231.154 117.934 241.491 85.6904 240.239C86.515 246.305 107.333 254.55 117.638 257.914Z" fill="#EBAD1E"/>
</g>
<g filter="url(#filter5_d_1568_12475)">
<g filter="url(#filter6_i_1568_12475)">
<circle cx="115.814" cy="141.696" r="19.3019" fill="#FAFAFA"/>
</g>
<g filter="url(#filter7_i_1568_12475)">
<rect x="105.547" y="131.43" width="20.5237" height="20.5237" rx="10.2618" fill="#2C2F36"/>
</g>
</g>
<g filter="url(#filter8_d_1568_12475)">
<g filter="url(#filter9_i_1568_12475)">
<circle cx="162.572" cy="141.696" r="19.3019" fill="#FAFAFA"/>
</g>
<g filter="url(#filter10_i_1568_12475)">
<rect x="152.306" y="131.43" width="20.5237" height="20.5237" rx="10.2618" fill="#2C2F36"/>
</g>
</g>
<g filter="url(#filter11_ii_1568_12475)">
<rect x="103.439" y="167.453" width="70.9656" height="9.57472" rx="4.78736" fill="url(#paint2_linear_1568_12475)"/>
</g>
<defs>
<filter id="filter0_iii_1568_12475" x="60.2053" y="74.9288" width="162.452" height="202.375" filterUnits="userSpaceOnUse" color-interpolation-filters="sRGB">
<feFlood flood-opacity="0" result="BackgroundImageFix"/>
<feBlend mode="normal" in="SourceGraphic" in2="BackgroundImageFix" result="shape"/>
<feColorMatrix in="SourceAlpha" type="matrix" values="0 0 0 0 0 0 0 0 0 0 0 0 0 0 0 0 0 0 127 0" result="hardAlpha"/>
<feMorphology radius="3.37628" operator="erode" in="SourceAlpha" result="effect1_innerShadow_1568_12475"/>
<feOffset dx="8.86273" dy="5.48645"/>
<feGaussianBlur stdDeviation="10.1288"/>
<feComposite in2="hardAlpha" operator="arithmetic" k2="-1" k3="1"/>
<feColorMatrix type="matrix" values="0 0 0 0 0.682806 0 0 0 0 0.0652778 0 0 0 0 0.783333 0 0 0 0.14 0"/>
<feBlend mode="normal" in2="shape" result="effect1_innerShadow_1568_12475"/>
<feColorMatrix in="SourceAlpha" type="matrix" values="0 0 0 0 0 0 0 0 0 0 0 0 0 0 0 0 0 0 127 0" result="hardAlpha"/>
<feOffset dy="-7.59662"/>
<feGaussianBlur stdDeviation="6.54154"/>
<feComposite in2="hardAlpha" operator="arithmetic" k2="-1" k3="1"/>
<feColorMatrix type="matrix" values="0 0 0 0 0.943639 0 0 0 0 0.223611 0 0 0 0 0.958333 0 0 0 0.44 0"/>
<feBlend mode="normal" in2="effect1_innerShadow_1568_12475" result="effect2_innerShadow_1568_12475"/>
<feColorMatrix in="SourceAlpha" type="matrix" values="0 0 0 0 0 0 0 0 0 0 0 0 0 0 0 0 0 0 127 0" result="hardAlpha"/>
<feOffset dx="-4.64238" dy="6.75255"/>
<feGaussianBlur stdDeviation="6.54154"/>
<feComposite in2="hardAlpha" operator="arithmetic" k2="-1" k3="1"/>
<feColorMatrix type="matrix" values="0 0 0 0 1 0 0 0 0 1 0 0 0 0 1 0 0 0 0.59 0"/>
<feBlend mode="normal" in2="effect2_innerShadow_1568_12475" result="effect3_innerShadow_1568_12475"/>
</filter>
<filter id="filter1_i_1568_12475" x="104.82" y="37.3164" width="37.4425" height="44.7828" filterUnits="userSpaceOnUse" color-interpolation-filters="sRGB">
<feFlood flood-opacity="0" result="BackgroundImageFix"/>
<feBlend mode="normal" in="SourceGraphic" in2="BackgroundImageFix" result="shape"/>
<feColorMatrix in="SourceAlpha" type="matrix" values="0 0 0 0 0 0 0 0 0 0 0 0 0 0 0 0 0 0 127 0" result="hardAlpha"/>
<feOffset dx="3.4738" dy="1.7369"/>
<feGaussianBlur stdDeviation="4.82472"/>
<feComposite in2="hardAlpha" operator="arithmetic" k2="-1" k3="1"/>
<feColorMatrix type="matrix" values="0 0 0 0 0 0 0 0 0 0 0 0 0 0 0 0 0 0 0.25 0"/>
<feBlend mode="normal" in2="shape" result="effect1_innerShadow_1568_12475"/>
</filter>
<filter id="filter2_i_1568_12475" x="140.619" y="59.6025" width="20.1787" height="24.1333" filterUnits="userSpaceOnUse" color-interpolation-filters="sRGB">
<feFlood flood-opacity="0" result="BackgroundImageFix"/>
<feBlend mode="normal" in="SourceGraphic" in2="BackgroundImageFix" result="shape"/>
<feColorMatrix in="SourceAlpha" type="matrix" values="0 0 0 0 0 0 0 0 0 0 0 0 0 0 0 0 0 0 127 0" result="hardAlpha"/>
<feOffset dx="1.87209" dy="0.936044"/>
<feGaussianBlur stdDeviation="2.60012"/>
<feComposite in2="hardAlpha" operator="arithmetic" k2="-1" k3="1"/>
<feColorMatrix type="matrix" values="0 0 0 0 0 0 0 0 0 0 0 0 0 0 0 0 0 0 0.25 0"/>
<feBlend mode="normal" in2="shape" result="effect1_innerShadow_1568_12475"/>
</filter>
<filter id="filter3_f_1568_12475" x="133.121" y="82.5508" width="15.3203" height="7.00488" filterUnits="userSpaceOnUse" color-interpolation-filters="sRGB">
<feFlood flood-opacity="0" result="BackgroundImageFix"/>
<feBlend mode="normal" in="SourceGraphic" in2="BackgroundImageFix" result="shape"/>
<feGaussianBlur stdDeviation="1" result="effect1_foregroundBlur_1568_12475"/>
</filter>
<filter id="filter4_f_1568_12475" x="65.6904" y="178.768" width="165.193" height="111.469" filterUnits="userSpaceOnUse" color-interpolation-filters="sRGB">
<feFlood flood-opacity="0" result="BackgroundImageFix"/>
<feBlend mode="normal" in="SourceGraphic" in2="BackgroundImageFix" result="shape"/>
<feGaussianBlur stdDeviation="10" result="effect1_foregroundBlur_1568_12475"/>
</filter>
<filter id="filter5_d_1568_12475" x="88.4289" y="116.013" width="54.7691" height="54.7691" filterUnits="userSpaceOnUse" color-interpolation-filters="sRGB">
<feFlood flood-opacity="0" result="BackgroundImageFix"/>
<feColorMatrix in="SourceAlpha" type="matrix" values="0 0 0 0 0 0 0 0 0 0 0 0 0 0 0 0 0 0 127 0" result="hardAlpha"/>
<feOffset dy="1.70164"/>
<feGaussianBlur stdDeviation="4.04139"/>
<feColorMatrix type="matrix" values="0 0 0 0 0 0 0 0 0 0 0 0 0 0 0 0 0 0 0.25 0"/>
<feBlend mode="normal" in2="BackgroundImageFix" result="effect1_dropShadow_1568_12475"/>
<feBlend mode="normal" in="SourceGraphic" in2="effect1_dropShadow_1568_12475" result="shape"/>
</filter>
<filter id="filter6_i_1568_12475" x="96.5117" y="120.395" width="38.6035" height="40.6029" filterUnits="userSpaceOnUse" color-interpolation-filters="sRGB">
<feFlood flood-opacity="0" result="BackgroundImageFix"/>
<feBlend mode="normal" in="SourceGraphic" in2="BackgroundImageFix" result="shape"/>
<feColorMatrix in="SourceAlpha" type="matrix" values="0 0 0 0 0 0 0 0 0 0 0 0 0 0 0 0 0 0 127 0" result="hardAlpha"/>
<feOffset dy="-1.99943"/>
<feGaussianBlur stdDeviation="4.99857"/>
<feComposite in2="hardAlpha" operator="arithmetic" k2="-1" k3="1"/>
<feColorMatrix type="matrix" values="0 0 0 0 0 0 0 0 0 0 0 0 0 0 0 0 0 0 0.25 0"/>
<feBlend mode="normal" in2="shape" result="effect1_innerShadow_1568_12475"/>
</filter>
<filter id="filter7_i_1568_12475" x="105.547" y="131.43" width="20.5234" height="20.5234" filterUnits="userSpaceOnUse" color-interpolation-filters="sRGB">
<feFlood flood-opacity="0" result="BackgroundImageFix"/>
<feBlend mode="normal" in="SourceGraphic" in2="BackgroundImageFix" result="shape"/>
<feColorMatrix in="SourceAlpha" type="matrix" values="0 0 0 0 0 0 0 0 0 0 0 0 0 0 0 0 0 0 127 0" result="hardAlpha"/>
<feMorphology radius="17.5726" operator="dilate" in="SourceAlpha" result="effect1_innerShadow_1568_12475"/>
<feOffset dx="6.11222" dy="-18.3367"/>
<feGaussianBlur stdDeviation="6.87625"/>
<feComposite in2="hardAlpha" operator="arithmetic" k2="-1" k3="1"/>
<feColorMatrix type="matrix" values="0 0 0 0 0.462111 0 0 0 0 0.203767 0 0 0 0 0.504167 0 0 0 0.35 0"/>
<feBlend mode="normal" in2="shape" result="effect1_innerShadow_1568_12475"/>
</filter>
<filter id="filter8_d_1568_12475" x="135.188" y="116.013" width="54.7691" height="54.7691" filterUnits="userSpaceOnUse" color-interpolation-filters="sRGB">
<feFlood flood-opacity="0" result="BackgroundImageFix"/>
<feColorMatrix in="SourceAlpha" type="matrix" values="0 0 0 0 0 0 0 0 0 0 0 0 0 0 0 0 0 0 127 0" result="hardAlpha"/>
<feOffset dy="1.70164"/>
<feGaussianBlur stdDeviation="4.04139"/>
<feColorMatrix type="matrix" values="0 0 0 0 0 0 0 0 0 0 0 0 0 0 0 0 0 0 0.25 0"/>
<feBlend mode="normal" in2="BackgroundImageFix" result="effect1_dropShadow_1568_12475"/>
<feBlend mode="normal" in="SourceGraphic" in2="effect1_dropShadow_1568_12475" result="shape"/>
</filter>
<filter id="filter9_i_1568_12475" x="143.271" y="120.395" width="38.6035" height="40.6029" filterUnits="userSpaceOnUse" color-interpolation-filters="sRGB">
<feFlood flood-opacity="0" result="BackgroundImageFix"/>
<feBlend mode="normal" in="SourceGraphic" in2="BackgroundImageFix" result="shape"/>
<feColorMatrix in="SourceAlpha" type="matrix" values="0 0 0 0 0 0 0 0 0 0 0 0 0 0 0 0 0 0 127 0" result="hardAlpha"/>
<feOffset dy="-1.99943"/>
<feGaussianBlur stdDeviation="4.99857"/>
<feComposite in2="hardAlpha" operator="arithmetic" k2="-1" k3="1"/>
<feColorMatrix type="matrix" values="0 0 0 0 0 0 0 0 0 0 0 0 0 0 0 0 0 0 0.25 0"/>
<feBlend mode="normal" in2="shape" result="effect1_innerShadow_1568_12475"/>
</filter>
<filter id="filter10_i_1568_12475" x="152.306" y="131.43" width="20.5234" height="20.5234" filterUnits="userSpaceOnUse" color-interpolation-filters="sRGB">
<feFlood flood-opacity="0" result="BackgroundImageFix"/>
<feBlend mode="normal" in="SourceGraphic" in2="BackgroundImageFix" result="shape"/>
<feColorMatrix in="SourceAlpha" type="matrix" values="0 0 0 0 0 0 0 0 0 0 0 0 0 0 0 0 0 0 127 0" result="hardAlpha"/>
<feMorphology radius="17.5726" operator="dilate" in="SourceAlpha" result="effect1_innerShadow_1568_12475"/>
<feOffset dx="6.11222" dy="-18.3367"/>
<feGaussianBlur stdDeviation="6.87625"/>
<feComposite in2="hardAlpha" operator="arithmetic" k2="-1" k3="1"/>
<feColorMatrix type="matrix" values="0 0 0 0 0.462111 0 0 0 0 0.203767 0 0 0 0 0.504167 0 0 0 0.35 0"/>
<feBlend mode="normal" in2="shape" result="effect1_innerShadow_1568_12475"/>
</filter>
<filter id="filter11_ii_1568_12475" x="103.439" y="167.453" width="70.9658" height="9.5752" filterUnits="userSpaceOnUse" color-interpolation-filters="sRGB">
<feFlood flood-opacity="0" result="BackgroundImageFix"/>
<feBlend mode="normal" in="SourceGraphic" in2="BackgroundImageFix" result="shape"/>
<feColorMatrix in="SourceAlpha" type="matrix" values="0 0 0 0 0 0 0 0 0 0 0 0 0 0 0 0 0 0 127 0" result="hardAlpha"/>
<feMorphology radius="14.8971" operator="dilate" in="SourceAlpha" result="effect1_innerShadow_1568_12475"/>
<feOffset dy="15.7701"/>
<feGaussianBlur stdDeviation="3.94253"/>
<feComposite in2="hardAlpha" operator="arithmetic" k2="-1" k3="1"/>
<feColorMatrix type="matrix" values="0 0 0 0 0.3625 0 0 0 0 0.3625 0 0 0 0 0.3625 0 0 0 0.97 0"/>
<feBlend mode="normal" in2="shape" result="effect1_innerShadow_1568_12475"/>
<feColorMatrix in="SourceAlpha" type="matrix" values="0 0 0 0 0 0 0 0 0 0 0 0 0 0 0 0 0 0 127 0" result="hardAlpha"/>
<feMorphology radius="14.8971" operator="dilate" in="SourceAlpha" result="effect2_innerShadow_1568_12475"/>
<feOffset dx="5.18161" dy="-5.06897"/>
<feGaussianBlur stdDeviation="5.82931"/>
<feComposite in2="hardAlpha" operator="arithmetic" k2="-1" k3="1"/>
<feColorMatrix type="matrix" values="0 0 0 0 0.462111 0 0 0 0 0.203767 0 0 0 0 0.504167 0 0 0 0.35 0"/>
<feBlend mode="normal" in2="effect1_innerShadow_1568_12475" result="effect2_innerShadow_1568_12475"/>
</filter>
<radialGradient id="paint0_radial_1568_12475" cx="0" cy="0" r="1" gradientUnits="userSpaceOnUse" gradientTransform="translate(139.248 243.247) rotate(84.5862) scale(27.4259 42.4772)">
<stop stop-color="#FFBB0C"/>
<stop offset="1" stop-color="#FFC907"/>
</radialGradient>
<linearGradient id="paint1_linear_1568_12475" x1="123.094" y1="47.5589" x2="134.655" y2="64.6862" gradientUnits="userSpaceOnUse">
<stop stop-color="white"/>
<stop offset="1" stop-color="white" stop-opacity="0"/>
</linearGradient>
<linearGradient id="paint2_linear_1568_12475" x1="138.922" y1="167.453" x2="138.922" y2="177.028" gradientUnits="userSpaceOnUse">
<stop stop-color="#201721"/>
<stop offset="1" stop-color="#2B1F2C"/>
</linearGradient>
</defs>
</svg>
