<svg width="172" height="261" viewBox="0 0 172 261" fill="none" xmlns="http://www.w3.org/2000/svg">
<g filter="url(#filter0_iii_1568_12475)">
<path fill-rule="evenodd" clip-rule="evenodd" d="M0.703185 143.031L0.703125 142.889V142.889C0.703125 103.441 22.6687 68.6245 52.9125 56.8796C52.9461 56.8666 52.9797 56.8537 53.0134 56.841C59.5775 54.3218 65.3059 54.3404 72.977 54.3653C73.463 54.3669 73.9568 54.3685 74.4591 54.3695L74.4597 54.3693C82.8275 51.0819 92.8091 54.6681 100.788 58.2842C118.607 66.3532 133.24 82.5472 141.708 102.831C146.789 115.002 149.651 128.645 149.651 142.889V142.889C149.651 148.963 149.322 154.917 148.642 160.684C146.816 176.181 142.456 190.339 135.133 201.901C127.122 214.549 115.564 224.092 99.8977 228.889C97.6617 235.872 88.5684 241.099 77.6906 241.099C67.5927 241.099 59.0325 236.595 56.0683 230.362C16.7024 221.663 0.738882 185.288 0.703185 143.031Z" fill="url(#paint0_radial_1568_12475)"/>
</g>
<ellipse cx="10.5021" cy="157.621" rx="4.47588" ry="3.04152" transform="rotate(-39.6655 10.5021 157.621)" fill="#878787" fill-opacity="0.2"/>
<ellipse cx="26.0607" cy="140.951" rx="4.47588" ry="3.04152" transform="rotate(-39.6655 26.0607 140.951)" fill="#878787" fill-opacity="0.2"/>
<ellipse cx="8.9982" cy="130.553" rx="4.47588" ry="3.04152" transform="rotate(-39.6655 8.9982 130.553)" fill="#B77D00" fill-opacity="0.37"/>
<ellipse cx="22.1779" cy="118.451" rx="4.47588" ry="3.04152" transform="rotate(-39.6655 22.1779 118.451)" fill="#B77D00" fill-opacity="0.37"/>
<ellipse cx="19.7716" cy="103.633" rx="4.47588" ry="3.04152" transform="rotate(-39.6655 19.7716 103.633)" fill="#B77D00" fill-opacity="0.37"/>
<path d="M68.7224 48.8423L70.0651 47.8247C74.3466 53.5211 76.7898 55.6923 76.8158 55.7006L75.7091 56.9657C75.6046 56.8892 73.1266 54.6925 68.7224 48.8423Z" fill="#318C1C"/>
<g filter="url(#filter1_i_1568_12475)">
<path d="M69.0807 49.1146C78.6744 42.369 74.7421 27.0703 65.7555 19.1525C56.7771 11.2087 43.6765 7.10427 42.4357 7.98251C41.1948 8.86075 37.9191 26.2238 45.6279 38.3606C53.3367 50.4974 63.2185 53.2427 69.0807 49.1146Z" fill="#3D830B"/>
</g>
<path d="M68.7224 48.8423L70.0651 47.8247C74.3466 53.5211 76.7898 55.6923 76.8158 55.7006L75.7091 56.9657C75.6046 56.8892 73.1266 54.6925 68.7224 48.8423Z" fill="#3D830B"/>
<g filter="url(#filter2_i_1568_12475)">
<path d="M79.473 52.3808C74.3028 48.7454 76.422 40.5007 81.265 36.2337C86.1036 31.9527 93.1637 29.7407 93.8325 30.214C94.5012 30.6873 96.2665 40.0445 92.1121 46.5853C87.9577 53.126 82.6323 54.6055 79.473 52.3808Z" fill="#3D830B"/>
</g>
<path d="M79.6659 52.2348L78.9423 51.6865C76.635 54.7563 75.3183 55.9264 75.3043 55.9309L75.9007 56.6127C75.957 56.5715 77.2925 55.3876 79.6659 52.2348Z" fill="#3D830B"/>
<path d="M57.8036 18.564C57.7063 18.3753 57.712 18.1336 57.8305 17.9422C58.0255 17.6464 58.4128 17.5554 58.6998 17.7331C60.5523 18.8845 63.244 20.906 65.6124 24.0276C68.4634 27.7907 70.0964 32.1814 70.4755 37.088C70.5057 37.4416 70.2416 37.7296 69.8881 37.7598C69.5346 37.79 69.2465 37.5259 69.2163 37.1724C68.4331 26.7208 61.8834 21.1728 58.0568 18.8026C57.9351 18.735 57.8478 18.6498 57.8036 18.564Z" fill="url(#paint1_linear_1568_12475)"/>
<g filter="url(#filter3_f_1568_12475)">
<ellipse cx="76.6365" cy="56.602" rx="5.65996" ry="1.5024" fill="#744500" fill-opacity="0.6"/>
</g>
<path d="M45.3132 199.776C16.1752 199.776 3.205 178.946 0.0969459 165.228C-0.142135 164.182 0.515338 163.107 1.56132 162.867C2.6073 162.628 3.68316 163.286 3.92225 164.332C7.11996 178.378 21.7338 200.612 56.1017 194.874C57.1776 194.695 58.1937 195.412 58.373 196.488C58.5523 197.564 57.8351 198.58 56.7592 198.76C52.6948 199.477 48.8695 199.776 45.3132 199.776Z" fill="#1D1D1D"/>
<path d="M54.1 204.796C48.3621 204.796 45.2241 201.867 44.6862 198.819C44.1184 195.681 46.1506 191.407 53.7115 189.674C54.7575 189.435 55.8333 190.092 56.0724 191.138C56.3115 192.184 55.654 193.26 54.6081 193.499C50.0655 194.545 48.3023 196.637 48.5713 198.132C48.8701 199.835 51.7092 201.299 55.9529 200.761C57.0288 200.642 58.015 201.389 58.1345 202.465C58.2839 203.541 57.5069 204.527 56.431 204.647C55.6241 204.736 54.8471 204.796 54.1 204.796Z" fill="#1D1D1D"/>
<path d="M146.904 104.904C144.065 104.904 140.927 105.143 137.401 105.681C136.325 105.83 135.578 106.846 135.757 107.922C135.906 108.998 136.923 109.745 137.998 109.566C153.479 107.205 163.7 110.672 166.778 119.308C168.72 124.747 167.764 132.039 164.148 139.361C160.532 146.743 154.674 153.198 148.1 157.083C147.173 157.621 146.844 158.846 147.412 159.773C147.95 160.699 149.175 161.028 150.102 160.46C157.304 156.216 163.73 149.164 167.674 141.095C171.739 132.846 172.755 124.419 170.454 117.993C168.631 112.763 163.132 104.904 146.904 104.904Z" fill="#1D1D1D"/>
<path d="M129.601 94.7422C128.645 94.7422 127.808 95.4295 127.658 96.4157C127.509 97.4916 128.226 98.4778 129.302 98.6571C135.638 99.6134 135.757 107.623 135.757 107.981C135.757 109.057 136.654 109.924 137.73 109.924C138.805 109.924 139.702 109.057 139.702 107.951C139.702 103.887 137.67 95.9376 129.93 94.7422C129.78 94.7721 129.691 94.7422 129.601 94.7422Z" fill="#1D1D1D"/>
<g filter="url(#filter4_f_1568_12475)">
<path d="M53.4937 228.463C56.7035 236.96 70.0621 240.218 76.3401 240.785C92.57 240.785 99.9594 231.442 101.625 226.77C132.524 218.381 143.539 183.391 146.74 169.316C121.481 201.703 53.7899 212.04 21.5459 210.788C22.3704 216.854 43.188 225.099 53.4937 228.463Z" fill="#EBAD1E"/>
</g>
<g filter="url(#filter5_d_1568_12475)">
<g filter="url(#filter6_i_1568_12475)">
<circle cx="51.669" cy="112.245" r="19.3019" fill="#FAFAFA"/>
</g>
<g filter="url(#filter7_i_1568_12475)">
<rect x="41.4023" y="101.979" width="20.5237" height="20.5237" rx="10.2618" fill="#2C2F36"/>
</g>
</g>
<g filter="url(#filter8_d_1568_12475)">
<g filter="url(#filter9_i_1568_12475)">
<circle cx="98.4278" cy="112.245" r="19.3019" fill="#FAFAFA"/>
</g>
<g filter="url(#filter10_i_1568_12475)">
<rect x="88.1611" y="101.979" width="20.5237" height="20.5237" rx="10.2618" fill="#2C2F36"/>
</g>
</g>
<g filter="url(#filter11_ii_1568_12475)">
<rect x="39.2949" y="138.002" width="70.9656" height="9.57472" rx="4.78736" fill="url(#paint2_linear_1568_12475)"/>
</g>
<defs>
<filter id="filter0_iii_1568_12475" x="-3.93926" y="45.4776" width="162.452" height="202.375" filterUnits="userSpaceOnUse" color-interpolation-filters="sRGB">
<feFlood flood-opacity="0" result="BackgroundImageFix"/>
<feBlend mode="normal" in="SourceGraphic" in2="BackgroundImageFix" result="shape"/>
<feColorMatrix in="SourceAlpha" type="matrix" values="0 0 0 0 0 0 0 0 0 0 0 0 0 0 0 0 0 0 127 0" result="hardAlpha"/>
<feMorphology radius="3.37628" operator="erode" in="SourceAlpha" result="effect1_innerShadow_1568_12475"/>
<feOffset dx="8.86273" dy="5.48645"/>
<feGaussianBlur stdDeviation="10.1288"/>
<feComposite in2="hardAlpha" operator="arithmetic" k2="-1" k3="1"/>
<feColorMatrix type="matrix" values="0 0 0 0 0.682806 0 0 0 0 0.0652778 0 0 0 0 0.783333 0 0 0 0.14 0"/>
<feBlend mode="normal" in2="shape" result="effect1_innerShadow_1568_12475"/>
<feColorMatrix in="SourceAlpha" type="matrix" values="0 0 0 0 0 0 0 0 0 0 0 0 0 0 0 0 0 0 127 0" result="hardAlpha"/>
<feOffset dy="-7.59662"/>
<feGaussianBlur stdDeviation="6.54154"/>
<feComposite in2="hardAlpha" operator="arithmetic" k2="-1" k3="1"/>
<feColorMatrix type="matrix" values="0 0 0 0 0.943639 0 0 0 0 0.223611 0 0 0 0 0.958333 0 0 0 0.44 0"/>
<feBlend mode="normal" in2="effect1_innerShadow_1568_12475" result="effect2_innerShadow_1568_12475"/>
<feColorMatrix in="SourceAlpha" type="matrix" values="0 0 0 0 0 0 0 0 0 0 0 0 0 0 0 0 0 0 127 0" result="hardAlpha"/>
<feOffset dx="-4.64238" dy="6.75255"/>
<feGaussianBlur stdDeviation="6.54154"/>
<feComposite in2="hardAlpha" operator="arithmetic" k2="-1" k3="1"/>
<feColorMatrix type="matrix" values="0 0 0 0 1 0 0 0 0 1 0 0 0 0 1 0 0 0 0.59 0"/>
<feBlend mode="normal" in2="effect2_innerShadow_1568_12475" result="effect3_innerShadow_1568_12475"/>
</filter>
<filter id="filter1_i_1568_12475" x="40.6758" y="7.86523" width="37.4425" height="44.7818" filterUnits="userSpaceOnUse" color-interpolation-filters="sRGB">
<feFlood flood-opacity="0" result="BackgroundImageFix"/>
<feBlend mode="normal" in="SourceGraphic" in2="BackgroundImageFix" result="shape"/>
<feColorMatrix in="SourceAlpha" type="matrix" values="0 0 0 0 0 0 0 0 0 0 0 0 0 0 0 0 0 0 127 0" result="hardAlpha"/>
<feOffset dx="3.4738" dy="1.7369"/>
<feGaussianBlur stdDeviation="4.82472"/>
<feComposite in2="hardAlpha" operator="arithmetic" k2="-1" k3="1"/>
<feColorMatrix type="matrix" values="0 0 0 0 0 0 0 0 0 0 0 0 0 0 0 0 0 0 0.25 0"/>
<feBlend mode="normal" in2="shape" result="effect1_innerShadow_1568_12475"/>
</filter>
<filter id="filter2_i_1568_12475" x="76.4746" y="30.1504" width="20.1787" height="24.1353" filterUnits="userSpaceOnUse" color-interpolation-filters="sRGB">
<feFlood flood-opacity="0" result="BackgroundImageFix"/>
<feBlend mode="normal" in="SourceGraphic" in2="BackgroundImageFix" result="shape"/>
<feColorMatrix in="SourceAlpha" type="matrix" values="0 0 0 0 0 0 0 0 0 0 0 0 0 0 0 0 0 0 127 0" result="hardAlpha"/>
<feOffset dx="1.87209" dy="0.936044"/>
<feGaussianBlur stdDeviation="2.60012"/>
<feComposite in2="hardAlpha" operator="arithmetic" k2="-1" k3="1"/>
<feColorMatrix type="matrix" values="0 0 0 0 0 0 0 0 0 0 0 0 0 0 0 0 0 0 0.25 0"/>
<feBlend mode="normal" in2="shape" result="effect1_innerShadow_1568_12475"/>
</filter>
<filter id="filter3_f_1568_12475" x="68.9766" y="53.0996" width="15.3203" height="7.00391" filterUnits="userSpaceOnUse" color-interpolation-filters="sRGB">
<feFlood flood-opacity="0" result="BackgroundImageFix"/>
<feBlend mode="normal" in="SourceGraphic" in2="BackgroundImageFix" result="shape"/>
<feGaussianBlur stdDeviation="1" result="effect1_foregroundBlur_1568_12475"/>
</filter>
<filter id="filter4_f_1568_12475" x="1.5459" y="149.316" width="165.193" height="111.469" filterUnits="userSpaceOnUse" color-interpolation-filters="sRGB">
<feFlood flood-opacity="0" result="BackgroundImageFix"/>
<feBlend mode="normal" in="SourceGraphic" in2="BackgroundImageFix" result="shape"/>
<feGaussianBlur stdDeviation="10" result="effect1_foregroundBlur_1568_12475"/>
</filter>
<filter id="filter5_d_1568_12475" x="24.2844" y="86.5622" width="54.7691" height="54.7691" filterUnits="userSpaceOnUse" color-interpolation-filters="sRGB">
<feFlood flood-opacity="0" result="BackgroundImageFix"/>
<feColorMatrix in="SourceAlpha" type="matrix" values="0 0 0 0 0 0 0 0 0 0 0 0 0 0 0 0 0 0 127 0" result="hardAlpha"/>
<feOffset dy="1.70164"/>
<feGaussianBlur stdDeviation="4.04139"/>
<feColorMatrix type="matrix" values="0 0 0 0 0 0 0 0 0 0 0 0 0 0 0 0 0 0 0.25 0"/>
<feBlend mode="normal" in2="BackgroundImageFix" result="effect1_dropShadow_1568_12475"/>
<feBlend mode="normal" in="SourceGraphic" in2="effect1_dropShadow_1568_12475" result="shape"/>
</filter>
<filter id="filter6_i_1568_12475" x="32.3672" y="90.9439" width="38.6035" height="40.6029" filterUnits="userSpaceOnUse" color-interpolation-filters="sRGB">
<feFlood flood-opacity="0" result="BackgroundImageFix"/>
<feBlend mode="normal" in="SourceGraphic" in2="BackgroundImageFix" result="shape"/>
<feColorMatrix in="SourceAlpha" type="matrix" values="0 0 0 0 0 0 0 0 0 0 0 0 0 0 0 0 0 0 127 0" result="hardAlpha"/>
<feOffset dy="-1.99943"/>
<feGaussianBlur stdDeviation="4.99857"/>
<feComposite in2="hardAlpha" operator="arithmetic" k2="-1" k3="1"/>
<feColorMatrix type="matrix" values="0 0 0 0 0 0 0 0 0 0 0 0 0 0 0 0 0 0 0.25 0"/>
<feBlend mode="normal" in2="shape" result="effect1_innerShadow_1568_12475"/>
</filter>
<filter id="filter7_i_1568_12475" x="41.4023" y="101.979" width="20.5234" height="20.5234" filterUnits="userSpaceOnUse" color-interpolation-filters="sRGB">
<feFlood flood-opacity="0" result="BackgroundImageFix"/>
<feBlend mode="normal" in="SourceGraphic" in2="BackgroundImageFix" result="shape"/>
<feColorMatrix in="SourceAlpha" type="matrix" values="0 0 0 0 0 0 0 0 0 0 0 0 0 0 0 0 0 0 127 0" result="hardAlpha"/>
<feMorphology radius="17.5726" operator="dilate" in="SourceAlpha" result="effect1_innerShadow_1568_12475"/>
<feOffset dx="6.11222" dy="-18.3367"/>
<feGaussianBlur stdDeviation="6.87625"/>
<feComposite in2="hardAlpha" operator="arithmetic" k2="-1" k3="1"/>
<feColorMatrix type="matrix" values="0 0 0 0 0.462111 0 0 0 0 0.203767 0 0 0 0 0.504167 0 0 0 0.35 0"/>
<feBlend mode="normal" in2="shape" result="effect1_innerShadow_1568_12475"/>
</filter>
<filter id="filter8_d_1568_12475" x="71.0432" y="86.5622" width="54.7691" height="54.7691" filterUnits="userSpaceOnUse" color-interpolation-filters="sRGB">
<feFlood flood-opacity="0" result="BackgroundImageFix"/>
<feColorMatrix in="SourceAlpha" type="matrix" values="0 0 0 0 0 0 0 0 0 0 0 0 0 0 0 0 0 0 127 0" result="hardAlpha"/>
<feOffset dy="1.70164"/>
<feGaussianBlur stdDeviation="4.04139"/>
<feColorMatrix type="matrix" values="0 0 0 0 0 0 0 0 0 0 0 0 0 0 0 0 0 0 0.25 0"/>
<feBlend mode="normal" in2="BackgroundImageFix" result="effect1_dropShadow_1568_12475"/>
<feBlend mode="normal" in="SourceGraphic" in2="effect1_dropShadow_1568_12475" result="shape"/>
</filter>
<filter id="filter9_i_1568_12475" x="79.126" y="90.9439" width="38.6035" height="40.6029" filterUnits="userSpaceOnUse" color-interpolation-filters="sRGB">
<feFlood flood-opacity="0" result="BackgroundImageFix"/>
<feBlend mode="normal" in="SourceGraphic" in2="BackgroundImageFix" result="shape"/>
<feColorMatrix in="SourceAlpha" type="matrix" values="0 0 0 0 0 0 0 0 0 0 0 0 0 0 0 0 0 0 127 0" result="hardAlpha"/>
<feOffset dy="-1.99943"/>
<feGaussianBlur stdDeviation="4.99857"/>
<feComposite in2="hardAlpha" operator="arithmetic" k2="-1" k3="1"/>
<feColorMatrix type="matrix" values="0 0 0 0 0 0 0 0 0 0 0 0 0 0 0 0 0 0 0.25 0"/>
<feBlend mode="normal" in2="shape" result="effect1_innerShadow_1568_12475"/>
</filter>
<filter id="filter10_i_1568_12475" x="88.1611" y="101.979" width="20.5234" height="20.5234" filterUnits="userSpaceOnUse" color-interpolation-filters="sRGB">
<feFlood flood-opacity="0" result="BackgroundImageFix"/>
<feBlend mode="normal" in="SourceGraphic" in2="BackgroundImageFix" result="shape"/>
<feColorMatrix in="SourceAlpha" type="matrix" values="0 0 0 0 0 0 0 0 0 0 0 0 0 0 0 0 0 0 127 0" result="hardAlpha"/>
<feMorphology radius="17.5726" operator="dilate" in="SourceAlpha" result="effect1_innerShadow_1568_12475"/>
<feOffset dx="6.11222" dy="-18.3367"/>
<feGaussianBlur stdDeviation="6.87625"/>
<feComposite in2="hardAlpha" operator="arithmetic" k2="-1" k3="1"/>
<feColorMatrix type="matrix" values="0 0 0 0 0.462111 0 0 0 0 0.203767 0 0 0 0 0.504167 0 0 0 0.35 0"/>
<feBlend mode="normal" in2="shape" result="effect1_innerShadow_1568_12475"/>
</filter>
<filter id="filter11_ii_1568_12475" x="39.2949" y="138.002" width="70.9658" height="9.57422" filterUnits="userSpaceOnUse" color-interpolation-filters="sRGB">
<feFlood flood-opacity="0" result="BackgroundImageFix"/>
<feBlend mode="normal" in="SourceGraphic" in2="BackgroundImageFix" result="shape"/>
<feColorMatrix in="SourceAlpha" type="matrix" values="0 0 0 0 0 0 0 0 0 0 0 0 0 0 0 0 0 0 127 0" result="hardAlpha"/>
<feMorphology radius="14.8971" operator="dilate" in="SourceAlpha" result="effect1_innerShadow_1568_12475"/>
<feOffset dy="15.7701"/>
<feGaussianBlur stdDeviation="3.94253"/>
<feComposite in2="hardAlpha" operator="arithmetic" k2="-1" k3="1"/>
<feColorMatrix type="matrix" values="0 0 0 0 0.3625 0 0 0 0 0.3625 0 0 0 0 0.3625 0 0 0 0.97 0"/>
<feBlend mode="normal" in2="shape" result="effect1_innerShadow_1568_12475"/>
<feColorMatrix in="SourceAlpha" type="matrix" values="0 0 0 0 0 0 0 0 0 0 0 0 0 0 0 0 0 0 127 0" result="hardAlpha"/>
<feMorphology radius="14.8971" operator="dilate" in="SourceAlpha" result="effect2_innerShadow_1568_12475"/>
<feOffset dx="5.18161" dy="-5.06897"/>
<feGaussianBlur stdDeviation="5.82931"/>
<feComposite in2="hardAlpha" operator="arithmetic" k2="-1" k3="1"/>
<feColorMatrix type="matrix" values="0 0 0 0 0.462111 0 0 0 0 0.203767 0 0 0 0 0.504167 0 0 0 0.35 0"/>
<feBlend mode="normal" in2="effect1_innerShadow_1568_12475" result="effect2_innerShadow_1568_12475"/>
</filter>
<radialGradient id="paint0_radial_1568_12475" cx="0" cy="0" r="1" gradientUnits="userSpaceOnUse" gradientTransform="translate(75.1031 213.796) rotate(84.5862) scale(27.4259 42.4772)">
<stop stop-color="#FFBB0C"/>
<stop offset="1" stop-color="#FFC907"/>
</radialGradient>
<linearGradient id="paint1_linear_1568_12475" x1="58.9493" y1="18.1087" x2="70.5108" y2="35.236" gradientUnits="userSpaceOnUse">
<stop stop-color="white"/>
<stop offset="1" stop-color="white" stop-opacity="0"/>
</linearGradient>
<linearGradient id="paint2_linear_1568_12475" x1="74.7777" y1="138.002" x2="74.7777" y2="147.577" gradientUnits="userSpaceOnUse">
<stop stop-color="#201721"/>
<stop offset="1" stop-color="#2B1F2C"/>
</linearGradient>
</defs>
</svg>
