<svg width="188" height="249" viewBox="0 0 188 249" fill="none" xmlns="http://www.w3.org/2000/svg">
<path d="M162.706 205.556C159.867 205.556 156.729 205.317 153.203 204.779C152.127 204.63 151.38 203.614 151.559 202.538C151.708 201.462 152.724 200.715 153.8 200.894C169.281 203.255 179.501 199.788 182.58 191.152C184.522 185.713 183.566 178.421 179.95 171.099C176.334 163.717 170.476 157.262 163.901 153.377C162.975 152.839 162.646 151.614 163.214 150.687C163.752 149.761 164.977 149.432 165.904 150C173.106 154.243 179.531 161.296 183.476 169.365C187.541 177.614 188.557 186.041 186.255 192.467C184.432 197.696 178.934 205.556 162.706 205.556Z" fill="#1D1D1D"/>
<path d="M25.6284 205.555C9.43063 205.555 3.93177 197.695 2.07889 192.465C-0.192384 186.04 0.82371 177.612 4.85821 169.364C8.83293 161.295 15.2284 154.242 22.4307 149.998C23.3571 149.46 24.5824 149.759 25.1203 150.686C25.6583 151.612 25.3594 152.837 24.433 153.375C17.8582 157.23 12.0306 163.686 8.38465 171.097C4.79844 178.419 3.84211 185.711 5.75476 191.15C8.83293 199.787 19.0537 203.254 34.5342 200.893C35.61 200.743 36.5962 201.46 36.7755 202.536C36.925 203.612 36.2077 204.598 35.1319 204.778C31.6054 205.316 28.4376 205.555 25.6284 205.555Z" fill="#1D1D1D"/>
<g filter="url(#filter0_iii_1568_12242)">
<path fill-rule="evenodd" clip-rule="evenodd" d="M19.7032 143.03L19.7031 142.888V142.888C19.7031 103.44 41.6687 68.6235 71.9125 56.8786C71.9461 56.8656 71.9797 56.8527 72.0134 56.84C78.5775 54.3208 84.3059 54.3394 91.977 54.3644C92.463 54.3659 92.9568 54.3675 93.4591 54.3685L93.4597 54.3683C101.828 51.0809 111.809 54.6671 119.788 58.2832C137.607 66.3522 152.24 82.5463 160.708 102.831C165.789 115.001 168.651 128.644 168.651 142.888V142.888C168.651 148.962 168.322 154.916 167.642 160.683C165.816 176.18 161.456 190.338 154.133 201.9C146.122 214.548 134.564 224.091 118.898 228.888C116.662 235.871 107.568 241.098 96.6906 241.098C86.5927 241.098 78.0325 236.594 75.0683 230.361C35.7024 221.662 19.7389 185.287 19.7032 143.03Z" fill="url(#paint0_radial_1568_12242)"/>
</g>
<g filter="url(#filter1_iii_1568_12242)">
<ellipse cx="96.6906" cy="225.544" rx="22.7336" ry="15.5546" fill="url(#paint1_radial_1568_12242)"/>
</g>
<g filter="url(#filter2_f_1568_12242)">
<path d="M73.2095 228.968C76.4193 237.466 89.7779 240.724 96.0559 241.291C112.286 241.291 119.675 231.948 121.341 227.276C152.24 218.886 163.254 183.896 166.455 169.822C141.197 202.209 73.5058 212.546 41.2617 211.293C42.0863 217.36 62.9038 225.605 73.2095 228.968Z" fill="#EBAD1E"/>
</g>
<path d="M42.9287 215.716C42.8391 215.716 42.7195 215.716 42.6299 215.687C34.8896 214.521 32.8574 206.542 32.8574 202.477C32.8574 201.401 33.7241 200.505 34.8298 200.505C35.9057 200.505 36.8023 201.372 36.8023 202.477C36.8023 202.806 36.9218 210.845 43.2575 211.801C44.3333 211.951 45.0804 212.967 44.9011 214.043C44.7218 214.999 43.885 215.716 42.9287 215.716Z" fill="#1D1D1D"/>
<path d="M145.404 215.718C144.447 215.718 143.61 215.03 143.461 214.044C143.312 212.968 144.029 211.982 145.105 211.803C151.44 210.847 151.56 202.837 151.56 202.479C151.56 201.403 152.456 200.536 153.532 200.536C154.608 200.536 155.505 201.403 155.505 202.509C155.505 206.573 153.473 214.522 145.732 215.718C145.583 215.688 145.493 215.718 145.404 215.718Z" fill="#1D1D1D"/>
<mask id="mask0_1568_12242" style="mask-type:alpha" maskUnits="userSpaceOnUse" x="59" y="145" width="75" height="38">
<path d="M70.6846 145.371C67.8139 145.371 66.3786 145.371 64.7703 146.097C62.5867 147.084 60.2611 150.29 60.0009 152.672C59.8093 154.427 60.0951 155.302 60.6666 157.052C62.4874 162.627 65.6037 167.753 69.8284 171.977C76.8849 179.034 86.4556 182.998 96.435 182.998C106.414 182.998 115.985 179.034 123.042 171.977C127.445 167.574 130.644 162.193 132.427 156.344C132.96 154.597 133.226 153.724 133.023 152.099C132.745 149.87 130.586 146.954 128.535 146.038C127.04 145.371 125.669 145.371 122.928 145.371L96.435 145.371L70.6846 145.371Z" fill="url(#paint2_linear_1568_12242)"/>
</mask>
<g mask="url(#mask0_1568_12242)">
<g filter="url(#filter3_i_1568_12242)">
<path d="M70.6846 145.371C67.8139 145.371 66.3786 145.371 64.7703 146.097C62.5867 147.084 60.2611 150.29 60.0009 152.672C59.8093 154.427 60.0951 155.302 60.6666 157.052C62.4874 162.627 65.6037 167.753 69.8284 171.977C76.8849 179.034 86.4556 182.998 96.435 182.998C106.414 182.998 115.985 179.034 123.042 171.977C127.445 167.574 130.644 162.193 132.427 156.344C132.96 154.597 133.226 153.724 133.023 152.099C132.745 149.87 130.586 146.954 128.535 146.038C127.04 145.371 125.669 145.371 122.928 145.371L96.435 145.371L70.6846 145.371Z" fill="url(#paint3_linear_1568_12242)"/>
</g>
<g filter="url(#filter4_i_1568_12242)">
<path d="M60.0879 155.097C58.7176 148.57 58.0324 145.307 59.5593 143.127C59.729 142.884 59.9068 142.665 60.1092 142.449C61.9296 140.507 65.1949 140.507 71.7256 140.507H122.769C128.523 140.507 131.399 140.507 133.242 142.735C135.085 144.963 134.651 147.233 133.784 151.772C133.716 152.129 133.639 152.471 133.551 152.793V152.793C131.827 159.147 130.965 162.325 130.577 163.004C129.265 165.304 129.344 165.244 126.781 165.908C126.023 166.104 124.995 166.104 122.938 166.104H66.6228C62.0227 166.104 61.0332 159.599 60.0879 155.097V155.097V155.097Z" fill="white"/>
</g>
<g filter="url(#filter5_i_1568_12242)">
<path d="M59.5752 176.598C58.2049 183.125 57.5197 186.388 59.0466 188.569C59.2163 188.811 59.3941 189.03 59.5965 189.246C61.4169 191.188 64.6822 191.188 71.2129 191.188H122.256C128.01 191.188 130.887 191.188 132.729 188.96C134.572 186.732 134.139 184.463 133.271 179.923C133.203 179.566 133.126 179.224 133.038 178.902V178.902C131.314 172.548 130.452 169.371 130.064 168.691C128.752 166.391 128.831 166.451 126.268 165.788C125.511 165.592 124.482 165.592 122.425 165.592H66.1101C61.51 165.592 60.5205 172.096 59.5752 176.598V176.598V176.598Z" fill="white"/>
</g>
</g>
<g filter="url(#filter6_i_1568_12242)">
<path d="M85.7049 134.106C87.8141 134.106 89.5653 132.377 89.1127 130.317C88.3944 127.047 86.7549 124.021 84.3509 121.617C81.0387 118.305 76.5463 116.444 71.8621 116.444C67.1778 116.444 62.6855 118.305 59.3732 121.617C57.0931 123.898 55.5008 126.737 54.7299 129.813C54.1476 132.136 56.1417 134.106 58.5366 134.106V134.106C60.7819 134.106 62.5259 132.202 63.4803 130.17C63.9316 129.209 64.549 128.324 65.3142 127.558C67.0508 125.822 69.4062 124.846 71.8621 124.846C74.318 124.846 76.6733 125.822 78.4099 127.558C79.0508 128.199 79.5881 128.925 80.011 129.708C81.213 131.935 83.1739 134.106 85.7049 134.106V134.106Z" fill="#C4C4C4"/>
<path d="M85.7049 134.106C87.8141 134.106 89.5653 132.377 89.1127 130.317C88.3944 127.047 86.7549 124.021 84.3509 121.617C81.0387 118.305 76.5463 116.444 71.8621 116.444C67.1778 116.444 62.6855 118.305 59.3732 121.617C57.0931 123.898 55.5008 126.737 54.7299 129.813C54.1476 132.136 56.1417 134.106 58.5366 134.106V134.106C60.7819 134.106 62.5259 132.202 63.4803 130.17C63.9316 129.209 64.549 128.324 65.3142 127.558C67.0508 125.822 69.4062 124.846 71.8621 124.846C74.318 124.846 76.6733 125.822 78.4099 127.558C79.0508 128.199 79.5881 128.925 80.011 129.708C81.213 131.935 83.1739 134.106 85.7049 134.106V134.106Z" fill="#221725"/>
</g>
<g filter="url(#filter7_i_1568_12242)">
<path d="M135.363 134.106C137.472 134.106 139.223 132.377 138.771 130.317C138.053 127.047 136.413 124.021 134.009 121.617C130.697 118.305 126.204 116.444 121.52 116.444C116.836 116.444 112.344 118.305 109.031 121.617C106.751 123.898 105.159 126.737 104.388 129.813C103.806 132.136 105.8 134.106 108.195 134.106V134.106C110.44 134.106 112.184 132.202 113.138 130.17C113.59 129.209 114.207 128.324 114.972 127.558C116.709 125.822 119.064 124.846 121.52 124.846C123.976 124.846 126.332 125.822 128.068 127.558C128.709 128.199 129.246 128.925 129.669 129.708C130.871 131.935 132.832 134.106 135.363 134.106V134.106Z" fill="#C4C4C4"/>
<path d="M135.363 134.106C137.472 134.106 139.223 132.377 138.771 130.317C138.053 127.047 136.413 124.021 134.009 121.617C130.697 118.305 126.204 116.444 121.52 116.444C116.836 116.444 112.344 118.305 109.031 121.617C106.751 123.898 105.159 126.737 104.388 129.813C103.806 132.136 105.8 134.106 108.195 134.106V134.106C110.44 134.106 112.184 132.202 113.138 130.17C113.59 129.209 114.207 128.324 114.972 127.558C116.709 125.822 119.064 124.846 121.52 124.846C123.976 124.846 126.332 125.822 128.068 127.558C128.709 128.199 129.246 128.925 129.669 129.708C130.871 131.935 132.832 134.106 135.363 134.106V134.106Z" fill="#221725"/>
</g>
<g filter="url(#filter8_i_1568_12242)">
<path d="M88.0807 49.1146C97.6744 42.369 93.7421 27.0703 84.7555 19.1525C75.7771 11.2087 62.6765 7.10427 61.4357 7.98251C60.1948 8.86075 56.9191 26.2238 64.6279 38.3606C72.3367 50.4974 82.2185 53.2427 88.0807 49.1146Z" fill="#3D830B"/>
</g>
<path d="M87.7224 48.8423L89.0651 47.8247C93.3466 53.5211 95.7898 55.6923 95.8158 55.7006L94.7091 56.9657C94.6046 56.8892 92.1266 54.6925 87.7224 48.8423Z" fill="#3D830B"/>
<g filter="url(#filter9_i_1568_12242)">
<path d="M98.473 52.3808C93.3028 48.7454 95.422 40.5007 100.265 36.2337C105.104 31.9527 112.164 29.7407 112.832 30.214C113.501 30.6873 115.267 40.0445 111.112 46.5853C106.958 53.126 101.632 54.6055 98.473 52.3808Z" fill="#3D830B"/>
</g>
<path d="M98.6659 52.2339L97.9423 51.6855C95.635 54.7553 94.3183 55.9255 94.3043 55.93L94.9007 56.6117C94.957 56.5705 96.2925 55.3867 98.6659 52.2339Z" fill="#3D830B"/>
<path d="M76.8036 18.563C76.7063 18.3743 76.712 18.1326 76.8305 17.9413C77.0255 17.6454 77.4128 17.5544 77.6998 17.7322C79.5523 18.8835 82.244 20.905 84.6124 24.0266C87.4634 27.7897 89.0964 32.1804 89.4755 37.0871C89.5057 37.4406 89.2416 37.7286 88.8881 37.7588C88.5346 37.789 88.2465 37.525 88.2163 37.1714C87.4331 26.7198 80.8834 21.1718 77.0568 18.8016C76.9351 18.7341 76.8478 18.6488 76.8036 18.563Z" fill="url(#paint4_linear_1568_12242)"/>
<g filter="url(#filter10_f_1568_12242)">
<ellipse cx="95.6365" cy="56.602" rx="5.65996" ry="1.5024" fill="#744500" fill-opacity="0.6"/>
</g>
<ellipse cx="126.712" cy="217.12" rx="4.47588" ry="3.04152" transform="rotate(-39.6655 126.712 217.12)" fill="#878787" fill-opacity="0.2"/>
<ellipse cx="142.271" cy="200.45" rx="4.47588" ry="3.04152" transform="rotate(-39.6655 142.271 200.45)" fill="#878787" fill-opacity="0.2"/>
<ellipse cx="125.208" cy="190.052" rx="4.47588" ry="3.04152" transform="rotate(-39.6655 125.208 190.052)" fill="#B77D00" fill-opacity="0.37"/>
<ellipse cx="138.388" cy="177.95" rx="4.47588" ry="3.04152" transform="rotate(-39.6655 138.388 177.95)" fill="#B77D00" fill-opacity="0.37"/>
<ellipse cx="150.118" cy="164.985" rx="4.47588" ry="3.04152" transform="rotate(-39.6655 150.118 164.985)" fill="#B77D00" fill-opacity="0.37"/>
<ellipse cx="135.982" cy="163.132" rx="4.47588" ry="3.04152" transform="rotate(-39.6655 135.982 163.132)" fill="#B77D00" fill-opacity="0.37"/>
<defs>
<filter id="filter0_iii_1568_12242" x="15.0607" y="45.4766" width="162.452" height="202.375" filterUnits="userSpaceOnUse" color-interpolation-filters="sRGB">
<feFlood flood-opacity="0" result="BackgroundImageFix"/>
<feBlend mode="normal" in="SourceGraphic" in2="BackgroundImageFix" result="shape"/>
<feColorMatrix in="SourceAlpha" type="matrix" values="0 0 0 0 0 0 0 0 0 0 0 0 0 0 0 0 0 0 127 0" result="hardAlpha"/>
<feMorphology radius="3.37628" operator="erode" in="SourceAlpha" result="effect1_innerShadow_1568_12242"/>
<feOffset dx="8.86273" dy="5.48645"/>
<feGaussianBlur stdDeviation="10.1288"/>
<feComposite in2="hardAlpha" operator="arithmetic" k2="-1" k3="1"/>
<feColorMatrix type="matrix" values="0 0 0 0 0.682806 0 0 0 0 0.0652778 0 0 0 0 0.783333 0 0 0 0.14 0"/>
<feBlend mode="normal" in2="shape" result="effect1_innerShadow_1568_12242"/>
<feColorMatrix in="SourceAlpha" type="matrix" values="0 0 0 0 0 0 0 0 0 0 0 0 0 0 0 0 0 0 127 0" result="hardAlpha"/>
<feOffset dy="-7.59662"/>
<feGaussianBlur stdDeviation="6.54154"/>
<feComposite in2="hardAlpha" operator="arithmetic" k2="-1" k3="1"/>
<feColorMatrix type="matrix" values="0 0 0 0 0.943639 0 0 0 0 0.223611 0 0 0 0 0.958333 0 0 0 0.44 0"/>
<feBlend mode="normal" in2="effect1_innerShadow_1568_12242" result="effect2_innerShadow_1568_12242"/>
<feColorMatrix in="SourceAlpha" type="matrix" values="0 0 0 0 0 0 0 0 0 0 0 0 0 0 0 0 0 0 127 0" result="hardAlpha"/>
<feOffset dx="-4.64238" dy="6.75255"/>
<feGaussianBlur stdDeviation="6.54154"/>
<feComposite in2="hardAlpha" operator="arithmetic" k2="-1" k3="1"/>
<feColorMatrix type="matrix" values="0 0 0 0 1 0 0 0 0 1 0 0 0 0 1 0 0 0 0.59 0"/>
<feBlend mode="normal" in2="effect2_innerShadow_1568_12242" result="effect3_innerShadow_1568_12242"/>
</filter>
<filter id="filter1_iii_1568_12242" x="69.3147" y="202.393" width="58.9719" height="45.4586" filterUnits="userSpaceOnUse" color-interpolation-filters="sRGB">
<feFlood flood-opacity="0" result="BackgroundImageFix"/>
<feBlend mode="normal" in="SourceGraphic" in2="BackgroundImageFix" result="shape"/>
<feColorMatrix in="SourceAlpha" type="matrix" values="0 0 0 0 0 0 0 0 0 0 0 0 0 0 0 0 0 0 127 0" result="hardAlpha"/>
<feMorphology radius="3.37628" operator="erode" in="SourceAlpha" result="effect1_innerShadow_1568_12242"/>
<feOffset dx="8.86273" dy="5.48645"/>
<feGaussianBlur stdDeviation="10.1288"/>
<feComposite in2="hardAlpha" operator="arithmetic" k2="-1" k3="1"/>
<feColorMatrix type="matrix" values="0 0 0 0 0.682806 0 0 0 0 0.0652778 0 0 0 0 0.783333 0 0 0 0.14 0"/>
<feBlend mode="normal" in2="shape" result="effect1_innerShadow_1568_12242"/>
<feColorMatrix in="SourceAlpha" type="matrix" values="0 0 0 0 0 0 0 0 0 0 0 0 0 0 0 0 0 0 127 0" result="hardAlpha"/>
<feOffset dy="-7.59662"/>
<feGaussianBlur stdDeviation="6.54154"/>
<feComposite in2="hardAlpha" operator="arithmetic" k2="-1" k3="1"/>
<feColorMatrix type="matrix" values="0 0 0 0 0.943639 0 0 0 0 0.223611 0 0 0 0 0.958333 0 0 0 0.44 0"/>
<feBlend mode="normal" in2="effect1_innerShadow_1568_12242" result="effect2_innerShadow_1568_12242"/>
<feColorMatrix in="SourceAlpha" type="matrix" values="0 0 0 0 0 0 0 0 0 0 0 0 0 0 0 0 0 0 127 0" result="hardAlpha"/>
<feOffset dx="-4.64238" dy="6.75255"/>
<feGaussianBlur stdDeviation="6.54154"/>
<feComposite in2="hardAlpha" operator="arithmetic" k2="-1" k3="1"/>
<feColorMatrix type="matrix" values="0 0 0 0 1 0 0 0 0 1 0 0 0 0 1 0 0 0 0.59 0"/>
<feBlend mode="normal" in2="effect2_innerShadow_1568_12242" result="effect3_innerShadow_1568_12242"/>
</filter>
<filter id="filter2_f_1568_12242" x="34.2617" y="162.822" width="139.193" height="85.4688" filterUnits="userSpaceOnUse" color-interpolation-filters="sRGB">
<feFlood flood-opacity="0" result="BackgroundImageFix"/>
<feBlend mode="normal" in="SourceGraphic" in2="BackgroundImageFix" result="shape"/>
<feGaussianBlur stdDeviation="3.5" result="effect1_foregroundBlur_1568_12242"/>
</filter>
<filter id="filter3_i_1568_12242" x="59.9414" y="145.37" width="73.1494" height="39.6757" filterUnits="userSpaceOnUse" color-interpolation-filters="sRGB">
<feFlood flood-opacity="0" result="BackgroundImageFix"/>
<feBlend mode="normal" in="SourceGraphic" in2="BackgroundImageFix" result="shape"/>
<feColorMatrix in="SourceAlpha" type="matrix" values="0 0 0 0 0 0 0 0 0 0 0 0 0 0 0 0 0 0 127 0" result="hardAlpha"/>
<feOffset dy="2.04775"/>
<feGaussianBlur stdDeviation="4.09551"/>
<feComposite in2="hardAlpha" operator="arithmetic" k2="-1" k3="1"/>
<feColorMatrix type="matrix" values="0 0 0 0 0 0 0 0 0 0 0 0 0 0 0 0 0 0 0.25 0"/>
<feBlend mode="normal" in2="shape" result="effect1_innerShadow_1568_12242"/>
</filter>
<filter id="filter4_i_1568_12242" x="58.6914" y="138.971" width="75.8379" height="27.1325" filterUnits="userSpaceOnUse" color-interpolation-filters="sRGB">
<feFlood flood-opacity="0" result="BackgroundImageFix"/>
<feBlend mode="normal" in="SourceGraphic" in2="BackgroundImageFix" result="shape"/>
<feColorMatrix in="SourceAlpha" type="matrix" values="0 0 0 0 0 0 0 0 0 0 0 0 0 0 0 0 0 0 127 0" result="hardAlpha"/>
<feOffset dy="-1.53581"/>
<feGaussianBlur stdDeviation="4.09551"/>
<feComposite in2="hardAlpha" operator="arithmetic" k2="-1" k3="1"/>
<feColorMatrix type="matrix" values="0 0 0 0 0 0 0 0 0 0 0 0 0 0 0 0 0 0 0.47 0"/>
<feBlend mode="normal" in2="shape" result="effect1_innerShadow_1568_12242"/>
</filter>
<filter id="filter5_i_1568_12242" x="58.1787" y="164.056" width="75.8379" height="27.1325" filterUnits="userSpaceOnUse" color-interpolation-filters="sRGB">
<feFlood flood-opacity="0" result="BackgroundImageFix"/>
<feBlend mode="normal" in="SourceGraphic" in2="BackgroundImageFix" result="shape"/>
<feColorMatrix in="SourceAlpha" type="matrix" values="0 0 0 0 0 0 0 0 0 0 0 0 0 0 0 0 0 0 127 0" result="hardAlpha"/>
<feOffset dy="-1.53581"/>
<feGaussianBlur stdDeviation="4.09551"/>
<feComposite in2="hardAlpha" operator="arithmetic" k2="-1" k3="1"/>
<feColorMatrix type="matrix" values="0 0 0 0 0 0 0 0 0 0 0 0 0 0 0 0 0 0 0.47 0"/>
<feBlend mode="normal" in2="shape" result="effect1_innerShadow_1568_12242"/>
</filter>
<filter id="filter6_i_1568_12242" x="54.6279" y="116.444" width="34.5566" height="17.6621" filterUnits="userSpaceOnUse" color-interpolation-filters="sRGB">
<feFlood flood-opacity="0" result="BackgroundImageFix"/>
<feBlend mode="normal" in="SourceGraphic" in2="BackgroundImageFix" result="shape"/>
<feColorMatrix in="SourceAlpha" type="matrix" values="0 0 0 0 0 0 0 0 0 0 0 0 0 0 0 0 0 0 127 0" result="hardAlpha"/>
<feMorphology radius="13.5408" operator="dilate" in="SourceAlpha" result="effect1_innerShadow_1568_12242"/>
<feOffset dx="4.70983" dy="-3.58357"/>
<feGaussianBlur stdDeviation="5.29856"/>
<feComposite in2="hardAlpha" operator="arithmetic" k2="-1" k3="1"/>
<feColorMatrix type="matrix" values="0 0 0 0 0.462111 0 0 0 0 0.203767 0 0 0 0 0.504167 0 0 0 0.35 0"/>
<feBlend mode="normal" in2="shape" result="effect1_innerShadow_1568_12242"/>
</filter>
<filter id="filter7_i_1568_12242" x="104.286" y="116.444" width="34.5566" height="17.6621" filterUnits="userSpaceOnUse" color-interpolation-filters="sRGB">
<feFlood flood-opacity="0" result="BackgroundImageFix"/>
<feBlend mode="normal" in="SourceGraphic" in2="BackgroundImageFix" result="shape"/>
<feColorMatrix in="SourceAlpha" type="matrix" values="0 0 0 0 0 0 0 0 0 0 0 0 0 0 0 0 0 0 127 0" result="hardAlpha"/>
<feMorphology radius="13.5408" operator="dilate" in="SourceAlpha" result="effect1_innerShadow_1568_12242"/>
<feOffset dx="4.70983" dy="-4.60744"/>
<feGaussianBlur stdDeviation="5.29856"/>
<feComposite in2="hardAlpha" operator="arithmetic" k2="-1" k3="1"/>
<feColorMatrix type="matrix" values="0 0 0 0 0.462111 0 0 0 0 0.203767 0 0 0 0 0.504167 0 0 0 0.35 0"/>
<feBlend mode="normal" in2="shape" result="effect1_innerShadow_1568_12242"/>
</filter>
<filter id="filter8_i_1568_12242" x="59.6758" y="7.86523" width="37.4425" height="44.7828" filterUnits="userSpaceOnUse" color-interpolation-filters="sRGB">
<feFlood flood-opacity="0" result="BackgroundImageFix"/>
<feBlend mode="normal" in="SourceGraphic" in2="BackgroundImageFix" result="shape"/>
<feColorMatrix in="SourceAlpha" type="matrix" values="0 0 0 0 0 0 0 0 0 0 0 0 0 0 0 0 0 0 127 0" result="hardAlpha"/>
<feOffset dx="3.4738" dy="1.7369"/>
<feGaussianBlur stdDeviation="4.82472"/>
<feComposite in2="hardAlpha" operator="arithmetic" k2="-1" k3="1"/>
<feColorMatrix type="matrix" values="0 0 0 0 0 0 0 0 0 0 0 0 0 0 0 0 0 0 0.25 0"/>
<feBlend mode="normal" in2="shape" result="effect1_innerShadow_1568_12242"/>
</filter>
<filter id="filter9_i_1568_12242" x="95.4746" y="30.1514" width="20.1787" height="24.1333" filterUnits="userSpaceOnUse" color-interpolation-filters="sRGB">
<feFlood flood-opacity="0" result="BackgroundImageFix"/>
<feBlend mode="normal" in="SourceGraphic" in2="BackgroundImageFix" result="shape"/>
<feColorMatrix in="SourceAlpha" type="matrix" values="0 0 0 0 0 0 0 0 0 0 0 0 0 0 0 0 0 0 127 0" result="hardAlpha"/>
<feOffset dx="1.87209" dy="0.936044"/>
<feGaussianBlur stdDeviation="2.60012"/>
<feComposite in2="hardAlpha" operator="arithmetic" k2="-1" k3="1"/>
<feColorMatrix type="matrix" values="0 0 0 0 0 0 0 0 0 0 0 0 0 0 0 0 0 0 0.25 0"/>
<feBlend mode="normal" in2="shape" result="effect1_innerShadow_1568_12242"/>
</filter>
<filter id="filter10_f_1568_12242" x="87.9766" y="53.0996" width="15.3203" height="7.00488" filterUnits="userSpaceOnUse" color-interpolation-filters="sRGB">
<feFlood flood-opacity="0" result="BackgroundImageFix"/>
<feBlend mode="normal" in="SourceGraphic" in2="BackgroundImageFix" result="shape"/>
<feGaussianBlur stdDeviation="1" result="effect1_foregroundBlur_1568_12242"/>
</filter>
<radialGradient id="paint0_radial_1568_12242" cx="0" cy="0" r="1" gradientUnits="userSpaceOnUse" gradientTransform="translate(94.1031 213.795) rotate(84.5862) scale(27.4259 42.4772)">
<stop stop-color="#FFBB0C"/>
<stop offset="1" stop-color="#FFC907"/>
</radialGradient>
<radialGradient id="paint1_radial_1568_12242" cx="0" cy="0" r="1" gradientUnits="userSpaceOnUse" gradientTransform="translate(94.1031 212.013) rotate(84.9162) scale(29.2007 42.4997)">
<stop stop-color="#FFBB0C"/>
<stop offset="1" stop-color="#FFC907"/>
</radialGradient>
<linearGradient id="paint2_linear_1568_12242" x1="96.435" y1="182.998" x2="88.756" y2="138.971" gradientUnits="userSpaceOnUse">
<stop stop-color="#FB39A2"/>
<stop offset="1" stop-color="#C520FF"/>
</linearGradient>
<linearGradient id="paint3_linear_1568_12242" x1="96.435" y1="182.998" x2="73.3978" y2="134.364" gradientUnits="userSpaceOnUse">
<stop stop-color="#3A2EC0"/>
<stop offset="1" stop-color="#FF20C1"/>
</linearGradient>
<linearGradient id="paint4_linear_1568_12242" x1="77.9493" y1="18.1077" x2="89.5108" y2="35.2351" gradientUnits="userSpaceOnUse">
<stop stop-color="white"/>
<stop offset="1" stop-color="white" stop-opacity="0"/>
</linearGradient>
</defs>
</svg>
