
<svg width="593" height="301" viewBox="0 0 593 301" fill="none" xmlns="http://www.w3.org/2000/svg">
<g filter="url(#filter0_f_1065_9766)">
<ellipse cx="296.523" cy="258.506" rx="270.882" ry="16.9041" fill="#FFCE42"/>
</g>
<g filter="url(#filter1_i_1065_9766)">
<path d="M245.884 179.868C249.114 171.569 250.953 162.777 252.703 154.029C256.247 136.265 259.476 118.412 261.316 100.379C265.756 57.3598 233.459 34.5269 246.333 15.2379C248.89 11.4249 252.075 9.13717 254.093 7.926C243.776 4.74106 228.973 1.28698 210.94 0.883253C200.398 0.614103 183.397 0.344954 163.166 7.02883C154.418 9.89976 128.445 18.9611 108.842 42.6463C104.85 43.4089 99.6912 44.6201 93.8596 46.6387C79.5947 51.5731 66.1821 56.1486 63.356 65.6586C60.9337 73.9125 66.0026 82.5701 73.5837 95.0407C77.8901 102.128 82.3311 107.511 85.83 111.279C87.2655 115.99 89.6878 123.301 93.3213 131.914C99.1529 145.596 113.463 178.343 146.434 205.392C152.31 210.192 161.237 216.876 173.259 223.38C179.584 223.919 214.394 226.296 232.158 205.123C239.38 196.42 244.628 183.008 245.884 179.868Z" fill="#FFCF00"/>
</g>
<path opacity="0.57" d="M168.818 16.5849C160.026 19.3662 151.324 23.0445 144.371 29.1004C137.417 35.1563 132.349 43.9036 132.393 53.0996C132.438 66.3327 142.621 77.5024 153.925 84.3658C156.482 85.8909 159.308 87.3713 162.269 87.1918C164.736 87.0573 166.979 85.891 169.132 84.6798C188.735 73.4652 205.512 57.3162 217.445 38.1169C219.732 34.4385 221.886 30.491 222.469 26.1846C225.564 3.93492 180.257 12.9963 168.818 16.5849Z" fill="#FFF8A1"/>
<g filter="url(#filter2_i_1065_9766)">
<path d="M91.033 83.8701C95.788 76.3339 100.498 68.7529 105.253 61.2167C103.638 66.2408 94.7114 95.937 111.488 125.543C124.138 147.838 143.966 156.989 150.56 159.725C158.141 180.899 165.722 202.072 173.258 223.245C163.703 220.015 110.995 201.13 92.6031 150.081C87.4892 135.951 86.2332 122.673 86.4126 111.817C82.824 108.049 78.1139 102.441 73.5832 94.9501C66.0021 82.5244 60.9332 73.8667 63.4004 65.6128C63.9387 63.7288 64.9704 62.0241 66.2713 60.4541C67.0339 70.6818 71.3851 79.7431 84.4389 86.1579C85.5155 86.6962 86.6818 87.1448 87.8481 86.9205C89.2836 86.5616 90.2256 85.171 91.033 83.8701Z" fill="#A59800"/>
</g>
<path d="M240.322 5.0538C195.598 1.37543 148.004 48.0729 133.963 109.394C119.922 170.715 144.864 223.424 189.587 227.102C234.311 230.781 281.906 184.083 295.946 122.762C309.942 61.4406 285.046 8.73218 240.322 5.0538ZM190.933 222.437C148.093 218.893 124.229 168.428 137.641 109.708C151.054 50.9438 196.675 6.22012 239.515 9.76392C282.354 13.3077 306.219 63.7733 292.806 122.493C279.349 181.212 233.773 225.936 190.933 222.437Z" fill="#FFE85F"/>
<path d="M221.705 89.9694C219.597 98.9859 218.251 103.292 219.731 104.773C220.853 105.939 223.185 104.907 223.813 104.503C225.204 103.651 226.505 102.305 227.716 100.96C231.08 97.4159 234.534 94.0066 237.989 90.6423C240.276 88.3994 242.519 86.1564 244.807 83.9584C254.496 74.4484 264.141 64.9385 274.055 55.9668C274.862 55.2042 277.105 53.9931 278.406 51.167C280.021 47.7129 279.527 44.1243 279.303 42.4645C278.496 37.1712 275.983 33.7171 271.946 29.635C271.946 29.635 263.244 20.9774 245.659 15.5944C245.031 15.415 243.73 15.1458 242.115 15.8187C240.366 16.5364 238.886 18.5102 237.854 20.6634C236.867 22.7717 236.284 25.1044 235.746 27.3921C234.445 32.7751 233.144 38.203 231.888 43.586C230.901 47.7129 229.914 51.8399 228.927 55.9668C228.389 58.2098 227.806 60.8564 226.46 67.1814C221.57 89.8348 223.23 83.465 221.705 89.9694Z" fill="#F8F270"/>
<path d="M222.513 111.324C222.468 113.432 224.262 114.688 224.845 115.002C226.056 115.586 227.492 115.586 228.882 115.63C232.651 115.72 236.374 116.034 240.097 116.303C242.564 116.483 244.987 116.707 247.454 116.886C257.906 117.739 268.313 118.546 278.585 120.116C279.438 120.251 281.277 121.283 283.565 120.071C286.346 118.591 288.095 114.913 288.858 113.208C291.37 107.78 291.953 102.308 292.088 94.8611C292.088 94.8611 292.312 78.9364 285.942 57.3596C285.718 56.597 285.18 55.1167 283.923 54.1746C282.578 53.1878 280.694 53.4569 278.989 54.3989C277.284 55.341 275.714 56.8213 274.144 58.3465C270.466 61.8903 266.743 65.4341 263.064 68.9779C260.238 71.6694 257.412 74.4057 254.586 77.0972C253.061 78.5775 251.267 80.327 247.05 84.6334C231.843 99.9301 236.284 95.9377 231.843 100.244C225.653 106.121 222.557 108.633 222.513 111.324Z" fill="#FFF657"/>
<path d="M279.349 42.4665C278.541 37.1732 276.029 33.7192 271.992 29.6371C271.992 29.6371 271.005 28.6502 269.031 27.125C270.736 28.7848 272.126 30.8482 273.203 33.2706C273.472 33.8986 273.741 34.6163 273.517 35.3789C273.338 36.0518 272.844 36.6798 272.799 37.3527C272.755 38.1153 273.293 38.519 273.562 39.0573C274.19 40.2685 273.652 42.3319 272.71 43.6777C271.768 45.0234 270.467 45.8758 269.211 46.6832C268.628 47.0421 268 47.4009 267.506 47.1766C266.699 46.7281 266.833 44.7094 265.891 44.6646C265.308 44.6197 264.77 45.3823 264.366 46.0552C262.796 48.6121 261.271 51.2139 259.835 53.8605L261.271 54.354C260.643 56.0137 259.79 57.6286 258.848 59.1538C258.938 60.0958 258.759 61.1724 258.086 62.5182C255.888 67.004 251.851 71.6692 248.441 74.4056C247.185 75.3925 245.75 74.3159 246.602 72.4318C248.441 68.26 250.595 64.1779 252.075 59.8267C247.006 64.8956 245.032 74.9888 239.335 78.1737C239.38 77.0971 238.887 76.1999 238.169 75.9756C235.074 81.8969 231.889 87.6836 228.524 93.3806C227.807 93.2909 227.223 92.9321 226.73 92.3489C225.698 95.3095 224.352 98.1356 222.693 100.693C221.751 102.173 220.719 103.519 219.463 104.461C219.553 104.595 219.642 104.73 219.732 104.819C220.853 105.986 223.186 104.954 223.814 104.55C225.205 103.698 226.506 102.352 227.717 101.007C231.081 97.4627 234.535 94.0535 237.989 90.6891L244.808 84.0053C254.497 74.4953 264.142 64.9854 274.055 56.0137C274.863 55.2511 277.106 54.04 278.407 51.2139C280.111 47.7598 279.618 44.1263 279.349 42.4665ZM241.847 82.4801C241.802 82.5698 241.802 82.6147 241.757 82.7044C241.668 83.3324 241.399 84.0053 240.86 84.409C239.021 87.5491 236.374 90.6443 233.907 92.1695C232.786 92.8423 232.023 91.7657 232.247 90.42C232.696 87.9079 234.087 86.0687 235.746 84.5436C235.881 84.2296 236.06 83.8707 236.33 83.6015C237.72 82.1661 239.066 80.4615 240.726 80.1026C241.757 79.8334 242.475 81.0895 241.847 82.4801ZM259.073 67.318C257.906 68.5292 256.83 67.2731 257.054 65.8377C257.592 62.2939 260.284 58.8846 262.661 56.5969C262.841 56.3726 263.065 56.1931 263.289 56.0137C263.334 55.9689 263.379 55.924 263.469 55.8791C263.648 55.7446 263.783 55.6549 263.962 55.5651C264.276 55.3408 264.635 55.1614 264.994 55.0268C265.981 54.6231 266.474 55.8791 266.295 56.9557C265.577 61.1724 261.63 64.5816 259.073 67.318ZM275.132 51.2587C273.786 53.2325 271.812 55.7894 269.928 56.6417C269.076 57.0455 268.134 56.6866 268.179 55.3857C268.314 53.0979 269.48 51.1242 270.781 49.285C270.915 49.1055 271.095 48.9261 271.229 48.8364C273.069 45.9206 275.895 41.9731 277.151 44.5749C278.048 46.5038 276.298 49.5093 275.132 51.2587Z" fill="#F5E642"/>
<path d="M239.515 9.76212C196.675 6.21831 151.054 50.9869 137.642 109.706C124.229 168.426 148.093 218.891 190.933 222.435C233.773 225.979 279.394 181.21 292.806 122.491C306.174 63.7715 282.354 13.3059 239.515 9.76212ZM283.879 54.1718C285.135 55.1138 285.674 56.5941 285.898 57.3567C292.268 78.8887 292.044 94.8582 292.044 94.8582C291.954 102.35 291.371 107.777 288.814 113.205C288.006 114.91 286.257 118.588 283.521 120.069C281.233 121.28 279.394 120.248 278.541 120.113C268.314 118.543 257.862 117.691 247.41 116.884C244.942 116.704 242.52 116.48 240.053 116.3C236.33 115.986 232.606 115.717 228.838 115.628C227.448 115.583 226.012 115.583 224.801 115C224.218 114.73 222.424 113.43 222.468 111.321C222.513 108.63 225.609 106.118 231.754 100.152C236.195 95.8451 231.754 99.8375 246.961 84.5408C251.223 80.2793 252.972 78.485 254.497 77.0046C257.323 74.3132 260.149 71.5768 262.975 68.8853C266.654 65.3415 270.377 61.7977 274.055 58.2539C275.626 56.7736 277.196 55.2484 278.9 54.3064C280.65 53.4541 282.534 53.1849 283.879 54.1718ZM228.973 55.9661C229.96 51.8392 230.947 47.7122 231.934 43.5852C233.234 38.2023 234.535 32.7744 235.791 27.3914C236.33 25.1036 236.913 22.8159 237.9 20.6627C238.887 18.5543 240.412 16.5806 242.161 15.818C243.776 15.1451 245.077 15.4143 245.705 15.5937C263.289 20.9767 271.992 29.6343 271.992 29.6343C276.074 33.7164 278.541 37.1705 279.349 42.4638C279.618 44.1235 280.111 47.7571 278.452 51.1663C277.106 53.9924 274.908 55.2035 274.1 55.9661C264.187 64.9378 254.497 74.4477 244.853 83.9577C242.565 86.2006 240.322 88.4435 238.034 90.6416C234.58 94.0508 231.126 97.4152 227.762 100.959C226.506 102.26 225.25 103.606 223.859 104.503C223.186 104.906 220.898 105.938 219.777 104.772C218.297 103.292 219.642 98.9852 221.751 89.9687C223.276 83.4194 221.571 89.7893 226.506 67.1358C227.851 60.8557 228.435 58.209 228.973 55.9661ZM184.025 36.3631C185.057 34.4342 186.358 33.3576 187.03 32.8641C205.557 18.9132 218.028 15.2348 218.028 15.2348C223.859 13.5302 227.986 12.9471 231.664 15.0105C232.831 15.6385 235.253 17.074 235.747 20.4832C236.15 23.2645 234.849 26.0457 234.535 27.212C230.767 41.432 227.493 55.7418 224.263 70.0516C223.5 73.416 222.738 76.7355 221.975 80.0999C220.809 85.2137 219.642 90.3276 218.656 95.3965C218.297 97.2806 217.938 99.2095 217.13 101.004C216.771 101.856 215.336 104.592 213.676 105.041C211.568 105.624 210.357 102.08 207.217 95.262C204.929 90.3276 206.992 95.3068 198.738 78.5747C196.451 73.9094 195.464 71.9805 194.701 70.231C193.266 67.091 191.83 63.9509 190.44 60.8108C188.556 56.6839 186.716 52.6018 184.832 48.4748C184.07 46.7253 183.262 44.9758 182.948 42.9124C182.679 40.8937 182.903 38.3817 184.025 36.3631ZM145.043 98.4918C153.611 73.3711 162.628 59.5099 162.628 59.5099C166.844 53.0055 170.164 48.7888 174.56 46.3665C175.95 45.6039 178.911 44.0338 181.199 45.3796C183.083 46.501 183.487 49.1477 183.89 50.0897C188.466 61.2594 193.535 71.9805 198.649 82.6568C199.86 85.1689 201.026 87.6809 202.237 90.193C204.032 94.0059 205.871 97.8189 207.8 101.497C208.518 102.843 209.28 104.234 209.594 105.938C209.729 106.746 209.998 109.572 208.787 111.411C207.262 113.744 204.211 113.026 197.662 112.398C192.907 111.949 197.482 112.667 180.885 111.635C176.264 111.366 174.336 111.231 172.676 111.052C169.67 110.738 166.665 110.424 163.659 110.11C159.712 109.706 155.809 109.303 151.862 108.899C150.202 108.719 148.542 108.54 147.107 107.733C145.671 106.925 144.505 105.355 144.37 103.202C144.191 101.228 144.729 99.3889 145.043 98.4918ZM145.985 176.859C144.729 175.917 144.191 174.437 143.967 173.674C137.597 152.142 137.821 136.173 137.821 136.173C137.911 128.681 138.494 123.254 141.051 117.826C141.858 116.121 143.608 112.443 146.344 110.962C148.632 109.751 150.471 110.783 151.323 110.917C161.551 112.488 172.003 113.34 182.455 114.147C184.922 114.327 187.344 114.551 189.812 114.73C193.535 115.044 197.258 115.314 201.026 115.403C202.417 115.448 203.852 115.448 205.063 116.031C205.647 116.3 207.441 117.601 207.396 119.71C207.351 122.401 204.256 124.913 198.11 130.879C193.669 135.186 198.11 131.193 182.903 146.49C178.642 150.752 176.892 152.546 175.367 154.026C172.541 156.718 169.715 159.454 166.889 162.146C163.211 165.689 159.487 169.233 155.809 172.777C154.239 174.257 152.669 175.783 150.964 176.725C149.215 177.622 147.331 177.891 145.985 176.859ZM201.295 173.854C200.308 177.981 199.322 182.108 198.335 186.235C197.034 191.618 195.733 197.045 194.477 202.428C193.939 204.716 193.355 207.004 192.369 209.157C191.382 211.265 189.857 213.239 188.107 214.002C186.492 214.675 185.191 214.405 184.563 214.226C166.979 208.843 158.276 200.185 158.276 200.185C154.194 196.103 151.727 192.649 150.92 187.356C150.65 185.696 150.157 182.063 151.817 178.653C153.162 175.827 155.361 174.616 156.168 173.854C166.082 164.882 175.771 155.372 185.416 145.862C187.703 143.619 189.946 141.376 192.234 139.178C195.688 135.769 199.142 132.405 202.507 128.861C203.763 127.56 205.019 126.214 206.409 125.317C207.082 124.913 209.37 123.882 210.491 125.048C211.972 126.528 210.626 130.835 208.518 139.851C206.992 146.4 208.697 140.031 203.763 162.684C202.417 168.964 201.834 171.611 201.295 173.854ZM245.705 194.085C244.673 196.014 243.372 197.09 242.7 197.584C224.173 211.535 211.702 215.213 211.702 215.213C205.871 216.918 201.744 217.501 198.066 215.437C196.899 214.809 194.477 213.374 193.983 209.965C193.58 207.183 194.881 204.402 195.195 203.236C198.963 189.016 202.237 174.706 205.467 160.396C206.23 157.032 206.992 153.712 207.755 150.348C208.921 145.234 210.088 140.12 211.074 135.051C211.433 133.167 211.792 131.238 212.6 129.444C212.959 128.592 214.394 125.855 216.054 125.407C218.162 124.824 219.373 128.367 222.513 135.186C224.801 140.12 222.738 135.141 230.992 151.873C233.279 156.538 234.266 158.467 235.029 160.217C236.464 163.357 237.9 166.497 239.29 169.637C241.174 173.764 243.014 177.846 244.898 181.973C245.66 183.722 246.468 185.472 246.782 187.535C247.051 189.554 246.826 192.066 245.705 194.085ZM267.955 171.297C263.738 177.801 260.419 182.018 256.022 184.44C254.632 185.203 251.671 186.773 249.383 185.427C247.499 184.306 247.096 181.659 246.692 180.717C242.116 169.547 237.047 158.826 231.934 148.15C230.722 145.638 229.556 143.126 228.345 140.614C226.551 136.801 224.711 132.988 222.782 129.309C222.065 127.964 221.302 126.573 220.988 124.868C220.854 124.061 220.584 121.235 221.796 119.396C223.321 117.063 226.371 117.781 232.92 118.409C237.675 118.857 233.1 118.14 249.697 119.171C254.318 119.441 256.247 119.575 257.907 119.755C260.912 120.069 263.918 120.383 266.923 120.697C270.871 121.1 274.773 121.504 278.721 121.908C280.38 122.087 282.04 122.267 283.476 123.074C284.911 123.882 286.077 125.452 286.212 127.605C286.347 129.623 285.808 131.463 285.494 132.36C276.926 157.391 267.955 171.297 267.955 171.297Z" fill="#FFFAD7"/>
<path d="M286.257 127.562C286.122 125.409 284.956 123.839 283.52 123.032C282.085 122.224 280.425 122.045 278.765 121.865C274.818 121.461 270.915 121.058 266.968 120.654C263.962 120.34 260.957 120.026 257.951 119.712C256.291 119.533 254.362 119.443 249.742 119.129C233.145 118.097 237.765 118.815 232.965 118.366C226.416 117.783 223.365 117.021 221.84 119.353C220.629 121.192 220.898 124.018 221.033 124.826C221.347 126.53 222.109 127.876 222.827 129.267C224.756 132.945 226.595 136.758 228.39 140.571C229.601 143.083 230.767 145.595 231.978 148.107C237.047 158.784 242.161 169.505 246.737 180.674C247.095 181.616 247.544 184.263 249.428 185.385C251.716 186.73 254.676 185.16 256.067 184.398C260.418 181.975 263.783 177.759 267.999 171.254C267.999 171.254 276.971 157.393 285.584 132.272C285.853 131.42 286.391 129.581 286.257 127.562Z" fill="#F8F270"/>
<path d="M244.852 181.885C242.968 177.758 241.129 173.676 239.245 169.549C237.809 166.408 236.374 163.268 234.983 160.128C234.221 158.424 233.234 156.45 230.946 151.785C222.692 135.053 224.756 140.032 222.468 135.097C219.328 128.324 218.117 124.735 216.008 125.318C214.348 125.767 212.913 128.548 212.554 129.356C211.791 131.15 211.433 133.079 211.029 134.963C209.997 140.077 208.876 145.191 207.709 150.259C206.947 153.624 206.184 156.943 205.422 160.308C202.192 174.618 198.917 188.882 195.149 203.147C194.835 204.314 193.579 207.095 193.938 209.876C194.386 213.241 196.854 214.721 198.02 215.349C201.698 217.412 205.78 216.829 211.657 215.125C211.657 215.125 224.128 211.446 242.654 197.495C243.327 197.002 244.628 195.88 245.659 193.996C246.781 191.933 247.05 189.466 246.736 187.357C246.467 185.384 245.659 183.634 244.852 181.885Z" fill="#F8F270"/>
<path d="M208.516 139.852C210.625 130.836 211.97 126.529 210.49 125.049C209.369 123.883 207.036 124.915 206.408 125.318C205.017 126.171 203.716 127.516 202.505 128.862C199.141 132.406 195.687 135.815 192.233 139.18C189.945 141.422 187.702 143.665 185.414 145.863C175.725 155.373 166.08 164.883 156.167 173.855C155.359 174.618 153.116 175.829 151.815 178.655C150.201 182.109 150.694 185.698 150.918 187.357C151.726 192.651 154.238 196.105 158.275 200.187C158.275 200.187 166.978 208.844 184.562 214.227C185.19 214.407 186.491 214.676 188.106 214.003C189.855 213.285 191.336 211.312 192.367 209.158C193.354 207.05 193.937 204.717 194.476 202.43C195.777 197.047 197.077 191.619 198.334 186.236C199.32 182.109 200.307 177.982 201.294 173.855C201.832 171.612 202.416 168.965 203.761 162.64C208.696 139.987 207.036 146.357 208.516 139.852Z" fill="#F8F270"/>
<path d="M166.843 162.148C169.669 159.456 172.495 156.72 175.321 154.028C176.846 152.548 178.641 150.799 182.857 146.492C198.064 131.195 193.623 135.188 198.064 130.881C204.165 124.915 207.305 122.403 207.35 119.712C207.395 117.603 205.601 116.347 205.017 116.033C203.806 115.45 202.371 115.45 200.98 115.405C197.212 115.316 193.489 115.002 189.766 114.732C187.298 114.553 184.876 114.329 182.409 114.149C171.957 113.297 161.55 112.49 151.277 110.92C150.425 110.785 148.586 109.753 146.298 110.964C143.517 112.445 141.767 116.123 141.005 117.828C138.493 123.256 137.909 128.728 137.775 136.175C137.775 136.175 137.551 152.099 143.92 173.676C144.145 174.439 144.683 175.919 145.939 176.861C147.285 177.848 149.169 177.579 150.874 176.637C152.578 175.695 154.148 174.215 155.718 172.689C159.486 169.19 163.165 165.691 166.843 162.148Z" fill="#F8F270"/>
<path d="M147.106 107.779C148.542 108.586 150.201 108.766 151.861 108.945C155.809 109.349 159.711 109.753 163.659 110.156C166.664 110.47 169.67 110.784 172.675 111.098C174.335 111.278 176.264 111.367 180.884 111.681C197.482 112.713 192.862 111.995 197.661 112.444C204.211 113.027 207.261 113.79 208.786 111.457C209.997 109.618 209.728 106.792 209.594 105.984C209.28 104.28 208.517 102.934 207.799 101.543C205.87 97.8651 204.031 94.0521 202.237 90.2392C201.026 87.7271 199.859 85.2151 198.648 82.703C193.579 72.0267 188.465 61.3056 183.89 50.1359C183.531 49.1939 183.082 46.5472 181.198 45.4258C178.911 44.08 175.95 45.6501 174.559 46.4127C170.208 48.835 166.844 53.0517 162.627 59.5561C162.627 59.5561 153.655 73.4173 145.043 98.538C144.729 99.4351 144.19 101.274 144.325 103.293C144.504 105.401 145.671 106.971 147.106 107.779Z" fill="#F8F270"/>
<path d="M184.833 48.5204C186.717 52.6474 188.556 56.7295 190.44 60.8564C191.875 63.9965 193.311 67.1366 194.702 70.2767C195.464 71.9813 196.451 73.955 198.739 78.6203C206.993 95.3524 204.929 90.3732 207.217 95.3076C210.357 102.081 211.568 105.67 213.677 105.087C215.336 104.638 216.772 101.857 217.131 101.049C217.893 99.2551 218.252 97.3262 218.656 95.4421C219.688 90.3283 220.809 85.2145 221.975 80.1455C222.738 76.7811 223.501 73.4616 224.263 70.0972C227.493 55.7874 230.768 41.5225 234.536 27.2576C234.85 26.0913 236.106 23.3101 235.747 20.5288C235.298 17.1645 232.831 15.6842 231.665 15.0561C227.986 12.9927 223.904 13.5758 218.028 15.2804C218.028 15.2804 205.557 18.9588 187.031 32.9097C186.358 33.4032 185.057 34.5246 184.025 36.4087C182.904 38.4721 182.635 40.9394 182.949 43.0477C183.263 45.0663 184.07 46.8158 184.833 48.5204Z" fill="#F8F270"/>
<path d="M263.02 68.9301C260.193 71.6216 257.367 74.358 254.541 77.0495C253.016 78.5298 251.222 80.2793 247.005 84.5857C231.798 99.8823 236.239 95.8899 231.798 100.196C225.697 106.162 222.557 108.675 222.513 111.366C222.468 113.474 224.262 114.73 224.845 115.044C226.056 115.628 227.492 115.628 228.882 115.672C232.651 115.762 236.374 116.076 240.097 116.345C242.564 116.525 244.987 116.749 247.454 116.928C257.906 117.781 268.313 118.588 278.585 120.158C279.438 120.293 281.277 121.325 283.565 120.113C286.346 118.633 288.095 114.955 288.858 113.25C291.37 107.822 291.953 102.35 292.088 94.9031C292.088 94.9031 292.312 78.9784 285.942 57.4016C285.718 56.639 285.18 55.1587 283.923 54.2166C282.578 53.2297 280.694 53.4989 278.989 54.4409C277.284 55.3829 275.714 56.8633 274.144 58.3884C270.421 61.8425 266.698 65.3863 263.02 68.9301Z" fill="#F8F270"/>
<g opacity="0.59">
<g opacity="0.59">
<g opacity="0.59">
<path opacity="0.59" d="M260.508 108.898C260.553 108.898 260.643 108.898 260.688 108.898C260.643 108.853 260.553 108.853 260.508 108.898Z" fill="#F9EC48"/>
</g>
<g opacity="0.59">
<g opacity="0.59">
<path opacity="0.59" d="M292.042 94.8564C292.042 94.8564 292.087 89.608 290.966 81.085C290.742 87.1408 291.549 93.107 289.665 99.118C289.216 100.553 288.454 102.123 287.467 102.976C287.557 103.559 287.557 104.187 287.602 104.815C287.602 105.802 287.108 106.52 286.525 106.789C286.615 106.878 286.704 106.968 286.794 107.058C287.826 108.314 287.781 110.467 286.301 112.082C282.622 116.119 280.783 108.987 278.406 107.865C276.701 108.09 275.041 107.82 273.561 107.058C273.651 106.564 273.695 106.071 273.785 105.578C270.286 103.559 265.531 106.878 261.359 109.57C261.001 109.794 260.552 110.019 260.283 109.794C260.059 109.615 260.238 109.032 260.462 108.897C255.304 108.852 250.19 108.852 245.031 108.807C246.242 109.525 247.139 110.826 247.588 112.531C245.39 112.261 243.192 111.947 240.994 111.678C236.598 111.095 232.067 110.557 227.447 112.306C224.935 113.248 223.634 113.248 222.512 111.858C222.736 113.652 224.307 114.774 224.8 114.998C226.011 115.581 227.447 115.581 228.837 115.626C232.605 115.716 236.329 116.03 240.052 116.299C242.519 116.478 244.941 116.702 247.409 116.882C257.861 117.734 268.268 118.542 278.54 120.112C279.392 120.246 281.232 121.278 283.519 120.067C286.301 118.586 288.05 114.908 288.813 113.203C291.37 107.776 291.953 102.348 292.042 94.8564ZM258.219 115.671C255.214 116.972 253.061 114.459 250.369 114.37C249.741 114.325 249.472 113.876 249.427 113.293C248.844 112.172 249.607 109.974 250.997 110.198C251.535 110.288 252.074 110.422 252.612 110.512C254.81 110.871 257.053 111.095 259.072 112.127C260.283 112.755 259.52 115.088 258.219 115.671ZM271.632 114.594C269.479 114.639 267.64 113.473 265.666 112.979C264.634 112.71 264.23 110.871 265.442 109.749C267.146 108.179 268.357 108.628 269.658 109.346C270.241 109.346 270.869 109.301 271.453 109.346C272.619 109.391 274.548 109.256 275.041 110.826C275.759 113.159 273.023 114.549 271.632 114.594Z" fill="#F5E642"/>
</g>
</g>
</g>
</g>
<path d="M262.571 175.693C263.065 174.616 263.827 174.347 264.411 174.571C264.68 174.123 264.904 173.674 265.173 173.226C266.16 171.7 267.326 170.758 268.627 170.175C270.601 166.901 276.478 156.538 282.668 140.12C280.649 143.574 278.451 146.804 276.029 149.81C274.773 151.38 273.517 152.86 272.351 154.565C270.108 157.839 268.448 161.787 265.846 164.523C264.904 165.51 263.827 166.317 262.751 166.497C262.571 166.542 262.347 166.542 262.168 166.542C262.347 168.201 261.719 170.13 260.194 171.117C258.22 172.373 256.471 170.534 255.394 169.099C254.228 167.573 253.017 165.734 252.523 163.536C252.523 163.491 252.523 163.446 252.523 163.446C250.774 162.504 249.069 161.428 247.499 160.172C247.32 161.338 247.275 162.549 247.275 163.671C244.538 161.024 242.206 157.794 239.918 154.565C235.881 148.868 231.799 143.171 227.761 137.474C226.864 136.218 226.057 135.006 225.16 133.975C226.236 136.218 227.313 138.46 228.389 140.703L231.978 148.24C237.047 158.916 242.161 169.637 246.736 180.807C247.095 181.749 247.544 184.395 249.428 185.517C251.716 186.862 254.676 185.292 256.067 184.53C258.265 183.319 260.239 181.614 262.168 179.416C261.585 178.295 261.943 177.083 262.571 175.693ZM247.32 169.323C246.871 169.996 246.019 170.4 245.48 169.996C245.122 170.13 244.763 170.086 244.449 169.727C243.013 168.201 242.116 166.003 241.668 163.491C241.353 161.742 243.103 160.217 244.09 161.114C245.66 162.504 246.153 164.972 247.409 166.721C247.858 167.394 247.903 168.426 247.32 169.323ZM254.542 179.909C254.228 180.717 253.51 181.166 252.927 181.166C250.191 181.166 247.813 176.949 249.383 173.136C249.787 172.194 250.729 171.656 251.357 171.97C251.402 171.97 251.402 172.014 251.447 172.014C251.94 171.835 252.433 172.104 252.703 172.553C253.286 173.495 254.093 174.212 254.587 175.244C255.215 176.59 255.26 178.205 254.542 179.909Z" fill="#F5E642"/>
<path d="M246.737 187.493C246.647 186.955 246.557 186.416 246.422 185.923C245.48 187.717 244.538 189.512 243.641 191.306C243.148 192.203 242.61 193.235 241.847 193.549C241.219 193.818 240.591 193.504 239.963 193.952C239.38 194.401 239.066 195.343 238.707 196.106C237.541 198.618 235.118 199.739 233.1 199.919C232.292 200.008 231.44 199.963 230.632 200.547C230.049 200.95 229.601 201.578 229.062 202.117C226.999 204.27 224.173 204.539 222.603 202.745C221.661 205.167 219.777 207.006 217.893 207.993C216.009 208.98 214.08 209.204 212.151 209.429C211.568 209.518 210.94 209.563 210.491 209.204C210.042 208.845 209.863 207.948 210.312 207.275C210.132 207.231 209.953 207.186 209.773 207.141C209.773 208.173 209.594 209.294 209.235 210.326C209.011 210.909 208.428 211.447 207.979 211.537C207.889 211.537 207.8 211.582 207.71 211.582C207.486 211.941 207.127 212.255 206.723 212.389C205.198 212.883 204.121 211.582 203.987 209.832C203.942 209.249 203.942 208.666 204.031 208.083C203.987 208.083 203.942 208.128 203.897 208.128C203.628 209.115 203.314 210.057 202.731 210.999C202.282 211.761 201.519 211.896 201.026 211.716C200.129 211.402 199.68 210.191 199.68 208.801C199.097 208.711 198.559 208.576 198.065 208.217C195.15 206.333 195.598 202.61 196.271 198.842C195.867 200.322 195.508 201.803 195.105 203.283C194.791 204.449 193.535 207.231 193.893 210.012C194.342 213.376 196.809 214.856 197.976 215.484C201.654 217.548 205.736 216.965 211.612 215.26C211.612 215.26 224.083 211.582 242.61 197.631C243.282 197.137 244.583 196.016 245.615 194.132C246.826 192.068 247.051 189.556 246.737 187.493Z" fill="#F5E642"/>
<path d="M192.368 209.203C193.355 207.095 193.938 204.762 194.476 202.475C194.611 201.847 194.79 201.264 194.925 200.636C193.893 202.654 192.637 204.718 191.874 205.525C190.125 207.409 187.792 207.992 185.908 207.544C184.024 207.095 182.454 205.749 181.108 204.224C180.57 203.641 180.032 202.968 179.269 202.923C178.596 202.878 177.834 203.282 177.116 203.641C174.963 204.762 172.406 205.346 171.195 203.462C170.791 202.834 170.567 201.981 169.984 201.622C168.997 200.994 167.651 202.071 166.44 202.34C165.004 202.654 163.793 201.802 162.627 201.129C160.967 200.232 159.128 199.694 157.333 199.11C157.648 199.469 158.006 199.828 158.365 200.142C158.365 200.142 167.068 208.8 184.652 214.183C185.28 214.362 186.581 214.631 188.196 213.958C189.856 213.286 191.381 211.312 192.368 209.203Z" fill="#F5E642"/>
<path d="M185.64 142.138C181.603 145.009 177.61 148.239 173.797 151.782C172.855 152.68 171.824 153.622 170.792 154.025C169.715 154.474 168.549 154.25 168.1 153.128C165.768 155.371 163.435 157.569 161.102 159.812C161.461 159.992 161.82 160.126 162.179 160.306C161.775 161.92 160.385 162.952 159.218 163.804C156.976 165.375 154.688 167.214 153.207 169.995C152.714 170.937 152.265 172.058 151.458 172.462C151.054 172.686 150.651 172.642 150.292 172.597C148.452 172.372 146.703 171.879 144.998 171.161C145.761 170.758 146.344 169.681 146.389 168.694C146.389 167.707 145.761 166.989 145.043 167.124C144.64 167.214 144.191 167.483 143.877 167.259C143.653 167.079 143.608 166.675 143.563 166.272C143.294 162.593 141.993 159.364 140.064 157.165C140.961 162.1 142.217 167.662 144.011 173.673C144.236 174.436 144.774 175.916 146.03 176.858C147.376 177.845 149.26 177.576 150.965 176.634C152.669 175.692 154.239 174.212 155.809 172.686C159.488 169.143 163.211 165.599 166.889 162.055C169.715 159.364 172.541 156.627 175.367 153.936C176.893 152.455 178.687 150.706 182.904 146.399C186.223 143.035 188.601 140.613 190.35 138.863C188.735 139.895 187.165 141.061 185.64 142.138Z" fill="#F5E642"/>
<path d="M207.575 110.469C206.453 110.693 199.321 110.065 194.521 109.168C191.74 110.738 188.689 111.142 186.491 109.527C185.684 108.944 185.549 107.374 186.581 106.387C187.882 105.131 189.138 104.682 190.439 104.503C189.945 104.234 189.407 104.054 188.869 104.054C186.267 103.965 183.486 106.611 180.794 107.105C178.91 107.464 177.206 106.701 175.546 105.938L169.669 103.247C168.368 102.619 167.023 102.036 165.812 101.228C165.587 103.023 164.107 104.548 162.761 104.952C161.415 105.355 160.159 104.907 158.948 104.458C159.262 105.938 160.07 107.105 161.146 107.733C158.186 107.867 155.046 108.002 152.848 106.028C150.649 104.054 149.932 99.2546 152.22 95.98L149.707 94.9931C150.649 92.2119 150.38 89.3858 150.425 86.6494C150.425 85.7523 150.515 84.8551 150.605 83.9131C148.81 88.2643 146.926 93.1539 145.087 98.5817C144.773 99.4789 144.235 101.318 144.369 103.337C144.504 105.49 145.67 107.06 147.106 107.867C148.541 108.675 150.201 108.854 151.861 109.034C155.808 109.437 159.711 109.841 163.658 110.245C166.664 110.559 169.669 110.873 172.675 111.187C174.335 111.366 176.264 111.456 180.884 111.77C197.482 112.802 192.861 112.084 197.661 112.533C204.21 113.116 207.261 113.878 208.786 111.546C209.1 111.052 209.324 110.514 209.459 109.931C208.786 110.11 208.158 110.335 207.575 110.469Z" fill="#F5E642"/>
<path d="M218.7 95.3522C219.732 90.2383 220.853 85.1245 222.02 80.0555C222.782 76.6912 223.545 73.3716 224.307 70.0073C225.922 62.9645 227.492 55.9666 229.152 48.9688C228.389 50.4491 227.582 51.9743 226.819 53.4546C226.102 54.8452 224.801 56.5049 223.948 55.8321C222.468 58.4787 221.616 61.6188 221.661 64.4897C222.289 63.772 222.962 63.0094 223.59 62.2916C222.648 64.8934 222.648 67.6298 222.468 70.2764C222.064 76.5566 220.629 83.061 218.296 89.2066C217.713 89.0272 217.175 88.5786 216.816 88.0403C216.547 89.8346 216.009 91.6738 215.336 93.3784C215.111 93.9167 214.797 94.5447 214.394 94.6793C213.99 94.8139 213.721 94.4999 213.452 94.1859C211.702 91.9878 209.953 89.7898 208.203 87.5917C208.517 89.0272 208.517 90.5972 208.203 92.2121C206.05 90.0589 203.987 87.6814 202.058 85.1694C206.499 94.0513 205.377 91.1804 207.306 95.3073C210.446 102.081 211.657 105.67 213.766 105.086C215.425 104.638 216.861 101.857 217.22 101.049C217.937 99.1651 218.296 97.2362 218.7 95.3522Z" fill="#F5E642"/>
<path d="M167.562 123.119C167.427 123.119 167.337 123.074 167.203 123.074C167.113 123.074 167.068 123.254 167.158 123.254C167.292 123.254 167.427 123.254 167.517 123.254C167.606 123.299 167.606 123.164 167.562 123.119Z" fill="#FFF9AB"/>
<path d="M246.872 93.4244C243.328 92.3478 237.765 99.4354 233.414 103.383C227.268 108.407 247.858 99.7494 246.872 93.4244Z" fill="#F6D938"/>
<path d="M248.935 88.9376C250.28 87.3227 253.51 85.4835 260.732 78.9342C257.906 75.4801 250.146 82.9714 248.935 88.9376Z" fill="#F6D938"/>
<path d="M266.564 79.6058C265.981 79.516 251.626 90.0577 257.368 87.77C259.387 88.2185 274.055 78.7983 266.564 79.6058Z" fill="#F6D938"/>
<path d="M262.482 77.139C267.147 77.0492 270.646 71.2177 275.446 66.7319C292.044 54.665 269.3 58.9714 262.482 77.139Z" fill="#F6D938"/>
<path d="M276.882 69.1545C271.813 73.9992 284.956 67.9882 279.394 67.2256C278.048 68.033 278.631 67.4499 276.882 69.1545Z" fill="#F6D938"/>
<path d="M243.911 46.6815C243.282 41.5228 233.189 59.1521 233.145 63.2342C236.599 58.9278 243.058 53.6794 243.911 46.6815Z" fill="#F6D938"/>
<path d="M234.536 51.9751C237.766 49.6425 239.695 39.1456 241.22 32.372C237.048 27.8862 236.286 46.951 234.536 51.9751Z" fill="#F6D938"/>
<path d="M244.18 34.6589C244.404 32.9543 246.557 30.8011 249.249 22.906C245.839 16.7156 241.802 31.6085 244.18 34.6589Z" fill="#F6D938"/>
<path d="M225.788 83.1954C227.627 89.6101 230.767 74.9863 229.915 69.4688C228.031 72.9228 227.807 77.4087 225.788 83.1954Z" fill="#F6D938"/>
<path d="M201.969 67.8097C194.971 55.2942 193.401 67.0022 203.584 75.8842C205.019 79.6971 205.916 75.0319 201.969 67.8097Z" fill="#F6D938"/>
<path d="M203.672 63.5917C204.839 63.3225 204.031 61.3488 203.807 58.1638C199.007 33.8955 197.617 58.6573 203.672 63.5917Z" fill="#F6D938"/>
<path d="M195.598 55.9671C195.329 50.1804 194.342 47.7132 192.099 39.6387C185.146 41.119 191.651 53.6793 195.598 55.9671Z" fill="#F6D938"/>
<path d="M197.123 43.5415C197.527 44.663 198.334 36.9025 196.226 34.9287C193.265 36.095 194.925 42.2406 197.123 43.5415Z" fill="#F6D938"/>
<path d="M209.998 47.1744C210.491 45.5595 209.28 40.8493 209.504 36.857C205.108 33.8515 206.858 45.4249 209.998 47.1744Z" fill="#F6D938"/>
<path d="M168.191 94.7675C177.297 100.644 176.175 90.7752 165.23 89.9229C164.378 91.762 166.172 93.1078 168.191 94.7675Z" fill="#F6D938"/>
<path d="M156.616 91.807C156.078 95.8442 163.838 101.676 165.588 97.7282C162.492 98.132 159.577 84.4053 156.616 91.807Z" fill="#F6D938"/>
<path d="M157.11 82.3886C160.16 84.2278 165.139 85.7978 160.698 79.6522C159.442 77.7682 155.315 78.6205 157.11 82.3886Z" fill="#F6D938"/>
<path d="M169.625 117.961C166.036 119.755 163.3 119.89 159.622 117.467C145.177 108.585 152.758 132.764 169.625 117.961Z" fill="#F6D938"/>
<path d="M155.316 126.126C152.445 125.812 146.613 119.128 143.07 127.023C142.173 131.194 152.804 128.144 155.316 126.126Z" fill="#F6D938"/>
<path d="M178.732 121.549C176.041 122.805 168.37 122.805 165.14 128.008C167.742 129.623 175.727 128.143 178.732 121.549Z" fill="#F6D938"/>
<path d="M187.523 121.279C186.671 120.382 179.628 123.791 183.665 125.271C184.159 124.105 188.241 123.118 187.523 121.279Z" fill="#F6D938"/>
<path d="M188.511 148.375C189.542 146.85 182.365 151.605 179.225 158.065C181.199 163.044 186.492 151.516 188.511 148.375Z" fill="#F6D938"/>
<path d="M174.156 163.986C154.643 174.214 156.661 190.901 165.05 175.649C165.633 173.721 175.771 167.037 174.156 163.986Z" fill="#F6D938"/>
<path d="M170.254 174.437C167.024 176.41 161.237 185.517 160.789 191.124C163.615 196.193 169.985 176.365 170.254 174.437Z" fill="#F6D938"/>
<path d="M184.832 157.884C183.441 160.8 179.628 165.465 178.866 169.996C179.494 167.259 190.529 157.974 184.832 157.884Z" fill="#F6D938"/>
<path d="M212.286 151.605C211.388 156.54 206.768 164.749 206.723 171.478C213.048 175.156 210.716 157.796 212.286 151.605Z" fill="#F6D938"/>
<path d="M205.153 177.398C203.358 179.417 203.134 183.858 202.73 188.075C205.915 196.687 207.934 179.911 205.153 177.398Z" fill="#F6D938"/>
<path d="M201.52 192.604C199.905 192.739 198.38 200.455 201.744 196.238C201.699 195.341 202.192 196.462 201.52 192.604Z" fill="#F6D938"/>
<path d="M215.336 169.324C214.574 164.838 208.249 184.711 213.048 186.864C215.964 182.154 213.093 176.187 215.336 169.324Z" fill="#F6D938"/>
<path d="M245.301 126.619C254.407 121.057 235.477 121.371 233.548 123.928C237.137 125.229 239.963 126.933 245.301 126.619Z" fill="#F6D938"/>
<path d="M252.03 132.628C249.742 131.551 243.507 128.007 240.636 131.91C243.103 130.25 254.363 142.317 252.03 132.628Z" fill="#F6D938"/>
<path d="M267.909 128.726C267.236 123.074 257.367 123.971 254.003 127.425C256.066 128.457 267.954 134.333 267.909 128.726Z" fill="#F6D938"/>
<g filter="url(#filter3_i_1065_9766)">
<path d="M479.147 64.3582C477.442 61.7564 475.827 60.0967 474.392 58.9752C472.149 57.2258 470.265 56.3286 469.682 56.0595C466.811 54.7586 461.607 51.4839 451.559 43.0057C433.795 31.6117 431.014 29.6379 431.014 29.6379C427.246 26.9016 423.567 24.569 418.364 21.5635C401.183 12.0535 392.705 7.16395 382.971 5.63877C382.971 5.63877 366.059 2.99213 348.564 11.1115C347.308 11.6946 346.142 12.3226 346.142 12.3226C343.944 13.489 341.836 14.8347 339.727 16.3599C305.68 41.3908 301.149 106.749 329.589 162.374C354.172 210.417 395.307 235.448 428.008 225.265C431.418 223.919 436.397 221.586 441.69 217.818C456.628 207.142 463.043 192.787 470.534 175.382C471.611 172.915 476.052 159.906 485.023 133.889C485.472 132.543 487.311 127.205 489.509 120.072C491.931 112.222 493.187 108.274 493.322 106.884C494.309 98.9888 490.765 98.6748 485.203 78.5783C485.023 77.5466 483.049 70.3244 479.147 64.3582Z" fill="#FFCF00"/>
</g>
<g filter="url(#filter4_i_1065_9766)">
<path d="M489.554 120.071C491.976 112.221 493.232 108.274 493.367 106.883C494.354 98.9879 490.81 98.6738 485.247 78.5773C484.978 77.5905 483.004 70.3234 479.102 64.3573C477.397 61.7555 475.782 60.0957 474.347 58.9743C472.104 57.2248 470.22 56.3276 469.637 56.0585C467.977 55.2959 465.51 53.8604 461.831 51.1689C464.029 54.8025 466.272 58.3911 468.47 62.0246C467.394 66.9591 466.452 73.7326 466.9 81.6726C467.394 91.0031 469.592 98.5841 471.521 103.743C463.985 114.285 440.883 144.923 409.258 163.898C397.55 170.896 378.978 179.733 359.061 186.686C354.351 188.301 350.448 189.557 347.757 190.409C371.711 219.657 402.439 233.249 428.008 225.264C431.417 223.918 436.397 221.585 441.69 217.817C456.628 207.141 463.043 192.786 470.534 175.381C471.61 172.914 476.051 159.905 485.023 133.888C485.517 132.497 487.356 127.204 489.554 120.071Z" fill="#A59800"/>
</g>
<path d="M479.865 70.415C480.807 70.7739 489.285 74.2729 492.156 83.7828C494.802 92.575 490.541 99.6626 489.913 100.65C489.105 100.246 478.429 94.5039 477.173 82.9754C476.545 76.9643 478.788 72.3439 479.865 70.415Z" fill="#C1D051"/>
<path opacity="0.57" d="M433.033 65.5676C433.212 62.2481 430.879 59.2425 428.008 57.5828C425.138 55.923 421.818 55.295 418.588 54.6221C401.497 50.9438 385.259 43.8113 368.033 40.9404C354.351 38.6526 340.266 39.1909 326.763 42.331C324.072 42.959 321.38 43.5422 318.734 44.2599C311.691 61.1715 309.358 82.21 311.87 104.37C340.849 93.2451 370.096 81.268 401.049 78.9802C410.379 78.3073 420.383 78.3073 428.008 72.9692C430.565 71.2197 432.853 68.6628 433.033 65.5676Z" fill="#FFF8A1"/>
<path opacity="0.57" d="M462.236 83.4672C462.595 85.5756 463.088 88.0428 461.653 89.5679C460.307 91.0034 457.795 90.824 456.27 89.6128C454.7 88.4016 453.937 86.4279 453.444 84.499C452.053 79.116 452.457 73.2844 454.565 68.1257C455.014 67.0042 455.597 65.8828 456.539 65.1202C465.556 58.1672 461.877 81.2243 462.236 83.4672Z" fill="#FFF8A1"/>
<defs>
<filter id="filter0_f_1065_9766" x="0.658712" y="216.62" width="591.728" height="83.7714" filterUnits="userSpaceOnUse" color-interpolation-filters="sRGB">
<feFlood flood-opacity="0" result="BackgroundImageFix"/>
<feBlend mode="normal" in="SourceGraphic" in2="BackgroundImageFix" result="shape"/>
<feGaussianBlur stdDeviation="12.491" result="effect1_foregroundBlur_1065_9766"/>
</filter>
<filter id="filter1_i_1065_9766" x="62.7456" y="0.777344" width="209.571" height="245.436" filterUnits="userSpaceOnUse" color-interpolation-filters="sRGB">
<feFlood flood-opacity="0" result="BackgroundImageFix"/>
<feBlend mode="normal" in="SourceGraphic" in2="BackgroundImageFix" result="shape"/>
<feColorMatrix in="SourceAlpha" type="matrix" values="0 0 0 0 0 0 0 0 0 0 0 0 0 0 0 0 0 0 127 0" result="hardAlpha"/>
<feOffset dx="10.5779" dy="22.478"/>
<feGaussianBlur stdDeviation="13.8835"/>
<feComposite in2="hardAlpha" operator="arithmetic" k2="-1" k3="1"/>
<feColorMatrix type="matrix" values="0 0 0 0 1 0 0 0 0 0.725391 0 0 0 0 0.229167 0 0 0 1 0"/>
<feBlend mode="normal" in2="shape" result="effect1_innerShadow_1065_9766"/>
</filter>
<filter id="filter2_i_1065_9766" x="52.1926" y="59.1319" width="121.066" height="164.113" filterUnits="userSpaceOnUse" color-interpolation-filters="sRGB">
<feFlood flood-opacity="0" result="BackgroundImageFix"/>
<feBlend mode="normal" in="SourceGraphic" in2="BackgroundImageFix" result="shape"/>
<feColorMatrix in="SourceAlpha" type="matrix" values="0 0 0 0 0 0 0 0 0 0 0 0 0 0 0 0 0 0 127 0" result="hardAlpha"/>
<feOffset dx="-10.5779" dy="-1.32224"/>
<feGaussianBlur stdDeviation="13.2224"/>
<feComposite in2="hardAlpha" operator="arithmetic" k2="-1" k3="1"/>
<feColorMatrix type="matrix" values="0 0 0 0 1 0 0 0 0 1 0 0 0 0 1 0 0 0 0.25 0"/>
<feBlend mode="normal" in2="shape" result="effect1_innerShadow_1065_9766"/>
</filter>
<filter id="filter3_i_1065_9766" x="310.903" y="5.22656" width="193.161" height="244.763" filterUnits="userSpaceOnUse" color-interpolation-filters="sRGB">
<feFlood flood-opacity="0" result="BackgroundImageFix"/>
<feBlend mode="normal" in="SourceGraphic" in2="BackgroundImageFix" result="shape"/>
<feColorMatrix in="SourceAlpha" type="matrix" values="0 0 0 0 0 0 0 0 0 0 0 0 0 0 0 0 0 0 127 0" result="hardAlpha"/>
<feOffset dx="10.5779" dy="22.478"/>
<feGaussianBlur stdDeviation="13.8835"/>
<feComposite in2="hardAlpha" operator="arithmetic" k2="-1" k3="1"/>
<feColorMatrix type="matrix" values="0 0 0 0 1 0 0 0 0 0.725391 0 0 0 0 0.229167 0 0 0 1 0"/>
<feBlend mode="normal" in2="shape" result="effect1_innerShadow_1065_9766"/>
</filter>
<filter id="filter4_i_1065_9766" x="337.179" y="49.8467" width="156.352" height="177.672" filterUnits="userSpaceOnUse" color-interpolation-filters="sRGB">
<feFlood flood-opacity="0" result="BackgroundImageFix"/>
<feBlend mode="normal" in="SourceGraphic" in2="BackgroundImageFix" result="shape"/>
<feColorMatrix in="SourceAlpha" type="matrix" values="0 0 0 0 0 0 0 0 0 0 0 0 0 0 0 0 0 0 127 0" result="hardAlpha"/>
<feOffset dx="-10.5779" dy="-1.32224"/>
<feGaussianBlur stdDeviation="13.2224"/>
<feComposite in2="hardAlpha" operator="arithmetic" k2="-1" k3="1"/>
<feColorMatrix type="matrix" values="0 0 0 0 1 0 0 0 0 1 0 0 0 0 1 0 0 0 0.25 0"/>
<feBlend mode="normal" in2="shape" result="effect1_innerShadow_1065_9766"/>
</filter>
</defs>
</svg>
