
<svg width="777" height="719" viewBox="0 0 777 719" fill="none" xmlns="http://www.w3.org/2000/svg">
<g filter="url(#filter0_f_2121_11006)">
<ellipse cx="388.419" cy="359.749" rx="236.955" ry="207.861" fill="url(#paint0_linear_2121_11006)"/>
</g>
<path d="M368.243 37.2204C371.151 27.4496 377.305 18.9467 384.577 11.5254C391.327 18.6484 398.264 26.0324 401.956 34.498C408.333 49.1169 404.044 64.2952 399.606 78.2055C399.233 79.3243 398.823 80.5177 397.779 81.1889C396.66 81.8602 395.094 81.7856 393.639 81.6365C384.092 80.6295 369.175 78.019 369.138 67.6888C369.1 57.1349 365.147 47.6624 368.243 37.2204Z" fill="#66AD38"/>
<path d="M428.285 59.4481C447.864 56.2409 463.788 65.7507 468.375 68.6968C463.75 75.8944 451.854 92.4152 432.723 98.7178C427.502 100.433 416.761 103.976 409.228 98.9788C406.916 97.4498 405.051 95.3987 403.746 93.5713C401.322 90.2895 397.331 84.3226 397.481 80.0712C397.63 75.8571 401.023 73.2466 404.417 70.4869C414.934 61.7603 426.756 59.7092 428.285 59.4481Z" fill="#66AD38"/>
<path d="M407.699 48.8931C412.547 46.1334 417.283 45.4994 420.304 45.0519C426.233 44.1569 431.231 44.6417 434.624 45.2011C434.587 47.5505 434.289 50.9442 433.021 54.7854C432.797 55.494 431.753 58.8876 429.515 62.2067C423.772 70.6723 414.076 76.3035 403.857 77.0867C401.135 77.3104 398.263 77.124 395.951 75.6695C385.472 69.106 401.508 52.3986 407.699 48.8931Z" fill="#6FC13A"/>
<path d="M397.741 81.1889C398.822 80.5177 399.233 79.3243 399.568 78.2055C404.006 64.2952 408.295 49.1541 401.918 34.4979C398.226 26.0324 391.327 18.6857 384.539 11.5254C384.502 11.5627 384.465 11.6 384.427 11.6373C384.539 14.2851 385.099 17.4177 385.136 18.7603C385.248 23.31 385.397 27.8971 385.509 32.4468C385.546 33.9386 385.509 35.6167 384.427 36.661C383.831 37.2203 383.047 37.4814 382.264 37.7052C377.491 39.085 372.568 39.8309 367.608 39.9055C365.818 49.3033 369.1 58.0299 369.137 67.6515C369.174 77.9817 384.092 80.5922 393.639 81.5992C395.056 81.7856 396.622 81.8602 397.741 81.1889Z" fill="#D8E8CD"/>
<path d="M429.479 62.2459C431.717 58.9268 432.761 55.4959 432.985 54.8246C434.029 51.6547 434.402 48.8577 434.551 46.6201C432.09 50.9834 427.502 54.1533 422.468 54.6381C419.074 54.9365 415.643 54.0042 412.772 52.1768C411.094 51.0953 410.198 49.5663 409.229 48.1118C408.707 48.3729 408.185 48.6339 407.663 48.9323C401.472 52.4378 385.436 69.1452 395.878 75.746C398.19 77.2005 401.062 77.3869 403.784 77.1632C414.04 76.38 423.736 70.7115 429.479 62.2459Z" fill="#D8E8CD"/>
<path d="M467.628 68.249C463.153 69.5916 458.566 70.7103 453.718 71.8291C448.31 73.0971 442.791 74.3651 437.234 74.1413C431.678 73.9176 425.972 71.9783 422.317 67.8015C420.863 66.1233 419.52 63.9976 417.917 62.5059C413.777 64.184 408.966 66.72 404.379 70.5239C402.552 72.0529 400.724 73.47 399.382 75.1855C400.202 79.5861 401.321 83.9494 402.776 88.1635C404.006 91.8182 405.572 95.5476 408.258 98.3073C408.556 98.531 408.892 98.7921 409.227 99.0158C416.76 104.013 427.501 100.47 432.722 98.7548C451.853 92.4522 463.75 75.9314 468.374 68.7338C468.15 68.5846 467.889 68.3982 467.628 68.249Z" fill="#D8E8CD"/>
<path d="M391.18 115.202C349.561 115.202 315.811 108.862 315.811 101.03V408.251C315.811 416.083 349.561 422.422 391.18 422.422C432.799 422.422 466.549 416.083 466.549 408.251V101.03C466.512 108.862 432.799 115.202 391.18 115.202Z" fill="#BBDCF9" fill-opacity="0.54"/>
<path d="M434.402 393.221H347.882C334.232 393.221 323.156 382.145 323.156 368.496C323.156 313.377 323.156 258.295 323.156 203.176C368.467 203.176 413.779 203.176 459.09 203.176C459.09 258.295 459.09 313.377 459.09 368.496C459.127 382.183 448.051 393.221 434.402 393.221Z" fill="#FCE631"/>
<path d="M422.549 239.003C424.173 233.641 421.142 227.978 415.78 226.355C410.418 224.731 404.756 227.762 403.132 233.123C401.509 238.485 404.539 244.148 409.901 245.772C415.263 247.395 420.926 244.365 422.549 239.003Z" fill="#FFF89F"/>
<path d="M381.184 278.431C385.18 278.431 388.419 275.191 388.419 271.196C388.419 267.2 385.18 263.961 381.184 263.961C377.188 263.961 373.949 267.2 373.949 271.196C373.949 275.191 377.188 278.431 381.184 278.431Z" fill="#FFF89F"/>
<path d="M431.79 311.997C434.303 311.997 436.34 309.96 436.34 307.447C436.34 304.934 434.303 302.897 431.79 302.897C429.277 302.897 427.24 304.934 427.24 307.447C427.24 309.96 429.277 311.997 431.79 311.997Z" fill="#FFF89F"/>
<path d="M364.215 344.513C368.52 344.513 372.009 341.024 372.009 336.719C372.009 332.414 368.52 328.925 364.215 328.925C359.911 328.925 356.421 332.414 356.421 336.719C356.421 341.024 359.911 344.513 364.215 344.513Z" fill="#FFF89F"/>
<path d="M422.228 364.873C427.829 364.183 431.811 359.083 431.121 353.482C430.431 347.881 425.332 343.9 419.731 344.589C414.129 345.279 410.148 350.378 410.838 355.98C411.527 361.581 416.627 365.562 422.228 364.873Z" fill="#FFF89F"/>
<path d="M361.792 244.272C366.117 244.272 369.623 240.765 369.623 236.44C369.623 232.115 366.117 228.608 361.792 228.608C357.466 228.608 353.96 232.115 353.96 236.44C353.96 240.765 357.466 244.272 361.792 244.272Z" fill="#FFF89F"/>
<path d="M391.178 214.326C428.704 214.326 459.126 209.351 459.126 203.213C459.126 197.075 428.704 192.1 391.178 192.1C353.651 192.1 323.229 197.075 323.229 203.213C323.229 209.351 353.651 214.326 391.178 214.326Z" fill="#F8F270"/>
<path opacity="0.23" d="M415.047 101.03V421.714C444.956 419.849 466.511 414.516 466.511 408.251V101.03H415.047Z" fill="#777589"/>
<path d="M391.18 86.8584C349.561 86.8584 315.811 93.1982 315.811 101.03C315.811 108.861 349.561 115.201 391.18 115.201C432.799 115.201 466.549 108.861 466.549 101.03C466.549 93.1982 432.799 86.8584 391.18 86.8584ZM391.18 112.143C353.626 112.143 323.232 107.146 323.232 101.03C323.232 94.8764 353.663 89.9164 391.18 89.9164C428.734 89.9164 459.128 94.9137 459.128 101.03C459.128 107.183 428.697 112.143 391.18 112.143Z" fill="#E1F2FF"/>
<path d="M391.178 112.142C428.704 112.142 459.126 107.166 459.126 101.028C459.126 94.8907 428.704 89.915 391.178 89.915C353.651 89.915 323.229 94.8907 323.229 101.028C323.229 107.166 353.651 112.142 391.178 112.142Z" fill="url(#paint1_linear_2121_11006)"/>
<path d="M420.675 86.6723C419.705 87.1944 418.735 87.7165 417.766 88.2386C417.393 87.5301 416.983 86.8215 416.61 86.1129C393.824 46.3958 343.254 31.4412 303.686 52.661C264.118 73.8808 250.469 123.294 273.255 163.011C273.516 163.422 273.74 163.869 274.001 164.279C272.882 164.913 271.763 165.585 270.682 166.256C270.421 165.771 270.122 165.324 269.861 164.839C246.068 123.369 260.277 71.7924 301.635 49.6403C342.956 27.4882 395.763 43.114 419.518 84.5466C419.929 85.2552 420.302 85.9638 420.675 86.6723Z" fill="#FFE85F"/>
<path d="M416.609 86.1161C393.823 46.3989 343.254 31.4444 303.686 52.6641C264.118 73.8839 250.469 123.297 273.255 163.014C273.516 163.425 273.74 163.872 274.001 164.282C321.922 138.923 369.844 113.564 417.766 88.2418C417.393 87.5332 417.02 86.8246 416.609 86.1161ZM274.112 105.359C275.865 105.322 277.618 105.844 279.333 106.292C283.398 107.448 287.501 108.604 291.566 109.723C294.698 110.618 297.794 111.475 300.926 112.37C302.642 112.855 304.581 113.452 309.317 114.944C326.248 120.239 321.4 119.046 326.286 120.463C333.073 122.44 336.429 123.036 336.951 125.125C337.362 126.728 335.907 128.518 335.385 128.966C334.341 129.935 332.998 130.569 331.693 131.203C328.187 132.919 324.719 134.746 321.288 136.574C319.013 137.767 316.776 138.998 314.501 140.191C304.842 145.338 295.22 150.484 285.86 156.153C285.077 156.637 283.51 158.204 281.161 158.241C278.289 158.316 276.014 156.19 274.97 155.22C271.651 152.088 270.159 148.135 268.78 142.391C268.78 142.391 265.833 130.122 268.071 110.692C268.146 109.984 268.407 108.604 269.414 107.336C270.532 105.993 272.36 105.397 274.112 105.359ZM307.341 62.2858C308.646 63.5164 309.578 65.0455 310.473 66.5745C312.636 70.1919 314.762 73.8466 316.925 77.4641C318.566 80.2238 320.207 83.0207 321.848 85.7804C322.743 87.3095 323.75 89.0995 326.136 93.3882C334.676 108.828 331.991 104.613 334.565 109.014C338.107 115.093 340.084 117.853 339.002 119.643C338.145 121.022 335.795 121.209 335.124 121.209C333.67 121.134 332.215 120.649 330.835 120.165C327.069 118.859 323.227 117.741 319.386 116.585C316.888 115.839 314.352 115.093 311.853 114.347C301.113 111.14 290.41 107.933 279.52 105.285C278.625 105.061 276.35 105.061 274.597 103.457C272.472 101.518 272.322 98.4974 272.248 97.0802C272.099 92.6424 273.814 88.8758 276.947 83.9531C276.947 83.9531 283.585 73.4737 299.173 61.7264C299.733 61.3162 300.926 60.533 302.567 60.3465C304.283 60.1974 306.035 61.0551 307.341 62.2858ZM362.124 55.6476C362.199 57.4004 361.751 59.1159 361.341 60.794C360.297 64.7844 359.253 68.7748 358.246 72.7651C357.463 75.8232 356.642 78.8439 355.859 81.9019C355.411 83.5801 354.852 85.4821 353.51 90.1064C348.661 106.627 349.743 101.891 348.438 106.702C346.648 113.34 346.125 116.622 344.037 117.069C342.396 117.405 340.569 115.913 340.084 115.428C339.04 114.347 338.369 113.042 337.697 111.736C335.87 108.231 333.893 104.763 331.917 101.294C330.612 99.0195 329.306 96.7446 328.038 94.4697C322.519 84.8108 317 75.1146 310.958 65.7167C310.473 64.9336 308.795 63.33 308.683 61.0178C308.534 58.1835 310.585 56.0205 311.555 55.0136C314.613 51.8437 318.603 50.5011 324.384 49.3078C324.384 49.3078 336.728 46.7718 356.53 49.5688C357.239 49.6807 358.656 49.979 359.961 50.986C361.416 52.0675 362.05 53.8948 362.124 55.6476ZM408.107 81.6409C408.554 82.2003 409.375 83.3937 409.598 85.0346C409.822 86.7873 409.002 88.5028 407.808 89.7335C406.615 90.9642 405.049 91.8592 403.557 92.6797C399.939 94.6935 396.322 96.7073 392.705 98.6838C389.945 100.213 387.185 101.742 384.426 103.271C382.896 104.129 381.144 105.024 376.855 107.261C361.453 115.205 365.667 112.706 361.266 115.093C355.225 118.375 352.465 120.277 350.638 119.12C349.221 118.225 348.922 115.913 348.96 115.242C348.96 113.788 349.445 112.408 349.892 111.028C351.085 107.336 352.13 103.607 353.174 99.8399C353.845 97.3786 354.554 94.9172 355.225 92.4559C358.134 81.9765 361.043 71.4972 363.392 60.8686C363.579 59.9736 363.504 57.736 365.108 56.0578C367.01 54.0067 370.068 53.9694 371.522 53.9694C376.035 53.9321 379.913 55.7968 384.985 59.004C384.836 59.004 395.688 65.9032 408.107 81.6409Z" fill="#FFFAD7"/>
<path d="M409.599 84.9935C409.822 86.7462 409.002 88.4617 407.809 89.6924C406.615 90.9231 405.049 91.8181 403.557 92.6385C399.94 94.6524 396.322 96.6662 392.705 98.6427C389.945 100.172 387.185 101.701 384.426 103.23C382.897 104.088 381.144 104.983 376.855 107.22C361.453 115.164 365.667 112.665 361.267 115.052C355.225 118.333 352.466 120.235 350.638 119.079C349.221 118.184 348.923 115.872 348.96 115.201C348.96 113.746 349.445 112.367 349.892 110.987C351.086 107.295 352.13 103.565 353.174 99.7988C353.845 97.3375 354.554 94.8761 355.225 92.4148C358.134 81.9354 361.043 71.456 363.392 60.8275C363.579 59.9325 363.504 57.6949 365.108 56.0167C367.01 53.9656 370.068 53.9283 371.522 53.9283C376.035 53.891 379.913 55.7556 384.985 58.9629C384.985 58.9629 395.8 65.8248 408.219 81.5625C408.554 82.1965 409.375 83.3898 409.599 84.9935Z" fill="#F8F270"/>
<path d="M361.341 60.7537C360.297 64.744 359.253 68.7344 358.246 72.7248C357.463 75.7828 356.642 78.8036 355.859 81.8616C355.412 83.5398 354.852 85.4417 353.51 90.0661C348.662 106.587 349.743 101.851 348.438 106.662C346.648 113.3 346.126 116.581 344.037 117.029C342.396 117.365 340.569 115.873 340.084 115.388C339.04 114.307 338.369 113.001 337.698 111.696C335.87 108.191 333.894 104.722 331.917 101.254C330.612 98.9791 329.307 96.7042 328.039 94.4294C322.519 84.7705 317 75.0742 310.958 65.6764C310.474 64.8932 308.795 63.2896 308.683 60.9774C308.534 58.1432 310.585 55.9802 311.555 54.9733C314.613 51.8033 318.603 50.4608 324.384 49.2674C324.384 49.2674 336.728 46.7315 356.531 49.5285C357.239 49.6403 358.656 49.9387 359.962 50.9456C361.379 52.0644 362.05 53.8545 362.125 55.6072C362.199 57.36 361.789 59.0755 361.341 60.7537Z" fill="#F8F270"/>
<path d="M334.565 109.048C338.108 115.127 340.084 117.887 339.003 119.677C338.145 121.057 335.796 121.243 335.124 121.243C333.67 121.169 332.216 120.684 330.836 120.199C327.069 118.894 323.228 117.775 319.387 116.619C316.888 115.873 314.352 115.127 311.854 114.381C301.113 111.174 290.41 107.967 279.52 105.319C278.625 105.095 276.35 105.095 274.598 103.492C272.472 101.553 272.323 98.5318 272.248 97.1147C272.099 92.6768 273.815 88.9102 276.947 83.9875C276.947 83.9875 283.585 73.5081 299.174 61.7608C299.733 61.3506 300.927 60.5674 302.568 60.3809C304.32 60.1945 306.073 61.0522 307.378 62.2829C308.684 63.5136 309.616 65.0426 310.511 66.5716C312.674 70.189 314.8 73.8438 316.963 77.4612C318.604 80.2209 320.244 83.0179 321.885 85.7776C322.78 87.3066 323.787 89.0966 326.174 93.3853C334.677 108.825 331.992 104.648 334.565 109.048Z" fill="#F8F270"/>
<path d="M291.567 109.756C294.7 110.651 297.795 111.509 300.928 112.404C302.643 112.888 304.582 113.485 309.319 114.977C326.25 120.272 321.402 119.079 326.287 120.496C333.074 122.473 336.431 123.069 336.953 125.158C337.363 126.761 335.909 128.552 335.386 128.999C334.342 129.969 333 130.603 331.694 131.237C328.189 132.952 324.721 134.779 321.29 136.607C319.015 137.8 316.777 139.031 314.502 140.224C304.843 145.371 295.222 150.517 285.861 156.186C285.078 156.671 283.512 158.237 281.162 158.274C278.291 158.349 276.016 156.223 274.972 155.253C271.653 152.121 270.161 148.168 268.781 142.425C268.781 142.425 265.835 130.155 268.072 110.725C268.147 110.017 268.408 108.637 269.415 107.369C270.496 106.026 272.324 105.43 274.077 105.393C275.829 105.355 277.582 105.877 279.298 106.325C283.437 107.444 287.502 108.6 291.567 109.756Z" fill="#F8F270"/>
<path d="M299.621 150.294C299.21 150.518 298.763 150.742 298.353 150.965C300.851 149.586 303.35 148.206 305.848 146.789C306.52 146.416 307.266 146.006 308.31 145.483C305.438 147.124 302.529 148.728 299.621 150.294Z" fill="#F8F270"/>
<path d="M378.013 55.3093C375.813 54.4143 373.687 53.9668 371.412 53.9668C369.995 53.9668 366.937 54.0414 364.998 56.0552C363.431 57.7334 363.506 59.971 363.282 60.866C360.933 71.4946 358.024 81.9739 355.115 92.4533L353.064 99.8373C352.467 102.038 351.833 104.238 351.199 106.438C351.908 105.245 352.43 103.94 353.064 102.597C355.898 96.4437 358.695 90.2903 361.529 84.0996C363.133 80.5941 364.737 77.0885 366.862 73.844C367.049 74.7391 367.31 75.6341 367.683 76.4545C368.951 74.7764 370.368 73.21 371.86 71.7556C371.86 71.7183 371.86 71.681 371.86 71.681C371.934 69.7791 372.755 67.8025 373.575 66.1243C374.321 64.558 375.664 62.3577 377.715 62.4696C379.318 62.5815 380.251 63.8122 380.362 65.1547C380.549 65.0801 380.735 65.0056 380.922 64.931C381.966 64.5953 383.122 64.7818 384.166 65.1174C387.075 66.0871 389.313 68.4365 391.998 70.0028C393.378 70.8233 394.832 71.42 396.249 72.0912C399.009 73.3965 401.657 74.9628 404.155 76.7529C395.503 66.721 388.194 61.239 385.77 59.5608C384.427 59.6726 383.159 59.4862 381.966 58.703C381.63 58.4793 381.332 58.2182 380.996 57.9945C380.474 58.4047 379.691 58.5166 379.094 57.9199C378.199 57.0994 377.677 56.3536 378.013 55.3093ZM366.34 71.42C365.482 73.3219 365.445 75.4476 364.215 77.2004C363.431 78.3192 361.529 77.909 361.529 76.4173C361.529 74.2915 361.977 72.2031 363.058 70.3758C363.282 69.9655 363.655 69.7791 363.991 69.7418C364.401 69.2197 365.259 69.1824 365.818 69.4807C366.527 69.891 366.639 70.7114 366.34 71.42ZM371.636 61.6865C371.337 62.7307 370.704 63.6257 370.331 64.5953C370.144 65.0801 369.734 65.4904 369.212 65.565C369.174 65.6022 369.175 65.6022 369.137 65.6395C368.615 66.1616 367.645 66.1616 367.086 65.6022C364.96 63.3274 366.452 59.0387 369.025 57.8453C369.585 57.5842 370.331 57.6215 370.741 58.1063C371.71 59.1505 371.971 60.3812 371.636 61.6865Z" fill="#F5E642"/>
<path d="M362.125 55.6418C362.162 56.0893 362.125 56.5368 362.087 56.9843C360.894 55.9774 359.7 55.0078 358.544 54.0009C357.948 53.5161 357.239 52.9567 356.456 53.0686C355.822 53.1431 355.263 53.628 354.629 53.5534C353.995 53.4788 353.584 52.8448 353.1 52.3973C351.571 50.9428 349.109 51.1293 347.17 51.8752C346.387 52.1735 345.604 52.5465 344.746 52.4719C344.149 52.3973 343.59 52.0989 343.03 51.9125C340.718 51.1293 337.996 52.1362 336.877 54.1873C335.609 52.6956 333.483 52.0989 331.544 52.1735C329.605 52.2481 327.74 52.8821 325.913 53.5534C325.354 53.7398 324.757 53.9636 324.421 54.4484C324.048 54.8959 324.048 55.6791 324.57 56.0147C324.421 56.1266 324.235 56.2385 324.086 56.3503C323.899 55.5299 323.563 54.784 323.004 54.1128C322.706 53.7398 322.072 53.5907 321.624 53.7025C321.55 53.7398 321.438 53.7398 321.363 53.7771C321.065 53.5907 320.729 53.4788 320.282 53.5534C318.753 53.8144 318.007 55.3061 318.156 56.7233C318.193 57.2081 318.342 57.6556 318.529 58.0658C318.492 58.0658 318.454 58.0658 318.417 58.1031C318.007 57.4691 317.522 56.8725 316.851 56.3876C316.329 55.9774 315.545 56.2012 315.098 56.5741C314.315 57.2081 314.091 58.3642 314.315 59.4084C313.793 59.7067 313.308 60.0797 312.898 60.5645C310.474 63.2869 311.555 65.972 312.823 68.5825C312.189 67.6129 311.592 66.606 310.958 65.6363C310.474 64.8532 308.795 63.2496 308.683 60.9374C308.534 58.1031 310.585 55.9401 311.555 54.9332C314.613 51.7633 318.603 50.4207 324.384 49.2274C324.384 49.2274 336.728 46.6914 356.531 49.4884C357.239 49.6003 358.656 49.8986 359.962 50.9056C361.416 52.0616 362.05 53.889 362.125 55.6418Z" fill="#F5E642"/>
<path d="M307.341 62.2823C308.647 63.5129 309.579 65.042 310.474 66.571C310.735 66.9812 310.959 67.3914 311.22 67.8016C309.877 66.6828 308.348 65.6386 307.49 65.3403C305.514 64.6317 303.239 65.1538 301.561 66.3472C299.883 67.5033 298.652 69.2188 297.608 71.0088C297.198 71.6801 296.787 72.426 296.116 72.7989C295.482 73.1346 294.699 73.1346 293.99 73.1718C291.79 73.2464 289.291 73.8804 288.434 75.857C288.173 76.5282 288.098 77.2741 287.613 77.8335C286.793 78.7285 285.338 78.4675 284.145 78.8031C282.728 79.176 281.758 80.3694 280.751 81.3763C279.371 82.7935 277.731 83.9869 276.127 85.2175C276.388 84.8073 276.649 84.3971 276.91 83.9496C276.91 83.9496 283.548 73.4702 299.137 61.7229C299.696 61.3126 300.89 60.5295 302.53 60.343C304.283 60.1938 306.036 61.0516 307.341 62.2823Z" fill="#F5E642"/>
<path d="M312.673 117.14C308.384 116.655 304.095 115.872 299.918 114.79C298.874 114.529 297.755 114.231 296.711 114.343C295.63 114.455 294.548 115.163 294.362 116.208C291.789 115.499 289.215 114.753 286.605 114.045C286.903 113.746 287.201 113.485 287.5 113.187C286.829 112.105 285.374 111.882 284.106 111.77C281.757 111.509 279.258 111.098 277.393 109.569C276.759 109.047 276.125 108.376 275.342 108.413C274.932 108.413 274.559 108.637 274.223 108.823C272.545 109.793 270.979 110.949 269.525 112.217C270.308 112.217 271.054 112.777 271.24 113.522C271.426 114.268 270.979 115.089 270.233 115.312C269.86 115.424 269.375 115.387 269.152 115.723C268.965 115.946 269.002 116.319 269.04 116.618C269.413 119.601 268.779 122.622 267.324 125.195C267.324 120.981 267.548 116.133 268.145 110.725C268.219 110.017 268.48 108.637 269.487 107.369C270.569 106.026 272.396 105.43 274.149 105.393C275.902 105.355 277.654 105.877 279.37 106.325C283.435 107.481 287.537 108.637 291.602 109.756C294.735 110.651 297.83 111.509 300.963 112.404C302.678 112.888 304.617 113.485 309.354 114.977C313.046 116.133 315.693 116.991 317.67 117.625C315.992 117.513 314.314 117.326 312.673 117.14Z" fill="#F5E642"/>
<path d="M298.987 139.666C298.875 139.741 298.763 139.778 298.651 139.853C298.577 139.89 298.502 139.778 298.577 139.741C298.689 139.666 298.801 139.629 298.912 139.554C299.024 139.517 299.062 139.629 298.987 139.666Z" fill="#FFF9AB"/>
<path d="M301.823 142.798C298.131 142.948 295.521 144.066 292.537 147.497C280.529 160.587 283.438 138.584 301.823 142.798Z" fill="#FFFCDC"/>
<path d="M286.979 142.649C284.369 144.141 280.005 151.823 275.344 147.236C273.777 144.402 284.294 142.165 286.979 142.649Z" fill="#FFFCDC"/>
<path d="M309.766 136.088C307.043 136.275 299.808 139.594 295.893 136.946C298.056 134.559 305.775 132.247 309.766 136.088Z" fill="#FFFCDC"/>
<path d="M318.043 132.468C317.372 133.512 310.212 133.923 313.717 131.014C314.426 131.76 318.416 130.753 318.043 132.468Z" fill="#FFFCDC"/>
<path d="M314.279 111.061C315.509 111.77 307.939 111.21 303.874 107.556C304.881 102.857 311.855 109.495 314.279 111.061Z" fill="#FFFCDC"/>
<path d="M298.093 105.167C278.029 105.651 277.022 91.8902 287.539 100.057C288.434 101.325 299.062 102.109 298.093 105.167Z" fill="#FFFCDC"/>
<path d="M292.611 98.7541C289.254 98.6422 282.206 94.0552 280.826 89.9157C282.654 84.7692 292.014 97.3743 292.611 98.7541Z" fill="#FFFCDC"/>
<path d="M309.168 105.284C307.34 103.605 302.94 101.666 301.485 98.459C302.567 100.324 314.501 102.748 309.168 105.284Z" fill="#FFFCDC"/>
<path d="M336.057 98.2712C334.379 94.8402 328.599 90.4396 327.405 85.2931C332.626 79.7365 333.447 94.2062 336.057 98.2712Z" fill="#FFFCDC"/>
<path d="M324.87 81.3753C322.819 80.5921 321.849 77.2731 320.768 74.1777C322.222 66.1224 327.033 78.2427 324.87 81.3753Z" fill="#FFFCDC"/>
<path d="M318.791 71.1964C317.262 71.7931 314.465 66.4602 318.381 68.2876C318.53 68.9961 318.791 67.8773 318.791 71.1964Z" fill="#FFFCDC"/>
<path d="M335.795 83.2799C335.832 87.0838 326.472 74.4414 330.574 70.6748C334.192 73.0616 332.513 78.8793 335.795 83.2799Z" fill="#FFFCDC"/>
<path d="M371.333 103.38C380.843 103.79 363.017 111.659 360.779 110.503C363.912 108.004 366.261 105.468 371.333 103.38Z" fill="#FFFCDC"/>
<path d="M376.632 95.8086C374.656 97.636 369.435 103.081 366.078 101.291C368.651 101.552 377.117 87.3058 376.632 95.8086Z" fill="#FFFCDC"/>
<path d="M392.182 92.0412C392.518 96.7402 383.12 100.283 379.354 99.0523C381.144 97.3369 391.25 87.6407 392.182 92.0412Z" fill="#FFFCDC"/>
<path opacity="0.58" d="M348.363 314.12C350.638 314.717 353.249 313.374 353.473 313.262C361.528 309.085 360.596 292.788 360.372 286.859C359.104 252.959 366.264 171.586 363.616 140.67C363.542 139.812 363.206 136.269 361.118 132.465C360.335 131.085 357.314 125.454 352.578 124.932C348.438 124.447 344.932 127.915 343.665 129.183C331.283 141.415 338.779 203.061 339.823 252.064C340.532 282.272 338.779 311.509 348.363 314.12Z" fill="white"/>
<path opacity="0.46" d="M337.366 110.95C337.478 111.174 337.59 111.398 337.739 111.622C338.336 112.778 338.932 113.934 339.753 114.903C338.932 113.934 338.336 112.74 337.739 111.622C337.59 111.398 337.478 111.174 337.366 110.95C324.052 108.377 315.811 104.871 315.811 101.03V116.992H315.848H315.811V142.165C333.226 132.953 350.642 123.742 368.021 114.53C356.274 113.822 345.794 112.591 337.366 110.95ZM318.794 117.961C318.421 117.849 318.048 117.7 317.638 117.588C318.048 117.738 318.421 117.849 318.794 117.961C319.167 118.073 319.465 118.185 319.764 118.297C319.465 118.185 319.13 118.073 318.794 117.961ZM320.323 118.483C320.696 118.595 320.994 118.707 321.255 118.819C320.994 118.707 320.696 118.595 320.323 118.483ZM326.29 120.46C325.992 120.385 325.731 120.274 325.469 120.236C325.731 120.311 325.992 120.385 326.29 120.46C328.155 120.982 329.721 121.43 331.101 121.84C329.758 121.43 328.155 121.019 326.29 120.46ZM333.301 122.511C333.786 122.66 334.233 122.847 334.606 122.996C334.196 122.847 333.786 122.66 333.301 122.511ZM336.993 126.017C337.03 125.718 337.03 125.42 336.956 125.122C336.881 124.823 336.769 124.562 336.583 124.338C336.769 124.562 336.881 124.861 336.956 125.122C337.03 125.42 337.03 125.718 336.993 126.017ZM338.97 119.64C338.224 120.87 336.322 121.169 335.389 121.206C336.322 121.169 338.224 120.87 338.97 119.64C339.193 119.304 339.268 118.931 339.268 118.521C339.305 118.931 339.193 119.304 338.97 119.64ZM341.692 116.507C342.363 116.843 343.146 117.104 343.855 117.029C343.109 117.104 342.363 116.843 341.692 116.507ZM344.265 116.917C344.564 116.805 344.825 116.656 345.086 116.432C344.825 116.656 344.564 116.843 344.265 116.917ZM348.927 115.761C348.927 115.91 348.964 116.059 349.001 116.246C348.964 116.097 348.964 115.91 348.927 115.761Z" fill="#BBDCF9"/>
<path d="M459.126 100.879C459.126 100.916 459.126 100.953 459.126 101.028C459.126 107.181 428.695 112.141 391.178 112.141C353.624 112.141 323.23 107.144 323.23 101.028C323.23 100.879 323.267 100.692 323.304 100.543H315.883C315.846 100.692 315.846 100.879 315.846 101.028C315.846 108.859 349.596 115.199 391.215 115.199C432.834 115.199 466.584 108.859 466.584 101.028C466.584 100.99 466.584 100.953 466.584 100.879H459.126Z" fill="#E1F2FF"/>
<g opacity="0.1" filter="url(#filter1_f_2121_11006)">
<ellipse cx="497.842" cy="476.745" rx="108.629" ry="11.2199" fill="#656565"/>
</g>
<g clip-path="url(#clip0_2121_11006)">
<g filter="url(#filter2_i_2121_11006)">
<path d="M563.036 404.8C562.55 396.708 560.725 388.737 558.844 380.837C555.016 364.798 550.894 348.805 545.554 333.191C532.859 295.925 497.461 289.331 500.769 268.481C501.433 264.354 503.196 261.251 504.405 259.481C494.66 260.773 481.104 263.548 466.037 270.076C457.217 273.864 443.054 280.11 428.866 293.335C422.724 299.038 404.693 316.414 397.493 343.46C394.481 345.609 390.676 348.574 386.621 352.462C376.701 361.97 367.35 370.857 368.631 379.797C369.768 387.545 377.255 392.776 388.269 400.205C394.527 404.428 400.248 407.19 404.575 408.975C407.554 412.324 412.34 417.449 418.621 423.19C428.65 432.286 452.943 453.922 490.502 463.748C497.188 465.481 507.114 467.612 519.531 468.417C524.966 466.456 554.659 455.178 561.293 430.909C563.955 420.964 563.192 407.875 563.036 404.8Z" fill="#FFCF00"/>
</g>
<path opacity="0.57" d="M437.177 299.087C430.964 304.732 425.166 311.085 421.72 318.739C418.274 326.393 417.411 335.555 420.946 343.143C426.019 354.07 438.69 359.433 450.65 360.808C453.344 361.096 456.245 361.245 458.625 359.97C460.614 358.92 462.025 357.103 463.345 355.282C475.29 338.549 483.02 318.81 485.583 298.392C486.076 294.48 486.354 290.396 485.198 286.613C479.292 267.035 445.271 291.767 437.177 299.087Z" fill="#FFF8A1"/>
<g filter="url(#filter3_i_2121_11006)">
<path d="M398.449 384.328C399.514 376.287 400.525 368.225 401.59 360.184C402.166 364.953 406.083 392.908 431.222 411.009C450.166 424.634 470.045 424.658 476.539 424.412C490.865 439.038 505.19 453.663 519.479 468.306C510.348 469.27 459.573 473.707 424.94 438.487C415.334 428.747 409.243 418.244 405.261 409.198C400.86 407.448 394.831 404.602 388.234 400.131C377.237 392.739 369.751 387.508 368.651 379.743C368.379 377.98 368.584 376.178 369.062 374.385C373.584 382.553 380.63 388.391 393.866 388.729C394.962 388.765 396.097 388.692 396.976 388.063C398.027 387.22 398.277 385.712 398.449 384.328Z" fill="#A59800"/>
</g>
<path d="M491.923 262.346C453.537 276.321 431.943 333.048 443.663 389.103C455.383 445.158 496.064 479.258 534.45 465.284C572.836 451.309 594.429 394.582 582.709 338.527C570.952 282.489 530.309 248.372 491.923 262.346ZM533.788 460.913C497.011 474.282 458.074 441.627 446.825 387.963C435.558 334.262 456.27 279.918 493.047 266.549C529.824 253.18 568.761 285.835 580.01 339.499C591.222 393.18 570.548 447.507 533.788 460.913Z" fill="#FFE85F"/>
<path d="M508.835 339.656C510.522 347.915 511.048 351.988 512.835 352.649C514.206 353.187 515.743 351.446 516.109 350.873C516.934 349.639 517.498 348.031 517.988 346.458C519.422 342.247 520.981 338.113 522.558 334.017C523.596 331.291 524.598 328.583 525.653 325.895C530.048 314.343 534.406 302.809 539.191 291.618C539.569 290.68 540.963 288.825 540.963 285.993C540.984 282.522 539.211 279.742 538.394 278.454C535.712 274.384 532.321 272.483 527.429 270.644C527.429 270.644 516.938 266.795 500.347 269.034C499.76 269.124 498.581 269.397 497.502 270.567C496.328 271.827 495.855 274.022 495.821 276.195C495.807 278.314 496.212 280.465 496.637 282.562C497.61 287.509 498.599 292.493 499.608 297.422C500.362 301.211 501.117 304.999 501.871 308.788C502.279 310.847 502.804 313.258 504.097 319.001C508.673 339.596 507.622 333.696 508.835 339.656Z" fill="#F8F270"/>
<path d="M517.628 357.008C518.393 358.768 520.355 359.124 520.957 359.162C522.18 359.184 523.367 358.638 524.534 358.146C527.685 356.786 530.883 355.629 534.065 354.435C536.173 353.645 538.262 352.909 540.371 352.118C549.339 348.846 558.253 345.554 567.345 342.944C568.101 342.731 570.015 342.885 571.446 341.013C573.183 338.73 573.23 335.023 573.212 333.323C573.225 327.878 571.625 323.13 568.903 316.921C568.903 316.921 563.029 303.666 549.552 288.246C549.076 287.7 548.068 286.681 546.67 286.38C545.182 286.076 543.726 287.015 542.675 288.443C541.624 289.87 540.889 291.692 540.17 293.55C538.477 297.881 536.746 302.228 535.052 306.558C533.739 309.859 532.443 313.198 531.13 316.499C530.432 318.303 529.614 320.433 527.765 325.599C521.009 344.035 523.163 339.043 521.128 344.295C518.245 351.51 516.641 354.765 517.628 357.008Z" fill="#FFF657"/>
<path d="M538.432 278.438C535.75 274.368 532.358 272.467 527.467 270.627C527.467 270.627 526.275 270.187 524.062 269.676C526.104 270.4 528.039 271.578 529.851 273.171C530.312 273.588 530.808 274.08 530.913 274.796C531.02 275.42 530.851 276.127 531.07 276.701C531.323 277.349 531.922 277.478 532.349 277.821C533.329 278.583 533.669 280.495 533.402 281.966C533.135 283.437 532.384 284.637 531.652 285.783C531.306 286.301 530.924 286.837 530.43 286.839C529.592 286.776 528.935 285.055 528.139 285.376C527.64 285.561 527.485 286.397 527.407 287.107C527.081 289.819 526.81 292.551 526.63 295.285L528.004 295.147C528.117 296.759 528.026 298.419 527.827 300.038C528.26 300.783 528.521 301.742 528.477 303.111C528.366 307.657 526.802 313.051 525.024 316.611C524.361 317.905 522.764 317.561 522.752 315.679C522.686 311.529 522.913 307.334 522.482 303.172C520.218 309.293 522.426 318.391 518.927 323.192C518.554 322.285 517.805 321.731 517.126 321.818C516.819 327.893 516.387 333.89 515.772 339.882C515.144 340.081 514.526 340.006 513.896 339.711C514.169 342.552 514.131 345.401 513.731 348.147C513.516 349.73 513.174 351.236 512.494 352.493C512.619 352.57 512.745 352.647 512.853 352.687C514.224 353.225 515.761 351.484 516.127 350.911C516.952 349.677 517.516 348.069 518.006 346.496C519.44 342.285 520.999 338.151 522.576 334.055L525.671 325.933C530.066 314.381 534.424 302.847 539.209 291.656C539.586 290.718 540.98 288.863 540.981 286.031C541.077 282.526 539.286 279.708 538.432 278.438ZM522.643 325.798C522.64 325.889 522.657 325.926 522.654 326.018C522.818 326.571 522.852 327.23 522.56 327.769C522.234 331.065 521.223 334.632 519.763 336.832C519.091 337.815 518.051 337.215 517.725 336.017C517.14 333.769 517.59 331.718 518.382 329.826C518.374 329.515 518.386 329.15 518.506 328.825C519.11 327.108 519.574 325.187 520.811 324.258C521.561 323.643 522.633 324.409 522.643 325.798ZM531.119 306.705C530.616 308.15 529.247 307.521 528.887 306.249C527.983 303.113 528.912 299.27 530.008 296.473C530.071 296.219 530.188 295.986 530.305 295.752C530.325 295.698 530.345 295.644 530.403 295.572C530.5 295.393 530.577 295.267 530.691 295.125C530.866 294.82 531.094 294.535 531.34 294.287C532.002 293.578 532.888 294.429 533.149 295.387C534.16 299.148 532.193 303.469 531.119 306.705ZM538.29 287.314C537.928 289.458 537.269 292.324 536.035 293.745C535.484 294.403 534.568 294.465 534.11 293.372C533.351 291.429 533.564 289.353 533.941 287.337C533.984 287.137 534.064 286.921 534.141 286.795C534.552 283.684 535.388 279.344 537.416 281.018C538.892 282.272 538.589 285.423 538.29 287.314Z" fill="#F5E642"/>
<path d="M493.047 266.548C456.271 279.917 435.576 334.298 446.825 387.962C458.075 441.626 497.012 474.281 533.788 460.912C570.565 447.543 591.26 393.162 580.01 339.498C568.724 285.851 529.824 253.179 493.047 266.548ZM546.634 286.395C548.031 286.696 549.039 287.715 549.515 288.26C562.975 303.644 568.866 316.936 568.866 316.936C571.642 323.165 573.225 327.876 573.176 333.338C573.157 335.055 573.109 338.762 571.41 341.028C569.978 342.9 568.065 342.746 567.309 342.959C558.253 345.552 549.285 348.824 540.334 352.133C538.225 352.924 536.137 353.66 534.028 354.45C530.83 355.607 527.648 356.801 524.498 358.16C523.331 358.652 522.144 359.199 520.92 359.177C520.335 359.176 518.356 358.783 517.591 357.023C516.604 354.78 518.208 351.525 521.021 344.252C523.055 339.001 520.901 343.993 527.657 325.556C529.56 320.411 530.324 318.261 531.022 316.457C532.335 313.156 533.631 309.817 534.945 306.516C536.638 302.186 538.369 297.839 540.063 293.508C540.798 291.687 541.516 289.828 542.567 288.4C543.69 287.03 545.146 286.09 546.634 286.395ZM501.909 308.769C501.155 304.981 500.401 301.192 499.647 297.404C498.675 292.457 497.685 287.473 496.676 282.544C496.251 280.447 495.862 278.333 495.859 276.177C495.873 274.058 496.384 271.845 497.54 270.549C498.62 269.378 499.798 269.106 500.386 269.015C516.976 266.776 527.467 270.625 527.467 270.625C532.396 272.448 535.751 274.366 538.432 278.436C539.286 279.706 541.077 282.523 541.002 285.974C540.964 288.823 539.607 290.661 539.229 291.599C534.444 302.791 530.05 314.342 525.692 325.876C524.653 328.602 523.652 331.31 522.596 333.998C521.037 338.132 519.46 342.228 518.026 346.439C517.482 347.993 516.956 349.584 516.147 350.855C515.744 351.445 514.245 353.168 512.874 352.63C511.086 351.969 510.561 347.896 508.874 339.637C507.643 333.641 508.657 339.557 504.119 318.945C502.842 313.24 502.317 310.829 501.909 308.769ZM457.279 309.659C457.398 307.672 458.064 306.286 458.433 305.622C468.446 287.036 477.36 279.249 477.36 279.249C481.534 275.621 484.725 273.568 488.552 273.875C489.756 273.951 492.305 274.216 494.01 276.848C495.402 278.994 495.385 281.789 495.569 282.873C497.863 296.067 500.599 309.147 503.373 322.21C504.022 325.283 504.655 328.318 505.304 331.39C506.285 336.063 507.267 340.736 508.379 345.304C508.799 346.998 509.236 348.73 509.251 350.521C509.279 351.363 509.133 354.172 507.931 355.174C506.409 356.459 504.059 353.989 498.868 349.545C495.099 346.334 498.7 349.667 485.507 338.97C481.84 335.982 480.29 334.763 478.994 333.606C476.612 331.555 474.23 329.505 471.885 327.437C468.757 324.741 465.683 322.065 462.555 319.369C461.258 318.212 459.925 317.072 458.88 315.485C457.889 313.918 457.119 311.755 457.279 309.659ZM448.679 375.872C446.207 351.837 448.39 336.943 448.39 336.943C449.402 329.96 450.543 325.209 453.257 321.533C454.117 320.374 455.968 317.949 458.372 318.191C460.357 318.402 461.698 320.437 462.39 321.063C470.424 328.559 478.695 335.497 486.986 342.38C488.944 343.997 490.864 345.631 492.821 347.247C495.756 349.718 498.728 352.171 501.723 354.479C502.828 355.319 503.988 356.179 504.896 357.469C505.315 358.086 506.613 360.321 506.311 362.303C505.937 364.812 503.141 365.379 497.486 367.351C493.383 368.79 497.44 367.642 483.321 373.104C479.398 374.639 477.751 375.262 476.311 375.745C473.705 376.629 471.1 377.513 468.495 378.397C465.077 379.565 461.696 380.716 458.278 381.884C456.837 382.367 455.396 382.85 453.902 382.729C452.407 382.607 450.846 381.752 449.915 380.023C449.016 378.459 448.761 376.733 448.679 375.872ZM479.276 440.323C477.878 440.022 476.87 439.002 476.394 438.457C462.934 423.074 457.043 409.781 457.043 409.781C454.267 403.552 452.684 398.841 452.734 393.38C452.753 391.663 452.8 387.955 454.5 385.69C455.931 383.818 457.845 383.971 458.601 383.758C467.656 381.165 476.625 377.893 485.575 374.584C487.684 373.794 489.773 373.058 491.881 372.267C495.08 371.11 498.261 369.916 501.412 368.557C502.579 368.065 503.766 367.519 504.99 367.54C505.574 367.541 507.553 367.934 508.318 369.695C509.305 371.938 507.701 375.193 504.889 382.465C502.855 387.716 505.008 382.725 498.252 401.161C496.349 406.307 495.585 408.456 494.887 410.261C493.574 413.562 492.278 416.9 490.965 420.201C489.271 424.531 487.541 428.879 485.847 433.209C485.112 435.031 484.394 436.889 483.342 438.317C482.237 439.725 480.781 440.664 479.276 440.323ZM523.874 416.793C524.628 420.581 525.382 424.37 526.136 428.158C527.108 433.105 528.097 438.089 529.107 443.018C529.532 445.115 529.92 447.229 529.923 449.385C529.909 451.504 529.399 453.717 528.242 455.013C527.163 456.184 525.985 456.456 525.397 456.547C508.807 458.786 498.316 454.937 498.316 454.937C493.387 453.114 490.032 451.197 487.35 447.126C486.496 445.856 484.706 443.039 484.781 439.588C484.819 436.739 486.176 434.901 486.553 433.963C491.338 422.771 495.733 411.22 500.091 399.686C501.129 396.96 502.131 394.252 503.187 391.564C504.746 387.43 506.322 383.334 507.756 379.123C508.3 377.569 508.827 375.978 509.636 374.707C510.038 374.118 511.538 372.394 512.909 372.932C514.696 373.593 515.222 377.666 516.909 385.925C518.14 391.921 517.126 386.005 521.664 406.617C522.941 412.322 523.465 414.733 523.874 416.793ZM568.298 416.627C568.178 418.615 567.512 420 567.144 420.664C557.13 439.25 548.217 447.037 548.217 447.037C544.043 450.666 540.851 452.718 537.024 452.411C535.821 452.336 533.271 452.07 531.566 449.439C530.174 447.292 530.192 444.497 530.008 443.413C527.713 430.219 524.977 417.139 522.203 404.076C521.554 401.004 520.922 397.968 520.272 394.896C519.291 390.223 518.31 385.55 517.197 380.983C516.777 379.288 516.34 377.556 516.325 375.765C516.298 374.924 516.444 372.115 517.646 371.112C519.167 369.828 521.517 372.297 526.708 376.742C530.478 379.952 526.877 376.619 540.069 387.316C543.736 390.304 545.286 391.524 546.582 392.68C548.964 394.731 551.346 396.782 553.691 398.849C556.819 401.545 559.893 404.222 563.022 406.918C564.318 408.074 565.652 409.214 566.696 410.801C567.687 412.368 568.457 414.531 568.298 416.627ZM578.028 389.316C577.016 396.299 575.875 401.049 573.161 404.725C572.301 405.885 570.45 408.31 568.046 408.068C566.061 407.857 564.72 405.822 564.028 405.196C555.994 397.7 547.723 390.762 539.432 383.879C537.474 382.262 535.554 380.628 533.596 379.012C530.662 376.541 527.69 374.087 524.695 371.779C523.59 370.94 522.43 370.08 521.522 368.789C521.103 368.173 519.805 365.938 520.107 363.956C520.481 361.447 523.277 360.88 528.932 358.907C533.035 357.469 528.978 358.616 543.097 353.155C547.02 351.619 548.666 350.997 550.107 350.514C552.712 349.63 555.317 348.746 557.922 347.862C561.341 346.694 564.722 345.543 568.14 344.375C569.581 343.892 571.022 343.409 572.516 343.53C574.01 343.652 575.572 344.507 576.503 346.236C577.382 347.854 577.637 349.58 577.718 350.441C580.156 374.402 578.028 389.316 578.028 389.316Z" fill="#FFFAD7"/>
<path d="M576.523 346.184C575.592 344.454 574.03 343.6 572.536 343.478C571.041 343.356 569.601 343.839 568.16 344.323C564.741 345.491 561.36 346.642 557.942 347.81C555.337 348.694 552.732 349.577 550.127 350.461C548.686 350.944 547.057 351.604 543.116 353.102C528.998 358.564 533.092 357.4 528.952 358.855C523.314 360.865 520.501 361.395 520.127 363.904C519.825 365.886 521.123 368.121 521.541 368.737C522.45 370.027 523.592 370.85 524.715 371.727C527.71 374.035 530.682 376.489 533.616 378.959C535.574 380.576 537.494 382.21 539.451 383.826C547.706 390.727 556.014 397.648 564.048 405.144C564.703 405.786 566.081 407.805 568.066 408.015C570.47 408.258 572.321 405.833 573.181 404.673C575.857 401.014 577.035 396.247 578.048 389.263C578.048 389.263 580.193 374.387 577.758 350.335C577.657 349.528 577.402 347.802 576.523 346.184Z" fill="#F8F270"/>
<path d="M562.95 406.862C559.821 404.166 556.747 401.489 553.619 398.793C551.237 396.743 548.855 394.692 546.51 392.624C545.231 391.505 543.664 390.248 539.997 387.26C526.805 376.563 530.406 379.896 526.636 376.686C521.462 372.279 519.095 369.772 517.573 371.056C516.371 372.058 516.243 374.905 516.253 375.709C516.305 377.483 516.742 379.215 517.125 380.927C518.218 385.548 519.236 390.204 520.2 394.84C520.849 397.912 521.482 400.948 522.131 404.02C524.905 417.083 527.624 430.126 529.935 443.357C530.119 444.441 530.139 447.219 531.494 449.382C533.145 451.994 535.749 452.28 536.952 452.355C540.779 452.662 543.933 450.627 548.144 446.981C548.144 446.981 557.058 439.194 567.071 420.608C567.44 419.944 568.089 418.522 568.226 416.571C568.368 414.438 567.652 412.295 566.59 410.671C565.616 409.141 564.283 408.001 562.95 406.862Z" fill="#F8F270"/>
<path d="M516.908 385.926C515.221 377.667 514.696 373.593 512.908 372.932C511.537 372.395 510 374.135 509.635 374.708C508.809 375.942 508.245 377.55 507.756 379.124C506.322 383.335 504.762 387.468 503.186 391.565C502.147 394.29 501.146 396.998 500.09 399.687C495.695 411.238 491.338 422.772 486.553 433.964C486.175 434.902 484.781 436.757 484.78 439.589C484.759 443.06 486.532 445.84 487.349 447.127C490.031 451.197 493.423 453.098 498.315 454.938C498.315 454.938 508.806 458.787 525.396 456.548C525.984 456.457 527.162 456.185 528.242 455.014C529.415 453.755 529.889 451.559 529.923 449.386C529.937 447.267 529.531 445.116 529.106 443.019C528.134 438.072 527.144 433.089 526.135 428.159C525.381 424.371 524.627 420.582 523.873 416.794C523.465 414.734 522.94 412.323 521.646 406.58C517.108 385.969 518.159 391.868 516.908 385.926Z" fill="#F8F270"/>
<path d="M490.927 420.22C492.24 416.919 493.536 413.58 494.85 410.279C495.548 408.475 496.366 406.345 498.215 401.179C504.971 382.743 502.817 387.735 504.851 382.484C507.627 375.228 509.268 371.956 508.281 369.713C507.516 367.953 505.554 367.597 504.952 367.559C503.728 367.537 502.541 368.083 501.374 368.575C498.224 369.935 495.025 371.092 491.844 372.286C489.735 373.076 487.647 373.812 485.538 374.603C476.57 377.875 467.656 381.167 458.563 383.777C457.807 383.99 455.894 383.836 454.462 385.708C452.726 387.991 452.678 391.698 452.696 393.398C452.684 398.843 454.284 403.591 457.006 409.8C457.006 409.8 462.879 423.055 476.357 438.475C476.832 439.021 477.841 440.04 479.238 440.341C480.726 440.645 482.182 439.706 483.233 438.278C484.285 436.851 485.02 435.029 485.738 433.17C487.523 428.843 489.234 424.55 490.927 420.22Z" fill="#F8F270"/>
<path d="M453.918 382.767C455.412 382.888 456.853 382.405 458.294 381.922C461.712 380.754 465.093 379.603 468.511 378.435C471.116 377.551 473.721 376.667 476.326 375.784C477.767 375.3 479.397 374.641 483.337 373.142C497.456 367.681 493.362 368.845 497.502 367.39C503.14 365.38 505.953 364.85 506.327 362.341C506.628 360.359 505.331 358.124 504.912 357.508C504.004 356.217 502.861 355.395 501.738 354.518C498.744 352.21 495.772 349.756 492.837 347.286C490.88 345.669 488.96 344.035 487.002 342.419C478.748 335.518 470.44 328.597 462.406 321.101C461.751 320.458 460.373 318.44 458.388 318.23C455.984 317.987 454.133 320.412 453.273 321.572C450.596 325.231 449.418 329.998 448.406 336.981C448.406 336.981 446.26 351.858 448.695 375.91C448.777 376.771 449.032 378.497 449.911 380.115C450.861 381.791 452.423 382.645 453.918 382.767Z" fill="#F8F270"/>
<path d="M462.571 319.406C465.7 322.102 468.774 324.778 471.902 327.474C474.284 329.525 476.666 331.576 479.011 333.643C480.29 334.763 481.857 336.02 485.524 339.008C498.716 349.705 495.115 346.372 498.885 349.582C504.059 353.989 506.426 356.496 507.947 355.212C509.149 354.209 509.278 351.363 509.268 350.559C509.216 348.785 508.779 347.053 508.396 345.341C507.303 340.719 506.285 336.064 505.321 331.428C504.671 328.355 504.039 325.32 503.39 322.247C500.616 309.184 497.897 296.141 495.585 282.911C495.401 281.827 495.382 279.049 494.027 276.885C492.376 274.274 489.772 273.988 488.569 273.912C484.742 273.605 481.588 275.641 477.376 279.286C477.376 279.286 468.463 287.073 458.449 305.66C458.081 306.324 457.432 307.746 457.295 309.697C457.153 311.83 457.869 313.973 458.931 315.597C459.959 317.147 461.292 318.286 462.571 319.406Z" fill="#F8F270"/>
<path d="M534.998 306.536C533.685 309.838 532.389 313.176 531.075 316.477C530.377 318.281 529.559 320.411 527.71 325.577C520.954 344.013 523.108 339.021 521.074 344.273C518.299 351.528 516.658 354.8 517.644 357.043C518.41 358.804 520.371 359.16 520.973 359.197C522.197 359.219 523.384 358.673 524.551 358.181C527.701 356.821 530.9 355.664 534.081 354.47C536.19 353.68 538.279 352.944 540.387 352.153C549.355 348.881 558.269 345.59 567.362 342.979C568.118 342.766 570.032 342.92 571.463 341.048C573.199 338.765 573.247 335.058 573.229 333.358C573.241 327.913 571.641 323.166 568.919 316.956C568.919 316.956 563.046 303.701 549.568 288.281C549.093 287.735 548.084 286.716 546.687 286.415C545.199 286.111 543.743 287.05 542.692 288.478C541.64 289.905 540.905 291.727 540.187 293.586C538.422 297.859 536.691 302.206 534.998 306.536Z" fill="#F8F270"/>
<g opacity="0.59">
<g opacity="0.59">
<g opacity="0.59">
<path opacity="0.59" d="M548.127 340.546C548.164 340.529 548.238 340.495 548.275 340.478C548.221 340.458 548.147 340.492 548.127 340.546Z" fill="#F9EC48"/>
</g>
<g opacity="0.59">
<g opacity="0.59">
<path opacity="0.59" d="M568.863 316.936C568.863 316.936 566.903 312.579 562.733 305.957C564.852 311.05 567.79 315.677 568.519 321.365C568.694 322.723 568.66 324.311 568.169 325.392C568.465 325.84 568.704 326.359 568.98 326.861C569.355 327.678 569.22 328.459 568.84 328.903C568.949 328.943 569.057 328.983 569.165 329.024C570.496 329.67 571.279 331.467 570.669 333.366C569.163 338.105 564.928 332.906 562.535 332.883C561.211 333.717 559.736 334.126 558.221 334.059C558.108 333.616 557.957 333.191 557.844 332.749C554.182 332.411 551.513 336.965 549.087 340.778C548.875 341.1 548.59 341.457 548.282 341.374C548.028 341.31 547.954 340.76 548.089 340.563C543.805 342.489 539.576 344.435 535.293 346.36C536.568 346.493 537.805 347.228 538.824 348.467C536.904 349.08 534.967 349.657 533.046 350.271C529.189 351.461 525.237 352.74 522.082 355.945C520.363 357.679 519.287 358.174 517.83 357.451C518.699 358.85 520.424 359.18 520.917 359.177C522.141 359.199 523.328 358.653 524.495 358.161C527.645 356.801 530.844 355.644 534.025 354.45C536.134 353.66 538.223 352.924 540.331 352.133C549.299 348.861 558.213 345.57 567.306 342.959C568.062 342.746 569.976 342.9 571.407 341.028C573.144 338.745 573.191 335.038 573.173 333.338C573.222 327.876 571.639 323.166 568.863 316.936ZM548.811 347.018C546.82 349.238 544.084 347.98 541.824 348.929C541.288 349.131 540.894 348.863 540.635 348.397C539.726 347.692 539.521 345.584 540.756 345.24C541.235 345.11 541.732 345.016 542.211 344.886C544.165 344.346 546.106 343.678 548.168 343.763C549.408 343.822 549.665 346.041 548.811 347.018ZM559.494 341.025C557.73 341.881 555.765 341.616 553.945 341.959C552.99 342.129 551.956 340.762 552.531 339.374C553.343 337.427 554.515 337.337 555.864 337.435C556.347 337.214 556.849 336.937 557.348 336.753C558.33 336.346 559.874 335.501 560.879 336.611C562.36 338.267 560.627 340.459 559.494 341.025Z" fill="#F5E642"/>
</g>
</g>
</g>
</g>
<path d="M575.248 395C575.246 393.922 575.775 393.409 576.342 393.373C576.394 392.899 576.409 392.443 576.461 391.97C576.697 390.333 577.303 389.11 578.157 388.133C578.543 384.674 579.46 373.868 578.333 357.935C577.978 361.56 577.389 365.067 576.529 368.474C576.088 370.25 575.612 371.953 575.296 373.806C574.687 377.368 574.817 381.264 573.706 384.517C573.303 385.691 572.72 386.769 571.897 387.327C571.766 387.432 571.581 387.517 571.432 387.586C572.212 388.89 572.427 390.724 571.541 392.12C570.386 393.91 568.24 393.055 566.803 392.277C565.259 391.46 563.557 390.4 562.313 388.77C562.296 388.732 562.279 388.695 562.279 388.695C560.473 388.582 558.654 388.34 556.878 387.899C557.173 388.932 557.597 389.95 558.024 390.878C554.754 389.73 551.596 387.947 548.475 386.146C542.968 382.971 537.425 379.812 531.918 376.637C530.699 375.94 529.57 375.245 528.436 374.733C530.179 376.179 531.923 377.624 533.667 379.069L539.502 383.936C547.756 390.837 556.064 397.757 564.098 405.254C564.753 405.896 566.131 407.914 568.116 408.125C570.52 408.368 572.371 405.943 573.231 404.783C574.588 402.945 575.572 400.784 576.331 398.233C575.422 397.527 575.258 396.389 575.248 395ZM560.211 395.535C560.096 396.262 559.545 396.92 558.946 396.791C558.701 397.039 558.387 397.138 557.99 396.961C556.223 396.246 554.645 394.77 553.318 392.863C552.393 391.535 553.259 389.608 554.417 389.975C556.244 390.528 557.591 392.38 559.295 393.349C559.922 393.735 560.352 394.571 560.211 395.535ZM570.212 401.542C570.259 402.329 569.836 402.973 569.354 403.195C567.091 404.236 563.521 401.654 563.368 397.903C563.344 396.97 563.918 396.167 564.557 396.188C564.594 396.171 564.611 396.208 564.648 396.191C564.988 395.854 565.498 395.889 565.892 396.158C566.732 396.715 567.673 397.001 568.474 397.667C569.505 398.541 570.157 399.859 570.212 401.542Z" fill="#F5E642"/>
<path d="M566.642 410.784C566.363 410.373 566.084 409.962 565.785 409.605C565.688 411.447 565.592 413.289 565.533 415.115C565.466 416.044 565.414 417.102 564.902 417.652C564.485 418.114 563.847 418.093 563.498 418.703C563.186 419.296 563.285 420.194 563.278 420.962C563.27 423.483 561.693 425.332 560.092 426.248C559.458 426.63 558.736 426.917 558.29 427.706C557.962 428.262 557.83 428.952 557.589 429.602C556.702 432.168 554.467 433.466 552.486 432.579C552.629 434.941 551.771 437.179 550.588 438.712C549.405 440.245 547.895 441.164 546.386 442.084C545.937 442.38 545.435 442.656 544.928 442.53C544.42 442.404 543.93 441.73 544.045 441.003C543.88 441.034 543.714 441.065 543.549 441.096C543.942 441.949 544.22 442.945 544.316 443.935C544.352 444.503 544.075 445.17 543.738 445.414C543.663 445.449 543.606 445.52 543.532 445.554C543.483 445.936 543.306 446.332 543.023 446.597C541.95 447.586 540.564 446.919 539.787 445.524C539.528 445.059 539.307 444.576 539.159 444.06C539.122 444.077 539.102 444.131 539.065 444.148C539.218 445.067 539.316 445.965 539.192 446.966C539.112 447.768 538.532 448.169 538.056 448.208C537.194 448.29 536.363 447.459 535.833 446.309C535.317 446.457 534.821 446.55 534.276 446.441C531.148 445.992 530.102 442.743 529.225 439.37C529.454 440.748 529.721 442.109 529.95 443.487C530.134 444.571 530.154 447.349 531.509 449.512C533.16 452.124 535.763 452.41 536.967 452.485C540.794 452.792 543.948 450.757 548.159 447.111C548.159 447.111 557.073 439.324 567.086 420.738C567.455 420.074 568.104 418.651 568.24 416.701C568.457 414.533 567.687 412.371 566.642 410.784Z" fill="#F5E642"/>
<path d="M529.94 449.424C529.954 447.305 529.549 445.154 529.123 443.058C528.996 442.487 528.922 441.936 528.795 441.366C528.709 443.428 528.456 445.612 528.132 446.57C527.402 448.794 525.695 450.164 523.966 450.509C522.238 450.855 520.427 450.34 518.734 449.591C518.067 449.313 517.366 448.961 516.718 449.214C516.144 449.433 515.667 450.057 515.21 450.627C513.856 452.374 511.964 453.829 510.245 452.732C509.672 452.366 509.163 451.747 508.544 451.672C507.489 451.528 506.785 452.93 505.886 453.614C504.819 454.419 503.493 454.175 502.272 454.063C500.558 453.952 498.832 454.207 497.126 454.407C497.523 454.585 497.956 454.745 498.372 454.868C498.372 454.868 508.863 458.717 525.454 456.478C526.041 456.387 527.22 456.115 528.299 454.944C529.416 453.756 529.926 451.543 529.94 449.424Z" fill="#F5E642"/>
<path d="M498.859 396.521C496.613 400.431 494.54 404.621 492.735 409.003C492.297 410.103 491.802 411.275 491.103 412.001C490.383 412.782 489.333 413.04 488.535 412.283C487.46 415.026 486.367 417.731 485.291 420.473C485.656 420.485 486.004 420.46 486.369 420.472C486.65 421.961 485.892 423.343 485.252 424.492C483.995 426.644 482.802 429.035 482.636 431.898C482.587 432.865 482.643 433.963 482.128 434.604C481.88 434.943 481.529 435.06 481.215 435.159C479.609 435.674 477.974 435.931 476.291 435.986C476.768 435.362 476.841 434.25 476.503 433.417C476.127 432.601 475.335 432.246 474.792 432.63C474.493 432.858 474.224 433.251 473.879 433.185C473.625 433.122 473.435 432.806 473.244 432.489C471.622 429.549 469.317 427.373 466.885 426.289C469.505 430.029 472.66 434.151 476.431 438.439C476.907 438.985 477.915 440.004 479.312 440.305C480.801 440.609 482.256 439.67 483.308 438.242C484.359 436.815 485.094 434.993 485.812 433.134C487.506 428.804 489.237 424.457 490.93 420.126C492.243 416.825 493.539 413.487 494.853 410.186C495.551 408.381 496.369 406.252 498.218 401.086C499.683 397.041 500.727 394.133 501.508 392.02C500.565 393.488 499.711 395.05 498.859 396.521Z" fill="#F5E642"/>
<path d="M504.949 361.985C504.107 362.597 497.969 364.791 493.659 365.875C491.956 368.232 489.587 369.726 487.155 369.227C486.265 369.052 485.556 367.805 486.034 366.596C486.632 365.063 487.5 364.214 488.508 363.57C487.997 363.536 487.484 363.592 487.038 363.797C484.853 364.713 483.56 367.959 481.521 369.392C480.1 370.405 478.4 370.423 476.737 370.424L470.853 370.434C469.539 370.41 468.204 370.439 466.895 370.232C467.392 371.802 466.748 373.626 465.789 374.472C464.83 375.318 463.62 375.425 462.448 375.515C463.271 376.62 464.382 377.277 465.512 377.387C463.114 378.624 460.569 379.93 458 379.134C455.431 378.338 453.011 374.642 453.657 371.063L451.205 371.203C450.925 368.545 449.628 366.31 448.623 364.03C448.282 363.288 448.015 362.512 447.731 361.699C447.902 365.98 448.205 370.74 448.749 375.929C448.831 376.79 449.085 378.516 449.964 380.134C450.895 381.864 452.457 382.718 453.951 382.84C455.446 382.962 456.886 382.479 458.327 381.995C461.746 380.827 465.127 379.676 468.545 378.508C471.15 377.624 473.755 376.741 476.36 375.857C477.801 375.374 479.43 374.714 483.371 373.216C497.489 367.754 493.395 368.918 497.535 367.463C503.174 365.453 505.986 364.923 506.36 362.414C506.432 361.887 506.413 361.356 506.302 360.823C505.814 361.227 505.38 361.651 504.949 361.985Z" fill="#F5E642"/>
<path d="M508.398 345.25C507.306 340.628 506.287 335.972 505.323 331.336C504.674 328.264 504.041 325.228 503.392 322.156C502.048 315.717 500.684 309.333 499.394 302.914C499.326 304.428 499.239 305.997 499.172 307.511C499.107 308.934 498.663 310.802 497.702 310.57C497.485 313.322 497.975 316.243 499.104 318.6C499.35 317.767 499.617 316.881 499.863 316.048C500.074 318.558 501.115 320.821 501.973 323.078C504.029 328.426 505.317 334.351 505.726 340.321C505.175 340.394 504.559 340.228 504.058 339.919C504.518 341.506 504.773 343.232 504.865 344.897C504.884 345.428 504.863 346.067 504.581 346.332C504.298 346.597 503.956 346.439 503.614 346.282C501.331 345.13 499.048 343.978 496.764 342.826C497.57 343.893 498.168 345.192 498.522 346.647C495.922 345.685 493.311 344.504 490.76 343.161C497.812 348.816 495.793 346.869 498.958 349.548C504.132 353.955 506.499 356.462 508.021 355.177C509.223 354.175 509.352 351.329 509.341 350.524C509.218 348.693 508.781 346.961 508.398 345.25Z" fill="#F5E642"/>
<path d="M476.672 387.67C476.56 387.721 476.469 387.718 476.358 387.769C476.284 387.803 476.315 387.969 476.389 387.934C476.5 387.883 476.612 387.832 476.686 387.798C476.777 387.801 476.726 387.69 476.672 387.67Z" fill="#FFF9AB"/>
<path d="M530.962 332.935C527.622 333.393 525.719 341.371 523.622 346.291C520.451 352.785 534.185 337.791 530.962 332.935Z" fill="#F6D938"/>
<path d="M530.961 328.44C531.46 326.593 533.431 323.843 536.912 315.679C533.26 313.898 529.693 323.046 530.961 328.44Z" fill="#F6D938"/>
<path d="M541.991 314.016C541.474 314.164 533.614 328.344 537.492 324.267C539.332 323.87 547.879 310.498 541.991 314.016Z" fill="#F6D938"/>
<path d="M537.675 313.529C541.499 311.68 542.174 305.526 544.437 299.99C553.572 283.696 536.402 295.91 537.675 313.529Z" fill="#F6D938"/>
<path d="M546.546 301.448C544.198 307.383 552.78 297.411 547.89 298.897C547.084 300.077 547.344 299.373 546.546 301.448Z" fill="#F6D938"/>
<path d="M510.729 295.405C508.247 291.378 506.607 309.798 508.123 313.191C509.341 308.315 512.687 301.517 510.729 295.405Z" fill="#F6D938"/>
<path d="M504.99 303.35C506.773 300.192 504.375 290.778 503.059 284.595C497.902 282.473 504.525 298.53 504.99 303.35Z" fill="#F6D938"/>
<path d="M506.377 285.362C505.914 283.866 506.875 281.267 506.097 273.713C500.922 269.891 503.25 283.743 506.377 285.362Z" fill="#F6D938"/>
<path d="M509.634 332.499C513.596 337.105 510.629 323.816 507.825 319.577C507.581 323.151 509.102 326.946 509.634 332.499Z" fill="#F6D938"/>
<path d="M484.081 328.837C473.532 321.149 476.688 331.429 488.489 334.9C491.127 337.507 490.094 333.308 484.081 328.837Z" fill="#F6D938"/>
<path d="M483.886 324.7C484.748 324.034 483.329 322.709 481.932 320.16C468.729 301.917 477 322.924 483.886 324.7Z" fill="#F6D938"/>
<path d="M474.307 321.467C471.883 316.784 470.128 315.119 465.201 309.295C460.014 313.164 470.172 321.077 474.307 321.467Z" fill="#F6D938"/>
<path d="M470.841 310.611C471.601 311.385 469.317 304.66 466.822 303.83C464.817 305.921 468.528 310.371 470.841 310.611Z" fill="#F6D938"/>
<path d="M482.871 308.717C482.664 307.194 479.871 303.759 478.537 300.372C473.758 299.559 479.608 308.465 482.871 308.717Z" fill="#F6D938"/>
<path d="M466.405 363.984C476.171 365.379 471.489 357.644 462.113 361.104C462.108 362.949 464.104 363.379 466.405 363.984Z" fill="#F6D938"/>
<path d="M455.706 365.939C456.797 369.482 465.433 371.352 465.378 367.422C462.972 368.934 455.338 358.691 455.706 365.939Z" fill="#F6D938"/>
<path d="M452.531 357.962C455.753 358.322 460.468 357.726 454.457 354.333C452.702 353.253 449.613 355.528 452.531 357.962Z" fill="#F6D938"/>
<path d="M476.415 382.619C474.13 385.469 471.918 386.621 467.955 386.017C452.63 384.168 468.099 401.279 476.415 382.619Z" fill="#F6D938"/>
<path d="M467.688 394.814C465.194 395.647 457.828 392.338 457.901 400.215C458.747 404.007 466.378 397.439 467.688 394.814Z" fill="#F6D938"/>
<path d="M485.311 382.12C483.563 384.183 477.22 387.102 476.529 392.634C479.295 392.98 485.335 388.717 485.311 382.12Z" fill="#F6D938"/>
<path d="M492.479 378.552C491.433 378.135 486.906 383.634 490.808 383.322C490.772 382.169 493.772 379.8 492.479 378.552Z" fill="#F6D938"/>
<path d="M503.606 400.586C503.879 398.932 499.752 405.595 499.613 412.132C503.14 415.499 503.131 403.951 503.606 400.586Z" fill="#F6D938"/>
<path d="M497.674 418.958C485.428 434.841 493.447 447.873 494.581 432.068C494.329 430.251 500.17 420.866 497.674 418.958Z" fill="#F6D938"/>
<path d="M498.423 429.085C496.503 431.946 495.182 441.679 496.944 446.487C501.21 449.604 498.934 430.783 498.423 429.085Z" fill="#F6D938"/>
<path d="M504.181 409.849C504.14 412.79 502.762 418.099 503.855 422.136C503.334 419.634 508.927 407.756 504.181 409.849Z" fill="#F6D938"/>
<path d="M524.496 394.211C525.632 398.633 524.934 407.18 527.457 412.761C534.087 413.397 525.553 399.928 524.496 394.211Z" fill="#F6D938"/>
<path d="M528.411 418.256C527.696 420.608 529.2 424.366 530.47 428.007C536.381 433.918 531.667 419.275 528.411 418.256Z" fill="#F6D938"/>
<path d="M531.192 432.213C529.908 432.939 531.582 439.9 532.76 435.133C532.382 434.408 533.216 435.148 531.192 432.213Z" fill="#F6D938"/>
<path d="M533.761 407.702C531.423 404.283 533.754 423.124 538.542 423.078C539.162 418.073 534.517 414.232 533.761 407.702Z" fill="#F6D938"/>
<path d="M542.293 360.986C547.707 352.921 532.172 360.383 531.549 363.232C535.012 362.942 537.998 363.277 542.293 360.986Z" fill="#F6D938"/>
<path d="M550.145 363.395C547.843 363.375 541.338 362.817 540.449 367.137C541.858 364.826 555.76 370.521 550.145 363.395Z" fill="#F6D938"/>
<path d="M561.792 354.126C559.085 349.708 551.265 354.205 549.797 358.341C551.896 358.409 563.962 358.746 561.792 354.126Z" fill="#F6D938"/>
</g>
<defs>
<filter id="filter0_f_2121_11006" x="0.101776" y="0.526581" width="776.633" height="718.445" filterUnits="userSpaceOnUse" color-interpolation-filters="sRGB">
<feFlood flood-opacity="0" result="BackgroundImageFix"/>
<feBlend mode="normal" in="SourceGraphic" in2="BackgroundImageFix" result="shape"/>
<feGaussianBlur stdDeviation="75.681" result="effect1_foregroundBlur_2121_11006"/>
</filter>
<filter id="filter1_f_2121_11006" x="377.489" y="453.802" width="240.705" height="45.8862" filterUnits="userSpaceOnUse" color-interpolation-filters="sRGB">
<feFlood flood-opacity="0" result="BackgroundImageFix"/>
<feBlend mode="normal" in="SourceGraphic" in2="BackgroundImageFix" result="shape"/>
<feGaussianBlur stdDeviation="5.8617" result="effect1_foregroundBlur_2121_11006"/>
</filter>
<filter id="filter2_i_2121_11006" x="368.513" y="259.481" width="204.373" height="229.398" filterUnits="userSpaceOnUse" color-interpolation-filters="sRGB">
<feFlood flood-opacity="0" result="BackgroundImageFix"/>
<feBlend mode="normal" in="SourceGraphic" in2="BackgroundImageFix" result="shape"/>
<feColorMatrix in="SourceAlpha" type="matrix" values="0 0 0 0 0 0 0 0 0 0 0 0 0 0 0 0 0 0 127 0" result="hardAlpha"/>
<feOffset dx="9.62932" dy="20.4623"/>
<feGaussianBlur stdDeviation="12.6385"/>
<feComposite in2="hardAlpha" operator="arithmetic" k2="-1" k3="1"/>
<feColorMatrix type="matrix" values="0 0 0 0 1 0 0 0 0 0.725391 0 0 0 0 0.229167 0 0 0 1 0"/>
<feBlend mode="normal" in2="shape" result="effect1_innerShadow_2121_11006"/>
</filter>
<filter id="filter3_i_2121_11006" x="358.9" y="358.98" width="160.579" height="110.027" filterUnits="userSpaceOnUse" color-interpolation-filters="sRGB">
<feFlood flood-opacity="0" result="BackgroundImageFix"/>
<feBlend mode="normal" in="SourceGraphic" in2="BackgroundImageFix" result="shape"/>
<feColorMatrix in="SourceAlpha" type="matrix" values="0 0 0 0 0 0 0 0 0 0 0 0 0 0 0 0 0 0 127 0" result="hardAlpha"/>
<feOffset dx="-9.62932" dy="-1.20366"/>
<feGaussianBlur stdDeviation="12.0366"/>
<feComposite in2="hardAlpha" operator="arithmetic" k2="-1" k3="1"/>
<feColorMatrix type="matrix" values="0 0 0 0 1 0 0 0 0 1 0 0 0 0 1 0 0 0 0.25 0"/>
<feBlend mode="normal" in2="shape" result="effect1_innerShadow_2121_11006"/>
</filter>
<linearGradient id="paint0_linear_2121_11006" x1="388.418" y1="151.889" x2="388.418" y2="553.424" gradientUnits="userSpaceOnUse">
<stop stop-color="#FFBE07"/>
<stop offset="1" stop-color="#FED45D" stop-opacity="0"/>
</linearGradient>
<linearGradient id="paint1_linear_2121_11006" x1="391.178" y1="89.915" x2="391.178" y2="233.244" gradientUnits="userSpaceOnUse">
<stop stop-color="#D6D6D6"/>
<stop offset="1" stop-color="#979797" stop-opacity="0"/>
</linearGradient>
<clipPath id="clip0_2121_11006">
<rect width="219" height="216" fill="white" transform="translate(369 257)"/>
</clipPath>
</defs>
</svg>
