
<svg width="101" height="101" viewBox="0 0 101 101" fill="none" xmlns="http://www.w3.org/2000/svg">
<g clipPath="url(#clip0_943_8613)">
<path d="M40.0745 90.007C62.0309 90.007 79.83 72.2078 79.83 50.2514C79.83 28.295 62.0309 10.4958 40.0745 10.4958C18.1181 10.4958 0.318909 28.295 0.318909 50.2514C0.318909 72.2078 18.1181 90.007 40.0745 90.007Z" fill="#FFE4B6"/>
<path d="M40.0745 10.4958C32.2116 10.4958 24.5252 12.8275 17.9875 17.1959C11.4497 21.5643 6.35414 27.7732 3.34514 35.0376C0.336134 42.302 -0.451158 50.2955 1.08282 58.0073C2.6168 65.7191 6.40314 72.8029 11.9631 78.3628C17.523 83.9227 24.6067 87.7091 32.3186 89.2431C40.0304 90.777 48.0239 89.9897 55.2883 86.9807C62.5526 83.9717 68.7616 78.8762 73.13 72.3384C77.4984 65.8006 79.83 58.1143 79.83 50.2514C79.83 39.7076 75.6415 29.5956 68.1859 22.14C60.7303 14.6844 50.6183 10.4958 40.0745 10.4958V10.4958ZM40.0745 78.3625C34.5146 78.3625 29.0796 76.7138 24.4568 73.6249C19.8339 70.536 16.2309 66.1457 14.1032 61.0091C11.9755 55.8724 11.4188 50.2202 12.5035 44.7672C13.5882 39.3142 16.2655 34.3053 20.1969 30.3738C24.1283 26.4424 29.1373 23.7651 34.5903 22.6804C40.0433 21.5958 45.6955 22.1525 50.8321 24.2801C55.9688 26.4078 60.3591 30.0109 63.448 34.6337C66.5369 39.2566 68.1856 44.6915 68.1856 50.2514C68.1856 57.7069 65.2239 64.8571 59.952 70.129C54.6802 75.4008 47.53 78.3625 40.0745 78.3625V78.3625Z" fill="#FED45D"/>
<path d="M40.0744 78.3626C55.5998 78.3626 68.1855 65.7768 68.1855 50.2515C68.1855 34.7262 55.5998 22.1404 40.0744 22.1404C24.5491 22.1404 11.9633 34.7262 11.9633 50.2515C11.9633 65.7768 24.5491 78.3626 40.0744 78.3626Z" stroke="black" strokeWidth="2.93333" strokeMiterlimit="10"/>
<path d="M60.5632 13.6812C53.3303 13.6812 46.2599 15.826 40.2459 19.8444C34.232 23.8627 29.5447 29.5742 26.7767 36.2566C24.0088 42.9389 23.2846 50.292 24.6957 57.3859C26.1068 64.4798 29.5897 70.996 34.7042 76.1105C39.8186 81.2249 46.3348 84.7079 53.4287 86.119C60.5227 87.53 67.8757 86.8058 74.5581 84.0379C81.2404 81.27 86.9519 76.5827 90.9703 70.5687C94.9887 64.5548 97.1335 57.4843 97.1335 50.2514C97.1335 40.5524 93.2806 31.2506 86.4223 24.3923C79.5641 17.5341 70.2623 13.6812 60.5632 13.6812V13.6812ZM60.5632 76.1102C55.4489 76.1102 50.4493 74.5936 46.1969 71.7522C41.9444 68.9108 38.63 64.8722 36.6728 60.1471C34.7157 55.4221 34.2036 50.2227 35.2013 45.2066C36.1991 40.1905 38.6619 35.5829 42.2783 31.9665C45.8947 28.3501 50.5023 25.8873 55.5184 24.8895C60.5346 23.8917 65.7339 24.4038 70.459 26.361C75.1841 28.3182 79.2226 31.6326 82.064 35.885C84.9054 40.1375 86.422 45.137 86.422 50.2514C86.422 57.1096 83.6976 63.6869 78.8482 68.5363C73.9987 73.3858 67.4214 76.1102 60.5632 76.1102Z" fill="#FED45D"/>
<path d="M60.5633 76.1102C74.8447 76.1102 86.4221 64.5328 86.4221 50.2514C86.4221 35.9699 74.8447 24.3926 60.5633 24.3926C46.2819 24.3926 34.7045 35.9699 34.7045 50.2514C34.7045 64.5328 46.2819 76.1102 60.5633 76.1102Z" fill="white"/>
<path d="M60.5633 76.1102C74.8447 76.1102 86.4221 64.5328 86.4221 50.2514C86.4221 35.9699 74.8447 24.3926 60.5633 24.3926C46.2819 24.3926 34.7045 35.9699 34.7045 50.2514C34.7045 64.5328 46.2819 76.1102 60.5633 76.1102Z" stroke="black" strokeWidth="2.69831" strokeMiterlimit="10"/>
</g>
<defs>
<clipPath id="clip0_943_8613">
<rect width="100" height="100" fill="white" transform="translate(0.318909 0.251465)"/>
</clipPath>
</defs>
</svg>
