
<svg width="90" height="90" viewBox="0 0 90 90" fill="none" xmlns="http://www.w3.org/2000/svg">
<path d="M53.788 41.3193H43.691V52.6085H53.788V41.3193Z" fill="#61ADE0"/>
<path d="M66.4916 41.3193H56.3946V52.6085H66.4916V41.3193Z" fill="#1C96A0"/>
<path d="M41.0933 41.3193H30.9963V52.6085H41.0933V41.3193Z" fill="#E75553"/>
<path d="M53.788 54.4146H43.691V65.7037H53.788V54.4146Z" fill="#E75553"/>
<path d="M66.4916 54.4146H56.3946V65.7037H66.4916V54.4146Z" fill="#FED45D"/>
<path d="M41.0933 54.4146H30.9963V65.7037H41.0933V54.4146Z" fill="#FED45D"/>
<path d="M53.788 67.5095H43.691V78.7986H53.788V67.5095Z" fill="#61ADE0"/>
<path d="M66.4916 67.5095H56.3946V78.7986H66.4916V67.5095Z" fill="#E75553"/>
<path d="M30.9963 67.5095H41.0933V78.7986H38.1754C36.2737 78.7986 34.45 78.0432 33.1053 76.6985C31.7606 75.3539 31.0052 73.5301 31.0052 71.6284V67.5095H30.9963Z" fill="#1C96A0"/>
<path d="M69.0626 58.4355H84.8709V72.1533C84.8709 73.9158 84.1708 75.606 82.9246 76.8523C81.6783 78.0985 79.988 78.7987 78.2256 78.7987H69.0626V58.4355Z" fill="#61ADE0"/>
<path d="M84.8709 41.3193H69.0626V54.9392H84.8709V41.3193Z" fill="#E75553"/>
<path d="M47.1427 32.0852H30.9963V38.5793H47.1427V32.0852Z" fill="#1C96A0"/>
<path d="M84.871 32.0852H68.7247V38.5793H84.871V32.0852Z" fill="#1C96A0"/>
<path d="M66.0112 32.0852H49.8648V38.5793H66.0112V32.0852Z" fill="#1C96A0"/>
<path d="M37.5349 9.31128H78.3323C80.0664 9.31128 81.7296 10.0002 82.9558 11.2264C84.182 12.4526 84.8709 14.1157 84.8709 15.8499V29.194H30.9963V15.8499C30.9963 14.1157 31.6852 12.4526 32.9114 11.2264C34.1376 10.0002 35.8007 9.31128 37.5349 9.31128V9.31128Z" fill="#FED45D"/>
<path d="M22.6162 30.1372H4.80627V65.3123H22.6162V30.1372Z" fill="#61ADE0"/>
<path d="M4.80627 68.2925H22.6162L13.7112 80.231L4.80627 68.2925Z" fill="#FED45D"/>
<path d="M12.6615 10.7437H14.761C16.8412 10.7484 18.8347 11.578 20.304 13.0507C21.7733 14.5233 22.5984 16.5186 22.5984 18.5989V22.531H4.80627V18.5989C4.80627 16.5155 5.63388 14.5175 7.10702 13.0444C8.58016 11.5713 10.5782 10.7437 12.6615 10.7437V10.7437Z" fill="#E75553"/>
<path d="M10.8735 76.4143H16.5581" stroke="black" strokeWidth="1.5924" strokeMiterlimit="10"/>
<path d="M22.2781 24.4258H5.15314V28.2155H22.2781V24.4258Z" stroke="black" strokeWidth="1.77922" strokeMiterlimit="10"/>
<path d="M8.55151 30.1372V65.3123" stroke="black" strokeWidth="1.5924" strokeMiterlimit="10"/>
<path d="M18.8799 30.1372V65.3123" stroke="black" strokeWidth="1.5924" strokeMiterlimit="10"/>
<path d="M13.7112 30.1372V65.3123" stroke="black" strokeWidth="1.5924" strokeMiterlimit="10"/>
</svg>
