
<svg width="102" height="103" viewBox="0 0 102 103" fill="none" xmlns="http://www.w3.org/2000/svg">
<g clipPath="url(#clip0_943_8620)">
<path d="M101.816 29.0811H0.318665V41.802H101.816V29.0811Z" fill="#E75553"/>
<path d="M98.4322 32.1487H3.70178V38.7234H98.4322V32.1487Z" fill="#1C96A0"/>
<path d="M98.4322 35.656H3.70178V55.4704H98.4322V35.656Z" fill="#7CC8C2"/>
<path d="M8.21295 32.2682V50.9593H93.9214V32.2056" stroke="black" strokeWidth="2.97724" strokeMiterlimit="10"/>
<path d="M51.0672 60.5903V85.7841" stroke="black" strokeWidth="2.97724" strokeMiterlimit="10"/>
<path d="M59.5593 82.3106L51.6651 90.1371C51.5793 90.223 51.4773 90.2912 51.3651 90.3377C51.2528 90.3842 51.1325 90.4082 51.0111 90.4082C50.8896 90.4082 50.7693 90.3842 50.657 90.3377C50.5448 90.2912 50.4428 90.223 50.357 90.1371L42.4628 82.3106C42.3343 82.1791 42.2474 82.0126 42.2129 81.8321C42.1784 81.6515 42.1979 81.4648 42.2688 81.2952C42.3398 81.1256 42.4591 80.9806 42.6119 80.8784C42.7648 80.7762 42.9443 80.7213 43.1281 80.7205H58.894C59.0778 80.7213 59.2573 80.7762 59.4102 80.8784C59.563 80.9806 59.6823 81.1256 59.7533 81.2952C59.8242 81.4648 59.8437 81.6515 59.8092 81.8321C59.7747 82.0126 59.6878 82.1791 59.5593 82.3106V82.3106Z" fill="#1C96A0"/>
</g>
<defs>
<clipPath id="clip0_943_8620">
<rect width="101.497" height="101.497" fill="white" transform="translate(0.318909 0.754883)"/>
</clipPath>
</defs>
</svg>
