<svg width="724" height="294" viewBox="0 0 724 294" fill="none" xmlns="http://www.w3.org/2000/svg">
<g clip-path="url(#clip0_925_5430)">
<path d="M647.871 179.895C660.411 179.895 670.576 169.743 670.576 157.22C670.576 144.698 660.411 134.546 647.871 134.546C635.332 134.546 625.167 144.698 625.167 157.22C625.167 169.743 635.332 179.895 647.871 179.895Z" stroke="black" stroke-miterlimit="10"/>
<path d="M717.073 174.954L710.113 186.988H724L717.073 174.954Z" fill="#1C96A0"/>
<path d="M580.682 207.741L600.934 187.504L621.209 207.741C615.834 213.107 608.545 216.121 600.945 216.121C593.345 216.121 586.057 213.107 580.682 207.741Z" fill="#61ADE0"/>
<path d="M580.682 178.753L600.934 158.516L621.209 178.753C618.552 181.419 615.395 183.534 611.917 184.978C608.44 186.421 604.711 187.164 600.945 187.164C597.179 187.164 593.45 186.421 589.973 184.978C586.496 183.534 583.338 181.419 580.682 178.753Z" fill="#7CC8C2"/>
<path d="M580.682 149.798L600.934 129.561L621.209 149.798C618.552 152.464 615.395 154.579 611.917 156.023C608.44 157.466 604.711 158.209 600.945 158.209C597.179 158.209 593.45 157.466 589.973 156.023C586.496 154.579 583.338 152.464 580.682 149.798Z" fill="#61ADE0"/>
<path d="M709.08 293.465C717.059 293.465 723.527 287.005 723.527 279.037C723.527 271.068 717.059 264.608 709.08 264.608C701.101 264.608 694.633 271.068 694.633 279.037C694.633 287.005 701.101 293.465 709.08 293.465Z" fill="#7CC8C2"/>
<path d="M6.8388 293.465C10.6158 293.465 13.6776 290.407 13.6776 286.635C13.6776 282.863 10.6158 279.805 6.8388 279.805C3.06183 279.805 0 282.863 0 286.635C0 290.407 3.06183 293.465 6.8388 293.465Z" fill="#7CC8C2"/>
<path d="M562.838 79.1064C570.817 79.1064 577.285 72.6467 577.285 64.6782C577.285 56.7097 570.817 50.25 562.838 50.25C554.859 50.25 548.391 56.7097 548.391 64.6782C548.391 72.6467 554.859 79.1064 562.838 79.1064Z" fill="#FFE4B6"/>
<path d="M125.462 89.9985C133.441 89.9985 139.909 83.5388 139.909 75.5703C139.909 67.6018 133.441 61.1421 125.462 61.1421C117.483 61.1421 111.015 67.6018 111.015 75.5703C111.015 83.5388 117.483 89.9985 125.462 89.9985Z" fill="#FFE4B6"/>
<path d="M113.17 146.581L87.6729 186.648H113.17V146.581Z" stroke="black" stroke-miterlimit="10"/>
<path d="M530.897 114.046C548.537 114.046 562.837 99.7647 562.837 82.148C562.837 64.5312 548.537 50.25 530.897 50.25C513.257 50.25 498.957 64.5312 498.957 82.148C498.957 99.7647 513.257 114.046 530.897 114.046Z" stroke="black" stroke-miterlimit="10"/>
<path d="M132.972 83.3115L116.513 111.773H149.343L132.972 83.3115Z" fill="#1C96A0"/>
<path d="M197.973 111.367C187.362 112.681 177.708 118.15 171.134 126.572C164.561 134.994 161.607 145.679 162.921 156.276" stroke="black" stroke-miterlimit="10"/>
<path d="M194.114 117.131L198.622 111.575L193.069 107.073" stroke="black" stroke-miterlimit="10"/>
<path d="M347.998 291.84C347.998 259.793 360.745 229.058 383.436 206.398C406.127 183.737 436.902 171.006 468.991 171.006C501.08 171.006 531.855 183.737 554.546 206.398C577.236 229.058 589.984 259.793 589.984 291.84" fill="#1C96A0"/>
<path d="M138.535 291.84C138.535 259.793 151.283 229.058 173.973 206.398C196.664 183.737 227.439 171.006 259.528 171.006C291.617 171.006 322.392 183.737 345.083 206.398C367.773 229.058 380.521 259.793 380.521 291.84" fill="#1C96A0"/>
<path d="M517.638 291.84C517.872 272.83 525.598 254.679 539.141 241.32C552.685 227.96 570.954 220.469 589.989 220.469C609.025 220.469 627.294 227.96 640.837 241.32C654.38 254.679 662.106 272.83 662.341 291.84" fill="#7CC8C2"/>
<path d="M53.7314 291.84C53.9661 272.83 61.6921 254.679 75.2352 241.32C88.7782 227.96 107.047 220.469 126.083 220.469C145.119 220.469 163.388 227.96 176.931 241.32C190.474 254.679 198.2 272.83 198.435 291.84" fill="#7CC8C2"/>
<path d="M299.874 83.2293C299.874 60.0485 281.057 41.2568 257.846 41.2568C234.635 41.2568 215.818 60.0485 215.818 83.2293C215.818 106.41 234.635 125.202 257.846 125.202C281.057 125.202 299.874 106.41 299.874 83.2293Z" fill="#FFE4B6"/>
<path d="M299.874 131.647C296.691 131.647 293.539 131.021 290.598 129.805C287.658 128.588 284.986 126.805 282.735 124.557C280.484 122.31 278.699 119.641 277.481 116.704C276.263 113.768 275.636 110.62 275.636 107.441C275.636 104.262 276.263 101.115 277.481 98.1778C278.699 95.2409 280.484 92.5725 282.735 90.3247C284.986 88.0769 287.658 86.2939 290.598 85.0775C293.539 83.861 296.691 83.2349 299.874 83.2349" fill="#FFE4B6"/>
<path d="M468.986 0.464844H326.097V291.84H468.986V0.464844Z" fill="#E75553"/>
<path d="M449.007 240.957H468.996L468.996 0.46463H449.007V240.957Z" fill="#FFE4B6"/>
<path d="M347.987 196.541H426.513V24.1493H347.987V196.541Z" fill="#FFE4B6"/>
<path d="M448.92 240.968V215.351H363.292V240.968H448.92Z" fill="#FFE4B6"/>
<path d="M423.312 266.541V240.924H337.685V266.541H423.312Z" fill="#FFE4B6"/>
<path d="M397.97 291.84V266.223H312.342V291.84H397.97Z" fill="#FFE4B6"/>
<path d="M440.377 139.333H363.292V214.922H440.377V139.333Z" fill="#E75553" stroke="#020202" stroke-miterlimit="10"/>
<path d="M398.673 179.599H363.292V214.933H398.673V179.599Z" fill="#FED45D" stroke="#070707" stroke-miterlimit="10"/>
<path d="M440.377 179.599H404.995V214.933H440.377V179.599Z" fill="#FED45D" stroke="#070707" stroke-miterlimit="10"/>
<path d="M440.377 139.333H404.995V174.668H440.377V139.333Z" fill="#FED45D" stroke="#070707" stroke-miterlimit="10"/>
<path d="M398.673 139.333H363.292V174.668H398.673V139.333Z" fill="#FED45D" stroke="#070707" stroke-miterlimit="10"/>
<path d="M299.874 253.123H260.831V291.412H299.874V253.123Z" fill="#E75553"/>
<path d="M278.753 273.524H260.831V291.422H278.753V273.524Z" fill="#FED45D"/>
<path d="M299.874 273.524H281.952V291.422H299.874V273.524Z" fill="#FED45D"/>
<path d="M299.874 253.123H281.952V271.021H299.874V253.123Z" fill="#FED45D"/>
<path d="M278.753 253.123H260.831V271.021H278.753V253.123Z" fill="#FED45D"/>
<path d="M249.989 89.7678C249.989 88.7949 250.122 87.9253 250.387 87.1588C250.653 86.3923 251.08 85.6701 251.67 84.992C252.289 84.314 253.099 83.6212 254.102 82.9137C254.986 82.2651 255.694 81.6903 256.224 81.1891C256.784 80.6879 257.182 80.1868 257.418 79.6856C257.684 79.1845 257.816 78.6243 257.816 78.0053C257.816 77.0619 257.462 76.3544 256.755 75.8827C256.077 75.3815 255.119 75.131 253.881 75.131C252.642 75.131 251.419 75.3226 250.21 75.7058C249.002 76.0891 247.763 76.605 246.496 77.2535L244.152 72.522C245.597 71.726 247.159 71.0775 248.84 70.5763C250.52 70.0751 252.362 69.8246 254.367 69.8246C257.433 69.8246 259.806 70.5616 261.486 72.0356C263.196 73.5096 264.051 75.3815 264.051 77.6515C264.051 78.8602 263.86 79.9067 263.476 80.7911C263.093 81.6755 262.518 82.501 261.752 83.2674C260.985 84.0044 260.027 84.8004 258.877 85.6553C258.023 86.2744 257.359 86.805 256.888 87.2472C256.416 87.6894 256.092 88.1169 255.915 88.5296C255.767 88.9423 255.694 89.4582 255.694 90.0773V91.3597H249.989V89.7678ZM249.282 98.7444C249.282 97.3884 249.65 96.445 250.387 95.9144C251.124 95.3542 252.023 95.0742 253.085 95.0742C254.116 95.0742 255.001 95.3542 255.738 95.9144C256.475 96.445 256.843 97.3884 256.843 98.7444C256.843 100.042 256.475 100.985 255.738 101.575C255.001 102.135 254.116 102.415 253.085 102.415C252.023 102.415 251.124 102.135 250.387 101.575C249.65 100.985 249.282 100.042 249.282 98.7444Z" fill="#1C96A0"/>
<path d="M50.8066 195.806V284.856H55.0836V195.806H50.8066ZM54.6548 284.483H51.2354V196.234H54.6548V284.483Z" fill="white" stroke="#070707" stroke-miterlimit="10"/>
<path d="M50.3887 195.377V285.329H55.5123V195.377H50.3887ZM54.6547 284.483H51.2353V196.234H54.6547V284.483Z" fill="#7CC8C2"/>
<path d="M54.6548 196.234H51.2354V284.472H54.6548V196.234Z" fill="#7CC8C2"/>
<path d="M56.5792 291.313C56.5792 291.313 57.4368 250.312 17.4045 249.115C17.4045 249.115 12.9626 293.871 56.5792 291.313Z" fill="#1C96A0"/>
<path d="M53.0607 291.84C41.9889 291.84 33.27 288.601 27.0799 282.177C20.8898 275.754 18.394 266.991 17.4704 260.886C16.8738 256.978 16.7079 253.016 16.9756 249.072V248.676H17.3715C26.5961 248.951 34.4135 251.366 40.6256 255.857C45.7406 259.626 49.7809 264.664 52.3461 270.472C55.2791 277.044 56.8499 284.141 56.9639 291.335V291.73H56.5681C55.4027 291.807 54.2152 291.84 53.0607 291.84ZM17.8003 249.555C17.5874 253.304 17.7643 257.064 18.328 260.777C19.2296 266.761 21.6265 275.238 27.7066 281.639C34.3035 288.458 43.8361 291.598 56.1503 290.951C55.9748 284.02 54.4317 277.191 51.6094 270.857C45.3753 257.296 33.9957 250.148 17.8003 249.555Z" fill="#1C96A0"/>
<path d="M52.3463 242.11C52.3463 242.11 53.8746 226.386 28.2236 229.296C28.2236 229.296 34.7326 235.445 38.9106 239.178C40.7179 240.764 42.899 241.865 45.2492 242.378C47.5994 242.89 50.0416 242.798 52.3463 242.11Z" fill="#1C96A0"/>
<path d="M48.1788 243.131C44.6536 243.174 41.2418 241.888 38.6243 239.53C34.4902 235.807 28.0033 229.647 27.9373 229.647L27.2666 229.021L28.1792 228.912C38.0745 227.814 45.1662 229.263 49.2563 233.304C50.4383 234.459 51.3628 235.85 51.9691 237.387C52.5754 238.923 52.8499 240.57 52.7747 242.22V242.483L52.5108 242.571C51.1047 242.982 49.6432 243.171 48.1788 243.131ZM29.2017 229.625C30.9719 231.294 35.8536 235.873 39.196 238.882C40.9152 240.378 42.9783 241.427 45.2016 241.935C47.4249 242.443 49.7394 242.393 51.9391 241.792C51.9473 240.314 51.6598 238.849 51.0934 237.484C50.5269 236.119 49.693 234.881 48.6406 233.842C44.8694 230.141 38.3274 228.725 29.2017 229.625Z" fill="#1C96A0"/>
<path d="M52.9512 225.277C52.9512 225.277 54.3145 210.926 72.9618 212.979C72.9618 212.979 70.9058 229.032 52.9512 225.277Z" fill="#1C96A0"/>
<path d="M58.0966 226.276C56.3368 226.261 54.5831 226.066 52.8631 225.694L52.4893 225.617V225.233C53.01 221.606 54.8688 218.305 57.7008 215.976C61.3731 212.99 66.4967 211.837 72.9727 212.551H73.4125V212.979C72.7503 217.213 70.4778 221.028 67.0684 223.63C64.4316 225.434 61.2917 226.36 58.0966 226.276ZM53.4348 224.936C58.8113 226.034 63.2422 225.321 66.6286 222.938C69.6865 220.561 71.7735 217.154 72.4999 213.352C66.4747 212.77 61.7029 213.879 58.3055 216.646C55.7583 218.753 54.0341 221.688 53.4348 224.936Z" fill="#1C96A0"/>
<path d="M53.226 208.565C69.1475 208.565 82.0545 195.675 82.0545 179.774C82.0545 163.874 69.1475 150.984 53.226 150.984C37.3044 150.984 24.3975 163.874 24.3975 179.774C24.3975 195.675 37.3044 208.565 53.226 208.565Z" fill="#FFD423" stroke="#070707" stroke-miterlimit="10"/>
<path d="M53.2257 201.043C64.9878 201.043 74.5228 191.521 74.5228 179.774C74.5228 168.028 64.9878 158.505 53.2257 158.505C41.4637 158.505 31.9287 168.028 31.9287 179.774C31.9287 191.521 41.4637 201.043 53.2257 201.043Z" fill="white" stroke="#070707" stroke-miterlimit="10"/>
<path d="M59.3722 187.878C58.0151 189.032 56.3148 189.708 54.5344 189.799V192.929H52.2585V189.821C50.9235 189.741 49.6043 189.49 48.3333 189.075C47.2597 188.744 46.2595 188.211 45.3867 187.504L46.6511 184.672C47.4118 185.271 48.2612 185.749 49.1689 186.088C50.1592 186.473 51.1997 186.713 52.2585 186.802V181.202C51.1299 180.93 50.0264 180.562 48.96 180.104C48.0955 179.74 47.3385 179.162 46.7611 178.424C46.1304 177.584 45.8116 176.552 45.8595 175.503C45.8511 174.779 45.9944 174.061 46.2803 173.395C46.5663 172.729 46.9884 172.131 47.5197 171.638C48.8513 170.473 50.5444 169.802 52.3135 169.738V166.565H54.6114V169.672C55.651 169.736 56.68 169.916 57.679 170.21C58.6064 170.475 59.4913 170.871 60.3067 171.385L59.2072 174.218C57.8152 173.404 56.2688 172.888 54.6664 172.703V178.358C55.8099 178.612 56.9313 178.957 58.0198 179.39C58.8779 179.759 59.6327 180.332 60.2188 181.059C60.8592 181.898 61.1824 182.937 61.1313 183.991C61.1354 184.727 60.9803 185.455 60.6767 186.126C60.3731 186.797 59.9281 187.394 59.3722 187.878ZM50.1365 176.897C50.7708 177.341 51.4833 177.662 52.2365 177.842V172.857C51.4509 172.927 50.7061 173.238 50.1035 173.746C49.8922 173.961 49.7276 174.218 49.6197 174.499C49.5119 174.78 49.4633 175.081 49.4768 175.382C49.4629 175.666 49.5176 175.949 49.6362 176.207C49.7549 176.465 49.934 176.69 50.1585 176.865L50.1365 176.897ZM56.7334 185.912C56.9637 185.714 57.1473 185.468 57.2709 185.191C57.3944 184.914 57.455 184.613 57.4481 184.309C57.4558 184.014 57.3906 183.721 57.2583 183.457C57.126 183.193 56.9306 182.965 56.6894 182.794C56.0269 182.331 55.2798 182.003 54.4905 181.828V186.78C55.3178 186.709 56.1058 186.396 56.7554 185.879L56.7334 185.912Z" fill="#1C96A0"/>
<path d="M59.3722 187.878C58.0151 189.032 56.3148 189.708 54.5344 189.799V192.929H52.2585V189.821C50.9235 189.741 49.6043 189.49 48.3333 189.075C47.2597 188.744 46.2595 188.211 45.3867 187.504L46.6511 184.672C47.4118 185.271 48.2612 185.749 49.1689 186.088C50.1592 186.473 51.1997 186.713 52.2585 186.802V181.202C51.1299 180.93 50.0264 180.562 48.96 180.104C48.0955 179.74 47.3385 179.162 46.7611 178.424C46.1304 177.584 45.8116 176.552 45.8595 175.503C45.8511 174.779 45.9944 174.061 46.2803 173.395C46.5663 172.729 46.9884 172.131 47.5197 171.638C48.8513 170.473 50.5444 169.802 52.3135 169.738V166.565H54.6114V169.672C55.651 169.736 56.68 169.916 57.679 170.21C58.6064 170.475 59.4913 170.871 60.3067 171.385L59.2072 174.218C57.8152 173.404 56.2688 172.888 54.6664 172.703V178.358C55.8099 178.612 56.9313 178.957 58.0198 179.39C58.8779 179.759 59.6327 180.332 60.2188 181.059C60.8592 181.898 61.1824 182.937 61.1313 183.991C61.1354 184.727 60.9803 185.455 60.6767 186.126C60.3731 186.797 59.9281 187.394 59.3722 187.878V187.878ZM50.1365 176.897C50.7708 177.341 51.4833 177.662 52.2365 177.842V172.857C51.4509 172.927 50.7061 173.238 50.1035 173.746C49.8922 173.961 49.7276 174.218 49.6197 174.499C49.5119 174.78 49.4633 175.081 49.4768 175.382C49.4629 175.666 49.5176 175.949 49.6362 176.207C49.7549 176.465 49.934 176.69 50.1585 176.865L50.1365 176.897ZM56.7334 185.912C56.9637 185.714 57.1473 185.468 57.2709 185.191C57.3944 184.914 57.455 184.613 57.4481 184.309C57.4558 184.014 57.3906 183.721 57.2583 183.457C57.126 183.193 56.9306 182.965 56.6894 182.794C56.0269 182.331 55.2798 182.003 54.4905 181.828V186.78C55.3178 186.709 56.1058 186.396 56.7554 185.879L56.7334 185.912Z" stroke="#070707" stroke-miterlimit="10"/>
<path d="M56.3484 291.665C46.0243 285.021 35.854 273.876 29.1362 265.674C21.8686 256.813 16.9759 249.423 16.9209 249.346L17.6356 248.874C17.8335 249.17 37.2284 278.334 56.8102 290.951L56.3484 291.665Z" fill="#1C96A0"/>
<path d="M53.1376 225.563L52.5879 224.915C58.6586 219.786 65.4391 215.558 72.7195 212.364L73.0383 213.166C65.8387 216.314 59.1352 220.49 53.1376 225.563Z" fill="#1C96A0"/>
<path d="M51.9831 242.319C50.6083 240.316 48.8928 238.569 46.9144 237.158C43.561 234.632 37.5798 231.283 28.1572 229.713L28.3002 228.868C37.9316 230.471 44.0448 233.908 47.4752 236.554C49.5374 238.013 51.3148 239.836 52.7197 241.934L51.9831 242.319Z" fill="#1C96A0"/>
<path d="M48.2446 291.313C48.2446 291.313 47.387 250.312 87.4193 249.115C87.4193 249.115 91.8612 293.871 48.2446 291.313Z" fill="#1C96A0"/>
<path d="M51.7633 291.84C50.6638 291.84 49.4324 291.84 48.223 291.741H47.8271V291.346C47.9412 284.152 49.512 277.055 52.445 270.483C55.0111 264.679 59.0467 259.642 64.1545 255.868C70.3666 251.377 78.1839 248.962 87.4086 248.687H87.8044V249.082C88.0722 253.027 87.9063 256.989 87.3097 260.897C86.3861 267.002 84.0112 275.666 77.7002 282.188C71.3891 288.71 62.8351 291.84 51.7633 291.84ZM48.6738 290.907C60.988 291.554 70.5535 288.414 77.1174 281.595C83.2416 275.238 85.5945 266.761 86.496 260.732C87.0598 257.02 87.2366 253.259 87.0238 249.511C70.8174 250.103 59.4377 257.263 53.2036 270.79C50.3848 277.133 48.8455 283.969 48.6738 290.907Z" fill="#1C96A0"/>
<path d="M48.3768 291.752L47.915 291.038C59.4077 283.608 69.535 274.26 77.854 263.401C81.3767 258.901 84.4758 254.086 87.1117 249.017L87.8813 249.379C85.2323 254.497 82.1109 259.356 78.5577 263.895C70.168 274.837 59.9594 284.26 48.3768 291.752Z" fill="#1C96A0"/>
<path d="M663.484 235.247V287.953H666.013V235.247H663.484ZM665.76 287.678H663.737V235.5H665.76V287.678Z" fill="white" stroke="#070707" stroke-miterlimit="10"/>
<path d="M663.231 234.995V288.151H666.288V234.995H663.231ZM665.76 287.7H663.737V235.5H665.76V287.7Z" fill="#7CC8C2"/>
<path d="M665.76 235.5H663.737V287.678H665.76V235.5Z" fill="#7CC8C2"/>
<path d="M666.904 291.719C666.904 291.719 667.409 267.474 643.737 266.771C643.737 266.771 641.11 293.234 666.904 291.719Z" fill="#1C96A0"/>
<path d="M664.814 292.038C658.272 292.038 653.105 290.116 649.422 286.317C645.738 282.518 644.287 277.346 643.748 273.722C643.39 271.413 643.291 269.071 643.451 266.739V266.508H643.693C648.599 266.497 653.392 267.975 657.437 270.747C660.455 272.98 662.842 275.958 664.364 279.388C666.093 283.27 667.024 287.46 667.101 291.708V291.95H666.87C666.2 292.016 665.496 292.038 664.814 292.038ZM643.924 267.024C643.796 269.243 643.9 271.47 644.232 273.668C644.771 277.203 646.167 282.21 649.729 285.977C653.611 290.006 659.273 291.862 666.552 291.467C666.439 287.369 665.524 283.333 663.858 279.586C660.273 271.614 653.545 267.376 643.968 267.024H643.924Z" fill="#1C96A0"/>
<path d="M664.397 262.621C664.397 262.621 665.309 253.332 650.104 255.045C650.104 255.045 653.952 258.679 656.426 260.908C657.498 261.848 658.793 262.499 660.188 262.799C661.583 263.098 663.032 263.037 664.397 262.621Z" fill="#1C96A0"/>
<path d="M661.89 263.225C659.805 263.251 657.786 262.49 656.238 261.095C653.798 258.899 649.96 255.275 649.916 255.231L649.521 254.858L650.059 254.803C655.909 254.133 660.109 255.011 662.527 257.383C663.226 258.066 663.772 258.888 664.13 259.797C664.489 260.705 664.65 261.679 664.605 262.654V262.808L664.463 262.862C663.629 263.115 662.761 263.237 661.89 263.225ZM650.708 255.209C651.752 256.197 654.644 258.91 656.623 260.699C657.638 261.587 658.857 262.208 660.172 262.507C661.487 262.806 662.856 262.773 664.155 262.412C664.158 261.539 663.988 260.674 663.654 259.867C663.32 259.061 662.829 258.328 662.209 257.713C659.977 255.55 656.106 254.715 650.708 255.209Z" fill="#1C96A0"/>
<path d="M664.748 252.673C664.748 252.673 665.562 244.196 676.59 245.404C676.59 245.404 675.369 254.902 664.748 252.673Z" fill="#1C96A0"/>
<path d="M667.794 253.266C666.752 253.26 665.713 253.146 664.694 252.926H664.474V252.695C664.778 250.545 665.876 248.587 667.552 247.205C669.751 245.448 672.764 244.767 676.59 245.184H676.843V245.437C676.455 247.923 675.124 250.164 673.127 251.696C671.56 252.769 669.693 253.319 667.794 253.266ZM665.034 252.475C668.223 253.101 670.84 252.695 672.819 251.29C674.627 249.885 675.862 247.871 676.293 245.624C672.731 245.283 669.905 245.931 667.893 247.567C666.399 248.822 665.388 250.558 665.034 252.475Z" fill="#1C96A0"/>
<path d="M664.913 242.791C674.325 242.791 681.955 235.171 681.955 225.771C681.955 216.371 674.325 208.751 664.913 208.751C655.501 208.751 647.871 216.371 647.871 225.771C647.871 235.171 655.501 242.791 664.913 242.791Z" fill="#FFD423" stroke="#070707" stroke-miterlimit="10"/>
<path d="M664.913 238.344C671.866 238.344 677.502 232.715 677.502 225.771C677.502 218.828 671.866 213.199 664.913 213.199C657.961 213.199 652.324 218.828 652.324 225.771C652.324 232.715 657.961 238.344 664.913 238.344Z" fill="white" stroke="#070707" stroke-miterlimit="10"/>
<path d="M668.563 230.558C667.757 231.228 666.752 231.614 665.705 231.656V233.512H664.341V231.711C663.552 231.664 662.773 231.516 662.021 231.272C661.389 231.073 660.799 230.756 660.284 230.339L661.032 228.67C661.481 229.021 661.982 229.303 662.516 229.504C663.102 229.729 663.716 229.87 664.341 229.921V226.627C663.668 226.476 663.01 226.267 662.373 226.001C661.861 225.787 661.411 225.447 661.065 225.013C660.684 224.517 660.493 223.902 660.526 223.278C660.522 222.851 660.607 222.427 660.775 222.034C660.944 221.641 661.192 221.287 661.505 220.994C662.3 220.321 663.299 219.934 664.341 219.896V217.986H665.705V219.831C666.319 219.861 666.928 219.965 667.519 220.138C668.067 220.296 668.589 220.533 669.069 220.841L668.387 222.51C667.564 222.032 666.651 221.729 665.705 221.62V224.914C666.38 225.066 667.042 225.272 667.684 225.529C668.202 225.744 668.66 226.083 669.014 226.518C669.39 227.012 669.58 227.622 669.553 228.241C669.567 228.676 669.486 229.109 669.315 229.509C669.144 229.909 668.887 230.267 668.563 230.558ZM663.066 224.047C663.442 224.308 663.864 224.497 664.308 224.607V221.664C663.844 221.711 663.404 221.895 663.044 222.191C662.912 222.317 662.807 222.469 662.737 222.637C662.667 222.805 662.633 222.986 662.637 223.169C662.64 223.341 662.683 223.51 662.763 223.663C662.843 223.815 662.958 223.947 663.099 224.047H663.066ZM666.969 229.383C667.106 229.267 667.215 229.122 667.289 228.959C667.363 228.796 667.4 228.618 667.398 228.439C667.4 228.264 667.36 228.091 667.282 227.934C667.203 227.778 667.089 227.642 666.947 227.539C666.562 227.27 666.129 227.076 665.672 226.968V229.889C666.155 229.853 666.617 229.678 667.002 229.383H666.969Z" fill="#1C96A0"/>
<path d="M668.563 230.558C667.757 231.228 666.752 231.614 665.705 231.656V233.512H664.341V231.711C663.552 231.664 662.773 231.516 662.021 231.272C661.389 231.073 660.799 230.756 660.284 230.339L661.032 228.67C661.481 229.021 661.982 229.303 662.516 229.504C663.102 229.729 663.716 229.87 664.341 229.921V226.627C663.668 226.476 663.01 226.267 662.373 226.001C661.861 225.787 661.411 225.447 661.065 225.013C660.684 224.517 660.493 223.902 660.526 223.278C660.522 222.851 660.607 222.427 660.775 222.034C660.944 221.641 661.192 221.287 661.505 220.994C662.3 220.321 663.299 219.934 664.341 219.896V217.986H665.705V219.831C666.319 219.861 666.928 219.965 667.519 220.138C668.067 220.296 668.589 220.533 669.069 220.841L668.387 222.51C667.564 222.032 666.651 221.729 665.705 221.62V224.914C666.38 225.066 667.042 225.272 667.684 225.529C668.202 225.744 668.66 226.083 669.014 226.518C669.39 227.012 669.58 227.622 669.553 228.241C669.567 228.676 669.486 229.109 669.315 229.509C669.144 229.909 668.887 230.267 668.563 230.558V230.558ZM663.066 224.047C663.442 224.308 663.864 224.497 664.308 224.607V221.664C663.844 221.711 663.404 221.895 663.044 222.191C662.912 222.317 662.807 222.469 662.737 222.637C662.667 222.805 662.633 222.986 662.637 223.169C662.64 223.341 662.683 223.51 662.763 223.663C662.843 223.815 662.958 223.947 663.099 224.047H663.066ZM666.969 229.383C667.106 229.267 667.215 229.122 667.289 228.959C667.363 228.796 667.4 228.618 667.398 228.439C667.4 228.264 667.36 228.091 667.282 227.934C667.203 227.778 667.089 227.642 666.947 227.539C666.562 227.27 666.129 227.076 665.672 226.968V229.889C666.155 229.853 666.617 229.678 667.002 229.383H666.969Z" stroke="#070707" stroke-miterlimit="10"/>
<path d="M666.76 291.928C660.658 287.997 654.666 281.398 650.675 276.555C646.376 271.307 643.484 266.937 643.451 266.893L643.869 266.618C643.99 266.794 655.458 284.033 667.035 291.5L666.76 291.928Z" fill="#1C96A0"/>
<path d="M664.858 252.816L664.539 252.431C668.126 249.396 672.138 246.899 676.447 245.02L676.622 245.492C672.368 247.354 668.405 249.821 664.858 252.816Z" fill="#1C96A0"/>
<path d="M664.176 262.753C663.366 261.568 662.354 260.535 661.186 259.7C657.894 257.368 654.089 255.861 650.092 255.308L650.18 254.814C654.269 255.377 658.16 256.926 661.515 259.327C662.735 260.19 663.786 261.269 664.616 262.511L664.176 262.753Z" fill="#1C96A0"/>
<path d="M661.967 291.719C661.967 291.719 661.461 267.474 685.133 266.771C685.133 266.771 687.761 293.234 661.967 291.719Z" fill="#1C96A0"/>
<path d="M664.089 292.038C663.396 292.038 662.703 292.038 661.989 291.972H661.758V291.73C661.815 287.471 662.727 283.267 664.441 279.366C665.97 275.938 668.36 272.961 671.378 270.725C675.423 267.953 680.216 266.475 685.122 266.486H685.364V266.717C685.524 269.049 685.425 271.391 685.067 273.7C684.528 277.324 683.099 282.485 679.393 286.295C675.688 290.105 670.598 292.038 664.089 292.038ZM662.22 291.445C669.498 291.829 675.16 289.973 679.042 285.955C682.659 282.188 684.055 277.17 684.539 273.646C684.871 271.448 684.975 269.222 684.847 267.002C675.259 267.354 668.531 271.592 664.847 279.597C663.203 283.336 662.31 287.362 662.22 291.445Z" fill="#1C96A0"/>
<path d="M662.054 291.982L661.779 291.554C668.575 287.163 674.563 281.636 679.481 275.215C681.575 272.556 683.416 269.707 684.978 266.706L685.429 266.925C683.87 269.953 682.029 272.828 679.932 275.512C674.961 281.984 668.914 287.555 662.054 291.982Z" fill="#1C96A0"/>
<path d="M211.442 224.607V244.152C209.924 244.152 208.469 244.753 207.395 245.824C206.321 246.894 205.716 248.346 205.714 249.862V252.563H192.3V286.844C192.298 287.594 192.445 288.337 192.732 289.03C193.019 289.724 193.44 290.354 193.971 290.884C194.502 291.415 195.133 291.835 195.827 292.122C196.522 292.408 197.266 292.555 198.017 292.553H152.081C150.564 292.553 149.11 291.952 148.038 290.881C146.966 289.81 146.363 288.358 146.363 286.844V224.607H211.442Z" fill="#FED45D"/>
<path d="M211.442 224.607V244.152C209.924 244.152 208.469 244.753 207.395 245.824C206.321 246.894 205.716 248.346 205.714 249.862V252.563H192.3V286.844C192.298 287.594 192.445 288.337 192.732 289.03C193.019 289.724 193.44 290.354 193.971 290.884C194.502 291.415 195.133 291.835 195.827 292.122C196.522 292.408 197.266 292.555 198.017 292.553H152.081C150.564 292.553 149.11 291.952 148.038 290.881C146.966 289.81 146.363 288.358 146.363 286.844V224.607H211.442Z" stroke="black" stroke-miterlimit="10"/>
<path d="M230.595 252.563V286.844C230.596 287.594 230.449 288.337 230.163 289.03C229.876 289.724 229.455 290.354 228.924 290.884C228.392 291.415 227.762 291.835 227.067 292.122C226.373 292.408 225.629 292.555 224.878 292.553H198.017C197.266 292.555 196.522 292.408 195.828 292.122C195.133 291.835 194.502 291.415 193.971 290.884C193.44 290.354 193.019 289.724 192.732 289.03C192.445 288.337 192.298 287.594 192.3 286.844V252.563H230.595Z" fill="#173588"/>
<path d="M217.137 249.862V252.563H205.691V249.862C205.694 248.346 206.299 246.894 207.373 245.824C208.447 244.753 209.902 244.152 211.42 244.152V244.152C212.93 244.163 214.376 244.769 215.442 245.838C216.508 246.907 217.109 248.353 217.115 249.862H217.137Z" stroke="black" stroke-miterlimit="10"/>
<path d="M217.138 260.974V252.563" stroke="black" stroke-miterlimit="10"/>
<path d="M205.691 260.974V252.563" stroke="black" stroke-miterlimit="10"/>
<path d="M160.261 233.018V211.903C160.261 209.022 161.406 206.26 163.446 204.224C165.485 202.187 168.251 201.043 171.135 201.043V201.043C174.019 201.043 176.784 202.187 178.824 204.224C180.863 206.26 182.009 209.022 182.009 211.903V224.607" stroke="black" stroke-miterlimit="10"/>
<path d="M160.261 224.607V292.553" stroke="black" stroke-miterlimit="10"/>
<path d="M176.368 233.018V211.903C176.368 209.022 177.514 206.26 179.553 204.224C181.592 202.187 184.358 201.043 187.242 201.043V201.043C190.126 201.043 192.892 202.187 194.931 204.224C196.97 206.26 198.116 209.022 198.116 211.903V233.018" stroke="black" stroke-miterlimit="10"/>
<path d="M230.595 252.563V286.844C230.596 287.594 230.449 288.337 230.163 289.03C229.876 289.724 229.455 290.354 228.924 290.884C228.392 291.415 227.762 291.835 227.067 292.122C226.373 292.408 225.629 292.555 224.878 292.553H198.017C197.266 292.555 196.522 292.408 195.828 292.122C195.133 291.835 194.502 291.415 193.971 290.884C193.44 290.354 193.019 289.724 192.732 289.03C192.445 288.337 192.298 287.594 192.3 286.844V252.563H230.595Z" stroke="black" stroke-miterlimit="10"/>
<path d="M411.922 127.31L401.839 137.379L391.746 127.31" stroke="#070707" stroke-miterlimit="10"/>
</g>
<defs>
<clipPath id="clip0_925_5430">
<rect width="724" height="293" fill="white" transform="translate(0 0.464844)"/>
</clipPath>
</defs>
</svg>
