<svg width="24" height="28" viewBox="0 0 24 28" fill="none" xmlns="http://www.w3.org/2000/svg">
<path fill-rule="evenodd" clip-rule="evenodd" d="M11.0775 2.44806C14.0875 3.29938 16.9861 3.24363 20.0392 3.34566C20.6355 3.36549 21.1312 2.82685 21.1491 2.14322C21.1671 1.45919 20.6965 0.888319 20.1003 0.868079C17.2052 0.771422 14.4503 0.849501 11.5911 0.041547C11.0128 -0.122027 10.4273 0.284851 10.2873 0.949059C10.1436 1.61285 10.4992 2.2849 11.0775 2.44806Z" fill="#FED45D"/>
<path fill-rule="evenodd" clip-rule="evenodd" d="M5.24363 9.68117C9.83406 15.4564 15.7391 20.898 21.7016 24.7013C22.2225 25.033 22.8798 24.817 23.1671 24.2189C23.4545 23.6208 23.2677 22.8657 22.7469 22.5341C16.9819 18.8563 11.2708 13.5936 6.83481 8.00915C6.43252 7.5044 5.75006 7.46929 5.31185 7.93067C4.87364 8.39205 4.84134 9.17642 5.24363 9.68117Z" fill="#FED45D"/>
<path fill-rule="evenodd" clip-rule="evenodd" d="M0.230019 11.1436C-0.527855 16.4257 0.765184 21.8702 2.59342 26.6732C2.83407 27.2998 3.46981 27.5857 4.01217 27.3118C4.55813 27.0375 4.80598 26.306 4.56892 25.6794C2.90232 21.3052 1.66672 16.358 2.35635 11.5471C2.45333 10.8722 2.05465 10.234 1.46918 10.1229C0.883712 10.0114 0.326998 10.4691 0.230019 11.1436Z" fill="#FED45D"/>
</svg>
