<svg width="44" height="52" viewBox="0 0 44 52" fill="none" xmlns="http://www.w3.org/2000/svg">
<path fill-rule="evenodd" clip-rule="evenodd" d="M27.7024 48.1493C23.1731 46.9017 18.4311 46.2724 13.831 45.6959C12.8403 45.575 11.9204 46.2495 11.8496 47.1997C11.7081 48.1507 12.4162 49.0203 13.3362 49.1412C17.7947 49.6962 22.3944 50.2901 26.7113 51.4911C27.6314 51.7516 28.6226 51.2153 28.9056 50.2929C29.1887 49.3711 28.6224 48.4105 27.7024 48.1493Z" fill="#FED45D"/>
<path fill-rule="evenodd" clip-rule="evenodd" d="M26.0731 30.4623C18.7837 23.1612 10.5744 16.7999 3.42662 9.30292C2.78969 8.60275 1.65736 8.56524 0.949662 9.21887C0.24196 9.8732 0.171466 10.9735 0.879168 11.6736C8.02696 19.1922 16.2363 25.5743 23.5256 32.897C24.2333 33.5805 25.3654 33.5902 26.0731 32.9178C26.71 32.2461 26.7808 31.1458 26.0731 30.4623Z" fill="#FED45D"/>
<path fill-rule="evenodd" clip-rule="evenodd" d="M39.7325 2.37943C39.9448 6.55824 40.1567 10.737 40.369 14.9166C40.369 15.8737 41.2187 16.6128 42.2095 16.5663C43.2002 16.519 43.9075 15.7043 43.9075 14.7464C43.6952 10.5606 43.4833 6.37555 43.271 2.19049C43.2002 1.23331 42.3509 0.499097 41.3601 0.551194C40.4401 0.60329 39.6617 1.42294 39.7325 2.37943Z" fill="#FED45D"/>
</svg>
