<svg xmlns="http://www.w3.org/2000/svg" width="170.083" height="55.373" viewBox="0 0 170.083 55.373">
  <g id="Group_284" data-name="Group 284" transform="translate(16278 102)">
    <path id="Path_592" data-name="Path 592" d="M85.775,31.67H47.454A8.526,8.526,0,0,0,38.93,40.2V78.519a8.525,8.525,0,0,0,8.524,8.524H85.775A8.526,8.526,0,0,0,94.3,78.519V40.2A8.525,8.525,0,0,0,85.775,31.67Z" transform="translate(-16316.93 -133.67)" fill="#e75553"/>
    <path id="Subtraction_6" data-name="Subtraction 6" d="M12.893,38.4a13.03,13.03,0,0,1-9.5-3.633A11.863,11.863,0,0,1,0,26.319a11.8,11.8,0,0,1,3.4-8.428,13.067,13.067,0,0,1,9.5-3.61,13.141,13.141,0,0,1,9.539,3.609,11.783,11.783,0,0,1,3.4,8.429,11.847,11.847,0,0,1-3.4,8.448A13.1,13.1,0,0,1,12.893,38.4Zm0-16.556c-2.448,0-4.092,1.8-4.092,4.473,0,2.745,1.606,4.519,4.092,4.519,2.513,0,4.136-1.774,4.136-4.519C17.029,23.6,15.405,21.844,12.893,21.844Zm.283-10.012c-.113,0-.226,0-.34,0A17.978,17.978,0,0,1,.027,6.162L6.321,0A9.4,9.4,0,0,0,13,2.951h.167A9.392,9.392,0,0,0,19.773.241l6.063,6.392A18,18,0,0,1,13.176,11.832Z" transform="translate(-16263.232 -94.503)" fill="#fff"/>
    <g id="Group_3" data-name="Group 3" transform="translate(-16213.524 -96.946)">
      <g id="Group_1" data-name="Group 1" transform="translate(0.015)">
        <path id="Path_2" data-name="Path 2" d="M434.32,89.783l-3.911-8.927h-3.1v8.927H418.72V61.43h15.133c6.631,0,10.2,4.42,10.2,9.735a9.139,9.139,0,0,1-5.1,8.587L444.1,89.785H434.32Zm1.021-18.662c0-1.53-1.36-2.211-2.805-2.211h-5.228v4.463h5.228C433.981,73.374,435.341,72.693,435.341,71.121Z" transform="translate(-418.72 -61.43)" fill="#212121"/>
        <path id="Path_3" data-name="Path 3" d="M597.806,128.013v-2.3a9.214,9.214,0,0,1-7.056,2.805c-4.761,0-6.8-2.848-6.8-6.376V107.48h7.65v11.392c0,2.084,1.105,2.89,2.975,2.89a4.035,4.035,0,0,0,3.231-1.615V107.48h7.652v20.533Z" transform="translate(-555.892 -99.66)" fill="#212121"/>
        <path id="Path_4" data-name="Path 4" d="M733.14,89.783V61.43h12.668c8.927,0,15.558,5.1,15.558,14.155s-6.631,14.2-15.515,14.2H733.14Zm19.511-14.2c0-3.826-2.211-6.674-6.8-6.674h-4.123V82.3h4.081A6.551,6.551,0,0,0,752.651,75.585Z" transform="translate(-679.749 -61.43)" fill="#212121"/>
        <path id="Path_5" data-name="Path 5" d="M904.62,115.236c0-5.74,4.25-10.756,11.52-10.756,7.312,0,11.562,5.016,11.562,10.756s-4.25,10.8-11.562,10.8C908.87,126.032,904.62,120.974,904.62,115.236Zm15.217,0c0-2.253-1.318-4-3.7-4-2.338,0-3.656,1.742-3.656,4,0,2.3,1.318,4.038,3.656,4.038C918.519,119.274,919.837,117.532,919.837,115.236Z" transform="translate(-822.11 -97.17)" fill="#212121"/>
      </g>
      <g id="Group_2" data-name="Group 2" transform="translate(0 35.58)">
        <path id="Path_6" data-name="Path 6" d="M427.56,281.337l-2.007-7.67-2.022,7.67h-1.944L418.63,270.96h2.022l2.022,7.981,2.146-7.981h1.447l2.146,7.981,2.022-7.981h2.038L429.5,281.337Z" transform="translate(-418.63 -270.96)" fill="#212121"/>
        <path id="Path_7" data-name="Path 7" d="M561.67,281.337V270.96h7.11v1.6h-5.29v2.676h5.181v1.6H563.49v2.894h5.29v1.6h-7.11Z" transform="translate(-537.38 -270.96)" fill="#212121"/>
        <path id="Path_8" data-name="Path 8" d="M671,281.337l-.762-2.007h-4.761l-.762,2.007h-2.07l4.077-10.377h2.272l4.075,10.377Zm-3.141-8.557-1.866,4.948h3.734Z" transform="translate(-621.205 -270.96)" fill="#212121"/>
        <path id="Path_9" data-name="Path 9" d="M784.34,281.337V270.96h1.82v8.774h4.575v1.6Z" transform="translate(-722.239 -270.96)" fill="#212121"/>
        <path id="Path_10" data-name="Path 10" d="M875.9,281.337v-8.774H872.76v-1.6h8.107v1.6h-3.143v8.776H875.9Z" transform="translate(-795.645 -270.96)" fill="#212121"/>
        <path id="Path_11" data-name="Path 11" d="M991.229,281.337v-4.542h-5.4v4.542h-1.82V270.96h1.82v4.232h5.4V270.96h1.82v10.377Z" transform="translate(-888.003 -270.96)" fill="#212121"/>
      </g>
    </g>
  </g>
</svg>
