<svg width="31" height="35" viewBox="0 0 31 35" fill="none" xmlns="http://www.w3.org/2000/svg">
<path fill-rule="evenodd" clip-rule="evenodd" d="M3.93214 15.2386C5.33229 14.6908 6.80568 13.9628 7.94189 12.9088C9.29134 11.657 9.84015 10.0447 10.2087 8.34752C10.6818 6.16712 10.8709 3.84445 11.4446 1.66051C11.6571 0.849484 12.0659 0.542914 12.2413 0.40686C12.6847 0.0631898 13.1329 -0.028673 13.5545 0.00578235C14.0542 0.0455385 14.7407 0.25314 15.1921 1.17283C15.2565 1.30447 15.3401 1.50503 15.3964 1.77979C15.4375 1.98122 15.464 2.61112 15.5075 2.87086C15.6161 3.51049 15.707 4.15015 15.7923 4.79331C16.0764 6.93396 16.2398 8.75212 17.137 10.7187C18.3545 13.3886 19.5744 15.0221 21.2288 15.7457C22.8285 16.4454 24.7412 16.3138 27.185 15.7651C27.4176 15.7033 27.6477 15.6503 27.8754 15.607C28.9529 15.4002 29.9829 16.1768 30.1945 17.3554C30.4062 18.533 29.7214 19.6807 28.6536 19.9395C28.4307 19.9934 28.211 20.0446 27.9937 20.0915C24.6913 20.9891 20.8683 24.1926 18.6465 26.9976C17.9618 27.8625 16.9591 30.2805 15.9364 31.8231C15.1816 32.961 14.3335 33.711 13.6213 33.9761C13.1441 34.1546 12.7418 34.1272 12.4095 34.0371C11.9267 33.9063 11.526 33.6192 11.2186 33.1624C11.0512 32.9124 10.8959 32.5775 10.8218 32.1499C10.7864 31.9441 10.7824 31.4211 10.7832 31.1843C10.5748 30.3972 10.3197 29.6285 10.1338 28.8343C9.69046 26.9392 8.82059 25.7395 7.78738 24.1545C6.82096 22.6712 5.78295 21.7391 4.2613 20.9953C4.06335 20.9423 2.46605 20.5129 1.90197 20.2664C1.07798 19.9051 0.685273 19.2999 0.542845 18.9739C0.300636 18.4208 0.275713 17.9376 0.323993 17.5347C0.39561 16.9401 0.638625 16.4313 1.06993 16.0205C1.33709 15.7651 1.73621 15.5169 2.27052 15.3958C2.68332 15.3013 3.77845 15.2465 3.93214 15.2386ZM13.3027 12.1499C13.3767 12.3311 13.4556 12.5131 13.5392 12.6968C15.3224 16.6071 17.3164 18.7901 19.7401 19.8494L19.8214 19.8839C18.2 21.2055 16.7322 22.6827 15.6105 24.0989C15.1486 24.682 14.5371 25.8932 13.8764 27.1354C13.2761 24.993 12.2944 23.4787 11.06 21.5837C10.1169 20.1374 9.1288 19.049 7.91454 18.162C8.85682 17.631 9.75564 17.0091 10.5386 16.2828C11.8422 15.0734 12.704 13.6722 13.3027 12.1499Z" fill="#434343"/>
</svg>
