<svg width="29" height="34" viewBox="0 0 29 34" fill="none" xmlns="http://www.w3.org/2000/svg">
<path fill-rule="evenodd" clip-rule="evenodd" d="M11.7009 7.3545C11.6186 6.81842 11.5566 6.28843 11.5166 5.75838C11.4562 4.9633 11.4935 4.16215 11.4721 3.36707C11.4628 3.02976 11.426 2.15037 11.4408 2.02388C11.5753 0.921617 12.3856 0.752944 12.6226 0.722827C12.7372 0.704757 13.9145 0.560262 14.1685 1.99381C14.4802 3.74659 14.58 5.5114 14.4697 7.24009C14.727 8.70978 15.167 10.1734 15.748 11.4985C18.0599 16.7689 22.4652 17.2809 27.2382 17.2327C27.9722 17.2207 28.5818 17.8531 28.6202 18.6542C28.6586 19.4614 28.1122 20.1601 27.3814 20.2323C24.7135 20.5154 19.98 22.8646 18.3435 25.31C18.0012 25.822 17.802 27.0568 17.5387 28.2675C17.1711 29.948 16.7339 31.6104 16.244 32.3091C16.1705 32.4175 15.2767 33.5258 15.0101 33.6885C14.3693 34.074 13.8564 33.8511 13.5651 33.6463C13.2738 33.4415 12.944 33.0379 12.8124 32.3693C12.6747 31.6706 12.791 30.237 12.7696 29.9299C12.6917 28.8155 12.4887 26.6291 12.0745 24.7498C11.8512 23.7379 11.6131 22.8043 11.2192 22.3405C9.76099 20.6239 7.42938 20.8769 5.46589 21.16C5.2404 21.1901 5.01493 21.2262 4.78999 21.2563C3.99066 21.5153 3.14194 21.7081 2.24495 21.8225C0.890421 21.9972 0.667699 20.6299 0.655629 20.5395C0.630393 20.3408 0.53657 19.3168 1.55754 18.9072C1.66891 18.8651 2.49074 18.6663 2.80729 18.588C3.24838 18.4796 3.69439 18.3953 4.14206 18.317C8.76634 16.7389 11.2779 12.3057 11.7009 7.3545ZM13.288 12.8297C15.0337 16.7931 17.683 18.7085 20.8232 19.5758H20.8227C18.862 20.7022 17.0784 22.1117 16.1331 23.5271C15.7743 24.0632 15.4452 25.1414 15.1484 26.352C14.9876 25.2257 14.7704 24.027 14.4835 23.003C14.157 21.8345 13.7176 20.8648 13.2271 20.2866C12.2802 19.1723 11.0919 18.5519 9.81419 18.2447C11.3437 16.7569 12.5035 14.9018 13.288 12.8297Z" fill="#434343"/>
</svg>
