<svg width="195" height="19" viewBox="0 0 195 19" fill="none" xmlns="http://www.w3.org/2000/svg">
<path fill-rule="evenodd" clip-rule="evenodd" d="M116.425 8.8773C90.5951 9.18755 64.7524 10.4183 39.0351 12.6183C26.8082 13.6644 12.6092 13.5337 0.750626 17.1003C0.159746 17.2798 0.272277 17.8182 0.285067 17.8721C0.310646 17.9823 0.418106 18.349 0.888764 18.3669C0.939922 18.3695 1.30056 18.3182 1.43869 18.3002C4.94049 17.8387 8.4295 17.3003 11.9339 16.8644C24.0328 15.3542 36.1676 14.2132 48.3203 13.2132C64.4506 11.885 80.7189 11.1773 96.8927 10.6234C105.746 10.3209 114.811 10.7234 123.692 10.0978C126.953 10.0798 130.215 10.0773 133.476 10.0876C147.11 10.1363 160.728 10.6542 174.339 11.3645C178.715 11.5927 182.054 11.8388 186.338 12.0055C187.965 12.0696 190.546 12.1132 192.342 12.1414C192.605 12.1465 193.278 12.1516 193.557 12.1542C193.585 12.1593 193.613 12.1593 193.644 12.1593C193.751 12.1593 193.802 12.1516 193.812 12.1516C194.421 12.0619 194.365 11.485 194.35 11.3978C194.347 11.3798 194.255 10.8927 193.73 10.8747C193.605 10.8696 192.707 10.8645 192.362 10.8594C190.577 10.8312 188.006 10.7876 186.387 10.726C182.11 10.5594 178.774 10.3132 174.405 10.085C160.774 9.37478 147.135 8.85427 133.481 8.80556C131.813 8.80043 130.143 8.79786 128.475 8.80042C128.419 8.65427 128.294 8.49017 128.017 8.41838C127.759 8.35172 125.91 8.29275 125.196 8.23378C119.914 7.79788 120.07 7.81839 114.258 7.46199C105.457 6.92097 104.116 6.79784 94.9614 6.56964C78.3324 6.15426 61.6957 6.18763 45.0641 6.22866C36.8531 6.25173 28.0615 6.80813 19.7253 5.76968C22.4725 5.44661 25.2299 5.21072 27.9823 4.94149C37.3801 4.02356 46.7855 3.4543 56.2217 3.05431C78.8568 2.09535 101.528 1.71333 124.155 3.02101C119.338 3.06716 114.524 3.17482 109.708 3.24405C90.1014 3.53122 70.3056 3.31587 50.7401 4.80559C50.3896 4.83379 50.1262 5.14146 50.1518 5.49274C50.1774 5.84658 50.4868 6.1107 50.8373 6.08505C70.3772 4.59533 90.1449 4.81326 109.726 4.52608C117.001 4.42096 124.273 4.23123 131.547 4.28764C134.044 4.30815 136.54 4.40048 139.037 4.43124C139.531 4.43894 140.802 4.53637 140.984 4.49535C141.385 4.4056 141.472 4.10815 141.498 3.962C141.51 3.87482 141.551 3.37226 140.938 3.19278C136.748 1.96716 129.015 2.02357 124.943 1.78254C102.037 0.423588 79.0844 0.80306 56.168 1.77228C46.7088 2.17484 37.2803 2.74666 27.8569 3.66716C24.5649 3.98767 21.2652 4.26458 17.9859 4.69022C17.4564 4.75945 16.267 4.85946 15.6915 4.96459C15.451 5.00818 15.2771 5.06967 15.2003 5.11326C14.901 5.28249 14.8473 5.52865 14.8473 5.69531C14.8448 5.82351 14.8985 6.27479 15.5252 6.39786C25.0739 8.2722 35.4642 7.53633 45.0666 7.51069C61.688 7.46967 78.3119 7.43629 94.9307 7.85167C104.063 8.07987 105.398 8.20044 114.182 8.74146C115.049 8.79274 115.783 8.83884 116.425 8.8773Z" fill="#202020"/>
</svg>
