<svg width="285" height="244" viewBox="0 0 285 244" fill="none" xmlns="http://www.w3.org/2000/svg">
<g clip-path="url(#clip0_925_5587)">
<path d="M258.695 195.924V97.5454H160.061C160.061 123.637 170.452 148.66 188.95 167.11C207.447 185.559 232.535 195.924 258.695 195.924V195.924Z" fill="#7CC8C2"/>
<path d="M10.4229 243.499C10.4229 162.472 71.4134 96.7871 146.673 96.7871C221.933 96.7871 282.907 162.472 282.907 243.499" fill="#61ADE0"/>
<path d="M122.509 243.192C122.509 228.137 128.505 213.698 139.178 203.053C149.851 192.407 164.327 186.426 179.422 186.426C194.516 186.426 208.992 192.407 219.665 203.053C230.339 213.698 236.335 228.137 236.335 243.192" fill="#7CC8C2"/>
<path d="M92.255 205.008C103.916 205.008 113.368 195.58 113.368 183.949C113.368 172.319 103.916 162.891 92.255 162.891C80.5944 162.891 71.1416 172.319 71.1416 183.949C71.1416 195.58 80.5944 205.008 92.255 205.008Z" fill="#FFE4B6"/>
<path d="M100.881 110.718L90.7119 128.288H111.006L100.881 110.718Z" fill="#1C96A0"/>
<path d="M12.5895 193.735C17.5889 193.735 21.6418 189.693 21.6418 184.706C21.6418 179.72 17.5889 175.677 12.5895 175.677C7.58999 175.677 3.53711 179.72 3.53711 184.706C3.53711 189.693 7.58999 193.735 12.5895 193.735Z" fill="#173588"/>
<path d="M232.279 238.167C237.081 238.167 240.974 234.284 240.974 229.495C240.974 224.705 237.081 220.822 232.279 220.822C227.477 220.822 223.584 224.705 223.584 229.495C223.584 234.284 227.477 238.167 232.279 238.167Z" fill="#FED45D"/>
<path d="M171.834 65.6515C180.465 65.6515 187.462 58.6728 187.462 50.064C187.462 41.4553 180.465 34.4766 171.834 34.4766C163.203 34.4766 156.206 41.4553 156.206 50.064C156.206 58.6728 163.203 65.6515 171.834 65.6515Z" fill="#FFE4B6"/>
<path d="M171.851 34.4766C168.76 34.4731 165.737 35.3844 163.164 37.0951C160.592 38.8058 158.586 41.239 157.401 44.0869C156.215 46.9348 155.903 50.0695 156.504 53.0943C157.105 56.1191 158.592 58.8982 160.777 61.0799C162.962 63.2616 165.747 64.7479 168.779 65.3507C171.811 65.9536 174.954 65.6459 177.811 64.4666C180.667 63.2874 183.109 61.2895 184.827 58.7258C186.545 56.1621 187.462 53.1477 187.462 50.064C187.462 45.933 185.818 41.9709 182.891 39.0482C179.964 36.1255 175.993 34.4812 171.851 34.4766V34.4766ZM171.851 61.0849C169.666 61.0849 167.53 60.4385 165.713 59.2275C163.896 58.0165 162.479 56.2953 161.643 54.2815C160.807 52.2677 160.588 50.0518 161.014 47.914C161.441 45.7762 162.493 43.8124 164.038 42.2711C165.584 40.7298 167.552 39.6802 169.696 39.255C171.839 38.8297 174.061 39.048 176.08 39.8821C178.099 40.7163 179.825 42.1288 181.039 43.9412C182.253 45.7536 182.901 47.8843 182.901 50.064C182.901 52.9869 181.737 55.7901 179.665 57.8569C177.592 59.9238 174.782 61.0849 171.851 61.0849Z" fill="#FED45D"/>
<path d="M171.852 61.5204C169.58 61.5204 167.359 60.8485 165.471 59.5898C163.582 58.331 162.11 56.5418 161.24 54.4486C160.371 52.3553 160.144 50.0519 160.587 47.8297C161.03 45.6075 162.124 43.5663 163.73 41.9642C165.337 40.3621 167.383 39.271 169.611 38.829C171.839 38.387 174.148 38.6139 176.247 39.4809C178.346 40.348 180.14 41.8163 181.402 43.7002C182.664 45.5841 183.337 47.7989 183.337 50.0646C183.333 53.1015 182.121 56.0126 179.968 58.16C177.815 60.3074 174.896 61.5158 171.852 61.5204V61.5204ZM171.852 39.4787C169.753 39.4787 167.701 40.0996 165.955 41.2628C164.21 42.426 162.85 44.0793 162.046 46.0136C161.243 47.9479 161.033 50.0764 161.442 52.1298C161.852 54.1833 162.863 56.0695 164.347 57.55C165.831 59.0305 167.722 60.0387 169.781 60.4472C171.84 60.8556 173.974 60.646 175.913 59.8448C177.853 59.0435 179.51 57.6867 180.676 55.9459C181.843 54.205 182.465 52.1583 182.465 50.0646C182.463 47.2578 181.344 44.5666 179.354 42.5818C177.364 40.5971 174.666 39.481 171.852 39.4787V39.4787Z" fill="black"/>
<path d="M135.886 34.4854C132.797 34.4854 129.777 35.399 127.208 37.1108C124.64 38.8227 122.638 41.2557 121.456 44.1024C120.273 46.949 119.964 50.0814 120.567 53.1034C121.169 56.1254 122.657 58.9012 124.841 61.08C127.026 63.2587 129.809 64.7424 132.839 65.3436C135.869 65.9447 139.009 65.6361 141.863 64.457C144.717 63.2779 147.157 61.2811 148.873 58.7192C150.589 56.1573 151.505 53.1453 151.505 50.0641C151.505 45.9324 149.859 41.9699 146.93 39.0483C144.001 36.1267 140.028 34.4854 135.886 34.4854V34.4854ZM135.886 61.0763C133.7 61.078 131.562 60.4329 129.744 59.2225C127.925 58.0122 126.508 56.2911 125.67 54.2769C124.833 52.2628 124.613 50.0461 125.04 47.9075C125.466 45.7689 126.518 43.8043 128.064 42.2625C129.61 40.7207 131.579 39.6709 133.724 39.2459C135.868 38.821 138.09 39.04 140.11 39.8752C142.129 40.7104 143.855 42.1243 145.068 43.938C146.282 45.7517 146.928 47.8837 146.927 50.0641C146.927 52.9847 145.763 55.7857 143.693 57.8509C141.622 59.916 138.814 61.0763 135.886 61.0763Z" fill="#FED45D"/>
<path d="M135.886 61.076C141.984 61.076 146.927 56.1457 146.927 50.0639C146.927 43.9821 141.984 39.0518 135.886 39.0518C129.789 39.0518 124.846 43.9821 124.846 50.0639C124.846 56.1457 129.789 61.076 135.886 61.076Z" fill="white"/>
<path d="M135.226 55.8811C133.717 55.799 132.289 55.1732 131.208 54.1201L132.529 52.2461C133.252 53.0019 134.196 53.51 135.226 53.6976V51.0916C133.477 50.6733 131.581 50.0082 131.581 47.7075C131.581 46.0009 132.936 44.5494 135.226 44.3109V42.7256H136.819V44.3319C138.105 44.4451 139.318 44.9738 140.275 45.8377L138.937 47.6281C138.334 47.0921 137.606 46.7141 136.819 46.5279V48.8621C138.581 49.3013 140.548 49.9789 140.548 52.2963C140.548 54.1703 139.29 55.6427 136.819 55.8811V57.4037H135.226V55.8811ZM135.226 48.473V46.4275C134.479 46.5279 134.056 46.9337 134.056 47.5109C134.056 48.0004 134.53 48.2555 135.226 48.473V48.473ZM136.819 51.4681V53.7311C137.683 53.5638 138.078 53.0743 138.078 52.5305C138.078 51.9868 137.562 51.7023 136.819 51.4681V51.4681Z" fill="#173588"/>
<path d="M171.199 55.8811C169.69 55.799 168.263 55.1732 167.182 54.1201L168.503 52.2461C169.225 53.0019 170.169 53.51 171.199 53.6976V51.0916C169.451 50.6733 167.555 50.0082 167.555 47.7075C167.555 46.0009 168.91 44.5494 171.199 44.3109V42.7256H172.793V44.3319C174.079 44.4451 175.292 44.9738 176.249 45.8377L174.911 47.6281C174.307 47.0921 173.579 46.7141 172.793 46.5279V48.8621C174.554 49.3013 176.521 49.9789 176.521 52.2963C176.521 54.1703 175.263 55.6427 172.793 55.8811V57.4037H171.199V55.8811ZM171.199 48.473V46.4275C170.453 46.5279 170.029 46.9337 170.029 47.5109C170.029 48.0004 170.503 48.2555 171.199 48.473V48.473ZM172.793 51.4681V53.7311C173.657 53.5638 174.051 53.0743 174.051 52.5305C174.051 51.9868 173.535 51.7023 172.793 51.4681V51.4681Z" fill="#173588"/>
<path d="M135.887 61.5116C133.614 61.5133 131.393 60.8427 129.503 59.5846C127.612 58.3265 126.139 56.5374 125.269 54.4438C124.398 52.3502 124.17 50.0461 124.613 47.8231C125.056 45.6001 126.15 43.5581 127.757 41.9554C129.363 40.3528 131.411 39.2615 133.64 38.8198C135.868 38.3781 138.178 38.6056 140.277 39.4738C142.376 40.3419 144.17 41.8116 145.432 43.6968C146.693 45.582 147.365 47.7981 147.364 50.0645C147.359 53.0991 146.148 56.008 143.997 58.1537C141.846 60.2995 138.929 61.507 135.887 61.5116ZM135.887 39.4786C133.787 39.4769 131.734 40.0963 129.988 41.2585C128.241 42.4206 126.88 44.0733 126.075 46.0075C125.27 47.9416 125.059 50.0704 125.468 52.1244C125.876 54.1785 126.886 56.0655 128.37 57.5468C129.854 59.0282 131.745 60.0372 133.804 60.4464C135.863 60.8556 137.998 60.6464 139.938 59.8455C141.877 59.0445 143.536 57.6877 144.702 55.9467C145.869 54.2056 146.491 52.1586 146.491 50.0645C146.489 47.2592 145.371 44.5693 143.383 42.5848C141.395 40.6003 138.699 39.4832 135.887 39.4786V39.4786Z" fill="black"/>
<path d="M154.409 4.91065C151.32 4.91065 148.3 5.82433 145.732 7.53614C143.163 9.24796 141.161 11.681 139.979 14.5277C138.797 17.3743 138.487 20.5067 139.09 23.5287C139.693 26.5507 141.18 29.3265 143.365 31.5053C145.549 33.684 148.332 35.1677 151.362 35.7688C154.392 36.37 157.532 36.0614 160.387 34.8823C163.241 33.7032 165.68 31.7064 167.396 29.1445C169.112 26.5826 170.029 23.5706 170.029 20.4894C170.03 18.4433 169.626 16.4169 168.842 14.5263C168.057 12.6357 166.907 10.9179 165.456 9.47101C164.006 8.02416 162.283 6.87668 160.388 6.09418C158.492 5.31168 156.461 4.9095 154.409 4.91065V4.91065ZM154.409 31.5015C152.224 31.5015 150.087 30.855 148.27 29.6436C146.452 28.4322 145.036 26.7105 144.2 24.6962C143.364 22.6819 143.146 20.4655 143.573 18.3275C144 16.1894 145.053 14.2257 146.599 12.6847C148.145 11.1438 150.115 10.0949 152.259 9.67059C154.403 9.24634 156.625 9.46583 158.644 10.3013C160.663 11.1368 162.388 12.5507 163.601 14.3642C164.814 16.1777 165.46 18.3093 165.459 20.4894C165.459 21.9363 165.173 23.369 164.617 24.7056C164.062 26.0422 163.248 27.2566 162.222 28.2792C161.196 29.3019 159.978 30.1129 158.637 30.6658C157.297 31.2187 155.86 31.5027 154.409 31.5015V31.5015Z" fill="#FED45D"/>
<path d="M154.366 31.5023C160.464 31.5023 165.407 26.572 165.407 20.4902C165.407 14.4083 160.464 9.47803 154.366 9.47803C148.268 9.47803 143.325 14.4083 143.325 20.4902C143.325 26.572 148.268 31.5023 154.366 31.5023Z" fill="white"/>
<path d="M154.409 31.9369C152.137 31.9369 149.916 31.2648 148.027 30.0056C146.138 28.7465 144.666 26.9568 143.797 24.8631C142.928 22.7693 142.701 20.4655 143.145 18.243C143.589 16.0206 144.684 13.9794 146.291 12.3776C147.898 10.7759 149.945 9.68549 152.174 9.24446C154.403 8.80342 156.712 9.03152 158.811 9.89991C160.909 10.7683 162.702 12.238 163.963 14.123C165.224 16.008 165.897 18.2237 165.895 20.4898C165.89 23.5259 164.678 26.4361 162.525 28.5821C160.372 30.7281 157.453 31.9346 154.409 31.9369ZM154.409 9.90393C152.31 9.90393 150.258 10.5248 148.513 11.688C146.767 12.8512 145.407 14.5045 144.604 16.4388C143.801 18.3731 143.59 20.5016 144 22.555C144.409 24.6085 145.42 26.4947 146.905 27.9752C148.389 29.4557 150.28 30.4639 152.339 30.8723C154.398 31.2808 156.532 31.0712 158.471 30.2699C160.41 29.4687 162.068 28.1119 163.234 26.3711C164.4 24.6302 165.023 22.5835 165.023 20.4898C165.02 17.683 163.901 14.9918 161.912 13.007C159.922 11.0223 157.223 9.90623 154.409 9.90393V9.90393Z" fill="black"/>
<path d="M153.757 26.2976C152.248 26.2155 150.82 25.5897 149.739 24.5366L151.06 22.6626C151.783 23.4184 152.727 23.9265 153.757 24.1141V21.5081C152.008 21.0898 150.113 20.4247 150.113 18.124C150.113 16.4174 151.467 14.9659 153.757 14.7274V13.1421H155.351V14.7484C156.636 14.8616 157.85 15.3903 158.806 16.2542L157.469 18.0446C156.865 17.5086 156.137 17.1306 155.351 16.9444V19.2786C157.112 19.7178 159.079 20.3954 159.079 22.7128C159.079 24.5868 157.821 26.0592 155.351 26.2976V27.8203H153.757V26.2976ZM153.757 18.8895V16.844C153.01 16.9444 152.587 17.3502 152.587 17.9274C152.587 18.4169 153.061 18.672 153.757 18.8895V18.8895ZM155.351 21.8846V24.1476C156.215 23.9803 156.609 23.4908 156.609 22.9471C156.609 22.4033 156.093 22.1188 155.351 21.8846V21.8846Z" fill="#173588"/>
<path d="M97.8285 143.937V172.459C95.6127 172.461 93.488 173.34 91.9203 174.902C90.3527 176.464 89.4698 178.582 89.4651 180.792V184.724H69.8604V234.739C69.8581 235.835 70.0729 236.921 70.4924 237.934C70.9119 238.947 71.5278 239.868 72.3049 240.643C73.082 241.418 74.0048 242.032 75.0206 242.451C76.0363 242.869 77.1249 243.083 78.2238 243.081H11.0725C9.97457 243.081 8.88745 242.865 7.87324 242.446C6.85904 242.027 5.93764 241.412 5.16172 240.637C4.3858 239.862 3.77058 238.943 3.35124 237.931C2.93189 236.919 2.71663 235.834 2.71778 234.739V143.937H97.8285Z" fill="#FED45D"/>
<path d="M78.2236 243.498H11.0722C8.74978 243.485 6.52675 242.557 4.88694 240.916C3.24713 239.276 2.32326 237.056 2.31641 234.739V143.467H98.2469V172.859H97.8109C95.7053 172.854 93.684 173.684 92.191 175.165C90.6981 176.646 89.8556 178.657 89.8487 180.757V185.106H70.2963V234.687C70.2928 235.728 70.4953 236.759 70.892 237.722C71.2888 238.685 71.872 239.56 72.6083 240.298C73.3447 241.036 74.2197 241.621 75.1832 242.021C76.1468 242.421 77.18 242.628 78.2236 242.629V243.498ZM3.1885 144.337V234.739C3.19312 236.832 4.02916 238.837 5.51344 240.316C6.99772 241.795 9.0092 242.626 11.1071 242.629H74.4038C72.9126 241.911 71.6544 240.788 70.7737 239.39C69.8929 237.991 69.4252 236.373 69.4242 234.722V184.271H89.0027V180.792C89.007 178.536 89.8815 176.367 91.445 174.737C93.0086 173.106 95.1412 172.138 97.401 172.033V144.337H3.1885Z" fill="black"/>
<path d="M125.814 184.723V234.739C125.816 235.834 125.602 236.919 125.183 237.932C124.764 238.944 124.149 239.864 123.373 240.639C122.596 241.414 121.675 242.029 120.66 242.448C119.645 242.867 118.557 243.082 117.459 243.08H78.215C77.116 243.083 76.0275 242.869 75.0117 242.45C73.996 242.032 73.0731 241.417 72.296 240.642C71.519 239.867 70.903 238.947 70.4835 237.934C70.064 236.921 69.8493 235.835 69.8516 234.739V184.723H125.814Z" fill="#173588"/>
<path d="M106.583 185.158H89.002V180.809C89.0029 179.075 89.5192 177.38 90.4858 175.939C91.4523 174.498 92.8256 173.375 94.4321 172.712C96.0385 172.049 97.806 171.876 99.5109 172.215C101.216 172.554 102.782 173.39 104.011 174.616C104.839 175.422 105.498 176.385 105.947 177.449C106.396 178.512 106.627 179.655 106.627 180.809L106.583 185.158ZM89.8653 184.289H105.711V180.809C105.707 178.728 104.881 176.732 103.412 175.254C101.943 173.776 99.9491 172.934 97.8624 172.911C95.7569 172.907 93.7356 173.736 92.2426 175.217C90.7496 176.698 89.9071 178.709 89.9002 180.809L89.8653 184.289Z" fill="black"/>
<path d="M106.584 184.723H105.712V196.988H106.584V184.723Z" fill="black"/>
<path d="M89.8662 184.723H88.9941V196.988H89.8662V184.723Z" fill="black"/>
<path d="M23.4903 156.21H22.6182V125.409C22.6182 121.091 24.3382 116.949 27.3998 113.895C30.4615 110.842 34.614 109.126 38.9438 109.126C43.2736 109.126 47.4261 110.842 50.4878 113.895C53.5494 116.949 55.2694 121.091 55.2694 125.409V143.937H54.3973V125.409C54.3973 121.321 52.7692 117.401 49.8711 114.51C46.973 111.62 43.0423 109.996 38.9438 109.996C34.8453 109.996 30.9146 111.62 28.0165 114.51C25.1184 117.401 23.4903 121.321 23.4903 125.409V156.21Z" fill="black"/>
<path d="M23.4903 143.937H22.6182V243.081H23.4903V143.937Z" fill="black"/>
<path d="M78.7905 156.21H77.9184V125.409C77.9673 123.354 77.6039 121.311 76.8495 119.399C76.0951 117.486 74.9649 115.744 73.5255 114.274C72.0861 112.804 70.3664 111.635 68.4677 110.838C66.569 110.04 64.5295 109.629 62.4692 109.629C60.4089 109.629 58.3694 110.04 56.4707 110.838C54.5719 111.635 52.8523 112.804 51.4129 114.274C49.9734 115.744 48.8433 117.486 48.0889 119.399C47.3345 121.311 46.9711 123.354 47.02 125.409V156.21H46.1479V125.409C46.0976 123.239 46.4826 121.082 47.2802 119.063C48.0779 117.044 49.272 115.204 50.7926 113.652C52.3131 112.1 54.1294 110.867 56.1346 110.025C58.1398 109.183 60.2935 108.749 62.4692 108.749C64.6449 108.749 66.7986 109.183 68.8038 110.025C70.809 110.867 72.6252 112.1 74.1458 113.652C75.6663 115.204 76.8605 117.044 77.6581 119.063C78.4558 121.082 78.8407 123.239 78.7905 125.409V156.21Z" fill="black"/>
<path d="M117.459 243.499H78.2145C75.8821 243.494 73.6466 242.568 71.9974 240.923C70.3482 239.278 69.4196 237.048 69.415 234.722V184.271H126.241V234.722C126.239 237.046 125.313 239.274 123.667 240.919C122.021 242.564 119.789 243.492 117.459 243.499V243.499ZM70.2959 185.159V234.739C70.3028 236.833 71.1407 238.838 72.6264 240.317C74.1121 241.795 76.1245 242.627 78.2232 242.629H117.468C119.568 242.627 121.583 241.792 123.067 240.31C124.552 238.827 125.386 236.818 125.386 234.722V185.141L70.2959 185.159Z" fill="black"/>
<path d="M190.017 215.054C190.272 214.208 190.323 213.314 190.166 212.444C190.121 212.097 189.965 211.774 189.721 211.522C189.532 211.375 189.316 211.265 189.084 211.201C186.006 210.096 182.509 211.244 180.041 213.227C177.922 215.135 176.102 217.348 174.642 219.795L172.131 223.561L171.991 227.719C174.756 226.136 177.791 225.109 180.712 223.787C184.392 222.126 187.89 219.881 189.642 216.106C189.797 215.767 189.922 215.415 190.017 215.054V215.054Z" fill="#173588"/>
<path d="M173.125 224.63C177.337 221.621 182.3 219.603 185.779 215.671C185.884 215.549 185.718 215.375 185.605 215.497C182.047 219.359 177.25 221.481 173.055 224.526C172.994 224.569 173.055 224.674 173.125 224.63Z" fill="#173588"/>
<path d="M182.796 214.661C181.492 216.225 180.572 218.072 180.11 220.054C180.11 220.159 180.259 220.254 180.311 220.133C181.064 218.28 181.992 216.503 183.084 214.827C183.215 214.653 182.918 214.487 182.796 214.661V214.661Z" fill="#173588"/>
<path d="M178.166 217.785C177.782 218.505 177.439 219.245 177.137 220.003C176.731 220.706 176.472 221.485 176.378 222.291C176.38 222.323 176.391 222.354 176.409 222.381C176.428 222.407 176.454 222.428 176.484 222.441C176.514 222.453 176.547 222.457 176.579 222.452C176.611 222.447 176.641 222.434 176.666 222.412C177.107 221.837 177.425 221.176 177.599 220.473C177.934 219.636 178.225 218.782 178.471 217.915C178.478 217.877 178.471 217.837 178.452 217.802C178.433 217.768 178.403 217.74 178.366 217.725C178.33 217.71 178.289 217.708 178.251 217.719C178.213 217.729 178.18 217.753 178.157 217.785H178.166Z" fill="#173588"/>
<path d="M175.27 223.343C175.896 223.529 176.545 223.619 177.198 223.613C177.766 223.7 178.347 223.647 178.889 223.456C178.923 223.442 178.953 223.419 178.973 223.389C178.994 223.359 179.005 223.323 179.005 223.286C179.005 223.25 178.994 223.214 178.973 223.184C178.953 223.154 178.923 223.13 178.889 223.117C178.343 223.034 177.788 223.034 177.241 223.117C176.613 223.117 175.977 223.038 175.358 223.073C175.321 223.075 175.286 223.089 175.259 223.114C175.232 223.138 175.215 223.172 175.21 223.208C175.204 223.244 175.212 223.28 175.231 223.311C175.25 223.342 175.279 223.366 175.314 223.378L175.27 223.343Z" fill="#173588"/>
<path d="M179.447 220.872C179.868 221.142 180.338 221.326 180.831 221.411C181.324 221.496 181.829 221.481 182.316 221.368C182.43 221.324 182.456 221.133 182.316 221.098C181.927 221.038 181.533 221.009 181.139 221.011C180.589 220.96 180.046 220.855 179.517 220.698C179.495 220.694 179.473 220.698 179.454 220.708C179.434 220.719 179.419 220.736 179.411 220.756C179.403 220.777 179.402 220.799 179.409 220.82C179.415 220.841 179.429 220.86 179.447 220.872V220.872Z" fill="#173588"/>
<path d="M166.375 209.6C165.302 207.651 163.715 205.546 161.482 205.503C160.561 205.562 159.681 205.907 158.965 206.488C158.249 207.07 157.733 207.859 157.488 208.747C157.04 210.545 157.155 212.437 157.819 214.166C158.878 217.308 160.694 220.141 163.11 222.416C165.525 224.691 168.464 226.339 171.668 227.214L171.921 226.762C171.171 220.744 169.29 214.922 166.375 209.6V209.6Z" fill="#173588"/>
<path d="M160.401 209.486C165.276 213.418 166.977 220.455 169.846 225.787C169.916 225.926 170.16 225.831 170.099 225.683C168.791 222.525 167.221 219.446 165.738 216.376C164.421 213.653 163.017 211.156 160.593 209.312C160.471 209.217 160.296 209.382 160.418 209.486H160.401Z" fill="#173588"/>
<path d="M164.675 209.104C164.788 209.972 164.762 210.853 164.596 211.713C164.361 212.368 164.177 213.04 164.047 213.723C164.048 213.75 164.058 213.777 164.073 213.799C164.089 213.822 164.111 213.839 164.136 213.85C164.162 213.861 164.19 213.865 164.217 213.861C164.244 213.856 164.27 213.845 164.291 213.827C165.364 212.783 165.163 210.4 164.98 209.06C164.98 208.895 164.657 208.93 164.675 209.104V209.104Z" fill="#173588"/>
<path d="M160.689 215.192C162.067 216.349 163.924 217.715 165.791 217.802C165.824 217.8 165.855 217.788 165.881 217.767C165.907 217.746 165.925 217.718 165.934 217.686C165.943 217.655 165.941 217.621 165.93 217.59C165.918 217.559 165.897 217.533 165.869 217.515C165.049 217.062 164.125 216.836 163.253 216.445C162.397 216.049 161.582 215.572 160.82 215.018C160.706 214.94 160.558 215.122 160.671 215.209L160.689 215.192Z" fill="#173588"/>
<path d="M166.427 213.705C166.466 214.322 166.466 214.941 166.427 215.558C166.302 216.167 166.247 216.789 166.261 217.411C166.261 217.541 166.462 217.637 166.549 217.489C167.124 216.41 166.863 214.827 166.706 213.67C166.706 213.531 166.453 213.566 166.462 213.67L166.427 213.705Z" fill="#173588"/>
<path d="M173.099 180.956H171.128V243.368H173.099V180.956Z" fill="black"/>
<path d="M171.921 187.028C171.947 187.028 171.971 187.018 171.989 187C172.007 186.982 172.017 186.957 172.017 186.932C172.017 186.906 172.007 186.882 171.989 186.864C171.971 186.846 171.947 186.836 171.921 186.836C171.896 186.836 171.871 186.846 171.853 186.864C171.835 186.882 171.825 186.906 171.825 186.932C171.825 186.957 171.835 186.982 171.853 187C171.871 187.018 171.896 187.028 171.921 187.028Z" fill="#191C3C"/>
<path d="M174.93 193.439V193.36C174.887 193.36 174.887 193.439 174.93 193.439Z" fill="#191C3C"/>
<path d="M190.654 186.157C190.651 189.995 189.507 193.745 187.367 196.934C185.227 200.123 182.187 202.608 178.631 204.074C175.076 205.54 171.164 205.922 167.391 205.171C163.618 204.42 160.153 202.571 157.434 199.856C154.714 197.141 152.863 193.683 152.114 189.919C151.364 186.156 151.751 182.255 153.224 178.71C154.697 175.165 157.191 172.135 160.39 170.003C163.589 167.872 167.35 166.734 171.198 166.734C173.754 166.734 176.286 167.236 178.647 168.213C181.009 169.189 183.155 170.62 184.962 172.424C186.769 174.228 188.201 176.369 189.178 178.726C190.155 181.082 190.656 183.607 190.654 186.157V186.157Z" fill="#FEC55E"/>
<path d="M188.526 186.157C188.526 189.576 187.51 192.917 185.606 195.759C183.702 198.602 180.995 200.817 177.829 202.125C174.663 203.433 171.178 203.776 167.817 203.109C164.456 202.442 161.368 200.796 158.945 198.379C156.521 195.961 154.871 192.882 154.202 189.529C153.533 186.176 153.877 182.701 155.188 179.543C156.5 176.385 158.721 173.686 161.57 171.786C164.42 169.887 167.77 168.874 171.198 168.874C175.794 168.874 180.201 170.694 183.451 173.936C186.701 177.177 188.526 181.573 188.526 186.157V186.157Z" fill="#FCD991"/>
<path d="M186.494 186.157C186.496 189.175 185.601 192.125 183.921 194.636C182.241 197.146 179.853 199.103 177.058 200.259C174.263 201.415 171.187 201.718 168.219 201.13C165.251 200.543 162.525 199.09 160.385 196.957C158.245 194.824 156.787 192.105 156.196 189.145C155.605 186.186 155.907 183.117 157.065 180.329C158.222 177.541 160.183 175.157 162.699 173.481C165.214 171.804 168.172 170.909 171.198 170.909C175.253 170.909 179.143 172.515 182.011 175.374C184.88 178.234 186.492 182.112 186.494 186.157Z" fill="#FEC55E"/>
<path d="M173.195 193.942H167.491C166.865 193.939 166.265 193.69 165.823 193.249C165.38 192.807 165.13 192.209 165.128 191.584V190.375H168.494V190.584H173.16C173.591 190.582 174.004 190.409 174.307 190.105C174.611 189.8 174.782 189.387 174.782 188.958C174.782 188.678 174.671 188.411 174.473 188.213C174.275 188.016 174.007 187.905 173.727 187.905H169.584C168.412 187.903 167.289 187.437 166.46 186.611C165.632 185.784 165.165 184.664 165.163 183.495V182.886C165.165 181.567 165.691 180.303 166.626 179.37C167.561 178.438 168.829 177.913 170.151 177.911H175.82C176.447 177.911 177.048 178.159 177.491 178.601C177.934 179.043 178.183 179.643 178.183 180.268V181.634H174.817V181.26H170.151C169.72 181.262 169.308 181.434 169.004 181.739C168.7 182.044 168.529 182.456 168.529 182.886V183.495C168.529 183.633 168.556 183.77 168.609 183.898C168.662 184.025 168.74 184.141 168.838 184.239C168.936 184.337 169.052 184.414 169.181 184.467C169.309 184.52 169.446 184.547 169.584 184.547H173.762C174.934 184.55 176.057 185.015 176.886 185.842C177.714 186.668 178.181 187.789 178.183 188.958C178.183 190.278 177.658 191.544 176.723 192.479C175.787 193.413 174.519 193.939 173.195 193.942V193.942Z" fill="white"/>
<path d="M173.36 176.276H169.994V196.039H173.36V176.276Z" fill="white"/>
<path d="M213.922 236.662V212.942C213.962 212.224 214.144 211.522 214.458 210.875C214.773 210.229 215.213 209.651 215.753 209.176L223.742 202.93C223.975 202.77 224.167 202.556 224.299 202.306C224.431 202.056 224.5 201.778 224.5 201.495C224.5 201.212 224.431 200.934 224.299 200.684C224.167 200.434 223.975 200.219 223.742 200.06L215.753 193.806C215.212 193.333 214.772 192.756 214.457 192.111C214.143 191.466 213.961 190.764 213.922 190.048V167.432H250.14V190.048C250.101 190.764 249.919 191.466 249.605 192.111C249.29 192.756 248.85 193.333 248.309 193.806L240.32 200.06C240.086 200.219 239.895 200.434 239.763 200.684C239.631 200.934 239.562 201.212 239.562 201.495C239.562 201.778 239.631 202.056 239.763 202.306C239.895 202.556 240.086 202.77 240.32 202.93L248.309 209.176C248.849 209.651 249.289 210.229 249.604 210.875C249.918 211.522 250.1 212.224 250.14 212.942V236.662H213.922Z" fill="#FBFCFD"/>
<path d="M219.816 212.184L227.805 205.939C228.039 205.779 228.23 205.565 228.362 205.315C228.494 205.065 228.563 204.786 228.563 204.503C228.563 204.221 228.494 203.942 228.362 203.692C228.23 203.442 228.039 203.228 227.805 203.068L219.816 196.805C219.275 196.332 218.835 195.756 218.52 195.111C218.206 194.466 218.024 193.764 217.985 193.048V170.432H213.964V193.048C214.003 193.764 214.185 194.466 214.5 195.111C214.814 195.756 215.255 196.332 215.796 196.805L223.784 203.059C224.018 203.219 224.209 203.433 224.342 203.683C224.474 203.934 224.543 204.212 224.543 204.495C224.543 204.777 224.474 205.056 224.342 205.306C224.209 205.556 224.018 205.77 223.784 205.93L215.752 212.184C215.212 212.659 214.772 213.237 214.457 213.884C214.143 214.53 213.961 215.233 213.921 215.95V239.671H217.941V215.942C217.988 215.223 218.177 214.52 218.499 213.874C218.821 213.229 219.269 212.655 219.816 212.184V212.184Z" fill="#FBFCFD"/>
<g opacity="0.39">
<path opacity="0.39" d="M248.308 193.806C248.849 193.333 249.29 192.757 249.604 192.112C249.919 191.466 250.101 190.765 250.139 190.048V167.433H245.317V190.048C245.278 190.765 245.096 191.466 244.781 192.112C244.467 192.757 244.026 193.333 243.485 193.806L235.514 200.06C235.281 200.22 235.089 200.434 234.957 200.684C234.825 200.934 234.756 201.213 234.756 201.495C234.756 201.778 234.825 202.057 234.957 202.307C235.089 202.557 235.281 202.771 235.514 202.931L243.503 209.176C244.043 209.651 244.483 210.229 244.798 210.876C245.112 211.522 245.295 212.225 245.334 212.942V236.663H250.157V212.942C250.117 212.225 249.935 211.522 249.62 210.876C249.306 210.229 248.866 209.651 248.325 209.176L240.337 202.931C240.103 202.771 239.912 202.557 239.78 202.307C239.648 202.057 239.579 201.778 239.579 201.495C239.579 201.213 239.648 200.934 239.78 200.684C239.912 200.434 240.103 200.22 240.337 200.06L248.308 193.806Z" fill="#F9FAFC"/>
</g>
<path d="M218.072 234.288H245.7V223.45C245.698 222.336 245.389 221.245 244.808 220.294C244.227 219.343 243.395 218.569 242.404 218.057L234.468 213.995C233.554 213.526 232.539 213.287 231.511 213.299C230.484 213.311 229.475 213.574 228.572 214.064L221.255 218.022C220.294 218.545 219.492 219.315 218.932 220.253C218.372 221.191 218.075 222.262 218.072 223.354V234.288Z" fill="#FEC55E"/>
<path d="M246.093 234.723H217.593V223.354C217.593 222.184 217.91 221.035 218.51 220.029C219.11 219.024 219.972 218.198 221.003 217.639L228.32 213.681C229.284 213.155 230.363 212.873 231.462 212.859C232.562 212.846 233.648 213.101 234.625 213.603L242.561 217.665C243.628 218.21 244.523 219.039 245.146 220.06C245.77 221.081 246.097 222.254 246.093 223.45V234.723ZM218.465 233.853H245.221V223.415C245.224 222.379 244.94 221.363 244.399 220.479C243.859 219.595 243.084 218.877 242.16 218.405L234.232 214.403C233.38 213.969 232.434 213.748 231.477 213.76C230.519 213.772 229.579 214.017 228.738 214.473L221.413 218.431C220.521 218.915 219.776 219.631 219.257 220.502C218.739 221.373 218.465 222.367 218.465 223.38V233.853Z" fill="#060706"/>
<g opacity="0.3">
<path opacity="0.3" d="M250.14 167.389H213.922V173.321H250.14V167.389Z" fill="#FBFCFD"/>
</g>
<path d="M251.893 162.334H211.89C211.64 162.334 211.437 162.537 211.437 162.787V170.067C211.437 170.317 211.64 170.52 211.89 170.52H251.893C252.143 170.52 252.347 170.317 252.347 170.067V162.787C252.347 162.537 252.143 162.334 251.893 162.334Z" fill="#E75553"/>
<path d="M251.893 170.955H211.89C211.658 170.955 211.437 170.863 211.273 170.7C211.109 170.537 211.018 170.316 211.018 170.085V162.804C211.018 162.574 211.109 162.352 211.273 162.189C211.437 162.026 211.658 161.935 211.89 161.935H251.893C252.124 161.935 252.346 162.026 252.509 162.189C252.673 162.352 252.765 162.574 252.765 162.804V170.041C252.771 170.159 252.753 170.277 252.711 170.388C252.67 170.498 252.607 170.599 252.525 170.685C252.444 170.77 252.346 170.838 252.237 170.885C252.128 170.931 252.011 170.955 251.893 170.955ZM211.89 162.77V170.068H251.91V162.787L211.89 162.77Z" fill="#070707"/>
<g opacity="0.3">
<path opacity="0.3" d="M250.14 231.191H213.922V236.662H250.14V231.191Z" fill="#FBFCFD"/>
</g>
<path d="M252.032 233.591H212.029C211.778 233.591 211.575 233.794 211.575 234.044V241.324C211.575 241.574 211.778 241.776 212.029 241.776H252.032C252.282 241.776 252.485 241.574 252.485 241.324V234.044C252.485 233.794 252.282 233.591 252.032 233.591Z" fill="#E75553"/>
<path d="M252.032 242.238H212.029C211.798 242.238 211.576 242.146 211.413 241.983C211.249 241.82 211.157 241.599 211.157 241.368V234.088C211.157 233.857 211.249 233.636 211.413 233.473C211.576 233.309 211.798 233.218 212.029 233.218H252.032C252.264 233.218 252.485 233.309 252.649 233.473C252.813 233.636 252.904 233.857 252.904 234.088V241.368C252.904 241.599 252.813 241.82 252.649 241.983C252.485 242.146 252.264 242.238 252.032 242.238ZM212.029 234.053V241.351H252.05V234.07L212.029 234.053Z" fill="#070707"/>
<path d="M232.584 203.208H230.047C229.815 203.208 229.628 203.395 229.628 203.626V207.993C229.628 208.223 229.815 208.41 230.047 208.41H232.584C232.816 208.41 233.003 208.223 233.003 207.993V203.626C233.003 203.395 232.816 203.208 232.584 203.208Z" fill="#FEC55E"/>
<path d="M231.642 187.63C229.103 187.625 226.592 187.107 224.259 186.107C221.927 185.107 219.822 183.645 218.072 181.811V187.195C218.074 188.356 218.384 189.495 218.973 190.496C219.561 191.497 220.406 192.324 221.421 192.892L228.215 196.685C228.656 196.932 229.024 197.292 229.28 197.727C229.536 198.163 229.671 198.659 229.671 199.164V200.799C229.654 201.03 229.686 201.263 229.763 201.481C229.84 201.7 229.962 201.9 230.12 202.07C230.278 202.24 230.47 202.375 230.683 202.467C230.896 202.56 231.126 202.608 231.359 202.608C231.591 202.608 231.821 202.56 232.034 202.467C232.247 202.375 232.439 202.24 232.597 202.07C232.755 201.9 232.877 201.7 232.954 201.481C233.032 201.263 233.063 201.03 233.046 200.799V199.233C233.046 198.712 233.19 198.201 233.462 197.756C233.735 197.311 234.125 196.949 234.59 196.711L242.142 192.84C243.214 192.292 244.114 191.46 244.741 190.435C245.369 189.409 245.701 188.231 245.7 187.03V181.35C243.935 183.328 241.77 184.911 239.347 185.994C236.923 187.076 234.297 187.634 231.642 187.63V187.63Z" fill="#FEC55E"/>
<path d="M231.311 202.921C230.748 202.919 230.209 202.694 229.812 202.297C229.415 201.899 229.192 201.36 229.192 200.799V199.164C229.189 198.736 229.074 198.317 228.856 197.949C228.639 197.58 228.327 197.276 227.953 197.067L221.16 193.266C220.075 192.66 219.173 191.776 218.546 190.706C217.919 189.635 217.59 188.417 217.593 187.177V180.714L218.343 181.497C220.093 183.328 222.203 184.778 224.543 185.755C226.882 186.732 229.398 187.215 231.934 187.174C234.47 187.134 236.969 186.569 239.276 185.517C241.582 184.465 243.645 182.949 245.334 181.062L246.093 180.192V186.986C246.093 188.266 245.739 189.522 245.07 190.615C244.4 191.708 243.442 192.595 242.299 193.179L234.747 197.05C234.353 197.253 234.023 197.559 233.792 197.937C233.561 198.314 233.439 198.748 233.439 199.19V200.755C233.445 201.038 233.394 201.318 233.289 201.581C233.185 201.843 233.029 202.083 232.831 202.284C232.633 202.486 232.396 202.646 232.135 202.756C231.874 202.865 231.594 202.921 231.311 202.921ZM218.465 182.854V187.203C218.465 188.286 218.754 189.349 219.302 190.283C219.851 191.218 220.64 191.989 221.587 192.518L228.381 196.319C228.89 196.602 229.315 197.016 229.611 197.518C229.907 198.019 230.063 198.59 230.064 199.172V200.808C230.049 200.98 230.071 201.154 230.127 201.318C230.184 201.482 230.273 201.632 230.391 201.76C230.509 201.887 230.651 201.989 230.811 202.059C230.97 202.128 231.141 202.164 231.315 202.164C231.489 202.164 231.661 202.128 231.82 202.059C231.979 201.989 232.122 201.887 232.239 201.76C232.357 201.632 232.447 201.482 232.503 201.318C232.56 201.154 232.581 200.98 232.567 200.808V199.242C232.564 198.639 232.731 198.047 233.046 197.532C233.362 197.017 233.815 196.6 234.354 196.328L241.907 192.466C242.907 191.953 243.745 191.175 244.33 190.217C244.915 189.26 245.223 188.159 245.221 187.038V182.463C241.692 185.992 236.921 188.008 231.924 188.083C226.927 188.158 222.099 186.285 218.465 182.863V182.854Z" fill="#060706"/>
<path d="M268.794 203.738H266.57C266.29 203.738 266.022 203.627 265.824 203.43C265.626 203.232 265.515 202.965 265.515 202.686C265.515 202.406 265.626 202.139 265.824 201.941C266.022 201.744 266.29 201.633 266.57 201.633H268.794C269.074 201.633 269.342 201.744 269.54 201.941C269.738 202.139 269.849 202.406 269.849 202.686C269.849 202.965 269.738 203.232 269.54 203.43C269.342 203.627 269.074 203.738 268.794 203.738Z" fill="white"/>
<path d="M270.032 211.166C269.943 211.179 269.852 211.179 269.762 211.166L265.463 210.018C265.192 209.946 264.961 209.769 264.822 209.526C264.682 209.284 264.644 208.996 264.717 208.726C264.79 208.457 264.967 208.227 265.21 208.087C265.453 207.948 265.741 207.91 266.012 207.983L270.312 209.131C270.56 209.196 270.777 209.35 270.92 209.563C271.063 209.777 271.123 210.035 271.088 210.289C271.054 210.543 270.928 210.776 270.733 210.944C270.539 211.112 270.29 211.204 270.032 211.201V211.166Z" fill="white"/>
<path d="M265.236 216.977C265.049 216.978 264.865 216.93 264.704 216.838L262.776 215.733C262.533 215.593 262.356 215.363 262.283 215.093C262.211 214.823 262.248 214.536 262.388 214.293C262.528 214.051 262.759 213.874 263.029 213.802C263.3 213.729 263.589 213.767 263.832 213.906L265.759 215.02C265.956 215.137 266.11 215.315 266.197 215.527C266.284 215.74 266.298 215.974 266.239 216.196C266.18 216.417 266.05 216.613 265.869 216.754C265.688 216.895 265.465 216.973 265.236 216.977V216.977Z" fill="white"/>
<path d="M262.549 224.032C262.412 224.034 262.275 224.008 262.147 223.956C262.02 223.904 261.904 223.826 261.808 223.727L258.66 220.587C258.548 220.493 258.458 220.377 258.394 220.246C258.33 220.115 258.294 219.972 258.288 219.826C258.282 219.68 258.307 219.535 258.36 219.4C258.414 219.264 258.495 219.141 258.598 219.038C258.702 218.935 258.826 218.855 258.962 218.803C259.099 218.75 259.244 218.726 259.39 218.733C259.536 218.74 259.679 218.776 259.81 218.841C259.941 218.906 260.057 218.997 260.151 219.109L263.299 222.24C263.446 222.388 263.545 222.575 263.584 222.779C263.624 222.982 263.602 223.193 263.522 223.385C263.442 223.576 263.307 223.74 263.134 223.855C262.961 223.97 262.758 224.032 262.549 224.032V224.032Z" fill="white"/>
<path d="M255.512 226.676C255.326 226.676 255.143 226.628 254.982 226.534C254.821 226.441 254.688 226.307 254.596 226.145L253.488 224.223C253.404 224.103 253.346 223.967 253.317 223.824C253.289 223.68 253.29 223.532 253.322 223.39C253.354 223.247 253.415 223.112 253.502 222.994C253.589 222.876 253.7 222.778 253.827 222.705C253.954 222.632 254.095 222.587 254.241 222.571C254.387 222.556 254.534 222.571 254.674 222.615C254.813 222.66 254.942 222.733 255.052 222.83C255.162 222.927 255.25 223.046 255.311 223.179L256.419 225.101C256.556 225.343 256.592 225.629 256.521 225.897C256.449 226.165 256.275 226.395 256.035 226.536C255.876 226.628 255.695 226.676 255.512 226.676V226.676Z" fill="white"/>
<path d="M254.395 182.714C254.211 182.716 254.031 182.668 253.872 182.575C253.629 182.437 253.452 182.208 253.378 181.939C253.304 181.669 253.341 181.382 253.48 181.14L254.596 179.218C254.66 179.089 254.75 178.974 254.86 178.881C254.97 178.788 255.098 178.719 255.237 178.678C255.375 178.636 255.52 178.623 255.663 178.64C255.807 178.657 255.945 178.702 256.07 178.774C256.195 178.847 256.303 178.943 256.389 179.059C256.475 179.175 256.536 179.307 256.569 179.447C256.602 179.587 256.605 179.733 256.579 179.874C256.553 180.016 256.499 180.15 256.419 180.27L255.311 182.192C255.216 182.35 255.082 182.481 254.921 182.572C254.761 182.664 254.58 182.713 254.395 182.714V182.714Z" fill="white"/>
<path d="M259.436 186.567C259.156 186.567 258.888 186.458 258.686 186.263C258.489 186.066 258.378 185.798 258.378 185.519C258.378 185.24 258.489 184.973 258.686 184.776L261.835 181.635C262.035 181.45 262.299 181.35 262.572 181.355C262.845 181.36 263.106 181.47 263.299 181.663C263.492 181.855 263.602 182.115 263.608 182.387C263.613 182.66 263.512 182.923 263.326 183.123L260.178 186.263C260.08 186.36 259.965 186.437 259.838 186.489C259.71 186.541 259.574 186.568 259.436 186.567V186.567Z" fill="white"/>
<path d="M263.309 191.595C263.078 191.594 262.855 191.517 262.672 191.376C262.489 191.236 262.358 191.04 262.298 190.818C262.237 190.596 262.251 190.361 262.338 190.148C262.424 189.935 262.579 189.756 262.777 189.638L264.704 188.525C264.823 188.455 264.956 188.409 265.093 188.39C265.23 188.372 265.37 188.381 265.504 188.416C265.638 188.452 265.763 188.513 265.873 188.598C265.982 188.682 266.074 188.787 266.143 188.907C266.28 189.149 266.317 189.435 266.245 189.703C266.173 189.971 265.999 190.201 265.759 190.343L263.832 191.456C263.673 191.547 263.492 191.595 263.309 191.595V191.595Z" fill="white"/>
<path d="M265.732 197.448C265.476 197.449 265.228 197.356 265.035 197.187C264.842 197.019 264.718 196.786 264.685 196.532C264.651 196.278 264.712 196.021 264.855 195.809C264.998 195.597 265.214 195.443 265.462 195.378L269.761 194.23C270.032 194.161 270.319 194.2 270.56 194.34C270.802 194.48 270.978 194.709 271.052 194.978C271.088 195.111 271.096 195.25 271.078 195.386C271.059 195.523 271.014 195.654 270.944 195.773C270.874 195.892 270.782 195.996 270.671 196.079C270.561 196.162 270.436 196.222 270.302 196.257L266.038 197.396C265.939 197.429 265.836 197.447 265.732 197.448V197.448Z" fill="white"/>
<path d="M33.3713 104.316C45.0319 104.316 54.4847 94.8879 54.4847 83.2575C54.4847 71.627 45.0319 62.1987 33.3713 62.1987C21.7106 62.1987 12.2578 71.627 12.2578 83.2575C12.2578 94.8879 21.7106 104.316 33.3713 104.316Z" fill="#FFE4B6"/>
<path d="M52.2955 92.5466C51.9125 85.8079 52.8644 79.06 55.0968 72.6883C57.3292 66.3166 60.7984 60.4461 65.3061 55.412C69.8138 50.378 75.2718 46.2791 81.3682 43.3496C87.4646 40.42 94.0799 38.7172 100.836 38.3384L100.88 39.2082C87.4685 39.9643 74.9075 46.003 65.9598 55.996C57.0122 65.9889 52.4107 79.1177 53.1676 92.4944L52.2955 92.5466Z" fill="black"/>
<path d="M240.137 100.724L239.265 100.602C240.757 89.9147 237.938 79.0733 231.426 70.4566C224.914 61.8398 215.241 56.1516 204.529 54.6399L204.651 53.77C215.597 55.3097 225.481 61.1195 232.135 69.9233C238.789 78.7271 241.667 89.805 240.137 100.724Z" fill="black"/>
<path d="M239.177 101.845L234.634 95.5738L235.34 95.0605L239.369 100.628L244.951 96.6002L245.465 97.3134L239.177 101.845Z" fill="black"/>
<path d="M12.5894 90.2331C10.1066 90.2348 7.67913 89.502 5.61405 88.1273C3.54896 86.7525 1.93911 84.7977 0.988195 82.5102C0.0372754 80.2227 -0.211981 77.7052 0.271965 75.2764C0.755911 72.8475 1.95131 70.6164 3.70691 68.8654C5.46251 67.1143 7.69941 65.922 10.1346 65.4393C12.5697 64.9566 15.0937 65.2052 17.3872 66.1537C19.6807 67.1021 21.6406 68.7078 23.0188 70.7676C24.3971 72.8273 25.1319 75.2485 25.1302 77.7249C25.1256 81.0409 23.8028 84.2197 21.452 86.5645C19.1011 88.9092 15.914 90.2285 12.5894 90.2331V90.2331ZM12.5894 66.0778C10.2795 66.076 8.02094 66.7577 6.09946 68.0364C4.17798 69.3152 2.67991 71.1336 1.79474 73.2617C0.909571 75.3898 0.677075 77.7319 1.12666 79.9918C1.57625 82.2517 2.68772 84.3278 4.32049 85.9575C5.95325 87.5873 8.03394 88.6974 10.2994 89.1476C12.5648 89.5977 14.9132 89.3675 17.0474 88.4862C19.1817 87.6049 21.006 86.1121 22.2895 84.1966C23.573 82.281 24.2581 80.0288 24.2581 77.7249C24.2604 76.1942 23.9604 74.6781 23.3752 73.2631C22.79 71.848 21.9312 70.5618 20.8476 69.4779C19.7641 68.3939 18.4771 67.5334 17.0602 66.9456C15.6432 66.3577 14.1241 66.0539 12.5894 66.0517V66.0778Z" fill="black"/>
<path d="M158.518 114.954L172.314 136.613H158.518V114.954Z" fill="#7CC8C2"/>
</g>
<defs>
<clipPath id="clip0_925_5587">
<rect width="284.026" height="243" fill="white" transform="translate(0 0.273438)"/>
</clipPath>
</defs>
</svg>
