<svg width="257" height="246" viewBox="0 0 257 246" fill="none" xmlns="http://www.w3.org/2000/svg">
<g clip-path="url(#clip0_925_5751)">
<path d="M1.88184 244.969C1.88184 211.267 15.2698 178.946 39.1005 155.115C62.9312 131.284 95.2525 117.896 128.954 117.896C162.656 117.896 194.977 131.284 218.808 155.115C242.639 178.946 256.027 211.267 256.027 244.969" fill="#1C96A0"/>
<path d="M167.194 73.0659V158.027H252.146C252.146 135.495 243.196 113.886 227.265 97.9533C211.334 82.0203 189.726 73.0682 167.194 73.0659V73.0659Z" fill="#7CC8C2"/>
<path d="M59.8178 76.8863H32.709L59.8178 44.415V76.8863ZM34.5219 76.0391H58.9706V46.7532L34.5219 76.0391Z" fill="black"/>
<path d="M223.275 228.475L234.093 209.728H212.508L223.275 228.475Z" fill="#E75553"/>
<path d="M202.936 36.1392L190.602 57.4958H215.194L202.936 36.1392Z" fill="#FED45D"/>
<path d="M101.185 82.2827V91.5336H93.8398V82.2827C96.2364 82.9943 98.7881 82.9943 101.185 82.2827Z" fill="#FED45D"/>
<path d="M110.308 70.0162C110.308 72.5479 109.557 75.0228 108.151 77.1278C106.744 79.2328 104.745 80.8735 102.406 81.8423C100.067 82.8111 97.4933 83.0646 95.0102 82.5707C92.5272 82.0768 90.2464 80.8577 88.4562 79.0675C86.666 77.2773 85.4469 74.9965 84.953 72.5135C84.4591 70.0304 84.7126 67.4567 85.6814 65.1177C86.6502 62.7788 88.2909 60.7796 90.3959 59.3731C92.5009 57.9666 94.9758 57.2158 97.5075 57.2158C100.902 57.2158 104.158 58.5644 106.559 60.965C108.959 63.3655 110.308 66.6214 110.308 70.0162V70.0162Z" fill="#FED45D"/>
<path d="M130.97 91.5332H64.0537C60.0254 91.5332 56.7598 94.7988 56.7598 98.8272V134.873C56.7598 138.902 60.0254 142.167 64.0537 142.167H130.97C134.998 142.167 138.264 138.902 138.264 134.873V98.8272C138.264 94.7988 134.998 91.5332 130.97 91.5332Z" fill="#E75553"/>
<path d="M40.4861 182.035V244.969H27.9229V182.035C29.6184 183.652 31.8576 184.577 34.2002 184.627C36.5448 184.574 38.7857 183.65 40.4861 182.035V182.035Z" fill="white"/>
<path d="M206.341 149.792C206.019 153.384 205.807 157.476 205.587 161.813C204.418 184.534 202.969 212.803 183.239 216.437C182.968 216.48 182.689 216.514 182.392 216.531H181.359C165.025 216.531 156.935 196.75 154.716 184.83C154.542 183.92 154.574 182.982 154.809 182.085C156.698 183.136 158.823 183.687 160.985 183.687C163.136 183.693 165.254 183.148 167.135 182.102C167.135 182.238 167.203 182.373 167.228 182.517C168.287 188.1 173.158 203.696 181.359 203.849C190.838 201.434 192.083 177.248 192.905 161.161C193.134 156.705 193.354 152.495 193.693 148.665C193.758 147.828 193.989 147.011 194.372 146.263C194.755 145.515 195.282 144.851 195.924 144.308C196.565 143.765 197.308 143.355 198.109 143.102C198.91 142.848 199.754 142.756 200.591 142.83C201.428 142.905 202.242 143.145 202.985 143.536C203.729 143.927 204.388 144.462 204.923 145.109C205.459 145.757 205.861 146.504 206.105 147.308C206.35 148.112 206.433 148.956 206.349 149.792H206.341Z" fill="white"/>
<path d="M139.577 152.333H55.4383C50.7596 152.333 46.9668 156.126 46.9668 160.804V236.285C46.9668 240.964 50.7596 244.757 55.4383 244.757H139.577C144.256 244.757 148.049 240.964 148.049 236.285V160.804C148.049 156.126 144.256 152.333 139.577 152.333Z" fill="#E75553"/>
<path d="M126.862 179.4H68.1543V244.757H126.862V179.4Z" fill="#FED45D"/>
<path d="M56.7514 101.513H46.9668V132.188H56.7514V101.513Z" fill="#FED45D"/>
<path d="M148.802 101.513H138.264V132.188H148.802V101.513Z" fill="#FED45D"/>
<path d="M130.97 142.591H64.0457C61.9995 142.589 60.0378 141.775 58.591 140.328C57.1442 138.881 56.3304 136.92 56.3281 134.874V98.8274C56.3281 96.7806 57.1412 94.8176 58.5885 93.3703C60.0359 91.923 61.9988 91.1099 64.0457 91.1099H130.97C133.017 91.1121 134.978 91.9259 136.425 93.3728C137.872 94.8196 138.686 96.7813 138.688 98.8274V134.874C138.686 136.92 137.872 138.881 136.425 140.328C134.978 141.775 133.017 142.589 130.97 142.591ZM64.0457 91.957C62.2242 91.9593 60.478 92.6838 59.19 93.9718C57.9021 95.2597 57.1775 97.0059 57.1753 98.8274V134.874C57.1775 136.695 57.9021 138.441 59.19 139.729C60.478 141.017 62.2242 141.742 64.0457 141.744H130.97C132.792 141.742 134.538 141.017 135.826 139.729C137.114 138.441 137.839 136.695 137.841 134.874V98.8274C137.839 97.0059 137.114 95.2597 135.826 93.9718C134.538 92.6838 132.792 91.9593 130.97 91.957H64.0457Z" fill="black"/>
<path d="M139.577 245.19H55.438C53.0796 245.187 50.8184 244.249 49.1508 242.582C47.4831 240.914 46.5452 238.653 46.543 236.295V160.814C46.5452 158.455 47.4831 156.194 49.1508 154.526C50.8184 152.859 53.0796 151.921 55.438 151.918H139.577C141.935 151.921 144.197 152.859 145.864 154.526C147.532 156.194 148.47 158.455 148.472 160.814V236.295C148.47 238.653 147.532 240.914 145.864 242.582C144.197 244.249 141.935 245.187 139.577 245.19V245.19ZM55.438 152.757C53.3043 152.759 51.2586 153.608 49.7498 155.117C48.241 156.626 47.3924 158.671 47.3901 160.805V236.286C47.3924 238.42 48.241 240.466 49.7498 241.974C51.2586 243.483 53.3043 244.332 55.438 244.334H139.577C141.711 244.332 143.756 243.483 145.265 241.974C146.774 240.466 147.623 238.42 147.625 236.286V160.805C147.623 158.671 146.774 156.626 145.265 155.117C143.756 153.608 141.711 152.759 139.577 152.757H55.438Z" fill="black"/>
<path d="M113.324 152.757H81.6999C81.5876 152.757 81.4799 152.712 81.4004 152.633C81.321 152.553 81.2764 152.445 81.2764 152.333V142.167C81.2764 142.055 81.321 141.947 81.4004 141.868C81.4799 141.788 81.5876 141.744 81.6999 141.744H113.324C113.436 141.744 113.544 141.788 113.624 141.868C113.703 141.947 113.748 142.055 113.748 142.167V152.333C113.745 152.445 113.7 152.551 113.621 152.63C113.542 152.709 113.436 152.754 113.324 152.757ZM82.1235 151.909H112.9V142.591H82.1235V151.909Z" fill="black"/>
<path d="M101.184 91.9488H93.8397C93.7273 91.9488 93.6196 91.9042 93.5402 91.8248C93.4607 91.7453 93.4161 91.6376 93.4161 91.5252V82.2828C93.4147 82.2168 93.4294 82.1515 93.4589 82.0925C93.4885 82.0334 93.5319 81.9825 93.5855 81.944C93.6368 81.9019 93.6979 81.8736 93.7631 81.8618C93.8283 81.8499 93.8955 81.8549 93.9583 81.8762C96.2743 82.5665 98.7414 82.5665 101.057 81.8762C101.12 81.8549 101.187 81.8499 101.253 81.8618C101.318 81.8736 101.379 81.9019 101.43 81.944C101.485 81.9821 101.53 82.0327 101.56 82.0917C101.591 82.1507 101.608 82.2162 101.608 82.2828V91.5252C101.608 91.6376 101.563 91.7453 101.484 91.8248C101.405 91.9042 101.297 91.9488 101.184 91.9488ZM94.2633 91.1017H100.761V82.842C98.6279 83.3756 96.3963 83.3756 94.2633 82.842V91.1017Z" fill="black"/>
<path d="M126.861 245.189H68.154C68.0417 245.189 67.934 245.145 67.8545 245.065C67.7751 244.986 67.7305 244.878 67.7305 244.766V179.4C67.7305 179.288 67.7751 179.18 67.8545 179.1C67.934 179.021 68.0417 178.976 68.154 178.976H126.861C126.974 178.976 127.082 179.021 127.161 179.1C127.24 179.18 127.285 179.288 127.285 179.4V244.757C127.285 244.871 127.241 244.979 127.162 245.06C127.082 245.141 126.975 245.187 126.861 245.189ZM68.5776 244.342H126.438V179.823H68.5776V244.342Z" fill="black"/>
<path d="M97.5082 83.2402C95.7707 83.2435 94.0496 82.9038 92.4436 82.2404C90.8377 81.577 89.3786 80.6031 88.15 79.3744C86.9213 78.1458 85.9474 76.6867 85.284 75.0807C84.6206 73.4748 84.2809 71.7537 84.2842 70.0162C84.2809 67.3959 85.055 64.8336 86.5086 62.6535C87.9623 60.4735 90.0301 58.7737 92.4502 57.7695C94.8704 56.7652 97.5341 56.5015 100.104 57.0119C102.674 57.5223 105.035 58.7837 106.888 60.6365C108.741 62.4893 110.002 64.8502 110.512 67.4202C111.023 69.9903 110.759 72.654 109.755 75.0742C108.751 77.4943 107.051 79.5621 104.871 81.0157C102.691 82.4694 100.128 83.2435 97.5082 83.2402V83.2402ZM97.5082 57.6393C95.0603 57.6393 92.6674 58.3652 90.632 59.7252C88.5966 61.0852 87.0103 63.0182 86.0735 65.2798C85.1367 67.5413 84.8916 70.0299 85.3692 72.4308C85.8467 74.8317 87.0255 77.037 88.7564 78.7679C90.4874 80.4989 92.6927 81.6776 95.0936 82.1552C97.4945 82.6328 99.983 82.3877 102.245 81.4509C104.506 80.5141 106.439 78.9278 107.799 76.8924C109.159 74.857 109.885 72.4641 109.885 70.0162C109.881 66.735 108.575 63.5895 106.255 61.2694C103.935 58.9492 100.789 57.6438 97.5082 57.6393V57.6393Z" fill="black"/>
<path d="M118.509 120.421C123.187 120.421 126.98 116.628 126.98 111.95C126.98 107.271 123.187 103.478 118.509 103.478C113.83 103.478 110.037 107.271 110.037 111.95C110.037 116.628 113.83 120.421 118.509 120.421Z" fill="#FFE4B6"/>
<path d="M76.5066 120.421C81.1853 120.421 84.9781 116.628 84.9781 111.95C84.9781 107.271 81.1853 103.478 76.5066 103.478C71.828 103.478 68.0352 107.271 68.0352 111.95C68.0352 116.628 71.828 120.421 76.5066 120.421Z" fill="#FFE4B6"/>
<path d="M88.291 122.853C88.291 125.324 89.2728 127.695 91.0204 129.442C92.768 131.19 95.1382 132.172 97.6097 132.172C100.081 132.172 102.451 131.19 104.199 129.442C105.947 127.695 106.928 125.324 106.928 122.853H88.291Z" fill="white"/>
<path d="M97.6263 132.611C95.0394 132.607 92.5598 131.577 90.7305 129.748C88.9013 127.919 87.8717 125.439 87.8672 122.852C87.8672 122.74 87.9118 122.632 87.9912 122.553C88.0707 122.473 88.1784 122.429 88.2908 122.429H106.928C107.04 122.429 107.148 122.473 107.228 122.553C107.307 122.632 107.352 122.74 107.352 122.852C107.347 125.433 106.322 127.908 104.5 129.736C102.678 131.564 100.207 132.598 97.6263 132.611V132.611ZM88.7228 123.293C88.8626 125.557 89.8606 127.683 91.5134 129.237C93.1662 130.79 95.3493 131.656 97.6179 131.656C99.8864 131.656 102.07 130.79 103.722 129.237C105.375 127.683 106.373 125.557 106.513 123.293H88.7228Z" fill="black"/>
<path d="M127.844 113.237C127.732 113.237 127.624 113.192 127.545 113.113C127.465 113.034 127.421 112.926 127.421 112.813C127.496 111.599 127.321 110.382 126.908 109.238C126.495 108.094 125.852 107.046 125.019 106.16C124.185 105.273 123.179 104.567 122.063 104.084C120.946 103.601 119.742 103.352 118.526 103.352C117.309 103.352 116.105 103.601 114.989 104.084C113.872 104.567 112.866 105.273 112.033 106.16C111.199 107.046 110.556 108.094 110.143 109.238C109.73 110.382 109.556 111.599 109.631 112.813C109.631 112.926 109.586 113.034 109.507 113.113C109.427 113.192 109.319 113.237 109.207 113.237C109.095 113.237 108.987 113.192 108.908 113.113C108.828 113.034 108.784 112.926 108.784 112.813C108.705 111.486 108.899 110.156 109.353 108.906C109.807 107.656 110.512 106.512 111.425 105.544C112.337 104.576 113.438 103.805 114.659 103.278C115.88 102.751 117.196 102.479 118.526 102.479C119.856 102.479 121.172 102.751 122.393 103.278C123.614 103.805 124.715 104.576 125.627 105.544C126.539 106.512 127.244 107.656 127.698 108.906C128.152 110.156 128.346 111.486 128.268 112.813C128.268 112.926 128.223 113.034 128.144 113.113C128.064 113.192 127.957 113.237 127.844 113.237Z" fill="black"/>
<path d="M85.8509 113.237C85.7386 113.237 85.6308 113.192 85.5514 113.113C85.4719 113.034 85.4273 112.926 85.4273 112.813C85.2576 110.571 84.2469 108.474 82.5974 106.945C80.948 105.416 78.7816 104.566 76.5323 104.566C74.2829 104.566 72.1165 105.416 70.4671 106.945C68.8176 108.474 67.8069 110.571 67.6372 112.813C67.6372 112.926 67.5926 113.034 67.5131 113.113C67.4337 113.192 67.326 113.237 67.2136 113.237C67.1013 113.237 66.9935 113.192 66.9141 113.113C66.8347 113.034 66.79 112.926 66.79 112.813C66.968 110.351 68.0717 108.048 69.8791 106.366C71.6865 104.685 74.0636 103.75 76.5323 103.75C79.0009 103.75 81.378 104.685 83.1854 106.366C84.9928 108.048 86.0965 110.351 86.2745 112.813C86.2745 112.926 86.2298 113.034 86.1504 113.113C86.071 113.192 85.9632 113.237 85.8509 113.237Z" fill="black"/>
<path d="M46.9667 170.928C46.9622 174.313 45.6157 177.557 43.2225 179.95C40.8293 182.344 37.5846 183.69 34.2001 183.695C31.9954 183.69 29.8306 183.105 27.9228 182C25.9665 180.896 24.3364 179.294 23.1971 177.358C22.0577 175.422 21.4495 173.219 21.4339 170.973C21.4183 168.726 21.9958 166.515 23.108 164.563C24.2203 162.611 25.828 160.987 27.7687 159.856C29.7094 158.724 31.9144 158.124 34.161 158.117C36.4076 158.11 38.6162 158.696 40.5638 159.816C42.5114 160.936 44.129 162.55 45.2532 164.495C46.3775 166.44 46.9685 168.648 46.9667 170.894V170.928Z" fill="#FED45D"/>
<path d="M40.4859 244.554H27.9227C27.8103 244.554 27.7026 244.509 27.6231 244.43C27.5437 244.35 27.4991 244.243 27.4991 244.13V182.034C27.4978 181.96 27.5162 181.887 27.5525 181.823C27.5888 181.759 27.6417 181.705 27.7056 181.668C27.7695 181.631 27.8421 181.611 27.916 181.612C27.9899 181.612 28.0624 181.632 28.126 181.67C29.9849 182.699 32.0751 183.24 34.2 183.24C36.325 183.24 38.4151 182.699 40.2741 181.67C40.3385 181.633 40.4115 181.613 40.4859 181.613C40.5602 181.613 40.6333 181.633 40.6977 181.67C40.7629 181.706 40.8171 181.758 40.8544 181.823C40.8918 181.887 40.9108 181.96 40.9095 182.034V244.13C40.9095 244.186 40.8985 244.241 40.8772 244.292C40.8559 244.344 40.8247 244.39 40.7854 244.43C40.7461 244.469 40.6994 244.5 40.648 244.522C40.5966 244.543 40.5415 244.554 40.4859 244.554ZM28.3462 243.707H40.0623V182.712C38.2378 183.602 36.2344 184.065 34.2043 184.065C32.1742 184.065 30.1708 183.602 28.3462 182.712V243.707Z" fill="black"/>
<path d="M163.526 194.361C161.25 194.368 159.011 193.784 157.028 192.667C156.98 192.64 156.937 192.603 156.903 192.559C156.869 192.515 156.844 192.465 156.83 192.411C156.816 192.357 156.813 192.301 156.821 192.246C156.828 192.191 156.847 192.138 156.876 192.091C156.931 191.993 157.023 191.921 157.131 191.891C157.239 191.861 157.354 191.875 157.452 191.93C159.31 192.961 161.401 193.502 163.526 193.502C165.651 193.502 167.742 192.961 169.6 191.93C169.698 191.877 169.813 191.864 169.92 191.894C170.028 191.924 170.119 191.995 170.176 192.091C170.231 192.188 170.245 192.304 170.215 192.412C170.185 192.52 170.113 192.612 170.015 192.667C168.036 193.785 165.799 194.369 163.526 194.361V194.361Z" fill="black"/>
<path d="M200.174 200.112C200.111 200.112 200.049 200.099 199.992 200.073C199.935 200.046 199.884 200.008 199.844 199.96C198.497 198.32 196.744 197.062 194.761 196.309C192.772 195.549 190.621 195.318 188.517 195.639C188.463 195.649 188.407 195.648 188.352 195.635C188.298 195.623 188.247 195.6 188.202 195.568C188.157 195.535 188.119 195.494 188.09 195.447C188.062 195.399 188.042 195.347 188.034 195.292C188.017 195.18 188.045 195.065 188.111 194.973C188.178 194.881 188.278 194.819 188.39 194.801C190.638 194.464 192.935 194.715 195.058 195.528C197.18 196.342 199.057 197.69 200.504 199.443C200.575 199.53 200.608 199.641 200.597 199.752C200.585 199.863 200.531 199.965 200.445 200.036C200.366 200.092 200.27 200.119 200.174 200.112Z" fill="black"/>
<path d="M203.808 185.593C203.708 185.594 203.611 185.558 203.537 185.491C201.899 184.132 199.937 183.221 197.843 182.845C195.748 182.47 193.592 182.643 191.584 183.348C191.531 183.366 191.475 183.374 191.419 183.371C191.363 183.368 191.308 183.354 191.258 183.33C191.207 183.305 191.162 183.271 191.125 183.229C191.088 183.187 191.06 183.138 191.042 183.085C191.023 183.033 191.015 182.977 191.018 182.922C191.021 182.867 191.036 182.813 191.06 182.763C191.085 182.713 191.119 182.669 191.161 182.632C191.203 182.596 191.251 182.569 191.304 182.551C193.453 181.801 195.759 181.621 197.998 182.028C200.237 182.434 202.332 183.415 204.079 184.873C204.145 184.929 204.192 185.003 204.214 185.087C204.235 185.17 204.231 185.258 204.202 185.339C204.173 185.42 204.119 185.49 204.049 185.54C203.978 185.59 203.894 185.617 203.808 185.618V185.593Z" fill="black"/>
<path d="M205.095 170.886C204.996 170.888 204.899 170.851 204.824 170.785C203.182 169.41 201.212 168.485 199.106 168.099C197.015 167.717 194.86 167.886 192.854 168.591C192.801 168.609 192.745 168.617 192.689 168.614C192.633 168.611 192.579 168.597 192.528 168.572C192.478 168.548 192.433 168.514 192.396 168.472C192.358 168.43 192.33 168.381 192.312 168.328C192.293 168.276 192.285 168.221 192.288 168.166C192.29 168.111 192.304 168.058 192.327 168.008C192.351 167.958 192.384 167.914 192.425 167.877C192.466 167.84 192.514 167.812 192.566 167.794C194.716 167.044 197.023 166.864 199.264 167.27C201.504 167.677 203.601 168.657 205.35 170.115C205.415 170.171 205.462 170.246 205.484 170.33C205.506 170.413 205.502 170.501 205.472 170.582C205.443 170.663 205.389 170.733 205.319 170.783C205.249 170.833 205.165 170.86 205.079 170.861L205.095 170.886Z" fill="black"/>
<path d="M205.883 156.993C205.784 156.991 205.688 156.955 205.612 156.891C203.976 155.529 202.016 154.612 199.922 154.231C197.828 153.849 195.67 154.016 193.659 154.714C193.607 154.732 193.552 154.741 193.497 154.738C193.443 154.735 193.389 154.722 193.339 154.698C193.289 154.675 193.245 154.641 193.208 154.6C193.172 154.559 193.143 154.511 193.125 154.46C193.105 154.407 193.096 154.352 193.098 154.296C193.1 154.24 193.113 154.185 193.137 154.134C193.161 154.084 193.194 154.038 193.236 154.001C193.278 153.964 193.327 153.935 193.379 153.917C195.532 153.16 197.845 152.976 200.091 153.383C202.337 153.79 204.438 154.774 206.188 156.239C206.275 156.311 206.33 156.415 206.341 156.527C206.352 156.64 206.318 156.752 206.248 156.84C206.204 156.893 206.148 156.935 206.084 156.961C206.021 156.988 205.952 156.999 205.883 156.993Z" fill="black"/>
<path d="M163.289 205.28C163.06 205.28 162.823 205.28 162.594 205.28C162.482 205.273 162.377 205.222 162.302 205.138C162.228 205.054 162.189 204.943 162.196 204.831C162.203 204.719 162.254 204.614 162.338 204.539C162.422 204.464 162.533 204.426 162.645 204.433C164.771 204.543 166.889 204.1 168.793 203.146C170.696 202.193 172.32 200.763 173.506 198.994C173.568 198.901 173.664 198.837 173.773 198.815C173.883 198.792 173.997 198.814 174.09 198.876C174.183 198.939 174.248 199.037 174.27 199.148C174.293 199.259 174.27 199.374 174.209 199.469C173.005 201.261 171.38 202.73 169.476 203.748C167.572 204.766 165.448 205.3 163.289 205.305V205.28Z" fill="black"/>
<path d="M172.074 214.633C171.995 214.631 171.918 214.608 171.851 214.566C171.784 214.525 171.729 214.466 171.693 214.396C171.668 214.346 171.654 214.291 171.65 214.235C171.647 214.18 171.654 214.124 171.672 214.071C171.69 214.019 171.719 213.97 171.756 213.928C171.793 213.886 171.838 213.852 171.888 213.828C173.789 212.875 175.412 211.446 176.599 209.682C177.787 207.917 178.498 205.876 178.665 203.755C178.668 203.7 178.682 203.646 178.707 203.596C178.731 203.547 178.765 203.502 178.807 203.466C178.849 203.43 178.898 203.402 178.95 203.385C179.003 203.368 179.059 203.361 179.114 203.366C179.227 203.374 179.332 203.427 179.407 203.513C179.481 203.598 179.519 203.71 179.512 203.823C179.332 206.092 178.567 208.276 177.292 210.162C176.016 212.047 174.274 213.57 172.235 214.582C172.186 214.611 172.131 214.629 172.074 214.633V214.633Z" fill="black"/>
<path d="M191.059 213.32C190.949 213.32 190.844 213.278 190.765 213.202C190.686 213.126 190.64 213.023 190.635 212.913C190.532 210.787 189.881 208.724 188.746 206.923C187.61 205.123 186.029 203.647 184.155 202.637C184.058 202.584 183.985 202.495 183.952 202.389C183.919 202.283 183.928 202.169 183.977 202.07C184.003 202.02 184.038 201.976 184.081 201.94C184.124 201.904 184.174 201.877 184.228 201.86C184.281 201.844 184.337 201.838 184.393 201.844C184.449 201.849 184.503 201.865 184.553 201.892C186.563 202.969 188.259 204.551 189.474 206.482C190.689 208.412 191.381 210.626 191.482 212.905C191.485 212.96 191.476 213.016 191.457 213.068C191.438 213.12 191.408 213.168 191.37 213.209C191.333 213.25 191.287 213.283 191.237 213.307C191.186 213.33 191.131 213.343 191.076 213.345L191.059 213.32Z" fill="black"/>
<path d="M34.2091 196.665C31.9329 196.674 29.6935 196.09 27.7115 194.97C27.6623 194.944 27.619 194.908 27.5841 194.864C27.5492 194.821 27.5235 194.77 27.5085 194.717C27.4935 194.663 27.4894 194.607 27.4967 194.551C27.5039 194.496 27.5222 194.442 27.5505 194.394C27.6072 194.298 27.6989 194.228 27.8062 194.198C27.9136 194.168 28.0284 194.181 28.1266 194.233C29.9851 195.264 32.0754 195.805 34.2007 195.805C36.3259 195.805 38.4163 195.264 40.2747 194.233C40.3725 194.179 40.488 194.165 40.596 194.195C40.704 194.225 40.7956 194.297 40.8508 194.394C40.8794 194.442 40.8982 194.495 40.9061 194.55C40.9139 194.605 40.9106 194.661 40.8964 194.715C40.8822 194.768 40.8573 194.819 40.8233 194.863C40.7893 194.907 40.7467 194.943 40.6983 194.97C38.7181 196.087 36.4823 196.67 34.2091 196.665V196.665Z" fill="black"/>
<path d="M34.2085 210.151C31.9322 210.16 29.6928 209.576 27.7108 208.457C27.6592 208.431 27.6133 208.396 27.5759 208.352C27.5386 208.308 27.5105 208.257 27.4935 208.202C27.4765 208.147 27.4709 208.089 27.477 208.032C27.4831 207.975 27.5009 207.919 27.5291 207.869C27.5574 207.819 27.5956 207.775 27.6413 207.74C27.6871 207.705 27.7396 207.68 27.7954 207.666C27.8513 207.652 27.9094 207.65 27.9662 207.659C28.0231 207.668 28.0774 207.689 28.1259 207.72C29.9849 208.749 32.075 209.289 34.2 209.289C36.325 209.289 38.4151 208.749 40.2741 207.72C40.3225 207.692 40.3759 207.674 40.4312 207.667C40.4866 207.66 40.5428 207.663 40.5967 207.678C40.6506 207.692 40.7011 207.718 40.7453 207.752C40.7895 207.786 40.8266 207.828 40.8544 207.876C40.8822 207.925 40.9002 207.978 40.9074 208.034C40.9145 208.089 40.9107 208.145 40.8962 208.199C40.8816 208.253 40.8566 208.303 40.8225 208.348C40.7885 208.392 40.746 208.429 40.6976 208.457C38.7174 209.573 36.4816 210.157 34.2085 210.151V210.151Z" fill="black"/>
<path d="M34.2093 224.155C31.9326 224.168 29.6922 223.584 27.7117 222.461C27.6639 222.434 27.6219 222.397 27.5881 222.354C27.5543 222.31 27.5295 222.26 27.5149 222.207C27.5004 222.154 27.4964 222.099 27.5033 222.044C27.5102 221.99 27.5277 221.937 27.555 221.889C27.5822 221.841 27.6186 221.799 27.6621 221.765C27.7056 221.732 27.7553 221.707 27.8084 221.692C27.8615 221.678 27.917 221.674 27.9716 221.681C28.0262 221.687 28.079 221.705 28.1268 221.732C29.9865 222.759 32.0763 223.298 34.2009 223.298C36.3254 223.298 38.4152 222.759 40.2749 221.732C40.3705 221.689 40.4787 221.683 40.5785 221.715C40.6784 221.747 40.7628 221.815 40.8155 221.905C40.8683 221.996 40.8855 222.103 40.8638 222.206C40.8422 222.308 40.7833 222.399 40.6985 222.461C38.7199 223.581 36.483 224.165 34.2093 224.155Z" fill="black"/>
<path d="M34.2089 238.167C31.9326 238.176 29.6932 237.592 27.7113 236.473C27.6136 236.418 27.5419 236.326 27.5117 236.218C27.4815 236.11 27.4954 235.995 27.5503 235.897C27.607 235.801 27.6986 235.731 27.806 235.701C27.9133 235.671 28.0281 235.683 28.1264 235.736C29.9848 236.767 32.0751 237.308 34.2004 237.308C36.3257 237.308 38.416 236.767 40.2745 235.736C40.3722 235.681 40.4878 235.667 40.5958 235.697C40.7038 235.727 40.7954 235.799 40.8505 235.897C40.8792 235.944 40.898 235.997 40.9058 236.052C40.9137 236.107 40.9104 236.163 40.8962 236.217C40.8819 236.271 40.8571 236.321 40.8231 236.365C40.789 236.409 40.7465 236.446 40.698 236.473C38.7183 237.59 36.4822 238.174 34.2089 238.167V238.167Z" fill="black"/>
<path d="M173.742 170.92C173.744 173.181 173.144 175.401 172.006 177.354C170.867 179.307 169.23 180.922 167.262 182.035L167.126 182.102C165.248 183.146 163.133 183.692 160.984 183.687C158.834 183.69 156.718 183.148 154.834 182.111L154.698 182.035C152.744 180.929 151.116 179.327 149.978 177.391C148.84 175.455 148.233 173.253 148.218 171.008C148.203 168.762 148.781 166.552 149.893 164.601C151.005 162.65 152.612 161.027 154.551 159.895C156.491 158.764 158.695 158.164 160.941 158.156C163.186 158.149 165.394 158.733 167.341 159.852C169.289 160.97 170.907 162.582 172.032 164.525C173.158 166.469 173.75 168.674 173.751 170.92H173.742Z" fill="#FED45D"/>
<path d="M181.375 216.979C164.72 216.979 156.528 196.834 154.309 184.932C154.126 183.962 154.161 182.964 154.41 182.009C154.427 181.946 154.458 181.887 154.501 181.837C154.543 181.787 154.596 181.748 154.656 181.721C154.714 181.692 154.778 181.677 154.842 181.677C154.907 181.677 154.971 181.692 155.029 181.721C156.853 182.697 158.89 183.207 160.959 183.207C163.028 183.207 165.064 182.697 166.889 181.721C166.947 181.692 167.01 181.677 167.075 181.677C167.14 181.677 167.204 181.692 167.261 181.721C167.321 181.748 167.374 181.787 167.417 181.837C167.459 181.887 167.49 181.946 167.507 182.009C167.507 182.153 167.583 182.297 167.609 182.458C168.634 187.846 173.336 203.247 181.273 203.433C190.406 201.019 191.634 177.028 192.447 161.152C192.659 156.916 192.888 152.588 193.235 148.64C193.394 146.851 194.257 145.198 195.635 144.045C197.012 142.891 198.79 142.332 200.58 142.49C201.467 142.568 202.329 142.821 203.118 143.233C203.907 143.646 204.607 144.209 205.178 144.892C205.749 145.575 206.181 146.364 206.447 147.213C206.713 148.062 206.809 148.956 206.73 149.843V149.843C206.4 153.519 206.188 157.755 205.985 161.847C204.807 184.72 203.342 213.167 183.29 216.869C182.993 216.912 182.697 216.945 182.442 216.962L181.375 216.979ZM155.113 182.746C154.995 183.419 154.995 184.107 155.113 184.779C157.282 196.427 165.279 216.124 181.375 216.124H182.383C182.646 216.124 182.908 216.124 183.171 216.039C202.554 212.464 204.002 184.389 205.197 161.821C205.4 157.704 205.62 153.46 205.951 149.767C206.021 148.99 205.937 148.207 205.703 147.463C205.47 146.719 205.093 146.028 204.592 145.43C204.092 144.832 203.478 144.338 202.787 143.978C202.096 143.617 201.34 143.396 200.563 143.328C199.787 143.26 199.005 143.344 198.262 143.578C197.519 143.812 196.829 144.19 196.232 144.69C195.635 145.19 195.142 145.803 194.782 146.494C194.422 147.185 194.201 147.94 194.133 148.716C193.786 152.647 193.565 156.993 193.354 161.195C192.507 177.35 191.278 201.773 181.494 204.272C181.457 204.28 181.42 204.28 181.383 204.272C172.912 204.153 167.982 188.447 166.872 182.738C165.043 183.632 163.034 184.098 160.998 184.099C158.962 184.101 156.952 183.638 155.122 182.746H155.113Z" fill="black"/>
<path d="M210.458 124.048C211.549 126.029 212.094 128.263 212.039 130.524C211.984 132.785 211.33 134.99 210.145 136.916C208.985 138.787 207.362 140.328 205.433 141.389C203.504 142.45 201.333 142.996 199.132 142.973C196.915 142.953 194.742 142.357 192.826 141.241C190.91 140.126 189.318 138.531 188.206 136.613C187.095 134.695 186.502 132.521 186.487 130.304C186.471 128.087 187.034 125.905 188.119 123.971L189.711 124.929L193.761 127.369C193.272 128.305 193.031 129.352 193.063 130.408C193.094 131.464 193.397 132.495 193.941 133.4C194.485 134.306 195.253 135.057 196.171 135.58C197.089 136.104 198.126 136.383 199.182 136.391C200.799 136.438 202.37 135.85 203.557 134.752C204.745 133.654 205.454 132.134 205.533 130.518C205.612 128.903 205.054 127.321 203.979 126.113C202.904 124.904 201.398 124.166 199.784 124.056L199.877 119.329L199.919 117.465C202.093 117.569 204.203 118.228 206.048 119.381C207.893 120.533 209.412 122.14 210.458 124.048V124.048Z" fill="white"/>
<path d="M199.344 143.413H199.107C196.817 143.391 194.573 142.773 192.595 141.619C190.617 140.465 188.974 138.815 187.828 136.833C186.682 134.851 186.073 132.604 186.06 130.314C186.047 128.025 186.631 125.771 187.755 123.776C187.782 123.726 187.819 123.683 187.864 123.648C187.908 123.613 187.959 123.588 188.014 123.574C188.069 123.559 188.126 123.556 188.182 123.565C188.238 123.573 188.291 123.593 188.339 123.623L193.981 127.012C194.072 127.067 194.139 127.154 194.167 127.257C194.196 127.359 194.184 127.469 194.134 127.563C193.566 128.66 193.367 129.91 193.564 131.13C193.762 132.349 194.346 133.473 195.231 134.335C196.116 135.197 197.254 135.751 198.478 135.917C199.702 136.083 200.947 135.851 202.029 135.255C202.901 134.778 203.631 134.079 204.147 133.23C204.665 132.395 204.96 131.441 205.004 130.46C205.048 129.478 204.84 128.502 204.399 127.624C203.957 126.746 203.299 125.996 202.485 125.445C201.671 124.894 200.729 124.562 199.75 124.479C199.643 124.468 199.544 124.418 199.472 124.338C199.4 124.259 199.36 124.155 199.361 124.047L199.496 117.456C199.496 117.399 199.508 117.342 199.531 117.289C199.555 117.237 199.589 117.19 199.632 117.151C199.671 117.111 199.719 117.08 199.772 117.061C199.824 117.042 199.881 117.035 199.937 117.041C202.177 117.148 204.352 117.827 206.254 119.013C208.157 120.2 209.724 121.854 210.806 123.818V123.818C211.929 125.866 212.49 128.174 212.432 130.509C212.374 132.843 211.699 135.121 210.475 137.11C209.299 139.014 207.658 140.588 205.707 141.683C203.755 142.779 201.556 143.359 199.318 143.37L199.344 143.413ZM188.331 124.581C186.798 127.42 186.438 130.746 187.329 133.847C188.219 136.948 190.29 139.577 193.096 141.169C195.902 142.762 199.22 143.191 202.339 142.366C205.458 141.541 208.129 139.526 209.781 136.754C210.887 134.962 211.517 132.917 211.61 130.814C211.703 128.71 211.256 126.617 210.312 124.735C209.368 122.852 207.958 121.243 206.216 120.059C204.474 118.876 202.458 118.157 200.36 117.973L200.242 123.734C201.597 123.946 202.852 124.574 203.835 125.531C204.817 126.488 205.477 127.727 205.725 129.076C205.972 130.425 205.795 131.818 205.216 133.061C204.637 134.305 203.687 135.338 202.495 136.017C201.501 136.581 200.376 136.874 199.234 136.864C198.138 136.851 197.062 136.564 196.104 136.031C195.147 135.497 194.337 134.733 193.749 133.809C193.16 132.884 192.811 131.827 192.734 130.733C192.656 129.64 192.852 128.544 193.304 127.546L188.331 124.581Z" fill="black"/>
<path d="M34.201 184.109C31.0004 184.101 27.9124 182.928 25.5138 180.809C23.1153 178.69 21.5702 175.77 21.1673 172.595C20.7644 169.42 21.5312 166.206 23.3245 163.555C25.1178 160.904 27.8149 158.997 30.9119 158.189C34.0089 157.382 37.2939 157.729 40.1534 159.167C43.0128 160.605 45.251 163.035 46.4498 166.002C47.6487 168.97 47.7261 172.272 46.6677 175.293C45.6093 178.313 43.4875 180.845 40.6986 182.415C38.7169 183.535 36.4773 184.119 34.201 184.109V184.109ZM34.201 158.585C31.4807 158.593 28.8393 159.499 26.6872 161.163C24.535 162.826 22.9928 165.154 22.3001 167.785C21.6075 170.415 21.8032 173.201 22.8569 175.709C23.9106 178.217 25.7633 180.306 28.1269 181.653C29.9859 182.682 32.076 183.222 34.201 183.222C36.3259 183.222 38.4161 182.682 40.275 181.653C42.6471 180.31 44.5082 178.22 45.5677 175.709C46.6272 173.198 46.8257 170.406 46.1321 167.77C45.4385 165.134 43.8919 162.802 41.7336 161.137C39.5753 159.473 36.9267 158.569 34.201 158.568V158.585Z" fill="black"/>
<path d="M160.985 184.11C158.761 184.113 156.572 183.554 154.623 182.483L154.479 182.399C151.943 180.964 149.955 178.73 148.823 176.045C147.691 173.361 147.479 170.378 148.221 167.56C148.963 164.743 150.617 162.251 152.924 160.473C155.232 158.694 158.063 157.73 160.976 157.73C163.889 157.73 166.721 158.694 169.028 160.473C171.336 162.251 172.989 164.743 173.731 167.56C174.473 170.378 174.262 173.361 173.13 176.045C171.998 178.73 170.009 180.964 167.474 182.399C167.407 182.439 167.336 182.473 167.262 182.5C165.34 183.561 163.18 184.114 160.985 184.11V184.11ZM160.985 158.585C158.263 158.589 155.619 159.493 153.464 161.155C151.309 162.818 149.764 165.146 149.069 167.777C148.374 170.409 148.569 173.196 149.622 175.706C150.676 178.215 152.529 180.306 154.894 181.653L155.038 181.73C156.862 182.707 158.899 183.218 160.968 183.218C163.037 183.218 165.074 182.707 166.898 181.73L167.025 181.67C169.395 180.329 171.254 178.242 172.314 175.734C173.375 173.226 173.576 170.438 172.886 167.804C172.197 165.17 170.656 162.837 168.504 161.17C166.351 159.503 163.708 158.594 160.985 158.585Z" fill="black"/>
<path d="M56.785 132.612H46.9665C46.8542 132.612 46.7465 132.568 46.667 132.488C46.5876 132.409 46.543 132.301 46.543 132.189V101.513C46.543 101.401 46.5876 101.293 46.667 101.214C46.7465 101.134 46.8542 101.09 46.9665 101.09H56.785C56.8973 101.09 57.0051 101.134 57.0845 101.214C57.164 101.293 57.2086 101.401 57.2086 101.513V132.189C57.2086 132.301 57.164 132.409 57.0845 132.488C57.0051 132.568 56.8973 132.612 56.785 132.612ZM47.4155 131.765H56.336V101.937H47.3901L47.4155 131.765Z" fill="black"/>
<path d="M148.803 132.612H138.264C138.152 132.612 138.044 132.568 137.965 132.488C137.885 132.409 137.841 132.301 137.841 132.189V101.513C137.841 101.401 137.885 101.293 137.965 101.214C138.044 101.134 138.152 101.09 138.264 101.09H148.803C148.915 101.09 149.023 101.134 149.102 101.214C149.182 101.293 149.227 101.401 149.227 101.513V132.189C149.227 132.301 149.182 132.409 149.102 132.488C149.023 132.568 148.915 132.612 148.803 132.612ZM138.688 131.765H148.379V101.937H138.688V131.765Z" fill="black"/>
<path d="M11.5307 149.809C17.8843 149.809 23.0349 144.658 23.0349 138.305C23.0349 131.951 17.8843 126.8 11.5307 126.8C5.17701 126.8 0.0263672 131.951 0.0263672 138.305C0.0263672 144.658 5.17701 149.809 11.5307 149.809Z" fill="#FFE4B6"/>
<path d="M110.673 102.021C110.561 102.021 110.453 101.977 110.373 101.897C110.294 101.818 110.249 101.71 110.249 101.598V88.1112L106.768 84.6463C106.722 84.5997 106.688 84.5436 106.668 84.482C106.647 84.4204 106.641 84.3549 106.649 84.2905C106.657 84.2252 106.68 84.1628 106.717 84.1083C106.754 84.0538 106.803 84.0088 106.861 83.9771L113.638 80.0209L110.249 76.6323C110.17 76.5525 110.125 76.4444 110.125 76.3316C110.125 76.2188 110.17 76.1106 110.249 76.0308C110.329 75.9511 110.437 75.9063 110.55 75.9062C110.663 75.9062 110.771 75.9511 110.851 76.0308L114.587 79.7752C114.634 79.8206 114.67 79.8764 114.692 79.9382C114.714 79.9999 114.722 80.0659 114.714 80.131C114.706 80.1952 114.683 80.2566 114.646 80.3097C114.609 80.3628 114.559 80.4062 114.502 80.436L107.725 84.4007L111.003 87.6198C111.081 87.7025 111.123 87.8117 111.122 87.9248V101.598C111.122 101.656 111.11 101.713 111.087 101.766C111.065 101.819 111.031 101.867 110.989 101.907C110.947 101.946 110.897 101.977 110.843 101.997C110.789 102.016 110.731 102.025 110.673 102.021Z" fill="black"/>
<path d="M126.522 0.363281C123.861 0.363281 121.26 1.15227 119.048 2.63047C116.836 4.10868 115.112 6.20971 114.093 8.66787C113.075 11.126 112.809 13.8309 113.328 16.4405C113.847 19.0501 115.128 21.4471 117.01 23.3285C118.891 25.2099 121.288 26.4912 123.898 27.0102C126.507 27.5293 129.212 27.2629 131.67 26.2447C134.128 25.2265 136.229 23.5022 137.708 21.2899C139.186 19.0777 139.975 16.4767 139.975 13.816C139.975 10.2481 138.557 6.82637 136.035 4.30349C133.512 1.78062 130.09 0.363281 126.522 0.363281V0.363281ZM126.522 23.3295C124.64 23.3295 122.801 22.7715 121.237 21.7262C119.672 20.6808 118.453 19.195 117.733 17.4567C117.013 15.7183 116.824 13.8055 117.191 11.96C117.558 10.1146 118.465 8.41945 119.795 7.08896C121.126 5.75848 122.821 4.8524 124.666 4.48532C126.512 4.11824 128.424 4.30664 130.163 5.0267C131.901 5.74675 133.387 6.96612 134.432 8.5306C135.478 10.0951 136.036 11.9344 136.036 13.816C136.036 15.0653 135.789 16.3024 135.311 17.4567C134.833 18.6109 134.133 19.6597 133.249 20.5431C132.366 21.4265 131.317 22.1272 130.163 22.6053C129.008 23.0834 127.771 23.3295 126.522 23.3295V23.3295Z" fill="#FED45D"/>
<path d="M126.523 23.7535C124.558 23.7535 122.636 23.1707 121.002 22.0788C119.368 20.9869 118.094 19.435 117.342 17.6192C116.59 15.8034 116.393 13.8054 116.777 11.8778C117.16 9.95023 118.107 8.17962 119.496 6.7899C120.886 5.40017 122.657 4.45376 124.584 4.07034C126.512 3.68691 128.51 3.8837 130.326 4.63581C132.142 5.38793 133.693 6.66158 134.785 8.29572C135.877 9.92986 136.46 11.8511 136.46 13.8165C136.458 16.4512 135.41 18.9775 133.547 20.8405C131.684 22.7036 129.158 23.7513 126.523 23.7535V23.7535ZM126.523 4.72655C124.725 4.72655 122.968 5.25966 121.473 6.25847C119.978 7.25729 118.813 8.67694 118.125 10.3379C117.437 11.9989 117.257 13.8265 117.608 15.5898C117.958 17.3531 118.824 18.9728 120.095 20.244C121.367 21.5152 122.986 22.381 124.75 22.7317C126.513 23.0824 128.341 22.9024 130.002 22.2144C131.663 21.5264 133.082 20.3614 134.081 18.8665C135.08 17.3717 135.613 15.6143 135.613 13.8165C135.611 11.4064 134.652 9.0956 132.948 7.3914C131.244 5.6872 128.933 4.72879 126.523 4.72655V4.72655Z" fill="black"/>
<path d="M128.954 53.5903H124.718V42.0437C124.718 41.8065 124.718 41.5184 124.718 41.1965C124.718 40.8746 124.718 40.5188 124.718 40.163C124.718 39.8072 124.718 39.4429 124.761 39.0786C124.803 38.7144 124.761 38.384 124.761 38.079C124.69 38.1661 124.614 38.2482 124.532 38.3247L124.159 38.689L123.744 39.0871C123.592 39.2227 123.456 39.3497 123.32 39.4599L121.025 41.2982L118.975 38.7567L125.404 33.6738H128.869L128.954 53.5903Z" fill="#58595B"/>
<path d="M173.243 63.8486H159.858V60.9174L164.551 55.8345C165.144 55.1992 165.678 54.6146 166.161 54.0725C166.611 53.5788 167.027 53.0552 167.406 52.5052C167.734 52.0215 168.004 51.5012 168.211 50.955C168.399 50.4099 168.493 49.8371 168.491 49.2607C168.509 48.9716 168.464 48.6819 168.361 48.4115C168.257 48.141 168.096 47.8961 167.889 47.6934C167.436 47.3036 166.851 47.1033 166.254 47.1343C165.529 47.1365 164.815 47.32 164.179 47.668C163.425 48.0877 162.726 48.5968 162.095 49.1844L159.799 46.4651C160.214 46.0923 160.646 45.7365 161.086 45.3977C161.545 45.043 162.039 44.7365 162.561 44.4827C163.127 44.209 163.72 43.996 164.331 43.8474C165.042 43.6848 165.77 43.6052 166.5 43.6102C167.363 43.6025 168.222 43.737 169.041 44.0083C169.759 44.2499 170.422 44.633 170.99 45.135C171.527 45.6257 171.946 46.2308 172.218 46.9056C172.516 47.6456 172.663 48.4377 172.65 49.2352C172.653 50.0021 172.515 50.763 172.243 51.4802C171.958 52.2187 171.591 52.9233 171.151 53.5811C170.649 54.3026 170.097 54.9877 169.499 55.6312C168.88 56.3089 168.211 56.9951 167.499 57.6983L165.102 60.1126V60.299H173.235L173.243 63.8486Z" fill="#58595B"/>
<path d="M209.086 67.5597C209.093 68.1969 208.978 68.8296 208.747 69.4234C208.536 69.9596 208.225 70.4511 207.832 70.8721C207.442 71.2943 206.98 71.6442 206.468 71.9056C205.933 72.1892 205.363 72.4027 204.774 72.5409V72.6257C206.113 72.7066 207.391 73.2109 208.425 74.0658C208.844 74.4714 209.171 74.9614 209.386 75.5033C209.601 76.0451 209.697 76.6265 209.67 77.2087C209.678 78.0401 209.516 78.8643 209.196 79.6316C208.877 80.3838 208.38 81.0468 207.747 81.5631C207.027 82.1514 206.193 82.5867 205.299 82.8423C204.165 83.1675 202.988 83.3217 201.809 83.2997C200.792 83.3035 199.776 83.2128 198.776 83.0286C197.864 82.8547 196.976 82.5702 196.133 82.1815V78.6573C196.551 78.8798 196.984 79.0723 197.429 79.2334C197.886 79.3944 198.335 79.5299 198.793 79.6485C199.237 79.7562 199.687 79.841 200.14 79.9027C200.553 79.9518 200.969 79.9773 201.385 79.9789C202.042 79.9965 202.698 79.9224 203.334 79.7586C203.788 79.648 204.213 79.4398 204.579 79.1487C204.879 78.8964 205.107 78.569 205.24 78.1999C205.375 77.8107 205.441 77.4006 205.435 76.9885C205.437 76.6047 205.353 76.2253 205.189 75.8787C204.991 75.5227 204.698 75.2292 204.342 75.0316C203.88 74.7728 203.379 74.5925 202.859 74.4978C202.117 74.357 201.362 74.2917 200.606 74.303H199.191V71.338H200.58C201.284 71.3557 201.988 71.2816 202.673 71.1177C203.152 70.9998 203.604 70.7898 204.003 70.4993C204.316 70.2676 204.559 69.9539 204.706 69.5929C204.842 69.2418 204.911 68.8682 204.909 68.4916C204.93 68.178 204.881 67.8639 204.767 67.5712C204.653 67.2785 204.476 67.0143 204.249 66.7973C203.645 66.347 202.898 66.1331 202.148 66.1958C201.737 66.1962 201.328 66.2417 200.928 66.3313C200.244 66.4786 199.589 66.7361 198.988 67.0938C198.725 67.2547 198.479 67.4072 198.259 67.5682L196.158 64.7472C196.552 64.4543 196.968 64.1936 197.404 63.9678C197.876 63.7198 198.369 63.5129 198.878 63.3494C199.43 63.163 199.997 63.0213 200.572 62.9258C201.217 62.8287 201.868 62.7805 202.52 62.7818C203.426 62.769 204.329 62.8772 205.206 63.1037C205.945 63.2849 206.645 63.5977 207.273 64.0271C207.841 64.4143 208.303 64.937 208.618 65.5479C208.933 66.1588 209.091 66.8386 209.077 67.5258L209.086 67.5597Z" fill="#58595B"/>
<path d="M199.539 131.061C199.459 131.062 199.381 131.04 199.313 130.998C199.246 130.956 199.192 130.896 199.158 130.824L169.457 70.2018C169.432 70.1529 169.417 70.0996 169.413 70.045C169.409 69.9903 169.416 69.9354 169.433 69.8835C169.451 69.8315 169.478 69.7834 169.514 69.7421C169.55 69.7008 169.594 69.667 169.643 69.6427C169.743 69.5925 169.859 69.5839 169.965 69.6188C170.072 69.6537 170.16 69.7293 170.211 69.8291L199.954 130.451C199.979 130.501 199.993 130.556 199.997 130.611C200 130.667 199.993 130.723 199.974 130.775C199.956 130.828 199.928 130.877 199.891 130.918C199.854 130.96 199.809 130.994 199.759 131.019C199.692 131.055 199.615 131.07 199.539 131.061V131.061Z" fill="#1C96A0"/>
<path d="M177.284 15.9258H155.758V37.4518H177.284V15.9258Z" fill="#FED45D"/>
<path d="M173.684 19.5176H159.358V33.8429H173.684V19.5176Z" fill="white"/>
<path d="M174.107 34.2497H158.935V19.0942H174.107V34.2497ZM159.782 33.4026H173.26V19.9414H159.782V33.4026Z" fill="black"/>
<path d="M202.918 43.6953L197.353 53.3274H208.45L202.918 43.6953Z" fill="white"/>
<path d="M209.179 53.7334H196.624L202.918 42.8306L209.179 53.7334ZM198.09 52.8862H207.713L202.91 44.5333L198.09 52.8862Z" fill="black"/>
</g>
<defs>
<clipPath id="clip0_925_5751">
<rect width="256" height="244.818" fill="white" transform="translate(0.0263672 0.364258)"/>
</clipPath>
</defs>
</svg>
