<svg width="247" height="239" viewBox="0 0 247 239" fill="none" xmlns="http://www.w3.org/2000/svg">
<path d="M0.888672 209.841C0.888672 179.758 12.839 150.908 34.1106 129.636C55.3823 108.364 84.2328 96.4141 114.315 96.4141C144.398 96.4141 173.249 108.364 194.52 129.636C215.792 150.908 227.742 179.758 227.742 209.841" fill="#E75553"/>
<path d="M0.0263672 209.842C0.222034 190.625 7.99344 172.261 21.652 158.74C35.3105 145.22 53.7526 137.636 72.9711 137.636C92.1897 137.636 110.632 145.22 124.29 158.74C137.949 172.261 145.72 190.625 145.916 209.842" fill="#FFE4B6"/>
<path d="M33.1241 203.323C42.0863 203.323 49.3517 196.058 49.3517 187.096C49.3517 178.134 42.0863 170.868 33.1241 170.868C24.1618 170.868 16.8965 178.134 16.8965 187.096C16.8965 196.058 24.1618 203.323 33.1241 203.323Z" fill="#E75553"/>
<path d="M203.808 92.8608C203.802 113.3 195.678 132.901 181.222 147.351C166.767 161.801 147.163 169.917 126.724 169.915" stroke="#61ADE0" stroke-width="0.756179" stroke-miterlimit="10"/>
<path d="M48.1876 70.7731C57.1498 70.7731 64.4151 63.5077 64.4151 54.5455C64.4151 45.5832 57.1498 38.3179 48.1876 38.3179C39.2253 38.3179 31.96 45.5832 31.96 54.5455C31.96 63.5077 39.2253 70.7731 48.1876 70.7731Z" fill="#FFE4B6"/>
<path d="M203.809 78.7657C212.771 78.7657 220.036 71.5004 220.036 62.5381C220.036 53.5759 212.771 46.3105 203.809 46.3105C194.846 46.3105 187.581 53.5759 187.581 62.5381C187.581 71.5004 194.846 78.7657 203.809 78.7657Z" fill="#FED45D"/>
<path d="M218.676 10.3545H155.61C150.599 10.3545 146.536 14.4171 146.536 19.4286V57.2225C146.536 62.234 150.599 66.2966 155.61 66.2966H218.676C223.687 66.2966 227.75 62.234 227.75 57.2225V19.4286C227.75 14.4171 223.687 10.3545 218.676 10.3545Z" fill="white"/>
<path d="M155.52 66.2959V85.9943L175.014 66.2959H155.52Z" fill="white"/>
<path d="M218.668 66.6741H175.014C174.914 66.6741 174.818 66.6343 174.747 66.5634C174.676 66.4925 174.636 66.3963 174.636 66.296C174.638 66.1964 174.678 66.1013 174.749 66.0308C174.819 65.9603 174.914 65.9199 175.014 65.9179H218.668C220.97 65.916 223.177 65.0022 224.807 63.3767C226.437 61.7512 227.356 59.5464 227.364 57.2446V19.4356C227.362 17.1299 226.445 14.9192 224.815 13.2888C223.185 11.6584 220.974 10.7416 218.668 10.7396H155.61C153.305 10.7416 151.094 11.6584 149.464 13.2888C147.833 14.9192 146.916 17.1299 146.914 19.4356V57.2446C146.916 59.5503 147.833 61.761 149.464 63.3914C151.094 65.0218 153.305 65.9386 155.61 65.9406C155.71 65.9426 155.805 65.983 155.876 66.0535C155.946 66.124 155.987 66.219 155.989 66.3187C155.989 66.419 155.949 66.5152 155.878 66.5861C155.807 66.657 155.711 66.6968 155.61 66.6968C153.104 66.6948 150.701 65.6983 148.929 63.9261C147.157 62.1539 146.16 59.7508 146.158 57.2446V19.4356C146.158 16.9287 147.154 14.5245 148.927 12.7519C150.699 10.9793 153.104 9.9834 155.61 9.9834H218.668C221.175 9.9834 223.579 10.9793 225.352 12.7519C227.125 14.5245 228.12 16.9287 228.12 19.4356V57.2446C228.112 59.7469 227.113 62.1441 225.342 63.9114C223.57 65.6787 221.171 66.6721 218.668 66.6741V66.6741Z" fill="black"/>
<path d="M155.641 86.3728C155.593 86.3807 155.545 86.3807 155.497 86.3728C155.428 86.3445 155.369 86.2963 155.327 86.2344C155.286 86.1725 155.263 86.0996 155.263 86.025V66.319C155.263 66.2187 155.303 66.1225 155.373 66.0516C155.444 65.9807 155.541 65.9409 155.641 65.9409C155.74 65.9428 155.836 65.9833 155.906 66.0538C155.976 66.1242 156.017 66.2193 156.019 66.319V85.0722L174.749 66.0316C174.784 65.9964 174.825 65.9684 174.871 65.9493C174.916 65.9302 174.965 65.9204 175.014 65.9204C175.063 65.9204 175.112 65.9302 175.158 65.9493C175.203 65.9684 175.244 65.9964 175.279 66.0316C175.314 66.0668 175.342 66.1086 175.362 66.1547C175.381 66.2007 175.391 66.2502 175.391 66.3001C175.391 66.35 175.381 66.3994 175.362 66.4455C175.342 66.4915 175.314 66.5334 175.279 66.5685L155.898 86.267C155.828 86.333 155.737 86.3707 155.641 86.3728V86.3728Z" fill="black"/>
<path d="M158.264 54.5527L197.011 54.5527C199.207 54.5527 200.988 52.7719 200.988 50.5752C200.988 48.3785 199.207 46.5977 197.011 46.5977L158.264 46.5977C156.067 46.5977 154.287 48.3785 154.287 50.5752C154.287 52.7719 156.067 54.5527 158.264 54.5527Z" fill="#1C96A0"/>
<path d="M158.264 43.1279H183.157C185.354 43.1279 187.135 41.3471 187.135 39.1504C187.135 36.9537 185.354 35.1729 183.157 35.1729H158.264C156.067 35.1729 154.286 36.9537 154.286 39.1504C154.286 41.3471 156.067 43.1279 158.264 43.1279Z" fill="#1C96A0"/>
<path d="M209.824 53.6689C208.312 53.5866 206.882 52.9597 205.799 51.9047L207.122 50.0273C207.846 50.7844 208.792 51.2935 209.824 51.4814V48.8708C208.072 48.4517 206.173 47.7854 206.173 45.4806C206.173 43.7709 207.53 42.3168 209.824 42.0779V40.4897H211.42V42.0989C212.708 42.2123 213.924 42.742 214.882 43.6075L213.542 45.401C212.937 44.8641 212.208 44.4854 211.42 44.2989V46.6372C213.185 47.0772 215.155 47.7561 215.155 50.0776C215.155 51.955 213.895 53.43 211.42 53.6689V55.1942H209.824V53.6689ZM209.824 46.2475V44.1983C209.076 44.2989 208.652 44.7054 208.652 45.2837C208.652 45.774 209.126 46.0296 209.824 46.2475V46.2475ZM211.42 49.2479V51.515C212.286 51.3473 212.681 50.8571 212.681 50.3123C212.681 49.7675 212.164 49.4826 211.42 49.2479V49.2479Z" fill="#173588"/>
<path d="M160.435 22.6645C160.114 22.6496 159.794 22.7151 159.505 22.855C159.216 22.995 158.966 23.2051 158.778 23.4661C158.342 24.1387 158.135 24.9346 158.189 25.7346C158.189 27.7259 158.945 28.7341 160.457 28.7593C161.235 28.7278 162.001 28.5668 162.726 28.2829V29.8709C161.946 30.1887 161.11 30.3456 160.268 30.3322C159.714 30.3538 159.162 30.2532 158.651 30.0376C158.14 29.8219 157.683 29.4965 157.311 29.0845C156.566 28.1162 156.2 26.9086 156.283 25.6892C156.263 24.8495 156.436 24.0163 156.79 23.2543C157.103 22.5849 157.608 22.0241 158.242 21.6437C158.921 21.26 159.692 21.0666 160.472 21.0841C161.379 21.0938 162.271 21.3111 163.081 21.7193L162.476 23.2316C162.136 23.0728 161.803 22.9367 161.463 22.8157C161.131 22.7072 160.783 22.6561 160.435 22.6645V22.6645Z" fill="#6D6E71"/>
<path d="M166.499 26.7175V30.1429H164.608V21.2125H167.21C168.155 21.1438 169.097 21.3768 169.902 21.8779C170.2 22.117 170.436 22.425 170.588 22.7754C170.741 23.1258 170.806 23.5081 170.779 23.8893C170.787 24.3907 170.633 24.8813 170.34 25.2883C170.026 25.7117 169.603 26.0412 169.115 26.2411L171.739 30.1278H169.637L167.512 26.7023L166.499 26.7175ZM166.499 25.2051H167.142C167.602 25.2393 168.062 25.1367 168.465 24.9102C168.611 24.802 168.727 24.6585 168.802 24.4932C168.878 24.3279 168.91 24.1461 168.896 23.965C168.911 23.7893 168.878 23.6129 168.801 23.4545C168.724 23.296 168.605 23.1615 168.457 23.0651C168.039 22.8545 167.571 22.7604 167.104 22.7929H166.529L166.499 25.2051Z" fill="#6D6E71"/>
<path d="M178.008 30.1434H172.866V21.2129H178.008V22.7252H174.757V24.7291H177.781V26.2415H174.757V28.51H178.008V30.1434Z" fill="#6D6E71"/>
<path d="M187.271 25.5916C187.315 26.2095 187.229 26.8297 187.018 27.412C186.807 27.9943 186.476 28.5258 186.046 28.9718C185.031 29.8126 183.732 30.2321 182.416 30.1438H179.891V21.2134H182.696C183.92 21.1499 185.122 21.5648 186.046 22.3703C186.463 22.7922 186.788 23.2967 186.999 23.8515C187.21 24.4062 187.303 24.999 187.271 25.5916V25.5916ZM185.305 25.6446C185.305 23.7239 184.46 22.7635 182.772 22.7635H181.758V28.5786H182.575C184.385 28.5786 185.29 27.6006 185.29 25.6446H185.305Z" fill="#6D6E71"/>
<path d="M192.466 30.1434H188.405V29.0696L189.494 28.5705V22.7933L188.405 22.2942V21.2129H192.466V22.2942L191.377 22.7933V28.5705L192.466 29.0696V30.1434Z" fill="#6D6E71"/>
<path d="M197.434 30.1434H195.544V22.7933H193.116V21.2129H199.861V22.7933H197.434V30.1434Z" fill="#6D6E71"/>
<path d="M206.372 30.1434H201.23V21.2129H206.372V22.7252H203.128V24.7291H206.153V26.2415H203.128V28.51H206.372V30.1434Z" fill="#6D6E71"/>
<path d="M215.643 25.5912C215.685 26.2113 215.595 26.8333 215.378 27.4159C215.162 27.9986 214.824 28.5287 214.388 28.9713C213.376 29.8124 212.079 30.232 210.766 30.1434H208.24V21.2129H211.038C212.278 21.1349 213.499 21.5508 214.433 22.3698C214.849 22.7922 215.172 23.2972 215.38 23.8521C215.589 24.407 215.678 24.9995 215.643 25.5912V25.5912ZM213.677 25.6441C213.677 23.7234 212.83 22.7631 211.136 22.7631H210.131V28.5781H210.94C212.76 28.5781 213.672 27.6001 213.677 25.6441V25.6441Z" fill="#6D6E71"/>
<path d="M167.558 146.202C178.074 146.202 186.599 137.677 186.599 127.162C186.599 116.646 178.074 108.121 167.558 108.121C157.042 108.121 148.518 116.646 148.518 127.162C148.518 137.677 157.042 146.202 167.558 146.202Z" stroke="black" stroke-width="0.756179" stroke-miterlimit="10"/>
<path d="M103.774 28.2531C111.325 28.2531 117.446 22.1321 117.446 14.5814C117.446 7.0307 111.325 0.909668 103.774 0.909668C96.2236 0.909668 90.1025 7.0307 90.1025 14.5814C90.1025 22.1321 96.2236 28.2531 103.774 28.2531Z" stroke="black" stroke-width="0.756179" stroke-miterlimit="10"/>
<path d="M238.987 116.847L231.168 130.39H246.768L238.987 116.847Z" fill="#1C96A0"/>
<path d="M49.2691 219.529H88.0157C90.2124 219.529 91.9932 217.749 91.9932 215.552C91.9932 213.355 90.2124 211.574 88.0157 211.574H49.2691C47.0724 211.574 45.2916 213.355 45.2916 215.552C45.2916 217.749 47.0724 219.529 49.2691 219.529Z" fill="#1C96A0"/>
<path d="M49.2687 208.117H74.1621C76.3589 208.117 78.1396 206.336 78.1396 204.139C78.1396 201.943 76.3589 200.162 74.1621 200.162H49.2687C47.072 200.162 45.2912 201.943 45.2912 204.139C45.2912 206.336 47.072 208.117 49.2687 208.117Z" fill="#1C96A0"/>
<path d="M99.4185 113.406H108.16C108.17 113.406 108.179 113.408 108.188 113.412C108.197 113.415 108.205 113.421 108.211 113.428C108.217 113.435 108.222 113.444 108.225 113.453C108.228 113.462 108.229 113.472 108.228 113.481V114.306C108.228 114.359 108.228 114.381 108.16 114.381H104.878V114.457C105.42 114.805 105.809 115.345 105.967 115.969L106.005 116.241H108.16C108.169 116.24 108.179 116.241 108.187 116.244C108.196 116.247 108.204 116.252 108.211 116.259C108.217 116.265 108.222 116.273 108.225 116.282C108.228 116.291 108.229 116.3 108.228 116.309V117.141C108.228 117.187 108.228 117.217 108.16 117.217H106.088C106.088 118.139 105.521 119.047 104.387 119.924C103.741 120.363 103.009 120.657 102.239 120.786C102.239 120.786 102.239 120.824 102.163 120.824L106.844 126.873V126.949H105.067C105.067 126.949 103.237 124.605 99.6378 119.916V119.879H100.205C102.191 119.879 103.383 119.163 103.782 117.731C103.806 117.594 103.819 117.455 103.819 117.315V117.209H99.4488C99.4385 117.211 99.4282 117.209 99.4185 117.206C99.4087 117.203 99.3999 117.197 99.3926 117.19C99.3853 117.183 99.3798 117.174 99.3764 117.164C99.3731 117.154 99.3719 117.144 99.3732 117.134V116.302C99.3731 116.292 99.3751 116.283 99.3789 116.274C99.3828 116.265 99.3885 116.257 99.3957 116.251C99.4028 116.244 99.4112 116.24 99.4204 116.237C99.4295 116.234 99.4392 116.233 99.4488 116.234H103.782C103.64 115.682 103.308 115.197 102.844 114.865C102.29 114.546 101.668 114.367 101.029 114.343H99.4488C99.3958 114.343 99.3732 114.343 99.3732 114.268V113.444C99.3505 113.428 99.3732 113.406 99.4185 113.406Z" fill="#E75553"/>
<path d="M210.116 167.103H162.514C156.91 167.103 152.366 171.646 152.366 177.251V224.852C152.366 230.457 156.91 235 162.514 235H210.116C215.72 235 220.263 230.457 220.263 224.852V177.251C220.263 171.646 215.72 167.103 210.116 167.103Z" fill="#FDFDFE" stroke="#020202" stroke-width="0.756179" stroke-miterlimit="10"/>
<path d="M209.843 167.579H162.665C161.38 167.57 160.106 167.815 158.916 168.3C157.725 168.785 156.642 169.5 155.729 170.404C154.816 171.308 154.09 172.384 153.593 173.569C153.097 174.754 152.839 176.026 152.835 177.311V187.474H219.606V177.311C219.598 174.727 218.565 172.252 216.736 170.428C214.906 168.604 212.427 167.579 209.843 167.579V167.579Z" fill="#173588"/>
<path d="M199.151 176.721C199.153 177.744 198.85 178.746 198.283 179.597C197.715 180.449 196.907 181.113 195.962 181.506C195.016 181.898 193.976 182.001 192.972 181.802C191.968 181.602 191.045 181.11 190.322 180.386C189.598 179.662 189.105 178.74 188.906 177.736C188.706 176.732 188.809 175.691 189.202 174.746C189.594 173.8 190.258 172.992 191.11 172.425C191.962 171.857 192.963 171.555 193.986 171.556C195.356 171.556 196.67 172.1 197.638 173.069C198.607 174.037 199.151 175.351 199.151 176.721Z" fill="#4D5068"/>
<path d="M197.51 176.721C197.51 177.42 197.303 178.103 196.914 178.684C196.526 179.265 195.974 179.718 195.328 179.985C194.683 180.252 193.972 180.321 193.287 180.184C192.602 180.047 191.972 179.71 191.479 179.216C190.985 178.721 190.65 178.091 190.514 177.406C190.379 176.72 190.45 176.01 190.718 175.365C190.987 174.72 191.44 174.169 192.022 173.781C192.604 173.394 193.287 173.188 193.986 173.19C194.921 173.192 195.818 173.565 196.478 174.227C197.139 174.889 197.51 175.786 197.51 176.721V176.721Z" fill="#272834"/>
<path d="M167.845 176.721C167.845 177.742 167.542 178.741 166.975 179.59C166.407 180.44 165.601 181.102 164.657 181.492C163.713 181.883 162.675 181.986 161.673 181.786C160.671 181.587 159.751 181.095 159.028 180.373C158.306 179.651 157.814 178.73 157.615 177.728C157.416 176.727 157.518 175.688 157.909 174.744C158.3 173.801 158.962 172.994 159.811 172.427C160.66 171.859 161.659 171.556 162.68 171.556C164.05 171.556 165.364 172.1 166.332 173.069C167.301 174.037 167.845 175.351 167.845 176.721V176.721Z" fill="#4D5068"/>
<path d="M166.212 176.721C166.212 177.42 166.005 178.102 165.617 178.683C165.229 179.264 164.677 179.717 164.032 179.984C163.387 180.251 162.677 180.321 161.992 180.185C161.307 180.049 160.678 179.712 160.184 179.218C159.69 178.724 159.354 178.095 159.217 177.41C159.081 176.725 159.151 176.015 159.418 175.37C159.686 174.725 160.138 174.173 160.719 173.785C161.3 173.397 161.982 173.19 162.681 173.19C163.617 173.19 164.516 173.562 165.178 174.224C165.84 174.887 166.212 175.785 166.212 176.721V176.721Z" fill="#272834"/>
<path d="M193.82 177.931C193.457 177.931 193.097 177.859 192.762 177.72C192.426 177.581 192.122 177.377 191.865 177.12C191.609 176.863 191.406 176.558 191.268 176.222C191.129 175.886 191.059 175.526 191.06 175.163V165.802C191.06 160.917 194.621 156.546 199.483 156.07C200.784 155.94 202.098 156.084 203.34 156.492C204.581 156.901 205.724 157.565 206.693 158.442C207.663 159.319 208.438 160.389 208.969 161.584C209.499 162.778 209.774 164.071 209.775 165.378V167.095H204.255V165.582C204.276 164.606 203.938 163.656 203.305 162.912C202.672 162.168 201.789 161.681 200.822 161.544C200.29 161.489 199.752 161.545 199.243 161.709C198.734 161.873 198.264 162.141 197.865 162.497C197.466 162.853 197.145 163.289 196.924 163.776C196.702 164.263 196.585 164.79 196.58 165.325V175.103C196.589 175.471 196.524 175.837 196.389 176.18C196.255 176.523 196.053 176.835 195.796 177.099C195.539 177.362 195.231 177.572 194.892 177.714C194.552 177.857 194.188 177.931 193.82 177.931Z" fill="#191C3C"/>
<path d="M162.522 177.931C161.788 177.931 161.084 177.64 160.565 177.12C160.045 176.601 159.754 175.898 159.754 175.163V165.802C159.754 160.917 163.316 156.546 168.178 156.07C169.479 155.939 170.794 156.082 172.037 156.49C173.28 156.898 174.424 157.562 175.395 158.439C176.366 159.316 177.143 160.386 177.675 161.582C178.207 162.777 178.483 164.07 178.484 165.379V167.095H172.957V165.583C172.979 164.606 172.642 163.655 172.009 162.91C171.376 162.166 170.492 161.68 169.524 161.545C168.992 161.49 168.455 161.547 167.947 161.711C167.439 161.876 166.97 162.145 166.572 162.5C166.173 162.856 165.853 163.291 165.633 163.778C165.412 164.264 165.295 164.791 165.289 165.326V175.103C165.297 175.472 165.232 175.838 165.096 176.181C164.961 176.524 164.758 176.836 164.5 177.099C164.242 177.363 163.935 177.572 163.595 177.715C163.255 177.858 162.89 177.931 162.522 177.931V177.931Z" fill="#191C3C"/>
<g opacity="0.3">
<path opacity="0.3" d="M210.297 167.103H205.352C207.993 167.103 210.526 168.152 212.394 170.02C214.261 171.888 215.31 174.421 215.31 177.062V225.041C215.31 227.683 214.261 230.216 212.394 232.083C210.526 233.951 207.993 235 205.352 235H210.297C212.939 235 215.473 233.951 217.342 232.084C219.21 230.216 220.261 227.683 220.263 225.041V177.062C220.261 174.42 219.21 171.887 217.342 170.019C215.473 168.152 212.939 167.103 210.297 167.103V167.103Z" fill="#191C3C"/>
</g>
<path d="M187.43 192.344H181.237C181.032 192.344 180.866 192.51 180.866 192.714V198.907C180.866 199.112 181.032 199.278 181.237 199.278H187.43C187.634 199.278 187.8 199.112 187.8 198.907V192.714C187.8 192.51 187.634 192.344 187.43 192.344Z" fill="#DFE2EC"/>
<path d="M198.576 192.344H192.383C192.179 192.344 192.013 192.51 192.013 192.714V198.907C192.013 199.112 192.179 199.278 192.383 199.278H198.576C198.781 199.278 198.947 199.112 198.947 198.907V192.714C198.947 192.51 198.781 192.344 198.576 192.344Z" fill="#DFE2EC"/>
<path d="M209.73 192.344H203.537C203.332 192.344 203.166 192.51 203.166 192.714V198.907C203.166 199.112 203.332 199.278 203.537 199.278H209.73C209.934 199.278 210.1 199.112 210.1 198.907V192.714C210.1 192.51 209.934 192.344 209.73 192.344Z" fill="#DFE2EC"/>
<path d="M165.13 202.364H158.937C158.732 202.364 158.566 202.53 158.566 202.734V208.927C158.566 209.132 158.732 209.298 158.937 209.298H165.13C165.335 209.298 165.501 209.132 165.501 208.927V202.734C165.501 202.53 165.335 202.364 165.13 202.364Z" fill="#DFE2EC"/>
<path d="M176.284 202.364H170.091C169.887 202.364 169.721 202.53 169.721 202.734V208.927C169.721 209.132 169.887 209.298 170.091 209.298H176.284C176.489 209.298 176.655 209.132 176.655 208.927V202.734C176.655 202.53 176.489 202.364 176.284 202.364Z" fill="#DFE2EC"/>
<path d="M187.43 202.364H181.237C181.032 202.364 180.866 202.53 180.866 202.734V208.927C180.866 209.132 181.032 209.298 181.237 209.298H187.43C187.634 209.298 187.8 209.132 187.8 208.927V202.734C187.8 202.53 187.634 202.364 187.43 202.364Z" fill="#DFE2EC"/>
<path d="M198.576 202.364H192.383C192.179 202.364 192.013 202.53 192.013 202.734V208.927C192.013 209.132 192.179 209.298 192.383 209.298H198.576C198.781 209.298 198.947 209.132 198.947 208.927V202.734C198.947 202.53 198.781 202.364 198.576 202.364Z" fill="#DFE2EC"/>
<path d="M209.73 202.364H203.537C203.332 202.364 203.166 202.53 203.166 202.734V208.927C203.166 209.132 203.332 209.298 203.537 209.298H209.73C209.934 209.298 210.1 209.132 210.1 208.927V202.734C210.1 202.53 209.934 202.364 209.73 202.364Z" fill="#DFE2EC"/>
<path d="M165.13 212.383H158.937C158.732 212.383 158.566 212.548 158.566 212.753V218.946C158.566 219.151 158.732 219.317 158.937 219.317H165.13C165.335 219.317 165.501 219.151 165.501 218.946V212.753C165.501 212.548 165.335 212.383 165.13 212.383Z" fill="#DFE2EC"/>
<path d="M176.284 212.383H170.091C169.887 212.383 169.721 212.548 169.721 212.753V218.946C169.721 219.151 169.887 219.317 170.091 219.317H176.284C176.489 219.317 176.655 219.151 176.655 218.946V212.753C176.655 212.548 176.489 212.383 176.284 212.383Z" fill="#DFE2EC"/>
<path d="M187.43 212.383H181.237C181.032 212.383 180.866 212.548 180.866 212.753V218.946C180.866 219.151 181.032 219.317 181.237 219.317H187.43C187.634 219.317 187.8 219.151 187.8 218.946V212.753C187.8 212.548 187.634 212.383 187.43 212.383Z" fill="#DFE2EC"/>
<path d="M198.576 212.383H192.383C192.179 212.383 192.013 212.548 192.013 212.753V218.946C192.013 219.151 192.179 219.317 192.383 219.317H198.576C198.781 219.317 198.947 219.151 198.947 218.946V212.753C198.947 212.548 198.781 212.383 198.576 212.383Z" fill="#DFE2EC"/>
<path d="M209.73 212.383H203.537C203.332 212.383 203.166 212.548 203.166 212.753V218.946C203.166 219.151 203.332 219.317 203.537 219.317H209.73C209.934 219.317 210.1 219.151 210.1 218.946V212.753C210.1 212.548 209.934 212.383 209.73 212.383Z" fill="#DFE2EC"/>
<path d="M165.13 222.402H158.937C158.732 222.402 158.566 222.568 158.566 222.772V228.965C158.566 229.17 158.732 229.336 158.937 229.336H165.13C165.335 229.336 165.501 229.17 165.501 228.965V222.772C165.501 222.568 165.335 222.402 165.13 222.402Z" fill="#DFE2EC"/>
<path d="M176.284 222.402H170.091C169.887 222.402 169.721 222.568 169.721 222.772V228.965C169.721 229.17 169.887 229.336 170.091 229.336H176.284C176.489 229.336 176.655 229.17 176.655 228.965V222.772C176.655 222.568 176.489 222.402 176.284 222.402Z" fill="#DFE2EC"/>
<path d="M187.43 222.402H181.237C181.032 222.402 180.866 222.568 180.866 222.772V228.965C180.866 229.17 181.032 229.336 181.237 229.336H187.43C187.634 229.336 187.8 229.17 187.8 228.965V222.772C187.8 222.568 187.634 222.402 187.43 222.402Z" fill="#DFE2EC"/>
<path d="M120.38 60.6777H42.9021C36.9759 60.6777 32.1719 65.4818 32.1719 71.4079V227.529C32.1719 233.455 36.9759 238.259 42.9021 238.259H120.38C126.306 238.259 131.11 233.455 131.11 227.529V71.4079C131.11 65.4818 126.306 60.6777 120.38 60.6777Z" fill="#1C96A0"/>
<path d="M120.372 238.637H42.902C39.9545 238.635 37.1283 237.463 35.0441 235.379C32.9599 233.295 31.7881 230.469 31.7861 227.521V71.408C31.7842 69.9467 32.0702 68.4992 32.6278 67.1484C33.1854 65.7976 34.0038 64.5699 35.0361 63.5355C36.0684 62.5011 37.2944 61.6803 38.6441 61.1199C39.9937 60.5595 41.4406 60.2705 42.902 60.2695H120.372C123.319 60.2715 126.144 61.4423 128.228 63.5248C130.312 65.6074 131.484 68.4316 131.488 71.3778V227.521C131.486 230.469 130.315 233.295 128.23 235.379C126.146 237.463 123.32 238.635 120.372 238.637ZM42.902 61.0257C41.5396 61.0257 40.1906 61.2944 38.9323 61.8165C37.6739 62.3385 36.5308 63.1036 35.5686 64.068C34.6063 65.0324 33.8437 66.1771 33.3244 67.4366C32.8051 68.6961 32.5393 70.0457 32.5423 71.408V227.521C32.5443 230.267 33.6354 232.899 35.5761 234.842C37.5169 236.784 40.1488 237.877 42.8944 237.881H120.372C123.119 237.879 125.753 236.787 127.696 234.844C129.638 232.902 130.73 230.268 130.732 227.521V71.408C130.734 70.046 130.468 68.6968 129.948 67.4378C129.428 66.1787 128.666 65.0344 127.704 64.0702C126.742 63.106 125.599 62.3409 124.341 61.8185C123.083 61.2961 121.735 61.0267 120.372 61.0257H42.902Z" fill="#0A0A0A"/>
<path d="M120.38 67.4839H42.9021C40.7346 67.4839 38.9775 69.241 38.9775 71.4085V211.922C38.9775 214.089 40.7346 215.846 42.9021 215.846H120.38C122.548 215.846 124.305 214.089 124.305 211.922V71.4085C124.305 69.241 122.548 67.4839 120.38 67.4839Z" fill="white"/>
<path d="M124.297 71.287V75.0678H38.9697V71.3626C38.9697 70.3257 39.3816 69.3313 40.1147 68.5982C40.8479 67.865 41.8423 67.4531 42.8791 67.4531H120.501C121.504 67.4531 122.465 67.8515 123.174 68.5605C123.883 69.2696 124.282 70.2313 124.282 71.234L124.297 71.287Z" fill="#FFE4B6"/>
<path d="M65.3525 163.443V145.809H45.4348V163.443H65.3525Z" fill="#FFE4B6"/>
<path d="M90.5938 163.443V145.809H70.676V163.443H90.5938Z" fill="#FFE4B6"/>
<path d="M115.827 163.443V145.809H95.9094V163.443H115.827Z" fill="#FFE4B6"/>
<path d="M65.3604 188.147V170.513H45.4426V188.147H65.3604Z" fill="#FFE4B6"/>
<path d="M90.5938 188.147V170.513H70.676V188.147H90.5938Z" fill="#FFE4B6"/>
<path d="M115.835 188.147V170.513H95.9172V188.147H115.835Z" fill="#FFE4B6"/>
<path d="M58.2899 98.7665C57.9672 98.7561 57.647 98.826 57.358 98.9699C57.069 99.1137 56.8202 99.327 56.6339 99.5907C56.2046 100.266 56.0007 101.061 56.0516 101.859C56.0516 103.856 56.8078 104.846 58.3202 104.846C59.0972 104.818 59.864 104.659 60.5887 104.377V105.965C59.8103 106.279 58.9777 106.436 58.1387 106.427C57.585 106.463 57.03 106.376 56.5145 106.171C55.999 105.965 55.536 105.647 55.1593 105.239C54.4107 104.275 54.0421 103.07 54.1234 101.852C54.1068 101.01 54.28 100.175 54.63 99.4092C54.9438 98.74 55.4525 98.1812 56.0894 97.8061C56.7668 97.4234 57.5347 97.2301 58.3126 97.2466C59.2208 97.2567 60.115 97.4712 60.929 97.8742L60.3165 99.3866C59.9895 99.2287 59.6537 99.0898 59.3108 98.9707C58.9851 98.8431 58.6396 98.774 58.2899 98.7665Z" fill="#6D6E71"/>
<path d="M69.7308 97.3223V103.099C69.7448 103.706 69.5932 104.305 69.2923 104.831C68.9912 105.332 68.5457 105.73 68.0143 105.973C67.392 106.252 66.7151 106.389 66.0331 106.374C65.0601 106.435 64.1011 106.118 63.3563 105.489C63.0343 105.178 62.7827 104.802 62.6183 104.386C62.454 103.97 62.3807 103.524 62.4035 103.077V97.3223H64.3015V102.789C64.2559 103.327 64.4033 103.863 64.7174 104.302C64.8978 104.478 65.1143 104.612 65.3521 104.696C65.5898 104.779 65.8428 104.81 66.0936 104.786C66.3403 104.807 66.5886 104.774 66.8212 104.689C67.0537 104.604 67.2648 104.47 67.4396 104.294C67.7495 103.854 67.8965 103.319 67.8555 102.782V97.3223H69.7308Z" fill="#6D6E71"/>
<path d="M73.8143 102.82V106.246H71.9238V97.3226H74.5251C75.4694 97.2517 76.4119 97.482 77.2171 97.9805C77.6849 98.4049 77.9861 98.9822 78.0665 99.6086C78.1469 100.235 78.0012 100.87 77.6557 101.398C77.3389 101.824 76.913 102.156 76.4231 102.359L79.0546 106.246H76.9524L74.82 102.82H73.8143ZM73.8143 101.308H74.4268C74.8884 101.344 75.3502 101.239 75.7501 101.005C75.894 100.897 76.0084 100.755 76.0824 100.591C76.1564 100.427 76.1878 100.247 76.1735 100.068C76.1891 99.8916 76.1574 99.7147 76.0816 99.5552C76.0058 99.3956 75.8887 99.2592 75.7425 99.1602C75.3213 98.9579 74.8553 98.8668 74.389 98.8955H73.8143V101.308Z" fill="#6D6E71"/>
<path d="M82.0721 102.819V106.245H80.1816V97.322H82.7829C83.7273 97.25 84.6701 97.4804 85.4749 97.9799C85.7722 98.2214 86.0072 98.531 86.1598 98.8823C86.3125 99.2337 86.3784 99.6167 86.3521 99.9989C86.3603 100.5 86.2065 100.991 85.9135 101.398C85.6013 101.825 85.1774 102.157 84.6885 102.358L87.3124 106.245H85.2178L83.0854 102.819H82.0721ZM82.0721 101.307H82.677C83.1409 101.342 83.6046 101.236 84.0079 101.005C84.1519 100.897 84.2662 100.754 84.3402 100.59C84.4143 100.426 84.4456 100.246 84.4314 100.067C84.4478 99.8901 84.4156 99.7121 84.3383 99.5522C84.261 99.3923 84.1416 99.2565 83.9928 99.1595C83.5721 98.9556 83.1057 98.8644 82.6392 98.8949H82.0721V101.307Z" fill="#6D6E71"/>
<path d="M93.5737 106.245H88.4316V97.3223H93.5737V98.8724H90.3221V100.831H93.3468V102.381H90.3221V104.687H93.5737V106.245Z" fill="#6D6E71"/>
<path d="M103.351 106.245H100.946L97.0669 99.4925H97.0064C97.0896 100.687 97.1274 101.542 97.1274 102.048V106.245H95.4336V97.3223H97.8231L101.702 104.007C101.642 102.85 101.612 102.026 101.612 101.549V97.3223H103.313L103.351 106.245Z" fill="#6D6E71"/>
<path d="M109.044 106.245H107.154V98.8951H104.727V97.3223H111.472V98.8951H109.044V106.245Z" fill="#6D6E71"/>
<path d="M71.8633 117.4C71.869 118.046 71.8107 118.692 71.6894 119.328C71.6039 119.837 71.4216 120.324 71.1525 120.765C70.9242 121.149 70.5946 121.463 70.1998 121.672C69.7634 121.889 69.2804 121.996 68.7933 121.982C68.3258 121.992 67.8631 121.886 67.4473 121.672C67.0555 121.458 66.7269 121.145 66.4945 120.765C66.2213 120.323 66.0293 119.837 65.9273 119.328C65.7998 118.693 65.739 118.047 65.7459 117.4C65.7379 116.75 65.7936 116.102 65.9122 115.464C66.0023 114.953 66.1814 114.461 66.4415 114.012C66.6742 113.631 67.0028 113.318 67.3943 113.104C67.8283 112.888 68.3086 112.782 68.7933 112.794C69.2607 112.785 69.7231 112.891 70.1393 113.104C70.5334 113.318 70.8646 113.63 71.0996 114.012C71.3752 114.456 71.5698 114.945 71.6743 115.456C71.8049 116.096 71.8683 116.747 71.8633 117.4V117.4ZM67.6212 117.4C67.594 118.165 67.6833 118.93 67.8858 119.668C68.0623 120.172 68.3648 120.424 68.7933 120.424C69.2167 120.424 69.5494 120.167 69.7082 119.668C69.921 118.932 70.0154 118.166 69.988 117.4C70.018 116.621 69.9236 115.842 69.7082 115.093C69.5192 114.579 69.2167 114.337 68.7933 114.337C68.694 114.332 68.5949 114.347 68.5015 114.381C68.4081 114.415 68.3222 114.467 68.2488 114.534C68.079 114.69 67.9538 114.888 67.8858 115.108C67.7838 115.42 67.7153 115.742 67.6817 116.069C67.6439 116.439 67.6212 116.885 67.6212 117.4Z" fill="#6D6E71"/>
<path d="M78.7446 117.399C78.7522 118.046 78.6965 118.692 78.5782 119.328C78.4894 119.836 78.3073 120.323 78.0413 120.764C77.813 121.149 77.4834 121.463 77.0885 121.672C76.6522 121.889 76.1692 121.995 75.682 121.982C75.2146 121.992 74.7519 121.886 74.336 121.672C73.9415 121.459 73.6102 121.146 73.3757 120.764C73.0994 120.325 72.9071 119.838 72.8086 119.328C72.6783 118.693 72.6149 118.047 72.6195 117.399C72.6138 116.75 72.6721 116.102 72.7934 115.464C72.88 114.951 73.0594 114.459 73.3228 114.012C73.5547 113.633 73.8802 113.321 74.268 113.104C74.705 112.889 75.1875 112.783 75.6745 112.794C76.1419 112.785 76.6043 112.891 77.0205 113.104C77.413 113.32 77.7436 113.632 77.9808 114.012C78.2539 114.456 78.4459 114.945 78.548 115.456C78.6848 116.095 78.7508 116.746 78.7446 117.399V117.399ZM74.51 117.399C74.4828 118.165 74.5721 118.93 74.7746 119.668C74.946 120.172 75.2485 120.424 75.682 120.424C76.1055 120.424 76.4382 120.167 76.597 119.668C76.8097 118.931 76.9042 118.166 76.8768 117.399C76.9068 116.621 76.8123 115.842 76.597 115.093C76.408 114.579 76.1055 114.337 75.682 114.337C75.5828 114.332 75.4837 114.347 75.3903 114.381C75.2969 114.415 75.211 114.467 75.1376 114.533C74.9678 114.689 74.8425 114.888 74.7746 115.108C74.669 115.419 74.6004 115.741 74.5705 116.069C74.5327 116.439 74.51 116.885 74.51 117.399Z" fill="#6D6E71"/>
<path d="M85.6329 117.399C85.6405 118.045 85.5848 118.691 85.4665 119.327C85.3777 119.835 85.1956 120.322 84.9296 120.764C84.6972 121.145 84.3686 121.458 83.9768 121.671C83.5405 121.888 83.0575 121.995 82.5703 121.981C82.1005 121.991 81.6356 121.884 81.2168 121.671C80.8288 121.455 80.5032 121.143 80.2716 120.764C79.9953 120.324 79.803 119.837 79.7044 119.327C79.5704 118.693 79.507 118.047 79.5154 117.399C79.5114 116.75 79.5671 116.102 79.6817 115.463C79.7743 114.951 79.956 114.46 80.2186 114.011C80.4484 113.631 80.7744 113.318 81.1639 113.104C81.6002 112.887 82.0832 112.78 82.5703 112.794C83.0377 112.784 83.5002 112.891 83.9163 113.104C84.3067 113.319 84.6348 113.632 84.8691 114.011C85.1604 114.455 85.3656 114.95 85.4741 115.47C85.5972 116.106 85.6504 116.752 85.6329 117.399V117.399ZM81.3983 117.399C81.3675 118.164 81.4568 118.93 81.6629 119.667C81.8394 120.171 82.1418 120.423 82.5703 120.423C82.9938 120.423 83.3265 120.166 83.4853 119.667C83.6949 118.93 83.7867 118.165 83.7575 117.399C83.7893 116.62 83.6975 115.842 83.4853 115.092C83.2963 114.578 82.9938 114.336 82.5703 114.336C82.4711 114.332 82.372 114.347 82.2786 114.38C82.1851 114.414 82.0993 114.466 82.0259 114.533C81.8561 114.689 81.7308 114.887 81.6629 115.108C81.5534 115.417 81.4848 115.74 81.4588 116.068C81.421 116.438 81.3983 116.885 81.3983 117.399Z" fill="#6D6E71"/>
<path d="M92.5225 117.399C92.5301 118.045 92.4744 118.691 92.3562 119.327C92.2638 119.834 92.082 120.32 91.8193 120.764C91.5869 121.145 91.2583 121.458 90.8665 121.671C90.4295 121.886 89.947 121.993 89.46 121.981C88.9901 121.992 88.525 121.885 88.1064 121.671C87.7179 121.453 87.3903 121.141 87.1537 120.764C86.8832 120.322 86.6937 119.835 86.5941 119.327C86.4601 118.693 86.3967 118.047 86.405 117.399C86.3971 116.75 86.4528 116.101 86.5714 115.463C86.6639 114.951 86.8457 114.46 87.1083 114.011C87.3381 113.631 87.6641 113.318 88.0535 113.104C88.4898 112.887 88.9728 112.78 89.46 112.794C89.9251 112.783 90.3853 112.89 90.7984 113.104C91.1926 113.317 91.5237 113.63 91.7588 114.011C92.0344 114.455 92.229 114.944 92.3335 115.455C92.4678 116.094 92.5312 116.746 92.5225 117.399V117.399ZM88.2879 117.399C88.2591 118.164 88.3458 118.928 88.545 119.667C88.7265 120.181 89.029 120.423 89.46 120.423C89.891 120.423 90.2162 120.166 90.375 119.667C90.5845 118.93 90.6764 118.165 90.6472 117.399C90.679 116.62 90.5871 115.842 90.375 115.092C90.1859 114.578 89.8835 114.336 89.46 114.336C89.3595 114.331 89.259 114.345 89.1642 114.379C89.0694 114.413 88.9823 114.465 88.908 114.533C88.743 114.693 88.6186 114.89 88.545 115.108C88.4422 115.419 88.3762 115.741 88.3484 116.068C88.3032 116.51 88.283 116.954 88.2879 117.399V117.399Z" fill="#6D6E71"/>
<path d="M81.6406 234.145C85.512 234.145 88.6504 231.007 88.6504 227.136C88.6504 223.264 85.512 220.126 81.6406 220.126C77.7692 220.126 74.6309 223.264 74.6309 227.136C74.6309 231.007 77.7692 234.145 81.6406 234.145Z" fill="white"/>
<path d="M81.6405 234.516C80.1787 234.517 78.7493 234.085 77.5332 233.274C76.3171 232.463 75.369 231.309 74.8089 229.959C74.2488 228.609 74.1019 227.122 74.3867 225.689C74.6715 224.255 75.3753 222.938 76.409 221.904C77.4426 220.87 78.7597 220.167 80.1935 219.882C81.6274 219.597 83.1134 219.744 84.4637 220.304C85.814 220.864 86.9677 221.812 87.7789 223.028C88.5901 224.244 89.0223 225.674 89.0209 227.136C89.0169 229.092 88.238 230.967 86.8548 232.35C85.4716 233.733 83.5967 234.512 81.6405 234.516V234.516ZM81.6405 220.504C80.3286 220.502 79.0457 220.89 77.9541 221.618C76.8625 222.346 76.0114 223.381 75.5083 224.593C75.0052 225.804 74.8728 227.138 75.1278 228.425C75.3828 229.712 76.0138 230.894 76.941 231.822C77.8682 232.75 79.0498 233.383 80.3364 233.639C81.623 233.896 82.9568 233.765 84.1691 233.263C85.3813 232.762 86.4175 231.912 87.1465 230.821C87.8755 229.73 88.2647 228.448 88.2647 227.136C88.2627 225.379 87.5644 223.694 86.3228 222.451C85.0811 221.208 83.3975 220.508 81.6405 220.504V220.504Z" fill="black"/>
<path d="M98.2357 121.452C97.1833 121.394 96.1876 120.958 95.4336 120.223L96.355 118.916C96.859 119.443 97.5173 119.798 98.2357 119.929V118.111C97.016 117.819 95.6939 117.356 95.6939 115.751C95.6939 114.561 96.6387 113.548 98.2357 113.382V112.276H99.3472V113.397C100.244 113.476 101.09 113.844 101.757 114.447L100.824 115.696C100.403 115.322 99.8957 115.058 99.3472 114.928V116.556C100.576 116.863 101.948 117.335 101.948 118.951C101.948 120.258 101.07 121.285 99.3472 121.452V122.514H98.2357V121.452ZM98.2357 116.285V114.858C97.7151 114.928 97.4197 115.211 97.4197 115.614C97.4197 115.955 97.7502 116.133 98.2357 116.285V116.285ZM99.3472 118.374V119.952C99.9498 119.835 100.225 119.494 100.225 119.115C100.225 118.735 99.8649 118.537 99.3472 118.374V118.374Z" fill="#173588"/>
<path d="M49.4204 209.804H88.167C90.3637 209.804 92.1445 208.023 92.1445 205.827C92.1445 203.63 90.3637 201.849 88.167 201.849H49.4204C47.2237 201.849 45.4429 203.63 45.4429 205.827C45.4429 208.023 47.2237 209.804 49.4204 209.804Z" fill="#FFE4B6"/>
<path d="M49.4195 199.285H68.8457C71.0425 199.285 72.8232 197.505 72.8232 195.308C72.8232 193.111 71.0425 191.33 68.8457 191.33H49.4195C47.2228 191.33 45.442 193.111 45.442 195.308C45.442 197.505 47.2228 199.285 49.4195 199.285Z" fill="#FFE4B6"/>
</svg>
