<svg width="20" height="24" viewBox="0 0 20 24" fill="none" xmlns="http://www.w3.org/2000/svg">
<path fill-rule="evenodd" clip-rule="evenodd" d="M7.79077 5.29294C7.7346 4.92706 7.69229 4.56534 7.66496 4.20357C7.62377 3.66092 7.64923 3.11412 7.63463 2.57147C7.62826 2.34126 7.60317 1.74106 7.61328 1.65473C7.70502 0.902425 8.25806 0.787304 8.41981 0.766749C8.49807 0.754416 9.30161 0.655797 9.47497 1.63421C9.68765 2.8305 9.7558 4.03501 9.68054 5.21486C9.85615 6.21794 10.1565 7.21688 10.553 8.1213C12.1309 11.7184 15.1376 12.0678 18.3952 12.035C18.8962 12.0267 19.3122 12.4584 19.3384 13.0051C19.3646 13.556 18.9916 14.0329 18.4929 14.0822C16.672 14.2754 13.4414 15.8787 12.3244 17.5478C12.0908 17.8972 11.9549 18.74 11.7751 19.5663C11.5243 20.7133 11.2258 21.8479 10.8915 22.3248C10.8413 22.3987 10.2313 23.1552 10.0494 23.2662C9.61201 23.5293 9.26193 23.3771 9.0631 23.2374C8.86428 23.0976 8.63924 22.8222 8.54937 22.3659C8.45539 21.889 8.53477 20.9105 8.52017 20.7009C8.467 19.9404 8.32847 18.4481 8.04577 17.1655C7.89337 16.4748 7.73086 15.8376 7.46201 15.5211C6.46676 14.3494 4.87541 14.5221 3.53531 14.7153C3.38141 14.7359 3.22752 14.7606 3.074 14.7811C2.52845 14.9579 1.94918 15.0894 1.33698 15.1675C0.412498 15.2867 0.260487 14.3535 0.25225 14.2919C0.235026 14.1562 0.170991 13.4574 0.867816 13.1778C0.943826 13.149 1.50474 13.0134 1.72079 12.9599C2.02183 12.8859 2.32624 12.8284 2.63178 12.775C5.7879 11.6979 7.50208 8.67217 7.79077 5.29294ZM8.87401 9.02986C10.0655 11.7349 11.8736 13.0422 14.0169 13.6341H14.0165C12.6783 14.4029 11.461 15.3649 10.8158 16.331C10.5709 16.6968 10.3463 17.4327 10.1437 18.259C10.034 17.4902 9.88574 16.6721 9.68991 15.9733C9.46712 15.1757 9.16718 14.5139 8.83244 14.1193C8.18616 13.3587 7.37513 12.9353 6.50307 12.7256C7.547 11.7102 8.33857 10.444 8.87401 9.02986Z" fill="#434343"/>
</svg>
