<svg width="31" height="35" viewBox="0 0 31 35" fill="none" xmlns="http://www.w3.org/2000/svg">
<path fill-rule="evenodd" clip-rule="evenodd" d="M4.30226 15.6097C5.7024 15.0619 7.1758 14.3339 8.31201 13.2799C9.66146 12.0281 10.2103 10.4158 10.5788 8.71862C11.052 6.53821 11.241 4.21554 11.8148 2.0316C12.0272 1.22058 12.436 0.914008 12.6114 0.777953C13.0548 0.434284 13.503 0.342421 13.9246 0.376876C14.4243 0.416632 15.1108 0.624234 15.5622 1.54393C15.6266 1.67556 15.7102 1.87612 15.7666 2.15088C15.8076 2.35231 15.8341 2.98221 15.8776 3.24195C15.9862 3.88159 16.0772 4.52124 16.1625 5.16441C16.4465 7.30506 16.6099 9.12321 17.5071 11.0898C18.7246 13.7597 19.9445 15.3932 21.5989 16.1168C23.1986 16.8165 25.1113 16.6849 27.5552 16.1362C27.7877 16.0744 28.0178 16.0214 28.2455 15.9781C29.323 15.7713 30.353 16.5479 30.5646 17.7265C30.7763 18.9041 30.0915 20.0517 29.0237 20.3106C28.8008 20.3645 28.5811 20.4157 28.3639 20.4626C25.0614 21.3602 21.2384 24.5636 19.0167 27.3687C18.3319 28.2336 17.3293 30.6516 16.3065 32.1942C15.5517 33.3321 14.7036 34.0821 13.9914 34.3472C13.5143 34.5256 13.1119 34.4983 12.7796 34.4082C12.2968 34.2774 11.8961 33.9902 11.5887 33.5335C11.4213 33.2835 11.266 32.9486 11.1919 32.521C11.1565 32.3152 11.1525 31.7922 11.1533 31.5554C10.9449 30.7683 10.6898 29.9996 10.504 29.2054C10.0606 27.3103 9.19071 26.1106 8.1575 24.5256C7.19108 23.0423 6.15307 22.1102 4.63142 21.3664C4.43347 21.3134 2.83617 20.884 2.27209 20.6375C1.4481 20.2761 1.05539 19.671 0.912962 19.345C0.670753 18.7919 0.64583 18.3087 0.694111 17.9058C0.765727 17.3112 1.00874 16.8024 1.44005 16.3916C1.70721 16.1362 2.10633 15.8879 2.64064 15.7669C3.05344 15.6724 4.14856 15.6176 4.30226 15.6097ZM13.6728 12.521C13.7468 12.7021 13.8257 12.8842 13.9094 13.0679C15.6925 16.9782 17.6865 19.1612 20.1102 20.2205L20.1915 20.255C18.5701 21.5766 17.1023 23.0538 15.9806 24.47C15.5187 25.0531 14.9072 26.2643 14.2465 27.5065C13.6462 25.3641 12.6645 23.8498 11.4301 21.9548C10.4871 20.5085 9.49892 19.4201 8.28465 18.5331C9.22693 18.0021 10.1258 17.3802 10.9087 16.6539C12.2123 15.4445 13.0741 14.0433 13.6728 12.521Z" fill="#434343"/>
</svg>
