<svg width="175" height="17" viewBox="0 0 175 17" fill="none" xmlns="http://www.w3.org/2000/svg">
<path fill-rule="evenodd" clip-rule="evenodd" d="M104.557 7.94077C81.5045 8.21766 58.4407 9.31609 35.4888 11.2795C24.5767 12.2131 11.9045 12.0964 1.32108 15.2795C0.793735 15.4397 0.894165 15.9203 0.90558 15.9683C0.928408 16.0667 1.02431 16.3939 1.44436 16.41C1.49002 16.4123 1.81188 16.3665 1.93516 16.3505C5.0604 15.9386 8.17424 15.458 11.3018 15.069C22.0997 13.7212 32.9297 12.7029 43.7756 11.8104C58.1713 10.625 72.6904 9.99343 87.125 9.49915C95.026 9.22912 103.116 9.58838 111.043 9.03003C113.953 9.01401 116.864 9.01177 119.775 9.02092C131.942 9.0644 144.096 9.52664 156.243 10.1605C160.149 10.3642 163.128 10.5839 166.952 10.7326C168.404 10.7898 170.708 10.8287 172.31 10.8539C172.545 10.8585 173.146 10.863 173.395 10.8653C173.42 10.8699 173.445 10.8699 173.472 10.8699C173.568 10.8699 173.614 10.863 173.623 10.863C174.166 10.7829 174.116 10.268 174.102 10.1902C174.1 10.1742 174.018 9.73942 173.55 9.7234C173.438 9.71883 172.637 9.71429 172.328 9.70972C170.735 9.68454 168.441 9.64564 166.996 9.59072C163.179 9.44197 160.202 9.22229 156.303 9.01863C144.137 8.38476 131.965 7.92022 119.779 7.87674C118.291 7.87217 116.8 7.86987 115.312 7.87216C115.261 7.74173 115.149 7.59527 114.903 7.5312C114.672 7.4717 113.022 7.41908 112.385 7.36645C107.671 6.97743 107.81 6.99573 102.623 6.67765C94.768 6.19481 93.5718 6.08491 85.4014 5.88125C70.5605 5.51054 55.7127 5.54032 40.8695 5.57694C33.5415 5.59753 25.6952 6.0941 18.2554 5.16731C20.7072 4.87898 23.1681 4.66846 25.6245 4.42818C34.0117 3.60895 42.4059 3.10091 50.8274 2.74393C71.0285 1.88808 91.2615 1.54715 111.456 2.71421C107.157 2.7554 102.861 2.85148 98.5621 2.91326C81.0639 3.16956 63.3968 2.97736 45.9352 4.30689C45.6224 4.33206 45.3873 4.60665 45.4101 4.92015C45.4329 5.23595 45.7092 5.47166 46.0219 5.44878C63.4607 4.11924 81.1028 4.31374 98.5781 4.05744C105.071 3.96362 111.561 3.7943 118.053 3.84464C120.281 3.86295 122.509 3.94534 124.738 3.9728C125.178 3.97967 126.313 4.06662 126.475 4.03001C126.833 3.94992 126.911 3.68445 126.934 3.55401C126.945 3.47621 126.982 3.02769 126.434 2.86751C122.694 1.77368 115.793 1.82402 112.159 1.60891C91.7158 0.396088 71.2316 0.734755 50.7794 1.59975C42.3374 1.95902 33.9227 2.46936 25.5126 3.29088C22.5746 3.57692 19.6297 3.82406 16.703 4.20393C16.2305 4.26571 15.169 4.35497 14.6553 4.4488C14.4407 4.4877 14.2855 4.54258 14.217 4.58148C13.9499 4.73251 13.902 4.9522 13.902 5.10094C13.8997 5.21536 13.9476 5.61811 14.5069 5.72795C23.0289 7.40073 32.3019 6.744 40.8718 6.72111C55.7058 6.6845 70.5422 6.65471 85.374 7.02543C93.5238 7.22909 94.7155 7.33669 102.555 7.81953C103.329 7.8653 103.984 7.90644 104.557 7.94077Z" fill="#4D4D4D"/>
</svg>
