<svg width="845" height="239" viewBox="0 0 845 239" fill="none" xmlns="http://www.w3.org/2000/svg">
<g clip-path="url(#clip0_815_2728)">
<path d="M591.1 47.67C591.1 25.4902 573.12 7.51001 550.94 7.51001C528.761 7.51001 510.78 25.4902 510.78 47.67C510.78 69.8498 528.761 87.83 550.94 87.83C573.12 87.83 591.1 69.8498 591.1 47.67Z" fill="#7CC8C2"/>
<path d="M591.1 93.9999C588.059 93.9999 585.047 93.4009 582.237 92.237C579.428 91.0731 576.874 89.3671 574.724 87.2165C572.573 85.0659 570.867 82.5128 569.703 79.7029C568.539 76.893 567.94 73.8813 567.94 70.8399C567.94 67.7985 568.539 64.7869 569.703 61.977C570.867 59.1671 572.573 56.6139 574.724 54.4633C576.874 52.3127 579.428 50.6068 582.237 49.4429C585.047 48.279 588.059 47.6799 591.1 47.6799" fill="#7CC8C2"/>
<path d="M378.32 27.4299L369.9 42.0199H386.7L378.32 27.4299Z" fill="#1C96A0"/>
<path d="M330.94 33.92L306.12 9.1L340.12 0L330.94 33.92ZM308.37 9.71L330.37 31.71L338.49 1.71L308.37 9.71Z" fill="#1C96A0"/>
<path d="M675.15 51.8701L666.04 17.8701L700 27.0501L675.15 51.8701ZM667.68 19.5301L675.75 49.6301L697.75 27.6301L667.68 19.5301Z" fill="#1C96A0"/>
<path d="M294.4 238C294.4 205.047 307.491 173.443 330.792 150.142C354.094 126.841 385.697 113.75 418.65 113.75C451.604 113.75 483.207 126.841 506.508 150.142C529.81 173.443 542.9 205.047 542.9 238" fill="#E75553"/>
<path d="M465.13 238C465.367 216.577 474.044 196.112 489.277 181.047C504.51 165.982 525.07 157.532 546.495 157.532C567.919 157.532 588.479 165.982 603.712 181.047C618.945 196.112 627.622 216.577 627.86 238" fill="#1C96A0"/>
<path d="M571.37 238C571.228 222.586 574.14 207.296 579.94 193.014C585.74 178.732 594.313 165.741 605.162 154.79C616.011 143.84 628.923 135.148 643.151 129.216C657.378 123.284 672.64 120.23 688.055 120.23C703.47 120.23 718.732 123.284 732.96 129.216C747.188 135.148 760.099 143.84 770.949 154.79C781.798 165.741 790.37 178.732 796.17 193.014C801.97 207.296 804.883 222.586 804.74 238" fill="#61ADE0"/>
<path d="M827.06 238.01C836.72 238.01 844.55 230.179 844.55 220.52C844.55 210.861 836.72 203.03 827.06 203.03C817.401 203.03 809.57 210.861 809.57 220.52C809.57 230.179 817.401 238.01 827.06 238.01Z" fill="#7CC8C2"/>
<path d="M8.27 235.85C12.8374 235.85 16.54 232.147 16.54 227.58C16.54 223.013 12.8374 219.31 8.27 219.31C3.70261 219.31 0 223.013 0 227.58C0 232.147 3.70261 235.85 8.27 235.85Z" fill="#7CC8C2"/>
<path d="M191.55 140.75C203.358 140.75 212.93 131.178 212.93 119.37C212.93 107.562 203.358 97.99 191.55 97.99C179.742 97.99 170.17 107.562 170.17 119.37C170.17 131.178 179.742 140.75 191.55 140.75Z" fill="#FFE4B6"/>
<path d="M206.67 119.75C195.135 119.731 183.963 115.713 175.057 108.382C166.152 101.051 160.063 90.8588 157.828 79.5423C155.593 68.2258 157.35 56.4844 162.8 46.3179C168.25 36.1515 177.056 28.1887 187.718 23.7858C198.379 19.3829 210.238 18.8121 221.273 22.1707C232.309 25.5293 241.838 32.6096 248.24 42.2056C254.641 51.8016 257.517 63.3199 256.38 74.7988C255.242 86.2777 250.16 97.0072 242 105.16C237.365 109.803 231.857 113.483 225.794 115.987C219.73 118.491 213.23 119.77 206.67 119.75ZM172 104.58C180.028 112.611 190.592 117.609 201.893 118.723C213.193 119.838 224.53 117 233.973 110.692C243.415 104.384 250.378 94.998 253.675 84.1321C256.972 73.2661 256.4 61.593 252.055 51.1018C247.711 40.6106 239.863 31.9505 229.849 26.5971C219.835 21.2436 208.274 19.5282 197.137 21.743C186 23.9578 175.975 29.9658 168.771 38.7433C161.567 47.5209 157.63 58.5247 157.63 69.88C157.634 82.8935 162.802 95.3735 172 104.58Z" fill="black"/>
<path d="M783.43 133.55C779.396 133.559 775.4 132.769 771.674 131.224C767.947 129.679 764.564 127.411 761.72 124.55C756.7 119.526 753.577 112.917 752.883 105.848C752.189 98.7797 753.968 91.6895 757.916 85.7854C761.864 79.8813 767.737 75.5286 774.534 73.4691C781.331 71.4095 788.632 71.7704 795.193 74.4902C801.754 77.2101 807.169 82.1207 810.515 88.3854C813.862 94.65 814.932 101.881 813.545 108.847C812.158 115.812 808.398 122.081 802.907 126.586C797.416 131.09 790.532 133.551 783.43 133.55ZM783.43 72.9399C777.525 72.9488 771.755 74.7057 766.848 77.9893C761.94 81.2729 758.115 85.936 755.854 91.3907C753.593 96.8453 752.997 102.847 754.143 108.64C755.288 114.433 758.123 119.756 762.29 123.94C765.763 127.427 770.043 130.003 774.751 131.439C779.458 132.875 784.447 133.127 789.275 132.172C794.103 131.217 798.621 129.086 802.427 125.966C806.234 122.846 809.211 118.836 811.096 114.289C812.98 109.743 813.714 104.801 813.23 99.9036C812.747 95.0059 811.062 90.3032 808.325 86.2128C805.589 82.1224 801.884 78.7709 797.542 76.4555C793.199 74.1401 788.352 72.9325 783.43 72.9399Z" fill="black"/>
<path d="M84.6599 183.77H30.4199V238.01H84.6599V183.77Z" fill="#7CC8C2"/>
<path d="M138.9 129.52H84.6602V183.76H138.9V129.52Z" fill="#7CC8C2"/>
<path d="M193.14 183.77H138.9V238.01H193.14V183.77Z" fill="#7CC8C2"/>
<path d="M247.38 129.52H193.14V183.76H247.38V129.52Z" fill="#7CC8C2"/>
<path d="M301.63 183.77H247.39V238.01H301.63V183.77Z" fill="#7CC8C2"/>
<path d="M355.87 129.52H301.63V183.76H355.87V129.52Z" fill="#7CC8C2"/>
<path d="M479.64 212C451.27 212 424.84 212.13 398.41 211.77C396.25 211.77 393.14 208.82 392.15 206.52C382.15 183.22 375.15 159.18 376.55 133.41C378.03 105.89 390.26 84.9499 414.19 70.7599C418.19 68.4099 421.07 63.9699 423.95 60.1099C428 54.6799 431.56 48.8799 435.37 43.1699C437.52 44.7999 438.46 45.1699 438.45 45.5399C438.26 61.5399 447.35 70.2499 459.76 79.5399C475.69 91.4399 488.85 107.22 502.28 122.15C504.81 124.95 505.09 133.27 502.79 136.15C499.24 140.55 494.68 147.51 486.15 142.49C471.96 134.13 457.57 134.59 442.78 143.41C458.32 163.75 478 182.07 479.64 212Z" fill="#FFE4B6"/>
<path d="M373.38 238C371.57 222.25 375.84 217.24 391.12 217.2C419.92 217.12 448.724 217.12 477.53 217.2C492.39 217.2 496.38 221.74 495.4 238H373.38Z" fill="#FFE4B6"/>
<path d="M538.16 40.9801C541.314 40.9801 543.87 38.4236 543.87 35.2701C543.87 32.1165 541.314 29.5601 538.16 29.5601C535.007 29.5601 532.45 32.1165 532.45 35.2701C532.45 38.4236 535.007 40.9801 538.16 40.9801Z" fill="#1C96A0"/>
<path d="M562.229 40.9801C565.383 40.9801 567.94 38.4236 567.94 35.2701C567.94 32.1165 565.383 29.5601 562.229 29.5601C559.076 29.5601 556.52 32.1165 556.52 35.2701C556.52 38.4236 559.076 40.9801 562.229 40.9801Z" fill="#1C96A0"/>
<path d="M550.33 73.92C535.33 73.92 530.27 60.29 530.22 60.15C530.158 59.9792 530.131 59.798 530.139 59.6167C530.147 59.4354 530.191 59.2574 530.268 59.0931C530.346 58.9287 530.454 58.7811 530.588 58.6588C530.722 58.5364 530.879 58.4417 531.05 58.38C531.221 58.3182 531.402 58.2907 531.583 58.2991C531.765 58.3074 531.943 58.3513 532.107 58.4284C532.271 58.5055 532.419 58.6141 532.541 58.7482C532.664 58.8824 532.758 59.0392 532.82 59.21C533 59.7 537.31 71.15 550.33 71.15C554.17 71.1635 557.942 70.1392 561.248 68.1853C564.554 66.2314 567.27 63.4206 569.11 60.05C569.272 59.7211 569.558 59.47 569.905 59.3518C570.252 59.2337 570.631 59.2582 570.96 59.42C571.289 59.5817 571.54 59.8675 571.658 60.2145C571.776 60.5614 571.752 60.9411 571.59 61.27C569.523 65.1052 566.454 68.3075 562.71 70.5353C558.965 72.7631 554.687 73.9329 550.33 73.92Z" fill="#1C96A0"/>
<path d="M783.6 96.75H639.51V238.24H783.6V96.75Z" fill="#E75553"/>
<path d="M705.64 172.11H639.51V238.24H705.64V172.11Z" fill="#FED45D"/>
<path d="M783.6 172.11H717.47V238.24H783.6V172.11Z" fill="#FED45D"/>
<path d="M783.6 96.75H717.47V162.88H783.6V96.75Z" fill="#FED45D"/>
<path d="M705.64 96.75H639.51V162.88H705.64V96.75Z" fill="#FED45D"/>
<path d="M620.67 177.66H558.98V238.24H620.67V177.66Z" fill="#E75553"/>
<path d="M587.29 209.92H558.98V238.23H587.29V209.92Z" fill="#FED45D"/>
<path d="M620.67 209.92H592.36V238.23H620.67V209.92Z" fill="#FED45D"/>
<path d="M620.67 177.66H592.36V205.97H620.67V177.66Z" fill="#FED45D"/>
<path d="M587.29 177.66H558.98V205.97H587.29V177.66Z" fill="#FED45D"/>
<path d="M301.99 158.58H301.18V226.04H301.99V158.58Z" fill="black"/>
<path d="M305.6 237.5C305.6 237.5 306.42 198.39 268.29 197.25C268.29 197.25 264.05 240 305.6 237.5Z" fill="#1C96A0"/>
<path d="M302.24 238C291.7 238 283.39 234.91 277.5 228.78C271.61 222.65 269.23 214.3 268.35 208.47C267.783 204.741 267.625 200.962 267.88 197.2V196.82H268.26C277.04 197.08 284.49 199.38 290.4 203.66C295.271 207.257 299.121 212.062 301.57 217.6C304.356 223.864 305.853 230.625 305.97 237.48V237.86H305.6C304.47 238 303.35 238 302.24 238ZM268.66 197.66C268.46 201.238 268.628 204.826 269.16 208.37C270.02 214.08 272.27 222.16 278.09 228.22C284.35 234.73 293.47 237.72 305.19 237.11C305.012 230.518 303.541 224.025 300.86 218C294.92 205.06 284.09 198.24 268.66 197.67V197.66Z" fill="#1C96A0"/>
<path d="M301.569 190.57C301.569 190.57 303.039 175.57 278.569 178.35C278.569 178.35 284.759 184.21 288.739 187.8C290.466 189.315 292.55 190.364 294.795 190.849C297.04 191.334 299.372 191.238 301.569 190.57Z" fill="#1C96A0"/>
<path d="M297.6 191.54C294.241 191.582 290.991 190.353 288.5 188.1C284.56 184.55 278.38 178.71 278.32 178.65L277.68 178.05L278.55 177.95C287.97 176.88 294.73 178.28 298.62 182.12C299.747 183.218 300.629 184.542 301.209 186.005C301.788 187.469 302.051 189.038 301.98 190.61V190.87L301.74 190.96C300.396 191.358 299.001 191.554 297.6 191.54ZM279.52 178.66C281.21 180.26 285.86 184.66 289.05 187.5C290.685 188.928 292.649 189.928 294.766 190.412C296.883 190.895 299.086 190.846 301.18 190.27C301.187 188.861 300.913 187.465 300.374 186.164C299.834 184.862 299.041 183.681 298.04 182.69C294.45 179.16 288.22 177.81 279.52 178.66Z" fill="#1C96A0"/>
<path d="M302.14 174.52C302.14 174.52 303.44 160.83 321.21 162.79C321.21 162.79 319.25 178.11 302.14 174.52Z" fill="#1C96A0"/>
<path d="M307 175.47C305.318 175.46 303.643 175.276 302 174.92L301.64 174.85V174.48C302.143 171.015 303.927 167.864 306.64 165.65C310.13 162.81 315.03 161.71 321.19 162.38L321.6 162.43L321.55 162.84C321.55 163.1 320.67 169.31 315.55 172.95C313.037 174.672 310.044 175.554 307 175.47ZM302.56 174.2C307.69 175.2 311.91 174.56 315.1 172.28C319.2 169.37 320.41 164.58 320.69 163.15C314.96 162.59 310.41 163.65 307.17 166.28C304.769 168.306 303.153 171.108 302.6 174.2H302.56Z" fill="#1C96A0"/>
<path d="M302.409 158.58C317.575 158.58 329.869 146.286 329.869 131.12C329.869 115.954 317.575 103.66 302.409 103.66C287.243 103.66 274.949 115.954 274.949 131.12C274.949 146.286 287.243 158.58 302.409 158.58Z" fill="#FFD423"/>
<path d="M371.19 158.75C384.942 158.75 396.09 147.602 396.09 133.85C396.09 120.098 384.942 108.95 371.19 108.95C357.438 108.95 346.29 120.098 346.29 133.85C346.29 147.602 357.438 158.75 371.19 158.75Z" fill="white"/>
<path d="M371.189 159.42C366.132 159.422 361.187 157.924 356.981 155.115C352.774 152.307 349.496 148.314 347.559 143.642C345.622 138.97 345.114 133.828 346.099 128.867C347.085 123.907 349.519 119.35 353.095 115.773C356.671 112.196 361.227 109.759 366.187 108.772C371.148 107.784 376.289 108.29 380.962 110.225C385.635 112.16 389.629 115.438 392.439 119.643C395.249 123.848 396.749 128.792 396.749 133.85C396.741 140.627 394.046 147.125 389.255 151.918C384.463 156.712 377.967 159.409 371.189 159.42ZM371.189 109.61C366.395 109.608 361.707 111.028 357.72 113.69C353.732 116.352 350.624 120.138 348.787 124.567C346.951 128.996 346.47 133.87 347.404 138.573C348.338 143.275 350.646 147.595 354.036 150.987C357.425 154.378 361.744 156.687 366.447 157.623C371.149 158.559 376.023 158.08 380.453 156.246C384.883 154.411 388.67 151.304 391.334 147.318C393.997 143.331 395.419 138.644 395.419 133.85C395.411 127.425 392.856 121.266 388.314 116.722C383.772 112.178 377.614 109.62 371.189 109.61Z" fill="#070707"/>
<path d="M308.279 138.85C306.99 139.957 305.367 140.601 303.669 140.68V143.68H301.479V140.68C300.208 140.597 298.951 140.356 297.739 139.96C296.716 139.649 295.765 139.139 294.939 138.46L296.139 135.76C296.864 136.337 297.678 136.793 298.549 137.11C299.488 137.476 300.475 137.705 301.479 137.79V132.45C300.399 132.21 299.341 131.875 298.319 131.45C297.491 131.1 296.763 130.55 296.199 129.85C295.595 129.049 295.291 128.062 295.339 127.06C295.334 126.369 295.471 125.684 295.743 125.049C296.015 124.414 296.415 123.842 296.919 123.37C298.189 122.265 299.798 121.626 301.479 121.56V118.56H303.669V121.56C304.662 121.618 305.645 121.789 306.599 122.07C307.478 122.326 308.316 122.702 309.089 123.19L307.999 125.89C306.67 125.118 305.196 124.628 303.669 124.45V129.84C304.76 130.081 305.827 130.415 306.859 130.84C307.692 131.188 308.426 131.734 308.999 132.43C309.612 133.227 309.92 134.216 309.869 135.22C309.874 135.903 309.735 136.579 309.461 137.204C309.187 137.83 308.785 138.39 308.279 138.85ZM299.479 128.34C300.084 128.765 300.762 129.074 301.479 129.25V124.5C300.743 124.577 300.046 124.873 299.479 125.35C299.265 125.552 299.096 125.798 298.982 126.07C298.868 126.342 298.813 126.635 298.819 126.93C298.808 127.201 298.863 127.47 298.977 127.715C299.092 127.961 299.264 128.175 299.479 128.34ZM305.769 136.94C305.985 136.75 306.158 136.516 306.275 136.254C306.393 135.992 306.452 135.707 306.449 135.42C306.457 135.136 306.395 134.855 306.27 134.601C306.144 134.347 305.959 134.127 305.729 133.96C305.104 133.532 304.406 133.22 303.669 133.04V137.77C304.436 137.705 305.166 137.416 305.769 136.94Z" fill="#1C96A0"/>
<path d="M305.379 237.84C295.549 231.5 285.859 220.84 279.459 213.05C272.539 204.6 267.869 197.55 267.829 197.48L268.509 197.03C268.689 197.31 287.169 225.13 305.819 237.16L305.379 237.84Z" fill="#1C96A0"/>
<path d="M302.32 174.75L301.8 174.13C307.575 169.217 314.036 165.174 320.98 162.13L321.27 162.88C314.417 165.909 308.036 169.906 302.32 174.75Z" fill="#1C96A0"/>
<path d="M301.219 190.78C299.918 188.86 298.282 187.19 296.389 185.85C293.199 183.44 287.509 180.25 278.529 178.75L278.659 177.95C287.829 179.48 293.659 182.76 296.929 185.24C298.901 186.623 300.597 188.363 301.929 190.37L301.219 190.78Z" fill="#1C96A0"/>
<path d="M297.66 237.5C297.66 237.5 296.85 198.39 334.98 197.25C335 197.25 339.21 240 297.66 237.5Z" fill="#7CC8C2"/>
<path d="M300.999 238C299.889 238 298.769 238 297.619 237.9H297.239V237.52C297.356 230.665 298.853 223.904 301.639 217.64C304.091 212.104 307.941 207.3 312.809 203.7C318.719 199.42 326.169 197.12 334.949 196.86H335.329V197.24C335.596 201.002 335.438 204.783 334.859 208.51C333.989 214.34 331.689 222.6 325.709 228.82C319.729 235.04 311.559 238 300.999 238ZM298.049 237.11C309.779 237.72 318.889 234.73 325.149 228.22C330.979 222.16 333.219 214.08 334.079 208.37C334.616 204.827 334.784 201.238 334.579 197.66C319.139 198.23 308.299 205.06 302.369 217.97C299.692 224.009 298.231 230.516 298.069 237.12L298.049 237.11Z" fill="#7CC8C2"/>
<path d="M297.799 237.93L297.359 237.24C308.304 230.149 317.95 221.233 325.879 210.88C329.235 206.59 332.185 201.997 334.689 197.16L335.419 197.51C332.903 202.393 329.93 207.027 326.539 211.35C318.553 221.791 308.831 230.781 297.799 237.93Z" fill="#7CC8C2"/>
</g>
<defs>
<clipPath id="clip0_815_2728">
<rect width="844.55" height="238.24" fill="white"/>
</clipPath>
</defs>
</svg>
