
<svg width="1076" height="435" viewBox="0 0 1076 435" fill="none" xmlns="http://www.w3.org/2000/svg">
<path d="M976.07 236.28C985.381 236.28 992.93 228.732 992.93 219.42C992.93 210.109 985.381 202.56 976.07 202.56C966.758 202.56 959.21 210.109 959.21 219.42C959.21 228.732 966.758 236.28 976.07 236.28Z" stroke="black" stroke-width="2" stroke-miterlimit="10"/>
<path d="M1065.06 258.44L1054.72 276.35H1075.35L1065.06 258.44Z" fill="#1C96A0"/>
<path d="M854.01 303.88L884.11 273.78L914.2 303.87C897.57 320.5 870.63 320.5 854.01 303.88Z" fill="#61ADE0"/>
<path d="M854.01 260.78L884.11 230.68L914.2 260.77C897.57 277.4 870.63 277.4 854.01 260.78Z" fill="#7CC8C2"/>
<path d="M854.01 217.68L884.11 187.58L914.2 217.67C897.57 234.3 870.63 234.3 854.01 217.68Z" fill="#61ADE0"/>
<path d="M1053.19 432.29C1065.04 432.29 1074.65 422.682 1074.65 410.83C1074.65 398.978 1065.04 389.37 1053.19 389.37C1041.34 389.37 1031.73 398.978 1031.73 410.83C1031.73 422.682 1041.34 432.29 1053.19 432.29Z" fill="#7CC8C2"/>
<path d="M10.15 434.7C15.7557 434.7 20.3 430.156 20.3 424.55C20.3 418.944 15.7557 414.4 10.15 414.4C4.54431 414.4 0 418.944 0 424.55C0 430.156 4.54431 434.7 10.15 434.7Z" fill="#7CC8C2"/>
<path d="M821.7 130.59C833.552 130.59 843.16 120.982 843.16 109.13C843.16 97.278 833.552 87.67 821.7 87.67C809.848 87.67 800.24 97.278 800.24 109.13C800.24 120.982 809.848 130.59 821.7 130.59Z" fill="#FFE4B6"/>
<path d="M191.51 132.1C203.362 132.1 212.97 122.492 212.97 110.64C212.97 98.788 203.362 89.1801 191.51 89.1801C179.658 89.1801 170.05 98.788 170.05 110.64C170.05 122.492 179.658 132.1 191.51 132.1Z" fill="#FFE4B6"/>
<path d="M147.47 206.83L131.88 231.35H147.47V206.83Z" stroke="black" stroke-width="2" stroke-miterlimit="10"/>
<path d="M785.1 190.75C811.3 190.75 832.54 169.51 832.54 143.31C832.54 117.11 811.3 95.87 785.1 95.87C758.9 95.87 737.66 117.11 737.66 143.31C737.66 169.51 758.9 190.75 785.1 190.75Z" stroke="black" stroke-width="2" stroke-miterlimit="10"/>
<path d="M196.06 124.08L179.05 153.53H212.97L196.06 124.08Z" fill="#61ADE0"/>
<path d="M289.48 208.87C256.66 212.94 233.35 242.85 237.42 275.67" stroke="black" stroke-width="2" stroke-miterlimit="10"/>
<path d="M283.75 217.51L290.45 209.26L282.2 202.56" stroke="black" stroke-width="2" stroke-miterlimit="10"/>
<path d="M516.87 433.35C516.87 334.1 597.33 253.63 696.59 253.63C795.85 253.63 876.3 334.1 876.3 433.35" fill="#1C96A0"/>
<path d="M205.77 433.35C205.77 334.1 286.23 253.63 385.49 253.63C484.75 253.63 565.2 334.1 565.2 433.35" fill="#1C96A0"/>
<path d="M768.84 433.35C768.84 374 816.95 325.88 876.31 325.88C935.67 325.88 983.77 374 983.77 433.35" fill="#7CC8C2"/>
<path d="M79.7998 433.35C79.7998 374 127.91 325.88 187.27 325.88C246.63 325.88 294.74 374 294.74 433.35" fill="#7CC8C2"/>
<path d="M382.97 184.46C348.49 184.46 320.55 156.51 320.55 122.04C320.55 87.56 348.5 59.62 382.97 59.62C417.45 59.62 445.39 87.57 445.39 122.04C445.4 156.51 417.45 184.46 382.97 184.46Z" fill="#FFE4B6"/>
<path d="M445.4 194.04C425.52 194.04 409.4 177.92 409.4 158.04C409.4 138.16 425.52 122.04 445.4 122.04" fill="#FFE4B6"/>
<path d="M376.25 127.99C376.25 125.58 376.76 123.56 377.77 121.92C378.78 120.28 380.51 118.57 382.97 116.79C385.14 115.25 386.69 113.91 387.63 112.78C388.57 111.65 389.04 110.31 389.04 108.77C389.04 107.23 388.47 106.06 387.34 105.27C386.21 104.48 384.63 104.08 382.61 104.08C380.59 104.08 378.59 104.39 376.62 105.02C374.65 105.65 372.62 106.49 370.55 107.55L366.72 99.82C369.08 98.52 371.63 97.46 374.37 96.64C377.11 95.82 380.12 95.41 383.4 95.41C388.41 95.41 392.29 96.61 395.06 99.02C397.83 101.43 399.21 104.49 399.21 108.19C399.21 110.16 398.9 111.87 398.27 113.32C397.64 114.76 396.71 116.1 395.45 117.33C394.2 118.56 392.63 119.87 390.76 121.27C389.36 122.28 388.28 123.15 387.51 123.87C386.74 124.59 386.22 125.29 385.96 125.96C385.69 126.63 385.56 127.48 385.56 128.49V130.58H376.24V127.99H376.25ZM375.1 142.66C375.1 140.45 375.7 138.89 376.91 138C378.11 137.11 379.58 136.66 381.32 136.66C383 136.66 384.45 137.11 385.65 138C386.85 138.89 387.46 140.44 387.46 142.66C387.46 144.78 386.86 146.31 385.65 147.25C384.45 148.19 383 148.66 381.32 148.66C379.59 148.66 378.12 148.19 376.91 147.25C375.7 146.3 375.1 144.77 375.1 142.66Z" fill="#1C96A0"/>
<path d="M696.59 0H484.35V433.35H696.59V0Z" fill="#E75553"/>
<path d="M666.893 356.612H696.594V0.201691H666.893V356.612Z" fill="#FFE4B6"/>
<path d="M516.876 290.548H633.506V34.1577H516.876V290.548Z" fill="#FFE4B6"/>
<path d="M666.783 356.614V318.514H539.593V356.614H666.783Z" fill="#FFE4B6"/>
<path d="M628.738 394.977V356.877H501.548V394.977H628.738Z" fill="#FFE4B6"/>
<path d="M591.105 433.348V395.248H463.915V433.348H591.105Z" fill="#FFE4B6"/>
<path d="M655.09 205.08H540.6V317.5H655.09V205.08Z" fill="#E75553" stroke="#020202" stroke-width="2" stroke-miterlimit="10"/>
<path d="M593.14 264.96H540.6V317.5H593.14V264.96Z" fill="#FED45D" stroke="#070707" stroke-width="2" stroke-miterlimit="10"/>
<path d="M655.08 264.96H602.54V317.5H655.08V264.96Z" fill="#FED45D" stroke="#070707" stroke-width="2" stroke-miterlimit="10"/>
<path d="M655.08 205.08H602.54V257.62H655.08V205.08Z" fill="#FED45D" stroke="#070707" stroke-width="2" stroke-miterlimit="10"/>
<path d="M593.14 205.08H540.6V257.62H593.14V205.08Z" fill="#FED45D" stroke="#070707" stroke-width="2" stroke-miterlimit="10"/>
<path d="M612.82 187.58L597.84 202.56L582.86 187.58" stroke="#070707" stroke-width="2" stroke-miterlimit="10"/>
<path d="M982.61 358.72V422.11" stroke="black" stroke-width="2" stroke-miterlimit="10"/>
<path d="M982.59 388.78C982.59 388.78 983.97 374.69 961 377.3C961 377.3 966.82 382.81 970.56 386.18C976.01 391.08 982.59 388.78 982.59 388.78Z" fill="#1C96A0"/>
<path d="M978.85 389.69C976.41 389.69 973.19 389.06 970.31 386.47C966.61 383.13 960.8 377.64 960.74 377.58L960.14 377.01L960.96 376.92C969.82 375.92 976.16 377.23 979.82 380.84C983.37 384.33 982.99 388.64 982.97 388.82L982.95 389.06L982.72 389.14C982.68 389.15 981.1 389.69 978.85 389.69ZM961.87 377.59C963.46 379.09 967.83 383.2 970.82 385.89C975.45 390.06 981 388.83 982.22 388.49C982.24 387.55 982.09 384.14 979.27 381.37C975.9 378.06 970.04 376.79 961.87 377.59Z" fill="#1C96A0"/>
<path d="M983.13 373.7C983.13 373.7 984.35 360.84 1001.04 362.68C1001.04 362.68 999.2 377.07 983.13 373.7Z" fill="#1C96A0"/>
<path d="M987.73 374.6C986.26 374.6 984.7 374.43 983.05 374.08L982.72 374.01L982.75 373.67C982.77 373.47 983.26 368.75 987.41 365.37C990.7 362.7 995.3 361.66 1001.09 362.3L1001.48 362.34L1001.43 362.73C1001.4 362.98 1000.6 368.8 995.8 372.23C993.57 373.8 990.87 374.6 987.73 374.6ZM983.56 373.4C988.38 374.34 992.34 373.74 995.34 371.6C999.19 368.86 1000.33 364.36 1000.59 363.02C995.2 362.5 990.93 363.49 987.89 365.96C984.61 368.63 983.75 372.28 983.56 373.4Z" fill="#1C96A0"/>
<path d="M983.37 358.72C997.619 358.72 1009.17 347.169 1009.17 332.92C1009.17 318.671 997.619 307.12 983.37 307.12C969.121 307.12 957.57 318.671 957.57 332.92C957.57 347.169 969.121 358.72 983.37 358.72Z" fill="#FFD423" stroke="#070707" stroke-width="2" stroke-miterlimit="10"/>
<path d="M983.37 351.98C993.896 351.98 1002.43 343.447 1002.43 332.92C1002.43 322.393 993.896 313.86 983.37 313.86C972.843 313.86 964.31 322.393 964.31 332.92C964.31 343.447 972.843 351.98 983.37 351.98Z" fill="white" stroke="#070707" stroke-width="2" stroke-miterlimit="10"/>
<path d="M983.29 373.92L982.8 373.33C992.08 365.57 1000.73 362.12 1000.82 362.09L1001.1 362.8C1001.02 362.84 992.47 366.24 983.29 373.92Z" fill="#1C96A0"/>
<path d="M982.26 388.97C982.25 388.95 980.97 386.8 977.73 384.34C974.73 382.07 969.38 379.07 960.94 377.67L961.07 376.91C969.69 378.35 975.16 381.43 978.23 383.76C981.58 386.3 982.87 388.49 982.92 388.58L982.26 388.97Z" fill="#1C96A0"/>
<path d="M984.06 432.95C984.06 432.95 984.7 402.04 954.57 401.14C954.57 401.14 951.22 434.88 984.06 432.95Z" fill="#1C96A0"/>
<path d="M981.4 433.35C973.06 433.35 966.5 430.9 961.85 426.06C957.12 421.14 955.31 414.61 954.62 410.01C953.87 405.03 954.24 401.14 954.25 401.11L954.28 400.81L954.58 400.82C961.52 401.03 967.41 402.85 972.08 406.23C975.82 408.94 978.79 412.65 980.91 417.25C984.51 425.07 984.39 432.88 984.38 432.96L984.37 433.26L984.07 433.28C983.17 433.33 982.28 433.35 981.4 433.35ZM954.86 401.47C954.79 402.46 954.64 405.82 955.25 409.93C955.93 414.44 957.7 420.83 962.31 425.62C967.26 430.77 974.46 433.13 983.73 432.64C983.71 431.15 983.45 424.32 980.31 417.49C975.62 407.31 967.06 401.92 954.86 401.47Z" fill="#1C96A0"/>
<path d="M981.16 432.95C981.16 432.95 980.52 402.04 1010.65 401.14C1010.65 401.14 1014 434.88 981.16 432.95Z" fill="#1C96A0"/>
<path d="M983.81 433.35C982.94 433.35 982.05 433.32 981.14 433.27L980.84 433.25L980.83 432.95C980.83 432.87 980.71 425.06 984.3 417.24C986.42 412.64 989.39 408.93 993.13 406.22C997.8 402.84 1003.69 401.02 1010.63 400.81L1010.93 400.8L1010.96 401.1C1010.96 401.14 1011.33 405.02 1010.59 410C1009.9 414.61 1008.08 421.13 1003.36 426.05C998.72 430.91 992.15 433.35 983.81 433.35ZM981.48 432.65C990.75 433.14 997.95 430.77 1002.9 425.63C1007.51 420.84 1009.28 414.45 1009.96 409.94C1010.58 405.82 1010.42 402.47 1010.35 401.48C998.15 401.93 989.58 407.33 984.89 417.53C981.75 424.35 981.5 431.16 981.48 432.65Z" fill="#1C96A0"/>
<path d="M976.81 340.76L976.38 337.69H973.54L973.11 340.76H970.83L973.38 325.08H976.72L979.27 340.76H976.81ZM973.85 335.57H976.07L974.95 327.66L973.85 335.57Z" fill="#1C96A0"/>
<path d="M980.44 340.76V325.08H987.16V327.32H982.9V331.46H986.28V333.7H982.9V338.52H987.16V340.76H980.44Z" fill="#1C96A0"/>
<path d="M988.48 340.76V325.08H992.24C994.68 325.08 995.91 326.38 995.91 328.96V336.89C995.91 339.47 994.68 340.77 992.24 340.77H988.48V340.76ZM990.94 338.52H992.19C993.02 338.52 993.44 338 993.44 337V328.85C993.44 327.84 993.01 327.33 992.19 327.33H990.94V338.52Z" fill="#1C96A0"/>
<path d="M77.2598 310.71V414.87" stroke="black" stroke-width="2" stroke-miterlimit="10"/>
<path d="M77.2303 360.11C77.2303 360.11 79.4903 336.96 41.7603 341.24C41.7603 341.24 51.3203 350.29 57.4803 355.83C66.4203 363.89 77.2303 360.11 77.2303 360.11Z" fill="#1C96A0"/>
<path d="M71.1001 361.6C67.0901 361.6 61.8001 360.57 57.0601 356.3C50.9701 350.82 41.4301 341.79 41.3301 341.7L40.3501 340.77L41.6901 340.62C56.2401 338.97 66.6701 341.14 72.6801 347.06C78.5101 352.8 77.8901 359.88 77.8601 360.18L77.8201 360.58L77.4401 360.71C77.3901 360.72 74.7901 361.6 71.1001 361.6ZM43.1901 341.72C45.8001 344.18 52.9801 350.93 57.9001 355.36C65.5101 362.22 74.6301 360.19 76.6301 359.63C76.6601 358.08 76.4201 352.48 71.7901 347.93C66.2301 342.49 56.6201 340.4 43.1901 341.72Z" fill="#1C96A0"/>
<path d="M78.1099 335.33C78.1099 335.33 80.1199 314.2 107.55 317.22C107.55 317.22 104.53 340.87 78.1099 335.33Z" fill="#1C96A0"/>
<path d="M85.6799 336.8C83.2699 336.8 80.6999 336.52 77.9899 335.95L77.4399 335.83L77.4899 335.27C77.5199 334.94 78.3299 327.18 85.1499 321.63C90.5499 317.24 98.1099 315.54 107.62 316.59L108.26 316.66L108.18 317.29C108.13 317.69 106.82 327.27 98.9199 332.9C95.2699 335.5 90.8399 336.8 85.6799 336.8ZM78.8199 334.83C86.7399 336.38 93.2499 335.39 98.1799 331.87C104.5 327.37 106.38 319.97 106.81 317.77C97.9599 316.91 90.9399 318.54 85.9299 322.61C80.5499 327 79.1399 332.99 78.8199 334.83Z" fill="#1C96A0"/>
<path d="M78.5199 310.71C101.931 310.71 120.91 291.731 120.91 268.32C120.91 244.909 101.931 225.93 78.5199 225.93C55.1085 225.93 36.1299 244.909 36.1299 268.32C36.1299 291.731 55.1085 310.71 78.5199 310.71Z" fill="#FFD423" stroke="#070707" stroke-width="2" stroke-miterlimit="10"/>
<path d="M78.5202 299.64C95.8177 299.64 109.84 285.618 109.84 268.32C109.84 251.022 95.8177 237 78.5202 237C61.2226 237 47.2002 251.022 47.2002 268.32C47.2002 285.618 61.2226 299.64 78.5202 299.64Z" fill="white" stroke="#070707" stroke-width="2" stroke-miterlimit="10"/>
<path d="M78.3901 335.69L77.5801 334.72C92.8301 321.97 107.05 316.31 107.19 316.25L107.65 317.42C107.51 317.48 93.4701 323.08 78.3901 335.69Z" fill="#1C96A0"/>
<path d="M76.6902 360.43C76.6702 360.39 74.5802 356.86 69.2402 352.83C64.3102 349.1 55.5202 344.18 41.6602 341.87L41.8702 340.63C56.0302 342.99 65.0202 348.05 70.0702 351.88C75.5802 356.06 77.6902 359.65 77.7802 359.8L76.6902 360.43Z" fill="#1C96A0"/>
<path d="M79.6498 432.69C79.6498 432.69 80.7098 381.9 31.1898 380.42C31.1798 380.42 25.6798 435.87 79.6498 432.69Z" fill="#1C96A0"/>
<path d="M75.28 433.35C61.58 433.35 50.79 429.33 43.15 421.38C35.39 413.3 32.4 402.57 31.27 395C30.04 386.81 30.65 380.43 30.66 380.37L30.71 379.88L31.2 379.89C42.6 380.23 52.28 383.22 59.96 388.78C66.11 393.23 70.99 399.32 74.47 406.89C80.38 419.73 80.18 432.57 80.18 432.7L80.17 433.19L79.68 433.22C78.18 433.31 76.72 433.35 75.28 433.35ZM31.67 380.97C31.56 382.6 31.3 388.11 32.32 394.88C33.44 402.29 36.35 412.78 43.92 420.66C52.05 429.12 63.89 433 79.12 432.2C79.09 429.75 78.66 418.53 73.49 407.31C65.78 390.56 51.71 381.7 31.67 380.97Z" fill="#1C96A0"/>
<path d="M74.8797 432.69C74.8797 432.69 73.8197 381.9 123.34 380.42C123.34 380.42 128.85 435.87 74.8797 432.69Z" fill="#1C96A0"/>
<path d="M79.2399 433.35C77.8099 433.35 76.3399 433.31 74.8499 433.22L74.3599 433.19L74.3499 432.7C74.3499 432.57 74.1499 419.73 80.0599 406.89C83.5399 399.33 88.4199 393.23 94.5699 388.78C102.25 383.22 111.93 380.23 123.33 379.89L123.82 379.88L123.87 380.37C123.88 380.43 124.49 386.82 123.26 395C122.12 402.57 119.14 413.3 111.38 421.38C103.73 429.33 92.9399 433.35 79.2399 433.35ZM75.4099 432.19C90.6399 432.99 102.48 429.11 110.61 420.65C118.18 412.77 121.1 402.28 122.21 394.87C123.23 388.1 122.97 382.59 122.86 380.96C102.81 381.7 88.7299 390.57 81.0299 407.33C75.8599 418.55 75.4399 429.75 75.4099 432.19Z" fill="#1C96A0"/>
<path d="M67.7399 281.2L67.0399 276.16H62.3699L61.6699 281.2H57.9199L62.1199 255.43H67.5999L71.7999 281.2H67.7399ZM62.8799 272.66H66.5199L64.6799 259.67L62.8799 272.66Z" fill="#1C96A0"/>
<path d="M73.6997 281.2V255.43H84.7397V259.11H77.7497V265.92H83.3097V269.6H77.7497V277.51H84.7397V281.19H73.6997V281.2Z" fill="#1C96A0"/>
<path d="M86.9102 281.2V255.43H93.0901C97.1001 255.43 99.1301 257.57 99.1301 261.8V274.83C99.1301 279.06 97.1101 281.2 93.0901 281.2H86.9102V281.2ZM90.9602 277.52H93.0201C94.3801 277.52 95.0802 276.67 95.0802 275.02V261.62C95.0802 259.96 94.3801 259.12 93.0201 259.12H90.9602V277.52Z" fill="#1C96A0"/>
<path d="M310.04 338.65V432.38H298.77C294.42 432.38 290.89 428.86 290.89 424.5V338.65H310.04Z" fill="#FFD423" stroke="#070707" stroke-width="2" stroke-miterlimit="10"/>
<path d="M310.04 338.65V432.38H298.77C294.42 432.38 290.89 428.86 290.89 424.5V338.65H310.04Z" fill="#FFD423" stroke="#070707" stroke-width="2" stroke-miterlimit="10"/>
<path d="M380.54 338.65L380.5 432.39H310.04V338.65H380.54Z" fill="#FFD423" stroke="#070707" stroke-width="2" stroke-miterlimit="10"/>
<path d="M380.54 338.65L380.5 432.39H310.04V338.65H380.54Z" fill="#FFD423" stroke="#070707" stroke-width="2" stroke-miterlimit="10"/>
<path d="M310.03 338.66V321.14C310.03 312.87 316.74 306.16 325.01 306.16C333.28 306.16 339.99 312.87 339.99 321.14V338.66" stroke="#070707" stroke-width="2" stroke-miterlimit="10"/>
<path d="M332.22 350.26V321.14C332.22 312.87 338.93 306.16 347.2 306.16C355.47 306.16 362.18 312.87 362.18 321.14V350.26" stroke="#070707" stroke-width="2" stroke-miterlimit="10"/>
<path d="M406.93 377.22V424.5C406.93 428.86 403.41 432.38 399.05 432.38H362.05C357.69 432.38 354.17 428.86 354.17 424.5V377.22H406.93Z" fill="#173588"/>
<path d="M406.93 377.22V424.5C406.93 428.86 403.41 432.38 399.05 432.38H362.05C357.69 432.38 354.17 428.86 354.17 424.5V377.22H406.93Z" stroke="#070707" stroke-width="2" stroke-miterlimit="10"/>
<path d="M388.38 373.5V377.22H372.62V373.5C372.62 369.15 376.15 365.62 380.5 365.62H380.54C382.71 365.63 384.66 366.51 386.07 367.93C387.5 369.35 388.38 371.32 388.38 373.5Z" stroke="#070707" stroke-width="2" stroke-miterlimit="10"/>
<path d="M388.38 388.82V377.22" stroke="#070707" stroke-width="2" stroke-miterlimit="10"/>
<path d="M372.62 388.82V377.22" stroke="#070707" stroke-width="2" stroke-miterlimit="10"/>
<path d="M310.04 360.26H236.59V432.38H310.04V360.26Z" fill="#E75553"/>
<path d="M270.3 399.12H236.59V432.38H270.3V399.12Z" fill="#FFE4B6"/>
<path d="M310.04 399.12H276.33V432.38H310.04V399.12Z" fill="#FFE4B6"/>
<path d="M310.04 360.26H276.33V393.09H310.04V360.26Z" fill="#FFE4B6"/>
<path d="M270.3 360.26H236.59V393.09H270.3V360.26Z" fill="#FFE4B6"/>
<path d="M282.92 348.79L273.31 358.39L263.7 348.79" stroke="#070707" stroke-width="2" stroke-miterlimit="10"/>
<path d="M270.3 399.12H236.59V432.38H270.3V399.12Z" stroke="#070707" stroke-width="2" stroke-miterlimit="10"/>
<path d="M310.04 399.12H276.33V432.38H310.04V399.12Z" stroke="#070707" stroke-width="2" stroke-miterlimit="10"/>
<path d="M310.04 360.26H276.33V393.09H310.04V360.26Z" stroke="#070707" stroke-width="2" stroke-miterlimit="10"/>
<path d="M270.3 360.26H236.59V393.09H270.3V360.26Z" stroke="#070707" stroke-width="2" stroke-miterlimit="10"/>
<path d="M310.04 360.26H236.59V432.38H310.04V360.26Z" stroke="#070707" stroke-width="2" stroke-miterlimit="10"/>
</svg>
