
<svg width="986" height="339" viewBox="0 0 986 339" fill="none" xmlns="http://www.w3.org/2000/svg">
<path d="M431.37 338.72C431.37 239.47 511.83 159 611.09 159C710.35 159 790.8 239.46 790.8 338.72" fill="#7CC8C2"/>
<path d="M158.79 338.72C158.79 239.47 239.25 159 338.5 159C437.75 159 518.22 239.46 518.22 338.72" fill="#1C96A0"/>
<path d="M748.06 338.72C748.06 279.37 796.17 231.25 855.53 231.25C914.89 231.25 963 279.36 963 338.72" fill="#1C96A0"/>
<path d="M32.8201 338.72C32.8201 279.37 80.9301 231.25 140.29 231.25C199.65 231.25 247.76 279.36 247.76 338.72" fill="#7CC8C2"/>
<path d="M393.92 310.04C412.543 310.04 427.64 294.943 427.64 276.32C427.64 257.697 412.543 242.6 393.92 242.6C375.297 242.6 360.2 257.697 360.2 276.32C360.2 294.943 375.297 310.04 393.92 310.04Z" stroke="black" stroke-width="2" stroke-miterlimit="10"/>
<path d="M282.27 48.5L271.93 66.41H292.56L282.27 48.5Z" fill="#1C96A0"/>
<path d="M963.91 338.71C975.762 338.71 985.37 329.102 985.37 317.25C985.37 305.398 975.762 295.79 963.91 295.79C952.058 295.79 942.45 305.398 942.45 317.25C942.45 329.102 952.058 338.71 963.91 338.71Z" fill="#7CC8C2"/>
<path d="M10.5001 338.72C16.1058 338.72 20.6501 334.176 20.6501 328.57C20.6501 322.964 16.1058 318.42 10.5001 318.42C4.89441 318.42 0.350098 322.964 0.350098 328.57C0.350098 334.176 4.89441 338.72 10.5001 338.72Z" fill="#7CC8C2"/>
<path d="M211.21 135.4C223.062 135.4 232.67 125.792 232.67 113.94C232.67 102.088 223.062 92.48 211.21 92.48C199.358 92.48 189.75 102.088 189.75 113.94C189.75 125.792 199.358 135.4 211.21 135.4Z" fill="#FFE4B6"/>
<path d="M163.77 187.36C189.97 187.36 211.21 166.12 211.21 139.92C211.21 113.72 189.97 92.48 163.77 92.48C137.57 92.48 116.33 113.72 116.33 139.92C116.33 166.12 137.57 187.36 163.77 187.36Z" stroke="black" stroke-width="2" stroke-miterlimit="10"/>
<path d="M851.71 67.4C863.562 67.4 873.17 57.792 873.17 45.94C873.17 34.0879 863.562 24.48 851.71 24.48C839.858 24.48 830.25 34.0879 830.25 45.94C830.25 57.792 839.858 67.4 851.71 67.4Z" fill="#FFE4B6"/>
<path d="M862.87 57.4501L838.43 99.7901H887.19L862.87 57.4501Z" fill="#1C96A0"/>
<path d="M365.35 71.9601C332.53 76.0301 309.22 105.94 313.29 138.76" stroke="black" stroke-width="2" stroke-miterlimit="10"/>
<path d="M359.62 80.61L366.32 72.36L358.07 65.66" stroke="black" stroke-width="2" stroke-miterlimit="10"/>
<path d="M427.64 38.38V122.82L465.85 80.6L427.64 38.38Z" fill="#FFD423"/>
<path d="M466.7 62.1C467.948 62.1 468.96 61.0881 468.96 59.84C468.96 58.5918 467.948 57.58 466.7 57.58C465.452 57.58 464.44 58.5918 464.44 59.84C464.44 61.0881 465.452 62.1 466.7 62.1Z" fill="#E75553"/>
<path d="M466.52 72.47C467.768 72.47 468.78 71.4581 468.78 70.21C468.78 68.9618 467.768 67.95 466.52 67.95C465.272 67.95 464.26 68.9618 464.26 70.21C464.26 71.4581 465.272 72.47 466.52 72.47Z" fill="#E75553"/>
<path d="M466.52 83.02C467.768 83.02 468.78 82.0082 468.78 80.76C468.78 79.5118 467.768 78.5 466.52 78.5C465.272 78.5 464.26 79.5118 464.26 80.76C464.26 82.0082 465.272 83.02 466.52 83.02Z" fill="#E75553"/>
<path d="M466.52 93.5799C467.768 93.5799 468.78 92.5681 468.78 91.3199C468.78 90.0718 467.768 89.0599 466.52 89.0599C465.272 89.0599 464.26 90.0718 464.26 91.3199C464.26 92.5681 465.272 93.5799 466.52 93.5799Z" fill="#E75553"/>
<path d="M475.94 72.47C477.188 72.47 478.2 71.4581 478.2 70.21C478.2 68.9618 477.188 67.95 475.94 67.95C474.692 67.95 473.68 68.9618 473.68 70.21C473.68 71.4581 474.692 72.47 475.94 72.47Z" fill="#E75553"/>
<path d="M475.94 83.02C477.188 83.02 478.2 82.0082 478.2 80.76C478.2 79.5118 477.188 78.5 475.94 78.5C474.692 78.5 473.68 79.5118 473.68 80.76C473.68 82.0082 474.692 83.02 475.94 83.02Z" fill="#E75553"/>
<path d="M485.37 83.02C486.618 83.02 487.63 82.0082 487.63 80.76C487.63 79.5118 486.618 78.5 485.37 78.5C484.122 78.5 483.11 79.5118 483.11 80.76C483.11 82.0082 484.122 83.02 485.37 83.02Z" fill="#E75553"/>
<path d="M475.94 93.5799C477.188 93.5799 478.2 92.5681 478.2 91.3199C478.2 90.0718 477.188 89.0599 475.94 89.0599C474.692 89.0599 473.68 90.0718 473.68 91.3199C473.68 92.5681 474.692 93.5799 475.94 93.5799Z" fill="#E75553"/>
<path d="M466.52 104.14C467.768 104.14 468.78 103.128 468.78 101.88C468.78 100.632 467.768 99.62 466.52 99.62C465.272 99.62 464.26 100.632 464.26 101.88C464.26 103.128 465.272 104.14 466.52 104.14Z" fill="#E75553"/>
<path d="M456.9 62.1C458.148 62.1 459.16 61.0881 459.16 59.84C459.16 58.5918 458.148 57.58 456.9 57.58C455.652 57.58 454.64 58.5918 454.64 59.84C454.64 61.0881 455.652 62.1 456.9 62.1Z" fill="#E75553"/>
<path d="M457.09 51.73C458.338 51.73 459.35 50.7181 459.35 49.47C459.35 48.2218 458.338 47.21 457.09 47.21C455.842 47.21 454.83 48.2218 454.83 49.47C454.83 50.7181 455.842 51.73 457.09 51.73Z" fill="#E75553"/>
<path d="M456.71 72.47C457.958 72.47 458.97 71.4581 458.97 70.21C458.97 68.9618 457.958 67.95 456.71 67.95C455.462 67.95 454.45 68.9618 454.45 70.21C454.45 71.4581 455.462 72.47 456.71 72.47Z" fill="#E75553"/>
<path d="M456.71 83.02C457.958 83.02 458.97 82.0082 458.97 80.76C458.97 79.5118 457.958 78.5 456.71 78.5C455.462 78.5 454.45 79.5118 454.45 80.76C454.45 82.0082 455.462 83.02 456.71 83.02Z" fill="#E75553"/>
<path d="M456.71 93.5799C457.958 93.5799 458.97 92.5681 458.97 91.3199C458.97 90.0718 457.958 89.0599 456.71 89.0599C455.462 89.0599 454.45 90.0718 454.45 91.3199C454.45 92.5681 455.462 93.5799 456.71 93.5799Z" fill="#E75553"/>
<path d="M456.71 104.14C457.958 104.14 458.97 103.128 458.97 101.88C458.97 100.632 457.958 99.62 456.71 99.62C455.462 99.62 454.45 100.632 454.45 101.88C454.45 103.128 455.462 104.14 456.71 104.14Z" fill="#E75553"/>
<path d="M456.71 114.7C457.958 114.7 458.97 113.688 458.97 112.44C458.97 111.192 457.958 110.18 456.71 110.18C455.462 110.18 454.45 111.192 454.45 112.44C454.45 113.688 455.462 114.7 456.71 114.7Z" fill="#E75553"/>
<path d="M398.35 337.7H475.66C481.79 337.7 486.76 332.73 486.76 326.6V326.07C486.76 319.94 481.79 314.97 475.66 314.97H398.35C392.22 314.97 387.25 319.94 387.25 326.07V326.6C387.25 332.73 392.22 337.7 398.35 337.7Z" fill="#FED45D" stroke="black" stroke-width="2" stroke-miterlimit="10"/>
<path d="M398.35 314.97H475.66C481.79 314.97 486.76 310 486.76 303.87V303.34C486.76 297.21 481.79 292.24 475.66 292.24H398.35C392.22 292.24 387.25 297.21 387.25 303.34V303.87C387.25 310 392.22 314.97 398.35 314.97Z" fill="#FED45D" stroke="black" stroke-width="2" stroke-miterlimit="10"/>
<path d="M398.35 292.18H475.66C481.79 292.18 486.76 287.21 486.76 281.08V280.55C486.76 274.42 481.79 269.45 475.66 269.45H398.35C392.22 269.45 387.25 274.42 387.25 280.55V281.08C387.25 287.21 392.22 292.18 398.35 292.18Z" fill="#FED45D" stroke="black" stroke-width="2" stroke-miterlimit="10"/>
<path d="M684.229 177.399L783.559 117.041L714.648 3.63511L615.318 63.9934L684.229 177.399Z" fill="#E75553"/>
<path d="M690.38 36.8601L635.52 70.2001L696.21 170.08L771.56 124.3L723.32 44.9101C716.45 33.5901 701.7 29.9901 690.38 36.8601Z" fill="#FFE4B6"/>
<path d="M691.84 92.61C699.914 92.61 706.46 86.0644 706.46 77.99C706.46 69.9156 699.914 63.37 691.84 63.37C683.766 63.37 677.22 69.9156 677.22 77.99C677.22 86.0644 683.766 92.61 691.84 92.61Z" fill="#E75553"/>
<path d="M558.18 155.815L671.388 129.454L641.292 0.204552L528.084 26.5655L558.18 155.815Z" fill="#E75553"/>
<path d="M607.9 24.22L545.38 38.78L571.88 152.61L657.75 132.62L636.69 42.14C633.69 29.24 620.8 21.22 607.9 24.22Z" fill="#FFE4B6"/>
<path d="M596.46 78.36C604.534 78.36 611.08 71.8144 611.08 63.74C611.08 55.6656 604.534 49.12 596.46 49.12C588.385 49.12 581.84 55.6656 581.84 63.74C581.84 71.8144 588.385 78.36 596.46 78.36Z" fill="#E75553"/>
<path d="M526.67 337.7H792.99C808.81 337.7 821.64 324.88 821.64 309.05V137.57C821.64 121.75 808.82 108.92 792.99 108.92H526.67C510.85 108.92 498.02 121.74 498.02 137.57V309.05C498.03 324.88 510.85 337.7 526.67 337.7Z" fill="#FED45D" stroke="black" stroke-width="2" stroke-miterlimit="10"/>
<path d="M524.35 337.7H744.99C759.53 337.7 771.31 325.91 771.31 311.38V135.25C771.31 120.71 759.52 108.93 744.99 108.93H524.35C509.81 108.93 498.03 120.72 498.03 135.25V311.38C498.03 325.92 509.81 337.7 524.35 337.7Z" fill="white" stroke="black" stroke-width="2" stroke-miterlimit="10"/>
<path d="M721.06 254.86H821.64V191.76H721.06C703.64 191.76 689.51 205.88 689.51 223.31C689.51 240.74 703.63 254.86 721.06 254.86Z" fill="#E75553" stroke="#020202" stroke-width="2" stroke-miterlimit="10"/>
<path d="M721.85 237.93C729.924 237.93 736.47 231.384 736.47 223.31C736.47 215.236 729.924 208.69 721.85 208.69C713.776 208.69 707.23 215.236 707.23 223.31C707.23 231.384 713.776 237.93 721.85 237.93Z" fill="white" stroke="black" stroke-width="2" stroke-miterlimit="10"/>
<path d="M522.28 126.99H740.27C746.72 126.99 751.96 132.3 751.96 138.86V191.76" fill="white"/>
<path d="M522.28 126.99H530.78" stroke="black" stroke-width="2" stroke-miterlimit="10"/>
<path d="M546.81 126.99H740.28C746.73 126.99 751.97 132.3 751.97 138.86V175.25" stroke="black" stroke-width="2" stroke-miterlimit="10" stroke-dasharray="16.02 16.02"/>
<path d="M751.96 183.27V191.77" stroke="black" stroke-width="2" stroke-miterlimit="10"/>
<path d="M522.28 320.28H740.27C746.72 320.28 751.96 314.91 751.96 308.29V254.86" fill="white"/>
<path d="M522.28 320.28H530.78" stroke="black" stroke-width="2" stroke-miterlimit="10"/>
<path d="M546.84 320.28H740.27C746.72 320.28 751.96 314.91 751.96 308.29V271.39" stroke="black" stroke-width="2" stroke-miterlimit="10" stroke-dasharray="16.06 16.06"/>
<path d="M751.96 263.36V254.86" stroke="black" stroke-width="2" stroke-miterlimit="10"/>
<path d="M541.01 303.28C552.862 303.28 562.47 293.672 562.47 281.82C562.47 269.968 552.862 260.36 541.01 260.36C529.158 260.36 519.55 269.968 519.55 281.82C519.55 293.672 529.158 303.28 541.01 303.28Z" fill="#FFE4B6"/>
<path d="M872.68 241.22V324.03" stroke="black" stroke-width="2" stroke-miterlimit="10"/>
<path d="M872.66 280.49C872.66 280.49 874.46 262.09 844.46 265.49C844.46 265.49 852.06 272.69 856.95 277.09C864.06 283.49 872.66 280.49 872.66 280.49Z" fill="#7CC8C2"/>
<path d="M867.78 281.67C864.6 281.67 860.39 280.85 856.62 277.46C851.78 273.1 844.19 265.92 844.12 265.85L843.34 265.11L844.41 264.99C855.98 263.68 864.27 265.4 869.05 270.11C873.68 274.67 873.19 280.3 873.17 280.54L873.14 280.86L872.84 280.97C872.78 280.98 870.72 281.67 867.78 281.67ZM845.59 265.87C847.66 267.83 853.38 273.2 857.29 276.72C863.34 282.17 870.59 280.56 872.18 280.12C872.2 278.89 872.01 274.43 868.33 270.82C863.91 266.48 856.27 264.82 845.59 265.87Z" fill="#7CC8C2"/>
<path d="M873.36 260.79C873.36 260.79 874.96 243.99 896.76 246.39C896.76 246.39 894.36 265.19 873.36 260.79Z" fill="#7CC8C2"/>
<path d="M879.37 261.96C877.45 261.96 875.41 261.73 873.25 261.28L872.81 261.19L872.85 260.74C872.87 260.48 873.52 254.31 878.94 249.9C883.23 246.41 889.24 245.06 896.81 245.89L897.32 245.95L897.26 246.45C897.22 246.77 896.18 254.38 889.9 258.86C887 260.92 883.47 261.96 879.37 261.96ZM873.92 260.39C880.21 261.62 885.39 260.83 889.31 258.04C894.34 254.46 895.83 248.58 896.17 246.83C889.13 246.15 883.55 247.44 879.57 250.68C875.29 254.16 874.17 258.93 873.92 260.39Z" fill="#7CC8C2"/>
<path d="M873.68 241.22C892.292 241.22 907.38 226.132 907.38 207.52C907.38 188.908 892.292 173.82 873.68 173.82C855.068 173.82 839.98 188.908 839.98 207.52C839.98 226.132 855.068 241.22 873.68 241.22Z" fill="#FFD423" stroke="#070707" stroke-width="2" stroke-miterlimit="10"/>
<path d="M873.68 232.42C887.432 232.42 898.58 221.272 898.58 207.52C898.58 193.768 887.432 182.62 873.68 182.62C859.928 182.62 848.78 193.768 848.78 207.52C848.78 221.272 859.928 232.42 873.68 232.42Z" fill="white" stroke="#070707" stroke-width="2" stroke-miterlimit="10"/>
<path d="M874.58 338.19C874.58 338.19 875.42 297.81 836.05 296.63C836.05 296.63 831.67 340.72 874.58 338.19Z" fill="#7CC8C2"/>
<path d="M871.11 338.72C860.22 338.72 851.64 335.53 845.56 329.2C839.39 322.77 837.01 314.25 836.11 308.23C835.13 301.72 835.62 296.65 835.62 296.6L835.66 296.21L836.05 296.22C845.12 296.49 852.81 298.87 858.91 303.29C863.8 306.83 867.68 311.67 870.44 317.68C875.14 327.89 874.98 338.1 874.98 338.2L874.97 338.59L874.58 338.61C873.41 338.68 872.25 338.72 871.11 338.72ZM836.44 297.07C836.35 298.37 836.15 302.75 836.96 308.13C837.85 314.02 840.17 322.36 846.18 328.62C852.64 335.34 862.05 338.43 874.16 337.79C874.14 335.84 873.8 326.92 869.69 318C863.55 304.7 852.37 297.66 836.44 297.07Z" fill="#7CC8C2"/>
<path d="M870.79 338.19C870.79 338.19 869.95 297.81 909.32 296.63C909.32 296.63 913.69 340.72 870.79 338.19Z" fill="#7CC8C2"/>
<path d="M874.25 338.72C873.11 338.72 871.95 338.69 870.76 338.62L870.37 338.6L870.36 338.21C870.36 338.11 870.2 327.9 874.9 317.69C877.67 311.68 881.55 306.83 886.43 303.3C892.54 298.88 900.23 296.5 909.29 296.23L909.68 296.22L909.72 296.61C909.73 296.66 910.21 301.73 909.23 308.24C908.33 314.26 905.96 322.79 899.78 329.21C893.73 335.52 885.14 338.72 874.25 338.72ZM871.21 337.79C883.32 338.42 892.73 335.34 899.19 328.62C905.21 322.36 907.53 314.02 908.41 308.13C909.22 302.75 909.01 298.37 908.93 297.07C892.99 297.66 881.8 304.71 875.67 318.03C871.57 326.95 871.23 335.85 871.21 337.79Z" fill="#7CC8C2"/>
<path d="M865.11 217.76L864.55 213.75H860.83L860.27 217.76H857.29L860.63 197.27H864.99L868.33 217.76H865.11ZM861.25 210.97H864.15L862.69 200.64L861.25 210.97Z" fill="#1C96A0"/>
<path d="M869.85 217.76V197.27H878.63V200.2H873.07V205.61H877.49V208.54H873.07V214.83H878.63V217.76H869.85Z" fill="#1C96A0"/>
<path d="M880.35 217.76V197.27H885.27C888.46 197.27 890.07 198.97 890.07 202.33V212.69C890.07 216.06 888.46 217.75 885.27 217.75H880.35V217.76ZM883.57 214.83H885.21C886.29 214.83 886.85 214.16 886.85 212.84V202.19C886.85 200.87 886.29 200.2 885.21 200.2H883.57V214.83Z" fill="#1C96A0"/>
<path d="M253.59 337.71C277.084 337.71 296.13 318.664 296.13 295.17C296.13 271.676 277.084 252.63 253.59 252.63C230.096 252.63 211.05 271.676 211.05 295.17C211.05 318.664 230.096 337.71 253.59 337.71Z" fill="#FFD423" stroke="#070707" stroke-width="2" stroke-miterlimit="10"/>
<path d="M253.59 326.6C270.948 326.6 285.02 312.528 285.02 295.17C285.02 277.812 270.948 263.74 253.59 263.74C236.232 263.74 222.16 277.812 222.16 295.17C222.16 312.528 236.232 326.6 253.59 326.6Z" fill="white" stroke="#070707" stroke-width="2" stroke-miterlimit="10"/>
<path d="M255.08 311.96L251.01 308.88L247.69 312.2L250.77 316.27L248.11 318.93L232.81 297.67L236.7 293.78L257.96 309.08L255.08 311.96ZM245.58 309.35L248.17 306.76L237.64 298.85L245.58 309.35Z" fill="#1C96A0"/>
<path d="M259.31 307.73L241.03 289.45L248.87 281.61L251.48 284.22L246.52 289.18L251.35 294.01L255.29 290.07L257.9 292.68L253.96 296.62L259.58 302.24L264.54 297.28L267.15 299.89L259.31 307.73Z" fill="#1C96A0"/>
<path d="M268.69 298.35L250.41 280.07L254.8 275.68C257.65 272.83 260.6 272.91 263.6 275.92L272.85 285.17C275.85 288.17 275.93 291.12 273.09 293.97L268.69 298.35ZM268.95 292.87L270.41 291.41C271.38 290.44 271.27 289.35 270.1 288.17L260.59 278.66C259.41 277.48 258.32 277.38 257.35 278.35L255.89 279.81L268.95 292.87Z" fill="#1C96A0"/>
<path d="M109.05 337.71C132.544 337.71 151.59 318.664 151.59 295.17C151.59 271.676 132.544 252.63 109.05 252.63C85.5558 252.63 66.51 271.676 66.51 295.17C66.51 318.664 85.5558 337.71 109.05 337.71Z" fill="#FFD423" stroke="#070707" stroke-width="2" stroke-miterlimit="10"/>
<path d="M109.05 326.6C126.408 326.6 140.48 312.528 140.48 295.17C140.48 277.812 126.408 263.74 109.05 263.74C91.6918 263.74 77.6201 277.812 77.6201 295.17C77.6201 312.528 91.6918 326.6 109.05 326.6Z" fill="white" stroke="#070707" stroke-width="2" stroke-miterlimit="10"/>
<path d="M98.2301 308.09L97.5301 303.03H92.8401L92.1401 308.09H88.3701L92.5801 282.24H98.0801L102.29 308.09H98.2301ZM93.3601 299.52H97.0201L95.1701 286.48L93.3601 299.52Z" fill="#1C96A0"/>
<path d="M104.21 308.09V282.24H115.29V285.93H108.27V292.76H113.85V296.45H108.27V304.39H115.29V308.08H104.21V308.09Z" fill="#1C96A0"/>
<path d="M117.47 308.09V282.24H123.68C127.71 282.24 129.74 284.38 129.74 288.63V301.71C129.74 305.96 127.71 308.1 123.68 308.1H117.47V308.09ZM121.54 304.4H123.61C124.98 304.4 125.68 303.55 125.68 301.89V288.45C125.68 286.79 124.98 285.94 123.61 285.94H121.54V304.4Z" fill="#1C96A0"/>
</svg>
