
<svg width="985" height="323" viewBox="0 0 985 323" fill="none" xmlns="http://www.w3.org/2000/svg">
<path d="M711.311 94.3531V61.6931L678.651 61.6931V94.3531H711.311Z" fill="#E75553"/>
<path d="M678.648 61.6931V29.0331L645.988 29.0331V61.6931L678.648 61.6931Z" fill="#E75553"/>
<path d="M645.989 94.3555V61.6956L613.329 61.6956V94.3555H645.989Z" fill="#E75553"/>
<path d="M613.33 29.03H580.67V61.69H613.33V29.03ZM586.82 45.36C586.82 39.74 591.38 35.18 597 35.18C602.62 35.18 607.18 39.73 607.18 45.36C607.18 50.99 602.63 55.54 597 55.54C591.38 55.54 586.82 50.98 586.82 45.36Z" fill="#E75553"/>
<path d="M238.55 96.4L228.21 114.31H248.83L238.55 96.4Z" fill="#1C96A0"/>
<path d="M83.8701 154.87L63.6401 160.29L78.4101 175.07L83.8701 154.87Z" stroke="#1C96A0" stroke-width="2" stroke-miterlimit="10"/>
<path d="M478.2 1.67004L485.13 27.53L504.01 8.65004L478.2 1.67004Z" stroke="#1C96A0" stroke-width="2" stroke-miterlimit="10"/>
<path d="M469.91 321.36C469.91 222.11 550.37 141.65 649.62 141.65C748.87 141.65 829.34 222.11 829.34 321.36" fill="#1C96A0"/>
<path d="M158.81 321.36C158.81 222.11 239.27 141.65 338.53 141.65C437.79 141.65 518.24 222.11 518.24 321.36" fill="#7CC8C2"/>
<path d="M748.08 321.36C748.08 262.01 796.19 213.89 855.55 213.89C914.91 213.89 963.02 262 963.02 321.36" fill="#7CC8C2"/>
<path d="M32.8401 321.36C32.8401 262.01 80.9501 213.89 140.31 213.89C199.67 213.89 247.78 262 247.78 321.36" fill="#1C96A0"/>
<path d="M963.01 321.36C974.862 321.36 984.47 311.752 984.47 299.9C984.47 288.048 974.862 278.44 963.01 278.44C951.158 278.44 941.55 288.048 941.55 299.9C941.55 311.752 951.158 321.36 963.01 321.36Z" fill="#1C96A0"/>
<path d="M10.5201 322.14C16.1258 322.14 20.6701 317.596 20.6701 311.99C20.6701 306.384 16.1258 301.84 10.5201 301.84C4.91443 301.84 0.370117 306.384 0.370117 311.99C0.370117 317.596 4.91443 322.14 10.5201 322.14Z" fill="#7CC8C2"/>
<path d="M456.53 77.17L424.75 64.85L392.97 52.53L320.16 157.5L376.73 187.98L439.58 203.79L456.53 77.17Z" fill="#61ADE0" stroke="black" stroke-width="2" stroke-miterlimit="10"/>
<path d="M449.7 128.19L514.88 125.37L506.59 146.76L442.24 183.94L449.7 128.19Z" fill="#173588"/>
<path d="M525.75 108.51C510.16 108.28 497.34 120.74 497.11 136.33C496.88 151.92 509.34 164.74 524.93 164.97L525.75 108.51Z" fill="#61ADE0" stroke="black" stroke-width="2" stroke-miterlimit="10"/>
<path d="M411.19 116.36C420.303 116.36 427.69 108.973 427.69 99.86C427.69 90.7473 420.303 83.36 411.19 83.36C402.077 83.36 394.69 90.7473 394.69 99.86C394.69 108.973 402.077 116.36 411.19 116.36Z" fill="white"/>
<path d="M342.32 132.72C349.522 132.72 355.36 126.882 355.36 119.68C355.36 112.478 349.522 106.64 342.32 106.64C335.118 106.64 329.28 112.478 329.28 119.68C329.28 126.882 335.118 132.72 342.32 132.72Z" fill="#FFE4B6"/>
<path d="M351.55 116.97C367.472 116.97 380.38 104.062 380.38 88.1401C380.38 72.2177 367.472 59.3101 351.55 59.3101C335.628 59.3101 322.72 72.2177 322.72 88.1401C322.72 104.062 335.628 116.97 351.55 116.97Z" stroke="black" stroke-width="2" stroke-miterlimit="10"/>
<path d="M613.4 175C609.33 142.18 579.42 118.87 546.6 122.94" stroke="black" stroke-width="2" stroke-miterlimit="10"/>
<path d="M604.76 169.27L613.01 175.98L619.71 167.72" stroke="black" stroke-width="2" stroke-miterlimit="10"/>
<path d="M603.51 197.63C599.44 164.81 569.53 141.5 536.71 145.57" stroke="black" stroke-width="2" stroke-miterlimit="10"/>
<path d="M594.86 191.89L603.11 198.6L609.82 190.34" stroke="black" stroke-width="2" stroke-miterlimit="10"/>
<path d="M843.33 177.34C818.7 177.34 798.73 157.37 798.73 132.74C798.73 108.11 818.7 88.14 843.33 88.14C867.96 88.14 887.93 108.11 887.93 132.74C887.93 157.37 867.96 177.34 843.33 177.34Z" fill="#FFE4B6"/>
<path d="M887.93 184.18C873.72 184.18 862.21 172.66 862.21 158.46C862.21 144.25 873.73 132.74 887.93 132.74" fill="#FFE4B6"/>
<path d="M835.633 143.48C835.633 142.345 835.788 141.33 836.097 140.436C836.407 139.542 836.906 138.699 837.593 137.908C838.316 137.117 839.262 136.308 840.431 135.483C841.463 134.726 842.289 134.056 842.908 133.471C843.561 132.886 844.026 132.301 844.301 131.717C844.61 131.132 844.765 130.478 844.765 129.756C844.765 128.655 844.352 127.83 843.527 127.279C842.736 126.695 841.618 126.402 840.173 126.402C838.729 126.402 837.301 126.626 835.891 127.073C834.481 127.52 833.036 128.122 831.557 128.879L828.822 123.358C830.508 122.429 832.331 121.673 834.291 121.088C836.252 120.503 838.402 120.211 840.741 120.211C844.318 120.211 847.087 121.071 849.048 122.791C851.043 124.51 852.04 126.695 852.04 129.343C852.04 130.753 851.817 131.975 851.369 133.006C850.922 134.038 850.251 135.001 849.357 135.896C848.463 136.756 847.345 137.684 846.003 138.682C845.006 139.404 844.232 140.023 843.682 140.539C843.131 141.055 842.753 141.554 842.547 142.036C842.375 142.517 842.289 143.119 842.289 143.841V145.338H835.633V143.48ZM834.807 153.954C834.807 152.372 835.237 151.271 836.097 150.652C836.957 149.998 838.006 149.672 839.245 149.672C840.448 149.672 841.48 149.998 842.34 150.652C843.2 151.271 843.63 152.372 843.63 153.954C843.63 155.467 843.2 156.568 842.34 157.256C841.48 157.91 840.448 158.236 839.245 158.236C838.006 158.236 836.957 157.91 836.097 157.256C835.237 156.568 834.807 155.467 834.807 153.954Z" fill="#1C96A0"/>
<path d="M419.89 207.83H416.26C415.31 207.83 414.54 207.06 414.54 206.11C414.54 205.16 415.31 204.39 416.26 204.39H419.89C420.84 204.39 421.61 205.16 421.61 206.11C421.61 207.06 420.84 207.83 419.89 207.83Z" fill="white"/>
<path d="M421.93 219.98C421.78 219.98 421.63 219.96 421.48 219.92L414.47 218.04C413.55 217.8 413.01 216.85 413.26 215.94C413.51 215.02 414.45 214.48 415.36 214.72L422.37 216.6C423.29 216.84 423.83 217.79 423.59 218.7C423.38 219.47 422.68 219.98 421.93 219.98Z" fill="white"/>
<path d="M414.09 229.49C413.8 229.49 413.5 229.42 413.23 229.26L410.09 227.44C409.27 226.97 408.99 225.91 409.46 225.09C409.94 224.27 410.98 223.98 411.81 224.46L414.95 226.28C415.77 226.75 416.05 227.81 415.58 228.63C415.26 229.18 414.68 229.49 414.09 229.49Z" fill="white"/>
<path d="M409.77 241.03C409.33 241.03 408.89 240.86 408.55 240.53L403.42 235.4C402.75 234.73 402.75 233.64 403.42 232.97C404.09 232.3 405.18 232.3 405.85 232.97L410.98 238.1C411.65 238.77 411.65 239.86 410.98 240.53C410.65 240.86 410.21 241.03 409.77 241.03Z" fill="white"/>
<path d="M398.22 245.35C397.62 245.35 397.05 245.04 396.73 244.49L394.93 241.35C394.46 240.53 394.74 239.48 395.56 239C396.38 238.53 397.43 238.81 397.91 239.63L399.71 242.77C400.18 243.59 399.9 244.64 399.08 245.12C398.8 245.28 398.51 245.35 398.22 245.35Z" fill="white"/>
<path d="M396.4 173.44C396.11 173.44 395.81 173.37 395.54 173.21C394.72 172.74 394.44 171.68 394.91 170.86L396.72 167.71C397.19 166.89 398.24 166.6 399.07 167.08C399.89 167.55 400.17 168.61 399.7 169.43L397.89 172.57C397.57 173.13 397 173.44 396.4 173.44Z" fill="white"/>
<path d="M404.63 179.74C404.19 179.74 403.75 179.57 403.42 179.24C402.75 178.57 402.75 177.48 403.42 176.81L408.55 171.67C409.22 171 410.31 171 410.98 171.67C411.65 172.34 411.65 173.43 410.98 174.1L405.85 179.23C405.51 179.58 405.07 179.74 404.63 179.74Z" fill="white"/>
<path d="M410.94 187.96C410.35 187.96 409.77 187.65 409.45 187.1C408.97 186.28 409.26 185.23 410.08 184.75L413.22 182.93C414.04 182.45 415.09 182.74 415.57 183.56C416.05 184.38 415.76 185.43 414.94 185.91L411.8 187.73C411.53 187.89 411.23 187.96 410.94 187.96Z" fill="white"/>
<path d="M414.91 197.54C414.15 197.54 413.46 197.04 413.25 196.27C413 195.35 413.55 194.41 414.47 194.17L421.48 192.29C422.39 192.05 423.34 192.59 423.58 193.5C423.83 194.42 423.28 195.36 422.36 195.6L415.35 197.48C415.21 197.52 415.06 197.54 414.91 197.54Z" fill="white"/>
<path d="M566.6 248.39V285.34" stroke="#070707" stroke-width="1.6674" stroke-miterlimit="10"/>
<path d="M568.79 291.64C568.79 291.64 569.23 272.08 548.41 271.51C548.41 271.5 546.1 292.86 568.79 291.64Z" fill="#FFD423"/>
<path d="M566.96 291.89C561.2 291.89 556.66 290.34 553.45 287.28C550.18 284.17 548.93 280.04 548.45 277.12C547.93 273.97 548.19 271.51 548.19 271.48L548.21 271.29L548.42 271.3C553.22 271.43 557.28 272.58 560.51 274.73C563.1 276.44 565.15 278.79 566.61 281.7C569.09 286.65 569.01 291.59 569.01 291.64V291.83L568.8 291.84C568.17 291.88 567.56 291.89 566.96 291.89ZM548.61 271.71C548.56 272.34 548.45 274.46 548.88 277.07C549.35 279.93 550.58 283.97 553.76 287C557.18 290.26 562.16 291.75 568.56 291.44C568.55 290.5 568.37 286.17 566.19 281.85C562.96 275.41 557.04 272 548.61 271.71Z" fill="#FFD423"/>
<path d="M564.45 291.64C564.45 291.64 564.01 272.08 584.83 271.51C584.83 271.5 587.14 292.86 564.45 291.64Z" fill="#FFD423"/>
<path d="M566.29 291.89C565.69 291.89 565.07 291.87 564.44 291.84L564.23 291.83V291.64C564.23 291.59 564.15 286.65 566.63 281.7C568.09 278.79 570.15 276.44 572.73 274.73C575.96 272.59 580.03 271.44 584.82 271.3L585.03 271.29L585.05 271.48C585.05 271.5 585.31 273.96 584.79 277.12C584.31 280.04 583.06 284.17 579.79 287.28C576.58 290.34 572.04 291.89 566.29 291.89ZM564.67 291.45C571.08 291.76 576.05 290.26 579.47 287.01C582.65 283.98 583.88 279.94 584.35 277.08C584.78 274.47 584.67 272.35 584.62 271.72C576.19 272 570.27 275.42 567.03 281.88C564.86 286.19 564.69 290.5 564.67 291.45Z" fill="#FFD423"/>
<path d="M551.69 321.36H582.17L594.63 291.45H540.26L551.69 321.36Z" fill="#173588"/>
<path d="M628.62 248.39V285.34" stroke="#070707" stroke-width="1.6674" stroke-miterlimit="10"/>
<path d="M631.02 291.61C631.02 291.61 631.51 270.19 608.71 269.57C608.71 269.57 606.18 292.95 631.02 291.61Z" fill="#173588"/>
<path d="M629.01 291.89C622.7 291.89 617.73 290.2 614.22 286.84C610.64 283.43 609.27 278.91 608.75 275.72C608.18 272.27 608.47 269.58 608.47 269.55L608.49 269.34L608.72 269.35C613.97 269.49 618.42 270.76 621.96 273.1C624.79 274.98 627.04 277.55 628.64 280.74C631.36 286.16 631.27 291.57 631.27 291.63V291.84L631.05 291.85C630.35 291.87 629.67 291.89 629.01 291.89ZM608.93 269.8C608.88 270.49 608.76 272.81 609.23 275.66C609.74 278.79 611.09 283.21 614.57 286.53C618.31 290.1 623.76 291.73 630.77 291.4C630.76 290.37 630.56 285.64 628.18 280.9C624.64 273.85 618.16 270.11 608.93 269.8Z" fill="#1C96A0"/>
<path d="M626.27 291.61C626.27 291.61 625.78 270.19 648.58 269.57C648.58 269.57 651.12 292.95 626.27 291.61Z" fill="#173588"/>
<path d="M628.28 291.89C627.62 291.89 626.95 291.87 626.26 291.83L626.04 291.82V291.61C626.04 291.56 625.95 286.14 628.67 280.72C630.27 277.53 632.52 274.96 635.35 273.08C638.89 270.74 643.34 269.47 648.59 269.33L648.82 269.32L648.84 269.53C648.84 269.56 649.12 272.25 648.56 275.7C648.04 278.89 646.66 283.42 643.09 286.82C639.56 290.2 634.58 291.89 628.28 291.89ZM626.52 291.4C633.53 291.74 638.98 290.1 642.72 286.53C646.2 283.21 647.55 278.79 648.06 275.66C648.53 272.81 648.41 270.48 648.36 269.8C639.13 270.11 632.65 273.85 629.1 280.92C626.72 285.65 626.53 290.37 626.52 291.4Z" fill="#1C96A0"/>
<path d="M613.71 321.36H644.19L656.66 291.45H602.28L613.71 321.36Z" fill="#FFE4B6"/>
<path d="M623.73 263.59V251.09C625.31 251.56 626.96 251.82 628.69 251.82C630.41 251.82 632.09 251.56 633.66 251.09V263.59" fill="#FED45D"/>
<path d="M645.99 234.52C645.99 242.35 640.8 248.96 633.66 251.09C632.09 251.56 630.42 251.82 628.69 251.82C626.97 251.82 625.31 251.56 623.73 251.09C616.59 248.96 611.39 242.35 611.39 234.52C611.39 224.96 619.14 217.22 628.69 217.22C638.25 217.23 645.99 224.96 645.99 234.52Z" fill="#FED45D"/>
<path d="M633.66 251.09V263.59H623.73V251.09C625.31 251.56 626.96 251.82 628.69 251.82C630.41 251.82 632.09 251.57 633.66 251.09Z" fill="#FFD423" stroke="#070707" stroke-width="1.6674" stroke-miterlimit="10"/>
<path d="M645.99 234.52C645.99 242.35 640.8 248.96 633.66 251.09C632.09 251.56 630.42 251.82 628.69 251.82C626.97 251.82 625.31 251.56 623.73 251.09C616.59 248.96 611.39 242.35 611.39 234.52C611.39 224.96 619.14 217.22 628.69 217.22C638.25 217.23 645.99 224.96 645.99 234.52Z" fill="#FFD423" stroke="#070707" stroke-width="1.6674" stroke-miterlimit="10"/>
<path d="M628.63 263.59V244.34L623.78 239.48L633.6 233.75L628.54 228.7" fill="#FFD423"/>
<path d="M628.63 263.59V244.34L623.78 239.48L633.6 233.75L628.54 228.7" stroke="#070707" stroke-width="1.6674" stroke-miterlimit="10"/>
<path d="M561.65 263.52V251.04C563.22 251.51 564.88 251.77 566.6 251.77C568.32 251.77 570 251.51 571.56 251.04V263.52" fill="#FED45D"/>
<path d="M583.87 234.5C583.87 242.31 578.68 248.92 571.56 251.04C570 251.51 568.32 251.77 566.6 251.77C564.88 251.77 563.22 251.51 561.65 251.04C554.52 248.91 549.33 242.31 549.33 234.5C549.33 224.95 557.07 217.23 566.6 217.23C576.14 217.23 583.87 224.95 583.87 234.5Z" fill="#FED45D"/>
<path d="M571.56 251.04V263.52H561.65V251.04C563.22 251.51 564.88 251.77 566.6 251.77C568.32 251.77 569.99 251.51 571.56 251.04Z" fill="#FFD423" stroke="#070707" stroke-width="1.6674" stroke-miterlimit="10"/>
<path d="M583.87 234.5C583.87 242.31 578.68 248.92 571.56 251.04C570 251.51 568.32 251.77 566.6 251.77C564.88 251.77 563.22 251.51 561.65 251.04C554.52 248.91 549.33 242.31 549.33 234.5C549.33 224.95 557.07 217.23 566.6 217.23C576.14 217.23 583.87 224.95 583.87 234.5Z" fill="#FFD423" stroke="#070707" stroke-width="1.6674" stroke-miterlimit="10"/>
<path d="M566.54 263.52V244.29L561.69 239.44L571.5 233.73L566.45 228.68" fill="#FFD423"/>
<path d="M566.54 263.52V244.29L561.69 239.44L571.5 233.73L566.45 228.68" stroke="#070707" stroke-width="1.6674" stroke-miterlimit="10"/>
<path d="M724.98 226.72V320.45H713.71C709.36 320.45 705.83 316.93 705.83 312.57V226.72H724.98Z" fill="#FFD423" stroke="#070707" stroke-width="2" stroke-miterlimit="10"/>
<path d="M724.98 226.72V320.45H713.71C709.36 320.45 705.83 316.93 705.83 312.57V226.72H724.98Z" fill="#FFD423" stroke="#070707" stroke-width="2" stroke-miterlimit="10"/>
<path d="M795.49 226.72L795.45 320.46H724.98V226.72H795.49Z" fill="#FFD423" stroke="#070707" stroke-width="2" stroke-miterlimit="10"/>
<path d="M795.49 226.72L795.45 320.46H724.98V226.72H795.49Z" fill="#FFD423" stroke="#070707" stroke-width="2" stroke-miterlimit="10"/>
<path d="M724.98 226.73V209.21C724.98 200.94 731.69 194.23 739.96 194.23C748.23 194.23 754.94 200.94 754.94 209.21V226.73" stroke="#070707" stroke-width="2" stroke-miterlimit="10"/>
<path d="M747.16 238.33V209.21C747.16 200.94 753.87 194.23 762.14 194.23C770.41 194.23 777.12 200.94 777.12 209.21V238.33" stroke="#070707" stroke-width="2" stroke-miterlimit="10"/>
<path d="M821.87 265.29V312.57C821.87 316.93 818.35 320.45 813.99 320.45H776.99C772.63 320.45 769.11 316.93 769.11 312.57V265.29H821.87V265.29Z" fill="#173588"/>
<path d="M821.87 265.29V312.57C821.87 316.93 818.35 320.45 813.99 320.45H776.99C772.63 320.45 769.11 316.93 769.11 312.57V265.29H821.87V265.29Z" stroke="#070707" stroke-width="2" stroke-miterlimit="10"/>
<path d="M803.33 261.57V265.29H787.57V261.57C787.57 257.22 791.1 253.69 795.45 253.69H795.49C797.66 253.7 799.61 254.58 801.02 256C802.45 257.42 803.33 259.39 803.33 261.57Z" stroke="#070707" stroke-width="2" stroke-miterlimit="10"/>
<path d="M803.33 276.89V265.29" stroke="#070707" stroke-width="2" stroke-miterlimit="10"/>
<path d="M787.57 276.89V265.29" stroke="#070707" stroke-width="2" stroke-miterlimit="10"/>
<path d="M832.142 320.458L905.592 320.458L905.592 248.338L832.142 248.338L832.142 320.458Z" fill="#E75553"/>
<path d="M871.882 320.459L905.592 320.459L905.592 287.199L871.882 287.199L871.882 320.459Z" fill="#FFE4B6"/>
<path d="M832.143 320.459L865.853 320.459L865.853 287.199L832.143 287.199L832.143 320.459Z" fill="#FFE4B6"/>
<path d="M832.143 281.166L865.853 281.166L865.853 248.336L832.143 248.336L832.143 281.166Z" fill="#FFE4B6"/>
<path d="M871.882 281.166L905.592 281.166L905.592 248.336L871.882 248.336L871.882 281.166Z" fill="#FFE4B6"/>
<path d="M859.26 236.86L868.87 246.47L878.48 236.86" stroke="#070707" stroke-width="2" stroke-miterlimit="10"/>
<path d="M871.882 320.459L905.592 320.459L905.592 287.199L871.882 287.199L871.882 320.459Z" stroke="#070707" stroke-width="2" stroke-miterlimit="10"/>
<path d="M832.143 320.459L865.853 320.459L865.853 287.199L832.143 287.199L832.143 320.459Z" stroke="#070707" stroke-width="2" stroke-miterlimit="10"/>
<path d="M832.143 281.166L865.853 281.166L865.853 248.336L832.143 248.336L832.143 281.166Z" stroke="#070707" stroke-width="2" stroke-miterlimit="10"/>
<path d="M871.882 281.166L905.592 281.166L905.592 248.336L871.882 248.336L871.882 281.166Z" stroke="#070707" stroke-width="2" stroke-miterlimit="10"/>
<path d="M832.142 320.458L905.592 320.458L905.592 248.338L832.142 248.338L832.142 320.458Z" stroke="#070707" stroke-width="2" stroke-miterlimit="10"/>
<path d="M877.168 248.283L924.658 248.283L924.658 201.643L877.168 201.643L877.168 248.283Z" fill="#E75553"/>
<path d="M902.865 248.282L924.665 248.282L924.665 226.772L902.865 226.772L902.865 248.282Z" fill="#FFD423" stroke="#070707" stroke-width="2" stroke-miterlimit="10"/>
<path d="M877.161 248.282L898.961 248.282L898.961 226.772L877.161 226.772L877.161 248.282Z" fill="#FFD423" stroke="#070707" stroke-width="2" stroke-miterlimit="10"/>
<path d="M877.161 222.875L898.961 222.875L898.961 201.645L877.161 201.645L877.161 222.875Z" fill="#FFD423" stroke="#070707" stroke-width="2" stroke-miterlimit="10"/>
<path d="M902.865 222.875L924.665 222.875L924.665 201.645L902.865 201.645L902.865 222.875Z" fill="#FFD423" stroke="#070707" stroke-width="2" stroke-miterlimit="10"/>
<path d="M894.7 194.23L900.91 200.44L907.13 194.23" stroke="#070707" stroke-width="2" stroke-miterlimit="10"/>
<path d="M902.865 248.282L924.665 248.282L924.665 226.772L902.865 226.772L902.865 248.282Z" stroke="#070707" stroke-width="2" stroke-miterlimit="10"/>
<path d="M877.161 248.282L898.961 248.282L898.961 226.772L877.161 226.772L877.161 248.282Z" stroke="#070707" stroke-width="2" stroke-miterlimit="10"/>
<path d="M877.161 222.875L898.961 222.875L898.961 201.645L877.161 201.645L877.161 222.875Z" stroke="#070707" stroke-width="2" stroke-miterlimit="10"/>
<path d="M902.865 222.875L924.665 222.875L924.665 201.645L902.865 201.645L902.865 222.875Z" stroke="#070707" stroke-width="2" stroke-miterlimit="10"/>
<path d="M877.168 248.283L924.658 248.283L924.658 201.643L877.168 201.643L877.168 248.283Z" stroke="#070707" stroke-width="2" stroke-miterlimit="10"/>
<path d="M147.58 225.57V306.93" stroke="black" stroke-width="2" stroke-miterlimit="10"/>
<path d="M147.55 264.16C147.55 264.16 149.32 246.08 119.84 249.42C119.84 249.42 127.31 256.49 132.12 260.82C139.1 267.1 147.55 264.16 147.55 264.16Z" fill="#7CC8C2"/>
<path d="M142.76 265.32C139.63 265.32 135.5 264.52 131.79 261.18C127.04 256.9 119.58 249.85 119.51 249.77L118.74 249.04L119.79 248.92C131.16 247.63 139.3 249.32 144 253.95C148.55 258.43 148.07 263.96 148.04 264.19L148.01 264.5L147.71 264.6C147.67 264.63 145.64 265.32 142.76 265.32ZM120.96 249.79C123 251.71 128.61 256.99 132.45 260.45C138.4 265.81 145.51 264.22 147.08 263.79C147.1 262.58 146.92 258.2 143.3 254.65C138.96 250.39 131.45 248.76 120.96 249.79Z" fill="#7CC8C2"/>
<path d="M148.24 244.8C148.24 244.8 149.81 228.29 171.23 230.65C171.23 230.65 168.87 249.12 148.24 244.8Z" fill="#7CC8C2"/>
<path d="M154.15 245.95C152.27 245.95 150.26 245.73 148.14 245.28L147.71 245.19L147.75 244.75C147.77 244.49 148.41 238.43 153.73 234.1C157.95 230.67 163.85 229.34 171.28 230.16L171.78 230.21L171.72 230.71C171.68 231.03 170.66 238.51 164.49 242.9C161.64 244.93 158.18 245.95 154.15 245.95ZM148.79 244.41C154.97 245.62 160.06 244.84 163.91 242.1C168.85 238.58 170.31 232.8 170.65 231.08C163.74 230.41 158.25 231.68 154.34 234.86C150.14 238.29 149.04 242.97 148.79 244.41Z" fill="#7CC8C2"/>
<path d="M148.56 225.57C166.846 225.57 181.67 210.746 181.67 192.46C181.67 174.174 166.846 159.35 148.56 159.35C130.274 159.35 115.45 174.174 115.45 192.46C115.45 210.746 130.274 225.57 148.56 225.57Z" fill="#FFD423" stroke="#070707" stroke-width="2" stroke-miterlimit="10"/>
<path d="M148.56 216.93C162.075 216.93 173.03 205.975 173.03 192.46C173.03 178.946 162.075 167.99 148.56 167.99C135.046 167.99 124.09 178.946 124.09 192.46C124.09 205.975 135.046 216.93 148.56 216.93Z" fill="white" stroke="#070707" stroke-width="2" stroke-miterlimit="10"/>
<path d="M149.44 320.85C149.44 320.85 150.27 281.18 111.59 280.02C111.58 280.02 107.29 323.33 149.44 320.85Z" fill="#7CC8C2"/>
<path d="M146.03 321.36C135.33 321.36 126.9 318.22 120.93 312.01C114.86 305.7 112.53 297.32 111.65 291.4C110.69 285.01 111.17 280.02 111.17 279.97L111.21 279.59L111.6 279.6C120.51 279.87 128.06 282.2 134.06 286.55C138.86 290.03 142.67 294.78 145.39 300.69C150 310.72 149.85 320.75 149.85 320.85L149.84 321.23L149.46 321.25C148.29 321.33 147.15 321.36 146.03 321.36ZM111.96 280.44C111.87 281.72 111.67 286.02 112.47 291.3C113.34 297.09 115.62 305.28 121.53 311.44C127.88 318.05 137.12 321.08 149.02 320.45C149 318.54 148.66 309.77 144.62 301.01C138.6 287.94 127.61 281.02 111.96 280.44Z" fill="#7CC8C2"/>
<path d="M145.71 320.85C145.71 320.85 144.88 281.18 183.56 280.02C183.57 280.02 187.87 323.33 145.71 320.85Z" fill="#7CC8C2"/>
<path d="M149.12 321.36C148 321.36 146.86 321.33 145.69 321.26L145.31 321.24L145.3 320.86C145.3 320.76 145.14 310.73 149.76 300.7C152.48 294.79 156.29 290.03 161.09 286.56C167.09 282.22 174.65 279.88 183.55 279.61L183.94 279.6L183.98 279.98C183.98 280.03 184.46 285.01 183.5 291.41C182.61 297.33 180.28 305.7 174.22 312.02C168.25 318.22 159.82 321.36 149.12 321.36ZM146.13 320.46C158.03 321.08 167.27 318.05 173.62 311.45C179.53 305.3 181.81 297.1 182.68 291.31C183.47 286.02 183.27 281.72 183.19 280.45C167.53 281.03 156.54 287.95 150.51 301.04C146.48 309.8 146.15 318.55 146.13 320.46Z" fill="#7CC8C2"/>
<path d="M140.14 202.52L139.59 198.58H135.94L135.39 202.52H132.46L135.74 182.39H140.02L143.3 202.52H140.14ZM136.34 195.85H139.19L137.75 185.7L136.34 195.85Z" fill="#1C96A0"/>
<path d="M144.79 202.52V182.4H153.42V185.28H147.96V190.6H152.3V193.48H147.96V199.66H153.42V202.54H144.79V202.52Z" fill="#1C96A0"/>
<path d="M155.11 202.52V182.4H159.94C163.07 182.4 164.66 184.07 164.66 187.37V197.55C164.66 200.86 163.08 202.52 159.94 202.52H155.11ZM158.27 199.65H159.88C160.94 199.65 161.49 198.99 161.49 197.69V187.22C161.49 185.93 160.94 185.26 159.88 185.26H158.27V199.65Z" fill="#1C96A0"/>
<path d="M301.41 238.98V308.95" stroke="black" stroke-width="2" stroke-miterlimit="10"/>
<path d="M301.39 272.16C301.39 272.16 302.91 256.61 277.56 259.49C277.56 259.49 283.98 265.57 288.12 269.29C294.12 274.7 301.39 272.16 301.39 272.16Z" fill="#1C96A0"/>
<path d="M297.26 273.16C294.57 273.16 291.01 272.47 287.83 269.6C283.74 265.92 277.33 259.85 277.27 259.79L276.61 259.17L277.51 259.07C287.29 257.96 294.29 259.42 298.33 263.4C302.24 267.25 301.83 272.01 301.81 272.21L301.78 272.48L301.52 272.57C301.49 272.58 299.75 273.16 297.26 273.16ZM278.52 259.81C280.27 261.46 285.1 266 288.4 268.97C293.51 273.58 299.64 272.22 300.98 271.84C301 270.8 300.84 267.03 297.73 263.98C294 260.33 287.54 258.92 278.52 259.81Z" fill="#1C96A0"/>
<path d="M301.98 255.52C301.98 255.52 303.33 241.32 321.75 243.35C321.75 243.35 319.72 259.24 301.98 255.52Z" fill="#1C96A0"/>
<path d="M307.06 256.51C305.44 256.51 303.72 256.32 301.89 255.94L301.52 255.86L301.56 255.48C301.58 255.26 302.13 250.05 306.7 246.32C310.33 243.37 315.41 242.23 321.8 242.93L322.23 242.98L322.18 243.41C322.15 243.68 321.27 250.11 315.96 253.89C313.5 255.63 310.52 256.51 307.06 256.51ZM302.45 255.18C307.77 256.22 312.14 255.55 315.46 253.19C319.71 250.17 320.97 245.19 321.26 243.72C315.31 243.14 310.6 244.23 307.24 246.97C303.61 249.92 302.67 253.95 302.45 255.18Z" fill="#1C96A0"/>
<path d="M302.25 238.99C317.979 238.99 330.73 226.239 330.73 210.51C330.73 194.781 317.979 182.03 302.25 182.03C286.521 182.03 273.77 194.781 273.77 210.51C273.77 226.239 286.521 238.99 302.25 238.99Z" fill="#FFD423" stroke="#070707" stroke-width="2" stroke-miterlimit="10"/>
<path d="M302.25 231.55C313.87 231.55 323.29 222.13 323.29 210.51C323.29 198.89 313.87 189.47 302.25 189.47C290.63 189.47 281.21 198.89 281.21 210.51C281.21 222.13 290.63 231.55 302.25 231.55Z" fill="white" stroke="#070707" stroke-width="2" stroke-miterlimit="10"/>
<path d="M303.01 320.92C303.01 320.92 303.72 286.8 270.46 285.81C270.45 285.81 266.76 323.05 303.01 320.92Z" fill="#1C96A0"/>
<path d="M300.08 321.36C290.88 321.36 283.63 318.66 278.5 313.32C273.28 307.89 271.28 300.69 270.52 295.6C269.7 290.1 270.1 285.81 270.11 285.77L270.14 285.44L270.47 285.45C278.13 285.68 284.63 287.69 289.79 291.42C293.92 294.41 297.2 298.5 299.54 303.58C303.51 312.21 303.38 320.83 303.38 320.92L303.37 321.25L303.04 321.27C302.02 321.33 301.04 321.36 300.08 321.36ZM270.78 286.17C270.7 287.27 270.53 290.97 271.22 295.51C271.97 300.49 273.93 307.54 279.01 312.83C284.47 318.51 292.42 321.12 302.65 320.58C302.63 318.94 302.34 311.4 298.87 303.86C293.69 292.62 284.24 286.67 270.78 286.17Z" fill="#1C96A0"/>
<path d="M299.81 320.92C299.81 320.92 299.1 286.8 332.36 285.81C332.36 285.81 336.06 323.05 299.81 320.92Z" fill="#1C96A0"/>
<path d="M302.74 321.36C301.78 321.36 300.8 321.33 299.79 321.27L299.46 321.25L299.45 320.92C299.45 320.83 299.32 312.21 303.29 303.58C305.63 298.5 308.91 294.41 313.04 291.42C318.2 287.69 324.7 285.68 332.36 285.45L332.69 285.44L332.72 285.77C332.72 285.81 333.13 290.1 332.31 295.6C331.55 300.69 329.54 307.89 324.33 313.32C319.19 318.66 311.94 321.36 302.74 321.36ZM300.16 320.58C310.39 321.12 318.34 318.51 323.8 312.83C328.88 307.54 330.84 300.49 331.59 295.51C332.27 290.96 332.1 287.26 332.03 286.17C318.56 286.67 309.11 292.62 303.93 303.88C300.47 311.42 300.18 318.94 300.16 320.58Z" fill="#1C96A0"/>
<path d="M295.01 219.16L294.54 215.77H291.4L290.93 219.16H288.41L291.23 201.85H294.91L297.73 219.16H295.01ZM291.75 213.42H294.2L292.96 204.69L291.75 213.42Z" fill="#1C96A0"/>
<path d="M299.01 219.16V201.85H306.43V204.32H301.73V208.89H305.46V211.36H301.73V216.68H306.43V219.15H299.01V219.16Z" fill="#1C96A0"/>
<path d="M307.89 219.16V201.85H312.04C314.74 201.85 316.1 203.28 316.1 206.13V214.88C316.1 217.72 314.74 219.16 312.04 219.16H307.89ZM310.61 216.69H311.99C312.9 216.69 313.37 216.12 313.37 215.01V206.01C313.37 204.9 312.9 204.33 311.99 204.33H310.61V216.69Z" fill="#1C96A0"/>
</svg>
