<svg width="300" height="300" viewBox="0 0 300 300" fill="none" xmlns="http://www.w3.org/2000/svg">
<g filter="url(#filter0_iii_1568_12156)">
<path fill-rule="evenodd" clip-rule="evenodd" d="M75.7032 172.458L75.7031 172.316V172.316C75.7031 132.867 97.6687 98.0512 127.912 86.3064C127.946 86.2934 127.98 86.2805 128.013 86.2677C134.578 83.7486 140.306 83.7672 147.977 83.7921C148.463 83.7937 148.957 83.7953 149.459 83.7963L149.46 83.796C157.828 80.5087 167.809 84.0949 175.788 87.711C193.607 95.78 208.24 111.974 216.708 132.258C221.789 144.429 224.651 158.072 224.651 172.316V172.316C224.651 178.39 224.322 184.343 223.642 190.111C221.816 205.608 217.456 219.765 210.133 231.328C202.122 243.976 190.564 253.519 174.898 258.315C172.662 265.299 163.568 270.526 152.691 270.526C142.593 270.526 134.032 266.021 131.068 259.789C91.7024 251.089 75.7389 214.714 75.7032 172.458Z" fill="url(#paint0_radial_1568_12156)"/>
</g>
<ellipse cx="95.0304" cy="133.818" rx="4.47588" ry="3.04152" transform="rotate(-39.6655 95.0304 133.818)" fill="#B77D00" fill-opacity="0.37"/>
<ellipse cx="108.21" cy="121.717" rx="4.47588" ry="3.04152" transform="rotate(-39.6655 108.21 121.717)" fill="#B77D00" fill-opacity="0.37"/>
<ellipse cx="119.941" cy="108.752" rx="4.47588" ry="3.04152" transform="rotate(-39.6655 119.941 108.752)" fill="#B77D00" fill-opacity="0.37"/>
<ellipse cx="105.804" cy="106.898" rx="4.47588" ry="3.04152" transform="rotate(-39.6655 105.804 106.898)" fill="#B77D00" fill-opacity="0.37"/>
<g filter="url(#filter1_di_1568_12156)">
<path fill-rule="evenodd" clip-rule="evenodd" d="M183.484 182.235C188.146 178.945 191.191 173.515 191.191 167.375C191.191 157.336 183.053 149.198 173.014 149.198C162.976 149.198 154.838 157.336 154.838 167.375C154.838 173.386 157.756 178.716 162.254 182.025C165.001 179.449 168.695 177.871 172.759 177.871C176.931 177.871 180.716 179.535 183.484 182.235Z" fill="#FAFAFA"/>
</g>
<g filter="url(#filter2_i_1568_12156)">
<rect x="163.347" y="157.706" width="19.3271" height="19.3271" rx="9.66355" fill="#2C2F36"/>
</g>
<g filter="url(#filter3_di_1568_12156)">
<path fill-rule="evenodd" clip-rule="evenodd" d="M136.892 182.235C141.554 178.945 144.599 173.515 144.599 167.375C144.599 157.336 136.461 149.198 126.423 149.198C116.384 149.198 108.246 157.336 108.246 167.375C108.246 173.386 111.164 178.716 115.661 182.025C118.409 179.449 122.103 177.871 126.167 177.871C130.339 177.871 134.123 179.535 136.892 182.235Z" fill="#FAFAFA"/>
</g>
<g filter="url(#filter4_i_1568_12156)">
<rect x="116.754" y="157.706" width="19.3271" height="19.3271" rx="9.66355" fill="#2C2F36"/>
</g>
<g filter="url(#filter5_diiii_1568_12156)">
<mask id="path-10-inside-1_1568_12156" fill="white">
<path d="M178.629 181.711C181.043 181.711 183.033 183.679 182.672 186.066C182.283 188.637 181.55 191.157 180.486 193.566C178.827 197.324 176.394 200.739 173.327 203.615C170.261 206.492 166.62 208.773 162.613 210.33C158.606 211.887 154.312 212.688 149.975 212.688C145.638 212.688 141.344 211.887 137.337 210.33C133.33 208.773 129.69 206.492 126.623 203.615C123.556 200.739 121.124 197.324 119.464 193.566C118.4 191.157 117.667 188.637 117.278 186.066C116.917 183.679 118.907 181.711 121.322 181.711V181.711C123.736 181.711 125.649 183.688 126.138 186.052C126.448 187.548 126.917 189.013 127.541 190.427C128.762 193.191 130.55 195.702 132.805 197.816C135.06 199.931 137.737 201.609 140.683 202.754C143.629 203.898 146.786 204.487 149.975 204.487C153.164 204.487 156.321 203.898 159.267 202.754C162.214 201.609 164.89 199.931 167.145 197.816C169.4 195.702 171.189 193.191 172.409 190.427C173.033 189.013 173.503 187.548 173.812 186.052C174.301 183.688 176.214 181.711 178.629 181.711V181.711Z"/>
</mask>
<path d="M178.629 181.711C181.043 181.711 183.033 183.679 182.672 186.066C182.283 188.637 181.55 191.157 180.486 193.566C178.827 197.324 176.394 200.739 173.327 203.615C170.261 206.492 166.62 208.773 162.613 210.33C158.606 211.887 154.312 212.688 149.975 212.688C145.638 212.688 141.344 211.887 137.337 210.33C133.33 208.773 129.69 206.492 126.623 203.615C123.556 200.739 121.124 197.324 119.464 193.566C118.4 191.157 117.667 188.637 117.278 186.066C116.917 183.679 118.907 181.711 121.322 181.711V181.711C123.736 181.711 125.649 183.688 126.138 186.052C126.448 187.548 126.917 189.013 127.541 190.427C128.762 193.191 130.55 195.702 132.805 197.816C135.06 199.931 137.737 201.609 140.683 202.754C143.629 203.898 146.786 204.487 149.975 204.487C153.164 204.487 156.321 203.898 159.267 202.754C162.214 201.609 164.89 199.931 167.145 197.816C169.4 195.702 171.189 193.191 172.409 190.427C173.033 189.013 173.503 187.548 173.812 186.052C174.301 183.688 176.214 181.711 178.629 181.711V181.711Z" fill="url(#paint1_linear_1568_12156)"/>
<path d="M178.629 181.711C181.043 181.711 183.033 183.679 182.672 186.066C182.283 188.637 181.55 191.157 180.486 193.566C178.827 197.324 176.394 200.739 173.327 203.615C170.261 206.492 166.62 208.773 162.613 210.33C158.606 211.887 154.312 212.688 149.975 212.688C145.638 212.688 141.344 211.887 137.337 210.33C133.33 208.773 129.69 206.492 126.623 203.615C123.556 200.739 121.124 197.324 119.464 193.566C118.4 191.157 117.667 188.637 117.278 186.066C116.917 183.679 118.907 181.711 121.322 181.711V181.711C123.736 181.711 125.649 183.688 126.138 186.052C126.448 187.548 126.917 189.013 127.541 190.427C128.762 193.191 130.55 195.702 132.805 197.816C135.06 199.931 137.737 201.609 140.683 202.754C143.629 203.898 146.786 204.487 149.975 204.487C153.164 204.487 156.321 203.898 159.267 202.754C162.214 201.609 164.89 199.931 167.145 197.816C169.4 195.702 171.189 193.191 172.409 190.427C173.033 189.013 173.503 187.548 173.812 186.052C174.301 183.688 176.214 181.711 178.629 181.711V181.711Z" stroke="url(#paint2_linear_1568_12156)" stroke-width="11.2643" stroke-linejoin="round" mask="url(#path-10-inside-1_1568_12156)"/>
</g>
<g filter="url(#filter6_i_1568_12156)">
<path d="M142.9 78.2572C152.494 71.5115 148.561 56.2128 139.575 48.2951C130.596 40.3513 117.496 36.2468 116.255 37.1251C115.014 38.0033 111.738 55.3663 119.447 67.5031C127.156 79.64 137.038 82.3853 142.9 78.2572Z" fill="#3D830B"/>
</g>
<path d="M142.542 77.9849L143.884 76.9673C148.166 82.6636 150.609 84.8349 150.635 84.8432L149.528 86.1082C149.424 86.0318 146.946 83.8351 142.542 77.9849Z" fill="#3D830B"/>
<g filter="url(#filter7_i_1568_12156)">
<path d="M153.292 81.5234C148.122 77.888 150.241 69.6433 155.084 65.3763C159.923 61.0952 166.983 58.8833 167.652 59.3566C168.321 59.8299 170.086 69.1871 165.931 75.7278C161.777 82.2686 156.452 83.7481 153.292 81.5234Z" fill="#3D830B"/>
</g>
<path d="M153.485 81.3764L152.762 80.8281C150.454 83.8979 149.138 85.0681 149.124 85.0725L149.72 85.7543C149.776 85.7131 151.112 84.5292 153.485 81.3764Z" fill="#3D830B"/>
<path d="M131.623 47.7056C131.526 47.5169 131.531 47.2752 131.65 47.0838C131.845 46.788 132.232 46.697 132.519 46.8747C134.372 48.0261 137.063 50.0476 139.432 53.1692C142.283 56.9323 143.916 61.323 144.295 66.2296C144.325 66.5832 144.061 66.8712 143.707 66.9014C143.354 66.9316 143.066 66.6675 143.036 66.314C142.252 55.8624 135.703 50.3144 131.876 47.9442C131.754 47.8766 131.667 47.7914 131.623 47.7056Z" fill="url(#paint3_linear_1568_12156)"/>
<g filter="url(#filter8_f_1568_12156)">
<ellipse cx="150.456" cy="85.7446" rx="5.65996" ry="1.5024" fill="#744500" fill-opacity="0.6"/>
</g>
<g filter="url(#filter9_f_1568_12156)">
<ellipse cx="151.637" cy="86.0297" rx="5.65996" ry="1.5024" fill="#744500" fill-opacity="0.6"/>
</g>
<path d="M224.488 193.362C223.651 193.362 222.874 192.824 222.605 191.957C222.306 190.911 222.874 189.835 223.92 189.506C240.655 184.456 251.683 166.316 256.734 135.534C256.913 134.458 257.929 133.741 259.005 133.92C260.081 134.099 260.798 135.115 260.619 136.191C257.839 153.226 253.207 166.704 246.872 176.267C241.104 184.934 233.782 190.672 225.085 193.302C224.876 193.332 224.697 193.362 224.488 193.362Z" fill="#1D1D1D"/>
<path d="M257.693 146.382C257.364 146.382 257.035 146.352 256.736 146.292C253.598 145.754 250.251 142.407 251.148 134.697C251.267 133.621 252.254 132.844 253.329 132.963C254.405 133.083 255.182 134.069 255.063 135.145C254.525 139.777 255.9 142.138 257.394 142.407C259.097 142.706 261.428 140.494 262.355 136.34C262.594 135.294 263.64 134.607 264.686 134.846C265.732 135.085 266.419 136.131 266.18 137.177C264.746 143.662 260.95 146.382 257.693 146.382Z" fill="#1D1D1D"/>
<path d="M75.5418 193.361C75.3625 193.361 75.1533 193.331 74.974 193.272C66.2774 190.642 58.9257 184.904 53.1877 176.237C46.8521 166.674 42.2199 153.196 39.4405 136.161C39.2612 135.085 39.9785 134.069 41.0543 133.89C42.1302 133.71 43.1463 134.428 43.3256 135.504C48.3762 166.285 59.4038 184.426 76.1395 189.476C77.1855 189.775 77.7533 190.881 77.4545 191.927C77.1556 192.793 76.3786 193.361 75.5418 193.361Z" fill="#1D1D1D"/>
<path d="M42.3387 146.381C39.0813 146.381 35.256 143.662 33.8215 137.206C33.5824 136.16 34.2399 135.085 35.3157 134.875C36.3617 134.636 37.4376 135.294 37.6468 136.37C38.5732 140.554 40.9042 142.735 42.6077 142.436C44.102 142.167 45.4767 139.806 44.9387 135.174C44.8192 134.098 45.5962 133.112 46.6721 132.993C47.748 132.873 48.7342 133.65 48.8537 134.726C49.7503 142.436 46.4031 145.783 43.2652 146.321C42.9962 146.351 42.6675 146.381 42.3387 146.381Z" fill="#1D1D1D"/>
<g filter="url(#filter10_f_1568_12156)">
<path d="M128.494 258.535C131.703 267.032 145.062 270.291 151.34 270.858C167.57 270.858 174.959 261.514 176.625 256.843C207.524 248.453 218.539 213.463 221.74 199.389C196.481 231.776 128.79 242.112 96.5459 240.86C97.3704 246.927 118.188 255.171 128.494 258.535Z" fill="#EBAD1E"/>
</g>
<defs>
<filter id="filter0_iii_1568_12156" x="71.0607" y="74.9044" width="162.452" height="202.374" filterUnits="userSpaceOnUse" color-interpolation-filters="sRGB">
<feFlood flood-opacity="0" result="BackgroundImageFix"/>
<feBlend mode="normal" in="SourceGraphic" in2="BackgroundImageFix" result="shape"/>
<feColorMatrix in="SourceAlpha" type="matrix" values="0 0 0 0 0 0 0 0 0 0 0 0 0 0 0 0 0 0 127 0" result="hardAlpha"/>
<feMorphology radius="3.37628" operator="erode" in="SourceAlpha" result="effect1_innerShadow_1568_12156"/>
<feOffset dx="8.86273" dy="5.48645"/>
<feGaussianBlur stdDeviation="10.1288"/>
<feComposite in2="hardAlpha" operator="arithmetic" k2="-1" k3="1"/>
<feColorMatrix type="matrix" values="0 0 0 0 0.682806 0 0 0 0 0.0652778 0 0 0 0 0.783333 0 0 0 0.14 0"/>
<feBlend mode="normal" in2="shape" result="effect1_innerShadow_1568_12156"/>
<feColorMatrix in="SourceAlpha" type="matrix" values="0 0 0 0 0 0 0 0 0 0 0 0 0 0 0 0 0 0 127 0" result="hardAlpha"/>
<feOffset dy="-7.59662"/>
<feGaussianBlur stdDeviation="6.54154"/>
<feComposite in2="hardAlpha" operator="arithmetic" k2="-1" k3="1"/>
<feColorMatrix type="matrix" values="0 0 0 0 0.943639 0 0 0 0 0.223611 0 0 0 0 0.958333 0 0 0 0.44 0"/>
<feBlend mode="normal" in2="effect1_innerShadow_1568_12156" result="effect2_innerShadow_1568_12156"/>
<feColorMatrix in="SourceAlpha" type="matrix" values="0 0 0 0 0 0 0 0 0 0 0 0 0 0 0 0 0 0 127 0" result="hardAlpha"/>
<feOffset dx="-4.64238" dy="6.75255"/>
<feGaussianBlur stdDeviation="6.54154"/>
<feComposite in2="hardAlpha" operator="arithmetic" k2="-1" k3="1"/>
<feColorMatrix type="matrix" values="0 0 0 0 1 0 0 0 0 1 0 0 0 0 1 0 0 0 0.59 0"/>
<feBlend mode="normal" in2="effect2_innerShadow_1568_12156" result="effect3_innerShadow_1568_12156"/>
</filter>
<filter id="filter1_di_1568_12156" x="146.646" y="143.054" width="52.738" height="49.4206" filterUnits="userSpaceOnUse" color-interpolation-filters="sRGB">
<feFlood flood-opacity="0" result="BackgroundImageFix"/>
<feColorMatrix in="SourceAlpha" type="matrix" values="0 0 0 0 0 0 0 0 0 0 0 0 0 0 0 0 0 0 127 0" result="hardAlpha"/>
<feOffset dy="2.04806"/>
<feGaussianBlur stdDeviation="4.09612"/>
<feColorMatrix type="matrix" values="0 0 0 0 0 0 0 0 0 0 0 0 0 0 0 0 0 0 0.25 0"/>
<feBlend mode="normal" in2="BackgroundImageFix" result="effect1_dropShadow_1568_12156"/>
<feBlend mode="normal" in="SourceGraphic" in2="effect1_dropShadow_1568_12156" result="shape"/>
<feColorMatrix in="SourceAlpha" type="matrix" values="0 0 0 0 0 0 0 0 0 0 0 0 0 0 0 0 0 0 127 0" result="hardAlpha"/>
<feOffset dy="-1.81765"/>
<feGaussianBlur stdDeviation="4.54413"/>
<feComposite in2="hardAlpha" operator="arithmetic" k2="-1" k3="1"/>
<feColorMatrix type="matrix" values="0 0 0 0 0 0 0 0 0 0 0 0 0 0 0 0 0 0 0.25 0"/>
<feBlend mode="normal" in2="shape" result="effect2_innerShadow_1568_12156"/>
</filter>
<filter id="filter2_i_1568_12156" x="163.347" y="157.706" width="19.3271" height="19.3271" filterUnits="userSpaceOnUse" color-interpolation-filters="sRGB">
<feFlood flood-opacity="0" result="BackgroundImageFix"/>
<feBlend mode="normal" in="SourceGraphic" in2="BackgroundImageFix" result="shape"/>
<feColorMatrix in="SourceAlpha" type="matrix" values="0 0 0 0 0 0 0 0 0 0 0 0 0 0 0 0 0 0 127 0" result="hardAlpha"/>
<feMorphology radius="15.9751" operator="dilate" in="SourceAlpha" result="effect1_innerShadow_1568_12156"/>
<feOffset dx="5.55654" dy="-16.6696"/>
<feGaussianBlur stdDeviation="6.25111"/>
<feComposite in2="hardAlpha" operator="arithmetic" k2="-1" k3="1"/>
<feColorMatrix type="matrix" values="0 0 0 0 0.462111 0 0 0 0 0.203767 0 0 0 0 0.504167 0 0 0 0.35 0"/>
<feBlend mode="normal" in2="shape" result="effect1_innerShadow_1568_12156"/>
</filter>
<filter id="filter3_di_1568_12156" x="100.054" y="143.054" width="52.738" height="49.4226" filterUnits="userSpaceOnUse" color-interpolation-filters="sRGB">
<feFlood flood-opacity="0" result="BackgroundImageFix"/>
<feColorMatrix in="SourceAlpha" type="matrix" values="0 0 0 0 0 0 0 0 0 0 0 0 0 0 0 0 0 0 127 0" result="hardAlpha"/>
<feOffset dy="2.04806"/>
<feGaussianBlur stdDeviation="4.09612"/>
<feColorMatrix type="matrix" values="0 0 0 0 0 0 0 0 0 0 0 0 0 0 0 0 0 0 0.25 0"/>
<feBlend mode="normal" in2="BackgroundImageFix" result="effect1_dropShadow_1568_12156"/>
<feBlend mode="normal" in="SourceGraphic" in2="effect1_dropShadow_1568_12156" result="shape"/>
<feColorMatrix in="SourceAlpha" type="matrix" values="0 0 0 0 0 0 0 0 0 0 0 0 0 0 0 0 0 0 127 0" result="hardAlpha"/>
<feOffset dy="-1.81765"/>
<feGaussianBlur stdDeviation="4.54413"/>
<feComposite in2="hardAlpha" operator="arithmetic" k2="-1" k3="1"/>
<feColorMatrix type="matrix" values="0 0 0 0 0 0 0 0 0 0 0 0 0 0 0 0 0 0 0.25 0"/>
<feBlend mode="normal" in2="shape" result="effect2_innerShadow_1568_12156"/>
</filter>
<filter id="filter4_i_1568_12156" x="116.754" y="157.706" width="19.3271" height="19.3271" filterUnits="userSpaceOnUse" color-interpolation-filters="sRGB">
<feFlood flood-opacity="0" result="BackgroundImageFix"/>
<feBlend mode="normal" in="SourceGraphic" in2="BackgroundImageFix" result="shape"/>
<feColorMatrix in="SourceAlpha" type="matrix" values="0 0 0 0 0 0 0 0 0 0 0 0 0 0 0 0 0 0 127 0" result="hardAlpha"/>
<feMorphology radius="15.9751" operator="dilate" in="SourceAlpha" result="effect1_innerShadow_1568_12156"/>
<feOffset dx="5.55654" dy="-16.6696"/>
<feGaussianBlur stdDeviation="6.25111"/>
<feComposite in2="hardAlpha" operator="arithmetic" k2="-1" k3="1"/>
<feColorMatrix type="matrix" values="0 0 0 0 0.462111 0 0 0 0 0.203767 0 0 0 0 0.504167 0 0 0 0.35 0"/>
<feBlend mode="normal" in2="shape" result="effect1_innerShadow_1568_12156"/>
</filter>
<filter id="filter5_diiii_1568_12156" x="100.168" y="173.177" width="99.6138" height="65.1109" filterUnits="userSpaceOnUse" color-interpolation-filters="sRGB">
<feFlood flood-opacity="0" result="BackgroundImageFix"/>
<feColorMatrix in="SourceAlpha" type="matrix" values="0 0 0 0 0 0 0 0 0 0 0 0 0 0 0 0 0 0 127 0" result="hardAlpha"/>
<feOffset dy="8.53358"/>
<feGaussianBlur stdDeviation="8.53358"/>
<feColorMatrix type="matrix" values="0 0 0 0 0.0298758 0 0 0 0 0.0216858 0 0 0 0 0.0308333 0 0 0 0.24 0"/>
<feBlend mode="normal" in2="BackgroundImageFix" result="effect1_dropShadow_1568_12156"/>
<feBlend mode="normal" in="SourceGraphic" in2="effect1_dropShadow_1568_12156" result="shape"/>
<feColorMatrix in="SourceAlpha" type="matrix" values="0 0 0 0 0 0 0 0 0 0 0 0 0 0 0 0 0 0 127 0" result="hardAlpha"/>
<feOffset dy="2.65489"/>
<feGaussianBlur stdDeviation="1.32745"/>
<feComposite in2="hardAlpha" operator="arithmetic" k2="-1" k3="1"/>
<feColorMatrix type="matrix" values="0 0 0 0 0.17328 0 0 0 0 0.125777 0 0 0 0 0.178833 0 0 0 1 0"/>
<feBlend mode="normal" in2="shape" result="effect2_innerShadow_1568_12156"/>
<feColorMatrix in="SourceAlpha" type="matrix" values="0 0 0 0 0 0 0 0 0 0 0 0 0 0 0 0 0 0 127 0" result="hardAlpha"/>
<feOffset dy="-1.32745"/>
<feGaussianBlur stdDeviation="0.663723"/>
<feComposite in2="hardAlpha" operator="arithmetic" k2="-1" k3="1"/>
<feColorMatrix type="matrix" values="0 0 0 0 0.119503 0 0 0 0 0.086743 0 0 0 0 0.123333 0 0 0 1 0"/>
<feBlend mode="normal" in2="effect2_innerShadow_1568_12156" result="effect3_innerShadow_1568_12156"/>
<feColorMatrix in="SourceAlpha" type="matrix" values="0 0 0 0 0 0 0 0 0 0 0 0 0 0 0 0 0 0 127 0" result="hardAlpha"/>
<feMorphology radius="13.5428" operator="dilate" in="SourceAlpha" result="effect4_innerShadow_1568_12156"/>
<feOffset dx="4.71054" dy="-4.60813"/>
<feGaussianBlur stdDeviation="5.29935"/>
<feComposite in2="hardAlpha" operator="arithmetic" k2="-1" k3="1"/>
<feColorMatrix type="matrix" values="0 0 0 0 0.462111 0 0 0 0 0.203767 0 0 0 0 0.504167 0 0 0 0.35 0"/>
<feBlend mode="normal" in2="effect3_innerShadow_1568_12156" result="effect4_innerShadow_1568_12156"/>
<feColorMatrix in="SourceAlpha" type="matrix" values="0 0 0 0 0 0 0 0 0 0 0 0 0 0 0 0 0 0 127 0" result="hardAlpha"/>
<feMorphology radius="13.5428" operator="dilate" in="SourceAlpha" result="effect5_innerShadow_1568_12156"/>
<feOffset dx="4.71054" dy="-4.60813"/>
<feGaussianBlur stdDeviation="5.29935"/>
<feComposite in2="hardAlpha" operator="arithmetic" k2="-1" k3="1"/>
<feColorMatrix type="matrix" values="0 0 0 0 0.462111 0 0 0 0 0.203767 0 0 0 0 0.504167 0 0 0 0.35 0"/>
<feBlend mode="normal" in2="effect4_innerShadow_1568_12156" result="effect5_innerShadow_1568_12156"/>
</filter>
<filter id="filter6_i_1568_12156" x="114.495" y="37.0078" width="37.4425" height="44.7828" filterUnits="userSpaceOnUse" color-interpolation-filters="sRGB">
<feFlood flood-opacity="0" result="BackgroundImageFix"/>
<feBlend mode="normal" in="SourceGraphic" in2="BackgroundImageFix" result="shape"/>
<feColorMatrix in="SourceAlpha" type="matrix" values="0 0 0 0 0 0 0 0 0 0 0 0 0 0 0 0 0 0 127 0" result="hardAlpha"/>
<feOffset dx="3.4738" dy="1.7369"/>
<feGaussianBlur stdDeviation="4.82472"/>
<feComposite in2="hardAlpha" operator="arithmetic" k2="-1" k3="1"/>
<feColorMatrix type="matrix" values="0 0 0 0 0 0 0 0 0 0 0 0 0 0 0 0 0 0 0.25 0"/>
<feBlend mode="normal" in2="shape" result="effect1_innerShadow_1568_12156"/>
</filter>
<filter id="filter7_i_1568_12156" x="150.294" y="59.2939" width="20.1787" height="24.1333" filterUnits="userSpaceOnUse" color-interpolation-filters="sRGB">
<feFlood flood-opacity="0" result="BackgroundImageFix"/>
<feBlend mode="normal" in="SourceGraphic" in2="BackgroundImageFix" result="shape"/>
<feColorMatrix in="SourceAlpha" type="matrix" values="0 0 0 0 0 0 0 0 0 0 0 0 0 0 0 0 0 0 127 0" result="hardAlpha"/>
<feOffset dx="1.87209" dy="0.936044"/>
<feGaussianBlur stdDeviation="2.60012"/>
<feComposite in2="hardAlpha" operator="arithmetic" k2="-1" k3="1"/>
<feColorMatrix type="matrix" values="0 0 0 0 0 0 0 0 0 0 0 0 0 0 0 0 0 0 0.25 0"/>
<feBlend mode="normal" in2="shape" result="effect1_innerShadow_1568_12156"/>
</filter>
<filter id="filter8_f_1568_12156" x="142.796" y="82.2422" width="15.3203" height="7.00488" filterUnits="userSpaceOnUse" color-interpolation-filters="sRGB">
<feFlood flood-opacity="0" result="BackgroundImageFix"/>
<feBlend mode="normal" in="SourceGraphic" in2="BackgroundImageFix" result="shape"/>
<feGaussianBlur stdDeviation="1" result="effect1_foregroundBlur_1568_12156"/>
</filter>
<filter id="filter9_f_1568_12156" x="143.977" y="82.5273" width="15.3203" height="7.00488" filterUnits="userSpaceOnUse" color-interpolation-filters="sRGB">
<feFlood flood-opacity="0" result="BackgroundImageFix"/>
<feBlend mode="normal" in="SourceGraphic" in2="BackgroundImageFix" result="shape"/>
<feGaussianBlur stdDeviation="1" result="effect1_foregroundBlur_1568_12156"/>
</filter>
<filter id="filter10_f_1568_12156" x="76.5459" y="179.389" width="165.193" height="111.469" filterUnits="userSpaceOnUse" color-interpolation-filters="sRGB">
<feFlood flood-opacity="0" result="BackgroundImageFix"/>
<feBlend mode="normal" in="SourceGraphic" in2="BackgroundImageFix" result="shape"/>
<feGaussianBlur stdDeviation="10" result="effect1_foregroundBlur_1568_12156"/>
</filter>
<radialGradient id="paint0_radial_1568_12156" cx="0" cy="0" r="1" gradientUnits="userSpaceOnUse" gradientTransform="translate(150.103 243.223) rotate(84.5862) scale(27.4259 42.4772)">
<stop stop-color="#FFBB0C"/>
<stop offset="1" stop-color="#FFC907"/>
</radialGradient>
<linearGradient id="paint1_linear_1568_12156" x1="149.975" y1="150.734" x2="149.975" y2="212.688" gradientUnits="userSpaceOnUse">
<stop stop-color="#201721"/>
<stop offset="1" stop-color="#2B1F2C"/>
</linearGradient>
<linearGradient id="paint2_linear_1568_12156" x1="149.975" y1="150.734" x2="149.975" y2="212.688" gradientUnits="userSpaceOnUse">
<stop stop-color="#201721"/>
<stop offset="1" stop-color="#2B1F2C"/>
</linearGradient>
<linearGradient id="paint3_linear_1568_12156" x1="132.769" y1="47.2503" x2="144.33" y2="64.3776" gradientUnits="userSpaceOnUse">
<stop stop-color="white"/>
<stop offset="1" stop-color="white" stop-opacity="0"/>
</linearGradient>
</defs>
</svg>
