<svg width="300" height="300" viewBox="0 0 300 300" fill="none" xmlns="http://www.w3.org/2000/svg">
<g filter="url(#filter0_iii_1568_11852)">
<path fill-rule="evenodd" clip-rule="evenodd" d="M75.7032 172.423L75.7031 172.281V172.281C75.7031 132.832 97.6687 98.0161 127.912 86.2712C127.946 86.2582 127.98 86.2453 128.013 86.2326C134.578 83.7134 140.306 83.732 147.977 83.7569C148.463 83.7585 148.957 83.7601 149.459 83.7611L149.46 83.7609C157.828 80.4735 167.809 84.0597 175.788 87.6758C193.607 95.7448 208.24 111.939 216.708 132.223C221.789 144.394 224.651 158.037 224.651 172.281V172.281C224.651 178.355 224.322 184.308 223.642 190.076C221.816 205.573 217.456 219.73 210.133 231.293C202.122 243.941 190.564 253.484 174.898 258.28C172.662 265.264 163.568 270.491 152.691 270.491C142.593 270.491 134.032 265.986 131.068 259.754C91.7024 251.054 75.7389 214.679 75.7032 172.423Z" fill="url(#paint0_radial_1568_11852)"/>
</g>
<path d="M143.722 78.2349L145.065 77.2173C149.347 82.9136 151.79 85.0849 151.816 85.0932L150.709 86.3582C150.605 86.2818 148.127 84.0851 143.722 78.2349Z" fill="#318C1C"/>
<g filter="url(#filter1_i_1568_11852)">
<path d="M144.081 78.222C153.674 71.4764 149.742 56.1777 140.755 48.2599C131.777 40.3161 118.677 36.2117 117.436 37.0899C116.195 37.9682 112.919 55.3312 120.628 67.468C128.337 79.6048 138.218 82.3501 144.081 78.222Z" fill="#3D830B"/>
</g>
<path d="M143.722 77.9497L145.065 76.9321C149.347 82.6285 151.79 84.7997 151.816 84.8081L150.709 86.0731C150.605 85.9967 148.127 83.7999 143.722 77.9497Z" fill="#3D830B"/>
<g filter="url(#filter2_i_1568_11852)">
<path d="M154.473 81.4882C149.303 77.8529 151.422 69.6081 156.265 65.3411C161.104 61.0601 168.164 58.8481 168.832 59.3214C169.501 59.7947 171.267 69.1519 167.112 75.6927C162.958 82.2334 157.632 83.7129 154.473 81.4882Z" fill="#3D830B"/>
</g>
<path d="M154.666 81.3413L153.942 80.7929C151.635 83.8628 150.318 85.0329 150.304 85.0374L150.901 85.7191C150.957 85.6779 152.292 84.4941 154.666 81.3413Z" fill="#3D830B"/>
<path d="M132.804 47.6705C132.706 47.4818 132.712 47.24 132.831 47.0487C133.025 46.7528 133.413 46.6618 133.7 46.8396C135.552 47.9909 138.244 50.0124 140.612 53.134C143.463 56.8971 145.096 61.2879 145.475 66.1945C145.506 66.548 145.242 66.8361 144.888 66.8663C144.535 66.8965 144.247 66.6324 144.216 66.2789C143.433 55.8272 136.883 50.2793 133.057 47.9091C132.935 47.8415 132.848 47.7562 132.804 47.6705Z" fill="url(#paint1_linear_1568_11852)"/>
<g filter="url(#filter3_f_1568_11852)">
<ellipse cx="151.637" cy="85.7094" rx="5.65996" ry="1.5024" fill="#744500" fill-opacity="0.6"/>
</g>
<path d="M218.059 236.165C215.22 236.165 212.082 235.926 208.556 235.388C207.48 235.238 206.733 234.222 206.912 233.146C207.062 232.07 208.078 231.323 209.154 231.503C224.634 233.864 234.855 230.397 237.933 221.76C239.876 216.321 238.919 209.029 235.303 201.707C231.687 194.325 225.83 187.87 219.255 183.985C218.328 183.447 218 182.222 218.568 181.296C219.105 180.369 220.331 180.04 221.257 180.608C228.46 184.852 234.885 191.905 238.83 199.974C242.894 208.222 243.91 216.65 241.609 223.075C239.786 228.305 234.287 236.165 218.059 236.165Z" fill="#1D1D1D"/>
<path d="M80.9751 236.163C64.7773 236.163 59.2784 228.303 57.4256 223.073C55.1543 216.648 56.1704 208.22 60.2049 199.972C64.1796 191.903 70.575 184.85 77.7774 180.607C78.7038 180.069 79.9291 180.368 80.467 181.294C81.0049 182.22 80.7061 183.446 79.7797 183.984C73.2049 187.839 67.3773 194.294 63.7313 201.706C60.1451 209.027 59.1888 216.319 61.1014 221.758C64.1796 230.395 74.4003 233.862 89.8808 231.501C90.9567 231.352 91.9429 232.069 92.1222 233.145C92.2716 234.221 91.5544 235.207 90.4785 235.386C86.9521 235.924 83.7843 236.163 80.9751 236.163Z" fill="#1D1D1D"/>
<path d="M98.2793 246.325C98.1896 246.325 98.0701 246.325 97.9805 246.295C90.2402 245.129 88.208 237.15 88.208 233.086C88.208 232.01 89.0747 231.113 90.1804 231.113C91.2563 231.113 92.1528 231.98 92.1528 233.086C92.1528 233.414 92.2724 241.454 98.608 242.41C99.6839 242.559 100.431 243.575 100.252 244.651C100.072 245.608 99.2356 246.325 98.2793 246.325Z" fill="#1D1D1D"/>
<path d="M200.756 246.326C199.8 246.326 198.963 245.639 198.814 244.653C198.664 243.577 199.381 242.591 200.457 242.411C206.793 241.455 206.912 233.446 206.912 233.087C206.912 232.011 207.809 231.145 208.885 231.145C209.961 231.145 210.857 232.011 210.857 233.117C210.857 237.181 208.825 245.131 201.085 246.326C200.935 246.296 200.846 246.326 200.756 246.326Z" fill="#1D1D1D"/>
<g filter="url(#filter4_f_1568_11852)">
<path d="M128.494 258.285C131.703 266.782 145.062 270.041 151.34 270.608C167.57 270.608 174.959 261.264 176.625 256.593C207.524 248.203 218.539 213.213 221.74 199.139C196.481 231.526 128.79 241.862 96.5459 240.61C97.3704 246.677 118.188 254.921 128.494 258.285Z" fill="#EBAD1E"/>
</g>
<ellipse rx="4.47588" ry="3.04152" transform="matrix(0.769784 0.638304 0.638304 -0.769784 176.589 100.358)" fill="#B77D00" fill-opacity="0.37"/>
<ellipse rx="4.47588" ry="3.04152" transform="matrix(0.769784 0.638304 0.638304 -0.769784 189.769 112.46)" fill="#B77D00" fill-opacity="0.37"/>
<ellipse rx="4.47588" ry="3.04152" transform="matrix(0.769784 0.638304 0.638304 -0.769784 201.499 125.425)" fill="#B77D00" fill-opacity="0.37"/>
<ellipse rx="4.47588" ry="3.04152" transform="matrix(0.769784 0.638304 0.638304 -0.769784 187.362 127.278)" fill="#B77D00" fill-opacity="0.37"/>
<g filter="url(#filter5_i_1568_11852)">
<path d="M137.219 142.873C139.565 142.873 141.514 144.797 141.01 147.088C140.211 150.726 138.387 154.092 135.713 156.766C132.028 160.451 127.03 162.521 121.819 162.521C116.608 162.521 111.61 160.451 107.925 156.766C105.388 154.23 103.617 151.071 102.759 147.649C102.111 145.064 104.33 142.873 106.994 142.873V142.873C109.492 142.873 111.432 144.991 112.494 147.252C112.996 148.321 113.683 149.306 114.534 150.157C116.466 152.089 119.087 153.174 121.819 153.174C124.551 153.174 127.171 152.089 129.103 150.157C129.816 149.444 130.414 148.637 130.884 147.766C132.222 145.288 134.403 142.873 137.219 142.873V142.873Z" fill="#C4C4C4"/>
<path d="M137.219 142.873C139.565 142.873 141.514 144.797 141.01 147.088C140.211 150.726 138.387 154.092 135.713 156.766C132.028 160.451 127.03 162.521 121.819 162.521C116.608 162.521 111.61 160.451 107.925 156.766C105.388 154.23 103.617 151.071 102.759 147.649C102.111 145.064 104.33 142.873 106.994 142.873V142.873C109.492 142.873 111.432 144.991 112.494 147.252C112.996 148.321 113.683 149.306 114.534 150.157C116.466 152.089 119.087 153.174 121.819 153.174C124.551 153.174 127.171 152.089 129.103 150.157C129.816 149.444 130.414 148.637 130.884 147.766C132.222 145.288 134.403 142.873 137.219 142.873V142.873Z" fill="#221725"/>
</g>
<g filter="url(#filter6_i_1568_11852)">
<path d="M192.463 142.873C194.81 142.873 196.758 144.797 196.254 147.088C195.455 150.726 193.631 154.092 190.957 156.766C187.272 160.451 182.274 162.521 177.063 162.521C171.852 162.521 166.854 160.451 163.169 156.766C160.632 154.23 158.861 151.071 158.003 147.649C157.356 145.064 159.574 142.873 162.238 142.873V142.873C164.736 142.873 166.676 144.991 167.738 147.252C168.24 148.321 168.927 149.306 169.778 150.157C171.71 152.089 174.331 153.174 177.063 153.174C179.795 153.174 182.415 152.089 184.347 150.157C185.06 149.444 185.658 148.637 186.129 147.766C187.466 145.288 189.647 142.873 192.463 142.873V142.873Z" fill="#C4C4C4"/>
<path d="M192.463 142.873C194.81 142.873 196.758 144.797 196.254 147.088C195.455 150.726 193.631 154.092 190.957 156.766C187.272 160.451 182.274 162.521 177.063 162.521C171.852 162.521 166.854 160.451 163.169 156.766C160.632 154.23 158.861 151.071 158.003 147.649C157.356 145.064 159.574 142.873 162.238 142.873V142.873C164.736 142.873 166.676 144.991 167.738 147.252C168.24 148.321 168.927 149.306 169.778 150.157C171.71 152.089 174.331 153.174 177.063 153.174C179.795 153.174 182.415 152.089 184.347 150.157C185.06 149.444 185.658 148.637 186.129 147.766C187.466 145.288 189.647 142.873 192.463 142.873V142.873Z" fill="#221725"/>
</g>
<g filter="url(#filter7_diiii_1568_11852)">
<path d="M172.791 196.124C172.791 189.855 170.3 183.843 165.868 179.411C161.435 174.978 155.424 172.488 149.155 172.488C142.887 172.488 136.875 174.978 132.442 179.411C128.01 183.843 125.52 189.855 125.52 196.124L149.155 196.124H172.791Z" fill="url(#paint2_linear_1568_11852)"/>
<path d="M172.791 196.124C172.791 189.855 170.3 183.843 165.868 179.411C161.435 174.978 155.424 172.488 149.155 172.488C142.887 172.488 136.875 174.978 132.442 179.411C128.01 183.843 125.52 189.855 125.52 196.124L149.155 196.124H172.791Z" fill="url(#paint3_linear_1568_11852)"/>
</g>
<g filter="url(#filter8_di_1568_11852)">
<path d="M173.57 131.011C172.296 131.011 171.24 130.738 170.403 130.192C169.602 129.646 169.056 128.918 168.765 128.008C168.474 127.061 168.474 126.042 168.765 124.95C169.056 123.821 169.657 122.693 170.567 121.564L189.405 97.9215V100.761H172.806C171.386 100.761 170.312 100.415 169.584 99.7234C168.856 98.9954 168.492 97.9579 168.492 96.6111C168.492 95.2642 168.856 94.245 169.584 93.5533C170.312 92.8617 171.386 92.5159 172.806 92.5159H194.101C195.375 92.5159 196.412 92.7889 197.213 93.3349C198.05 93.8809 198.615 94.609 198.906 95.519C199.197 96.4291 199.197 97.4483 198.906 98.5768C198.615 99.7052 198.014 100.834 197.104 101.962L178.266 125.605V122.766H195.739C197.122 122.766 198.178 123.112 198.906 123.803C199.67 124.495 200.052 125.514 200.052 126.861C200.052 128.208 199.67 129.245 198.906 129.973C198.178 130.665 197.122 131.011 195.739 131.011H173.57Z" fill="url(#paint4_linear_1568_11852)"/>
</g>
<g filter="url(#filter9_di_1568_11852)">
<path d="M205.836 112.24C204.803 112.24 203.948 112.019 203.269 111.577C202.621 111.134 202.178 110.544 201.942 109.807C201.706 109.04 201.706 108.214 201.942 107.329C202.178 106.414 202.665 105.5 203.402 104.586L218.667 85.4266V87.7274H205.216C204.066 87.7274 203.196 87.4472 202.606 86.8867C202.016 86.2968 201.721 85.4561 201.721 84.3646C201.721 83.2732 202.016 82.4473 202.606 81.8868C203.196 81.3263 204.066 81.0461 205.216 81.0461H222.473C223.505 81.0461 224.346 81.2673 224.995 81.7098C225.673 82.1523 226.13 82.7422 226.366 83.4797C226.602 84.2171 226.602 85.0431 226.366 85.9575C226.13 86.872 225.644 87.7864 224.906 88.7008L209.641 107.86V105.559H223.8C224.921 105.559 225.776 105.839 226.366 106.4C226.986 106.96 227.296 107.786 227.296 108.877C227.296 109.969 226.986 110.81 226.366 111.4C225.776 111.96 224.921 112.24 223.8 112.24H205.836Z" fill="url(#paint5_linear_1568_11852)"/>
</g>
<defs>
<filter id="filter0_iii_1568_11852" x="71.0607" y="74.8692" width="162.452" height="202.374" filterUnits="userSpaceOnUse" color-interpolation-filters="sRGB">
<feFlood flood-opacity="0" result="BackgroundImageFix"/>
<feBlend mode="normal" in="SourceGraphic" in2="BackgroundImageFix" result="shape"/>
<feColorMatrix in="SourceAlpha" type="matrix" values="0 0 0 0 0 0 0 0 0 0 0 0 0 0 0 0 0 0 127 0" result="hardAlpha"/>
<feMorphology radius="3.37628" operator="erode" in="SourceAlpha" result="effect1_innerShadow_1568_11852"/>
<feOffset dx="8.86273" dy="5.48645"/>
<feGaussianBlur stdDeviation="10.1288"/>
<feComposite in2="hardAlpha" operator="arithmetic" k2="-1" k3="1"/>
<feColorMatrix type="matrix" values="0 0 0 0 0.682806 0 0 0 0 0.0652778 0 0 0 0 0.783333 0 0 0 0.14 0"/>
<feBlend mode="normal" in2="shape" result="effect1_innerShadow_1568_11852"/>
<feColorMatrix in="SourceAlpha" type="matrix" values="0 0 0 0 0 0 0 0 0 0 0 0 0 0 0 0 0 0 127 0" result="hardAlpha"/>
<feOffset dy="-7.59662"/>
<feGaussianBlur stdDeviation="6.54154"/>
<feComposite in2="hardAlpha" operator="arithmetic" k2="-1" k3="1"/>
<feColorMatrix type="matrix" values="0 0 0 0 0.943639 0 0 0 0 0.223611 0 0 0 0 0.958333 0 0 0 0.44 0"/>
<feBlend mode="normal" in2="effect1_innerShadow_1568_11852" result="effect2_innerShadow_1568_11852"/>
<feColorMatrix in="SourceAlpha" type="matrix" values="0 0 0 0 0 0 0 0 0 0 0 0 0 0 0 0 0 0 127 0" result="hardAlpha"/>
<feOffset dx="-4.64238" dy="6.75255"/>
<feGaussianBlur stdDeviation="6.54154"/>
<feComposite in2="hardAlpha" operator="arithmetic" k2="-1" k3="1"/>
<feColorMatrix type="matrix" values="0 0 0 0 1 0 0 0 0 1 0 0 0 0 1 0 0 0 0.59 0"/>
<feBlend mode="normal" in2="effect2_innerShadow_1568_11852" result="effect3_innerShadow_1568_11852"/>
</filter>
<filter id="filter1_i_1568_11852" x="115.676" y="36.9727" width="37.4425" height="44.7828" filterUnits="userSpaceOnUse" color-interpolation-filters="sRGB">
<feFlood flood-opacity="0" result="BackgroundImageFix"/>
<feBlend mode="normal" in="SourceGraphic" in2="BackgroundImageFix" result="shape"/>
<feColorMatrix in="SourceAlpha" type="matrix" values="0 0 0 0 0 0 0 0 0 0 0 0 0 0 0 0 0 0 127 0" result="hardAlpha"/>
<feOffset dx="3.4738" dy="1.7369"/>
<feGaussianBlur stdDeviation="4.82472"/>
<feComposite in2="hardAlpha" operator="arithmetic" k2="-1" k3="1"/>
<feColorMatrix type="matrix" values="0 0 0 0 0 0 0 0 0 0 0 0 0 0 0 0 0 0 0.25 0"/>
<feBlend mode="normal" in2="shape" result="effect1_innerShadow_1568_11852"/>
</filter>
<filter id="filter2_i_1568_11852" x="151.475" y="59.2588" width="20.1787" height="24.1333" filterUnits="userSpaceOnUse" color-interpolation-filters="sRGB">
<feFlood flood-opacity="0" result="BackgroundImageFix"/>
<feBlend mode="normal" in="SourceGraphic" in2="BackgroundImageFix" result="shape"/>
<feColorMatrix in="SourceAlpha" type="matrix" values="0 0 0 0 0 0 0 0 0 0 0 0 0 0 0 0 0 0 127 0" result="hardAlpha"/>
<feOffset dx="1.87209" dy="0.936044"/>
<feGaussianBlur stdDeviation="2.60012"/>
<feComposite in2="hardAlpha" operator="arithmetic" k2="-1" k3="1"/>
<feColorMatrix type="matrix" values="0 0 0 0 0 0 0 0 0 0 0 0 0 0 0 0 0 0 0.25 0"/>
<feBlend mode="normal" in2="shape" result="effect1_innerShadow_1568_11852"/>
</filter>
<filter id="filter3_f_1568_11852" x="143.977" y="82.207" width="15.3203" height="7.00488" filterUnits="userSpaceOnUse" color-interpolation-filters="sRGB">
<feFlood flood-opacity="0" result="BackgroundImageFix"/>
<feBlend mode="normal" in="SourceGraphic" in2="BackgroundImageFix" result="shape"/>
<feGaussianBlur stdDeviation="1" result="effect1_foregroundBlur_1568_11852"/>
</filter>
<filter id="filter4_f_1568_11852" x="76.5459" y="179.139" width="165.193" height="111.469" filterUnits="userSpaceOnUse" color-interpolation-filters="sRGB">
<feFlood flood-opacity="0" result="BackgroundImageFix"/>
<feBlend mode="normal" in="SourceGraphic" in2="BackgroundImageFix" result="shape"/>
<feGaussianBlur stdDeviation="10" result="effect1_foregroundBlur_1568_11852"/>
</filter>
<filter id="filter5_i_1568_11852" x="102.646" y="142.873" width="38.4443" height="19.6484" filterUnits="userSpaceOnUse" color-interpolation-filters="sRGB">
<feFlood flood-opacity="0" result="BackgroundImageFix"/>
<feBlend mode="normal" in="SourceGraphic" in2="BackgroundImageFix" result="shape"/>
<feColorMatrix in="SourceAlpha" type="matrix" values="0 0 0 0 0 0 0 0 0 0 0 0 0 0 0 0 0 0 127 0" result="hardAlpha"/>
<feMorphology radius="15.0641" operator="dilate" in="SourceAlpha" result="effect1_innerShadow_1568_11852"/>
<feOffset dx="5.23968" dy="-3.98672"/>
<feGaussianBlur stdDeviation="5.89465"/>
<feComposite in2="hardAlpha" operator="arithmetic" k2="-1" k3="1"/>
<feColorMatrix type="matrix" values="0 0 0 0 0.462111 0 0 0 0 0.203767 0 0 0 0 0.504167 0 0 0 0.35 0"/>
<feBlend mode="normal" in2="shape" result="effect1_innerShadow_1568_11852"/>
</filter>
<filter id="filter6_i_1568_11852" x="157.89" y="142.873" width="38.4443" height="19.6484" filterUnits="userSpaceOnUse" color-interpolation-filters="sRGB">
<feFlood flood-opacity="0" result="BackgroundImageFix"/>
<feBlend mode="normal" in="SourceGraphic" in2="BackgroundImageFix" result="shape"/>
<feColorMatrix in="SourceAlpha" type="matrix" values="0 0 0 0 0 0 0 0 0 0 0 0 0 0 0 0 0 0 127 0" result="hardAlpha"/>
<feMorphology radius="15.0641" operator="dilate" in="SourceAlpha" result="effect1_innerShadow_1568_11852"/>
<feOffset dx="5.23968" dy="-5.12578"/>
<feGaussianBlur stdDeviation="5.89465"/>
<feComposite in2="hardAlpha" operator="arithmetic" k2="-1" k3="1"/>
<feColorMatrix type="matrix" values="0 0 0 0 0.462111 0 0 0 0 0.203767 0 0 0 0 0.504167 0 0 0 0.35 0"/>
<feBlend mode="normal" in2="shape" result="effect1_innerShadow_1568_11852"/>
</filter>
<filter id="filter7_diiii_1568_11852" x="106.535" y="156.921" width="85.2402" height="61.6035" filterUnits="userSpaceOnUse" color-interpolation-filters="sRGB">
<feFlood flood-opacity="0" result="BackgroundImageFix"/>
<feColorMatrix in="SourceAlpha" type="matrix" values="0 0 0 0 0 0 0 0 0 0 0 0 0 0 0 0 0 0 127 0" result="hardAlpha"/>
<feOffset dy="3.41719"/>
<feGaussianBlur stdDeviation="9.49218"/>
<feColorMatrix type="matrix" values="0 0 0 0 0.0298758 0 0 0 0 0.0216858 0 0 0 0 0.0308333 0 0 0 0.24 0"/>
<feBlend mode="normal" in2="BackgroundImageFix" result="effect1_dropShadow_1568_11852"/>
<feBlend mode="normal" in="SourceGraphic" in2="effect1_dropShadow_1568_11852" result="shape"/>
<feColorMatrix in="SourceAlpha" type="matrix" values="0 0 0 0 0 0 0 0 0 0 0 0 0 0 0 0 0 0 127 0" result="hardAlpha"/>
<feOffset dy="-19.3641"/>
<feGaussianBlur stdDeviation="1.47656"/>
<feComposite in2="hardAlpha" operator="arithmetic" k2="-1" k3="1"/>
<feColorMatrix type="matrix" values="0 0 0 0 0.17328 0 0 0 0 0.125777 0 0 0 0 0.178833 0 0 0 1 0"/>
<feBlend mode="normal" in2="shape" result="effect2_innerShadow_1568_11852"/>
<feColorMatrix in="SourceAlpha" type="matrix" values="0 0 0 0 0 0 0 0 0 0 0 0 0 0 0 0 0 0 127 0" result="hardAlpha"/>
<feOffset dy="-22.7812"/>
<feGaussianBlur stdDeviation="0.738281"/>
<feComposite in2="hardAlpha" operator="arithmetic" k2="-1" k3="1"/>
<feColorMatrix type="matrix" values="0 0 0 0 0.119503 0 0 0 0 0.086743 0 0 0 0 0.123333 0 0 0 1 0"/>
<feBlend mode="normal" in2="effect2_innerShadow_1568_11852" result="effect3_innerShadow_1568_11852"/>
<feColorMatrix in="SourceAlpha" type="matrix" values="0 0 0 0 0 0 0 0 0 0 0 0 0 0 0 0 0 0 127 0" result="hardAlpha"/>
<feMorphology radius="15.0641" operator="dilate" in="SourceAlpha" result="effect4_innerShadow_1568_11852"/>
<feOffset dx="5.23968" dy="-7.4039"/>
<feGaussianBlur stdDeviation="5.89465"/>
<feComposite in2="hardAlpha" operator="arithmetic" k2="-1" k3="1"/>
<feColorMatrix type="matrix" values="0 0 0 0 0.462111 0 0 0 0 0.203767 0 0 0 0 0.504167 0 0 0 0.35 0"/>
<feBlend mode="normal" in2="effect3_innerShadow_1568_11852" result="effect4_innerShadow_1568_11852"/>
<feColorMatrix in="SourceAlpha" type="matrix" values="0 0 0 0 0 0 0 0 0 0 0 0 0 0 0 0 0 0 127 0" result="hardAlpha"/>
<feMorphology radius="15.0641" operator="dilate" in="SourceAlpha" result="effect5_innerShadow_1568_11852"/>
<feOffset dx="5.23968" dy="-17.6555"/>
<feGaussianBlur stdDeviation="5.89465"/>
<feComposite in2="hardAlpha" operator="arithmetic" k2="-1" k3="1"/>
<feColorMatrix type="matrix" values="0 0 0 0 0.462111 0 0 0 0 0.203767 0 0 0 0 0.504167 0 0 0 0.35 0"/>
<feBlend mode="normal" in2="effect4_innerShadow_1568_11852" result="effect5_innerShadow_1568_11852"/>
</filter>
<filter id="filter8_di_1568_11852" x="155.229" y="82.4892" width="57.923" height="64.6935" filterUnits="userSpaceOnUse" color-interpolation-filters="sRGB">
<feFlood flood-opacity="0" result="BackgroundImageFix"/>
<feColorMatrix in="SourceAlpha" type="matrix" values="0 0 0 0 0 0 0 0 0 0 0 0 0 0 0 0 0 0 127 0" result="hardAlpha"/>
<feOffset dy="3.07282"/>
<feGaussianBlur stdDeviation="6.54961"/>
<feColorMatrix type="matrix" values="0 0 0 0 0.283333 0 0 0 0 0.283333 0 0 0 0 0.283333 0 0 0 0.62 0"/>
<feBlend mode="normal" in2="BackgroundImageFix" result="effect1_dropShadow_1568_11852"/>
<feBlend mode="normal" in="SourceGraphic" in2="effect1_dropShadow_1568_11852" result="shape"/>
<feColorMatrix in="SourceAlpha" type="matrix" values="0 0 0 0 0 0 0 0 0 0 0 0 0 0 0 0 0 0 127 0" result="hardAlpha"/>
<feOffset dx="-1.53641"/>
<feGaussianBlur stdDeviation="3.07107"/>
<feComposite in2="hardAlpha" operator="arithmetic" k2="-1" k3="1"/>
<feColorMatrix type="matrix" values="0 0 0 0 1 0 0 0 0 1 0 0 0 0 1 0 0 0 0.6 0"/>
<feBlend mode="normal" in2="shape" result="effect2_innerShadow_1568_11852"/>
</filter>
<filter id="filter9_di_1568_11852" x="188.489" y="71.0195" width="51.9064" height="57.3928" filterUnits="userSpaceOnUse" color-interpolation-filters="sRGB">
<feFlood flood-opacity="0" result="BackgroundImageFix"/>
<feColorMatrix in="SourceAlpha" type="matrix" values="0 0 0 0 0 0 0 0 0 0 0 0 0 0 0 0 0 0 127 0" result="hardAlpha"/>
<feOffset dy="3.07282"/>
<feGaussianBlur stdDeviation="6.54961"/>
<feColorMatrix type="matrix" values="0 0 0 0 0.283333 0 0 0 0 0.283333 0 0 0 0 0.283333 0 0 0 0.62 0"/>
<feBlend mode="normal" in2="BackgroundImageFix" result="effect1_dropShadow_1568_11852"/>
<feBlend mode="normal" in="SourceGraphic" in2="effect1_dropShadow_1568_11852" result="shape"/>
<feColorMatrix in="SourceAlpha" type="matrix" values="0 0 0 0 0 0 0 0 0 0 0 0 0 0 0 0 0 0 127 0" result="hardAlpha"/>
<feOffset dx="-1.24502"/>
<feGaussianBlur stdDeviation="2.48863"/>
<feComposite in2="hardAlpha" operator="arithmetic" k2="-1" k3="1"/>
<feColorMatrix type="matrix" values="0 0 0 0 1 0 0 0 0 1 0 0 0 0 1 0 0 0 0.6 0"/>
<feBlend mode="normal" in2="shape" result="effect2_innerShadow_1568_11852"/>
</filter>
<radialGradient id="paint0_radial_1568_11852" cx="0" cy="0" r="1" gradientUnits="userSpaceOnUse" gradientTransform="translate(150.103 243.187) rotate(84.5862) scale(27.4259 42.4772)">
<stop stop-color="#FFBB0C"/>
<stop offset="1" stop-color="#FFC907"/>
</radialGradient>
<linearGradient id="paint1_linear_1568_11852" x1="133.949" y1="47.2151" x2="145.511" y2="64.3425" gradientUnits="userSpaceOnUse">
<stop stop-color="white"/>
<stop offset="1" stop-color="white" stop-opacity="0"/>
</linearGradient>
<linearGradient id="paint2_linear_1568_11852" x1="149.155" y1="172.488" x2="149.155" y2="219.759" gradientUnits="userSpaceOnUse">
<stop stop-color="#201721"/>
<stop offset="1" stop-color="#2B1F2C"/>
</linearGradient>
<linearGradient id="paint3_linear_1568_11852" x1="149.155" y1="172.488" x2="149.155" y2="219.759" gradientUnits="userSpaceOnUse">
<stop stop-color="#201721"/>
<stop offset="1" stop-color="#2B1F2C"/>
</linearGradient>
<linearGradient id="paint4_linear_1568_11852" x1="166.526" y1="139.371" x2="201.978" y2="139.371" gradientUnits="userSpaceOnUse">
<stop stop-color="#408013"/>
<stop offset="1" stop-color="#65F200"/>
</linearGradient>
<linearGradient id="paint5_linear_1568_11852" x1="200.128" y1="119.481" x2="228.856" y2="119.481" gradientUnits="userSpaceOnUse">
<stop stop-color="#408013"/>
<stop offset="1" stop-color="#65F200"/>
</linearGradient>
</defs>
</svg>
