<svg width="15" height="15" viewBox="0 0 15 15" fill="none" xmlns="http://www.w3.org/2000/svg">
<g clip-path="url(#clip0_79_248)">
<path d="M14.455 7.18894C14.455 3.40548 11.3879 0.338379 7.60447 0.338379C3.82101 0.338379 0.753906 3.40548 0.753906 7.18894C0.753906 10.6082 3.25904 13.4424 6.53407 13.9563V9.16918H4.79467V7.18894H6.53407V5.67968C6.53407 3.96276 7.55684 3.01438 9.12163 3.01438C9.87091 3.01438 10.6551 3.14818 10.6551 3.14818V4.83406H9.7913C8.94033 4.83406 8.67487 5.36217 8.67487 5.90446V7.18894H10.5748L10.2711 9.16918H8.67487V13.9563C11.9499 13.4424 14.455 10.6082 14.455 7.18894Z" fill="#E85C57"/>
</g>
<defs>
<clipPath id="clip0_79_248">
<rect width="13.7011" height="13.7011" fill="white" transform="translate(0.753906 0.338379)"/>
</clipPath>
</defs>
</svg>
