
<svg width="303" height="290" viewBox="0 0 303 290" fill="none" xmlns="http://www.w3.org/2000/svg">
<path d="M2.91003 289.52C2.91003 206.68 70.07 139.52 152.91 139.52C235.75 139.52 302.91 206.68 302.91 289.52" fill="#1C96A0"/>
<path d="M198.05 85.8199V186.11H298.33C298.33 130.72 253.43 85.8199 198.05 85.8199Z" fill="#7CC8C2"/>
<path d="M31.4801 71.6L61.9101 35.15V71.6H31.4801Z" fill="white" stroke="black" strokeWidth="2" stroke-miterlimit="10"/>
<path d="M264.25 269.27L277.02 247.14H251.54L264.25 269.27Z" fill="#E75553"/>
<path d="M240.24 42.23L225.68 67.44H254.71L240.24 42.23Z" fill="#FED45D"/>
<path d="M120.13 96.7V107.62H111.46V96.7C112.84 97.11 114.28 97.34 115.79 97.34C117.3 97.34 118.76 97.11 120.13 96.7Z" fill="#FED45D"/>
<path d="M130.9 82.22C130.9 89.06 126.36 94.83 120.13 96.69C118.76 97.1 117.3 97.33 115.79 97.33C114.28 97.33 112.84 97.11 111.46 96.69C105.23 94.83 100.68 89.05 100.68 82.22C100.68 73.87 107.45 67.11 115.79 67.11C124.14 67.11 130.9 73.87 130.9 82.22Z" fill="#FED45D"/>
<path d="M163.9 116.23V158.78C163.9 163.53 160.04 167.39 155.29 167.39H76.3002C71.5402 167.39 67.6902 163.53 67.6902 158.78V116.23C67.6902 111.48 71.5402 107.62 76.3002 107.62H155.29C160.04 107.62 163.9 111.47 163.9 116.23Z" fill="#E75553"/>
<path d="M48.4801 214.45V289.48H33.6501V214.45C35.8401 216.4 38.3701 217.51 41.0601 217.51C43.7501 217.51 46.2901 216.4 48.4801 214.45Z" fill="white"/>
<path d="M244.26 176.39C243.88 180.63 243.63 185.46 243.37 190.58C241.99 217.4 240.28 250.77 216.99 255.06C216.67 255.11 216.34 255.15 216.01 255.17C215.6 255.19 215.19 255.2 214.79 255.2C195.51 255.2 185.96 231.85 183.34 217.78C183.13 216.67 183.18 215.57 183.45 214.54C185.59 215.72 188.08 216.4 190.71 216.4C193.34 216.4 195.82 215.73 197.97 214.53C198.01 214.69 198.05 214.85 198.08 215.02C199.33 221.61 205.05 240.06 214.76 240.2C225.95 237.35 227.42 208.8 228.39 189.81C228.66 184.55 228.92 179.58 229.32 175.06C229.68 170.93 233.32 167.89 237.45 168.25C241.58 168.62 244.62 172.26 244.26 176.39Z" fill="white"/>
<path d="M165.45 288.49H66.1301C60.6101 288.49 56.1301 284.01 56.1301 278.49V189.39C56.1301 183.87 60.6101 179.39 66.1301 179.39H165.45C170.97 179.39 175.45 183.87 175.45 189.39V278.49C175.45 284.01 170.97 288.49 165.45 288.49Z" fill="#E75553"/>
<path d="M150.44 211.34H81.1401V288.49H150.44V211.34Z" fill="#FED45D"/>
<path d="M67.6801 119.4H56.1301V155.61H67.6801V119.4Z" fill="#FED45D"/>
<path d="M176.34 119.4H163.9V155.61H176.34V119.4Z" fill="#FED45D"/>
<path d="M163.9 116.23V158.78C163.9 163.53 160.04 167.39 155.29 167.39H76.3002C71.5402 167.39 67.6902 163.53 67.6902 158.78V116.23C67.6902 111.48 71.5402 107.62 76.3002 107.62H155.29C160.04 107.62 163.9 111.47 163.9 116.23Z" stroke="black" strokeWidth="2" stroke-miterlimit="10" stroke-linecap="round" stroke-linejoin="round"/>
<path d="M165.45 288.49H66.1301C60.6101 288.49 56.1301 284.01 56.1301 278.49V189.39C56.1301 183.87 60.6101 179.39 66.1301 179.39H165.45C170.97 179.39 175.45 183.87 175.45 189.39V278.49C175.45 284.01 170.97 288.49 165.45 288.49Z" stroke="black" strokeWidth="2" stroke-miterlimit="10" stroke-linecap="round" stroke-linejoin="round"/>
<path d="M134.46 167.39H97.1301V179.39H134.46V167.39Z" stroke="black" strokeWidth="2" stroke-miterlimit="10" stroke-linecap="round" stroke-linejoin="round"/>
<path d="M120.13 96.7V107.62H111.46V96.7C112.84 97.11 114.28 97.34 115.79 97.34C117.3 97.34 118.76 97.11 120.13 96.7Z" stroke="black" strokeWidth="2" stroke-miterlimit="10" stroke-linecap="round" stroke-linejoin="round"/>
<path d="M150.44 211.34H81.1401V288.49H150.44V211.34Z" stroke="black" strokeWidth="2" stroke-miterlimit="10" stroke-linecap="round" stroke-linejoin="round"/>
<path d="M130.9 82.22C130.9 89.06 126.36 94.83 120.13 96.69C118.76 97.1 117.3 97.33 115.79 97.33C114.28 97.33 112.84 97.11 111.46 96.69C105.23 94.83 100.68 89.05 100.68 82.22C100.68 73.87 107.45 67.11 115.79 67.11C124.14 67.11 130.9 73.87 130.9 82.22Z" stroke="black" strokeWidth="2" stroke-miterlimit="10" stroke-linecap="round" stroke-linejoin="round"/>
<path d="M140.58 141.72C146.103 141.72 150.58 137.243 150.58 131.72C150.58 126.197 146.103 121.72 140.58 121.72C135.057 121.72 130.58 126.197 130.58 131.72C130.58 137.243 135.057 141.72 140.58 141.72Z" fill="#FFE4B6"/>
<path d="M91.0001 141.72C96.523 141.72 101 137.243 101 131.72C101 126.197 96.523 121.72 91.0001 121.72C85.4773 121.72 81.0001 126.197 81.0001 131.72C81.0001 137.243 85.4773 141.72 91.0001 141.72Z" fill="#FFE4B6"/>
<path d="M104.91 144.59C104.91 150.68 109.84 155.61 115.93 155.61C122.02 155.61 126.95 150.68 126.95 144.59H104.91Z" fill="white"/>
<path d="M104.91 144.59C104.91 150.68 109.84 155.61 115.93 155.61C122.02 155.61 126.95 150.68 126.95 144.59H104.91Z" stroke="black" strokeWidth="2" stroke-miterlimit="10" stroke-linecap="round" stroke-linejoin="round"/>
<path d="M129.56 132.74C129.56 126.65 134.49 121.72 140.58 121.72C146.67 121.72 151.6 126.65 151.6 132.74" stroke="black" strokeWidth="2" stroke-miterlimit="10" stroke-linecap="round" stroke-linejoin="round"/>
<path d="M79.9801 132.74C79.9801 126.65 84.9101 121.72 91.0001 121.72C97.0901 121.72 102.02 126.65 102.02 132.74" stroke="black" strokeWidth="2" stroke-miterlimit="10" stroke-linecap="round" stroke-linejoin="round"/>
<path d="M56.1301 201.34C56.1301 206.96 53.0601 211.87 48.4801 214.45C46.2901 215.7 43.7501 216.4 41.0601 216.4C38.3701 216.4 35.8301 215.69 33.6501 214.45C29.0801 211.87 26.0001 206.97 26.0001 201.34C26.0001 193.02 32.7501 186.27 41.0701 186.27C49.3801 186.27 56.1301 193.02 56.1301 201.34Z" fill="#FED45D"/>
<path d="M48.4801 214.45V288.49H33.6501V214.45C35.8401 215.7 38.3701 216.4 41.0601 216.4C43.7501 216.41 46.2901 215.7 48.4801 214.45Z" stroke="black" strokeWidth="2" stroke-miterlimit="10" stroke-linecap="round" stroke-linejoin="round"/>
<path d="M201.13 226.5C198.94 227.75 196.41 228.45 193.72 228.45C191.03 228.45 188.48 227.74 186.3 226.5" stroke="black" strokeWidth="2" stroke-miterlimit="10" stroke-linecap="round" stroke-linejoin="round"/>
<path d="M223.11 230.02C225.6 229.63 228.21 229.87 230.73 230.83C233.25 231.79 235.37 233.35 236.97 235.3" stroke="black" strokeWidth="2" stroke-miterlimit="10" stroke-linecap="round" stroke-linejoin="round"/>
<path d="M226.67 215.5C229.05 214.66 231.66 214.42 234.31 214.9C236.96 215.38 239.33 216.53 241.26 218.15" stroke="black" strokeWidth="2" stroke-miterlimit="10" stroke-linecap="round" stroke-linejoin="round"/>
<path d="M228.19 198.14C230.57 197.3 233.18 197.06 235.83 197.54C238.48 198.02 240.85 199.17 242.78 200.79" stroke="black" strokeWidth="2" stroke-miterlimit="10" stroke-linecap="round" stroke-linejoin="round"/>
<path d="M229.17 181.73C231.55 180.89 234.16 180.65 236.81 181.13C239.46 181.61 241.83 182.76 243.76 184.38" stroke="black" strokeWidth="2" stroke-miterlimit="10" stroke-linecap="round" stroke-linejoin="round"/>
<path d="M205.91 234.72C204.51 236.82 202.57 238.58 200.16 239.79C197.75 241 195.16 241.5 192.65 241.37" stroke="black" strokeWidth="2" stroke-miterlimit="10" stroke-linecap="round" stroke-linejoin="round"/>
<path d="M212.12 240.13C211.93 242.64 211.1 245.13 209.59 247.37C208.08 249.61 206.07 251.31 203.82 252.43" stroke="black" strokeWidth="2" stroke-miterlimit="10" stroke-linecap="round" stroke-linejoin="round"/>
<path d="M218.31 238.33C220.53 239.51 222.48 241.28 223.92 243.56C225.36 245.84 226.12 248.36 226.23 250.88" stroke="black" strokeWidth="2" stroke-miterlimit="10" stroke-linecap="round" stroke-linejoin="round"/>
<path d="M48.4801 229.27C46.2901 230.52 43.7601 231.22 41.0701 231.22C38.3801 231.22 35.8301 230.51 33.6501 229.27" stroke="black" strokeWidth="2" stroke-miterlimit="10" stroke-linecap="round" stroke-linejoin="round"/>
<path d="M48.4801 245.18C46.2901 246.43 43.7601 247.13 41.0701 247.13C38.3801 247.13 35.8301 246.42 33.6501 245.18" stroke="black" strokeWidth="2" stroke-miterlimit="10" stroke-linecap="round" stroke-linejoin="round"/>
<path d="M48.4801 261.72C46.2901 262.97 43.7601 263.67 41.0701 263.67C38.3801 263.67 35.8301 262.96 33.6501 261.72" stroke="black" strokeWidth="2" stroke-miterlimit="10" stroke-linecap="round" stroke-linejoin="round"/>
<path d="M48.4801 278.26C46.2901 279.51 43.7601 280.21 41.0701 280.21C38.3801 280.21 35.8301 279.5 33.6501 278.26" stroke="black" strokeWidth="2" stroke-miterlimit="10" stroke-linecap="round" stroke-linejoin="round"/>
<path d="M205.78 201.33C205.78 206.96 202.7 211.86 198.13 214.45C198.08 214.48 198.03 214.51 197.97 214.53C195.82 215.73 193.34 216.4 190.71 216.4C188.08 216.4 185.59 215.72 183.45 214.54C183.4 214.51 183.34 214.48 183.29 214.45C178.72 211.86 175.64 206.96 175.64 201.33C175.64 193.02 182.39 186.27 190.71 186.27C199.03 186.27 205.78 193.02 205.78 201.33Z" fill="#FED45D"/>
<path d="M244.26 176.39C243.88 180.63 243.63 185.46 243.37 190.58C241.99 217.4 240.28 250.77 216.99 255.06C216.67 255.11 216.34 255.15 216.01 255.17C215.6 255.19 215.19 255.2 214.79 255.2C195.51 255.2 185.96 231.85 183.34 217.78C183.13 216.67 183.18 215.57 183.45 214.54C185.59 215.72 188.08 216.4 190.71 216.4C193.34 216.4 195.82 215.73 197.97 214.53C198.01 214.69 198.05 214.85 198.08 215.02C199.33 221.61 205.05 240.06 214.76 240.2C225.95 237.35 227.42 208.8 228.39 189.81C228.66 184.55 228.92 179.58 229.32 175.06C229.68 170.93 233.32 167.89 237.45 168.25C241.58 168.62 244.62 172.26 244.26 176.39Z" stroke="black" strokeWidth="2" stroke-miterlimit="10" stroke-linecap="round" stroke-linejoin="round"/>
<path d="M249.12 146.02C251.84 150.95 251.5 156.73 248.75 161.2C247.43 163.35 245.55 165.19 243.19 166.49C240.82 167.79 238.27 168.4 235.76 168.36C230.5 168.3 225.44 165.49 222.72 160.56C220.12 155.84 220.32 150.32 222.79 145.92L224.67 147.05L229.44 149.93C228.36 152.02 228.3 154.58 229.53 156.8C230.85 159.19 233.3 160.55 235.84 160.57C237.06 160.59 238.3 160.3 239.44 159.67C240.58 159.04 241.49 158.15 242.13 157.11C243.47 154.94 243.63 152.15 242.32 149.76C241.1 147.54 238.9 146.22 236.56 146.01L236.67 140.43L236.71 138.23C241.74 138.51 246.51 141.29 249.12 146.02Z" fill="white" stroke="black" strokeWidth="2" stroke-miterlimit="10" stroke-linecap="round" stroke-linejoin="round"/>
<path d="M56.1301 201.34C56.1301 206.96 53.0601 211.87 48.4801 214.45C46.2901 215.7 43.7501 216.4 41.0601 216.4C38.3701 216.4 35.8301 215.69 33.6501 214.45C29.0801 211.87 26.0001 206.97 26.0001 201.34C26.0001 193.02 32.7501 186.27 41.0701 186.27C49.3801 186.27 56.1301 193.02 56.1301 201.34Z" stroke="black" strokeWidth="2" stroke-miterlimit="10" stroke-linecap="round" stroke-linejoin="round"/>
<path d="M205.78 201.33C205.78 206.96 202.7 211.86 198.13 214.45C198.08 214.48 198.03 214.51 197.97 214.53C195.82 215.73 193.34 216.4 190.71 216.4C188.08 216.4 185.59 215.72 183.45 214.54C183.4 214.51 183.34 214.48 183.29 214.45C178.72 211.86 175.64 206.96 175.64 201.33C175.64 193.02 182.39 186.27 190.71 186.27C199.03 186.27 205.78 193.02 205.78 201.33Z" stroke="black" strokeWidth="2" stroke-miterlimit="10" stroke-linecap="round" stroke-linejoin="round"/>
<path d="M67.6801 119.4H56.1301V155.61H67.6801V119.4Z" stroke="black" strokeWidth="2" stroke-miterlimit="10" stroke-linecap="round" stroke-linejoin="round"/>
<path d="M176.34 119.4H163.9V155.61H176.34V119.4Z" stroke="black" strokeWidth="2" stroke-miterlimit="10" stroke-linecap="round" stroke-linejoin="round"/>
<path d="M14.3001 176.41C21.8001 176.41 27.8801 170.33 27.8801 162.83C27.8801 155.33 21.8001 149.25 14.3001 149.25C6.80007 149.25 0.720093 155.33 0.720093 162.83C0.720093 170.33 6.80007 176.41 14.3001 176.41Z" fill="#FFE4B6"/>
<path d="M115.74 107.62V91.4701L111.5 87.2301L120.08 82.2301L115.66 77.8101" stroke="black" strokeWidth="2" stroke-miterlimit="10" stroke-linecap="round" stroke-linejoin="round"/>
<path d="M150.04 0C141.27 0 134.16 7.11 134.16 15.88C134.16 24.65 141.27 31.76 150.04 31.76C158.81 31.76 165.92 24.65 165.92 15.88C165.92 7.11 158.81 0 150.04 0ZM150.04 27.11C143.84 27.11 138.81 22.08 138.81 15.88C138.81 9.68 143.84 4.65 150.04 4.65C156.24 4.65 161.27 9.68 161.27 15.88C161.27 22.08 156.24 27.11 150.04 27.11Z" fill="#FED45D"/>
<path d="M150.04 27.11C156.242 27.11 161.27 22.0822 161.27 15.88C161.27 9.67787 156.242 4.65002 150.04 4.65002C143.838 4.65002 138.81 9.67787 138.81 15.88C138.81 22.0822 143.838 27.11 150.04 27.11Z" stroke="black" strokeWidth="2" stroke-miterlimit="10"/>
<path d="M152.91 62.83H147.93V49.2C147.93 48.92 147.93 48.59 147.94 48.19C147.95 47.8 147.96 47.39 147.97 46.97C147.99 46.55 148 46.12 148.02 45.69C148.04 45.26 148.05 44.87 148.06 44.51C148.01 44.57 147.91 44.67 147.79 44.8C147.67 44.93 147.52 45.07 147.35 45.23C147.19 45.39 147.02 45.54 146.85 45.71C146.68 45.88 146.51 46.02 146.35 46.14L143.64 48.31L141.22 45.31L148.81 39.27H152.9V62.83H152.91Z" fill="#58595B"/>
<path d="M205.19 74.9401H189.39V71.4801L194.93 65.5001C195.63 64.7501 196.26 64.0601 196.83 63.4201C197.4 62.7901 197.89 62.1701 198.3 61.5701C198.71 60.9701 199.03 60.3601 199.25 59.7301C199.48 59.1101 199.59 58.4401 199.59 57.7201C199.59 56.9301 199.35 56.3101 198.87 55.8701C198.39 55.4301 197.75 55.2101 196.95 55.2101C196.1 55.2101 195.28 55.4201 194.5 55.8401C193.72 56.2601 192.89 56.8501 192.04 57.6301L189.33 54.4201C189.81 53.9801 190.32 53.5601 190.84 53.1601C191.37 52.7601 191.95 52.4001 192.58 52.0901C193.21 51.7801 193.91 51.5301 194.67 51.3401C195.43 51.1501 196.29 51.0601 197.23 51.0601C198.36 51.0601 199.37 51.2201 200.27 51.5301C201.17 51.8401 201.93 52.2801 202.57 52.8601C203.2 53.4301 203.69 54.1301 204.03 54.9501C204.37 55.7701 204.54 56.6801 204.54 57.7001C204.54 58.6201 204.38 59.5101 204.06 60.3501C203.74 61.1901 203.3 62.0201 202.74 62.8301C202.18 63.6401 201.53 64.4501 200.8 65.2501C200.06 66.0501 199.28 66.8601 198.44 67.6901L195.6 70.5401V70.7701H205.2V74.9401H205.19Z" fill="#58595B"/>
<path d="M247.5 79.32C247.5 80.14 247.37 80.87 247.11 81.52C246.85 82.17 246.49 82.74 246.03 83.23C245.57 83.72 245.04 84.13 244.42 84.45C243.8 84.78 243.13 85.03 242.41 85.2V85.3C244.31 85.54 245.75 86.11 246.73 87.03C247.71 87.95 248.2 89.19 248.2 90.74C248.2 91.77 248.01 92.72 247.64 93.6C247.27 94.48 246.7 95.23 245.93 95.88C245.16 96.52 244.2 97.03 243.03 97.39C241.86 97.75 240.49 97.93 238.91 97.93C237.64 97.93 236.45 97.83 235.33 97.62C234.21 97.41 233.17 97.09 232.21 96.66V92.42C232.69 92.68 233.2 92.9 233.74 93.1C234.28 93.29 234.81 93.46 235.35 93.59C235.89 93.72 236.42 93.82 236.94 93.89C237.46 93.95 237.95 93.99 238.41 93.99C239.33 93.99 240.1 93.91 240.71 93.73C241.32 93.56 241.81 93.32 242.18 93.01C242.54 92.7 242.81 92.33 242.96 91.89C243.12 91.45 243.19 90.98 243.19 90.46C243.19 89.98 243.09 89.54 242.89 89.15C242.69 88.76 242.37 88.43 241.92 88.15C241.47 87.88 240.89 87.66 240.17 87.51C239.45 87.36 238.56 87.28 237.51 87.28H235.83V83.78H237.47C238.46 83.78 239.28 83.69 239.93 83.51C240.58 83.33 241.11 83.09 241.5 82.79C241.89 82.49 242.17 82.13 242.33 81.72C242.49 81.31 242.57 80.88 242.57 80.42C242.57 79.58 242.31 78.93 241.79 78.45C241.27 77.97 240.44 77.74 239.32 77.74C238.8 77.74 238.32 77.79 237.88 77.89C237.43 77.99 237.02 78.12 236.64 78.28C236.26 78.44 235.91 78.61 235.59 78.8C235.27 78.99 234.99 79.17 234.73 79.36L232.22 76.04C232.67 75.71 233.16 75.4 233.69 75.12C234.22 74.84 234.8 74.6 235.42 74.39C236.04 74.18 236.71 74.02 237.43 73.9C238.15 73.78 238.92 73.72 239.73 73.72C240.89 73.72 241.94 73.85 242.9 74.1C243.85 74.35 244.66 74.72 245.34 75.2C246.02 75.68 246.54 76.26 246.91 76.96C247.31 77.64 247.5 78.43 247.5 79.32Z" fill="#58595B"/>
<path d="M201.13 82.22L236.23 153.78" stroke="#1C96A0" strokeWidth="2" stroke-miterlimit="10" stroke-linecap="round"/>
<path d="M209.96 18.37H184.55V43.78H209.96V18.37Z" fill="#FED45D"/>
<path d="M205.71 22.61H188.8V39.52H205.71V22.61Z" fill="white" stroke="black" strokeWidth="2" stroke-miterlimit="10"/>
<path d="M240.22 51.15L233.65 62.52H246.74L240.22 51.15Z" fill="white" stroke="black" strokeWidth="2" stroke-miterlimit="10"/>
</svg>
