
<svg width="396" height="314" viewBox="0 0 396 314" fill="none" xmlns="http://www.w3.org/2000/svg">
<path d="M384.75 167.95L374.41 185.86H395.04L384.75 167.95Z" fill="#1C96A0"/>
<path d="M5.65991 313.1C5.65991 208.42 90.5199 123.57 195.19 123.57C299.86 123.57 384.72 208.43 384.72 313.1" fill="#E75553"/>
<path d="M5.65991 313.1C5.65991 259.82 48.8499 216.63 102.13 216.63C155.41 216.63 198.6 259.82 198.6 313.1" fill="#FFE4B6"/>
<path d="M41.96 305.16C53.812 305.16 63.42 295.552 63.42 283.7C63.42 271.848 53.812 262.24 41.96 262.24C30.108 262.24 20.5 271.848 20.5 283.7C20.5 295.552 30.108 305.16 41.96 305.16Z" fill="#E75553"/>
<path d="M340.25 122.42C356.43 176.35 325.84 233.17 271.92 249.36" stroke="#61ADE0" stroke-width="2" stroke-miterlimit="10"/>
<path d="M107.74 120.53C119.592 120.53 129.2 110.922 129.2 99.07C129.2 87.218 119.592 77.61 107.74 77.61C95.888 77.61 86.28 87.218 86.28 99.07C86.28 110.922 95.888 120.53 107.74 120.53Z" fill="#FFE4B6"/>
<path d="M11.48 189.41C17.406 189.41 22.21 184.606 22.21 178.68C22.21 172.754 17.406 167.95 11.48 167.95C5.55398 167.95 0.75 172.754 0.75 178.68C0.75 184.606 5.55398 189.41 11.48 189.41Z" fill="#FED45D"/>
<path d="M314.59 127.63C320.516 127.63 325.32 122.826 325.32 116.9C325.32 110.974 320.516 106.17 314.59 106.17C308.664 106.17 303.86 110.974 303.86 116.9C303.86 122.826 308.664 127.63 314.59 127.63Z" fill="#FED45D"/>
<path d="M333.2 114.61H249.8C243.2 114.61 237.8 109.21 237.8 102.61V52.62C237.8 46.02 243.2 40.62 249.8 40.62H333.2C339.8 40.62 345.2 46.02 345.2 52.62V102.6C345.2 109.21 339.8 114.61 333.2 114.61Z" fill="white"/>
<path d="M249.68 114.61V140.65L275.47 114.61H249.68Z" fill="white"/>
<path d="M249.8 114.61C243.2 114.61 237.8 109.21 237.8 102.61V52.62C237.8 46.02 243.2 40.62 249.8 40.62H333.2C339.8 40.62 345.2 46.02 345.2 52.62V102.6C345.2 109.2 339.8 114.6 333.2 114.6H275.47" stroke="#020202" stroke-width="2" stroke-miterlimit="10" stroke-linecap="round" stroke-linejoin="round"/>
<path d="M249.84 114.61V140.65L275.47 114.61" stroke="#020202" stroke-width="2" stroke-miterlimit="10" stroke-linecap="round" stroke-linejoin="round"/>
<path d="M280.23 87.56H255.78C254.38 87.56 253.24 86.42 253.24 85.02C253.24 83.62 254.38 82.48 255.78 82.48H280.23C281.63 82.48 282.77 83.62 282.77 85.02C282.76 86.42 281.63 87.56 280.23 87.56Z" fill="#1C96A0"/>
<path d="M291.77 97.56H255.78C254.38 97.56 253.24 96.42 253.24 95.02C253.24 93.62 254.38 92.48 255.78 92.48H291.77C293.17 92.48 294.31 93.62 294.31 95.02C294.31 96.42 293.17 97.56 291.77 97.56Z" fill="#1C96A0"/>
<path d="M257.735 63.5803C257.261 63.5803 256.836 63.674 256.462 63.8614C256.098 64.0489 255.789 64.319 255.536 64.6718C255.282 65.0135 255.089 65.4325 254.957 65.9286C254.835 66.4247 254.775 66.9815 254.775 67.5989C254.775 68.4368 254.874 69.1534 255.072 69.7487C255.282 70.333 255.607 70.7795 256.048 71.0882C256.489 71.3969 257.051 71.5513 257.735 71.5513C258.22 71.5513 258.7 71.4962 259.174 71.3859C259.659 71.2757 260.183 71.1213 260.745 70.9229V73.0231C260.227 73.2326 259.714 73.3869 259.207 73.4861C258.7 73.5854 258.132 73.635 257.503 73.635C256.291 73.635 255.287 73.3869 254.494 72.8908C253.711 72.3837 253.132 71.6781 252.757 70.774C252.382 69.859 252.195 68.7951 252.195 67.5823C252.195 66.6893 252.316 65.8735 252.559 65.1348C252.801 64.3851 253.154 63.7402 253.617 63.1999C254.091 62.6597 254.67 62.2408 255.354 61.9431C256.048 61.6454 256.842 61.4966 257.735 61.4966C258.319 61.4966 258.904 61.5738 259.488 61.7281C260.083 61.8714 260.651 62.0699 261.191 62.3235L260.381 64.3576C259.94 64.1481 259.493 63.9662 259.041 63.8118C258.6 63.6575 258.165 63.5803 257.735 63.5803ZM266.694 61.662C267.763 61.662 268.645 61.7943 269.34 62.0589C270.034 62.3124 270.552 62.7038 270.894 63.233C271.236 63.7512 271.407 64.4072 271.407 65.201C271.407 65.7412 271.302 66.2152 271.092 66.6232C270.894 67.0201 270.624 67.3618 270.282 67.6485C269.951 67.9241 269.593 68.1501 269.207 68.3265L272.68 73.4696H269.902L267.09 68.9384H265.751V73.4696H263.254V61.662H266.694ZM266.512 63.7126H265.751V66.9043H266.561C267.113 66.9043 267.559 66.8437 267.901 66.7224C268.243 66.6011 268.491 66.4192 268.645 66.1767C268.799 65.9231 268.876 65.6199 268.876 65.2671C268.876 64.8923 268.788 64.5946 268.612 64.3741C268.447 64.1426 268.187 63.9772 267.835 63.878C267.493 63.7677 267.052 63.7126 266.512 63.7126ZM280.968 73.4696H274.171V61.662H280.968V63.7126H276.668V66.309H280.67V68.3596H276.668V71.4024H280.968V73.4696ZM293.215 67.45C293.215 68.773 292.961 69.881 292.454 70.774C291.947 71.667 291.208 72.3396 290.238 72.7916C289.279 73.2436 288.121 73.4696 286.765 73.4696H283.425V61.662H287.129C288.364 61.662 289.433 61.8825 290.337 62.3235C291.252 62.7645 291.958 63.4149 292.454 64.2749C292.961 65.1238 293.215 66.1822 293.215 67.45ZM290.619 67.5162C290.619 66.6452 290.492 65.9286 290.238 65.3663C289.985 64.8041 289.604 64.3906 289.097 64.126C288.601 63.8504 287.989 63.7126 287.261 63.7126H285.922V71.4024H286.997C288.221 71.4024 289.13 71.0772 289.726 70.4267C290.321 69.7763 290.619 68.8061 290.619 67.5162ZM300.082 73.4696H294.707V72.0474L296.146 71.3859V63.7457L294.707 63.0842V61.662H300.082V63.0842L298.643 63.7457V71.3859L300.082 72.0474V73.4696ZM306.642 73.4696H304.144V63.7457H300.936V61.662H309.85V63.7457H306.642V73.4696ZM318.467 73.4696H311.671V61.662H318.467V63.7126H314.168V66.309H318.17V68.3596H314.168V71.4024H318.467V73.4696ZM330.714 67.45C330.714 68.773 330.461 69.881 329.954 70.774C329.447 71.667 328.708 72.3396 327.738 72.7916C326.779 73.2436 325.621 73.4696 324.265 73.4696H320.924V61.662H324.629C325.864 61.662 326.933 61.8825 327.837 62.3235C328.752 62.7645 329.458 63.4149 329.954 64.2749C330.461 65.1238 330.714 66.1822 330.714 67.45ZM328.118 67.5162C328.118 66.6452 327.991 65.9286 327.738 65.3663C327.484 64.8041 327.104 64.3906 326.597 64.126C326.101 63.8504 325.489 63.7126 324.761 63.7126H323.422V71.4024H324.496C325.72 71.4024 326.63 71.0772 327.225 70.4267C327.82 69.7763 328.118 68.8061 328.118 67.5162Z" fill="#6D6E71"/>
<path d="M312.98 97.7301L312.56 94.7101H309.76L309.34 97.7301H307.09L309.6 82.3201H312.88L315.39 97.7301H312.98ZM310.07 92.6201H312.25L311.15 84.8501L310.07 92.6201Z" fill="#1C96A0"/>
<path d="M316.55 97.7301V82.3101H323.16V84.5101H318.98V88.5801H322.3V90.7801H318.98V95.5101H323.16V97.7101H316.55V97.7301Z" fill="#1C96A0"/>
<path d="M324.45 97.7301V82.3101H328.15C330.55 82.3101 331.76 83.5901 331.76 86.1201V93.9101C331.76 96.4401 330.55 97.7201 328.15 97.7201H324.45V97.7301ZM326.87 95.5201H328.1C328.91 95.5201 329.33 95.0101 329.33 94.0201V86.0101C329.33 85.0201 328.91 84.5101 328.1 84.5101H326.87V95.5201Z" fill="#1C96A0"/>
<path d="M364.93 267.02C378.837 267.02 390.11 255.747 390.11 241.84C390.11 227.933 378.837 216.66 364.93 216.66C351.023 216.66 339.75 227.933 339.75 241.84C339.75 255.747 351.023 267.02 364.93 267.02Z" stroke="#020202" stroke-width="2" stroke-miterlimit="10" stroke-linecap="round" stroke-linejoin="round"/>
<path d="M188.44 37.52C198.425 37.52 206.52 29.4253 206.52 19.44C206.52 9.45468 198.425 1.35999 188.44 1.35999C178.455 1.35999 170.36 9.45468 170.36 19.44C170.36 29.4253 178.455 37.52 188.44 37.52Z" stroke="#020202" stroke-width="2" stroke-miterlimit="10" stroke-linecap="round" stroke-linejoin="round"/>
<path d="M175.49 176.91H187.01C187.07 176.92 187.11 176.95 187.11 177.01V178.11C187.11 178.18 187.08 178.21 187.01 178.21H182.68V178.31C183.3 178.64 183.78 179.32 184.12 180.36L184.17 180.71H187.02C187.08 180.72 187.12 180.75 187.12 180.81V181.91C187.12 181.98 187.09 182.01 187.02 182.01H184.28C184.28 183.24 183.53 184.43 182.03 185.59C180.7 186.35 179.75 186.73 179.19 186.73C179.19 186.76 179.16 186.78 179.09 186.78L185.27 194.79V194.89H182.92C182.9 194.89 180.51 191.79 175.75 185.59V185.54H176.49C179.12 185.54 180.7 184.59 181.23 182.7C181.26 182.47 181.28 182.29 181.28 182.15V182H175.5C175.43 182 175.4 181.97 175.4 181.9V180.8C175.41 180.74 175.44 180.7 175.5 180.7H181.23C181.04 179.96 180.62 179.36 179.99 178.9C179.11 178.44 178.31 178.21 177.59 178.21H175.5C175.43 178.21 175.4 178.18 175.4 178.11V177C175.4 176.94 175.43 176.91 175.49 176.91Z" fill="#E75553"/>
<path d="M313.49 312.13H238.74C231.33 312.13 225.32 306.12 225.32 298.71V223.96C225.32 216.55 231.33 210.54 238.74 210.54H313.49C320.9 210.54 326.91 216.55 326.91 223.96V298.71C326.92 306.12 320.91 312.13 313.49 312.13Z" fill="#FDFDFE" stroke="#020202" stroke-width="2" stroke-miterlimit="10"/>
<g opacity="0.3">
<path d="M312.01 210.53H304.61C312.84 210.53 319.52 217.2 319.52 225.44V297.22C319.52 305.45 312.85 312.13 304.61 312.13H312.01C320.24 312.13 326.92 305.46 326.92 297.22V225.44C326.92 217.21 320.24 210.53 312.01 210.53Z" fill="#191C3C"/>
</g>
<path d="M312.26 209.86H239.98C231.88 209.86 225.32 216.38 225.32 224.42L226.08 241.02H325.99L326.92 224.42C326.92 216.38 320.35 209.86 312.26 209.86Z" fill="#173588"/>
<path d="M313.49 312.13H238.74C231.33 312.13 225.32 306.12 225.32 298.71V223.96C225.32 216.55 231.33 210.54 238.74 210.54H313.49C320.9 210.54 326.91 216.55 326.91 223.96V298.71C326.92 306.12 320.91 312.13 313.49 312.13Z" stroke="#020202" stroke-width="2" stroke-miterlimit="10"/>
<path d="M299.33 224.87C299.33 229.14 295.87 232.6 291.6 232.6C287.33 232.6 283.87 229.14 283.87 224.87C283.87 220.6 287.33 217.14 291.6 217.14C295.87 217.14 299.33 220.6 299.33 224.87Z" fill="#4D5068"/>
<path d="M296.88 224.87C296.88 227.79 294.52 230.15 291.6 230.15C288.68 230.15 286.32 227.79 286.32 224.87C286.32 221.95 288.68 219.59 291.6 219.59C294.51 219.59 296.88 221.95 296.88 224.87Z" fill="#272834"/>
<path d="M252.49 224.87C252.49 229.14 249.03 232.6 244.76 232.6C240.49 232.6 237.03 229.14 237.03 224.87C237.03 220.6 240.49 217.14 244.76 217.14C249.03 217.14 252.49 220.6 252.49 224.87Z" fill="#4D5068"/>
<path d="M250.04 224.87C250.04 227.79 247.68 230.15 244.76 230.15C241.84 230.15 239.48 227.79 239.48 224.87C239.48 221.95 241.84 219.59 244.76 219.59C247.68 219.59 250.04 221.95 250.04 224.87Z" fill="#272834"/>
<path d="M277.85 258.68H268.46C268.19 258.68 267.97 258.46 267.97 258.19V248.8C267.97 248.53 268.19 248.31 268.46 248.31H277.85C278.12 248.31 278.34 248.53 278.34 248.8V258.19C278.34 258.46 278.12 258.68 277.85 258.68Z" fill="#DFE2EC"/>
<path d="M294.53 258.68H285.14C284.87 258.68 284.65 258.46 284.65 258.19V248.8C284.65 248.53 284.87 248.31 285.14 248.31H294.53C294.8 248.31 295.02 248.53 295.02 248.8V258.19C295.03 258.46 294.81 258.68 294.53 258.68Z" fill="#DFE2EC"/>
<path d="M311.22 258.68H301.83C301.56 258.68 301.34 258.46 301.34 258.19V248.8C301.34 248.53 301.56 248.31 301.83 248.31H311.22C311.49 248.31 311.71 248.53 311.71 248.8V258.19C311.71 258.46 311.49 258.68 311.22 258.68Z" fill="#DFE2EC"/>
<path d="M244.48 273.67H235.09C234.82 273.67 234.6 273.45 234.6 273.18V263.79C234.6 263.52 234.82 263.3 235.09 263.3H244.48C244.75 263.3 244.97 263.52 244.97 263.79V273.18C244.98 273.45 244.76 273.67 244.48 273.67Z" fill="#DFE2EC"/>
<path d="M261.17 273.67H251.78C251.51 273.67 251.29 273.45 251.29 273.18V263.79C251.29 263.52 251.51 263.3 251.78 263.3H261.17C261.44 263.3 261.66 263.52 261.66 263.79V273.18C261.66 273.45 261.44 273.67 261.17 273.67Z" fill="#DFE2EC"/>
<path d="M277.85 273.67H268.46C268.19 273.67 267.97 273.45 267.97 273.18V263.79C267.97 263.52 268.19 263.3 268.46 263.3H277.85C278.12 263.3 278.34 263.52 278.34 263.79V273.18C278.34 273.45 278.12 273.67 277.85 273.67Z" fill="#DFE2EC"/>
<path d="M294.53 273.67H285.14C284.87 273.67 284.65 273.45 284.65 273.18V263.79C284.65 263.52 284.87 263.3 285.14 263.3H294.53C294.8 263.3 295.02 263.52 295.02 263.79V273.18C295.03 273.45 294.81 273.67 294.53 273.67Z" fill="#DFE2EC"/>
<path d="M311.21 273.67H301.82C301.55 273.67 301.33 273.45 301.33 273.18V263.79C301.33 263.52 301.55 263.3 301.82 263.3H311.21C311.48 263.3 311.7 263.52 311.7 263.79V273.18C311.71 273.45 311.49 273.67 311.21 273.67Z" fill="#DFE2EC"/>
<path d="M244.48 288.66H235.09C234.82 288.66 234.6 288.44 234.6 288.17V278.78C234.6 278.51 234.82 278.29 235.09 278.29H244.48C244.75 278.29 244.97 278.51 244.97 278.78V288.17C244.98 288.44 244.76 288.66 244.48 288.66Z" fill="#DFE2EC"/>
<path d="M261.17 288.66H251.78C251.51 288.66 251.29 288.44 251.29 288.17V278.78C251.29 278.51 251.51 278.29 251.78 278.29H261.17C261.44 278.29 261.66 278.51 261.66 278.78V288.17C261.66 288.44 261.44 288.66 261.17 288.66Z" fill="#DFE2EC"/>
<path d="M277.85 288.66H268.46C268.19 288.66 267.97 288.44 267.97 288.17V278.78C267.97 278.51 268.19 278.29 268.46 278.29H277.85C278.12 278.29 278.34 278.51 278.34 278.78V288.17C278.34 288.44 278.12 288.66 277.85 288.66Z" fill="#DFE2EC"/>
<path d="M294.53 288.66H285.14C284.87 288.66 284.65 288.44 284.65 288.17V278.78C284.65 278.51 284.87 278.29 285.14 278.29H294.53C294.8 278.29 295.02 278.51 295.02 278.78V288.17C295.03 288.44 294.81 288.66 294.53 288.66Z" fill="#DFE2EC"/>
<path d="M311.22 288.66H301.83C301.56 288.66 301.34 288.44 301.34 288.17V278.78C301.34 278.51 301.56 278.29 301.83 278.29H311.22C311.49 278.29 311.71 278.51 311.71 278.78V288.17C311.71 288.44 311.49 288.66 311.22 288.66Z" fill="#DFE2EC"/>
<path d="M244.48 303.65H235.09C234.82 303.65 234.6 303.43 234.6 303.16V293.77C234.6 293.5 234.82 293.28 235.09 293.28H244.48C244.75 293.28 244.97 293.5 244.97 293.77V303.16C244.98 303.43 244.76 303.65 244.48 303.65Z" fill="#DFE2EC"/>
<path d="M261.17 303.65H251.78C251.51 303.65 251.29 303.43 251.29 303.16V293.77C251.29 293.5 251.51 293.28 251.78 293.28H261.17C261.44 293.28 261.66 293.5 261.66 293.77V303.16C261.66 303.43 261.44 303.65 261.17 303.65Z" fill="#DFE2EC"/>
<path d="M277.85 303.65H268.46C268.19 303.65 267.97 303.43 267.97 303.16V293.77C267.97 293.5 268.19 293.28 268.46 293.28H277.85C278.12 293.28 278.34 293.5 278.34 293.77V303.16C278.34 303.43 278.12 303.65 277.85 303.65Z" fill="#DFE2EC"/>
<path d="M265.18 209.76C265.18 204.12 260.61 199.55 254.97 199.55C249.33 199.55 244.76 204.12 244.76 209.76V225.39" stroke="#020202" stroke-width="2" stroke-miterlimit="10" stroke-linecap="round" stroke-linejoin="round"/>
<path d="M312.02 209.76C312.02 204.12 307.45 199.55 301.81 199.55C296.17 199.55 291.6 204.12 291.6 209.76V225.39" stroke="#020202" stroke-width="2" stroke-miterlimit="10" stroke-linecap="round" stroke-linejoin="round"/>
<path d="M198.29 312.13H95.8399C87.9999 312.13 81.6499 305.78 81.6499 297.94V91.49C81.6499 83.65 87.9999 77.3 95.8399 77.3H198.29C206.13 77.3 212.48 83.65 212.48 91.49V297.94C212.48 305.78 206.13 312.13 198.29 312.13Z" fill="#1C96A0" stroke="#0A0A0A" stroke-width="2" stroke-miterlimit="10"/>
<path d="M90.6399 277.3V91.49C90.6399 88.62 92.9699 86.3 95.8299 86.3H198.28C201.15 86.3 203.47 88.63 203.47 91.49V277.3C203.47 280.17 201.14 282.49 198.28 282.49H95.8399C92.9699 282.5 90.6399 280.17 90.6399 277.3Z" fill="white"/>
<path d="M90.6399 96.36V91.46C90.6399 88.61 92.9499 86.29 95.8099 86.29H198.45C201.23 86.29 203.47 88.54 203.47 91.31V96.36H90.6399V96.36Z" fill="#FFE4B6"/>
<path d="M125.531 213.193V189.873H99.1905V213.193H125.531Z" fill="#FFE4B6"/>
<path d="M158.903 213.191V189.871H132.563V213.191H158.903Z" fill="#FFE4B6"/>
<path d="M192.276 213.188V189.868H165.936V213.188H192.276Z" fill="#FFE4B6"/>
<path d="M125.528 245.86V222.54H99.1881V245.86H125.528Z" fill="#FFE4B6"/>
<path d="M158.9 245.858V222.538H132.56V245.858H158.9Z" fill="#FFE4B6"/>
<path d="M192.273 245.855V222.535H165.933V245.855H192.273Z" fill="#FFE4B6"/>
<path d="M116.185 129.131C115.711 129.131 115.286 129.225 114.912 129.412C114.548 129.6 114.239 129.87 113.985 130.223C113.732 130.564 113.539 130.983 113.407 131.479C113.285 131.976 113.225 132.532 113.225 133.15C113.225 133.988 113.324 134.704 113.522 135.3C113.732 135.884 114.057 136.33 114.498 136.639C114.939 136.948 115.501 137.102 116.185 137.102C116.67 137.102 117.15 137.047 117.624 136.937C118.109 136.827 118.632 136.672 119.195 136.474V138.574C118.677 138.783 118.164 138.938 117.657 139.037C117.15 139.136 116.582 139.186 115.953 139.186C114.741 139.186 113.737 138.938 112.944 138.442C112.161 137.935 111.582 137.229 111.207 136.325C110.832 135.41 110.645 134.346 110.645 133.133C110.645 132.24 110.766 131.424 111.009 130.686C111.251 129.936 111.604 129.291 112.067 128.751C112.541 128.211 113.12 127.792 113.804 127.494C114.498 127.196 115.292 127.048 116.185 127.048C116.769 127.048 117.354 127.125 117.938 127.279C118.533 127.422 119.101 127.621 119.641 127.874L118.831 129.908C118.39 129.699 117.943 129.517 117.491 129.363C117.05 129.208 116.615 129.131 116.185 129.131ZM131.312 134.853C131.312 135.669 131.13 136.408 130.766 137.069C130.413 137.72 129.873 138.238 129.146 138.624C128.429 138.998 127.519 139.186 126.417 139.186C124.851 139.186 123.661 138.789 122.845 137.995C122.029 137.19 121.621 136.132 121.621 134.82V127.213H124.118V134.44C124.118 135.41 124.317 136.093 124.714 136.49C125.11 136.887 125.7 137.086 126.483 137.086C127.034 137.086 127.481 136.992 127.823 136.805C128.164 136.617 128.412 136.325 128.567 135.928C128.732 135.531 128.815 135.03 128.815 134.423V127.213H131.312V134.853ZM137.643 127.213C138.713 127.213 139.595 127.345 140.289 127.61C140.984 127.863 141.502 128.255 141.844 128.784C142.186 129.302 142.357 129.958 142.357 130.752C142.357 131.292 142.252 131.766 142.042 132.174C141.844 132.571 141.574 132.913 141.232 133.199C140.901 133.475 140.543 133.701 140.157 133.877L143.63 139.021H140.852L138.04 134.489H136.701V139.021H134.204V127.213H137.643ZM137.461 129.264H136.701V132.455H137.511C138.062 132.455 138.509 132.395 138.851 132.273C139.192 132.152 139.44 131.97 139.595 131.728C139.749 131.474 139.826 131.171 139.826 130.818C139.826 130.443 139.738 130.145 139.562 129.925C139.396 129.693 139.137 129.528 138.784 129.429C138.443 129.319 138.002 129.264 137.461 129.264ZM148.561 127.213C149.63 127.213 150.512 127.345 151.207 127.61C151.901 127.863 152.419 128.255 152.761 128.784C153.103 129.302 153.274 129.958 153.274 130.752C153.274 131.292 153.169 131.766 152.96 132.174C152.761 132.571 152.491 132.913 152.149 133.199C151.818 133.475 151.46 133.701 151.074 133.877L154.547 139.021H151.769L148.957 134.489H147.618V139.021H145.121V127.213H148.561ZM148.379 129.264H147.618V132.455H148.428C148.98 132.455 149.426 132.395 149.768 132.273C150.11 132.152 150.358 131.97 150.512 131.728C150.666 131.474 150.744 131.171 150.744 130.818C150.744 130.443 150.655 130.145 150.479 129.925C150.314 129.693 150.054 129.528 149.702 129.429C149.36 129.319 148.919 129.264 148.379 129.264ZM162.835 139.021H156.038V127.213H162.835V129.264H158.535V131.86H162.537V133.91H158.535V136.953H162.835V139.021ZM175.76 139.021H172.585L167.442 130.09H167.376C167.387 130.366 167.398 130.647 167.409 130.934C167.42 131.209 167.431 131.491 167.442 131.777C167.464 132.053 167.48 132.334 167.491 132.621C167.502 132.896 167.513 133.177 167.524 133.464V139.021H165.292V127.213H168.45L173.577 136.06H173.627C173.616 135.785 173.605 135.515 173.594 135.25C173.583 134.974 173.571 134.704 173.56 134.44C173.56 134.164 173.555 133.894 173.544 133.629C173.533 133.354 173.522 133.078 173.511 132.802V127.213H175.76V139.021ZM183.292 139.021H180.795V129.297H177.587V127.213H186.501V129.297H183.292V139.021Z" fill="#6D6E71"/>
<path d="M147.06 306.69C152.179 306.69 156.33 302.54 156.33 297.42C156.33 292.3 152.179 288.15 147.06 288.15C141.94 288.15 137.79 292.3 137.79 297.42C137.79 302.54 141.94 306.69 147.06 306.69Z" fill="white" stroke="black" stroke-width="2" stroke-miterlimit="10"/>
<path d="M104.45 263.99H155.69C158.59 263.99 160.95 266.34 160.95 269.25C160.95 272.15 158.6 274.51 155.69 274.51H104.45C101.55 274.51 99.1899 272.16 99.1899 269.25C99.1899 266.34 101.54 263.99 104.45 263.99Z" fill="#FFE4B6"/>
<path d="M104.45 250.07H130.14C133.04 250.07 135.4 252.42 135.4 255.33C135.4 258.23 133.05 260.59 130.14 260.59H104.45C101.55 260.59 99.1899 258.24 99.1899 255.33C99.1899 252.42 101.54 250.07 104.45 250.07Z" fill="#FFE4B6"/>
<path d="M162.48 158.79L162.11 156.13H159.65L159.28 158.79H157.3L159.51 145.22H162.4L164.61 158.79H162.48ZM159.92 154.3H161.84L160.87 147.46L159.92 154.3Z" fill="#1C96A0"/>
<path d="M165.62 158.79V145.22H171.44V147.16H167.75V150.75H170.68V152.69H167.75V156.86H171.43V158.8H165.62V158.79Z" fill="#1C96A0"/>
<path d="M172.58 158.79V145.22H175.84C177.95 145.22 179.02 146.34 179.02 148.57V155.43C179.02 157.66 177.95 158.78 175.84 158.78H172.58V158.79ZM174.71 156.85H175.8C176.52 156.85 176.89 156.4 176.89 155.53V148.47C176.89 147.6 176.52 147.15 175.8 147.15H174.71V156.85Z" fill="#1C96A0"/>
<path d="M125.686 152.971C125.686 153.919 125.609 154.768 125.454 155.518C125.311 156.267 125.074 156.907 124.743 157.436C124.423 157.954 123.999 158.351 123.47 158.627C122.952 158.902 122.312 159.04 121.552 159.04C120.603 159.04 119.826 158.798 119.22 158.313C118.613 157.828 118.161 157.133 117.864 156.229C117.577 155.325 117.434 154.239 117.434 152.971C117.434 151.692 117.566 150.601 117.831 149.697C118.095 148.793 118.531 148.098 119.137 147.613C119.743 147.128 120.548 146.885 121.552 146.885C122.5 146.885 123.277 147.128 123.883 147.613C124.49 148.087 124.942 148.782 125.239 149.697C125.537 150.601 125.686 151.692 125.686 152.971ZM119.914 152.971C119.914 153.864 119.964 154.614 120.063 155.22C120.162 155.815 120.328 156.267 120.559 156.576C120.802 156.874 121.133 157.023 121.552 157.023C121.97 157.023 122.296 156.874 122.527 156.576C122.77 156.279 122.941 155.832 123.04 155.237C123.15 154.63 123.205 153.875 123.205 152.971C123.205 152.067 123.15 151.317 123.04 150.722C122.941 150.116 122.77 149.664 122.527 149.366C122.296 149.057 121.97 148.903 121.552 148.903C121.133 148.903 120.802 149.057 120.559 149.366C120.328 149.664 120.162 150.116 120.063 150.722C119.964 151.317 119.914 152.067 119.914 152.971ZM135.15 152.971C135.15 153.919 135.072 154.768 134.918 155.518C134.775 156.267 134.538 156.907 134.207 157.436C133.887 157.954 133.463 158.351 132.934 158.627C132.415 158.902 131.776 159.04 131.015 159.04C130.067 159.04 129.29 158.798 128.683 158.313C128.077 157.828 127.625 157.133 127.327 156.229C127.041 155.325 126.897 154.239 126.897 152.971C126.897 151.692 127.03 150.601 127.294 149.697C127.559 148.793 127.994 148.098 128.601 147.613C129.207 147.128 130.012 146.885 131.015 146.885C131.963 146.885 132.741 147.128 133.347 147.613C133.953 148.087 134.405 148.782 134.703 149.697C135.001 150.601 135.15 151.692 135.15 152.971ZM129.378 152.971C129.378 153.864 129.428 154.614 129.527 155.22C129.626 155.815 129.791 156.267 130.023 156.576C130.266 156.874 130.596 157.023 131.015 157.023C131.434 157.023 131.759 156.874 131.991 156.576C132.233 156.279 132.404 155.832 132.504 155.237C132.614 154.63 132.669 153.875 132.669 152.971C132.669 152.067 132.614 151.317 132.504 150.722C132.404 150.116 132.233 149.664 131.991 149.366C131.759 149.057 131.434 148.903 131.015 148.903C130.596 148.903 130.266 149.057 130.023 149.366C129.791 149.664 129.626 150.116 129.527 150.722C129.428 151.317 129.378 152.067 129.378 152.971ZM144.613 152.971C144.613 153.919 144.536 154.768 144.382 155.518C144.238 156.267 144.001 156.907 143.671 157.436C143.351 157.954 142.926 158.351 142.397 158.627C141.879 158.902 141.24 159.04 140.479 159.04C139.531 159.04 138.754 158.798 138.147 158.313C137.541 157.828 137.089 157.133 136.791 156.229C136.505 155.325 136.361 154.239 136.361 152.971C136.361 151.692 136.493 150.601 136.758 149.697C137.023 148.793 137.458 148.098 138.065 147.613C138.671 147.128 139.476 146.885 140.479 146.885C141.427 146.885 142.204 147.128 142.811 147.613C143.417 148.087 143.869 148.782 144.167 149.697C144.464 150.601 144.613 151.692 144.613 152.971ZM138.842 152.971C138.842 153.864 138.891 154.614 138.991 155.22C139.09 155.815 139.255 156.267 139.487 156.576C139.729 156.874 140.06 157.023 140.479 157.023C140.898 157.023 141.223 156.874 141.455 156.576C141.697 156.279 141.868 155.832 141.967 155.237C142.078 154.63 142.133 153.875 142.133 152.971C142.133 152.067 142.078 151.317 141.967 150.722C141.868 150.116 141.697 149.664 141.455 149.366C141.223 149.057 140.898 148.903 140.479 148.903C140.06 148.903 139.729 149.057 139.487 149.366C139.255 149.664 139.09 150.116 138.991 150.722C138.891 151.317 138.842 152.067 138.842 152.971ZM154.077 152.971C154.077 153.919 154 154.768 153.845 155.518C153.702 156.267 153.465 156.907 153.134 157.436C152.815 157.954 152.39 158.351 151.861 158.627C151.343 158.902 150.703 159.04 149.943 159.04C148.995 159.04 148.217 158.798 147.611 158.313C147.005 157.828 146.553 157.133 146.255 156.229C145.968 155.325 145.825 154.239 145.825 152.971C145.825 151.692 145.957 150.601 146.222 149.697C146.486 148.793 146.922 148.098 147.528 147.613C148.135 147.128 148.939 146.885 149.943 146.885C150.891 146.885 151.668 147.128 152.274 147.613C152.881 148.087 153.333 148.782 153.631 149.697C153.928 150.601 154.077 151.692 154.077 152.971ZM148.306 152.971C148.306 153.864 148.355 154.614 148.454 155.22C148.554 155.815 148.719 156.267 148.95 156.576C149.193 156.874 149.524 157.023 149.943 157.023C150.362 157.023 150.687 156.874 150.918 156.576C151.161 156.279 151.332 155.832 151.431 155.237C151.541 154.63 151.596 153.875 151.596 152.971C151.596 152.067 151.541 151.317 151.431 150.722C151.332 150.116 151.161 149.664 150.918 149.366C150.687 149.057 150.362 148.903 149.943 148.903C149.524 148.903 149.193 149.057 148.95 149.366C148.719 149.664 148.554 150.116 148.454 150.722C148.355 151.317 148.306 152.067 148.306 152.971Z" fill="#6D6E71"/>
</svg>
