<svg width="415" height="540" viewBox="0 0 415 540" fill="none" xmlns="http://www.w3.org/2000/svg">
<g filter="url(#filter0_f_1648_13622)">
<ellipse cx="207.487" cy="353.909" rx="156.862" ry="135.241" fill="url(#paint0_linear_1648_13622)"/>
</g>
<path d="M148.89 26.8383C151.867 16.837 158.166 8.13354 165.609 0.537109C172.519 7.82816 179.619 15.3864 183.398 24.0517C189.926 39.0155 185.536 54.5519 180.993 68.7905C180.611 69.9357 180.191 71.1572 179.123 71.8443C177.977 72.5314 176.374 72.4551 174.885 72.3024C165.113 71.2717 149.844 68.5996 149.806 58.0257C149.768 47.2227 145.721 37.5268 148.89 26.8383Z" fill="#66AD38"/>
<path d="M210.349 49.5905C230.389 46.3076 246.689 56.0417 251.385 59.0574C246.651 66.4248 234.474 83.3354 214.891 89.7867C209.547 91.5426 198.553 95.169 190.842 90.0539C188.475 88.4888 186.567 86.3893 185.231 84.5188C182.749 81.1595 178.665 75.0519 178.818 70.7001C178.97 66.3866 182.444 63.7145 185.918 60.8897C196.683 51.9572 208.783 49.8577 210.349 49.5905Z" fill="#66AD38"/>
<path d="M189.276 38.7864C194.239 35.9616 199.087 35.3127 202.179 34.8546C208.248 33.9384 213.364 34.4347 216.837 35.0073C216.799 37.4122 216.494 40.8859 215.196 44.8178C214.967 45.543 213.898 49.0168 211.608 52.4142C205.729 61.0795 195.804 66.8436 185.345 67.6452C182.558 67.8743 179.619 67.6834 177.252 66.1946C166.525 59.4762 182.94 42.3747 189.276 38.7864Z" fill="#6FC13A"/>
<path d="M179.084 71.8443C180.191 71.1572 180.611 69.9357 180.954 68.7905C185.497 54.5519 189.887 39.0537 183.359 24.0517C179.58 15.3864 172.518 7.86633 165.57 0.537109C165.532 0.575282 165.494 0.613455 165.456 0.651628C165.57 3.36191 166.143 6.56845 166.181 7.94267C166.296 12.5998 166.448 17.2951 166.563 21.9522C166.601 23.4791 166.563 25.1969 165.456 26.2657C164.845 26.8383 164.043 27.1055 163.242 27.3346C158.356 28.747 153.317 29.5104 148.24 29.5868C146.408 39.2064 149.767 48.1389 149.805 57.9875C149.843 68.5614 165.112 71.2335 174.885 72.2642C176.335 72.4551 177.938 72.5314 179.084 71.8443Z" fill="#D8E8CD"/>
<path d="M211.571 52.4545C213.861 49.0571 214.93 45.5451 215.159 44.858C216.228 41.6133 216.61 38.7503 216.762 36.46C214.243 40.9262 209.548 44.1709 204.394 44.6672C200.921 44.9725 197.409 44.0182 194.469 42.1477C192.752 41.0407 191.835 39.4756 190.843 37.9869C190.309 38.2541 189.774 38.5213 189.24 38.8267C182.903 42.415 166.489 59.5165 177.177 66.2731C179.544 67.7618 182.483 67.9527 185.27 67.7237C195.767 66.922 205.692 61.1197 211.571 52.4545Z" fill="#D8E8CD"/>
<path d="M250.62 58.5994C246.04 59.9736 241.344 61.1188 236.382 62.264C230.847 63.5618 225.197 64.8597 219.509 64.6307C213.822 64.4016 207.981 62.4166 204.24 58.1413C202.751 56.4235 201.377 54.2476 199.736 52.7207C195.498 54.4385 190.574 57.0343 185.879 60.9279C184.008 62.493 182.138 63.9436 180.764 65.6995C181.603 70.2039 182.749 74.6702 184.237 78.9837C185.497 82.7247 187.1 86.542 189.849 89.3668C190.154 89.5958 190.498 89.8631 190.841 90.0921C198.552 95.2073 209.546 91.5808 214.89 89.8249C234.473 83.3736 246.65 66.463 251.384 59.0956C251.155 58.9429 250.888 58.752 250.62 58.5994Z" fill="#D8E8CD"/>
<path d="M172.367 106.659C129.766 106.659 95.2197 100.17 95.2197 92.1533V406.623C95.2197 414.639 129.766 421.128 172.367 421.128C214.968 421.128 249.515 414.639 249.515 406.623V92.1533C249.477 100.17 214.968 106.659 172.367 106.659Z" fill="#BBDCF9" fill-opacity="0.54"/>
<path d="M216.609 391.239H128.048C114.077 391.239 102.739 379.901 102.739 365.93C102.739 309.51 102.739 253.129 102.739 196.709C149.119 196.709 195.5 196.709 241.88 196.709C241.88 253.129 241.88 309.51 241.88 365.93C241.918 379.939 230.581 391.239 216.609 391.239Z" fill="#FCE631"/>
<path d="M204.478 233.382C206.14 227.894 203.038 222.097 197.549 220.436C192.061 218.774 186.265 221.876 184.603 227.364C182.941 232.853 186.043 238.649 191.531 240.311C197.02 241.973 202.816 238.871 204.478 233.382Z" fill="#FFF89F"/>
<path d="M162.136 273.74C166.226 273.74 169.542 270.424 169.542 266.334C169.542 262.244 166.226 258.929 162.136 258.929C158.046 258.929 154.73 262.244 154.73 266.334C154.73 270.424 158.046 273.74 162.136 273.74Z" fill="#FFF89F"/>
<path d="M213.936 308.098C216.508 308.098 218.594 306.013 218.594 303.441C218.594 300.869 216.508 298.784 213.936 298.784C211.364 298.784 209.279 300.869 209.279 303.441C209.279 306.013 211.364 308.098 213.936 308.098Z" fill="#FFF89F"/>
<path d="M144.767 341.382C149.173 341.382 152.745 337.81 152.745 333.404C152.745 328.998 149.173 325.426 144.767 325.426C140.361 325.426 136.789 328.998 136.789 333.404C136.789 337.81 140.361 341.382 144.767 341.382Z" fill="#FFF89F"/>
<path d="M204.148 362.221C209.881 361.515 213.957 356.295 213.251 350.562C212.545 344.829 207.325 340.753 201.592 341.459C195.859 342.165 191.783 347.385 192.489 353.118C193.195 358.851 198.415 362.927 204.148 362.221Z" fill="#FFF89F"/>
<path d="M142.286 238.775C146.713 238.775 150.302 235.186 150.302 230.759C150.302 226.331 146.713 222.742 142.286 222.742C137.859 222.742 134.27 226.331 134.27 230.759C134.27 235.186 137.859 238.775 142.286 238.775Z" fill="#FFF89F"/>
<path d="M172.366 208.123C210.778 208.123 241.917 203.03 241.917 196.748C241.917 190.465 210.778 185.372 172.366 185.372C133.954 185.372 102.814 190.465 102.814 196.748C102.814 203.03 133.954 208.123 172.366 208.123Z" fill="#F8F270"/>
<path opacity="0.23" d="M196.798 92.1533V420.403C227.413 418.494 249.477 413.036 249.477 406.623V92.1533H196.798Z" fill="#777589"/>
<path d="M172.367 77.6475C129.766 77.6475 95.2197 84.1369 95.2197 92.1532C95.2197 100.17 129.766 106.659 172.367 106.659C214.968 106.659 249.515 100.17 249.515 92.1532C249.515 84.1369 214.968 77.6475 172.367 77.6475ZM172.367 103.529C133.927 103.529 102.816 98.4136 102.816 92.1532C102.816 85.8547 133.965 80.7776 172.367 80.7776C210.808 80.7776 241.919 85.8928 241.919 92.1532C241.919 98.4518 210.769 103.529 172.367 103.529Z" fill="#E1F2FF"/>
<path d="M172.366 103.527C210.778 103.527 241.917 98.4345 241.917 92.1519C241.917 85.8694 210.778 80.7764 172.366 80.7764C133.954 80.7764 102.814 85.8694 102.814 92.1519C102.814 98.4345 133.954 103.527 172.366 103.527Z" fill="url(#paint1_linear_1648_13622)"/>
<path d="M202.559 77.4574C201.566 77.9919 200.574 78.5263 199.581 79.0607C199.199 78.3354 198.78 77.6101 198.398 76.8848C175.074 36.2306 123.311 20.9232 82.8099 42.6436C42.3083 64.3641 28.337 114.943 51.6607 155.598C51.9279 156.017 52.157 156.476 52.4242 156.895C51.279 157.544 50.1338 158.232 49.0268 158.919C48.7596 158.422 48.4542 157.964 48.187 157.468C23.8326 115.02 38.3765 62.2264 80.7104 39.5516C123.006 16.8769 177.059 32.8714 201.375 75.2816C201.795 76.0069 202.177 76.7321 202.559 77.4574Z" fill="#FFE85F"/>
<path d="M198.399 76.8878C175.075 36.2335 123.312 20.9262 82.8107 42.6466C42.3091 64.3671 28.3378 114.946 51.6615 155.601C51.9287 156.02 52.1578 156.479 52.425 156.898C101.477 130.941 150.53 104.983 199.582 79.0637C199.2 78.3384 198.819 77.6131 198.399 76.8878ZM52.5395 96.5851C54.3336 96.5469 56.1278 97.0813 57.8837 97.5394C62.0446 98.7228 66.2436 99.9061 70.4045 101.051C73.611 101.967 76.7794 102.845 79.9859 103.762C81.7419 104.258 83.7269 104.869 88.5748 106.396C105.905 111.816 100.943 110.595 105.944 112.045C112.891 114.068 116.327 114.679 116.861 116.817C117.281 118.458 115.792 120.291 115.258 120.749C114.189 121.741 112.815 122.39 111.479 123.039C107.89 124.795 104.34 126.665 100.828 128.536C98.4998 129.757 96.2094 131.017 93.8809 132.239C83.9941 137.507 74.1454 142.774 64.564 148.577C63.7624 149.073 62.1591 150.676 59.7542 150.714C56.8149 150.791 54.4863 148.615 53.4175 147.622C50.0201 144.416 48.4932 140.37 47.0808 134.491C47.0808 134.491 44.0651 121.932 46.3555 102.044C46.4318 101.319 46.699 99.9061 47.7297 98.6083C48.8749 97.234 50.7454 96.6233 52.5395 96.5851ZM86.5517 52.4953C87.8877 53.755 88.842 55.3201 89.7582 56.8851C91.9722 60.5879 94.1481 64.3289 96.3621 68.0317C98.0417 70.8565 99.7214 73.7195 101.401 76.5443C102.317 78.1093 103.348 79.9417 105.791 84.3315C114.532 100.135 111.784 95.8216 114.418 100.326C118.044 106.548 120.068 109.373 118.961 111.205C118.083 112.618 115.678 112.809 114.991 112.809C113.502 112.732 112.013 112.236 110.601 111.74C106.745 110.404 102.813 109.259 98.8815 108.075C96.324 107.312 93.7282 106.548 91.1706 105.785C80.1768 102.502 69.2211 99.219 58.0746 96.5087C57.1584 96.2797 54.8299 96.2797 53.0357 94.6383C50.8599 92.6533 50.7072 89.5612 50.6308 88.1107C50.4782 83.5681 52.2341 79.7126 55.4406 74.6738C55.4406 74.6738 62.2354 63.9472 78.1918 51.9227C78.7644 51.5028 79.9859 50.7011 81.6655 50.5103C83.4215 50.3576 85.2156 51.2355 86.5517 52.4953ZM142.628 45.7005C142.704 47.4946 142.246 49.2505 141.826 50.9683C140.757 55.0528 139.689 59.1374 138.658 63.2219C137.856 66.3521 137.016 69.4441 136.215 72.5743C135.757 74.292 135.184 76.2389 133.81 80.9723C128.847 97.883 129.954 93.035 128.618 97.9593C126.786 104.754 126.252 108.113 124.114 108.571C122.434 108.915 120.564 107.388 120.068 106.892C118.999 105.785 118.312 104.449 117.625 103.113C115.754 99.5244 113.731 95.9743 111.708 92.4242C110.372 90.0957 109.036 87.7671 107.738 85.4386C102.088 75.5518 96.4385 65.6268 90.2544 56.0072C89.7582 55.2055 88.0404 53.5641 87.9259 51.1974C87.7732 48.2962 89.8727 46.0822 90.8652 45.0515C93.9954 41.8068 98.0799 40.4326 103.997 39.211C103.997 39.211 116.632 36.6153 136.902 39.4782C137.627 39.5928 139.078 39.8982 140.414 40.9288C141.903 42.0358 142.551 43.9063 142.628 45.7005ZM189.695 72.307C190.153 72.8796 190.993 74.1012 191.222 75.7808C191.451 77.5749 190.611 79.3309 189.39 80.5906C188.168 81.8503 186.565 82.7665 185.038 83.6063C181.335 85.6676 177.632 87.7289 173.93 89.7521C171.105 91.3172 168.28 92.8823 165.455 94.4474C163.89 95.3254 162.096 96.2415 157.706 98.5319C141.941 106.663 146.254 104.105 141.75 106.548C135.566 109.907 132.741 111.854 130.871 110.671C129.42 109.755 129.115 107.388 129.153 106.701C129.153 105.212 129.649 103.8 130.107 102.387C131.329 98.6083 132.397 94.791 133.466 90.9355C134.153 88.4161 134.879 85.8966 135.566 83.3772C138.543 72.6506 141.521 61.924 143.926 51.0447C144.117 50.1285 144.04 47.8381 145.682 46.1204C147.628 44.0208 150.759 43.9827 152.247 43.9827C156.866 43.9445 160.836 45.8531 166.028 49.136C165.875 49.136 176.984 56.198 189.695 72.307Z" fill="#FFFAD7"/>
<path d="M191.222 75.7391C191.451 77.5333 190.611 79.2892 189.389 80.5489C188.168 81.8086 186.565 82.7248 185.038 83.5646C181.335 85.6259 177.632 87.6873 173.929 89.7105C171.105 91.2755 168.28 92.8406 165.455 94.4057C163.89 95.2837 162.096 96.1999 157.706 98.4902C141.94 106.621 146.254 104.064 141.75 106.507C135.566 109.866 132.741 111.813 130.87 110.629C129.42 109.713 129.114 107.346 129.152 106.659C129.152 105.171 129.649 103.758 130.107 102.346C131.328 98.5666 132.397 94.7493 133.466 90.8938C134.153 88.3744 134.878 85.855 135.566 83.3356C138.543 72.6089 141.521 61.8823 143.925 51.003C144.116 50.0868 144.04 47.7965 145.681 46.0787C147.628 43.9792 150.758 43.941 152.247 43.941C156.866 43.9028 160.836 45.8115 166.028 49.0944C166.028 49.0944 177.098 56.1182 189.809 72.2272C190.153 72.8761 190.993 74.0977 191.222 75.7391Z" fill="#F8F270"/>
<path d="M141.826 50.9275C140.757 55.012 139.688 59.0965 138.658 63.181C137.856 66.3112 137.016 69.4032 136.215 72.5334C135.757 74.2512 135.184 76.198 133.81 80.9315C128.847 97.8421 129.954 92.9941 128.618 97.9185C126.786 104.713 126.252 108.072 124.114 108.531C122.434 108.874 120.564 107.347 120.068 106.851C118.999 105.744 118.312 104.408 117.624 103.072C115.754 99.4836 113.731 95.9335 111.708 92.3834C110.372 90.0548 109.036 87.7263 107.738 85.3977C102.088 75.5109 96.4385 65.5859 90.2544 55.9663C89.7582 55.1647 88.0404 53.5232 87.9259 51.1565C87.7732 48.2554 89.8727 46.0413 90.8652 45.0107C93.9954 41.766 98.0799 40.3917 103.997 39.1702C103.997 39.1702 116.632 36.5744 136.902 39.4374C137.627 39.5519 139.078 39.8573 140.414 40.888C141.864 42.0332 142.551 43.8655 142.628 45.6596C142.704 47.4537 142.284 49.2097 141.826 50.9275Z" fill="#F8F270"/>
<path d="M114.417 100.361C118.044 106.584 120.067 109.408 118.96 111.241C118.082 112.653 115.677 112.844 114.99 112.844C113.501 112.768 112.012 112.271 110.6 111.775C106.745 110.439 102.813 109.294 98.881 108.111C96.3234 107.347 93.7276 106.584 91.17 105.82C80.1762 102.537 69.2205 99.2544 58.074 96.5441C57.1579 96.3151 54.8293 96.3151 53.0352 94.6736C50.8593 92.6886 50.7066 89.5966 50.6303 88.146C50.4776 83.6034 52.2336 79.748 55.4401 74.7091C55.4401 74.7091 62.2349 63.9825 78.1912 51.958C78.7638 51.5381 79.9853 50.7365 81.6649 50.5456C83.4591 50.3547 85.2532 51.2327 86.5893 52.4924C87.9253 53.7521 88.8796 55.3172 89.7958 56.8823C92.0098 60.5851 94.1857 64.3261 96.3997 68.0288C98.0793 70.8537 99.759 73.7166 101.439 76.5414C102.355 78.1065 103.385 79.9388 105.828 84.3287C114.532 100.132 111.783 95.857 114.417 100.361Z" fill="#F8F270"/>
<path d="M70.4049 101.085C73.6114 102.002 76.7798 102.879 79.9863 103.796C81.7423 104.292 83.7273 104.903 88.5752 106.43C105.906 111.85 100.943 110.629 105.944 112.079C112.891 114.102 116.327 114.713 116.861 116.851C117.281 118.492 115.793 120.325 115.258 120.783C114.189 121.775 112.815 122.424 111.479 123.073C107.891 124.829 104.341 126.699 100.829 128.57C98.5002 129.791 96.2099 131.051 93.8813 132.273C83.9945 137.541 74.1458 142.808 64.5644 148.611C63.7628 149.107 62.1595 150.71 59.7546 150.748C56.8153 150.825 54.4867 148.649 53.4179 147.656C50.0205 144.45 48.4936 140.404 47.0812 134.525C47.0812 134.525 44.0655 121.966 46.3559 102.078C46.4322 101.353 46.6994 99.9402 47.7301 98.6423C48.8371 97.2681 50.7076 96.6573 52.5017 96.6191C54.2959 96.5809 56.09 97.1154 57.846 97.5734C62.0832 98.7186 66.244 99.902 70.4049 101.085Z" fill="#F8F270"/>
<path d="M78.6475 142.581C78.2276 142.81 77.7695 143.039 77.3496 143.268C79.9072 141.855 82.4648 140.443 85.0224 138.992C85.7095 138.611 86.473 138.191 87.5418 137.656C84.6025 139.336 81.625 140.977 78.6475 142.581Z" fill="#F8F270"/>
<path d="M158.891 45.3547C156.639 44.4385 154.463 43.9805 152.134 43.9805C150.684 43.9805 147.553 44.0568 145.568 46.1182C143.965 47.8359 144.041 50.1263 143.812 51.0425C141.407 61.9218 138.43 72.6484 135.453 83.375L133.353 90.9333C132.742 93.1855 132.093 95.4377 131.444 97.6899C132.17 96.4684 132.704 95.1323 133.353 93.7581C136.254 87.4595 139.117 81.161 142.018 74.8243C143.66 71.236 145.301 67.6477 147.477 64.3267C147.668 65.2428 147.935 66.159 148.317 66.9988C149.615 65.281 151.065 63.6777 152.592 62.189C152.592 62.1508 152.592 62.1127 152.592 62.1127C152.669 60.1658 153.508 58.1427 154.348 56.4249C155.112 54.8216 156.486 52.5694 158.585 52.6839C160.227 52.7984 161.181 54.0581 161.296 55.4324C161.487 55.356 161.677 55.2797 161.868 55.2033C162.937 54.8598 164.12 55.0506 165.189 55.3942C168.167 56.3867 170.457 58.7916 173.206 60.3949C174.618 61.2347 176.107 61.8454 177.557 62.5326C180.382 63.8686 183.092 65.4719 185.65 67.3042C176.794 57.0356 169.312 51.4242 166.831 49.7064C165.457 49.8209 164.159 49.6301 162.937 48.8284C162.594 48.5994 162.288 48.3322 161.945 48.1032C161.41 48.5231 160.609 48.6376 159.998 48.0268C159.082 47.187 158.547 46.4235 158.891 45.3547ZM146.943 61.8454C146.065 63.7923 146.026 65.9681 144.767 67.7623C143.965 68.9075 142.018 68.4875 142.018 66.9606C142.018 64.7848 142.476 62.6471 143.583 60.7766C143.812 60.3567 144.194 60.1658 144.538 60.1277C144.958 59.5932 145.836 59.5551 146.408 59.8604C147.133 60.2803 147.248 61.1202 146.943 61.8454ZM152.363 51.8823C152.058 52.9511 151.409 53.8673 151.027 54.8598C150.836 55.356 150.416 55.7759 149.882 55.8523C149.844 55.8904 149.844 55.8905 149.806 55.9286C149.271 56.463 148.279 56.463 147.706 55.8904C145.53 53.5619 147.057 49.172 149.691 47.9505C150.264 47.6832 151.027 47.7214 151.447 48.2177C152.439 49.2865 152.707 50.5462 152.363 51.8823Z" fill="#F5E642"/>
<path d="M142.628 45.6949C142.666 46.153 142.628 46.6111 142.59 47.0692C141.368 46.0385 140.147 45.046 138.963 44.0153C138.352 43.5191 137.627 42.9465 136.825 43.061C136.177 43.1373 135.604 43.6336 134.955 43.5572C134.306 43.4809 133.886 42.832 133.39 42.3739C131.825 40.8851 129.305 41.076 127.32 41.8395C126.519 42.1448 125.717 42.5266 124.839 42.4502C124.228 42.3739 123.656 42.0685 123.083 41.8776C120.716 41.076 117.93 42.1067 116.785 44.2062C115.487 42.6793 113.311 42.0685 111.326 42.1448C109.341 42.2212 107.432 42.8701 105.562 43.5572C104.989 43.7481 104.378 43.9771 104.035 44.4734C103.653 44.9315 103.653 45.7331 104.188 46.0767C104.035 46.1912 103.844 46.3057 103.691 46.4202C103.5 45.5804 103.157 44.817 102.584 44.1298C102.279 43.7481 101.63 43.5954 101.172 43.7099C101.096 43.7481 100.981 43.7481 100.905 43.7863C100.599 43.5954 100.256 43.4809 99.7977 43.5572C98.2326 43.8245 97.4691 45.3514 97.6218 46.802C97.66 47.2982 97.8127 47.7563 98.0035 48.1762C97.9654 48.1762 97.9272 48.1762 97.889 48.2144C97.4691 47.5654 96.9729 46.9546 96.2858 46.4584C95.7513 46.0385 94.9497 46.2675 94.4916 46.6493C93.69 47.2982 93.461 48.4816 93.69 49.5504C93.1556 49.8558 92.6593 50.2375 92.2394 50.7338C89.7582 53.5204 90.8652 56.2689 92.1631 58.941C91.5141 57.9485 90.9034 56.9178 90.2544 55.9253C89.7582 55.1237 88.0404 53.4822 87.9259 51.1155C87.7732 48.2144 89.8727 46.0003 90.8652 44.9696C93.9954 41.7249 98.0799 40.3507 103.997 39.1292C103.997 39.1292 116.632 36.5334 136.902 39.3964C137.627 39.5109 139.078 39.8163 140.414 40.847C141.903 42.0303 142.551 43.9008 142.628 45.6949Z" fill="#F5E642"/>
<path d="M86.5504 52.4915C87.8865 53.7512 88.8408 55.3163 89.757 56.8814C90.0242 57.3013 90.2532 57.7212 90.5204 58.1411C89.1462 56.9959 87.5811 55.9271 86.7031 55.6217C84.6799 54.8964 82.3514 55.4308 80.6336 56.6524C78.9158 57.8357 77.6561 59.5917 76.5873 61.424C76.1674 62.1111 75.7475 62.8746 75.0603 63.2563C74.4114 63.5998 73.6098 63.5998 72.8845 63.638C70.6323 63.7144 68.0747 64.3633 67.1967 66.3865C66.9295 67.0736 66.8531 67.8371 66.3569 68.4096C65.5171 69.3258 64.0283 69.0586 62.8068 69.4021C61.3562 69.7839 60.3637 71.0054 59.3331 72.0361C57.9207 73.4867 56.241 74.7082 54.5996 75.9679C54.8668 75.548 55.134 75.1281 55.4012 74.67C55.4012 74.67 62.196 63.9434 78.1524 51.9189C78.725 51.499 79.9465 50.6974 81.6261 50.5065C83.4202 50.3538 85.2144 51.2318 86.5504 52.4915Z" fill="#F5E642"/>
<path d="M92.0082 108.644C87.6183 108.147 83.2284 107.346 78.9531 106.239C77.8842 105.972 76.739 105.666 75.6702 105.781C74.5632 105.895 73.4561 106.62 73.2653 107.689C70.6313 106.964 67.9974 106.201 65.3253 105.475C65.6307 105.17 65.9361 104.903 66.2414 104.597C65.5543 103.49 64.0656 103.261 62.7677 103.147C60.3628 102.879 57.8052 102.46 55.8966 100.894C55.2476 100.36 54.5987 99.673 53.797 99.7111C53.3771 99.7111 52.9954 99.9402 52.6519 100.131C50.9341 101.124 49.3308 102.307 47.8421 103.605C48.6437 103.605 49.4071 104.177 49.598 104.941C49.7889 105.704 49.3308 106.544 48.5673 106.773C48.1856 106.888 47.6894 106.849 47.4603 107.193C47.2695 107.422 47.3076 107.804 47.3458 108.109C47.7275 111.163 47.0786 114.255 45.5898 116.889C45.5898 112.575 45.8189 107.613 46.4296 102.078C46.506 101.353 46.7732 99.9402 47.8039 98.6423C48.9109 97.2681 50.7814 96.6573 52.5755 96.6191C54.3696 96.5809 56.1638 97.1154 57.9197 97.5734C62.0806 98.7568 66.2796 99.9402 70.4405 101.085C73.647 102.002 76.8154 102.879 80.0219 103.796C81.7779 104.292 83.7629 104.903 88.6108 106.43C92.39 107.613 95.1002 108.491 97.1234 109.14C95.4056 109.025 93.6878 108.834 92.0082 108.644Z" fill="#F5E642"/>
<path d="M77.9994 131.701C77.8849 131.778 77.7703 131.816 77.6558 131.892C77.5795 131.93 77.5031 131.816 77.5795 131.778C77.694 131.701 77.8085 131.663 77.923 131.587C78.0376 131.549 78.0757 131.663 77.9994 131.701Z" fill="#FFF9AB"/>
<path d="M80.903 134.908C77.1238 135.061 74.4517 136.206 71.3979 139.718C59.1062 153.116 62.0837 130.594 80.903 134.908Z" fill="#FFFCDC"/>
<path d="M65.7086 134.755C63.0365 136.282 58.5703 144.146 53.7986 139.451C52.1954 136.55 62.9602 134.259 65.7086 134.755Z" fill="#FFFCDC"/>
<path d="M89.0324 128.039C86.2458 128.23 78.8402 131.627 74.832 128.917C77.0461 126.474 84.9479 124.107 89.0324 128.039Z" fill="#FFFCDC"/>
<path d="M97.5057 124.333C96.8186 125.402 89.4894 125.822 93.0777 122.845C93.803 123.608 97.8875 122.578 97.5057 124.333Z" fill="#FFFCDC"/>
<path d="M93.6532 102.422C94.9129 103.147 87.1638 102.575 83.0029 98.8339C84.0336 94.0241 91.172 100.819 93.6532 102.422Z" fill="#FFFCDC"/>
<path d="M77.0844 96.3884C56.5473 96.8846 55.5166 82.7988 66.2814 91.1587C67.1976 92.4565 78.0769 93.2582 77.0844 96.3884Z" fill="#FFFCDC"/>
<path d="M71.4728 89.8246C68.0373 89.7101 60.8226 85.0148 59.4102 80.7776C61.2806 75.5098 70.8621 88.4122 71.4728 89.8246Z" fill="#FFFCDC"/>
<path d="M88.4203 96.5081C86.5498 94.7903 82.0454 92.8053 80.5566 89.5225C81.6637 91.4311 93.879 93.9124 88.4203 96.5081Z" fill="#FFFCDC"/>
<path d="M115.945 89.3296C114.227 85.8177 108.31 81.3133 107.089 76.0454C112.433 70.3576 113.273 85.1687 115.945 89.3296Z" fill="#FFFCDC"/>
<path d="M104.493 72.035C102.393 71.2334 101.401 67.836 100.294 64.6676C101.783 56.4222 106.707 68.8285 104.493 72.035Z" fill="#FFFCDC"/>
<path d="M98.2717 61.6169C96.7066 62.2276 93.8436 56.7689 97.8518 58.6394C98.0045 59.3647 98.2717 58.2195 98.2717 61.6169Z" fill="#FFFCDC"/>
<path d="M115.676 73.9845C115.714 77.8782 106.133 64.9375 110.332 61.082C114.035 63.5251 112.317 69.4801 115.676 73.9845Z" fill="#FFFCDC"/>
<path d="M152.054 94.5596C161.788 94.9795 143.541 103.034 141.251 101.851C144.458 99.293 146.862 96.6973 152.054 94.5596Z" fill="#FFFCDC"/>
<path d="M157.477 86.8091C155.454 88.6796 150.109 94.2528 146.674 92.4205C149.308 92.6878 157.973 78.1057 157.477 86.8091Z" fill="#FFFCDC"/>
<path d="M173.394 82.9528C173.738 87.7626 164.118 91.389 160.263 90.1293C162.095 88.3734 172.44 78.4484 173.394 82.9528Z" fill="#FFFCDC"/>
<path opacity="0.58" d="M128.542 310.271C130.87 310.882 133.542 309.508 133.772 309.393C142.017 305.118 141.063 288.436 140.834 282.367C139.536 247.667 146.865 164.374 144.155 132.728C144.078 131.851 143.735 128.224 141.597 124.33C140.795 122.918 137.703 117.154 132.855 116.619C128.618 116.123 125.03 119.673 123.732 120.971C111.059 133.492 118.731 196.592 119.8 246.751C120.525 277.671 118.731 307.599 128.542 310.271Z" fill="white"/>
<path opacity="0.46" d="M117.284 102.307C117.398 102.536 117.513 102.765 117.665 102.994C118.276 104.178 118.887 105.361 119.727 106.354C118.887 105.361 118.276 104.14 117.665 102.994C117.513 102.765 117.398 102.536 117.284 102.307C103.656 99.6734 95.2197 96.0851 95.2197 92.1533V108.491H95.2579H95.2197V134.258C113.047 124.829 130.873 115.401 148.662 105.972C136.637 105.247 125.911 103.987 117.284 102.307ZM98.2736 109.484C97.8918 109.369 97.5101 109.217 97.0902 109.102C97.5101 109.255 97.8918 109.369 98.2736 109.484C98.6553 109.598 98.9607 109.713 99.2661 109.827C98.9607 109.713 98.6171 109.598 98.2736 109.484ZM99.8387 110.018C100.22 110.133 100.526 110.247 100.793 110.362C100.526 110.247 100.22 110.133 99.8387 110.018ZM105.946 112.041C105.641 111.965 105.374 111.851 105.107 111.812C105.374 111.889 105.641 111.965 105.946 112.041C107.855 112.576 109.458 113.034 110.871 113.454C109.496 113.034 107.855 112.614 105.946 112.041ZM113.123 114.141C113.619 114.294 114.077 114.485 114.459 114.637C114.039 114.485 113.619 114.294 113.123 114.141ZM116.902 117.729C116.94 117.424 116.94 117.118 116.864 116.813C116.787 116.508 116.673 116.24 116.482 116.011C116.673 116.24 116.787 116.546 116.864 116.813C116.94 117.118 116.94 117.424 116.902 117.729ZM118.925 111.202C118.162 112.461 116.215 112.767 115.261 112.805C116.215 112.767 118.162 112.461 118.925 111.202C119.154 110.858 119.231 110.476 119.231 110.056C119.269 110.476 119.154 110.858 118.925 111.202ZM121.712 107.995C122.399 108.339 123.201 108.606 123.926 108.53C123.162 108.606 122.399 108.339 121.712 107.995ZM124.346 108.415C124.651 108.301 124.918 108.148 125.186 107.919C124.918 108.148 124.651 108.339 124.346 108.415ZM129.117 107.232C129.117 107.384 129.156 107.537 129.194 107.728C129.156 107.575 129.156 107.384 129.117 107.232Z" fill="#BBDCF9"/>
<path d="M241.917 91.9988C241.917 92.037 241.917 92.0752 241.917 92.1515C241.917 98.4501 210.767 103.527 172.365 103.527C133.925 103.527 102.814 98.4119 102.814 92.1515C102.814 91.9988 102.852 91.808 102.89 91.6553H95.294C95.2559 91.808 95.2559 91.9988 95.2559 92.1515C95.2559 100.168 129.802 106.657 172.404 106.657C215.005 106.657 249.551 100.168 249.551 92.1515C249.551 92.1134 249.551 92.0752 249.551 91.9988H241.917Z" fill="#E1F2FF"/>
<g clip-path="url(#clip0_1648_13622)">
<g filter="url(#filter1_i_1648_13622)">
<path d="M348.281 402.905C347.783 394.622 345.916 386.463 343.99 378.377C340.071 361.96 335.852 345.589 330.386 329.607C317.391 291.462 281.158 284.712 284.544 263.37C285.224 259.146 287.029 255.969 288.266 254.158C278.292 255.48 264.415 258.321 248.993 265.002C239.965 268.88 225.468 275.273 210.945 288.811C204.659 294.648 186.201 312.433 178.831 340.118C175.749 342.318 171.854 345.353 167.703 349.332C157.55 359.065 147.978 368.162 149.289 377.313C150.453 385.243 158.116 390.598 169.39 398.202C175.796 402.525 181.652 405.352 186.081 407.179C189.13 410.607 194.029 415.853 200.459 421.729C210.724 431.039 235.59 453.187 274.035 463.244C280.879 465.018 291.039 467.2 303.749 468.024C309.313 466.016 339.706 454.471 346.497 429.63C349.221 419.45 348.44 406.052 348.281 402.905Z" fill="#FFCF00"/>
</g>
<path opacity="0.57" d="M219.452 294.698C213.092 300.477 207.158 306.98 203.631 314.814C200.104 322.648 199.219 332.027 202.839 339.794C208.03 350.979 221 356.468 233.243 357.875C236.001 358.171 238.97 358.323 241.406 357.018C243.442 355.943 244.887 354.083 246.238 352.219C258.464 335.091 266.377 314.887 269 293.987C269.504 289.982 269.79 285.802 268.606 281.93C262.561 261.89 227.737 287.205 219.452 294.698Z" fill="#FFF8A1"/>
<g filter="url(#filter2_i_1648_13622)">
<path d="M179.811 381.951C180.901 373.719 181.935 365.467 183.026 357.236C183.615 362.118 187.624 390.733 213.356 409.261C232.747 423.207 253.095 423.232 259.743 422.98C274.407 437.951 289.07 452.921 303.696 467.91C294.349 468.897 242.376 473.438 206.926 437.387C197.094 427.417 190.859 416.667 186.783 407.407C182.278 405.615 176.107 402.703 169.354 398.126C158.098 390.56 150.435 385.205 149.309 377.257C149.031 375.453 149.24 373.608 149.73 371.772C154.359 380.133 161.571 386.109 175.12 386.455C176.241 386.492 177.403 386.417 178.303 385.773C179.378 384.91 179.634 383.366 179.811 381.951Z" fill="#A59800"/>
</g>
<path d="M275.489 257.091C236.198 271.395 214.095 329.461 226.091 386.838C238.088 444.216 279.728 479.121 319.02 464.816C358.312 450.512 380.414 392.446 368.418 335.069C356.384 277.709 314.781 242.787 275.489 257.091ZM318.342 460.343C280.698 474.027 240.842 440.602 229.327 385.672C217.795 330.703 238.996 275.077 276.64 261.393C314.284 247.708 354.14 281.134 365.655 336.064C377.132 391.012 355.969 446.621 318.342 460.343Z" fill="#FFE85F"/>
<path d="M292.802 336.224C294.528 344.678 295.066 348.848 296.896 349.524C298.3 350.075 299.872 348.293 300.247 347.707C301.092 346.443 301.669 344.798 302.17 343.187C303.638 338.877 305.234 334.645 306.848 330.452C307.911 327.663 308.936 324.89 310.017 322.139C314.515 310.315 318.976 298.508 323.874 287.053C324.26 286.093 325.687 284.194 325.688 281.295C325.709 277.742 323.894 274.897 323.058 273.579C320.313 269.413 316.841 267.467 311.834 265.584C311.834 265.584 301.095 261.644 284.113 263.936C283.512 264.029 282.306 264.307 281.201 265.506C279.999 266.795 279.515 269.042 279.48 271.267C279.466 273.436 279.881 275.638 280.316 277.784C281.311 282.847 282.324 287.949 283.357 292.995C284.129 296.872 284.901 300.75 285.673 304.628C286.091 306.736 286.628 309.204 287.952 315.082C292.635 336.163 291.559 330.124 292.802 336.224Z" fill="#F8F270"/>
<path d="M301.801 353.986C302.584 355.788 304.593 356.152 305.208 356.191C306.461 356.213 307.676 355.654 308.871 355.15C312.095 353.759 315.369 352.574 318.626 351.352C320.784 350.543 322.922 349.79 325.081 348.981C334.26 345.632 343.384 342.262 352.692 339.59C353.466 339.372 355.424 339.529 356.889 337.613C358.667 335.277 358.715 331.482 358.697 329.742C358.71 324.169 357.072 319.309 354.286 312.953C354.286 312.953 348.274 299.385 334.478 283.601C333.991 283.043 332.959 281.999 331.529 281.691C330.006 281.38 328.516 282.341 327.439 283.803C326.363 285.264 325.611 287.129 324.876 289.031C323.142 293.464 321.371 297.913 319.637 302.346C318.293 305.725 316.966 309.142 315.622 312.521C314.908 314.368 314.07 316.548 312.178 321.835C305.262 340.707 307.467 335.597 305.385 340.972C302.433 348.358 300.791 351.69 301.801 353.986Z" fill="#FFF657"/>
<path d="M323.096 273.562C320.351 269.396 316.879 267.45 311.871 265.567C311.871 265.567 310.652 265.116 308.387 264.594C310.476 265.335 312.457 266.54 314.312 268.171C314.784 268.598 315.292 269.101 315.399 269.834C315.509 270.473 315.336 271.197 315.56 271.784C315.819 272.447 316.432 272.579 316.869 272.93C317.873 273.711 318.221 275.667 317.947 277.173C317.674 278.679 316.905 279.907 316.156 281.08C315.802 281.611 315.41 282.159 314.905 282.162C314.047 282.096 313.375 280.335 312.56 280.664C312.049 280.853 311.89 281.708 311.81 282.435C311.477 285.211 311.199 288.008 311.015 290.807L312.422 290.666C312.537 292.315 312.444 294.014 312.241 295.672C312.684 296.435 312.951 297.416 312.906 298.817C312.792 303.47 311.191 308.992 309.371 312.636C308.692 313.961 307.058 313.608 307.045 311.682C306.978 307.434 307.211 303.14 306.769 298.88C304.452 305.145 306.712 314.458 303.13 319.372C302.749 318.444 301.982 317.876 301.287 317.966C300.973 324.184 300.53 330.323 299.901 336.456C299.259 336.659 298.625 336.582 297.98 336.281C298.26 339.189 298.221 342.105 297.812 344.916C297.591 346.536 297.242 348.077 296.546 349.364C296.674 349.443 296.802 349.522 296.913 349.563C298.317 350.113 299.89 348.332 300.264 347.745C301.109 346.482 301.686 344.836 302.187 343.225C303.655 338.915 305.251 334.684 306.865 330.491L310.034 322.177C314.532 310.354 318.993 298.547 323.891 287.092C324.277 286.132 325.704 284.233 325.705 281.334C325.803 277.746 323.97 274.862 323.096 273.562ZM306.934 322.039C306.931 322.133 306.948 322.171 306.945 322.264C307.114 322.831 307.148 323.505 306.85 324.057C306.516 327.431 305.481 331.082 303.986 333.334C303.299 334.34 302.234 333.726 301.9 332.499C301.301 330.198 301.762 328.1 302.573 326.162C302.565 325.844 302.577 325.47 302.7 325.138C303.318 323.381 303.793 321.414 305.058 320.464C305.827 319.834 306.924 320.618 306.934 322.039ZM315.61 302.496C315.095 303.975 313.694 303.331 313.325 302.029C312.401 298.819 313.351 294.885 314.473 292.023C314.537 291.763 314.657 291.524 314.777 291.284C314.798 291.229 314.818 291.174 314.877 291.101C314.976 290.917 315.055 290.789 315.172 290.643C315.351 290.331 315.585 290.039 315.836 289.785C316.514 289.059 317.421 289.93 317.688 290.911C318.723 294.76 316.709 299.184 315.61 302.496ZM322.95 282.647C322.58 284.842 321.905 287.775 320.642 289.231C320.078 289.904 319.14 289.967 318.672 288.849C317.895 286.86 318.113 284.735 318.498 282.671C318.542 282.467 318.624 282.245 318.703 282.117C319.125 278.932 319.979 274.49 322.056 276.203C323.567 277.486 323.256 280.712 322.95 282.647Z" fill="#F5E642"/>
<path d="M276.64 261.392C238.996 275.076 217.813 330.74 229.327 385.671C240.842 440.601 280.698 474.026 318.342 460.342C355.987 446.658 377.17 390.993 365.655 336.063C354.102 281.15 314.284 247.707 276.64 261.392ZM331.491 281.707C332.921 282.015 333.953 283.058 334.44 283.617C348.218 299.363 354.248 312.969 354.248 312.969C357.089 319.345 358.71 324.167 358.659 329.757C358.639 331.515 358.591 335.31 356.851 337.629C355.386 339.545 353.428 339.388 352.654 339.606C343.384 342.26 334.205 345.609 325.042 348.996C322.884 349.805 320.746 350.559 318.588 351.368C315.314 352.552 312.057 353.774 308.833 355.166C307.638 355.669 306.423 356.229 305.17 356.207C304.572 356.206 302.546 355.803 301.763 354.001C300.753 351.705 302.395 348.373 305.273 340.93C307.356 335.555 305.151 340.664 312.067 321.793C314.014 316.525 314.797 314.325 315.511 312.478C316.855 309.099 318.182 305.682 319.526 302.303C321.259 297.871 323.031 293.421 324.765 288.988C325.517 287.124 326.252 285.221 327.328 283.76C328.477 282.357 329.967 281.395 331.491 281.707ZM285.711 304.609C284.939 300.731 284.167 296.854 283.395 292.976C282.4 287.912 281.387 282.811 280.354 277.765C279.919 275.619 279.521 273.455 279.518 271.248C279.533 269.079 280.055 266.814 281.239 265.487C282.344 264.289 283.55 264.01 284.151 263.917C301.133 261.626 311.872 265.565 311.872 265.565C316.917 267.431 320.351 269.394 323.096 273.56C323.97 274.86 325.803 277.744 325.726 281.276C325.687 284.193 324.298 286.074 323.912 287.034C319.014 298.49 314.515 310.314 310.055 322.12C308.992 324.91 307.967 327.682 306.886 330.433C305.29 334.665 303.676 338.858 302.208 343.168C301.652 344.758 301.113 346.387 300.285 347.688C299.872 348.292 298.338 350.056 296.934 349.505C295.104 348.829 294.567 344.659 292.84 336.206C291.58 330.068 292.618 336.124 287.972 315.026C286.666 309.185 286.129 306.718 285.711 304.609ZM240.027 305.52C240.149 303.486 240.831 302.068 241.209 301.388C251.458 282.363 260.582 274.393 260.582 274.393C264.855 270.679 268.121 268.578 272.039 268.892C273.271 268.969 275.88 269.241 277.626 271.935C279.051 274.132 279.033 276.993 279.221 278.102C281.569 291.607 284.37 304.996 287.209 318.367C287.874 321.512 288.521 324.619 289.186 327.764C290.19 332.547 291.195 337.331 292.333 342.006C292.763 343.74 293.211 345.513 293.226 347.346C293.254 348.208 293.105 351.083 291.875 352.109C290.317 353.424 287.912 350.896 282.598 346.347C278.74 343.061 282.426 346.472 268.922 335.523C265.169 332.465 263.582 331.216 262.255 330.032C259.817 327.933 257.379 325.834 254.979 323.717C251.777 320.958 248.63 318.218 245.428 315.459C244.101 314.275 242.736 313.108 241.667 311.484C240.653 309.88 239.864 307.666 240.027 305.52ZM231.225 373.295C228.695 348.693 230.929 333.448 230.929 333.448C231.965 326.3 233.133 321.437 235.911 317.675C236.791 316.488 238.686 314.005 241.147 314.254C243.178 314.469 244.551 316.552 245.259 317.193C253.483 324.866 261.949 331.967 270.436 339.013C272.44 340.668 274.405 342.34 276.409 343.995C279.413 346.524 282.455 349.035 285.52 351.398C286.652 352.258 287.839 353.138 288.768 354.458C289.197 355.09 290.525 357.377 290.216 359.406C289.834 361.974 286.972 362.555 281.183 364.574C276.984 366.046 281.136 364.871 266.684 370.462C262.668 372.034 260.983 372.671 259.508 373.166C256.842 374.07 254.175 374.975 251.509 375.88C248.01 377.075 244.549 378.253 241.05 379.449C239.575 379.944 238.101 380.438 236.571 380.314C235.041 380.189 233.443 379.314 232.49 377.544C231.569 375.943 231.309 374.177 231.225 373.295ZM262.543 439.267C261.113 438.959 260.081 437.915 259.594 437.357C245.816 421.611 239.787 408.005 239.787 408.005C236.945 401.628 235.325 396.807 235.375 391.216C235.395 389.459 235.443 385.663 237.183 383.345C238.648 381.428 240.607 381.586 241.381 381.368C250.65 378.713 259.83 375.364 268.992 371.977C271.15 371.168 273.288 370.415 275.447 369.606C278.721 368.421 281.977 367.199 285.202 365.808C286.397 365.304 287.612 364.745 288.864 364.767C289.463 364.768 291.488 365.17 292.271 366.972C293.281 369.268 291.64 372.6 288.761 380.044C286.679 385.419 288.883 380.31 281.968 399.181C280.02 404.448 279.238 406.648 278.523 408.495C277.179 411.874 275.853 415.291 274.509 418.67C272.775 423.103 271.003 427.553 269.27 431.985C268.517 433.85 267.782 435.752 266.706 437.214C265.574 438.654 264.084 439.616 262.543 439.267ZM308.194 415.182C308.965 419.059 309.737 422.937 310.509 426.815C311.504 431.879 312.517 436.98 313.55 442.026C313.986 444.172 314.383 446.336 314.386 448.543C314.372 450.712 313.849 452.977 312.666 454.304C311.561 455.502 310.355 455.781 309.753 455.874C292.771 458.165 282.033 454.226 282.033 454.226C276.987 452.36 273.554 450.397 270.809 446.231C269.934 444.931 268.101 442.047 268.179 438.515C268.217 435.598 269.606 433.717 269.993 432.757C274.891 421.301 279.389 409.477 283.85 397.671C284.913 394.881 285.938 392.109 287.018 389.358C288.615 385.126 290.228 380.933 291.696 376.623C292.253 375.033 292.792 373.404 293.62 372.103C294.032 371.499 295.567 369.735 296.97 370.286C298.8 370.962 299.338 375.132 301.065 383.585C302.324 389.723 301.286 383.667 305.932 404.765C307.239 410.606 307.776 413.073 308.194 415.182ZM353.666 415.012C353.544 417.046 352.862 418.464 352.485 419.144C342.235 438.169 333.111 446.14 333.111 446.14C328.838 449.854 325.572 451.955 321.655 451.64C320.423 451.563 317.813 451.291 316.068 448.598C314.643 446.4 314.661 443.54 314.472 442.43C312.124 428.925 309.323 415.536 306.484 402.165C305.819 399.02 305.172 395.913 304.507 392.768C303.503 387.985 302.499 383.202 301.36 378.526C300.93 376.792 300.482 375.019 300.467 373.186C300.439 372.325 300.588 369.449 301.819 368.423C303.376 367.108 305.782 369.636 311.095 374.185C314.954 377.471 311.268 374.06 324.771 385.009C328.525 388.068 330.111 389.316 331.438 390.5C333.876 392.599 336.314 394.698 338.715 396.815C341.917 399.575 345.063 402.314 348.266 405.074C349.592 406.257 350.957 407.424 352.027 409.048C353.041 410.652 353.829 412.866 353.666 415.012ZM363.626 387.056C362.589 394.205 361.422 399.067 358.644 402.829C357.764 404.017 355.869 406.499 353.408 406.25C351.376 406.035 350.004 403.952 349.295 403.311C341.072 395.638 332.606 388.537 324.119 381.491C322.115 379.836 320.149 378.164 318.146 376.509C315.142 373.98 312.1 371.469 309.035 369.106C307.903 368.246 306.716 367.366 305.786 366.046C305.358 365.415 304.029 363.127 304.338 361.098C304.721 358.53 307.583 357.949 313.371 355.93C317.571 354.458 313.418 355.633 327.87 350.042C331.886 348.47 333.571 347.833 335.046 347.339C337.713 346.434 340.379 345.529 343.046 344.624C346.545 343.429 350.005 342.251 353.504 341.055C354.979 340.561 356.454 340.066 357.984 340.19C359.513 340.315 361.112 341.19 362.065 342.96C362.965 344.616 363.225 346.383 363.309 347.265C365.804 371.79 363.626 387.056 363.626 387.056Z" fill="#FFFAD7"/>
<path d="M362.085 342.906C361.132 341.136 359.534 340.261 358.004 340.137C356.474 340.012 355 340.507 353.525 341.001C350.026 342.197 346.565 343.375 343.066 344.571C340.4 345.475 337.733 346.38 335.067 347.285C333.592 347.779 331.924 348.455 327.89 349.988C313.439 355.579 317.629 354.387 313.391 355.877C307.62 357.934 304.741 358.476 304.359 361.045C304.05 363.073 305.378 365.361 305.806 365.992C306.736 367.313 307.906 368.155 309.055 369.052C312.12 371.415 315.162 373.926 318.166 376.455C320.17 378.11 322.135 379.782 324.139 381.437C332.588 388.501 341.092 395.585 349.316 403.258C349.986 403.915 351.397 405.981 353.428 406.197C355.889 406.445 357.784 403.963 358.664 402.776C361.404 399.031 362.61 394.151 363.646 387.003C363.646 387.003 365.842 371.775 363.35 347.156C363.246 346.329 362.985 344.563 362.085 342.906Z" fill="#F8F270"/>
<path d="M348.192 405.016C344.99 402.256 341.843 399.517 338.641 396.757C336.203 394.658 333.765 392.559 331.365 390.442C330.055 389.296 328.451 388.01 324.698 384.952C311.194 374.002 314.88 377.414 311.022 374.128C305.726 369.617 303.303 367.051 301.745 368.365C300.515 369.391 300.383 372.305 300.394 373.128C300.447 374.944 300.894 376.717 301.286 378.469C302.404 383.199 303.447 387.965 304.434 392.71C305.098 395.855 305.746 398.962 306.41 402.107C309.249 415.479 312.033 428.829 314.399 442.372C314.587 443.482 314.607 446.325 315.994 448.54C317.684 451.213 320.349 451.505 321.581 451.583C325.498 451.897 328.727 449.814 333.037 446.082C333.037 446.082 342.161 438.111 352.411 419.086C352.788 418.407 353.453 416.951 353.592 414.954C353.738 412.771 353.005 410.577 351.918 408.915C350.922 407.349 349.557 406.182 348.192 405.016Z" fill="#F8F270"/>
<path d="M301.065 383.586C299.338 375.132 298.8 370.962 296.97 370.286C295.567 369.735 293.994 371.517 293.62 372.103C292.775 373.366 292.197 375.012 291.696 376.623C290.228 380.933 288.632 385.165 287.019 389.358C285.955 392.147 284.93 394.92 283.85 397.671C279.351 409.495 274.891 421.301 269.993 432.757C269.606 433.717 268.179 435.616 268.179 438.515C268.157 442.068 269.972 444.913 270.809 446.231C273.554 450.397 277.025 452.343 282.033 454.226C282.033 454.226 292.771 458.166 309.753 455.874C310.355 455.781 311.561 455.502 312.666 454.304C313.867 453.015 314.351 450.768 314.386 448.543C314.401 446.374 313.986 444.172 313.55 442.026C312.555 436.963 311.543 431.861 310.509 426.815C309.737 422.938 308.966 419.06 308.194 415.182C307.776 413.074 307.239 410.606 305.915 404.728C301.269 383.63 302.345 389.668 301.065 383.586Z" fill="#F8F270"/>
<path d="M274.47 418.689C275.814 415.31 277.141 411.893 278.485 408.514C279.199 406.666 280.037 404.487 281.929 399.199C288.845 380.328 286.64 385.437 288.722 380.062C291.563 372.636 293.243 369.286 292.233 366.99C291.45 365.188 289.441 364.824 288.826 364.785C287.573 364.763 286.358 365.322 285.163 365.826C281.939 367.217 278.665 368.402 275.408 369.624C273.25 370.433 271.112 371.186 268.953 371.995C259.774 375.344 250.65 378.714 241.342 381.386C240.568 381.604 238.61 381.447 237.145 383.363C235.367 385.699 235.319 389.494 235.337 391.234C235.324 396.807 236.962 401.667 239.748 408.023C239.748 408.023 245.76 421.591 259.556 437.375C260.043 437.933 261.075 438.977 262.505 439.285C264.028 439.596 265.518 438.635 266.595 437.173C267.671 435.712 268.423 433.847 269.158 431.945C270.985 427.515 272.736 423.121 274.47 418.689Z" fill="#F8F270"/>
<path d="M236.588 380.352C238.117 380.477 239.592 379.982 241.067 379.488C244.566 378.292 248.027 377.114 251.526 375.918C254.192 375.014 256.859 374.109 259.525 373.204C261 372.71 262.668 372.035 266.701 370.501C281.153 364.91 276.962 366.102 281.2 364.613C286.971 362.556 289.85 362.013 290.233 359.444C290.542 357.416 289.214 355.128 288.785 354.497C287.856 353.177 286.686 352.334 285.537 351.437C282.471 349.074 279.429 346.563 276.426 344.034C274.422 342.379 272.456 340.707 270.453 339.052C262.004 331.989 253.499 324.905 245.276 317.231C244.605 316.574 243.195 314.508 241.163 314.293C238.703 314.044 236.808 316.526 235.928 317.714C233.188 321.459 231.982 326.338 230.946 333.487C230.946 333.487 228.749 348.714 231.242 373.334C231.326 374.215 231.586 375.982 232.486 377.638C233.459 379.353 235.058 380.228 236.588 380.352Z" fill="#F8F270"/>
<path d="M245.445 315.496C248.647 318.256 251.794 320.995 254.996 323.755C257.434 325.854 259.872 327.953 262.272 330.07C263.582 331.216 265.186 332.502 268.939 335.56C282.443 346.51 278.757 343.098 282.615 346.384C287.911 350.895 290.334 353.462 291.892 352.147C293.122 351.121 293.254 348.207 293.243 347.384C293.19 345.568 292.743 343.796 292.351 342.043C291.232 337.313 290.19 332.547 289.203 327.802C288.539 324.657 287.891 321.55 287.227 318.405C284.388 305.034 281.604 291.683 279.238 278.14C279.05 277.03 279.03 274.187 277.643 271.972C275.953 269.299 273.288 269.007 272.056 268.929C268.139 268.615 264.91 270.699 260.6 274.43C260.6 274.43 251.476 282.401 241.226 301.426C240.849 302.105 240.184 303.561 240.045 305.558C239.899 307.742 240.632 309.935 241.719 311.597C242.771 313.184 244.136 314.35 245.445 315.496Z" fill="#F8F270"/>
<path d="M319.581 302.323C318.236 305.702 316.91 309.119 315.566 312.498C314.851 314.345 314.014 316.524 312.121 321.812C305.206 340.683 307.41 335.574 305.328 340.949C302.487 348.376 300.808 351.725 301.818 354.021C302.601 355.823 304.609 356.187 305.225 356.226C306.477 356.248 307.693 355.689 308.887 355.185C312.112 353.794 315.386 352.61 318.643 351.387C320.801 350.578 322.939 349.825 325.097 349.016C334.277 345.667 343.401 342.297 352.708 339.626C353.482 339.408 355.441 339.565 356.906 337.648C358.684 335.312 358.732 331.517 358.714 329.777C358.726 324.204 357.089 319.344 354.302 312.988C354.302 312.988 348.29 299.42 334.495 283.636C334.008 283.078 332.976 282.034 331.546 281.726C330.022 281.415 328.532 282.377 327.456 283.838C326.38 285.299 325.627 287.164 324.892 289.066C323.086 293.44 321.314 297.89 319.581 302.323Z" fill="#F8F270"/>
<g opacity="0.59">
<g opacity="0.59">
<g opacity="0.59">
<path opacity="0.59" d="M333.019 337.136C333.057 337.118 333.133 337.083 333.171 337.066C333.115 337.046 333.039 337.08 333.019 337.136Z" fill="#F9EC48"/>
</g>
<g opacity="0.59">
<g opacity="0.59">
<path opacity="0.59" d="M354.245 312.968C354.245 312.968 352.239 308.508 347.97 301.73C350.139 306.944 353.146 311.68 353.892 317.502C354.071 318.892 354.037 320.518 353.534 321.623C353.837 322.082 354.082 322.614 354.364 323.128C354.748 323.963 354.61 324.763 354.221 325.218C354.332 325.259 354.443 325.3 354.554 325.341C355.917 326.002 356.717 327.843 356.093 329.786C354.552 334.636 350.217 329.315 347.768 329.291C346.412 330.145 344.902 330.564 343.352 330.495C343.236 330.042 343.082 329.607 342.965 329.154C339.217 328.808 336.485 333.47 334.002 337.373C333.785 337.703 333.493 338.067 333.178 337.982C332.918 337.918 332.843 337.354 332.98 337.153C328.596 339.124 324.267 341.116 319.883 343.087C321.187 343.223 322.453 343.975 323.497 345.243C321.532 345.871 319.549 346.461 317.583 347.089C313.635 348.308 309.59 349.617 306.36 352.897C304.6 354.673 303.499 355.18 302.008 354.439C302.897 355.871 304.663 356.209 305.168 356.206C306.42 356.228 307.635 355.669 308.83 355.166C312.054 353.774 315.329 352.59 318.585 351.368C320.744 350.559 322.881 349.805 325.04 348.996C334.219 345.647 343.344 342.277 352.651 339.606C353.425 339.388 355.384 339.545 356.848 337.628C358.626 335.292 358.675 331.497 358.656 329.757C358.707 324.167 357.087 319.345 354.245 312.968ZM333.72 343.76C331.682 346.032 328.881 344.744 326.568 345.717C326.019 345.923 325.616 345.648 325.351 345.172C324.421 344.45 324.21 342.292 325.475 341.94C325.965 341.807 326.473 341.711 326.964 341.577C328.964 341.025 330.95 340.341 333.061 340.429C334.331 340.489 334.594 342.76 333.72 343.76ZM344.654 337.625C342.849 338.502 340.838 338.231 338.975 338.582C337.997 338.756 336.939 337.356 337.527 335.935C338.359 333.942 339.559 333.85 340.939 333.951C341.433 333.724 341.947 333.442 342.458 333.252C343.463 332.836 345.044 331.971 346.073 333.108C347.589 334.803 345.814 337.046 344.654 337.625Z" fill="#F5E642"/>
</g>
</g>
</g>
</g>
<path d="M360.78 392.874C360.779 391.77 361.319 391.245 361.9 391.208C361.953 390.723 361.969 390.256 362.022 389.772C362.263 388.096 362.884 386.845 363.758 385.844C364.153 382.304 365.092 371.243 363.938 354.934C363.575 358.644 362.972 362.234 362.092 365.722C361.64 367.54 361.153 369.282 360.83 371.18C360.206 374.825 360.339 378.813 359.202 382.143C358.789 383.345 358.192 384.448 357.351 385.019C357.216 385.127 357.026 385.214 356.874 385.284C357.673 386.619 357.892 388.497 356.986 389.926C355.804 391.758 353.607 390.883 352.136 390.087C350.555 389.25 348.814 388.165 347.54 386.496C347.522 386.458 347.505 386.42 347.505 386.42C345.657 386.304 343.795 386.057 341.977 385.605C342.279 386.662 342.713 387.705 343.149 388.654C339.802 387.479 336.57 385.654 333.375 383.811C327.739 380.561 322.065 377.328 316.428 374.078C315.18 373.364 314.025 372.653 312.863 372.129C314.648 373.608 316.433 375.088 318.218 376.567L324.191 381.549C332.64 388.612 341.144 395.696 349.367 403.369C350.038 404.027 351.449 406.093 353.48 406.308C355.941 406.557 357.836 404.075 358.716 402.887C360.105 401.006 361.112 398.794 361.888 396.183C360.958 395.46 360.79 394.295 360.78 392.874ZM345.389 393.421C345.271 394.166 344.707 394.839 344.094 394.707C343.842 394.961 343.521 395.063 343.116 394.881C341.306 394.149 339.691 392.638 338.333 390.686C337.386 389.327 338.273 387.355 339.457 387.73C341.328 388.296 342.707 390.192 344.451 391.184C345.093 391.579 345.533 392.435 345.389 393.421ZM355.625 399.57C355.674 400.376 355.241 401.035 354.747 401.262C352.431 402.328 348.776 399.685 348.62 395.845C348.595 394.891 349.183 394.068 349.837 394.089C349.875 394.072 349.892 394.11 349.93 394.092C350.278 393.748 350.801 393.784 351.203 394.059C352.064 394.629 353.027 394.922 353.846 395.604C354.902 396.498 355.569 397.848 355.625 399.57Z" fill="#F5E642"/>
<path d="M351.972 409.03C351.686 408.609 351.401 408.188 351.095 407.823C350.996 409.709 350.897 411.595 350.837 413.463C350.769 414.415 350.715 415.498 350.191 416.06C349.765 416.533 349.111 416.512 348.754 417.136C348.435 417.743 348.536 418.662 348.529 419.448C348.52 422.028 346.906 423.921 345.267 424.859C344.619 425.25 343.88 425.544 343.424 426.352C343.087 426.921 342.952 427.627 342.706 428.292C341.798 430.919 339.51 432.247 337.482 431.34C337.628 433.757 336.75 436.048 335.539 437.617C334.329 439.186 332.783 440.127 331.238 441.068C330.779 441.371 330.265 441.654 329.745 441.525C329.226 441.396 328.725 440.706 328.842 439.962C328.673 439.994 328.504 440.026 328.334 440.058C328.736 440.931 329.021 441.95 329.119 442.963C329.156 443.544 328.872 444.227 328.527 444.478C328.451 444.513 328.393 444.586 328.317 444.62C328.267 445.012 328.085 445.417 327.796 445.688C326.697 446.7 325.279 446.018 324.484 444.59C324.219 444.113 323.992 443.62 323.841 443.091C323.803 443.109 323.782 443.164 323.744 443.182C323.901 444.122 324.002 445.041 323.875 446.066C323.792 446.886 323.199 447.297 322.711 447.337C321.83 447.421 320.978 446.57 320.437 445.393C319.908 445.545 319.4 445.64 318.843 445.529C315.641 445.069 314.57 441.743 313.672 438.291C313.907 439.701 314.18 441.094 314.415 442.505C314.603 443.614 314.623 446.458 316.01 448.672C317.7 451.346 320.365 451.638 321.597 451.715C325.514 452.029 328.743 449.946 333.053 446.214C333.053 446.214 342.177 438.244 352.427 419.219C352.804 418.539 353.469 417.083 353.608 415.087C353.83 412.868 353.041 410.654 351.972 409.03Z" fill="#F5E642"/>
<path d="M314.403 448.582C314.417 446.413 314.003 444.211 313.567 442.065C313.437 441.481 313.361 440.918 313.231 440.334C313.144 442.444 312.884 444.68 312.553 445.661C311.806 447.937 310.058 449.339 308.289 449.693C306.519 450.047 304.666 449.519 302.933 448.752C302.25 448.468 301.532 448.108 300.869 448.367C300.282 448.591 299.794 449.23 299.326 449.813C297.94 451.601 296.003 453.091 294.244 451.968C293.657 451.593 293.136 450.959 292.502 450.882C291.422 450.735 290.702 452.171 289.782 452.87C288.689 453.695 287.332 453.445 286.082 453.33C284.328 453.217 282.561 453.477 280.815 453.683C281.221 453.864 281.665 454.028 282.091 454.154C282.091 454.154 292.829 458.094 309.811 455.802C310.413 455.709 311.619 455.431 312.724 454.232C313.866 453.016 314.389 450.751 314.403 448.582Z" fill="#F5E642"/>
<path d="M282.589 394.43C280.29 398.433 278.168 402.722 276.321 407.207C275.873 408.333 275.366 409.532 274.65 410.276C273.913 411.075 272.839 411.339 272.022 410.565C270.921 413.372 269.802 416.141 268.701 418.948C269.075 418.96 269.431 418.934 269.805 418.946C270.092 420.471 269.317 421.886 268.661 423.061C267.374 425.264 266.154 427.712 265.984 430.643C265.933 431.632 265.99 432.756 265.464 433.413C265.209 433.76 264.85 433.879 264.529 433.981C262.885 434.507 261.212 434.771 259.489 434.827C259.977 434.188 260.052 433.05 259.705 432.197C259.321 431.362 258.51 430.999 257.955 431.392C257.648 431.625 257.373 432.028 257.02 431.96C256.76 431.896 256.565 431.571 256.37 431.247C254.709 428.238 252.35 426.011 249.861 424.901C252.543 428.729 255.772 432.948 259.632 437.338C260.119 437.896 261.151 438.94 262.581 439.248C264.105 439.559 265.595 438.597 266.671 437.136C267.747 435.675 268.5 433.81 269.235 431.908C270.968 427.475 272.74 423.025 274.473 418.593C275.818 415.214 277.144 411.797 278.488 408.418C279.203 406.571 280.04 404.391 281.933 399.103C283.432 394.963 284.502 391.986 285.301 389.824C284.336 391.326 283.461 392.925 282.589 394.43Z" fill="#F5E642"/>
<path d="M288.822 359.08C287.96 359.706 281.678 361.952 277.266 363.062C275.523 365.475 273.098 367.004 270.608 366.493C269.698 366.314 268.972 365.037 269.461 363.8C270.073 362.23 270.962 361.361 271.993 360.703C271.471 360.667 270.945 360.725 270.489 360.935C268.252 361.872 266.928 365.196 264.842 366.661C263.387 367.699 261.647 367.717 259.945 367.718L253.922 367.728C252.577 367.703 251.21 367.734 249.871 367.522C250.38 369.128 249.72 370.996 248.738 371.862C247.757 372.728 246.519 372.837 245.319 372.929C246.161 374.06 247.299 374.733 248.455 374.845C246.001 376.112 243.395 377.449 240.766 376.634C238.136 375.819 235.659 372.036 236.321 368.373L233.81 368.516C233.524 365.795 232.196 363.507 231.168 361.173C230.819 360.414 230.545 359.619 230.254 358.787C230.43 363.169 230.739 368.042 231.296 373.353C231.38 374.235 231.641 376.001 232.541 377.658C233.493 379.428 235.092 380.303 236.621 380.427C238.151 380.552 239.626 380.057 241.101 379.563C244.6 378.367 248.061 377.189 251.559 375.993C254.226 375.089 256.892 374.184 259.559 373.279C261.034 372.785 262.702 372.109 266.735 370.576C281.187 364.985 276.996 366.177 281.234 364.687C287.005 362.63 289.884 362.088 290.267 359.519C290.341 358.979 290.321 358.436 290.208 357.89C289.708 358.304 289.264 358.739 288.822 359.08Z" fill="#F5E642"/>
<path d="M292.354 341.951C291.236 337.22 290.194 332.454 289.207 327.709C288.542 324.564 287.895 321.457 287.23 318.312C285.855 311.721 284.458 305.186 283.138 298.616C283.069 300.166 282.979 301.772 282.91 303.322C282.844 304.778 282.389 306.69 281.406 306.452C281.184 309.269 281.685 312.259 282.841 314.672C283.093 313.82 283.366 312.912 283.618 312.06C283.834 314.629 284.899 316.946 285.778 319.256C287.882 324.73 289.2 330.795 289.619 336.905C289.056 336.981 288.425 336.811 287.912 336.495C288.383 338.118 288.644 339.885 288.738 341.59C288.758 342.133 288.736 342.787 288.447 343.058C288.158 343.329 287.808 343.168 287.457 343.007C285.12 341.828 282.783 340.649 280.446 339.469C281.271 340.562 281.883 341.891 282.246 343.38C279.585 342.396 276.912 341.187 274.301 339.812C281.519 345.601 279.452 343.608 282.692 346.35C287.988 350.861 290.411 353.427 291.969 352.112C293.199 351.086 293.331 348.173 293.32 347.35C293.194 345.475 292.746 343.703 292.354 341.951Z" fill="#F5E642"/>
<path d="M259.878 385.371C259.764 385.424 259.671 385.421 259.557 385.473C259.481 385.508 259.513 385.678 259.589 385.643C259.703 385.59 259.817 385.538 259.893 385.503C259.986 385.506 259.934 385.392 259.878 385.371Z" fill="#FFF9AB"/>
<path d="M315.451 329.347C312.032 329.815 310.083 337.981 307.937 343.018C304.692 349.664 318.75 334.316 315.451 329.347Z" fill="#F6D938"/>
<path d="M315.449 324.745C315.96 322.854 317.977 320.04 321.54 311.683C317.803 309.859 314.151 319.223 315.449 324.745Z" fill="#F6D938"/>
<path d="M326.739 309.981C326.21 310.132 318.165 324.646 322.134 320.474C324.018 320.067 332.766 306.38 326.739 309.981Z" fill="#F6D938"/>
<path d="M322.322 309.482C326.236 307.589 326.927 301.29 329.243 295.623C338.594 278.945 321.018 291.447 322.322 309.482Z" fill="#F6D938"/>
<path d="M331.402 297.116C328.998 303.191 337.783 292.984 332.777 294.504C331.953 295.712 332.219 294.991 331.402 297.116Z" fill="#F6D938"/>
<path d="M294.739 290.931C292.199 286.808 290.521 305.663 292.072 309.136C293.319 304.145 296.743 297.186 294.739 290.931Z" fill="#F6D938"/>
<path d="M288.865 299.063C290.691 295.831 288.236 286.194 286.889 279.866C281.61 277.694 288.39 294.129 288.865 299.063Z" fill="#F6D938"/>
<path d="M290.285 280.65C289.811 279.119 290.795 276.458 289.999 268.727C284.702 264.814 287.085 278.993 290.285 280.65Z" fill="#F6D938"/>
<path d="M293.619 328.9C297.675 333.614 294.637 320.012 291.767 315.673C291.517 319.331 293.074 323.215 293.619 328.9Z" fill="#F6D938"/>
<path d="M267.463 325.152C256.665 317.283 259.896 327.805 271.975 331.358C274.675 334.026 273.617 329.728 267.463 325.152Z" fill="#F6D938"/>
<path d="M267.263 320.917C268.146 320.235 266.694 318.879 265.263 316.27C251.749 297.596 260.215 319.099 267.263 320.917Z" fill="#F6D938"/>
<path d="M257.458 317.607C254.977 312.814 253.18 311.11 248.137 305.148C242.828 309.109 253.226 317.208 257.458 317.607Z" fill="#F6D938"/>
<path d="M253.91 306.495C254.688 307.287 252.349 300.403 249.796 299.553C247.744 301.694 251.542 306.25 253.91 306.495Z" fill="#F6D938"/>
<path d="M266.224 304.556C266.013 302.997 263.153 299.481 261.788 296.014C256.896 295.182 262.885 304.298 266.224 304.556Z" fill="#F6D938"/>
<path d="M249.37 361.127C259.367 362.555 254.574 354.638 244.977 358.179C244.972 360.068 247.015 360.508 249.37 361.127Z" fill="#F6D938"/>
<path d="M238.418 363.129C239.535 366.756 248.375 368.67 248.319 364.647C245.856 366.194 238.042 355.71 238.418 363.129Z" fill="#F6D938"/>
<path d="M235.168 354.963C238.467 355.332 243.293 354.722 237.14 351.249C235.343 350.144 232.182 352.472 235.168 354.963Z" fill="#F6D938"/>
<path d="M259.617 380.202C257.278 383.119 255.014 384.299 250.956 383.681C235.27 381.787 251.104 399.302 259.617 380.202Z" fill="#F6D938"/>
<path d="M250.683 392.685C248.13 393.537 240.591 390.15 240.666 398.214C241.531 402.095 249.343 395.372 250.683 392.685Z" fill="#F6D938"/>
<path d="M268.723 379.692C266.933 381.803 260.44 384.791 259.733 390.453C262.564 390.807 268.747 386.444 268.723 379.692Z" fill="#F6D938"/>
<path d="M276.059 376.04C274.988 375.612 270.354 381.241 274.348 380.922C274.312 379.742 277.383 377.317 276.059 376.04Z" fill="#F6D938"/>
<path d="M287.449 398.593C287.728 396.9 283.504 403.721 283.362 410.412C286.972 413.858 286.963 402.037 287.449 398.593Z" fill="#F6D938"/>
<path d="M281.376 417.399C268.841 433.656 277.049 446.996 278.21 430.818C277.953 428.958 283.931 419.352 281.376 417.399Z" fill="#F6D938"/>
<path d="M282.143 427.765C280.178 430.694 278.826 440.656 280.63 445.577C284.996 448.767 282.667 429.503 282.143 427.765Z" fill="#F6D938"/>
<path d="M288.038 408.075C287.996 411.085 286.585 416.519 287.704 420.651C287.17 418.09 292.895 405.932 288.038 408.075Z" fill="#F6D938"/>
<path d="M308.832 392.067C309.994 396.594 309.28 405.342 311.862 411.055C318.649 411.706 309.914 397.919 308.832 392.067Z" fill="#F6D938"/>
<path d="M312.84 416.681C312.107 419.088 313.647 422.935 314.947 426.662C320.997 432.712 316.172 417.724 312.84 416.681Z" fill="#F6D938"/>
<path d="M315.685 430.967C314.371 431.71 316.085 438.835 317.29 433.955C316.903 433.213 317.758 433.97 315.685 430.967Z" fill="#F6D938"/>
<path d="M318.314 405.878C315.922 402.378 318.307 421.663 323.209 421.616C323.843 416.494 319.089 412.561 318.314 405.878Z" fill="#F6D938"/>
<path d="M327.049 358.058C332.591 349.803 316.689 357.441 316.052 360.357C319.596 360.061 322.653 360.403 327.049 358.058Z" fill="#F6D938"/>
<path d="M335.086 360.524C332.73 360.504 326.072 359.933 325.161 364.354C326.603 361.988 340.834 367.818 335.086 360.524Z" fill="#F6D938"/>
<path d="M347.008 351.037C344.237 346.514 336.232 351.117 334.73 355.351C336.878 355.421 349.23 355.766 347.008 351.037Z" fill="#F6D938"/>
</g>
<g opacity="0.1" filter="url(#filter3_f_1648_13622)">
<ellipse cx="220.518" cy="484.021" rx="124.103" ry="11.6647" fill="#656565"/>
</g>
<defs>
<filter id="filter0_f_1648_13622" x="0.625" y="168.668" width="413.724" height="370.481" filterUnits="userSpaceOnUse" color-interpolation-filters="sRGB">
<feFlood flood-opacity="0" result="BackgroundImageFix"/>
<feBlend mode="normal" in="SourceGraphic" in2="BackgroundImageFix" result="shape"/>
<feGaussianBlur stdDeviation="25" result="effect1_foregroundBlur_1648_13622"/>
</filter>
<filter id="filter1_i_1648_13622" x="149.168" y="254.157" width="209.195" height="234.811" filterUnits="userSpaceOnUse" color-interpolation-filters="sRGB">
<feFlood flood-opacity="0" result="BackgroundImageFix"/>
<feBlend mode="normal" in="SourceGraphic" in2="BackgroundImageFix" result="shape"/>
<feColorMatrix in="SourceAlpha" type="matrix" values="0 0 0 0 0 0 0 0 0 0 0 0 0 0 0 0 0 0 127 0" result="hardAlpha"/>
<feOffset dx="9.85651" dy="20.9451"/>
<feGaussianBlur stdDeviation="12.9367"/>
<feComposite in2="hardAlpha" operator="arithmetic" k2="-1" k3="1"/>
<feColorMatrix type="matrix" values="0 0 0 0 1 0 0 0 0 0.725391 0 0 0 0 0.229167 0 0 0 1 0"/>
<feBlend mode="normal" in2="shape" result="effect1_innerShadow_1648_13622"/>
</filter>
<filter id="filter2_i_1648_13622" x="139.328" y="356.004" width="164.367" height="112.623" filterUnits="userSpaceOnUse" color-interpolation-filters="sRGB">
<feFlood flood-opacity="0" result="BackgroundImageFix"/>
<feBlend mode="normal" in="SourceGraphic" in2="BackgroundImageFix" result="shape"/>
<feColorMatrix in="SourceAlpha" type="matrix" values="0 0 0 0 0 0 0 0 0 0 0 0 0 0 0 0 0 0 127 0" result="hardAlpha"/>
<feOffset dx="-9.85651" dy="-1.23206"/>
<feGaussianBlur stdDeviation="12.3206"/>
<feComposite in2="hardAlpha" operator="arithmetic" k2="-1" k3="1"/>
<feColorMatrix type="matrix" values="0 0 0 0 1 0 0 0 0 1 0 0 0 0 1 0 0 0 0.25 0"/>
<feBlend mode="normal" in2="shape" result="effect1_innerShadow_1648_13622"/>
</filter>
<filter id="filter3_f_1648_13622" x="84.415" y="460.356" width="272.205" height="47.3291" filterUnits="userSpaceOnUse" color-interpolation-filters="sRGB">
<feFlood flood-opacity="0" result="BackgroundImageFix"/>
<feBlend mode="normal" in="SourceGraphic" in2="BackgroundImageFix" result="shape"/>
<feGaussianBlur stdDeviation="6" result="effect1_foregroundBlur_1648_13622"/>
</filter>
<linearGradient id="paint0_linear_1648_13622" x1="207.487" y1="218.668" x2="207.487" y2="479.92" gradientUnits="userSpaceOnUse">
<stop stop-color="#FFBE07"/>
<stop offset="1" stop-color="#FED45D" stop-opacity="0"/>
</linearGradient>
<linearGradient id="paint1_linear_1648_13622" x1="172.366" y1="80.7764" x2="172.366" y2="227.487" gradientUnits="userSpaceOnUse">
<stop stop-color="#D6D6D6"/>
<stop offset="1" stop-color="#979797" stop-opacity="0"/>
</linearGradient>
<clipPath id="clip0_1648_13622">
<rect width="225" height="214" fill="white" transform="translate(148.996 255)"/>
</clipPath>
</defs>
</svg>
