<svg width="14" height="14" viewBox="0 0 14 14" fill="none" xmlns="http://www.w3.org/2000/svg">
<g clip-path="url(#clip0_79_246)">
<path d="M12.6064 0.192383H1.1462C0.597229 0.192383 0.15332 0.625784 0.15332 1.16163V12.6691C0.15332 13.2049 0.597229 13.641 1.1462 13.641H12.6064C13.1554 13.641 13.6019 13.2049 13.6019 12.6717V1.16163C13.6019 0.625784 13.1554 0.192383 12.6064 0.192383ZM4.14324 11.6526H2.14697V5.23297H4.14324V11.6526ZM3.1451 4.35829C2.5042 4.35829 1.98674 3.84084 1.98674 3.20255C1.98674 2.56427 2.5042 2.04682 3.1451 2.04682C3.78339 2.04682 4.30084 2.56427 4.30084 3.20255C4.30084 3.83821 3.78339 4.35829 3.1451 4.35829ZM11.6135 11.6526H9.61986V8.53208C9.61986 7.78873 9.60673 6.82999 8.58232 6.82999C7.54479 6.82999 7.38719 7.64164 7.38719 8.47955V11.6526H5.39617V5.23297H7.30839V6.11028H7.33465C7.59995 5.60596 8.25136 5.07275 9.22061 5.07275C11.2405 5.07275 11.6135 6.40185 11.6135 8.1302V11.6526V11.6526Z" fill="#E75553"/>
</g>
<defs>
<clipPath id="clip0_79_246">
<rect width="13.4486" height="13.4486" fill="white" transform="translate(0.15332 0.192383)"/>
</clipPath>
</defs>
</svg>
