<svg width="15" height="12" viewBox="0 0 15 12" fill="none" xmlns="http://www.w3.org/2000/svg">
<path d="M14.683 1.94103C14.1611 2.15546 13.6001 2.29987 13.0114 2.36497C13.6125 2.03184 14.0742 1.50397 14.2911 0.874904C13.729 1.18342 13.1059 1.4077 12.4427 1.52859C11.9125 1.00509 11.1553 0.677979 10.3183 0.677979C8.4392 0.677979 7.05839 2.30042 7.4828 3.98468C5.06461 3.87254 2.92009 2.80039 1.48431 1.17084C0.721791 2.38138 1.08886 3.96499 2.38456 4.76691C1.90813 4.75269 1.45889 4.6318 1.06699 4.42995C1.03507 5.67769 2.00152 6.84501 3.40125 7.10485C2.99162 7.20768 2.54297 7.23175 2.08664 7.1508C2.45667 8.22075 3.53129 8.99916 4.8057 9.02104C3.58213 9.90884 2.04054 10.3054 0.496582 10.1369C1.78459 10.9011 3.31495 11.3469 4.95821 11.3469C10.362 11.3469 13.4151 7.12344 13.2307 3.33537C13.7993 2.9552 14.2929 2.48094 14.683 1.94103V1.94103Z" fill="#E75553"/>
</svg>
