<svg width="15" height="14" viewBox="0 0 15 14" fill="none" xmlns="http://www.w3.org/2000/svg">
<path d="M7.51851 1.80819C9.27115 1.80819 9.47901 1.81476 10.1715 1.84648C11.9504 1.92744 12.7813 2.77148 12.8623 4.53724C12.894 5.22922 12.9 5.43708 12.9 7.18971C12.9 8.94289 12.8935 9.15021 12.8623 9.84219C12.7808 11.6063 11.9521 12.452 10.1715 12.5329C9.47901 12.5647 9.27224 12.5712 7.51851 12.5712C5.76588 12.5712 5.55802 12.5647 4.86604 12.5329C3.08278 12.4514 2.25624 11.6036 2.17528 9.84164C2.14355 9.14967 2.13699 8.94235 2.13699 7.18917C2.13699 5.43653 2.1441 5.22922 2.17528 4.5367C2.25679 2.77148 3.08551 1.92689 4.86604 1.84594C5.55856 1.81476 5.76588 1.80819 7.51851 1.80819V1.80819ZM7.51851 0.625C5.73579 0.625 5.51261 0.632658 4.81243 0.664385C2.42855 0.773788 1.10368 2.09647 0.994278 4.48254C0.962004 5.18327 0.954346 5.40645 0.954346 7.18917C0.954346 8.97189 0.962004 9.19561 0.993731 9.89579C1.10313 12.2797 2.42581 13.6045 4.81189 13.7139C5.51261 13.7457 5.73579 13.7533 7.51851 13.7533C9.30123 13.7533 9.52496 13.7457 10.2251 13.7139C12.6068 13.6045 13.935 12.2819 14.0427 9.89579C14.075 9.19561 14.0827 8.97189 14.0827 7.18917C14.0827 5.40645 14.075 5.18327 14.0433 4.48309C13.9361 2.10139 12.6118 0.774335 10.2257 0.664932C9.52496 0.632658 9.30123 0.625 7.51851 0.625V0.625ZM7.51851 3.81847C5.65702 3.81847 4.14781 5.32768 4.14781 7.18917C4.14781 9.05066 5.65702 10.5604 7.51851 10.5604C9.38 10.5604 10.8892 9.0512 10.8892 7.18917C10.8892 5.32768 9.38 3.81847 7.51851 3.81847ZM7.51851 9.37722C6.31016 9.37722 5.33046 8.39807 5.33046 7.18917C5.33046 5.98081 6.31016 5.00111 7.51851 5.00111C8.72687 5.00111 9.70657 5.98081 9.70657 7.18917C9.70657 8.39807 8.72687 9.37722 7.51851 9.37722ZM11.0227 2.89784C10.5873 2.89784 10.2344 3.25067 10.2344 3.68554C10.2344 4.12042 10.5873 4.47324 11.0227 4.47324C11.4576 4.47324 11.8098 4.12042 11.8098 3.68554C11.8098 3.25067 11.4576 2.89784 11.0227 2.89784Z" fill="#E75553"/>
</svg>
