
<svg width="398" height="292" viewBox="0 0 398 292" fill="none" xmlns="http://www.w3.org/2000/svg">
<g clip-path="url(#clip0_92_1183)">
<path d="M366.67 236.95V111.27H240.99C240.99 180.69 297.26 236.95 366.67 236.95Z" fill="#7CC8C2"/>
<path d="M23.4399 291.91C23.4399 188.08 103.28 103.92 201.78 103.92C300.28 103.92 380.11 188.08 380.11 291.91" fill="#61ADE0"/>
<path d="M174.49 291.91C174.49 251.86 206.96 219.39 247.01 219.39C287.06 219.39 319.53 251.86 319.53 291.91" fill="#7CC8C2"/>
<path d="M141.43 292C161.141 292 177.12 276.021 177.12 256.31C177.12 236.599 161.141 220.62 141.43 220.62C121.719 220.62 105.74 236.599 105.74 256.31C105.74 276.021 121.719 292 141.43 292Z" fill="#FFE4B6"/>
<path d="M158.35 149.79L146.9 160.36L161.74 164.98L158.35 149.79Z" fill="#1C96A0"/>
<path d="M34.43 246.94C40.8034 246.94 45.97 241.773 45.97 235.4C45.97 229.027 40.8034 223.86 34.43 223.86C28.0566 223.86 22.89 229.027 22.89 235.4C22.89 241.773 28.0566 246.94 34.43 246.94Z" fill="#173588"/>
<path d="M380.85 291.89C390.184 291.89 397.75 284.324 397.75 274.99C397.75 265.656 390.184 258.09 380.85 258.09C371.516 258.09 363.95 265.656 363.95 274.99C363.95 284.324 371.516 291.89 380.85 291.89Z" fill="#FED45D"/>
<path d="M279.46 285.74V259.8C279.46 258.4 280.36 256.55 281.46 255.69L290.17 248.86C291.27 247.99 291.27 246.59 290.17 245.72L281.46 238.88C280.36 238.01 279.46 236.17 279.46 234.77V209.99H318.96V234.77C318.96 236.17 318.06 238.01 316.96 238.88L308.25 245.72C307.15 246.59 307.15 247.99 308.25 248.86L316.96 255.69C318.06 256.56 318.96 258.4 318.96 259.8V285.74H279.46Z" fill="#FBFCFD"/>
<path d="M285.84 255.69L294.55 248.86C295.65 247.99 295.65 246.59 294.55 245.72L285.84 238.88C284.74 238.01 283.84 236.18 283.84 234.77V209.99H279.46V234.77C279.46 236.17 280.36 238.01 281.46 238.88L290.17 245.72C291.27 246.59 291.27 247.99 290.17 248.86L281.46 255.69C280.36 256.56 279.46 258.4 279.46 259.8V285.74H283.84V259.8C283.84 258.39 284.74 256.55 285.84 255.69Z" fill="#FBFCFD"/>
<g opacity="0.39">
<path d="M316.96 238.87C318.06 238 318.96 236.17 318.96 234.76V209.98H313.7V234.76C313.7 236.16 312.8 238 311.7 238.87L302.99 245.71C301.89 246.58 301.89 247.98 302.99 248.85L311.7 255.68C312.8 256.55 313.7 258.39 313.7 259.79V285.73H318.96V259.8C318.96 258.4 318.06 256.55 316.96 255.69L308.25 248.86C307.15 247.99 307.15 246.59 308.25 245.72L316.96 238.87Z" fill="#F9FAFC"/>
</g>
<path d="M283.94 282.64H314.07V270.79C314.07 268.3 312.68 266.03 310.47 264.89L301.82 260.45C299.8 259.41 297.39 259.44 295.39 260.52L287.4 264.86C285.26 266.02 283.93 268.25 283.93 270.69V282.64H283.94Z" fill="#FEC55E" stroke="#060706" stroke-width="2" stroke-miterlimit="10" stroke-linecap="round" stroke-linejoin="round"/>
<g opacity="0.3">
<path d="M318.96 209.99H279.46V216.48H318.96V209.99Z" fill="#FBFCFD"/>
</g>
<path d="M320.85 212.91H277.27C276.98 212.91 276.75 212.68 276.75 212.39V204.47C276.75 204.18 276.98 203.95 277.27 203.95H320.85C321.14 203.95 321.37 204.18 321.37 204.47V212.39C321.37 212.68 321.14 212.91 320.85 212.91Z" fill="#E75553" stroke="#070707" stroke-width="2" stroke-miterlimit="10" stroke-linecap="round" stroke-linejoin="round"/>
<g opacity="0.3">
<path d="M318.96 279.76H279.46V285.75H318.96V279.76Z" fill="#FBFCFD"/>
</g>
<path d="M321 290.84H277.42C277.13 290.84 276.9 290.61 276.9 290.32V282.4C276.9 282.11 277.13 281.88 277.42 281.88H321C321.29 281.88 321.52 282.11 321.52 282.4V290.32C321.52 290.6 321.29 290.84 321 290.84Z" fill="#E75553" stroke="#070707" stroke-width="2" stroke-miterlimit="10" stroke-linecap="round" stroke-linejoin="round"/>
<path d="M299.79 254.85H297.07C296.8 254.85 296.59 254.63 296.59 254.37V249.65C296.59 249.38 296.81 249.17 297.07 249.17H299.79C300.06 249.17 300.27 249.39 300.27 249.65V254.37C300.27 254.63 300.05 254.85 299.79 254.85Z" fill="#FEC55E"/>
<path d="M298.79 231.62C292.95 231.62 287.69 229.17 283.94 225.26V231.14C283.94 233.72 285.34 236.1 287.59 237.37L295 241.52C295.98 242.07 296.59 243.11 296.59 244.23V246.01C296.59 247.03 297.41 247.85 298.43 247.85C299.45 247.85 300.27 247.03 300.27 246.01V244.3C300.27 243.13 300.92 242.07 301.96 241.53L310.2 237.3C312.58 236.08 314.08 233.62 314.08 230.95V224.76C310.31 228.97 304.87 231.62 298.79 231.62Z" fill="#FEC55E" stroke="#060706" stroke-width="2" stroke-miterlimit="10" stroke-linecap="round" stroke-linejoin="round"/>
<path d="M339.31 246.45H336.88C336.24 246.45 335.73 245.94 335.73 245.3C335.73 244.67 336.24 244.15 336.88 244.15H339.31C339.94 244.15 340.46 244.66 340.46 245.3C340.46 245.94 339.94 246.45 339.31 246.45Z" fill="white"/>
<path d="M340.66 254.58C340.56 254.58 340.46 254.57 340.36 254.54L335.67 253.28C335.06 253.12 334.69 252.49 334.86 251.87C335.03 251.26 335.66 250.89 336.27 251.06L340.96 252.32C341.57 252.48 341.94 253.11 341.77 253.73C341.63 254.24 341.17 254.58 340.66 254.58Z" fill="white"/>
<path d="M335.42 260.94C335.22 260.94 335.03 260.89 334.85 260.79L332.75 259.58C332.2 259.26 332.01 258.56 332.33 258.01C332.65 257.46 333.35 257.27 333.9 257.59L336 258.8C336.55 259.12 336.74 259.82 336.42 260.37C336.21 260.73 335.82 260.94 335.42 260.94Z" fill="white"/>
<path d="M332.54 268.65C332.25 268.65 331.95 268.54 331.73 268.31L328.3 264.88C327.85 264.43 327.85 263.7 328.3 263.26C328.75 262.81 329.48 262.81 329.92 263.26L333.35 266.69C333.8 267.14 333.8 267.87 333.35 268.31C333.13 268.54 332.83 268.65 332.54 268.65Z" fill="white"/>
<path d="M324.82 271.54C324.42 271.54 324.03 271.33 323.82 270.96L322.61 268.86C322.29 268.31 322.48 267.61 323.03 267.29C323.58 266.97 324.28 267.17 324.6 267.71L325.81 269.81C326.13 270.36 325.94 271.06 325.39 271.38C325.21 271.49 325.01 271.54 324.82 271.54Z" fill="white"/>
<path d="M323.6 223.47C323.4 223.47 323.21 223.42 323.03 223.32C322.48 223 322.29 222.3 322.61 221.75L323.82 219.65C324.14 219.1 324.84 218.91 325.39 219.23C325.94 219.55 326.13 220.25 325.81 220.8L324.6 222.9C324.38 223.26 324 223.47 323.6 223.47Z" fill="white"/>
<path d="M329.1 227.68C328.81 227.68 328.51 227.57 328.29 227.34C327.84 226.89 327.84 226.16 328.29 225.72L331.72 222.29C332.17 221.84 332.9 221.84 333.34 222.29C333.79 222.74 333.79 223.47 333.34 223.91L329.91 227.34C329.69 227.57 329.39 227.68 329.1 227.68Z" fill="white"/>
<path d="M333.32 233.18C332.92 233.18 332.54 232.98 332.32 232.61C332 232.06 332.19 231.36 332.74 231.04L334.84 229.83C335.39 229.51 336.09 229.7 336.41 230.25C336.73 230.8 336.54 231.5 335.99 231.82L333.89 233.03C333.71 233.13 333.52 233.18 333.32 233.18Z" fill="white"/>
<path d="M335.97 239.58C335.46 239.58 335 239.24 334.86 238.73C334.69 238.12 335.06 237.49 335.67 237.32L340.36 236.06C340.97 235.9 341.6 236.26 341.77 236.87C341.93 237.48 341.57 238.11 340.96 238.28L336.27 239.54C336.17 239.56 336.07 239.58 335.97 239.58Z" fill="white"/>
<path d="M43.38 151.88C58.2364 151.88 70.28 139.837 70.28 124.98C70.28 110.124 58.2364 98.0801 43.38 98.0801C28.5235 98.0801 16.48 110.124 16.48 124.98C16.48 139.837 28.5235 151.88 43.38 151.88Z" fill="#FFE4B6"/>
<path d="M85.57 117.63C83.54 81.73 111 50.99 146.9 48.96" stroke="black" stroke-width="2" stroke-miterlimit="10"/>
<path d="M323.83 128.03C327.87 99.2901 307.84 72.7201 279.1 68.6801" stroke="black" stroke-width="2" stroke-miterlimit="10"/>
<path d="M317.81 121.2L323.27 128.76L330.83 123.29" stroke="black" stroke-width="2" stroke-miterlimit="10"/>
<path d="M16.91 133.32C25.4262 133.32 32.33 126.416 32.33 117.9C32.33 109.384 25.4262 102.48 16.91 102.48C8.39376 102.48 1.48999 109.384 1.48999 117.9C1.48999 126.416 8.39376 133.32 16.91 133.32Z" stroke="black" stroke-width="2" stroke-miterlimit="10"/>
<path d="M244.98 126.34L263.74 141.44L251.51 145.59L244.98 126.34Z" fill="#FFD423"/>
<path d="M67.53 209.67V290.83H57.77C54.01 290.83 50.95 287.78 50.95 284.01V209.67H67.53Z" fill="#FFD423" stroke="#070707" stroke-width="2" stroke-miterlimit="10"/>
<path d="M67.53 209.67V290.83H57.77C54.01 290.83 50.95 287.78 50.95 284.01V209.67H67.53Z" fill="#FFD423" stroke="#070707" stroke-width="2" stroke-miterlimit="10"/>
<path d="M128.58 209.67L128.55 290.84H67.5299V209.67H128.58Z" fill="#FFD423" stroke="#070707" stroke-width="2" stroke-miterlimit="10"/>
<path d="M128.58 209.67L128.55 290.84H67.5299V209.67H128.58Z" fill="#FFD423" stroke="#070707" stroke-width="2" stroke-miterlimit="10"/>
<path d="M67.5199 209.67V194.5C67.5199 187.34 73.3299 181.53 80.4899 181.53C87.6499 181.53 93.4599 187.34 93.4599 194.5V209.67" stroke="#070707" stroke-width="2" stroke-miterlimit="10"/>
<path d="M86.73 219.72V194.5C86.73 187.34 92.54 181.53 99.7 181.53C106.86 181.53 112.67 187.34 112.67 194.5V219.71" stroke="#070707" stroke-width="2" stroke-miterlimit="10"/>
<path d="M151.43 243.07V284.01C151.43 287.79 148.38 290.83 144.61 290.83H112.57C108.79 290.83 105.75 287.78 105.75 284.01V243.07H151.43Z" fill="#173588"/>
<path d="M151.43 243.07V284.01C151.43 287.79 148.38 290.83 144.61 290.83H112.57C108.79 290.83 105.75 287.78 105.75 284.01V243.07H151.43Z" stroke="#070707" stroke-width="2" stroke-miterlimit="10"/>
<path d="M135.37 239.85V243.07H121.72V239.85C121.72 236.09 124.78 233.03 128.54 233.03H128.57C130.45 233.04 132.14 233.8 133.36 235.03C134.61 236.25 135.37 237.96 135.37 239.85Z" stroke="#070707" stroke-width="2" stroke-miterlimit="10"/>
<path d="M135.37 253.11V243.06" stroke="#070707" stroke-width="2" stroke-miterlimit="10"/>
<path d="M121.72 253.11V243.06" stroke="#070707" stroke-width="2" stroke-miterlimit="10"/>
<path d="M220.37 218.55V280.85" stroke="black" stroke-width="2" stroke-miterlimit="10"/>
<path d="M220.35 248.1C220.35 248.1 221.7 234.26 199.13 236.81C199.13 236.81 204.85 242.22 208.53 245.54C213.88 250.36 220.35 248.1 220.35 248.1Z" fill="#1C96A0"/>
<path d="M216.68 248.99C214.28 248.99 211.12 248.37 208.28 245.82C204.64 242.54 198.93 237.14 198.87 237.09L198.28 236.53L199.08 236.44C207.78 235.45 214.02 236.75 217.62 240.29C221.1 243.72 220.73 247.96 220.72 248.13L220.7 248.37L220.47 248.45C220.44 248.47 218.89 248.99 216.68 248.99ZM199.98 237.1C201.54 238.57 205.84 242.61 208.78 245.26C213.33 249.36 218.78 248.15 219.98 247.81C220 246.88 219.85 243.53 217.08 240.81C213.77 237.56 208.02 236.31 199.98 237.1Z" fill="#1C96A0"/>
<path d="M220.88 233.28C220.88 233.28 222.08 220.64 238.49 222.45C238.48 222.44 236.68 236.59 220.88 233.28Z" fill="#1C96A0"/>
<path d="M225.4 234.16C223.96 234.16 222.42 233.99 220.8 233.65L220.47 233.58L220.5 233.25C220.52 233.05 221 228.41 225.08 225.09C228.31 222.46 232.83 221.45 238.52 222.07L238.9 222.11L238.85 222.49C238.82 222.73 238.04 228.46 233.31 231.82C231.14 233.38 228.48 234.16 225.4 234.16ZM221.3 232.98C226.04 233.91 229.93 233.31 232.88 231.21C236.66 228.52 237.78 224.09 238.04 222.77C232.75 222.26 228.55 223.23 225.55 225.66C222.33 228.3 221.49 231.88 221.3 232.98Z" fill="#1C96A0"/>
<path d="M221.12 218.56C235.126 218.56 246.48 207.206 246.48 193.2C246.48 179.194 235.126 167.84 221.12 167.84C207.114 167.84 195.76 179.194 195.76 193.2C195.76 207.206 207.114 218.56 221.12 218.56Z" fill="#FFD423" stroke="#070707" stroke-width="2" stroke-miterlimit="10"/>
<path d="M221.12 211.93C231.464 211.93 239.85 203.544 239.85 193.2C239.85 182.856 231.464 174.47 221.12 174.47C210.776 174.47 202.39 182.856 202.39 193.2C202.39 203.544 210.776 211.93 221.12 211.93Z" fill="white" stroke="#070707" stroke-width="2" stroke-miterlimit="10"/>
<path d="M221.04 233.49L220.56 232.91C229.68 225.28 238.18 221.9 238.27 221.86L238.55 222.56C238.46 222.6 230.06 225.95 221.04 233.49Z" fill="#1C96A0"/>
<path d="M220.02 248.29C220.01 248.27 218.76 246.16 215.56 243.74C212.61 241.51 207.35 238.56 199.06 237.18L199.18 236.44C207.65 237.85 213.03 240.88 216.05 243.17C219.35 245.67 220.61 247.82 220.66 247.91L220.02 248.29Z" fill="#1C96A0"/>
<path d="M221.79 291.51C221.79 291.51 222.42 261.13 192.8 260.25C192.81 260.25 189.51 293.41 221.79 291.51Z" fill="#1C96A0"/>
<path d="M219.18 291.91C210.99 291.91 204.53 289.51 199.96 284.75C195.32 279.92 193.53 273.5 192.85 268.97C192.12 264.07 192.48 260.26 192.48 260.22L192.51 259.93L192.81 259.94C199.63 260.14 205.42 261.93 210.01 265.26C213.69 267.92 216.61 271.57 218.69 276.09C222.22 283.77 222.11 291.45 222.1 291.53L222.09 291.82L221.8 291.84C220.92 291.88 220.04 291.91 219.18 291.91ZM193.1 260.57C193.03 261.55 192.88 264.84 193.49 268.89C194.16 273.32 195.9 279.6 200.43 284.31C205.29 289.37 212.37 291.69 221.48 291.21C221.46 289.75 221.21 283.03 218.11 276.32C213.5 266.31 205.08 261.02 193.1 260.57Z" fill="#1C96A0"/>
<path d="M218.94 291.51C218.94 291.51 218.31 261.13 247.93 260.25C247.93 260.25 251.22 293.41 218.94 291.51Z" fill="#1C96A0"/>
<path d="M221.55 291.91C220.69 291.91 219.82 291.88 218.92 291.83L218.63 291.81L218.62 291.52C218.62 291.44 218.5 283.76 222.03 276.08C224.11 271.56 227.03 267.91 230.71 265.25C235.3 261.92 241.09 260.14 247.91 259.93L248.21 259.92L248.24 260.21C248.24 260.25 248.61 264.06 247.87 268.96C247.19 273.49 245.41 279.9 240.76 284.74C236.2 289.5 229.74 291.91 221.55 291.91ZM219.26 291.21C228.37 291.69 235.45 289.37 240.31 284.31C244.84 279.6 246.58 273.33 247.25 268.89C247.86 264.84 247.71 261.55 247.64 260.57C235.65 261.01 227.23 266.32 222.62 276.34C219.53 283.05 219.27 289.75 219.26 291.21Z" fill="#1C96A0"/>
<path d="M214.67 200.91L214.25 197.89H211.45L211.03 200.91H208.78L211.29 185.5H214.57L217.08 200.91H214.67ZM211.76 195.8H213.94L212.84 188.03L211.76 195.8Z" fill="#1C96A0"/>
<path d="M218.23 200.91V185.5H224.84V187.7H220.66V191.77H223.98V193.97H220.66V198.7H224.84V200.9H218.23V200.91Z" fill="#1C96A0"/>
<path d="M226.14 200.91V185.5H229.84C232.24 185.5 233.45 186.78 233.45 189.31V197.1C233.45 199.63 232.24 200.91 229.84 200.91H226.14ZM228.56 198.7H229.79C230.6 198.7 231.02 198.19 231.02 197.2V189.19C231.02 188.2 230.6 187.69 229.79 187.69H228.56V198.7Z" fill="#1C96A0"/>
<path d="M237.05 84.72C248.637 84.72 258.03 75.3269 258.03 63.74C258.03 52.1531 248.637 42.76 237.05 42.76C225.463 42.76 216.07 52.1531 216.07 63.74C216.07 75.3269 225.463 84.72 237.05 84.72Z" fill="#FFD423" stroke="#070707" stroke-width="2" stroke-miterlimit="10"/>
<path d="M237.05 79.25C245.616 79.25 252.56 72.3059 252.56 63.74C252.56 55.174 245.616 48.23 237.05 48.23C228.484 48.23 221.54 55.174 221.54 63.74C221.54 72.3059 228.484 79.25 237.05 79.25Z" fill="white" stroke="#070707" stroke-width="2" stroke-miterlimit="10"/>
<path d="M231.71 70.12L231.36 67.62H229.05L228.7 70.12H226.84L228.92 57.36H231.64L233.72 70.12H231.71ZM229.3 65.89H231.1L230.19 59.46L229.3 65.89Z" fill="#1C96A0"/>
<path d="M234.66 70.12V57.36H240.13V59.18H236.67V62.55H239.42V64.37H236.67V68.29H240.13V70.11H234.66V70.12Z" fill="#1C96A0"/>
<path d="M241.2 70.12V57.36H244.26C246.25 57.36 247.25 58.42 247.25 60.51V66.96C247.25 69.06 246.25 70.11 244.26 70.11H241.2V70.12ZM243.2 68.29H244.22C244.89 68.29 245.24 67.87 245.24 67.05V60.42C245.24 59.6 244.89 59.18 244.22 59.18H243.2V68.29Z" fill="#1C96A0"/>
<path d="M187.81 84.72C199.397 84.72 208.79 75.3269 208.79 63.74C208.79 52.1531 199.397 42.76 187.81 42.76C176.223 42.76 166.83 52.1531 166.83 63.74C166.83 75.3269 176.223 84.72 187.81 84.72Z" fill="#FFD423" stroke="#070707" stroke-width="2" stroke-miterlimit="10"/>
<path d="M187.81 79.25C196.376 79.25 203.32 72.3059 203.32 63.74C203.32 55.174 196.376 48.23 187.81 48.23C179.244 48.23 172.3 55.174 172.3 63.74C172.3 72.3059 179.244 79.25 187.81 79.25Z" fill="white" stroke="#070707" stroke-width="2" stroke-miterlimit="10"/>
<path d="M182.47 70.12L182.12 67.62H179.81L179.46 70.12H177.6L179.68 57.36H182.4L184.48 70.12H182.47ZM180.06 65.89H181.86L180.95 59.46L180.06 65.89Z" fill="#1C96A0"/>
<path d="M185.42 70.12V57.36H190.89V59.18H187.43V62.55H190.18V64.37H187.43V68.29H190.89V70.11H185.42V70.12Z" fill="#1C96A0"/>
<path d="M191.96 70.12V57.36H195.02C197.01 57.36 198.01 58.42 198.01 60.51V66.96C198.01 69.06 197.01 70.11 195.02 70.11H191.96V70.12ZM193.96 68.29H194.98C195.65 68.29 196 67.87 196 67.05V60.42C196 59.6 195.65 59.18 194.98 59.18H193.96V68.29Z" fill="#1C96A0"/>
<path d="M212.85 43.48C224.437 43.48 233.83 34.087 233.83 22.5C233.83 10.9131 224.437 1.52002 212.85 1.52002C201.263 1.52002 191.87 10.9131 191.87 22.5C191.87 34.087 201.263 43.48 212.85 43.48Z" fill="#FFD423" stroke="#070707" stroke-width="2" stroke-miterlimit="10"/>
<path d="M212.85 38.01C221.416 38.01 228.36 31.0659 228.36 22.5C228.36 13.9341 221.416 6.98999 212.85 6.98999C204.284 6.98999 197.34 13.9341 197.34 22.5C197.34 31.0659 204.284 38.01 212.85 38.01Z" fill="white" stroke="#070707" stroke-width="2" stroke-miterlimit="10"/>
<path d="M207.51 28.87L207.16 26.37H204.85L204.5 28.87H202.64L204.72 16.11H207.44L209.52 28.87H207.51V28.87ZM205.11 24.65H206.91L206 18.22L205.11 24.65Z" fill="#1C96A0"/>
<path d="M210.47 28.87V16.12H215.94V17.94H212.48V21.31H215.23V23.13H212.48V27.05H215.94V28.87H210.47V28.87Z" fill="#1C96A0"/>
<path d="M217.01 28.87V16.12H220.07C222.06 16.12 223.06 17.18 223.06 19.27V25.72C223.06 27.82 222.06 28.87 220.07 28.87H217.01V28.87ZM219.01 27.05H220.03C220.7 27.05 221.05 26.63 221.05 25.81V19.18C221.05 18.36 220.7 17.94 220.03 17.94H219.01V27.05Z" fill="#1C96A0"/>
</g>
<defs>
<clipPath id="clip0_92_1183">
<rect width="398" height="292" fill="white"/>
</clipPath>
</defs>
</svg>
