<svg width="321" height="350" viewBox="0 0 321 350" fill="none" xmlns="http://www.w3.org/2000/svg">
<path d="M202.729 65.0586C219.515 61.3695 229.889 45.3573 225.9 29.2943C221.912 13.2314 205.071 3.20035 188.286 6.88942C171.5 10.5785 161.126 26.5907 165.115 42.6537C169.103 58.7166 185.944 68.7477 202.729 65.0586Z" fill="white"/>
<path d="M188.286 6.88769C182.275 8.20941 176.823 11.2071 172.619 15.5017C168.415 19.7962 165.649 25.1947 164.669 31.0146C163.689 36.8344 164.54 42.8142 167.114 48.1977C169.688 53.5813 173.87 58.1267 179.13 61.2594C184.391 64.392 190.494 65.971 196.668 65.7968C202.842 65.6227 208.809 63.703 213.816 60.2808C218.822 56.8585 222.642 52.0873 224.793 46.5704C226.945 41.0536 227.33 35.0389 225.901 29.287C224.952 25.4678 223.227 21.8589 220.823 18.6662C218.419 15.4736 215.384 12.7598 211.891 10.6798C208.398 8.59978 204.516 7.19428 200.466 6.54364C196.415 5.893 192.276 6.00991 188.286 6.88769ZM200.617 56.5375C196.367 57.4719 191.912 57.1792 187.817 55.6963C183.721 54.2135 180.169 51.6071 177.609 48.2068C175.049 44.8065 173.597 40.7651 173.435 36.5934C173.273 32.4218 174.41 28.3073 176.701 24.7704C178.992 21.2335 182.335 18.4331 186.307 16.7231C190.279 15.0131 194.701 14.4704 199.014 15.1636C203.328 15.8569 207.339 17.755 210.54 20.6179C213.742 23.4807 215.99 27.1798 217 31.2473C217.671 33.9481 217.78 36.7447 217.32 39.4775C216.86 42.2102 215.84 44.8255 214.319 47.174C212.797 49.5225 210.804 51.5582 208.453 53.1649C206.103 54.7715 203.44 55.9175 200.617 56.5375Z" fill="#FED45D"/>
<path d="M190.291 14.9602C194.664 13.9916 199.251 14.3014 203.458 15.8496C207.554 17.3536 211.115 19.9569 213.708 23.344C215.932 26.2506 217.365 29.6366 217.875 33.1942C218.386 36.7517 217.96 40.3682 216.634 43.7149C215.09 47.6165 212.392 50.9983 208.865 53.4504C205.839 55.5529 202.306 56.8957 198.585 57.3569C194.865 57.8181 191.076 57.3831 187.562 56.0914C183.466 54.5873 179.905 51.984 177.312 48.5969C175.088 45.6903 173.655 42.3043 173.145 38.7468C172.634 35.1892 173.06 31.5728 174.386 28.2261C175.93 24.3244 178.628 20.9426 182.155 18.4905C184.586 16.801 187.353 15.6003 190.291 14.9602V14.9602ZM200.508 56.0911C204.667 55.1768 208.439 53.1029 211.347 50.1317C214.256 47.1606 216.17 43.4256 216.848 39.3991C217.526 35.3726 216.938 31.2355 215.157 27.5108C213.376 23.7862 210.483 20.6413 206.843 18.474C203.204 16.3066 198.981 15.214 194.71 15.3345C190.438 15.4549 186.31 16.7829 182.846 19.1506C179.382 21.5182 176.739 24.8192 175.251 28.636C173.762 32.4528 173.496 36.6141 174.484 40.5936C175.816 45.9267 179.303 50.5534 184.182 53.4587C189.061 56.3641 194.932 57.3108 200.508 56.0911V56.0911Z" fill="black"/>
<path d="M196.859 46.0973C193.679 46.5121 191.102 45.8583 189.071 44.6317L190.582 40.9444C192.171 41.9555 194.041 42.4623 195.925 42.3921L194.803 37.9425C191.566 37.8864 187.959 37.484 186.974 33.58C186.243 30.6799 187.994 27.6971 191.898 26.426L191.225 23.7549L194.013 23.1516L194.701 25.88C197 25.584 199.352 26.0218 201.398 27.1268L199.82 30.6794C198.534 29.9946 197.097 29.629 195.639 29.6162L196.639 33.5808C199.915 33.6605 203.647 34.0643 204.639 37.9985C205.443 41.185 203.901 44.1259 199.645 45.4982L200.296 48.0817L197.508 48.685L196.856 46.0981L196.859 46.0973ZM193.687 33.5198L192.811 30.0436C191.549 30.4979 190.982 31.3488 191.228 32.3256C191.438 33.1576 192.378 33.4088 193.687 33.5198ZM197.761 37.9987L198.731 41.8453C200.172 41.2314 200.672 40.2423 200.441 39.3261C200.202 38.3796 199.167 38.1171 197.761 37.9987Z" fill="#61ADE0"/>
<path d="M48.4678 304.663C59.2194 302.3 65.8642 292.044 63.3094 281.755C60.7546 271.466 49.9676 265.041 39.216 267.404C28.4644 269.767 21.8196 280.023 24.3744 290.312C26.9292 300.601 37.7162 307.026 48.4678 304.663Z" fill="white"/>
<path d="M39.216 267.403C35.366 268.25 31.8739 270.17 29.1813 272.92C26.4887 275.671 24.7164 279.129 24.0888 282.857C23.4611 286.585 24.0061 290.415 25.6549 293.863C27.3037 297.311 29.9823 300.223 33.3519 302.229C36.7214 304.236 40.6307 305.247 44.5853 305.136C48.5398 305.024 52.3621 303.795 55.5687 301.603C58.7754 299.411 61.2224 296.355 62.6002 292.821C63.9781 289.287 64.225 285.435 63.3097 281.75C62.7021 279.304 61.5969 276.992 60.0572 274.947C58.5175 272.902 56.5734 271.164 54.3361 269.832C52.0987 268.5 49.6119 267.599 47.0176 267.183C44.4233 266.766 41.7723 266.841 39.216 267.403ZM47.1148 299.205C44.3923 299.804 41.539 299.616 38.9158 298.666C36.2925 297.716 34.0172 296.047 32.3775 293.869C30.7378 291.691 29.8073 289.102 29.7038 286.43C29.6002 283.758 30.3283 281.123 31.7958 278.857C33.2634 276.592 35.4046 274.798 37.9486 273.703C40.4926 272.608 43.3251 272.26 46.088 272.704C48.851 273.148 51.4202 274.364 53.4708 276.198C55.5214 278.031 56.9613 280.401 57.6084 283.006C58.0384 284.736 58.1081 286.527 57.8134 288.278C57.5187 290.028 56.8655 291.703 55.891 293.207C54.9165 294.712 53.6399 296.016 52.1341 297.045C50.6282 298.074 48.9227 298.808 47.1148 299.205Z" fill="#FED45D"/>
<path d="M40.5002 272.573C43.3014 271.953 46.2395 272.151 48.9342 273.143C51.5579 274.106 53.8385 275.774 55.4998 277.943C56.9242 279.805 57.8417 281.974 58.169 284.253C58.4962 286.531 58.2228 288.848 57.3736 290.992C56.3849 293.491 54.6565 295.657 52.3978 297.227C50.4595 298.574 48.196 299.434 45.813 299.73C43.43 300.025 41.0029 299.746 38.7524 298.919C36.1287 297.956 33.8481 296.288 32.1868 294.119C30.7624 292.257 29.8449 290.088 29.5176 287.809C29.1904 285.531 29.4638 283.214 30.313 281.071C31.3017 278.571 33.0301 276.405 35.2888 274.835C36.8463 273.753 38.6188 272.983 40.5002 272.573V272.573ZM47.0449 298.919C49.7085 298.333 52.1246 297.005 53.9875 295.102C55.8505 293.199 57.0766 290.806 57.511 288.227C57.9453 285.648 57.5682 282.998 56.4275 280.612C55.2869 278.227 53.4337 276.212 51.1025 274.824C48.7712 273.436 46.0666 272.736 43.3306 272.813C40.5946 272.89 37.9501 273.741 35.7316 275.257C33.513 276.774 31.82 278.888 30.8667 281.333C29.9133 283.778 29.7425 286.443 30.3757 288.992C31.2285 292.408 33.4625 295.372 36.5875 297.233C39.7125 299.094 43.4733 299.7 47.0449 298.919V298.919Z" fill="black"/>
<path d="M44.708 292.518C42.6708 292.784 41.0205 292.365 39.7197 291.58L40.6875 289.218C41.7049 289.865 42.9028 290.19 44.1094 290.145L43.3907 287.295C41.3174 287.259 39.0071 287.001 38.3765 284.501C37.908 282.643 39.0296 280.732 41.5304 279.918L41.0989 278.207L42.8846 277.821L43.3254 279.569C44.7984 279.379 46.3048 279.659 47.6153 280.367L46.6045 282.643C45.7809 282.204 44.86 281.97 43.9265 281.962L44.567 284.501C46.6652 284.552 49.0557 284.811 49.6912 287.331C50.2059 289.372 49.2186 291.256 46.492 292.135L46.9094 293.789L45.1236 294.176L44.7057 292.519L44.708 292.518ZM42.6763 284.462L42.1147 282.235C41.3065 282.526 40.9431 283.071 41.1009 283.697C41.2353 284.23 41.8378 284.391 42.6763 284.462ZM45.2853 287.331L45.9067 289.795C46.8302 289.402 47.1501 288.768 47.0021 288.181C46.8492 287.575 46.1861 287.407 45.2853 287.331Z" fill="#61ADE0"/>
<path fill-rule="evenodd" clip-rule="evenodd" d="M76.3157 325.049C78.119 324.344 80.0166 323.406 81.4799 322.049C83.2179 320.437 83.9247 318.36 84.3994 316.174C85.0087 313.366 85.2522 310.375 85.9912 307.562C86.2648 306.517 86.7913 306.123 87.0172 305.947C87.5882 305.505 88.1654 305.386 88.7085 305.431C89.3521 305.482 90.2361 305.749 90.8175 306.934C90.9004 307.103 91.0082 307.362 91.0807 307.716C91.1336 307.975 91.1678 308.786 91.2238 309.121C91.3637 309.945 91.4808 310.768 91.5906 311.597C91.9565 314.354 92.1669 316.695 93.3224 319.228C94.8904 322.667 96.4616 324.771 98.5923 325.702C100.653 326.604 103.116 326.434 106.263 325.728C106.563 325.648 106.859 325.58 107.153 325.524C108.54 325.258 109.867 326.258 110.139 327.776C110.412 329.292 109.53 330.77 108.155 331.104C107.868 331.173 107.585 331.239 107.305 331.299C103.052 332.456 98.128 336.581 95.2666 340.194C94.3847 341.308 93.0934 344.422 91.7762 346.409C90.804 347.874 89.7117 348.84 88.7945 349.182C88.18 349.412 87.6618 349.376 87.2338 349.26C86.612 349.092 86.0959 348.722 85.7 348.134C85.4844 347.812 85.2844 347.38 85.189 346.83C85.1434 346.565 85.1383 345.891 85.1393 345.586C84.8709 344.572 84.5424 343.582 84.303 342.559C83.7319 340.119 82.6116 338.574 81.2809 336.532C80.0362 334.622 78.6994 333.422 76.7396 332.464C76.4847 332.395 74.4275 331.842 73.701 331.525C72.6398 331.059 72.134 330.28 71.9506 329.86C71.6386 329.148 71.6065 328.525 71.6687 328.007C71.7609 327.241 72.0739 326.585 72.6294 326.056C72.9735 325.728 73.4875 325.408 74.1757 325.252C74.7073 325.13 76.1177 325.06 76.3157 325.049ZM88.3841 321.071C88.4795 321.305 88.581 321.539 88.6888 321.776C90.9854 326.812 93.5535 329.623 96.675 330.988L96.7797 331.032C94.6914 332.734 92.8011 334.637 91.3564 336.461C90.7615 337.212 89.9739 338.772 89.1231 340.371C88.3499 337.612 87.0856 335.662 85.4958 333.221C84.2812 331.359 83.0085 329.957 81.4447 328.814C82.6583 328.131 83.8159 327.33 84.8242 326.394C86.5031 324.837 87.6131 323.032 88.3841 321.071Z" fill="#FFE4B6"/>
<path fill-rule="evenodd" clip-rule="evenodd" d="M5.93277 128.711C7.95099 127.921 10.0748 126.872 11.7126 125.353C13.6577 123.548 14.4488 121.224 14.98 118.778C15.662 115.635 15.9345 112.287 16.7615 109.139C17.0677 107.97 17.657 107.528 17.9099 107.332C18.549 106.836 19.195 106.704 19.8028 106.754C20.5231 106.811 21.5125 107.11 22.1632 108.436C22.256 108.626 22.3766 108.915 22.4578 109.311C22.5169 109.601 22.5552 110.509 22.6178 110.883C22.7744 111.805 22.9055 112.727 23.0284 113.655C23.4379 116.74 23.6734 119.361 24.9667 122.196C26.7216 126.044 28.48 128.399 30.8647 129.442C33.1706 130.45 35.9276 130.26 39.4502 129.47C39.7854 129.381 40.1171 129.304 40.4454 129.242C41.9985 128.944 43.4832 130.063 43.7882 131.762C44.0933 133.459 43.1062 135.114 41.5671 135.487C41.2458 135.564 40.9291 135.638 40.6159 135.706C35.8557 137 30.3451 141.617 27.1426 145.66C26.1555 146.907 24.7103 150.393 23.2361 152.616C22.1481 154.256 20.9256 155.337 19.8991 155.72C19.2112 155.977 18.6313 155.937 18.1523 155.807C17.4563 155.619 16.8787 155.205 16.4357 154.547C16.1944 154.186 15.9705 153.704 15.8638 153.087C15.8128 152.791 15.807 152.037 15.8081 151.695C15.5077 150.561 15.14 149.453 14.8721 148.308C14.233 145.576 12.9791 143.847 11.4898 141.562C10.0968 139.424 8.60059 138.081 6.40723 137.009C6.1219 136.932 3.81951 136.313 3.00642 135.958C1.81869 135.437 1.25263 134.565 1.04733 134.095C0.698204 133.298 0.662279 132.601 0.731872 132.02C0.835103 131.163 1.18539 130.43 1.8071 129.838C2.19218 129.47 2.76749 129.112 3.53766 128.937C4.13269 128.801 5.71123 128.722 5.93277 128.711ZM19.4397 124.259C19.5465 124.52 19.6601 124.782 19.7808 125.047C22.3511 130.683 25.2253 133.83 28.7189 135.357L28.8361 135.407C26.4989 137.312 24.3832 139.441 22.7663 141.482C22.1005 142.323 21.219 144.069 20.2668 145.859C19.4015 142.771 17.9864 140.588 16.2071 137.857C14.8477 135.772 13.4234 134.203 11.6731 132.925C13.0314 132.159 14.3269 131.263 15.4555 130.216C17.3345 128.473 18.5768 126.453 19.4397 124.259Z" fill="#FFE4B6"/>
<path fill-rule="evenodd" clip-rule="evenodd" d="M112.708 56.5445C113.68 56.1642 114.703 55.6587 115.492 54.9269C116.429 54.0577 116.81 52.9383 117.066 51.7599C117.395 50.246 117.526 48.6333 117.924 47.117C118.072 46.5539 118.356 46.341 118.478 46.2465C118.785 46.0079 119.097 45.9441 119.389 45.9681C119.736 45.9957 120.213 46.1398 120.526 46.7784C120.571 46.8698 120.629 47.009 120.668 47.1998C120.697 47.3397 120.715 47.777 120.745 47.9574C120.821 48.4015 120.884 48.8456 120.943 49.2922C121.14 50.7785 121.254 52.0408 121.877 53.4063C122.722 55.26 123.569 56.3942 124.718 56.8966C125.828 57.3824 127.156 57.2911 128.853 56.9101C129.015 56.8672 129.174 56.8304 129.333 56.8003C130.081 56.6568 130.796 57.196 130.943 58.0143C131.09 58.8319 130.614 59.6288 129.873 59.8085C129.718 59.8459 129.566 59.8815 129.415 59.914C127.122 60.5372 124.467 62.7615 122.925 64.709C122.449 65.3096 121.753 66.9885 121.043 68.0595C120.519 68.8496 119.93 69.3704 119.436 69.5544C119.104 69.6783 118.825 69.6593 118.594 69.5967C118.259 69.5059 117.981 69.3066 117.767 68.9894C117.651 68.8158 117.543 68.5833 117.492 68.2865C117.467 68.1435 117.465 67.7804 117.465 67.616C117.32 67.0695 117.143 66.5358 117.014 65.9843C116.706 64.6686 116.102 63.8355 115.385 62.7351C114.714 61.7052 113.993 61.058 112.937 60.5415C112.799 60.5047 111.69 60.2066 111.299 60.0354C110.727 59.7846 110.454 59.3644 110.355 59.138C110.187 58.754 110.17 58.4185 110.203 58.1388C110.253 57.726 110.422 57.3726 110.721 57.0874C110.906 56.9101 111.184 56.7377 111.555 56.6537C111.841 56.5881 112.602 56.5501 112.708 56.5445ZM119.214 54.4C119.266 54.5258 119.321 54.6521 119.379 54.7797C120.617 57.4947 122.001 59.0104 123.684 59.7459L123.741 59.7699C122.615 60.6875 121.596 61.7131 120.817 62.6964C120.496 63.1013 120.071 63.9423 119.613 64.8047C119.196 63.3172 118.514 62.2658 117.657 60.9501C117.003 59.9459 116.316 59.1902 115.473 58.5743C116.128 58.2057 116.752 57.7738 117.295 57.2696C118.2 56.4298 118.799 55.4569 119.214 54.4Z" fill="#FFE4B6"/>
<path fill-rule="evenodd" clip-rule="evenodd" d="M276.783 84.4043C276.682 83.7442 276.605 83.0915 276.556 82.4388C276.482 81.4596 276.528 80.4731 276.501 79.4939C276.49 79.0786 276.445 77.9956 276.463 77.8399C276.628 76.4825 277.626 76.2747 277.918 76.2377C278.059 76.2154 279.509 76.0375 279.822 77.8028C280.206 79.9613 280.329 82.1346 280.193 84.2634C280.51 86.0733 281.052 87.8757 281.767 89.5076C284.614 95.9979 290.039 96.6284 295.917 96.569C296.821 96.5542 297.571 97.333 297.619 98.3195C297.666 99.3135 296.993 100.174 296.093 100.263C292.808 100.612 286.979 103.504 284.963 106.516C284.542 107.146 284.297 108.667 283.972 110.158C283.52 112.227 282.981 114.275 282.378 115.135C282.287 115.269 281.187 116.633 280.858 116.834C280.069 117.308 279.438 117.034 279.079 116.782C278.72 116.529 278.314 116.033 278.152 115.209C277.982 114.349 278.126 112.583 278.099 112.205C278.003 110.833 277.753 108.14 277.243 105.826C276.968 104.58 276.675 103.43 276.19 102.859C274.394 100.745 271.523 101.057 269.105 101.405C268.827 101.442 268.55 101.487 268.273 101.524C267.288 101.843 266.243 102.08 265.139 102.221C263.47 102.436 263.196 100.752 263.181 100.641C263.15 100.396 263.035 99.1355 264.292 98.6311C264.429 98.5792 265.441 98.3344 265.831 98.238C266.374 98.1044 266.923 98.0006 267.475 97.9042C273.169 95.9608 276.262 90.5015 276.783 84.4043ZM278.738 91.1469C280.887 96.0276 284.15 98.3863 288.017 99.4544H288.016C285.602 100.842 283.405 102.577 282.241 104.32C281.799 104.981 281.394 106.308 281.029 107.799C280.831 106.412 280.563 104.936 280.21 103.675C279.808 102.236 279.267 101.042 278.663 100.33C277.497 98.9575 276.033 98.1935 274.46 97.8152C276.343 95.9831 277.772 93.6985 278.738 91.1469Z" fill="#FFE4B6"/>
<path d="M202.914 311.607C268.051 297.291 308.308 235.154 292.83 172.821C277.352 110.487 212 71.5609 146.863 85.8766C81.7249 100.192 41.4678 162.329 56.9459 224.663C72.4239 286.996 137.776 325.922 202.914 311.607Z" fill="white"/>
<path d="M146.861 85.8701C123.536 90.9991 102.38 102.632 86.0668 119.297C69.7538 135.963 59.017 156.912 55.2142 179.496C51.4114 202.081 54.7134 225.286 64.7027 246.177C74.6919 267.068 90.9197 284.707 111.334 296.864C131.748 309.02 155.432 315.148 179.391 314.472C203.349 313.796 226.506 306.346 245.933 293.066C265.36 279.786 280.185 261.271 288.533 239.862C296.881 218.454 298.376 195.113 292.831 172.792C289.15 157.972 282.454 143.967 273.126 131.578C263.798 119.188 252.02 108.657 238.465 100.586C224.91 92.514 209.844 87.0598 194.127 84.5349C178.409 82.0101 162.348 82.4638 146.861 85.8701ZM194.716 278.54C178.221 282.166 160.935 281.03 145.042 275.276C129.15 269.522 115.365 259.407 105.431 246.212C95.4966 233.017 89.8595 217.334 89.2323 201.146C88.6051 184.957 93.0159 168.991 101.907 155.265C110.798 141.54 123.77 130.673 139.183 124.037C154.595 117.401 171.756 115.295 188.495 117.986C205.234 120.676 220.8 128.042 233.223 139.151C245.647 150.261 254.37 164.615 258.291 180.4C260.895 190.88 261.317 201.733 259.532 212.337C257.747 222.942 253.789 233.091 247.885 242.204C241.982 251.318 234.247 259.218 225.124 265.452C216.002 271.687 205.669 276.134 194.716 278.54Z" fill="#FED45D"/>
<path d="M154.644 117.195C171.615 113.437 189.415 114.639 205.74 120.647C221.636 126.483 235.453 136.585 245.518 149.729C254.147 161.009 259.706 174.148 261.689 187.954C263.671 201.759 262.015 215.793 256.87 228.78C250.88 243.921 240.409 257.044 226.725 266.56C214.982 274.718 201.269 279.929 186.831 281.719C172.394 283.509 157.69 281.821 144.055 276.808C128.16 270.971 114.343 260.869 104.278 247.725C95.6481 236.446 90.0894 223.306 88.1068 209.501C86.1243 195.696 87.7806 181.662 92.9254 168.675C98.9156 153.534 109.387 140.411 123.071 130.895C132.507 124.339 143.246 119.679 154.644 117.195V117.195ZM194.294 276.807C210.432 273.259 225.069 265.211 236.356 253.681C247.642 242.152 255.071 227.658 257.702 212.033C260.333 196.407 258.049 180.353 251.138 165.899C244.228 151.445 233.001 139.241 218.877 130.831C204.753 122.42 188.368 118.18 171.792 118.648C155.216 119.115 139.195 124.269 125.754 133.456C112.313 142.644 102.056 155.454 96.2799 170.265C90.5041 185.077 89.4689 201.225 93.3052 216.668C98.4723 237.363 112.007 255.318 130.939 266.592C149.872 277.866 172.656 281.54 194.294 276.807V276.807Z" fill="black"/>
<path d="M180.131 238.027C167.789 239.637 157.791 237.1 149.911 232.34L155.774 218.031C161.938 221.955 169.195 223.922 176.505 223.649L172.151 206.382C159.59 206.164 145.593 204.603 141.773 189.453C138.934 178.199 145.73 166.624 160.88 161.691L158.266 151.326L169.085 148.985L171.755 159.573C180.679 158.424 189.805 160.123 197.745 164.411L191.622 178.197C186.632 175.539 181.053 174.121 175.397 174.071L179.277 189.456C191.989 189.765 206.472 191.332 210.322 206.599C213.44 218.965 207.459 230.377 190.94 235.702L193.468 245.728L182.65 248.069L180.118 238.03L180.131 238.027ZM167.823 189.219L164.421 175.73C159.524 177.492 157.323 180.795 158.279 184.585C159.093 187.814 162.743 188.789 167.823 189.219ZM183.629 206.6L187.394 221.527C192.989 219.145 194.927 215.307 194.03 211.751C193.104 208.078 189.086 207.059 183.629 206.6Z" fill="#61ADE0"/>
</svg>
