
<svg width="1010" height="294" viewBox="0 0 1010 294" fill="none" xmlns="http://www.w3.org/2000/svg">
<path d="M676.72 108.81C649.5 108.81 627.43 86.74 627.43 59.52C627.43 32.3 649.5 10.23 676.72 10.23C703.94 10.23 726.01 32.3 726.01 59.52C726.02 86.74 703.95 108.81 676.72 108.81Z" fill="#7CC8C2"/>
<path d="M726.02 116.37C710.32 116.37 697.59 103.64 697.59 87.94C697.59 72.24 710.32 59.51 726.02 59.51" fill="#7CC8C2"/>
<path d="M464.85 34.6801L454.51 52.5901H475.14L464.85 34.6801Z" fill="#1C96A0"/>
<path d="M416.93 2.01001L377.61 12.55L406.32 41.26L416.93 2.01001Z" stroke="#1C96A0" strokeWidth="2" stroke-miterlimit="10"/>
<path d="M819.02 23.97L829.56 63.29L858.27 34.58L819.02 23.97Z" stroke="#1C96A0" strokeWidth="2" stroke-miterlimit="10"/>
<path d="M361.83 293.15C361.83 208.92 430.11 140.63 514.35 140.63C598.59 140.63 666.87 208.91 666.87 293.15" fill="#E75553"/>
<path d="M571.4 293.15C571.4 237.99 616.11 193.28 671.27 193.28C726.43 193.28 771.14 237.99 771.14 293.15" fill="#1C96A0"/>
<path d="M701.8 293.15C701.8 214.05 765.92 149.92 845.03 149.92C924.14 149.92 988.26 214.04 988.26 293.15" fill="#61ADE0"/>
<path d="M988.25 293.15C1000.1 293.15 1009.71 283.542 1009.71 271.69C1009.71 259.838 1000.1 250.23 988.25 250.23C976.398 250.23 966.79 259.838 966.79 271.69C966.79 283.542 976.398 293.15 988.25 293.15Z" fill="#7CC8C2"/>
<path d="M10.6301 293.15C16.2358 293.15 20.7801 288.606 20.7801 283C20.7801 277.394 16.2358 272.85 10.6301 272.85C5.02441 272.85 0.480103 277.394 0.480103 283C0.480103 288.606 5.02441 293.15 10.6301 293.15Z" fill="#7CC8C2"/>
<path d="M235.6 173.76C250.092 173.76 261.84 162.012 261.84 147.52C261.84 133.028 250.092 121.28 235.6 121.28C221.108 121.28 209.36 133.028 209.36 147.52C209.36 162.012 221.108 173.76 235.6 173.76Z" fill="#FFE4B6"/>
<path d="M259.16 140.63C289.597 140.63 314.27 115.956 314.27 85.52C314.27 55.0836 289.597 30.41 259.16 30.41C228.724 30.41 204.05 55.0836 204.05 85.52C204.05 115.956 228.724 140.63 259.16 140.63Z" stroke="black" strokeWidth="2" stroke-miterlimit="10"/>
<path d="M962.1 156.54C982.645 156.54 999.3 139.885 999.3 119.34C999.3 98.795 982.645 82.14 962.1 82.14C941.555 82.14 924.9 98.795 924.9 119.34C924.9 139.885 941.555 156.54 962.1 156.54Z" stroke="black" strokeWidth="2" stroke-miterlimit="10"/>
<path d="M107.49 226.57H40.9101V293.15H107.49V226.57Z" fill="#7CC8C2"/>
<path d="M174.07 159.99H107.49V226.57H174.07V159.99Z" fill="#7CC8C2"/>
<path d="M240.65 226.57H174.07V293.15H240.65V226.57Z" fill="#7CC8C2"/>
<path d="M307.23 159.99H240.65V226.57H307.23V159.99Z" fill="#7CC8C2"/>
<path d="M373.81 226.57H307.23V293.15H373.81V226.57Z" fill="#7CC8C2"/>
<path d="M440.39 159.99H373.81V226.57H440.39V159.99Z" fill="#7CC8C2"/>
<path d="M589.22 261.2C554.4 261.2 521.95 261.35 489.51 260.91C486.86 260.87 483.04 257.29 481.83 254.47C469.5 225.87 460.99 196.36 462.69 164.73C464.51 130.95 479.51 105.25 508.89 87.83C513.77 84.94 517.34 79.5 520.87 74.76C525.84 68.09 530.2 60.98 534.89 53.97C537.53 55.96 538.68 56.43 538.67 56.88C538.43 76.51 549.59 87.2 564.82 98.58C584.37 113.19 600.52 132.55 617.02 150.88C620.12 154.32 620.47 164.53 617.64 168.03C613.28 173.43 607.68 181.98 597.21 175.81C579.79 165.55 562.13 166.12 543.98 176.95C563.05 202 587.15 224.49 589.22 261.2Z" fill="#FFE4B6"/>
<path d="M458.78 293.15C456.56 273.82 461.8 267.67 480.55 267.61C515.91 267.51 551.26 267.5 586.62 267.61C604.86 267.67 609.76 273.18 608.55 293.14C559.01 293.15 509.34 293.15 458.78 293.15Z" fill="#FFE4B6"/>
<path d="M661.04 51.31C664.912 51.31 668.05 48.1716 668.05 44.3C668.05 40.4285 664.912 37.29 661.04 37.29C657.169 37.29 654.03 40.4285 654.03 44.3C654.03 48.1716 657.169 51.31 661.04 51.31Z" fill="#1C96A0"/>
<path d="M690.58 51.31C694.452 51.31 697.59 48.1716 697.59 44.3C697.59 40.4285 694.452 37.29 690.58 37.29C686.709 37.29 683.57 40.4285 683.57 44.3C683.57 48.1716 686.709 51.31 690.58 51.31Z" fill="#1C96A0"/>
<path d="M652.9 74.26C652.9 74.26 658.56 90.04 675.99 90.04C693.42 90.04 700.56 75.47 700.56 75.47" stroke="#1C96A0" strokeWidth="3.3947" stroke-miterlimit="10" stroke-linecap="round"/>
<path d="M373.81 195.65V278.46" stroke="black" strokeWidth="2" stroke-miterlimit="10"/>
<path d="M373.79 234.92C373.79 234.92 375.59 216.52 345.59 219.92C345.59 219.92 353.19 227.12 358.08 231.52C365.19 237.92 373.79 234.92 373.79 234.92Z" fill="#1C96A0"/>
<path d="M368.91 236.11C365.73 236.11 361.52 235.29 357.75 231.9C352.91 227.54 345.32 220.36 345.25 220.29L344.47 219.55L345.54 219.43C357.11 218.12 365.4 219.84 370.18 224.55C374.81 229.11 374.32 234.74 374.3 234.98L374.27 235.3L373.97 235.41C373.91 235.41 371.85 236.11 368.91 236.11ZM346.72 220.3C348.79 222.26 354.51 227.63 358.42 231.15C364.47 236.6 371.72 234.99 373.31 234.55C373.33 233.32 373.14 228.86 369.46 225.25C365.05 220.91 357.4 219.25 346.72 220.3Z" fill="#1C96A0"/>
<path d="M374.49 215.22C374.49 215.22 376.09 198.42 397.89 200.82C397.89 200.82 395.49 219.62 374.49 215.22Z" fill="#1C96A0"/>
<path d="M380.5 216.39C378.58 216.39 376.54 216.16 374.38 215.71L373.94 215.62L373.98 215.17C374 214.91 374.65 208.74 380.07 204.33C384.36 200.84 390.37 199.49 397.94 200.32L398.45 200.38L398.39 200.88C398.35 201.2 397.31 208.81 391.03 213.29C388.13 215.35 384.6 216.39 380.5 216.39ZM375.05 214.82C381.34 216.05 386.52 215.26 390.44 212.47C395.47 208.89 396.96 203.01 397.3 201.26C390.26 200.58 384.68 201.87 380.7 205.11C376.42 208.6 375.3 213.36 375.05 214.82Z" fill="#1C96A0"/>
<path d="M374.81 195.65C393.422 195.65 408.51 180.562 408.51 161.95C408.51 143.338 393.422 128.25 374.81 128.25C356.198 128.25 341.11 143.338 341.11 161.95C341.11 180.562 356.198 195.65 374.81 195.65Z" fill="#FFD423" stroke="#070707" strokeWidth="2" stroke-miterlimit="10"/>
<path d="M374.81 186.85C388.562 186.85 399.71 175.702 399.71 161.95C399.71 148.198 388.562 137.05 374.81 137.05C361.058 137.05 349.91 148.198 349.91 161.95C349.91 175.702 361.058 186.85 374.81 186.85Z" fill="white" stroke="#070707" strokeWidth="2" stroke-miterlimit="10"/>
<path d="M375.71 292.62C375.71 292.62 376.55 252.24 337.18 251.06C337.18 251.07 332.8 295.15 375.71 292.62Z" fill="#1C96A0"/>
<path d="M372.24 293.15C361.35 293.15 352.77 289.96 346.69 283.63C340.52 277.2 338.14 268.68 337.24 262.66C336.26 256.15 336.75 251.08 336.75 251.03L336.79 250.64L337.18 250.65C346.25 250.92 353.94 253.3 360.04 257.72C364.93 261.26 368.81 266.1 371.57 272.11C376.27 282.32 376.11 292.53 376.11 292.63L376.1 293.02L375.71 293.04C374.54 293.11 373.38 293.15 372.24 293.15ZM337.57 251.5C337.48 252.8 337.28 257.18 338.09 262.56C338.98 268.45 341.3 276.79 347.31 283.05C353.77 289.77 363.18 292.86 375.29 292.22C375.27 290.27 374.93 281.35 370.82 272.43C364.68 259.13 353.5 252.09 337.57 251.5Z" fill="#1C96A0"/>
<path d="M371.92 292.62C371.92 292.62 371.08 252.24 410.45 251.06C410.45 251.07 414.82 295.15 371.92 292.62Z" fill="#1C96A0"/>
<path d="M375.39 293.15C374.25 293.15 373.09 293.12 371.9 293.05L371.51 293.03L371.5 292.64C371.5 292.54 371.34 282.33 376.04 272.12C378.81 266.11 382.69 261.26 387.57 257.73C393.68 253.31 401.37 250.93 410.43 250.66L410.82 250.65L410.86 251.04C410.87 251.09 411.35 256.16 410.37 262.67C409.47 268.69 407.1 277.22 400.92 283.64C394.86 289.95 386.27 293.15 375.39 293.15ZM372.34 292.23C384.45 292.86 393.86 289.78 400.32 283.06C406.34 276.8 408.66 268.46 409.54 262.57C410.35 257.19 410.14 252.81 410.06 251.51C394.12 252.1 382.93 259.15 376.8 272.47C372.7 281.38 372.36 290.28 372.34 292.23Z" fill="#1C96A0"/>
<path d="M366.24 172.19L365.68 168.18H361.96L361.4 172.19H358.42L361.76 151.7H366.12L369.46 172.19H366.24ZM362.38 165.4H365.28L363.82 155.07L362.38 165.4Z" fill="#1C96A0"/>
<path d="M370.98 172.19V151.7H379.76V154.63H374.2V160.04H378.62V162.97H374.2V169.26H379.76V172.19H370.98Z" fill="#1C96A0"/>
<path d="M381.48 172.19V151.7H386.4C389.59 151.7 391.2 153.4 391.2 156.76V167.12C391.2 170.49 389.59 172.18 386.4 172.18H381.48V172.19ZM384.7 169.26H386.34C387.42 169.26 387.98 168.59 387.98 167.27V156.62C387.98 155.3 387.42 154.63 386.34 154.63H384.7V169.26Z" fill="#1C96A0"/>
<path d="M753.052 291.874L902.942 291.874L902.942 144.694L753.052 144.694L753.052 291.874Z" fill="#E75553"/>
<path d="M834.15 291.88L902.94 291.88L902.94 224.01L834.15 224.01L834.15 291.88Z" fill="#FFE4B6"/>
<path d="M753.054 291.88L821.844 291.88L821.844 224.01L753.054 224.01L753.054 291.88Z" fill="#FFE4B6"/>
<path d="M753.054 211.688L821.844 211.688L821.844 144.688L753.054 144.688L753.054 211.688Z" fill="#FFE4B6"/>
<path d="M834.15 211.688L902.94 211.688L902.94 144.688L834.15 144.688L834.15 211.688Z" fill="#FFE4B6"/>
<path d="M808.39 121.28L828 140.88L847.61 121.28" stroke="#070707" strokeWidth="2" stroke-miterlimit="10"/>
<path d="M834.15 291.88L902.94 291.88L902.94 224.01L834.15 224.01L834.15 291.88Z" stroke="#070707" strokeWidth="2" stroke-miterlimit="10"/>
<path d="M753.054 291.88L821.844 291.88L821.844 224.01L753.054 224.01L753.054 291.88Z" stroke="#070707" strokeWidth="2" stroke-miterlimit="10"/>
<path d="M753.054 211.688L821.844 211.688L821.844 144.688L753.054 144.688L753.054 211.688Z" stroke="#070707" strokeWidth="2" stroke-miterlimit="10"/>
<path d="M834.15 211.688L902.94 211.688L902.94 144.688L834.15 144.688L834.15 211.688Z" stroke="#070707" strokeWidth="2" stroke-miterlimit="10"/>
<path d="M753.052 291.874L902.942 291.874L902.942 144.694L753.052 144.694L753.052 291.874Z" stroke="#070707" strokeWidth="2" stroke-miterlimit="10"/>
<path d="M669.289 291.882L733.459 291.882L733.459 228.872L669.289 228.872L669.289 291.882Z" fill="#E75553"/>
<path d="M704.01 291.876L733.46 291.876L733.46 262.816L704.01 262.816L704.01 291.876Z" fill="#FFD423" stroke="#070707" strokeWidth="2" stroke-miterlimit="10"/>
<path d="M669.288 291.876L698.738 291.876L698.738 262.816L669.288 262.816L669.288 291.876Z" fill="#FFD423" stroke="#070707" strokeWidth="2" stroke-miterlimit="10"/>
<path d="M669.288 257.552L698.738 257.552L698.738 228.872L669.288 228.872L669.288 257.552Z" fill="#FFD423" stroke="#070707" strokeWidth="2" stroke-miterlimit="10"/>
<path d="M704.01 257.552L733.46 257.552L733.46 228.872L704.01 228.872L704.01 257.552Z" fill="#FFD423" stroke="#070707" strokeWidth="2" stroke-miterlimit="10"/>
<path d="M692.97 218.84L701.37 227.23L709.76 218.84" stroke="#070707" strokeWidth="2" stroke-miterlimit="10"/>
<path d="M704.01 291.876L733.46 291.876L733.46 262.816L704.01 262.816L704.01 291.876Z" stroke="#070707" strokeWidth="2" stroke-miterlimit="10"/>
<path d="M669.288 291.876L698.738 291.876L698.738 262.816L669.288 262.816L669.288 291.876Z" stroke="#070707" strokeWidth="2" stroke-miterlimit="10"/>
<path d="M669.288 257.552L698.738 257.552L698.738 228.872L669.288 228.872L669.288 257.552Z" stroke="#070707" strokeWidth="2" stroke-miterlimit="10"/>
<path d="M704.01 257.552L733.46 257.552L733.46 228.872L704.01 228.872L704.01 257.552Z" stroke="#070707" strokeWidth="2" stroke-miterlimit="10"/>
<path d="M669.289 291.882L733.459 291.882L733.459 228.872L669.289 228.872L669.289 291.882Z" stroke="#070707" strokeWidth="2" stroke-miterlimit="10"/>
</svg>
