<svg width="339" height="354" viewBox="0 0 339 354" fill="none" xmlns="http://www.w3.org/2000/svg">
<mask id="mask0_925_5337" style="mask-type:alpha" maskUnits="userSpaceOnUse" x="0" y="0" width="339" height="354">
<rect x="0.0566406" width="338.217" height="353.546" fill="#C4C4C4"/>
</mask>
<g mask="url(#mask0_925_5337)">
<path d="M238.127 215.869C254.622 215.869 267.994 203.733 267.994 188.762C267.994 173.791 254.622 161.655 238.127 161.655C221.631 161.655 208.259 173.791 208.259 188.762C208.259 203.733 221.631 215.869 238.127 215.869Z" stroke="black" stroke-width="1.31551" stroke-miterlimit="10"/>
<path d="M329.161 209.962L320.006 224.35H338.274L329.161 209.962Z" fill="#1C96A0"/>
<path d="M149.738 249.159L176.381 224.966L203.052 249.159C195.981 255.574 186.393 259.177 176.395 259.177C166.398 259.177 156.809 255.574 149.738 249.159Z" fill="#61ADE0"/>
<path d="M149.738 214.504L176.381 190.311L203.052 214.504C199.557 217.691 195.404 220.22 190.829 221.946C186.254 223.672 181.349 224.56 176.395 224.56C171.441 224.56 166.536 223.672 161.961 221.946C157.386 220.22 153.233 217.691 149.738 214.504Z" fill="#7CC8C2"/>
<path d="M149.738 179.888L176.381 155.695L203.052 179.888C199.557 183.076 195.404 185.605 190.829 187.33C186.254 189.056 181.349 189.944 176.395 189.944C171.441 189.944 166.536 189.056 161.961 187.33C157.386 185.605 153.233 183.076 149.738 179.888Z" fill="#61ADE0"/>
<path d="M318.646 351.642C329.142 351.642 337.651 343.92 337.651 334.393C337.651 324.867 329.142 317.145 318.646 317.145C308.15 317.145 299.641 324.867 299.641 334.393C299.641 343.92 308.15 351.642 318.646 351.642Z" fill="#7CC8C2"/>
<path d="M126.263 95.3762C136.76 95.3762 145.269 87.6536 145.269 78.1273C145.269 68.601 136.76 60.8784 126.263 60.8784C115.767 60.8784 107.258 68.601 107.258 78.1273C107.258 87.6536 115.767 95.3762 126.263 95.3762Z" fill="#FFE4B6"/>
<path d="M84.2458 137.146C107.451 137.146 126.263 120.073 126.263 99.0124C126.263 77.9516 107.451 60.8784 84.2458 60.8784C61.0403 60.8784 42.2285 77.9516 42.2285 99.0124C42.2285 120.073 61.0403 137.146 84.2458 137.146Z" stroke="black" stroke-width="1.31551" stroke-miterlimit="10"/>
<path d="M-156.359 349.699C-156.359 311.387 -139.59 274.644 -109.74 247.553C-79.8908 220.463 -39.4061 205.243 2.80765 205.243C45.0214 205.243 85.5061 220.463 115.356 247.553C145.205 274.644 161.975 311.387 161.975 349.699" fill="#1C96A0"/>
<path d="M66.8018 349.699C67.1104 326.974 77.2741 305.274 95.0901 289.303C112.906 273.332 136.939 264.375 161.981 264.375C187.023 264.375 211.056 273.332 228.872 289.303C246.688 305.274 256.851 326.974 257.16 349.699" fill="#7CC8C2"/>
<path d="M2.79979 1.36084H-185.172V349.699H2.79979V1.36084Z" fill="#E75553"/>
<path d="M-23.4807 288.869H2.81445L2.81445 1.36072H-23.4807L-23.4807 288.869Z" fill="#FFE4B6"/>
<path d="M258.665 282.043V345.053H261.992V282.043H258.665ZM261.659 344.724H258.998V282.345H261.659V344.724Z" fill="white" stroke="#070707" stroke-width="1.31551" stroke-miterlimit="10"/>
<path d="M258.332 281.741V345.289H262.353V281.741H258.332ZM261.659 344.751H258.997V282.345H261.659V344.751Z" fill="#7CC8C2"/>
<path d="M261.658 282.345H258.997V344.725H261.658V282.345Z" fill="#7CC8C2"/>
<path d="M263.163 349.556C263.163 349.556 263.829 320.571 232.688 319.731C232.688 319.731 229.231 351.367 263.163 349.556Z" fill="#1C96A0"/>
<path d="M260.415 349.936C251.809 349.936 245.011 347.639 240.166 343.097C235.32 338.555 233.411 332.372 232.702 328.04C232.231 325.279 232.1 322.479 232.312 319.691V319.416H232.63C239.083 319.402 245.389 321.169 250.71 324.483C254.681 327.153 257.82 330.713 259.822 334.814C262.097 339.455 263.322 344.463 263.423 349.542V349.831H263.12C262.237 349.91 261.312 349.936 260.415 349.936ZM232.934 320.033C232.766 322.685 232.902 325.347 233.339 327.974C234.047 332.201 235.884 338.187 240.571 342.69C245.676 347.507 253.125 349.726 262.7 349.253C262.552 344.354 261.348 339.529 259.157 335.05C254.441 325.52 245.59 320.453 232.992 320.033H232.934Z" fill="#1C96A0"/>
<path d="M259.865 314.769C259.865 314.769 261.066 303.664 241.062 305.711C241.062 305.711 246.125 310.057 249.379 312.721C250.79 313.845 252.494 314.623 254.329 314.981C256.164 315.339 258.07 315.266 259.865 314.769Z" fill="#1C96A0"/>
<path d="M256.568 315.491C253.825 315.522 251.17 314.613 249.133 312.944C245.922 310.319 240.874 305.987 240.817 305.935L240.296 305.488L241.005 305.423C248.699 304.622 254.225 305.672 257.407 308.507C258.326 309.324 259.044 310.307 259.515 311.393C259.986 312.479 260.199 313.643 260.14 314.808V314.992L259.952 315.058C258.855 315.36 257.714 315.506 256.568 315.491ZM241.858 305.908C243.232 307.09 247.036 310.332 249.64 312.472C250.974 313.533 252.578 314.275 254.308 314.633C256.038 314.99 257.838 314.951 259.547 314.52C259.552 313.476 259.328 312.442 258.889 311.477C258.449 310.513 257.803 309.637 256.987 308.901C254.051 306.315 248.96 305.318 241.858 305.908Z" fill="#1C96A0"/>
<path d="M260.328 302.876C260.328 302.876 261.398 292.742 275.906 294.186C275.906 294.186 274.3 305.541 260.328 302.876Z" fill="#1C96A0"/>
<path d="M264.335 303.585C262.963 303.577 261.597 303.441 260.256 303.178H259.967V302.902C260.367 300.332 261.811 297.991 264.017 296.338C266.909 294.238 270.873 293.424 275.906 293.923H276.239V294.225C275.728 297.196 273.978 299.876 271.35 301.707C269.289 302.991 266.833 303.648 264.335 303.585ZM260.704 302.639C264.899 303.388 268.341 302.902 270.945 301.222C273.324 299.543 274.949 297.135 275.515 294.448C270.829 294.041 267.112 294.816 264.465 296.772C262.499 298.272 261.17 300.347 260.704 302.639Z" fill="#1C96A0"/>
<path d="M260.545 291.061C272.927 291.061 282.964 281.952 282.964 270.715C282.964 259.477 272.927 250.368 260.545 250.368C248.163 250.368 238.126 259.477 238.126 270.715C238.126 281.952 248.163 291.061 260.545 291.061Z" fill="#FFD423" stroke="#070707" stroke-width="1.31551" stroke-miterlimit="10"/>
<path d="M260.545 285.745C269.692 285.745 277.107 279.016 277.107 270.715C277.107 262.413 269.692 255.684 260.545 255.684C251.399 255.684 243.984 262.413 243.984 270.715C243.984 279.016 251.399 285.745 260.545 285.745Z" fill="white" stroke="#070707" stroke-width="1.31551" stroke-miterlimit="10"/>
<path d="M265.347 276.438C264.287 277.238 262.965 277.7 261.587 277.75V279.969H259.793V277.816C258.756 277.759 257.73 277.583 256.741 277.291C255.909 277.053 255.134 276.674 254.456 276.175L255.44 274.18C256.031 274.6 256.689 274.937 257.392 275.177C258.162 275.446 258.971 275.614 259.793 275.676V271.738C258.908 271.557 258.042 271.307 257.204 270.99C256.53 270.734 255.938 270.328 255.483 269.809C254.982 269.216 254.731 268.48 254.774 267.734C254.769 267.223 254.88 266.716 255.102 266.246C255.323 265.776 255.65 265.353 256.062 265.004C257.108 264.199 258.422 263.737 259.793 263.691V261.407H261.587V263.613C262.395 263.65 263.196 263.773 263.973 263.98C264.694 264.17 265.381 264.453 266.013 264.82L265.116 266.816C264.033 266.244 262.831 265.882 261.587 265.752V269.69C262.475 269.872 263.346 270.118 264.19 270.425C264.873 270.682 265.474 271.088 265.94 271.607C266.434 272.198 266.685 272.927 266.649 273.668C266.668 274.188 266.561 274.705 266.336 275.183C266.111 275.662 265.774 276.09 265.347 276.438ZM258.115 268.653C258.611 268.965 259.165 269.192 259.75 269.323V265.805C259.139 265.861 258.56 266.08 258.087 266.435C257.912 266.585 257.775 266.766 257.683 266.968C257.591 267.169 257.546 267.385 257.551 267.603C257.555 267.809 257.611 268.012 257.717 268.194C257.822 268.377 257.974 268.534 258.159 268.653H258.115ZM263.25 275.033C263.43 274.894 263.574 274.721 263.671 274.526C263.769 274.331 263.817 274.118 263.814 273.904C263.817 273.695 263.765 273.488 263.662 273.301C263.558 273.113 263.407 272.951 263.221 272.828C262.714 272.506 262.145 272.275 261.543 272.145V275.637C262.179 275.595 262.788 275.385 263.294 275.033H263.25Z" fill="#1C96A0"/>
<path d="M265.347 276.438C264.287 277.238 262.965 277.7 261.587 277.75V279.969H259.793V277.816C258.756 277.759 257.73 277.583 256.741 277.291C255.909 277.053 255.134 276.674 254.456 276.175L255.44 274.18C256.031 274.6 256.689 274.937 257.392 275.177C258.162 275.446 258.971 275.614 259.793 275.676V271.738C258.908 271.557 258.042 271.307 257.204 270.99C256.53 270.734 255.938 270.328 255.483 269.809C254.982 269.216 254.731 268.48 254.774 267.734C254.769 267.223 254.88 266.716 255.102 266.246C255.323 265.776 255.65 265.353 256.062 265.004C257.108 264.199 258.422 263.737 259.793 263.691V261.407H261.587V263.613C262.395 263.65 263.196 263.773 263.973 263.98C264.694 264.17 265.381 264.453 266.013 264.82L265.116 266.816C264.033 266.244 262.831 265.882 261.587 265.752V269.69C262.475 269.872 263.346 270.118 264.19 270.425C264.873 270.682 265.474 271.088 265.94 271.607C266.434 272.198 266.685 272.927 266.649 273.668C266.668 274.188 266.561 274.705 266.336 275.183C266.111 275.662 265.774 276.09 265.347 276.438V276.438ZM258.115 268.653C258.611 268.965 259.165 269.192 259.75 269.323V265.805C259.139 265.861 258.56 266.08 258.087 266.435C257.912 266.585 257.775 266.766 257.683 266.968C257.591 267.169 257.546 267.385 257.551 267.603C257.555 267.809 257.611 268.012 257.717 268.194C257.822 268.377 257.974 268.534 258.159 268.653H258.115ZM263.25 275.033C263.43 274.894 263.574 274.721 263.671 274.526C263.769 274.331 263.817 274.118 263.814 273.904C263.817 273.695 263.765 273.488 263.662 273.301C263.558 273.113 263.407 272.951 263.221 272.828C262.714 272.506 262.145 272.275 261.543 272.145V275.637C262.179 275.595 262.788 275.385 263.294 275.033H263.25Z" stroke="#070707" stroke-width="1.31551" stroke-miterlimit="10"/>
<path d="M262.975 349.805C254.947 345.105 247.065 337.216 241.814 331.427C236.159 325.152 232.355 319.928 232.312 319.875L232.861 319.547C233.02 319.757 248.106 340.366 263.337 349.293L262.975 349.805Z" fill="#1C96A0"/>
<path d="M260.473 303.046L260.054 302.587C264.773 298.958 270.05 295.973 275.718 293.726L275.95 294.291C270.353 296.517 265.14 299.466 260.473 303.046Z" fill="#1C96A0"/>
<path d="M259.576 314.926C258.511 313.51 257.179 312.275 255.642 311.277C251.312 308.489 246.306 306.688 241.048 306.026L241.163 305.436C246.543 306.108 251.661 307.96 256.076 310.831C257.681 311.862 259.063 313.153 260.155 314.638L259.576 314.926Z" fill="#1C96A0"/>
<path d="M256.668 349.556C256.668 349.556 256.003 320.571 287.143 319.731C287.143 319.731 290.6 351.367 256.668 349.556Z" fill="#1C96A0"/>
<path d="M259.46 349.936C258.549 349.936 257.637 349.936 256.697 349.857H256.394V349.568C256.469 344.477 257.669 339.45 259.923 334.787C261.935 330.688 265.078 327.13 269.049 324.456C274.37 321.142 280.676 319.375 287.129 319.389H287.447V319.665C287.659 322.452 287.528 325.253 287.057 328.014C286.348 332.346 284.468 338.515 279.593 343.07C274.719 347.625 268.022 349.936 259.46 349.936ZM257.001 349.227C266.576 349.686 274.025 347.468 279.131 342.663C283.889 338.161 285.726 332.162 286.362 327.948C286.8 325.321 286.935 322.659 286.767 320.006C274.155 320.426 265.303 325.493 260.458 335.063C258.295 339.533 257.121 344.346 257.001 349.227Z" fill="#1C96A0"/>
<path d="M256.784 349.871L256.423 349.359C265.363 344.109 273.24 337.501 279.71 329.826C282.465 326.647 284.886 323.241 286.942 319.652L287.535 319.915C285.483 323.535 283.062 326.971 280.303 330.18C273.764 337.918 265.809 344.578 256.784 349.871Z" fill="#1C96A0"/>
</g>
</svg>
