<svg width="623" height="352" viewBox="0 0 623 352" fill="none" xmlns="http://www.w3.org/2000/svg">
<g clip-path="url(#clip0_925_5244)">
<mask id="mask0_925_5244" style="mask-type:alpha" maskUnits="userSpaceOnUse" x="0" y="0" width="623" height="352">
<rect y="0.546387" width="622.969" height="350.849" fill="#C4C4C4"/>
</mask>
<g mask="url(#mask0_925_5244)">
<path d="M8.99649 351.101C13.9651 351.101 17.993 347.446 17.993 342.936C17.993 338.427 13.9651 334.771 8.99649 334.771C4.02787 334.771 0 338.427 0 342.936C0 347.446 4.02787 351.101 8.99649 351.101Z" fill="#7CC8C2"/>
<path d="M165.046 107.858C175.543 107.858 184.052 100.136 184.052 90.6093C184.052 81.083 175.543 73.3604 165.046 73.3604C154.55 73.3604 146.041 81.083 146.041 90.6093C146.041 100.136 154.55 107.858 165.046 107.858Z" fill="#FFE4B6"/>
<path d="M148.876 175.501L115.334 223.402H148.876V175.501Z" stroke="black" stroke-width="1.31551" stroke-miterlimit="10"/>
<path d="M174.926 99.8638L153.273 133.889H196.462L174.926 99.8638Z" fill="#1C96A0"/>
<path d="M260.435 133.403C246.476 134.974 233.776 141.513 225.129 151.581C216.481 161.65 212.595 174.424 214.324 187.093" stroke="black" stroke-width="1.31551" stroke-miterlimit="10"/>
<path d="M255.358 140.295L261.289 133.653L253.984 128.271" stroke="black" stroke-width="1.31551" stroke-miterlimit="10"/>
<path d="M457.794 349.159C457.794 310.847 474.563 274.104 504.413 247.013C534.262 219.922 574.747 204.703 616.961 204.703C659.175 204.703 699.659 219.922 729.509 247.013C759.359 274.104 776.128 310.847 776.128 349.159" fill="#1C96A0"/>
<path d="M182.244 349.159C182.244 310.847 199.013 274.104 228.863 247.013C258.713 219.922 299.197 204.703 341.411 204.703C383.625 204.703 424.11 219.922 453.959 247.013C483.809 274.104 500.578 310.847 500.578 349.159" fill="#1C96A0"/>
<path d="M70.6846 349.159C70.9933 326.433 81.1569 304.734 98.9729 288.762C116.789 272.791 140.822 263.835 165.864 263.835C190.905 263.835 214.938 272.791 232.754 288.762C250.57 304.734 260.734 326.433 261.043 349.159" fill="#7CC8C2"/>
<path d="M394.486 99.7654C394.486 72.0529 369.733 49.5874 339.198 49.5874C308.663 49.5874 283.91 72.0529 283.91 99.7654C283.91 127.478 308.663 149.943 339.198 149.943C369.733 149.943 394.486 127.478 394.486 99.7654Z" fill="#FFE4B6"/>
<path d="M394.486 157.649C390.299 157.649 386.153 156.9 382.284 155.446C378.415 153.992 374.9 151.86 371.94 149.173C368.979 146.486 366.63 143.296 365.028 139.785C363.425 136.274 362.601 132.511 362.601 128.71C362.601 124.91 363.425 121.147 365.028 117.636C366.63 114.125 368.979 110.935 371.94 108.248C374.9 105.561 378.415 103.429 382.284 101.975C386.153 100.52 390.299 99.772 394.486 99.772" fill="#FFE4B6"/>
<path d="M616.954 0.820312H428.982V349.159H616.954V0.820312Z" fill="#E75553"/>
<path d="M590.674 288.328H616.969V0.82019H590.674V288.328Z" fill="#FFE4B6"/>
<path d="M457.78 235.229H561.08V29.1353H457.78V235.229Z" fill="#FFE4B6"/>
<path d="M590.558 288.342V257.716H477.913V288.342H590.558Z" fill="#FFE4B6"/>
<path d="M556.871 318.914V288.289H444.227V318.914H556.871Z" fill="#FFE4B6"/>
<path d="M523.532 349.159V318.534H410.888V349.159H523.532Z" fill="#FFE4B6"/>
<path d="M579.319 166.838H477.913V257.204H579.319V166.838Z" fill="#E75553" stroke="#020202" stroke-width="1.31551" stroke-miterlimit="10"/>
<path d="M524.458 214.975H477.913V257.217H524.458V214.975Z" fill="#FED45D" stroke="#070707" stroke-width="1.31551" stroke-miterlimit="10"/>
<path d="M579.319 214.975H532.774V257.217H579.319V214.975Z" fill="#FED45D" stroke="#070707" stroke-width="1.31551" stroke-miterlimit="10"/>
<path d="M579.319 166.838H532.774V209.081H579.319V166.838Z" fill="#FED45D" stroke="#070707" stroke-width="1.31551" stroke-miterlimit="10"/>
<path d="M524.458 166.838H477.913V209.081H524.458V166.838Z" fill="#FED45D" stroke="#070707" stroke-width="1.31551" stroke-miterlimit="10"/>
<path d="M394.486 302.873H343.125V348.647H394.486V302.873Z" fill="#E75553"/>
<path d="M366.701 327.263H343.125V348.66H366.701V327.263Z" fill="#FED45D"/>
<path d="M394.486 327.263H370.91V348.66H394.486V327.263Z" fill="#FED45D"/>
<path d="M394.486 302.873H370.91V324.27H394.486V302.873Z" fill="#FED45D"/>
<path d="M366.701 302.873H343.125V324.27H366.701V302.873Z" fill="#FED45D"/>
<path d="M328.863 111.944C328.863 110.665 329.037 109.52 329.386 108.512C329.736 107.504 330.298 106.554 331.073 105.662C331.888 104.77 332.954 103.858 334.273 102.928C335.436 102.075 336.367 101.318 337.065 100.659C337.802 99.9997 338.326 99.3404 338.636 98.6811C338.985 98.0219 339.159 97.285 339.159 96.4706C339.159 95.2296 338.694 94.2989 337.763 93.6784C336.871 93.0191 335.611 92.6895 333.982 92.6895C332.353 92.6895 330.744 92.9415 329.154 93.4457C327.564 93.9498 325.935 94.6285 324.267 95.4817L321.184 89.2573C323.085 88.2102 325.14 87.357 327.35 86.6978C329.561 86.0385 331.985 85.7088 334.622 85.7088C338.655 85.7088 341.777 86.6784 343.988 88.6174C346.237 90.5565 347.362 93.0191 347.362 96.0052C347.362 97.5953 347.109 98.972 346.605 100.135C346.101 101.299 345.345 102.385 344.337 103.393C343.328 104.363 342.068 105.41 340.555 106.534C339.431 107.349 338.558 108.047 337.938 108.629C337.317 109.21 336.891 109.773 336.658 110.315C336.464 110.858 336.367 111.537 336.367 112.352V114.038H328.863V111.944ZM327.932 123.753C327.932 121.969 328.417 120.728 329.386 120.03C330.356 119.293 331.539 118.925 332.935 118.925C334.292 118.925 335.456 119.293 336.425 120.03C337.395 120.728 337.88 121.969 337.88 123.753C337.88 125.46 337.395 126.701 336.425 127.476C335.456 128.213 334.292 128.581 332.935 128.581C331.539 128.581 330.356 128.213 329.386 127.476C328.417 126.701 327.932 125.46 327.932 123.753Z" fill="#1C96A0"/>
<path d="M66.8369 234.35V340.81H72.4633V234.35H66.8369ZM71.8993 340.364H67.401V234.862H71.8993V340.364Z" fill="white" stroke="#070707" stroke-width="1.31551" stroke-miterlimit="10"/>
<path d="M66.2881 233.838V341.375H73.0282V233.838H66.2881ZM71.9 340.364H67.4018V234.862H71.9V340.364Z" fill="#7CC8C2"/>
<path d="M71.8996 234.862H67.4014V340.351H71.8996V234.862Z" fill="#7CC8C2"/>
<path d="M74.4314 348.529C74.4314 348.529 75.5595 299.513 22.8968 298.082C22.8968 298.082 17.0534 351.588 74.4314 348.529Z" fill="#1C96A0"/>
<path d="M69.8024 349.159C55.2373 349.159 43.7675 345.286 35.6244 337.607C27.4813 329.928 24.198 319.452 22.983 312.154C22.1982 307.481 21.9799 302.745 22.3322 298.029V297.557H22.8529C34.988 297.885 45.2718 300.773 53.4438 306.142C60.1727 310.647 65.4877 316.67 68.8623 323.614C72.7206 331.47 74.787 339.954 74.9371 348.555V349.028H74.4164C72.8832 349.12 71.3211 349.159 69.8024 349.159ZM23.417 298.607C23.137 303.089 23.3696 307.584 24.1112 312.023C25.2973 319.177 28.4504 329.311 36.4489 336.964C45.1271 345.116 57.6673 348.87 73.8667 348.096C73.6359 339.81 71.6059 331.646 67.8932 324.073C59.6922 307.861 44.7222 299.316 23.417 298.607Z" fill="#1C96A0"/>
<path d="M68.8615 289.707C68.8615 289.707 70.872 270.909 37.1279 274.387C37.1279 274.387 45.6905 281.739 51.1868 286.202C53.5642 288.097 56.4335 289.414 59.5252 290.027C62.6169 290.64 65.8296 290.53 68.8615 289.707Z" fill="#1C96A0"/>
<path d="M63.3803 290.927C58.7429 290.979 54.2546 289.441 50.8112 286.622C45.3728 282.171 36.8392 274.807 36.7524 274.807L35.8701 274.059L37.0706 273.928C50.088 272.615 59.4172 274.348 64.7977 279.179C66.3527 280.559 67.5688 282.223 68.3664 284.059C69.164 285.896 69.5252 287.865 69.4262 289.838V290.153L69.079 290.258C67.2294 290.748 65.3067 290.974 63.3803 290.927ZM38.4157 274.781C40.7444 276.776 47.1664 282.25 51.5634 285.847C53.825 287.636 56.539 288.89 59.4638 289.497C62.3885 290.104 65.4333 290.045 68.3269 289.326C68.3378 287.559 67.9596 285.808 67.2144 284.176C66.4693 282.544 65.3722 281.064 63.9878 279.822C59.0267 275.398 50.4207 273.705 38.4157 274.781Z" fill="#1C96A0"/>
<path d="M69.6572 269.583C69.6572 269.583 71.4507 252.426 95.9814 254.881C95.9814 254.881 93.2766 274.073 69.6572 269.583Z" fill="#1C96A0"/>
<path d="M76.4263 270.778C74.1113 270.76 71.8043 270.527 69.5416 270.082L69.0498 269.99V269.531C69.7349 265.195 72.18 261.248 75.9056 258.465C80.7366 254.894 87.4767 253.516 95.9959 254.369H96.5744V254.881C95.7034 259.942 92.7139 264.504 88.2288 267.614C84.76 269.771 80.6294 270.878 76.4263 270.778ZM70.2937 269.176C77.3665 270.489 83.1954 269.636 87.6503 266.787C91.6729 263.945 94.4183 259.872 95.3739 255.327C87.4478 254.632 81.1705 255.957 76.7012 259.265C73.3502 261.784 71.0821 265.293 70.2937 269.176Z" fill="#1C96A0"/>
<path d="M70.0188 249.604C90.9638 249.604 107.943 234.194 107.943 215.185C107.943 196.176 90.9638 180.766 70.0188 180.766C49.0739 180.766 32.0947 196.176 32.0947 215.185C32.0947 234.194 49.0739 249.604 70.0188 249.604Z" fill="#FFD423" stroke="#070707" stroke-width="1.31551" stroke-miterlimit="10"/>
<path d="M70.0193 240.611C85.4924 240.611 98.0357 229.227 98.0357 215.184C98.0357 201.141 85.4924 189.757 70.0193 189.757C54.5463 189.757 42.0029 201.141 42.0029 215.184C42.0029 229.227 54.5463 240.611 70.0193 240.611Z" fill="white" stroke="#070707" stroke-width="1.31551" stroke-miterlimit="10"/>
<path d="M78.105 224.872C76.3198 226.252 74.0829 227.06 71.7409 227.169V230.911H68.7469V227.196C66.9907 227.1 65.2553 226.8 63.5833 226.303C62.171 225.908 60.8552 225.27 59.707 224.426L61.3704 221.039C62.371 221.756 63.4885 222.327 64.6826 222.732C65.9853 223.192 67.3541 223.48 68.7469 223.586V216.891C67.2622 216.566 65.8106 216.126 64.4078 215.578C63.2705 215.144 62.2747 214.452 61.515 213.57C60.6853 212.566 60.266 211.332 60.329 210.078C60.3179 209.212 60.5065 208.354 60.8826 207.558C61.2587 206.762 61.8141 206.047 62.513 205.457C64.2648 204.065 66.4919 203.263 68.8192 203.186V199.393H71.8422V203.108C73.2097 203.183 74.5635 203.399 75.8776 203.751C77.0977 204.067 78.2617 204.54 79.3344 205.155L77.888 208.542C76.0568 207.569 74.0225 206.952 71.9145 206.731V213.491C73.4188 213.795 74.894 214.208 76.3259 214.725C77.4548 215.166 78.4478 215.851 79.2187 216.72C80.0612 217.724 80.4864 218.965 80.4192 220.225C80.4245 221.105 80.2205 221.976 79.8211 222.778C79.4217 223.58 78.8364 224.294 78.105 224.872ZM65.9554 211.745C66.7898 212.276 67.7271 212.659 68.718 212.874V206.914C67.6845 206.999 66.7047 207.37 65.912 207.978C65.6341 208.235 65.4174 208.541 65.2756 208.878C65.1338 209.214 65.0698 209.574 65.0876 209.934C65.0693 210.273 65.1412 210.611 65.2973 210.919C65.4534 211.228 65.689 211.497 65.9843 211.706L65.9554 211.745ZM74.6337 222.522C74.9367 222.286 75.1781 221.991 75.3407 221.66C75.5033 221.328 75.5829 220.968 75.5738 220.606C75.584 220.253 75.4983 219.903 75.3242 219.587C75.1502 219.271 74.8932 218.999 74.5758 218.794C73.7043 218.241 72.7214 217.848 71.6831 217.639V223.559C72.7715 223.475 73.8081 223.101 74.6626 222.483L74.6337 222.522Z" fill="#1C96A0"/>
<path d="M78.105 224.872C76.3198 226.252 74.0829 227.06 71.7409 227.169V230.911H68.7469V227.196C66.9907 227.1 65.2553 226.8 63.5833 226.303C62.171 225.908 60.8552 225.27 59.707 224.426L61.3704 221.039C62.371 221.756 63.4885 222.327 64.6826 222.732C65.9853 223.192 67.3541 223.48 68.7469 223.586V216.891C67.2622 216.566 65.8106 216.126 64.4078 215.578C63.2705 215.144 62.2747 214.452 61.515 213.57C60.6853 212.566 60.266 211.332 60.329 210.078C60.3179 209.212 60.5065 208.354 60.8826 207.558C61.2587 206.762 61.8141 206.047 62.513 205.457C64.2648 204.065 66.4919 203.263 68.8192 203.186V199.393H71.8422V203.108C73.2097 203.183 74.5635 203.399 75.8776 203.751C77.0977 204.067 78.2617 204.54 79.3344 205.155L77.888 208.542C76.0568 207.569 74.0225 206.952 71.9145 206.731V213.491C73.4188 213.795 74.894 214.208 76.3259 214.725C77.4548 215.166 78.4478 215.851 79.2187 216.72C80.0612 217.724 80.4864 218.965 80.4192 220.225C80.4245 221.105 80.2205 221.976 79.8211 222.778C79.4217 223.58 78.8364 224.294 78.105 224.872V224.872ZM65.9554 211.745C66.7898 212.276 67.7271 212.659 68.718 212.874V206.914C67.6845 206.999 66.7047 207.37 65.912 207.978C65.6341 208.235 65.4174 208.541 65.2756 208.878C65.1338 209.214 65.0698 209.574 65.0876 209.934C65.0693 210.273 65.1412 210.611 65.2973 210.919C65.4534 211.228 65.689 211.497 65.9843 211.706L65.9554 211.745ZM74.6337 222.522C74.9367 222.286 75.1781 221.991 75.3407 221.66C75.5033 221.328 75.5829 220.968 75.5738 220.606C75.584 220.253 75.4983 219.903 75.3242 219.587C75.1502 219.271 74.8932 218.999 74.5758 218.794C73.7043 218.241 72.7214 217.848 71.6831 217.639V223.559C72.7715 223.475 73.8081 223.101 74.6626 222.483L74.6337 222.522Z" stroke="#070707" stroke-width="1.31551" stroke-miterlimit="10"/>
<path d="M74.128 348.949C60.5465 341.007 47.1674 327.683 38.33 317.877C28.7695 307.284 22.3331 298.449 22.2607 298.357L23.2009 297.793C23.4612 298.147 48.9754 333.013 74.7354 348.096L74.128 348.949Z" fill="#1C96A0"/>
<path d="M69.9039 269.924L69.1807 269.15C77.1668 263.018 86.0865 257.964 95.6639 254.146L96.0834 255.104C86.6122 258.867 77.7937 263.86 69.9039 269.924Z" fill="#1C96A0"/>
<path d="M68.3851 289.956C66.5766 287.562 64.3199 285.474 61.7173 283.786C57.3058 280.767 49.4375 276.763 37.042 274.886L37.23 273.875C49.9003 275.792 57.9422 279.901 62.4549 283.064C65.1677 284.809 67.506 286.989 69.3541 289.497L68.3851 289.956Z" fill="#1C96A0"/>
<path d="M63.4677 348.529C63.4677 348.529 62.3395 299.513 115.002 298.082C115.002 298.082 120.846 351.588 63.4677 348.529Z" fill="#1C96A0"/>
<path d="M68.096 349.159C66.6496 349.159 65.0297 349.159 63.4387 349.041H62.918V348.568C63.068 339.968 65.1344 331.484 68.9928 323.627C72.3684 316.688 77.6774 310.666 84.3967 306.155C92.5688 300.786 102.853 297.898 114.988 297.57H115.508V298.042C115.861 302.758 115.642 307.495 114.858 312.167C113.643 319.466 110.518 329.823 102.216 337.62C93.9139 345.418 82.6611 349.159 68.096 349.159ZM64.0317 348.043C80.2312 348.818 92.8147 345.063 101.45 336.911C109.506 329.311 112.601 319.177 113.787 311.97C114.529 307.532 114.761 303.036 114.481 298.554C93.1618 299.263 78.1918 307.822 69.9908 323.995C66.2825 331.577 64.2576 339.749 64.0317 348.043Z" fill="#1C96A0"/>
<path d="M63.6407 349.054L63.0332 348.201C78.1519 339.318 91.4744 328.142 102.418 315.16C107.052 309.781 111.129 304.024 114.597 297.964L115.609 298.397C112.124 304.515 108.018 310.325 103.344 315.751C92.3071 328.833 78.8777 340.097 63.6407 349.054Z" fill="#1C96A0"/>
<path d="M278.153 268.782V292.148C276.157 292.148 274.243 292.867 272.83 294.146C271.417 295.426 270.622 297.162 270.618 298.974V302.203H252.972V343.186C252.97 344.083 253.163 344.971 253.54 345.8C253.918 346.629 254.472 347.382 255.17 348.016C255.869 348.65 256.699 349.153 257.613 349.496C258.526 349.838 259.505 350.013 260.493 350.012H200.063C198.068 350.012 196.155 349.293 194.745 348.012C193.334 346.732 192.542 344.996 192.542 343.186V268.782H278.153Z" fill="#FED45D"/>
<path d="M278.153 268.782V292.148C276.157 292.148 274.243 292.867 272.83 294.146C271.417 295.426 270.622 297.162 270.618 298.974V302.203H252.972V343.186C252.97 344.083 253.163 344.971 253.54 345.8C253.918 346.629 254.472 347.382 255.17 348.016C255.869 348.65 256.699 349.153 257.613 349.496C258.526 349.838 259.505 350.013 260.493 350.012H200.063C198.068 350.012 196.155 349.293 194.745 348.012C193.334 346.732 192.542 344.996 192.542 343.186V268.782H278.153Z" stroke="black" stroke-width="1.31551" stroke-miterlimit="10"/>
<path d="M303.349 302.203V343.186C303.351 344.083 303.158 344.971 302.78 345.8C302.403 346.629 301.849 347.382 301.15 348.016C300.452 348.651 299.622 349.153 298.708 349.496C297.795 349.838 296.816 350.013 295.828 350.012H260.493C259.505 350.013 258.526 349.838 257.612 349.496C256.699 349.153 255.869 348.651 255.17 348.016C254.472 347.382 253.918 346.629 253.54 345.8C253.163 344.971 252.97 344.083 252.972 343.186V302.203H303.349Z" fill="#173588"/>
<path d="M285.646 298.974V302.204H270.589V298.974C270.593 297.163 271.388 295.427 272.801 294.147C274.214 292.867 276.128 292.148 278.124 292.148V292.148C280.112 292.162 282.013 292.887 283.416 294.165C284.818 295.442 285.609 297.171 285.617 298.974H285.646Z" stroke="black" stroke-width="1.31551" stroke-miterlimit="10"/>
<path d="M285.646 312.258V302.203" stroke="black" stroke-width="1.31551" stroke-miterlimit="10"/>
<path d="M270.589 312.258V302.203" stroke="black" stroke-width="1.31551" stroke-miterlimit="10"/>
<path d="M210.824 278.838V253.594C210.824 250.151 212.331 246.849 215.014 244.414C217.697 241.98 221.335 240.612 225.129 240.612V240.612C228.923 240.612 232.561 241.98 235.244 244.414C237.927 246.849 239.434 250.151 239.434 253.594V268.782" stroke="black" stroke-width="1.31551" stroke-miterlimit="10"/>
<path d="M210.824 268.782V350.012" stroke="black" stroke-width="1.31551" stroke-miterlimit="10"/>
<path d="M232.015 278.838V253.594C232.015 250.151 233.522 246.849 236.204 244.414C238.887 241.98 242.526 240.612 246.319 240.612V240.612C250.113 240.612 253.752 241.98 256.434 244.414C259.117 246.849 260.624 250.151 260.624 253.594V278.838" stroke="black" stroke-width="1.31551" stroke-miterlimit="10"/>
<path d="M303.349 302.203V343.186C303.351 344.083 303.158 344.971 302.78 345.8C302.403 346.629 301.849 347.382 301.15 348.016C300.452 348.651 299.622 349.153 298.708 349.496C297.795 349.838 296.816 350.013 295.828 350.012H260.493C259.505 350.013 258.526 349.838 257.612 349.496C256.699 349.153 255.869 348.651 255.17 348.016C254.472 347.382 253.918 346.629 253.54 345.8C253.163 344.971 252.97 344.083 252.972 343.186V302.203H303.349Z" stroke="black" stroke-width="1.31551" stroke-miterlimit="10"/>
<path d="M541.887 152.464L528.624 164.501L515.346 152.464" stroke="#070707" stroke-width="1.31551" stroke-miterlimit="10"/>
</g>
</g>
<defs>
<clipPath id="clip0_925_5244">
<rect width="623" height="351" fill="white" transform="translate(0 0.546387)"/>
</clipPath>
</defs>
</svg>
